<?xml version="1.0" encoding="UTF-8" standalone="no"?>
<!DOCTYPE svg PUBLIC "-//W3C//DTD SVG 1.1//EN"
 "http://www.w3.org/Graphics/SVG/1.1/DTD/svg11.dtd">
<!-- Generated by graphviz version 2.43.0 (0)
 -->
<!-- Title: dependency&#45;cruiser output Pages: 1 -->
<svg width="613pt" height="392pt"
 viewBox="0.00 0.00 613.00 392.00" xmlns="http://www.w3.org/2000/svg" xmlns:xlink="http://www.w3.org/1999/xlink">
<g id="graph0" class="graph" transform="scale(1 1) rotate(0) translate(4 388)">
<title>dependency&#45;cruiser output</title>
<polygon fill="white" stroke="transparent" points="-4,4 -4,-388 609,-388 609,4 -4,4"/>
<g id="clust1" class="cluster">
<title>cluster_src</title>
<path fill="#ffffff" stroke="black" stroke-width="2" d="M20,-8C20,-8 585,-8 585,-8 591,-8 597,-14 597,-20 597,-20 597,-364 597,-364 597,-370 591,-376 585,-376 585,-376 20,-376 20,-376 14,-376 8,-370 8,-364 8,-364 8,-20 8,-20 8,-14 14,-8 20,-8"/>
<text text-anchor="middle" x="302.5" y="-364.8" font-family="Helvetica,sans-Serif" font-weight="bold" font-size="9.00">src</text>
</g>
<g id="clust2" class="cluster">
<title>cluster_src/app</title>
<path fill="#ffffff" stroke="black" stroke-width="2" d="M28,-16C28,-16 577,-16 577,-16 583,-16 589,-22 589,-28 589,-28 589,-338 589,-338 589,-344 583,-350 577,-350 577,-350 28,-350 28,-350 22,-350 16,-344 16,-338 16,-338 16,-28 16,-28 16,-22 22,-16 28,-16"/>
<text text-anchor="middle" x="302.5" y="-338.8" font-family="Helvetica,sans-Serif" font-weight="bold" font-size="9.00">app</text>
</g>
<g id="clust3" class="cluster">
<title>cluster_src/app/main</title>
<path fill="#ffffff" stroke="black" stroke-width="2" d="M36,-84C36,-84 227,-84 227,-84 233,-84 239,-90 239,-96 239,-96 239,-312 239,-312 239,-318 233,-324 227,-324 227,-324 36,-324 36,-324 30,-324 24,-318 24,-312 24,-312 24,-96 24,-96 24,-90 30,-84 36,-84"/>
<text text-anchor="middle" x="131.5" y="-312.8" font-family="Helvetica,sans-Serif" font-weight="bold" font-size="9.00">main</text>
</g>
<g id="clust4" class="cluster">
<title>cluster_src/app/main/manage</title>
<path fill="#ffffff" stroke="black" stroke-width="2" d="M73.5,-152C73.5,-152 189.5,-152 189.5,-152 195.5,-152 201.5,-158 201.5,-164 201.5,-164 201.5,-226 201.5,-226 201.5,-232 195.5,-238 189.5,-238 189.5,-238 73.5,-238 73.5,-238 67.5,-238 61.5,-232 61.5,-226 61.5,-226 61.5,-164 61.5,-164 61.5,-158 67.5,-152 73.5,-152"/>
<text text-anchor="middle" x="131.5" y="-226.8" font-family="Helvetica,sans-Serif" font-weight="bold" font-size="9.00">manage</text>
</g>
<g id="clust5" class="cluster">
<title>cluster_src/app/main/manage/labels</title>
<path fill="#ffffff" stroke="black" stroke-width="2" d="M81.5,-160C81.5,-160 181.5,-160 181.5,-160 187.5,-160 193.5,-166 193.5,-172 193.5,-172 193.5,-200 193.5,-200 193.5,-206 187.5,-212 181.5,-212 181.5,-212 81.5,-212 81.5,-212 75.5,-212 69.5,-206 69.5,-200 69.5,-200 69.5,-172 69.5,-172 69.5,-166 75.5,-160 81.5,-160"/>
<text text-anchor="middle" x="131.5" y="-200.8" font-family="Helvetica,sans-Serif" font-weight="bold" font-size="9.00">labels</text>
</g>
<g id="clust6" class="cluster">
<title>cluster_src/app/main/organization&#45;invitation</title>
<path fill="#ffffff" stroke="black" stroke-width="2" d="M44,-92C44,-92 219,-92 219,-92 225,-92 231,-98 231,-104 231,-104 231,-132 231,-132 231,-138 225,-144 219,-144 219,-144 44,-144 44,-144 38,-144 32,-138 32,-132 32,-132 32,-104 32,-104 32,-98 38,-92 44,-92"/>
<text text-anchor="middle" x="131.5" y="-132.8" font-family="Helvetica,sans-Serif" font-weight="bold" font-size="9.00">organization&#45;invitation</text>
</g>
<g id="clust7" class="cluster">
<title>cluster_src/app/main/worktime</title>
<path fill="#ffffff" stroke="black" stroke-width="2" d="M73,-246C73,-246 190,-246 190,-246 196,-246 202,-252 202,-258 202,-258 202,-286 202,-286 202,-292 196,-298 190,-298 190,-298 73,-298 73,-298 67,-298 61,-292 61,-286 61,-286 61,-258 61,-258 61,-252 67,-246 73,-246"/>
<text text-anchor="middle" x="131.5" y="-286.8" font-family="Helvetica,sans-Serif" font-weight="bold" font-size="9.00">worktime</text>
</g>
<g id="clust8" class="cluster">
<title>cluster_src/app/shared</title>
<path fill="#ffffff" stroke="black" stroke-width="2" d="M259,-24C259,-24 569,-24 569,-24 575,-24 581,-30 581,-36 581,-36 581,-312 581,-312 581,-318 575,-324 569,-324 569,-324 259,-324 259,-324 253,-324 247,-318 247,-312 247,-312 247,-36 247,-36 247,-30 253,-24 259,-24"/>
<text text-anchor="middle" x="414" y="-312.8" font-family="Helvetica,sans-Serif" font-weight="bold" font-size="9.00">shared</text>
</g>
<g id="clust9" class="cluster">
<title>cluster_src/app/shared/constants</title>
<path fill="#ffffff" stroke="black" stroke-width="2" d="M478,-32C478,-32 524,-32 524,-32 530,-32 536,-38 536,-44 536,-44 536,-72 536,-72 536,-78 530,-84 524,-84 524,-84 478,-84 478,-84 472,-84 466,-78 466,-72 466,-72 466,-44 466,-44 466,-38 472,-32 478,-32"/>
<text text-anchor="middle" x="501" y="-72.8" font-family="Helvetica,sans-Serif" font-weight="bold" font-size="9.00">constants</text>
</g>
<g id="clust10" class="cluster">
<title>cluster_src/app/shared/model</title>
<path fill="#ffffff" stroke="black" stroke-width="2" d="M441,-92C441,-92 561,-92 561,-92 567,-92 573,-98 573,-104 573,-104 573,-192 573,-192 573,-198 567,-204 561,-204 561,-204 441,-204 441,-204 435,-204 429,-198 429,-192 429,-192 429,-104 429,-104 429,-98 435,-92 441,-92"/>
<text text-anchor="middle" x="501" y="-192.8" font-family="Helvetica,sans-Serif" font-weight="bold" font-size="9.00">model</text>
</g>
<g id="clust11" class="cluster">
<title>cluster_src/app/shared/services</title>
<path fill="#ffffff" stroke="black" stroke-width="2" d="M267,-212C267,-212 546.5,-212 546.5,-212 552.5,-212 558.5,-218 558.5,-224 558.5,-224 558.5,-286 558.5,-286 558.5,-292 552.5,-298 546.5,-298 546.5,-298 267,-298 267,-298 261,-298 255,-292 255,-286 255,-286 255,-224 255,-224 255,-218 261,-212 267,-212"/>
<text text-anchor="middle" x="406.75" y="-286.8" font-family="Helvetica,sans-Serif" font-weight="bold" font-size="9.00">services</text>
</g>
<g id="clust12" class="cluster">
<title>cluster_src/app/shared/services/date</title>
<path fill="#ffffff" stroke="black" stroke-width="2" d="M463.5,-220C463.5,-220 538.5,-220 538.5,-220 544.5,-220 550.5,-226 550.5,-232 550.5,-232 550.5,-260 550.5,-260 550.5,-266 544.5,-272 538.5,-272 538.5,-272 463.5,-272 463.5,-272 457.5,-272 451.5,-266 451.5,-260 451.5,-260 451.5,-232 451.5,-232 451.5,-226 457.5,-220 463.5,-220"/>
<text text-anchor="middle" x="501" y="-260.8" font-family="Helvetica,sans-Serif" font-weight="bold" font-size="9.00">date</text>
</g>
<g id="clust13" class="cluster">
<title>cluster_src/app/shared/services/displayed&#45;column</title>
<path fill="#ffffff" stroke="black" stroke-width="2" d="M275,-220C275,-220 409,-220 409,-220 415,-220 421,-226 421,-232 421,-232 421,-260 421,-260 421,-266 415,-272 409,-272 409,-272 275,-272 275,-272 269,-272 263,-266 263,-260 263,-260 263,-232 263,-232 263,-226 269,-220 275,-220"/>
<text text-anchor="middle" x="342" y="-260.8" font-family="Helvetica,sans-Serif" font-weight="bold" font-size="9.00">displayed&#45;column</text>
</g>
<!-- src/app/main/manage/labels/labels.component.ts -->
<g id="node1" class="node">
<title>src/app/main/manage/labels/labels.component.ts</title>
<g id="a_node1"><a xlink:href="src/app/main/manage/labels/labels.component.ts" xlink:title="labels.component.ts">
<path fill="#ddfeff" stroke="black" d="M179.5,-186C179.5,-186 83.5,-186 83.5,-186 80.5,-186 77.5,-183 77.5,-180 77.5,-180 77.5,-174 77.5,-174 77.5,-171 80.5,-168 83.5,-168 83.5,-168 179.5,-168 179.5,-168 182.5,-168 185.5,-171 185.5,-174 185.5,-174 185.5,-180 185.5,-180 185.5,-183 182.5,-186 179.5,-186"/>
<text text-anchor="start" x="85.5" y="-174.8" font-family="Helvetica,sans-Serif" font-size="9.00">labels.component.ts</text>
</a>
</g>
</g>
<!-- src/app/shared/services/displayed&#45;column/displayed&#45;column.service.ts -->
<g id="node2" class="node">
<title>src/app/shared/services/displayed&#45;column/displayed&#45;column.service.ts</title>
<g id="a_node2"><a xlink:href="src/app/shared/services/displayed-column/displayed-column.service.ts" xlink:title="displayed&#45;column.service.ts">
<path fill="#ddfeff" stroke="black" d="M407,-246C407,-246 277,-246 277,-246 274,-246 271,-243 271,-240 271,-240 271,-234 271,-234 271,-231 274,-228 277,-228 277,-228 407,-228 407,-228 410,-228 413,-231 413,-234 413,-234 413,-240 413,-240 413,-243 410,-246 407,-246"/>
<text text-anchor="start" x="279" y="-234.8" font-family="Helvetica,sans-Serif" font-size="9.00">displayed&#45;column.service.ts</text>
</a>
</g>
</g>
<!-- src/app/main/manage/labels/labels.component.ts&#45;&gt;src/app/shared/services/displayed&#45;column/displayed&#45;column.service.ts -->
<g id="edge1" class="edge">
<title>src/app/main/manage/labels/labels.component.ts&#45;&gt;src/app/shared/services/displayed&#45;column/displayed&#45;column.service.ts</title>
<path fill="none" stroke="#000000" stroke-width="2" stroke-opacity="0.200000" d="M164.17,-186.11C201.58,-196.88 263.76,-214.77 303.53,-226.22"/>
<polygon fill="#000000" fill-opacity="0.200000" stroke="#000000" stroke-width="2" stroke-opacity="0.200000" points="303.37,-228.36 309.72,-228 304.53,-224.32 303.37,-228.36"/>
</g>
<!-- src/app/shared/services/date/date.service.ts -->
<g id="node5" class="node">
<title>src/app/shared/services/date/date.service.ts</title>
<g id="a_node5"><a xlink:href="src/app/shared/services/date/date.service.ts" xlink:title="date.service.ts">
<path fill="#ddfeff" stroke="black" d="M536.5,-246C536.5,-246 465.5,-246 465.5,-246 462.5,-246 459.5,-243 459.5,-240 459.5,-240 459.5,-234 459.5,-234 459.5,-231 462.5,-228 465.5,-228 465.5,-228 536.5,-228 536.5,-228 539.5,-228 542.5,-231 542.5,-234 542.5,-234 542.5,-240 542.5,-240 542.5,-243 539.5,-246 536.5,-246"/>
<text text-anchor="start" x="467.5" y="-234.8" font-family="Helvetica,sans-Serif" font-size="9.00">date.service.ts</text>
</a>
</g>
</g>
<!-- src/app/shared/services/displayed&#45;column/displayed&#45;column.service.ts&#45;&gt;src/app/shared/services/date/date.service.ts -->
<g id="edge9" class="edge">
<title>src/app/shared/services/displayed&#45;column/displayed&#45;column.service.ts&#45;&gt;src/app/shared/services/date/date.service.ts</title>
<path fill="none" stroke="#000000" stroke-width="2" stroke-opacity="0.200000" d="M413.23,-237C426.85,-237 440.79,-237 453.41,-237"/>
<polygon fill="#000000" fill-opacity="0.200000" stroke="#000000" stroke-width="2" stroke-opacity="0.200000" points="453.5,-239.1 459.5,-237 453.5,-234.9 453.5,-239.1"/>
</g>
<!-- src/app/shared/constants/Role.ts -->
<g id="node6" class="node">
<title>src/app/shared/constants/Role.ts</title>
<g id="a_node6"><a xlink:href="src/app/shared/constants/Role.ts" xlink:title="Role.ts">
<path fill="#ddfeff" stroke="black" d="M522,-58C522,-58 480,-58 480,-58 477,-58 474,-55 474,-52 474,-52 474,-46 474,-46 474,-43 477,-40 480,-40 480,-40 522,-40 522,-40 525,-40 528,-43 528,-46 528,-46 528,-52 528,-52 528,-55 525,-58 522,-58"/>
<text text-anchor="start" x="485.5" y="-46.8" font-family="Helvetica,sans-Serif" font-size="9.00">Role.ts</text>
</a>
</g>
</g>
<!-- src/app/shared/services/displayed&#45;column/displayed&#45;column.service.ts&#45;&gt;src/app/shared/constants/Role.ts -->
<g id="edge5" class="edge">
<title>src/app/shared/services/displayed&#45;column/displayed&#45;column.service.ts&#45;&gt;src/app/shared/constants/Role.ts</title>
<path fill="none" stroke="#000000" stroke-width="2" stroke-opacity="0.200000" d="M346.3,-227.92C355.73,-202.98 385,-132.42 429,-89 441.18,-76.98 457.7,-67.39 471.74,-60.62"/>
<polygon fill="#000000" fill-opacity="0.200000" stroke="#000000" stroke-width="2" stroke-opacity="0.200000" points="472.64,-62.51 477.18,-58.07 470.86,-58.71 472.64,-62.51"/>
</g>
<!-- src/app/shared/model/Issue.ts -->
<g id="node7" class="node">
<title>src/app/shared/model/Issue.ts</title>
<g id="a_node7"><a xlink:href="src/app/shared/model/Issue.ts" xlink:title="Issue.ts">
<path fill="#ddfeff" stroke="black" d="M522,-178C522,-178 480,-178 480,-178 477,-178 474,-175 474,-172 474,-172 474,-166 474,-166 474,-163 477,-160 480,-160 480,-160 522,-160 522,-160 525,-160 528,-163 528,-166 528,-166 528,-172 528,-172 528,-175 525,-178 522,-178"/>
<text text-anchor="start" x="483.5" y="-166.8" font-family="Helvetica,sans-Serif" font-size="9.00">Issue.ts</text>
</a>
</g>
</g>
<!-- src/app/shared/services/displayed&#45;column/displayed&#45;column.service.ts&#45;&gt;src/app/shared/model/Issue.ts -->
<g id="edge6" class="edge">
<title>src/app/shared/services/displayed&#45;column/displayed&#45;column.service.ts&#45;&gt;src/app/shared/model/Issue.ts</title>
<path fill="none" stroke="#000000" stroke-width="2" stroke-opacity="0.200000" d="M363.85,-227.97C392.12,-215.73 442.62,-193.85 473.53,-180.46"/>
<polygon fill="#000000" fill-opacity="0.200000" stroke="#000000" stroke-width="2" stroke-opacity="0.200000" points="474.39,-182.38 479.07,-178.07 472.72,-178.52 474.39,-182.38"/>
</g>
<!-- src/app/shared/model/OrganizationInvitation.ts -->
<g id="node8" class="node">
<title>src/app/shared/model/OrganizationInvitation.ts</title>
<g id="a_node8"><a xlink:href="src/app/shared/model/OrganizationInvitation.ts" xlink:title="OrganizationInvitation.ts">
<path fill="#ddfeff" stroke="black" d="M559,-148C559,-148 443,-148 443,-148 440,-148 437,-145 437,-142 437,-142 437,-136 437,-136 437,-133 440,-130 443,-130 443,-130 559,-130 559,-130 562,-130 565,-133 565,-136 565,-136 565,-142 565,-142 565,-145 562,-148 559,-148"/>
<text text-anchor="start" x="445" y="-136.8" font-family="Helvetica,sans-Serif" font-size="9.00">OrganizationInvitation.ts</text>
</a>
</g>
</g>
<!-- src/app/shared/services/displayed&#45;column/displayed&#45;column.service.ts&#45;&gt;src/app/shared/model/OrganizationInvitation.ts -->
<g id="edge7" class="edge">
<title>src/app/shared/services/displayed&#45;column/displayed&#45;column.service.ts&#45;&gt;src/app/shared/model/OrganizationInvitation.ts</title>
<path fill="none" stroke="#000000" stroke-width="2" stroke-opacity="0.200000" d="M349.63,-227.81C362.71,-210.42 393.63,-172.77 429,-154 431.58,-152.63 434.27,-151.39 437.03,-150.26"/>
<polygon fill="#000000" fill-opacity="0.200000" stroke="#000000" stroke-width="2" stroke-opacity="0.200000" points="437.92,-152.17 442.8,-148.1 436.44,-148.24 437.92,-152.17"/>
</g>
<!-- src/app/shared/model/Project.ts -->
<g id="node9" class="node">
<title>src/app/shared/model/Project.ts</title>
<g id="a_node9"><a xlink:href="src/app/shared/model/Project.ts" xlink:title="Project.ts">
<path fill="#ddfeff" stroke="black" d="M524.5,-118C524.5,-118 477.5,-118 477.5,-118 474.5,-118 471.5,-115 471.5,-112 471.5,-112 471.5,-106 471.5,-106 471.5,-103 474.5,-100 477.5,-100 477.5,-100 524.5,-100 524.5,-100 527.5,-100 530.5,-103 530.5,-106 530.5,-106 530.5,-112 530.5,-112 530.5,-115 527.5,-118 524.5,-118"/>
<text text-anchor="start" x="479.5" y="-106.8" font-family="Helvetica,sans-Serif" font-size="9.00">Project.ts</text>
</a>
</g>
</g>
<!-- src/app/shared/services/displayed&#45;column/displayed&#45;column.service.ts&#45;&gt;src/app/shared/model/Project.ts -->
<g id="edge8" class="edge">
<title>src/app/shared/services/displayed&#45;column/displayed&#45;column.service.ts&#45;&gt;src/app/shared/model/Project.ts</title>
<path fill="none" stroke="#000000" stroke-width="2" stroke-opacity="0.200000" d="M347.09,-227.92C357.41,-206.14 386.71,-150.76 429,-124 439.7,-117.23 452.94,-113.46 465.07,-111.39"/>
<polygon fill="#000000" fill-opacity="0.200000" stroke="#000000" stroke-width="2" stroke-opacity="0.200000" points="465.68,-113.42 471.3,-110.45 465.05,-109.27 465.68,-113.42"/>
</g>
<!-- src/app/main/organization&#45;invitation/organization&#45;invitation.component.ts -->
<g id="node3" class="node">
<title>src/app/main/organization&#45;invitation/organization&#45;invitation.component.ts</title>
<g id="a_node3"><a xlink:href="src/app/main/organization-invitation/organization-invitation.component.ts" xlink:title="organization&#45;invitation.component.ts">
<path fill="#ddfeff" stroke="black" d="M217,-118C217,-118 46,-118 46,-118 43,-118 40,-115 40,-112 40,-112 40,-106 40,-106 40,-103 43,-100 46,-100 46,-100 217,-100 217,-100 220,-100 223,-103 223,-106 223,-106 223,-112 223,-112 223,-115 220,-118 217,-118"/>
<text text-anchor="start" x="48" y="-106.8" font-family="Helvetica,sans-Serif" font-size="9.00">organization&#45;invitation.component.ts</text>
</a>
</g>
</g>
<!-- src/app/main/organization&#45;invitation/organization&#45;invitation.component.ts&#45;&gt;src/app/shared/services/displayed&#45;column/displayed&#45;column.service.ts -->
<g id="edge2" class="edge">
<title>src/app/main/organization&#45;invitation/organization&#45;invitation.component.ts&#45;&gt;src/app/shared/services/displayed&#45;column/displayed&#45;column.service.ts</title>
<path fill="none" stroke="#000000" stroke-width="2" stroke-opacity="0.200000" d="M157.02,-118.09C179.17,-126.74 212.28,-140.83 239,-157 272.55,-177.3 307.68,-207.03 326.7,-223.94"/>
<polygon fill="#000000" fill-opacity="0.200000" stroke="#000000" stroke-width="2" stroke-opacity="0.200000" points="325.3,-225.52 331.17,-227.95 328.11,-222.39 325.3,-225.52"/>
</g>
<!-- src/app/main/worktime/worktime.component.ts -->
<g id="node4" class="node">
<title>src/app/main/worktime/worktime.component.ts</title>
<g id="a_node4"><a xlink:href="src/app/main/worktime/worktime.component.ts" xlink:title="worktime.component.ts">
<path fill="#ddfeff" stroke="black" d="M188,-272C188,-272 75,-272 75,-272 72,-272 69,-269 69,-266 69,-266 69,-260 69,-260 69,-257 72,-254 75,-254 75,-254 188,-254 188,-254 191,-254 194,-257 194,-260 194,-260 194,-266 194,-266 194,-269 191,-272 188,-272"/>
<text text-anchor="start" x="77" y="-260.8" font-family="Helvetica,sans-Serif" font-size="9.00">worktime.component.ts</text>
</a>
</g>
</g>
<!-- src/app/main/worktime/worktime.component.ts&#45;&gt;src/app/shared/services/displayed&#45;column/displayed&#45;column.service.ts -->
<g id="edge4" class="edge">
<title>src/app/main/worktime/worktime.component.ts&#45;&gt;src/app/shared/services/displayed&#45;column/displayed&#45;column.service.ts</title>
<path fill="none" stroke="#000000" stroke-width="2" stroke-opacity="0.200000" d="M194.21,-255.3C216.26,-252.56 241.37,-249.42 264.51,-246.54"/>
<polygon fill="#000000" fill-opacity="0.200000" stroke="#000000" stroke-width="2" stroke-opacity="0.200000" points="264.97,-248.6 270.66,-245.77 264.45,-244.43 264.97,-248.6"/>
</g>
<!-- src/app/main/worktime/worktime.component.ts&#45;&gt;src/app/shared/services/date/date.service.ts -->
<g id="edge3" class="edge">
<title>src/app/main/worktime/worktime.component.ts&#45;&gt;src/app/shared/services/date/date.service.ts</title>
<path fill="none" stroke="#000000" stroke-width="2" stroke-opacity="0.200000" d="M177.15,-272.05C234.42,-282.02 336.44,-294.28 421,-275 442.67,-270.06 465.33,-258.39 480.8,-249.27"/>
<polygon fill="#000000" fill-opacity="0.200000" stroke="#000000" stroke-width="2" stroke-opacity="0.200000" points="482.1,-250.94 486.15,-246.05 479.93,-247.34 482.1,-250.94"/>
</g>
</g>
</svg>
