<?xml version="1.0" encoding="UTF-8" standalone="no"?>
<!DOCTYPE svg PUBLIC "-//W3C//DTD SVG 1.1//EN"
 "http://www.w3.org/Graphics/SVG/1.1/DTD/svg11.dtd">
<!-- Generated by graphviz version 2.43.0 (0)
 -->
<!-- Title: dependency&#45;cruiser output Pages: 1 -->
<svg width="562pt" height="358pt"
 viewBox="0.00 0.00 562.00 358.00" xmlns="http://www.w3.org/2000/svg" xmlns:xlink="http://www.w3.org/1999/xlink">
<g id="graph0" class="graph" transform="scale(1 1) rotate(0) translate(4 354)">
<title>dependency&#45;cruiser output</title>
<polygon fill="white" stroke="transparent" points="-4,4 -4,-354 558,-354 558,4 -4,4"/>
<g id="clust1" class="cluster">
<title>cluster_src</title>
<path fill="#ffffff" stroke="black" stroke-width="2" d="M20,-8C20,-8 534,-8 534,-8 540,-8 546,-14 546,-20 546,-20 546,-330 546,-330 546,-336 540,-342 534,-342 534,-342 20,-342 20,-342 14,-342 8,-336 8,-330 8,-330 8,-20 8,-20 8,-14 14,-8 20,-8"/>
<text text-anchor="middle" x="277" y="-330.8" font-family="Helvetica,sans-Serif" font-weight="bold" font-size="9.00">src</text>
</g>
<g id="clust2" class="cluster">
<title>cluster_src/app</title>
<path fill="#ffffff" stroke="black" stroke-width="2" d="M28,-16C28,-16 526,-16 526,-16 532,-16 538,-22 538,-28 538,-28 538,-304 538,-304 538,-310 532,-316 526,-316 526,-316 28,-316 28,-316 22,-316 16,-310 16,-304 16,-304 16,-28 16,-28 16,-22 22,-16 28,-16"/>
<text text-anchor="middle" x="277" y="-304.8" font-family="Helvetica,sans-Serif" font-weight="bold" font-size="9.00">app</text>
</g>
<g id="clust3" class="cluster">
<title>cluster_src/app/main</title>
<path fill="#ffffff" stroke="black" stroke-width="2" d="M36,-24C36,-24 227,-24 227,-24 233,-24 239,-30 239,-36 239,-36 239,-278 239,-278 239,-284 233,-290 227,-290 227,-290 36,-290 36,-290 30,-290 24,-284 24,-278 24,-278 24,-36 24,-36 24,-30 30,-24 36,-24"/>
<text text-anchor="middle" x="131.5" y="-278.8" font-family="Helvetica,sans-Serif" font-weight="bold" font-size="9.00">main</text>
</g>
<g id="clust4" class="cluster">
<title>cluster_src/app/main/issues</title>
<path fill="#ffffff" stroke="black" stroke-width="2" d="M80.5,-32C80.5,-32 182.5,-32 182.5,-32 188.5,-32 194.5,-38 194.5,-44 194.5,-44 194.5,-72 194.5,-72 194.5,-78 188.5,-84 182.5,-84 182.5,-84 80.5,-84 80.5,-84 74.5,-84 68.5,-78 68.5,-72 68.5,-72 68.5,-44 68.5,-44 68.5,-38 74.5,-32 80.5,-32"/>
<text text-anchor="middle" x="131.5" y="-72.8" font-family="Helvetica,sans-Serif" font-weight="bold" font-size="9.00">issues</text>
</g>
<g id="clust5" class="cluster">
<title>cluster_src/app/main/organization&#45;invitation</title>
<path fill="#ffffff" stroke="black" stroke-width="2" d="M44,-92C44,-92 219,-92 219,-92 225,-92 231,-98 231,-104 231,-104 231,-132 231,-132 231,-138 225,-144 219,-144 219,-144 44,-144 44,-144 38,-144 32,-138 32,-132 32,-132 32,-104 32,-104 32,-98 38,-92 44,-92"/>
<text text-anchor="middle" x="131.5" y="-132.8" font-family="Helvetica,sans-Serif" font-weight="bold" font-size="9.00">organization&#45;invitation</text>
</g>
<g id="clust6" class="cluster">
<title>cluster_src/app/main/organizations</title>
<path fill="#ffffff" stroke="black" stroke-width="2" d="M64,-152C64,-152 199,-152 199,-152 205,-152 211,-158 211,-164 211,-164 211,-192 211,-192 211,-198 205,-204 199,-204 199,-204 64,-204 64,-204 58,-204 52,-198 52,-192 52,-192 52,-164 52,-164 52,-158 58,-152 64,-152"/>
<text text-anchor="middle" x="131.5" y="-192.8" font-family="Helvetica,sans-Serif" font-weight="bold" font-size="9.00">organizations</text>
</g>
<g id="clust7" class="cluster">
<title>cluster_src/app/main/projects</title>
<path fill="#ffffff" stroke="black" stroke-width="2" d="M76,-212C76,-212 187,-212 187,-212 193,-212 199,-218 199,-224 199,-224 199,-252 199,-252 199,-258 193,-264 187,-264 187,-264 76,-264 76,-264 70,-264 64,-258 64,-252 64,-252 64,-224 64,-224 64,-218 70,-212 76,-212"/>
<text text-anchor="middle" x="131.5" y="-252.8" font-family="Helvetica,sans-Serif" font-weight="bold" font-size="9.00">projects</text>
</g>
<g id="clust8" class="cluster">
<title>cluster_src/app/shared</title>
<path fill="#ffffff" stroke="black" stroke-width="2" d="M259,-58C259,-58 518,-58 518,-58 524,-58 530,-64 530,-70 530,-70 530,-252 530,-252 530,-258 524,-264 518,-264 518,-264 259,-264 259,-264 253,-264 247,-258 247,-252 247,-252 247,-70 247,-70 247,-64 253,-58 259,-58"/>
<text text-anchor="middle" x="388.5" y="-252.8" font-family="Helvetica,sans-Serif" font-weight="bold" font-size="9.00">shared</text>
</g>
<g id="clust9" class="cluster">
<title>cluster_src/app/shared/constants</title>
<path fill="#ffffff" stroke="black" stroke-width="2" d="M427,-186C427,-186 473,-186 473,-186 479,-186 485,-192 485,-198 485,-198 485,-226 485,-226 485,-232 479,-238 473,-238 473,-238 427,-238 427,-238 421,-238 415,-232 415,-226 415,-226 415,-198 415,-198 415,-192 421,-186 427,-186"/>
<text text-anchor="middle" x="450" y="-226.8" font-family="Helvetica,sans-Serif" font-weight="bold" font-size="9.00">constants</text>
</g>
<g id="clust10" class="cluster">
<title>cluster_src/app/shared/model</title>
<path fill="#ffffff" stroke="black" stroke-width="2" d="M390,-66C390,-66 510,-66 510,-66 516,-66 522,-72 522,-78 522,-78 522,-166 522,-166 522,-172 516,-178 510,-178 510,-178 390,-178 390,-178 384,-178 378,-172 378,-166 378,-166 378,-78 378,-78 378,-72 384,-66 390,-66"/>
<text text-anchor="middle" x="450" y="-166.8" font-family="Helvetica,sans-Serif" font-weight="bold" font-size="9.00">model</text>
</g>
<g id="clust11" class="cluster">
<title>cluster_src/app/shared/services</title>
<path fill="#ffffff" stroke="black" stroke-width="2" d="M267,-96C267,-96 358,-96 358,-96 364,-96 370,-102 370,-108 370,-108 370,-170 370,-170 370,-176 364,-182 358,-182 358,-182 267,-182 267,-182 261,-182 255,-176 255,-170 255,-170 255,-108 255,-108 255,-102 261,-96 267,-96"/>
<text text-anchor="middle" x="312.5" y="-170.8" font-family="Helvetica,sans-Serif" font-weight="bold" font-size="9.00">services</text>
</g>
<g id="clust12" class="cluster">
<title>cluster_src/app/shared/services/filter</title>
<path fill="#ffffff" stroke="black" stroke-width="2" d="M275,-104C275,-104 350,-104 350,-104 356,-104 362,-110 362,-116 362,-116 362,-144 362,-144 362,-150 356,-156 350,-156 350,-156 275,-156 275,-156 269,-156 263,-150 263,-144 263,-144 263,-116 263,-116 263,-110 269,-104 275,-104"/>
<text text-anchor="middle" x="312.5" y="-144.8" font-family="Helvetica,sans-Serif" font-weight="bold" font-size="9.00">filter</text>
</g>
<!-- src/app/main/issues/issues.component.ts -->
<g id="node1" class="node">
<title>src/app/main/issues/issues.component.ts</title>
<g id="a_node1"><a xlink:href="src/app/main/issues/issues.component.ts" xlink:title="issues.component.ts">
<path fill="#ddfeff" stroke="black" d="M180.5,-58C180.5,-58 82.5,-58 82.5,-58 79.5,-58 76.5,-55 76.5,-52 76.5,-52 76.5,-46 76.5,-46 76.5,-43 79.5,-40 82.5,-40 82.5,-40 180.5,-40 180.5,-40 183.5,-40 186.5,-43 186.5,-46 186.5,-46 186.5,-52 186.5,-52 186.5,-55 183.5,-58 180.5,-58"/>
<text text-anchor="start" x="84.5" y="-46.8" font-family="Helvetica,sans-Serif" font-size="9.00">issues.component.ts</text>
</a>
</g>
</g>
<!-- src/app/shared/model/Issue.ts -->
<g id="node2" class="node">
<title>src/app/shared/model/Issue.ts</title>
<g id="a_node2"><a xlink:href="src/app/shared/model/Issue.ts" xlink:title="Issue.ts">
<path fill="#ddfeff" stroke="black" d="M471,-92C471,-92 429,-92 429,-92 426,-92 423,-89 423,-86 423,-86 423,-80 423,-80 423,-77 426,-74 429,-74 429,-74 471,-74 471,-74 474,-74 477,-77 477,-80 477,-80 477,-86 477,-86 477,-89 474,-92 471,-92"/>
<text text-anchor="start" x="432.5" y="-80.8" font-family="Helvetica,sans-Serif" font-size="9.00">Issue.ts</text>
</a>
</g>
</g>
<!-- src/app/main/issues/issues.component.ts&#45;&gt;src/app/shared/model/Issue.ts -->
<g id="edge1" class="edge">
<title>src/app/main/issues/issues.component.ts&#45;&gt;src/app/shared/model/Issue.ts</title>
<path fill="none" stroke="#000000" stroke-width="2" stroke-opacity="0.200000" d="M186.55,-54.81C252.68,-61.91 362.51,-73.71 416.72,-79.53"/>
<polygon fill="#000000" fill-opacity="0.200000" stroke="#000000" stroke-width="2" stroke-opacity="0.200000" points="416.54,-81.62 422.73,-80.18 416.99,-77.45 416.54,-81.62"/>
</g>
<!-- src/app/shared/services/filter/filter.service.ts -->
<g id="node3" class="node">
<title>src/app/shared/services/filter/filter.service.ts</title>
<g id="a_node3"><a xlink:href="src/app/shared/services/filter/filter.service.ts" xlink:title="filter.service.ts">
<path fill="#ddfeff" stroke="black" d="M348,-130C348,-130 277,-130 277,-130 274,-130 271,-127 271,-124 271,-124 271,-118 271,-118 271,-115 274,-112 277,-112 277,-112 348,-112 348,-112 351,-112 354,-115 354,-118 354,-118 354,-124 354,-124 354,-127 351,-130 348,-130"/>
<text text-anchor="start" x="279" y="-118.8" font-family="Helvetica,sans-Serif" font-size="9.00">filter.service.ts</text>
</a>
</g>
</g>
<!-- src/app/main/issues/issues.component.ts&#45;&gt;src/app/shared/services/filter/filter.service.ts -->
<g id="edge2" class="edge">
<title>src/app/main/issues/issues.component.ts&#45;&gt;src/app/shared/services/filter/filter.service.ts</title>
<path fill="none" stroke="#000000" stroke-width="2" stroke-opacity="0.200000" d="M158.05,-58.14C179.72,-66 211.57,-77.81 239,-89 254.72,-95.41 272.12,-103.08 285.94,-109.3"/>
<polygon fill="#000000" fill-opacity="0.200000" stroke="#000000" stroke-width="2" stroke-opacity="0.200000" points="285.29,-111.31 291.63,-111.87 287.02,-107.48 285.29,-111.31"/>
</g>
<!-- src/app/shared/services/filter/filter.service.ts&#45;&gt;src/app/shared/model/Issue.ts -->
<g id="edge8" class="edge">
<title>src/app/shared/services/filter/filter.service.ts&#45;&gt;src/app/shared/model/Issue.ts</title>
<path fill="none" stroke="#000000" stroke-width="2" stroke-opacity="0.200000" d="M336.54,-111.93C348.74,-107.35 364.04,-101.94 378,-98 390.49,-94.47 404.43,-91.35 416.63,-88.89"/>
<polygon fill="#000000" fill-opacity="0.200000" stroke="#000000" stroke-width="2" stroke-opacity="0.200000" points="417.35,-90.88 422.83,-87.66 416.54,-86.76 417.35,-90.88"/>
</g>
<!-- src/app/shared/model/Project.ts -->
<g id="node7" class="node">
<title>src/app/shared/model/Project.ts</title>
<g id="a_node7"><a xlink:href="src/app/shared/model/Project.ts" xlink:title="Project.ts">
<path fill="#ddfeff" stroke="black" d="M473.5,-152C473.5,-152 426.5,-152 426.5,-152 423.5,-152 420.5,-149 420.5,-146 420.5,-146 420.5,-140 420.5,-140 420.5,-137 423.5,-134 426.5,-134 426.5,-134 473.5,-134 473.5,-134 476.5,-134 479.5,-137 479.5,-140 479.5,-140 479.5,-146 479.5,-146 479.5,-149 476.5,-152 473.5,-152"/>
<text text-anchor="start" x="428.5" y="-140.8" font-family="Helvetica,sans-Serif" font-size="9.00">Project.ts</text>
</a>
</g>
</g>
<!-- src/app/shared/services/filter/filter.service.ts&#45;&gt;src/app/shared/model/Project.ts -->
<g id="edge10" class="edge">
<title>src/app/shared/services/filter/filter.service.ts&#45;&gt;src/app/shared/model/Project.ts</title>
<path fill="none" stroke="#000000" stroke-width="2" stroke-opacity="0.200000" d="M354.15,-127.6C373.34,-130.72 396.01,-134.4 414.37,-137.38"/>
<polygon fill="#000000" fill-opacity="0.200000" stroke="#000000" stroke-width="2" stroke-opacity="0.200000" points="414.16,-139.47 420.42,-138.36 414.83,-135.32 414.16,-139.47"/>
</g>
<!-- src/app/shared/constants/Role.ts -->
<g id="node8" class="node">
<title>src/app/shared/constants/Role.ts</title>
<g id="a_node8"><a xlink:href="src/app/shared/constants/Role.ts" xlink:title="Role.ts">
<path fill="#ddfeff" stroke="black" d="M471,-212C471,-212 429,-212 429,-212 426,-212 423,-209 423,-206 423,-206 423,-200 423,-200 423,-197 426,-194 429,-194 429,-194 471,-194 471,-194 474,-194 477,-197 477,-200 477,-200 477,-206 477,-206 477,-209 474,-212 471,-212"/>
<text text-anchor="start" x="434.5" y="-200.8" font-family="Helvetica,sans-Serif" font-size="9.00">Role.ts</text>
</a>
</g>
</g>
<!-- src/app/shared/services/filter/filter.service.ts&#45;&gt;src/app/shared/constants/Role.ts -->
<g id="edge7" class="edge">
<title>src/app/shared/services/filter/filter.service.ts&#45;&gt;src/app/shared/constants/Role.ts</title>
<path fill="none" stroke="#000000" stroke-width="2" stroke-opacity="0.200000" d="M320.88,-130.08C331.97,-143.15 354.18,-167.21 378,-181 389.9,-187.89 404.2,-192.86 416.83,-196.31"/>
<polygon fill="#000000" fill-opacity="0.200000" stroke="#000000" stroke-width="2" stroke-opacity="0.200000" points="416.55,-198.4 422.88,-197.88 417.6,-194.34 416.55,-198.4"/>
</g>
<!-- src/app/shared/model/OrganizationInvitation.ts -->
<g id="node9" class="node">
<title>src/app/shared/model/OrganizationInvitation.ts</title>
<g id="a_node9"><a xlink:href="src/app/shared/model/OrganizationInvitation.ts" xlink:title="OrganizationInvitation.ts">
<path fill="#ddfeff" stroke="black" d="M508,-122C508,-122 392,-122 392,-122 389,-122 386,-119 386,-116 386,-116 386,-110 386,-110 386,-107 389,-104 392,-104 392,-104 508,-104 508,-104 511,-104 514,-107 514,-110 514,-110 514,-116 514,-116 514,-119 511,-122 508,-122"/>
<text text-anchor="start" x="394" y="-110.8" font-family="Helvetica,sans-Serif" font-size="9.00">OrganizationInvitation.ts</text>
</a>
</g>
</g>
<!-- src/app/shared/services/filter/filter.service.ts&#45;&gt;src/app/shared/model/OrganizationInvitation.ts -->
<g id="edge9" class="edge">
<title>src/app/shared/services/filter/filter.service.ts&#45;&gt;src/app/shared/model/OrganizationInvitation.ts</title>
<path fill="none" stroke="#000000" stroke-width="2" stroke-opacity="0.200000" d="M354.15,-118.6C362.26,-118.12 370.99,-117.61 379.75,-117.09"/>
<polygon fill="#000000" fill-opacity="0.200000" stroke="#000000" stroke-width="2" stroke-opacity="0.200000" points="379.95,-119.18 385.81,-116.73 379.7,-114.99 379.95,-119.18"/>
</g>
<!-- src/app/main/organization&#45;invitation/organization&#45;invitation.component.ts -->
<g id="node4" class="node">
<title>src/app/main/organization&#45;invitation/organization&#45;invitation.component.ts</title>
<g id="a_node4"><a xlink:href="src/app/main/organization-invitation/organization-invitation.component.ts" xlink:title="organization&#45;invitation.component.ts">
<path fill="#ddfeff" stroke="black" d="M217,-118C217,-118 46,-118 46,-118 43,-118 40,-115 40,-112 40,-112 40,-106 40,-106 40,-103 43,-100 46,-100 46,-100 217,-100 217,-100 220,-100 223,-103 223,-106 223,-106 223,-112 223,-112 223,-115 220,-118 217,-118"/>
<text text-anchor="start" x="48" y="-106.8" font-family="Helvetica,sans-Serif" font-size="9.00">organization&#45;invitation.component.ts</text>
</a>
</g>
</g>
<!-- src/app/main/organization&#45;invitation/organization&#45;invitation.component.ts&#45;&gt;src/app/shared/services/filter/filter.service.ts -->
<g id="edge3" class="edge">
<title>src/app/main/organization&#45;invitation/organization&#45;invitation.component.ts&#45;&gt;src/app/shared/services/filter/filter.service.ts</title>
<path fill="none" stroke="#000000" stroke-width="2" stroke-opacity="0.200000" d="M223.05,-115.07C237.51,-116.04 251.93,-117.01 264.8,-117.87"/>
<polygon fill="#000000" fill-opacity="0.200000" stroke="#000000" stroke-width="2" stroke-opacity="0.200000" points="264.86,-119.98 270.99,-118.28 265.14,-115.79 264.86,-119.98"/>
</g>
<!-- src/app/main/organizations/organizations.component.ts -->
<g id="node5" class="node">
<title>src/app/main/organizations/organizations.component.ts</title>
<g id="a_node5"><a xlink:href="src/app/main/organizations/organizations.component.ts" xlink:title="organizations.component.ts">
<path fill="#ddfeff" stroke="black" d="M197,-178C197,-178 66,-178 66,-178 63,-178 60,-175 60,-172 60,-172 60,-166 60,-166 60,-163 63,-160 66,-160 66,-160 197,-160 197,-160 200,-160 203,-163 203,-166 203,-166 203,-172 203,-172 203,-175 200,-178 197,-178"/>
<text text-anchor="start" x="68" y="-166.8" font-family="Helvetica,sans-Serif" font-size="9.00">organizations.component.ts</text>
</a>
</g>
</g>
<!-- src/app/main/organizations/organizations.component.ts&#45;&gt;src/app/shared/services/filter/filter.service.ts -->
<g id="edge4" class="edge">
<title>src/app/main/organizations/organizations.component.ts&#45;&gt;src/app/shared/services/filter/filter.service.ts</title>
<path fill="none" stroke="#000000" stroke-width="2" stroke-opacity="0.200000" d="M183.5,-159.98C201.2,-156.45 221.1,-152.03 239,-147 253.74,-142.86 269.79,-137.22 283.03,-132.26"/>
<polygon fill="#000000" fill-opacity="0.200000" stroke="#000000" stroke-width="2" stroke-opacity="0.200000" points="284.04,-134.12 288.91,-130.03 282.55,-130.19 284.04,-134.12"/>
</g>
<!-- src/app/main/projects/projects.component.ts -->
<g id="node6" class="node">
<title>src/app/main/projects/projects.component.ts</title>
<g id="a_node6"><a xlink:href="src/app/main/projects/projects.component.ts" xlink:title="projects.component.ts">
<path fill="#ddfeff" stroke="black" d="M185,-238C185,-238 78,-238 78,-238 75,-238 72,-235 72,-232 72,-232 72,-226 72,-226 72,-223 75,-220 78,-220 78,-220 185,-220 185,-220 188,-220 191,-223 191,-226 191,-226 191,-232 191,-232 191,-235 188,-238 185,-238"/>
<text text-anchor="start" x="80" y="-226.8" font-family="Helvetica,sans-Serif" font-size="9.00">projects.component.ts</text>
</a>
</g>
</g>
<!-- src/app/main/projects/projects.component.ts&#45;&gt;src/app/shared/services/filter/filter.service.ts -->
<g id="edge6" class="edge">
<title>src/app/main/projects/projects.component.ts&#45;&gt;src/app/shared/services/filter/filter.service.ts</title>
<path fill="none" stroke="#000000" stroke-width="2" stroke-opacity="0.200000" d="M191.18,-224.05C207.49,-220.82 224.64,-215.55 239,-207 268.65,-189.34 291.91,-155.08 303.48,-135.56"/>
<polygon fill="#000000" fill-opacity="0.200000" stroke="#000000" stroke-width="2" stroke-opacity="0.200000" points="305.5,-136.25 306.69,-130 301.87,-134.15 305.5,-136.25"/>
</g>
<!-- src/app/main/projects/projects.component.ts&#45;&gt;src/app/shared/model/Project.ts -->
<g id="edge5" class="edge">
<title>src/app/main/projects/projects.component.ts&#45;&gt;src/app/shared/model/Project.ts</title>
<path fill="none" stroke="#000000" stroke-width="2" stroke-opacity="0.200000" d="M180.96,-219.97C199.24,-216.31 220.16,-211.81 239,-207 302.36,-190.84 375.11,-167.59 416.21,-154.02"/>
<polygon fill="#000000" fill-opacity="0.200000" stroke="#000000" stroke-width="2" stroke-opacity="0.200000" points="417.01,-155.97 422.04,-152.09 415.68,-151.98 417.01,-155.97"/>
</g>
</g>
</svg>
