<?xml version="1.0" encoding="UTF-8" standalone="no"?>
<!DOCTYPE svg PUBLIC "-//W3C//DTD SVG 1.1//EN"
 "http://www.w3.org/Graphics/SVG/1.1/DTD/svg11.dtd">
<!-- Generated by graphviz version 2.43.0 (0)
 -->
<!-- Title: dependency&#45;cruiser output Pages: 1 -->
<svg width="343pt" height="212pt"
 viewBox="0.00 0.00 343.00 212.00" xmlns="http://www.w3.org/2000/svg" xmlns:xlink="http://www.w3.org/1999/xlink">
<g id="graph0" class="graph" transform="scale(1 1) rotate(0) translate(4 208)">
<title>dependency&#45;cruiser output</title>
<polygon fill="white" stroke="transparent" points="-4,4 -4,-208 339,-208 339,4 -4,4"/>
<g id="clust1" class="cluster">
<title>cluster_src</title>
<path fill="#ffffff" stroke="black" stroke-width="2" d="M20,-8C20,-8 315,-8 315,-8 321,-8 327,-14 327,-20 327,-20 327,-184 327,-184 327,-190 321,-196 315,-196 315,-196 20,-196 20,-196 14,-196 8,-190 8,-184 8,-184 8,-20 8,-20 8,-14 14,-8 20,-8"/>
<text text-anchor="middle" x="167.5" y="-184.8" font-family="Helvetica,sans-Serif" font-weight="bold" font-size="9.00">src</text>
</g>
<g id="clust2" class="cluster">
<title>cluster_src/app</title>
<path fill="#ffffff" stroke="black" stroke-width="2" d="M28,-16C28,-16 307,-16 307,-16 313,-16 319,-22 319,-28 319,-28 319,-158 319,-158 319,-164 313,-170 307,-170 307,-170 28,-170 28,-170 22,-170 16,-164 16,-158 16,-158 16,-28 16,-28 16,-22 22,-16 28,-16"/>
<text text-anchor="middle" x="167.5" y="-158.8" font-family="Helvetica,sans-Serif" font-weight="bold" font-size="9.00">app</text>
</g>
<g id="clust3" class="cluster">
<title>cluster_src/app/common</title>
<path fill="#ffffff" stroke="black" stroke-width="2" d="M181,-32C181,-32 299,-32 299,-32 305,-32 311,-38 311,-44 311,-44 311,-106 311,-106 311,-112 305,-118 299,-118 299,-118 181,-118 181,-118 175,-118 169,-112 169,-106 169,-106 169,-44 169,-44 169,-38 175,-32 181,-32"/>
<text text-anchor="middle" x="240" y="-106.8" font-family="Helvetica,sans-Serif" font-weight="bold" font-size="9.00">common</text>
</g>
<g id="clust4" class="cluster">
<title>cluster_src/app/common/dialog</title>
<path fill="#ffffff" stroke="black" stroke-width="2" d="M189,-40C189,-40 291,-40 291,-40 297,-40 303,-46 303,-52 303,-52 303,-80 303,-80 303,-86 297,-92 291,-92 291,-92 189,-92 189,-92 183,-92 177,-86 177,-80 177,-80 177,-52 177,-52 177,-46 183,-40 189,-40"/>
<text text-anchor="middle" x="240" y="-80.8" font-family="Helvetica,sans-Serif" font-weight="bold" font-size="9.00">dialog</text>
</g>
<g id="clust5" class="cluster">
<title>cluster_src/app/shared</title>
<path fill="#ffffff" stroke="black" stroke-width="2" d="M36,-24C36,-24 149,-24 149,-24 155,-24 161,-30 161,-36 161,-36 161,-132 161,-132 161,-138 155,-144 149,-144 149,-144 36,-144 36,-144 30,-144 24,-138 24,-132 24,-132 24,-36 24,-36 24,-30 30,-24 36,-24"/>
<text text-anchor="middle" x="92.5" y="-132.8" font-family="Helvetica,sans-Serif" font-weight="bold" font-size="9.00">shared</text>
</g>
<g id="clust6" class="cluster">
<title>cluster_src/app/shared/services</title>
<path fill="#ffffff" stroke="black" stroke-width="2" d="M44,-32C44,-32 141,-32 141,-32 147,-32 153,-38 153,-44 153,-44 153,-106 153,-106 153,-112 147,-118 141,-118 141,-118 44,-118 44,-118 38,-118 32,-112 32,-106 32,-106 32,-44 32,-44 32,-38 38,-32 44,-32"/>
<text text-anchor="middle" x="92.5" y="-106.8" font-family="Helvetica,sans-Serif" font-weight="bold" font-size="9.00">services</text>
</g>
<g id="clust7" class="cluster">
<title>cluster_src/app/shared/services/dialog</title>
<path fill="#ffffff" stroke="black" stroke-width="2" d="M52,-40C52,-40 133,-40 133,-40 139,-40 145,-46 145,-52 145,-52 145,-80 145,-80 145,-86 139,-92 133,-92 133,-92 52,-92 52,-92 46,-92 40,-86 40,-80 40,-80 40,-52 40,-52 40,-46 46,-40 52,-40"/>
<text text-anchor="middle" x="92.5" y="-80.8" font-family="Helvetica,sans-Serif" font-weight="bold" font-size="9.00">dialog</text>
</g>
<!-- src/app/common/dialog/dialog.component.ts -->
<g id="node1" class="node">
<title>src/app/common/dialog/dialog.component.ts</title>
<g id="a_node1"><a xlink:href="src/app/common/dialog/dialog.component.ts" xlink:title="dialog.component.ts">
<path fill="#ddfeff" stroke="black" d="M289,-66C289,-66 191,-66 191,-66 188,-66 185,-63 185,-60 185,-60 185,-54 185,-54 185,-51 188,-48 191,-48 191,-48 289,-48 289,-48 292,-48 295,-51 295,-54 295,-54 295,-60 295,-60 295,-63 292,-66 289,-66"/>
<text text-anchor="start" x="193" y="-54.8" font-family="Helvetica,sans-Serif" font-size="9.00">dialog.component.ts</text>
</a>
</g>
</g>
<!-- src/app/shared/services/dialog/dialog.service.ts -->
<g id="node2" class="node">
<title>src/app/shared/services/dialog/dialog.service.ts</title>
<g id="a_node2"><a xlink:href="src/app/shared/services/dialog/dialog.service.ts" xlink:title="dialog.service.ts">
<path fill="#ddfeff" stroke="black" d="M131,-66C131,-66 54,-66 54,-66 51,-66 48,-63 48,-60 48,-60 48,-54 48,-54 48,-51 51,-48 54,-48 54,-48 131,-48 131,-48 134,-48 137,-51 137,-54 137,-54 137,-60 137,-60 137,-63 134,-66 131,-66"/>
<text text-anchor="start" x="56" y="-54.8" font-family="Helvetica,sans-Serif" font-size="9.00">dialog.service.ts</text>
</a>
</g>
</g>
<!-- src/app/shared/services/dialog/dialog.service.ts&#45;&gt;src/app/common/dialog/dialog.component.ts -->
<g id="edge1" class="edge">
<title>src/app/shared/services/dialog/dialog.service.ts&#45;&gt;src/app/common/dialog/dialog.component.ts</title>
<path fill="none" stroke="#000000" stroke-width="2" stroke-opacity="0.200000" d="M137.15,-57C150.15,-57 164.62,-57 178.49,-57"/>
<polygon fill="#000000" fill-opacity="0.200000" stroke="#000000" stroke-width="2" stroke-opacity="0.200000" points="178.81,-59.1 184.81,-57 178.81,-54.9 178.81,-59.1"/>
</g>
</g>
</svg>
