<?xml version="1.0" encoding="UTF-8" standalone="no"?>
<!DOCTYPE svg PUBLIC "-//W3C//DTD SVG 1.1//EN"
 "http://www.w3.org/Graphics/SVG/1.1/DTD/svg11.dtd">
<!-- Generated by graphviz version 2.43.0 (0)
 -->
<!-- Title: dependency&#45;cruiser output Pages: 1 -->
<svg width="576pt" height="434pt"
 viewBox="0.00 0.00 576.00 434.00" xmlns="http://www.w3.org/2000/svg" xmlns:xlink="http://www.w3.org/1999/xlink">
<g id="graph0" class="graph" transform="scale(1 1) rotate(0) translate(4 430)">
<title>dependency&#45;cruiser output</title>
<polygon fill="white" stroke="transparent" points="-4,4 -4,-430 572,-430 572,4 -4,4"/>
<g id="clust1" class="cluster">
<title>cluster_src</title>
<path fill="#ffffff" stroke="black" stroke-width="2" d="M20,-8C20,-8 548,-8 548,-8 554,-8 560,-14 560,-20 560,-20 560,-406 560,-406 560,-412 554,-418 548,-418 548,-418 20,-418 20,-418 14,-418 8,-412 8,-406 8,-406 8,-20 8,-20 8,-14 14,-8 20,-8"/>
<text text-anchor="middle" x="284" y="-406.8" font-family="Helvetica,sans-Serif" font-weight="bold" font-size="9.00">src</text>
</g>
<g id="clust2" class="cluster">
<title>cluster_src/app</title>
<path fill="#ffffff" stroke="black" stroke-width="2" d="M28,-16C28,-16 540,-16 540,-16 546,-16 552,-22 552,-28 552,-28 552,-380 552,-380 552,-386 546,-392 540,-392 540,-392 28,-392 28,-392 22,-392 16,-386 16,-380 16,-380 16,-28 16,-28 16,-22 22,-16 28,-16"/>
<text text-anchor="middle" x="284" y="-380.8" font-family="Helvetica,sans-Serif" font-weight="bold" font-size="9.00">app</text>
</g>
<g id="clust3" class="cluster">
<title>cluster_src/app/common</title>
<path fill="#ffffff" stroke="black" stroke-width="2" d="M220,-280C220,-280 532,-280 532,-280 538,-280 544,-286 544,-292 544,-292 544,-354 544,-354 544,-360 538,-366 532,-366 532,-366 220,-366 220,-366 214,-366 208,-360 208,-354 208,-354 208,-292 208,-292 208,-286 214,-280 220,-280"/>
<text text-anchor="middle" x="376" y="-354.8" font-family="Helvetica,sans-Serif" font-weight="bold" font-size="9.00">common</text>
</g>
<g id="clust4" class="cluster">
<title>cluster_src/app/common/avatar</title>
<path fill="#ffffff" stroke="black" stroke-width="2" d="M422,-288C422,-288 524,-288 524,-288 530,-288 536,-294 536,-300 536,-300 536,-328 536,-328 536,-334 530,-340 524,-340 524,-340 422,-340 422,-340 416,-340 410,-334 410,-328 410,-328 410,-300 410,-300 410,-294 416,-288 422,-288"/>
<text text-anchor="middle" x="473" y="-328.8" font-family="Helvetica,sans-Serif" font-weight="bold" font-size="9.00">avatar</text>
</g>
<g id="clust5" class="cluster">
<title>cluster_src/app/common/member&#45;card</title>
<path fill="#ffffff" stroke="black" stroke-width="2" d="M228,-288C228,-288 363,-288 363,-288 369,-288 375,-294 375,-300 375,-300 375,-328 375,-328 375,-334 369,-340 363,-340 363,-340 228,-340 228,-340 222,-340 216,-334 216,-328 216,-328 216,-300 216,-300 216,-294 222,-288 228,-288"/>
<text text-anchor="middle" x="295.5" y="-328.8" font-family="Helvetica,sans-Serif" font-weight="bold" font-size="9.00">member&#45;card</text>
</g>
<g id="clust6" class="cluster">
<title>cluster_src/app/main</title>
<path fill="#ffffff" stroke="black" stroke-width="2" d="M36,-24C36,-24 390,-24 390,-24 396,-24 402,-30 402,-36 402,-36 402,-260 402,-260 402,-266 396,-272 390,-272 390,-272 36,-272 36,-272 30,-272 24,-266 24,-260 24,-260 24,-36 24,-36 24,-30 30,-24 36,-24"/>
<text text-anchor="middle" x="213" y="-260.8" font-family="Helvetica,sans-Serif" font-weight="bold" font-size="9.00">main</text>
</g>
<g id="clust7" class="cluster">
<title>cluster_src/app/main/issues</title>
<path fill="#ffffff" stroke="black" stroke-width="2" d="M44,-32C44,-32 382,-32 382,-32 388,-32 394,-38 394,-44 394,-44 394,-234 394,-234 394,-240 388,-246 382,-246 382,-246 44,-246 44,-246 38,-246 32,-240 32,-234 32,-234 32,-44 32,-44 32,-38 38,-32 44,-32"/>
<text text-anchor="middle" x="213" y="-234.8" font-family="Helvetica,sans-Serif" font-weight="bold" font-size="9.00">issues</text>
</g>
<g id="clust8" class="cluster">
<title>cluster_src/app/main/issues/board</title>
<path fill="#ffffff" stroke="black" stroke-width="2" d="M52,-134C52,-134 188,-134 188,-134 194,-134 200,-140 200,-146 200,-146 200,-208 200,-208 200,-214 194,-220 188,-220 188,-220 52,-220 52,-220 46,-220 40,-214 40,-208 40,-208 40,-146 40,-146 40,-140 46,-134 52,-134"/>
<text text-anchor="middle" x="120" y="-208.8" font-family="Helvetica,sans-Serif" font-weight="bold" font-size="9.00">board</text>
</g>
<g id="clust9" class="cluster">
<title>cluster_src/app/main/issues/board/issue&#45;card</title>
<path fill="#ffffff" stroke="black" stroke-width="2" d="M60,-142C60,-142 180,-142 180,-142 186,-142 192,-148 192,-154 192,-154 192,-182 192,-182 192,-188 186,-194 180,-194 180,-194 60,-194 60,-194 54,-194 48,-188 48,-182 48,-182 48,-154 48,-154 48,-148 54,-142 60,-142"/>
<text text-anchor="middle" x="120" y="-182.8" font-family="Helvetica,sans-Serif" font-weight="bold" font-size="9.00">issue&#45;card</text>
</g>
<g id="clust10" class="cluster">
<title>cluster_src/app/main/issues/view&#45;issue</title>
<path fill="#ffffff" stroke="black" stroke-width="2" d="M65,-40C65,-40 374,-40 374,-40 380,-40 386,-46 386,-52 386,-52 386,-114 386,-114 386,-120 380,-126 374,-126 374,-126 65,-126 65,-126 59,-126 53,-120 53,-114 53,-114 53,-52 53,-52 53,-46 59,-40 65,-40"/>
<text text-anchor="middle" x="219.5" y="-114.8" font-family="Helvetica,sans-Serif" font-weight="bold" font-size="9.00">view&#45;issue</text>
</g>
<g id="clust11" class="cluster">
<title>cluster_src/app/main/issues/view&#45;issue/view&#45;comment</title>
<path fill="#ffffff" stroke="black" stroke-width="2" d="M225,-48C225,-48 366,-48 366,-48 372,-48 378,-54 378,-60 378,-60 378,-88 378,-88 378,-94 372,-100 366,-100 366,-100 225,-100 225,-100 219,-100 213,-94 213,-88 213,-88 213,-60 213,-60 213,-54 219,-48 225,-48"/>
<text text-anchor="middle" x="295.5" y="-88.8" font-family="Helvetica,sans-Serif" font-weight="bold" font-size="9.00">view&#45;comment</text>
</g>
<g id="clust12" class="cluster">
<title>cluster_src/app/main/issues/view&#45;issue/view</title>
<path fill="#ffffff" stroke="black" stroke-width="2" d="M73,-48C73,-48 167,-48 167,-48 173,-48 179,-54 179,-60 179,-60 179,-88 179,-88 179,-94 173,-100 167,-100 167,-100 73,-100 73,-100 67,-100 61,-94 61,-88 61,-88 61,-60 61,-60 61,-54 67,-48 73,-48"/>
<text text-anchor="middle" x="120" y="-88.8" font-family="Helvetica,sans-Serif" font-weight="bold" font-size="9.00">view</text>
</g>
<!-- src/app/common/avatar/avatar.component.ts -->
<g id="node1" class="node">
<title>src/app/common/avatar/avatar.component.ts</title>
<g id="a_node1"><a xlink:href="src/app/common/avatar/avatar.component.ts" xlink:title="avatar.component.ts">
<path fill="#ddfeff" stroke="black" d="M522,-314C522,-314 424,-314 424,-314 421,-314 418,-311 418,-308 418,-308 418,-302 418,-302 418,-299 421,-296 424,-296 424,-296 522,-296 522,-296 525,-296 528,-299 528,-302 528,-302 528,-308 528,-308 528,-311 525,-314 522,-314"/>
<text text-anchor="start" x="426" y="-302.8" font-family="Helvetica,sans-Serif" font-size="9.00">avatar.component.ts</text>
</a>
</g>
</g>
<!-- src/app/common/member&#45;card/member&#45;card.component.ts -->
<g id="node2" class="node">
<title>src/app/common/member&#45;card/member&#45;card.component.ts</title>
<g id="a_node2"><a xlink:href="src/app/common/member-card/member-card.component.ts" xlink:title="member&#45;card.component.ts">
<path fill="#ddfeff" stroke="black" d="M361,-314C361,-314 230,-314 230,-314 227,-314 224,-311 224,-308 224,-308 224,-302 224,-302 224,-299 227,-296 230,-296 230,-296 361,-296 361,-296 364,-296 367,-299 367,-302 367,-302 367,-308 367,-308 367,-311 364,-314 361,-314"/>
<text text-anchor="start" x="232" y="-302.8" font-family="Helvetica,sans-Serif" font-size="9.00">member&#45;card.component.ts</text>
</a>
</g>
</g>
<!-- src/app/common/member&#45;card/member&#45;card.component.ts&#45;&gt;src/app/common/avatar/avatar.component.ts -->
<g id="edge1" class="edge">
<title>src/app/common/member&#45;card/member&#45;card.component.ts&#45;&gt;src/app/common/avatar/avatar.component.ts</title>
<path fill="none" stroke="#000000" stroke-width="2" stroke-opacity="0.200000" d="M367.12,-305C381.96,-305 397.47,-305 411.88,-305"/>
<polygon fill="#000000" fill-opacity="0.200000" stroke="#000000" stroke-width="2" stroke-opacity="0.200000" points="411.98,-307.1 417.98,-305 411.98,-302.9 411.98,-307.1"/>
</g>
<!-- src/app/main/issues/board/issue&#45;card/issue&#45;card.component.ts -->
<g id="node3" class="node">
<title>src/app/main/issues/board/issue&#45;card/issue&#45;card.component.ts</title>
<g id="a_node3"><a xlink:href="src/app/main/issues/board/issue-card/issue-card.component.ts" xlink:title="issue&#45;card.component.ts">
<path fill="#ddfeff" stroke="black" d="M178,-168C178,-168 62,-168 62,-168 59,-168 56,-165 56,-162 56,-162 56,-156 56,-156 56,-153 59,-150 62,-150 62,-150 178,-150 178,-150 181,-150 184,-153 184,-156 184,-156 184,-162 184,-162 184,-165 181,-168 178,-168"/>
<text text-anchor="start" x="64" y="-156.8" font-family="Helvetica,sans-Serif" font-size="9.00">issue&#45;card.component.ts</text>
</a>
</g>
</g>
<!-- src/app/main/issues/board/issue&#45;card/issue&#45;card.component.ts&#45;&gt;src/app/common/avatar/avatar.component.ts -->
<g id="edge2" class="edge">
<title>src/app/main/issues/board/issue&#45;card/issue&#45;card.component.ts&#45;&gt;src/app/common/avatar/avatar.component.ts</title>
<path fill="none" stroke="#000000" stroke-width="2" stroke-opacity="0.200000" d="M142.69,-168.02C203.63,-193.37 376.32,-265.2 444.15,-293.42"/>
<polygon fill="#000000" fill-opacity="0.200000" stroke="#000000" stroke-width="2" stroke-opacity="0.200000" points="443.66,-295.49 450,-295.85 445.27,-291.61 443.66,-295.49"/>
</g>
<!-- src/app/main/issues/view&#45;issue/view&#45;comment/view&#45;comment.component.ts -->
<g id="node4" class="node">
<title>src/app/main/issues/view&#45;issue/view&#45;comment/view&#45;comment.component.ts</title>
<g id="a_node4"><a xlink:href="src/app/main/issues/view-issue/view-comment/view-comment.component.ts" xlink:title="view&#45;comment.component.ts">
<path fill="#ddfeff" stroke="black" d="M364,-74C364,-74 227,-74 227,-74 224,-74 221,-71 221,-68 221,-68 221,-62 221,-62 221,-59 224,-56 227,-56 227,-56 364,-56 364,-56 367,-56 370,-59 370,-62 370,-62 370,-68 370,-68 370,-71 367,-74 364,-74"/>
<text text-anchor="start" x="229" y="-62.8" font-family="Helvetica,sans-Serif" font-size="9.00">view&#45;comment.component.ts</text>
</a>
</g>
</g>
<!-- src/app/main/issues/view&#45;issue/view&#45;comment/view&#45;comment.component.ts&#45;&gt;src/app/common/avatar/avatar.component.ts -->
<g id="edge3" class="edge">
<title>src/app/main/issues/view&#45;issue/view&#45;comment/view&#45;comment.component.ts&#45;&gt;src/app/common/avatar/avatar.component.ts</title>
<path fill="none" stroke="#000000" stroke-width="2" stroke-opacity="0.200000" d="M324.24,-74.09C347.83,-83.11 381.11,-99.07 402,-123 446.46,-173.93 464.15,-256.14 469.78,-289.85"/>
<polygon fill="#000000" fill-opacity="0.200000" stroke="#000000" stroke-width="2" stroke-opacity="0.200000" points="467.73,-290.32 470.75,-295.92 471.88,-289.66 467.73,-290.32"/>
</g>
<!-- src/app/main/issues/view&#45;issue/view/view.component.ts -->
<g id="node5" class="node">
<title>src/app/main/issues/view&#45;issue/view/view.component.ts</title>
<g id="a_node5"><a xlink:href="src/app/main/issues/view-issue/view/view.component.ts" xlink:title="view.component.ts">
<path fill="#ddfeff" stroke="black" d="M165,-74C165,-74 75,-74 75,-74 72,-74 69,-71 69,-68 69,-68 69,-62 69,-62 69,-59 72,-56 75,-56 75,-56 165,-56 165,-56 168,-56 171,-59 171,-62 171,-62 171,-68 171,-68 171,-71 168,-74 165,-74"/>
<text text-anchor="start" x="77" y="-62.8" font-family="Helvetica,sans-Serif" font-size="9.00">view.component.ts</text>
</a>
</g>
</g>
<!-- src/app/main/issues/view&#45;issue/view/view.component.ts&#45;&gt;src/app/common/avatar/avatar.component.ts -->
<g id="edge4" class="edge">
<title>src/app/main/issues/view&#45;issue/view/view.component.ts&#45;&gt;src/app/common/avatar/avatar.component.ts</title>
<path fill="none" stroke="#000000" stroke-width="2" stroke-opacity="0.200000" d="M141.65,-74.17C204.73,-102.23 391.25,-185.6 402,-195 433.28,-222.36 455.7,-267.05 465.88,-290.15"/>
<polygon fill="#000000" fill-opacity="0.200000" stroke="#000000" stroke-width="2" stroke-opacity="0.200000" points="464,-291.11 468.31,-295.79 467.86,-289.45 464,-291.11"/>
</g>
<!-- src/app/main/issues/view&#45;issue/view/view.component.ts&#45;&gt;src/app/main/issues/view&#45;issue/view&#45;comment/view&#45;comment.component.ts -->
<g id="edge5" class="edge">
<title>src/app/main/issues/view&#45;issue/view/view.component.ts&#45;&gt;src/app/main/issues/view&#45;issue/view&#45;comment/view&#45;comment.component.ts</title>
<path fill="none" stroke="#000000" stroke-width="2" stroke-opacity="0.200000" d="M171.18,-65C184.76,-65 199.79,-65 214.56,-65"/>
<polygon fill="#000000" fill-opacity="0.200000" stroke="#000000" stroke-width="2" stroke-opacity="0.200000" points="214.87,-67.1 220.87,-65 214.87,-62.9 214.87,-67.1"/>
</g>
</g>
</svg>
