<?xml version="1.0" encoding="UTF-8" standalone="no"?>
<!DOCTYPE svg PUBLIC "-//W3C//DTD SVG 1.1//EN"
 "http://www.w3.org/Graphics/SVG/1.1/DTD/svg11.dtd">
<!-- Generated by graphviz version 2.43.0 (0)
 -->
<!-- Title: dependency&#45;cruiser output Pages: 1 -->
<svg width="441pt" height="366pt"
 viewBox="0.00 0.00 441.00 366.00" xmlns="http://www.w3.org/2000/svg" xmlns:xlink="http://www.w3.org/1999/xlink">
<g id="graph0" class="graph" transform="scale(1 1) rotate(0) translate(4 362)">
<title>dependency&#45;cruiser output</title>
<polygon fill="white" stroke="transparent" points="-4,4 -4,-362 437,-362 437,4 -4,4"/>
<g id="clust1" class="cluster">
<title>cluster_src</title>
<path fill="#ffffff" stroke="black" stroke-width="2" d="M20,-8C20,-8 413,-8 413,-8 419,-8 425,-14 425,-20 425,-20 425,-338 425,-338 425,-344 419,-350 413,-350 413,-350 20,-350 20,-350 14,-350 8,-344 8,-338 8,-338 8,-20 8,-20 8,-14 14,-8 20,-8"/>
<text text-anchor="middle" x="216.5" y="-338.8" font-family="Helvetica,sans-Serif" font-weight="bold" font-size="9.00">src</text>
</g>
<g id="clust2" class="cluster">
<title>cluster_src/app</title>
<path fill="#ffffff" stroke="black" stroke-width="2" d="M28,-16C28,-16 405,-16 405,-16 411,-16 417,-22 417,-28 417,-28 417,-312 417,-312 417,-318 411,-324 405,-324 405,-324 28,-324 28,-324 22,-324 16,-318 16,-312 16,-312 16,-28 16,-28 16,-22 22,-16 28,-16"/>
<text text-anchor="middle" x="216.5" y="-312.8" font-family="Helvetica,sans-Serif" font-weight="bold" font-size="9.00">app</text>
</g>
<g id="clust3" class="cluster">
<title>cluster_src/app/auth</title>
<path fill="#ffffff" stroke="black" stroke-width="2" d="M121,-126C121,-126 235,-126 235,-126 241,-126 247,-132 247,-138 247,-138 247,-200 247,-200 247,-206 241,-212 235,-212 235,-212 121,-212 121,-212 115,-212 109,-206 109,-200 109,-200 109,-138 109,-138 109,-132 115,-126 121,-126"/>
<text text-anchor="middle" x="178" y="-200.8" font-family="Helvetica,sans-Serif" font-weight="bold" font-size="9.00">auth</text>
</g>
<g id="clust4" class="cluster">
<title>cluster_src/app/auth/verify</title>
<path fill="#ffffff" stroke="black" stroke-width="2" d="M129,-134C129,-134 227,-134 227,-134 233,-134 239,-140 239,-146 239,-146 239,-174 239,-174 239,-180 233,-186 227,-186 227,-186 129,-186 129,-186 123,-186 117,-180 117,-174 117,-174 117,-146 117,-146 117,-140 123,-134 129,-134"/>
<text text-anchor="middle" x="178" y="-174.8" font-family="Helvetica,sans-Serif" font-weight="bold" font-size="9.00">verify</text>
</g>
<g id="clust5" class="cluster">
<title>cluster_src/app/shared</title>
<path fill="#ffffff" stroke="black" stroke-width="2" d="M267,-24C267,-24 397,-24 397,-24 403,-24 409,-30 409,-36 409,-36 409,-286 409,-286 409,-292 403,-298 397,-298 397,-298 267,-298 267,-298 261,-298 255,-292 255,-286 255,-286 255,-36 255,-36 255,-30 261,-24 267,-24"/>
<text text-anchor="middle" x="332" y="-286.8" font-family="Helvetica,sans-Serif" font-weight="bold" font-size="9.00">shared</text>
</g>
<g id="clust6" class="cluster">
<title>cluster_src/app/shared/services</title>
<path fill="#ffffff" stroke="black" stroke-width="2" d="M276.5,-126C276.5,-126 387.5,-126 387.5,-126 393.5,-126 399.5,-132 399.5,-138 399.5,-138 399.5,-260 399.5,-260 399.5,-266 393.5,-272 387.5,-272 387.5,-272 276.5,-272 276.5,-272 270.5,-272 264.5,-266 264.5,-260 264.5,-260 264.5,-138 264.5,-138 264.5,-132 270.5,-126 276.5,-126"/>
<text text-anchor="middle" x="332" y="-260.8" font-family="Helvetica,sans-Serif" font-weight="bold" font-size="9.00">services</text>
</g>
<g id="clust7" class="cluster">
<title>cluster_src/app/shared/services/auth</title>
<path fill="#ffffff" stroke="black" stroke-width="2" d="M294.5,-194C294.5,-194 369.5,-194 369.5,-194 375.5,-194 381.5,-200 381.5,-206 381.5,-206 381.5,-234 381.5,-234 381.5,-240 375.5,-246 369.5,-246 369.5,-246 294.5,-246 294.5,-246 288.5,-246 282.5,-240 282.5,-234 282.5,-234 282.5,-206 282.5,-206 282.5,-200 288.5,-194 294.5,-194"/>
<text text-anchor="middle" x="332" y="-234.8" font-family="Helvetica,sans-Serif" font-weight="bold" font-size="9.00">auth</text>
</g>
<g id="clust8" class="cluster">
<title>cluster_src/app/shared/services/snackbar</title>
<path fill="#ffffff" stroke="black" stroke-width="2" d="M284.5,-134C284.5,-134 379.5,-134 379.5,-134 385.5,-134 391.5,-140 391.5,-146 391.5,-146 391.5,-174 391.5,-174 391.5,-180 385.5,-186 379.5,-186 379.5,-186 284.5,-186 284.5,-186 278.5,-186 272.5,-180 272.5,-174 272.5,-174 272.5,-146 272.5,-146 272.5,-140 278.5,-134 284.5,-134"/>
<text text-anchor="middle" x="332" y="-174.8" font-family="Helvetica,sans-Serif" font-weight="bold" font-size="9.00">snackbar</text>
</g>
<g id="clust9" class="cluster">
<title>cluster_src/app/shared/utils</title>
<path fill="#ffffff" stroke="black" stroke-width="2" d="M275,-32C275,-32 389,-32 389,-32 395,-32 401,-38 401,-44 401,-44 401,-106 401,-106 401,-112 395,-118 389,-118 389,-118 275,-118 275,-118 269,-118 263,-112 263,-106 263,-106 263,-44 263,-44 263,-38 269,-32 275,-32"/>
<text text-anchor="middle" x="332" y="-106.8" font-family="Helvetica,sans-Serif" font-weight="bold" font-size="9.00">utils</text>
</g>
<g id="clust10" class="cluster">
<title>cluster_src/app/shared/utils/formErrorHandler</title>
<path fill="#ffffff" stroke="black" stroke-width="2" d="M283,-40C283,-40 381,-40 381,-40 387,-40 393,-46 393,-52 393,-52 393,-80 393,-80 393,-86 387,-92 381,-92 381,-92 283,-92 283,-92 277,-92 271,-86 271,-80 271,-80 271,-52 271,-52 271,-46 277,-40 283,-40"/>
<text text-anchor="middle" x="332" y="-80.8" font-family="Helvetica,sans-Serif" font-weight="bold" font-size="9.00">formErrorHandler</text>
</g>
<!-- src/app/app.routes.ts -->
<g id="node1" class="node">
<title>src/app/app.routes.ts</title>
<g id="a_node1"><a xlink:href="src/app/app.routes.ts" xlink:title="app.routes.ts">
<path fill="#ddfeff" stroke="black" d="M95,-160C95,-160 30,-160 30,-160 27,-160 24,-157 24,-154 24,-154 24,-148 24,-148 24,-145 27,-142 30,-142 30,-142 95,-142 95,-142 98,-142 101,-145 101,-148 101,-148 101,-154 101,-154 101,-157 98,-160 95,-160"/>
<text text-anchor="start" x="32" y="-148.8" font-family="Helvetica,sans-Serif" font-size="9.00">app.routes.ts</text>
</a>
</g>
</g>
<!-- src/app/auth/verify/verify.component.ts -->
<g id="node2" class="node">
<title>src/app/auth/verify/verify.component.ts</title>
<g id="a_node2"><a xlink:href="src/app/auth/verify/verify.component.ts" xlink:title="verify.component.ts">
<path fill="#ddfeff" stroke="black" d="M225,-160C225,-160 131,-160 131,-160 128,-160 125,-157 125,-154 125,-154 125,-148 125,-148 125,-145 128,-142 131,-142 131,-142 225,-142 225,-142 228,-142 231,-145 231,-148 231,-148 231,-154 231,-154 231,-157 228,-160 225,-160"/>
<text text-anchor="start" x="133" y="-148.8" font-family="Helvetica,sans-Serif" font-size="9.00">verify.component.ts</text>
</a>
</g>
</g>
<!-- src/app/app.routes.ts&#45;&gt;src/app/auth/verify/verify.component.ts -->
<g id="edge1" class="edge">
<title>src/app/app.routes.ts&#45;&gt;src/app/auth/verify/verify.component.ts</title>
<path fill="none" stroke="#000000" stroke-width="2" stroke-dasharray="5,2" stroke-opacity="0.200000" d="M101.29,-151C106.79,-151 112.55,-151 118.34,-151"/>
<polygon fill="#000000" fill-opacity="0.200000" stroke="#000000" stroke-width="2" stroke-opacity="0.200000" points="118.62,-153.1 124.62,-151 118.62,-148.9 118.62,-153.1"/>
</g>
<!-- src/app/shared/services/auth/auth.service.ts -->
<g id="node3" class="node">
<title>src/app/shared/services/auth/auth.service.ts</title>
<g id="a_node3"><a xlink:href="src/app/shared/services/auth/auth.service.ts" xlink:title="auth.service.ts">
<path fill="#ddfeff" stroke="black" d="M367.5,-220C367.5,-220 296.5,-220 296.5,-220 293.5,-220 290.5,-217 290.5,-214 290.5,-214 290.5,-208 290.5,-208 290.5,-205 293.5,-202 296.5,-202 296.5,-202 367.5,-202 367.5,-202 370.5,-202 373.5,-205 373.5,-208 373.5,-208 373.5,-214 373.5,-214 373.5,-217 370.5,-220 367.5,-220"/>
<text text-anchor="start" x="298.5" y="-208.8" font-family="Helvetica,sans-Serif" font-size="9.00">auth.service.ts</text>
</a>
</g>
</g>
<!-- src/app/auth/verify/verify.component.ts&#45;&gt;src/app/shared/services/auth/auth.service.ts -->
<g id="edge2" class="edge">
<title>src/app/auth/verify/verify.component.ts&#45;&gt;src/app/shared/services/auth/auth.service.ts</title>
<path fill="none" stroke="#000000" stroke-width="2" stroke-opacity="0.200000" d="M194.92,-160.03C210.03,-168.34 233.57,-180.62 255,-189 265.69,-193.18 277.49,-196.97 288.54,-200.19"/>
<polygon fill="#000000" fill-opacity="0.200000" stroke="#000000" stroke-width="2" stroke-opacity="0.200000" points="288.25,-202.29 294.6,-201.91 289.4,-198.25 288.25,-202.29"/>
</g>
<!-- src/app/shared/services/snackbar/snackbar.service.ts -->
<g id="node4" class="node">
<title>src/app/shared/services/snackbar/snackbar.service.ts</title>
<g id="a_node4"><a xlink:href="src/app/shared/services/snackbar/snackbar.service.ts" xlink:title="snackbar.service.ts">
<path fill="#ddfeff" stroke="black" d="M377.5,-160C377.5,-160 286.5,-160 286.5,-160 283.5,-160 280.5,-157 280.5,-154 280.5,-154 280.5,-148 280.5,-148 280.5,-145 283.5,-142 286.5,-142 286.5,-142 377.5,-142 377.5,-142 380.5,-142 383.5,-145 383.5,-148 383.5,-148 383.5,-154 383.5,-154 383.5,-157 380.5,-160 377.5,-160"/>
<text text-anchor="start" x="288.5" y="-148.8" font-family="Helvetica,sans-Serif" font-size="9.00">snackbar.service.ts</text>
</a>
</g>
</g>
<!-- src/app/auth/verify/verify.component.ts&#45;&gt;src/app/shared/services/snackbar/snackbar.service.ts -->
<g id="edge3" class="edge">
<title>src/app/auth/verify/verify.component.ts&#45;&gt;src/app/shared/services/snackbar/snackbar.service.ts</title>
<path fill="none" stroke="#000000" stroke-width="2" stroke-opacity="0.200000" d="M231.31,-151C245.09,-151 260.02,-151 274.03,-151"/>
<polygon fill="#000000" fill-opacity="0.200000" stroke="#000000" stroke-width="2" stroke-opacity="0.200000" points="274.39,-153.1 280.39,-151 274.39,-148.9 274.39,-153.1"/>
</g>
<!-- src/app/shared/utils/formErrorHandler/formErrorHandler.ts -->
<g id="node5" class="node">
<title>src/app/shared/utils/formErrorHandler/formErrorHandler.ts</title>
<g id="a_node5"><a xlink:href="src/app/shared/utils/formErrorHandler/formErrorHandler.ts" xlink:title="formErrorHandler.ts">
<path fill="#ddfeff" stroke="black" d="M379,-66C379,-66 285,-66 285,-66 282,-66 279,-63 279,-60 279,-60 279,-54 279,-54 279,-51 282,-48 285,-48 285,-48 379,-48 379,-48 382,-48 385,-51 385,-54 385,-54 385,-60 385,-60 385,-63 382,-66 379,-66"/>
<text text-anchor="start" x="287" y="-54.8" font-family="Helvetica,sans-Serif" font-size="9.00">formErrorHandler.ts</text>
</a>
</g>
</g>
<!-- src/app/auth/verify/verify.component.ts&#45;&gt;src/app/shared/utils/formErrorHandler/formErrorHandler.ts -->
<g id="edge4" class="edge">
<title>src/app/auth/verify/verify.component.ts&#45;&gt;src/app/shared/utils/formErrorHandler/formErrorHandler.ts</title>
<path fill="none" stroke="#000000" stroke-width="2" stroke-opacity="0.200000" d="M193.57,-141.99C220.86,-125.12 279.68,-88.74 310.78,-69.51"/>
<polygon fill="#000000" fill-opacity="0.200000" stroke="#000000" stroke-width="2" stroke-opacity="0.200000" points="312.25,-71.07 316.25,-66.12 310.04,-67.49 312.25,-71.07"/>
</g>
</g>
</svg>
