<?xml version="1.0" encoding="UTF-8" standalone="no"?>
<!DOCTYPE svg PUBLIC "-//W3C//DTD SVG 1.1//EN"
 "http://www.w3.org/Graphics/SVG/1.1/DTD/svg11.dtd">
<!-- Generated by graphviz version 2.43.0 (0)
 -->
<!-- Title: dependency&#45;cruiser output Pages: 1 -->
<svg width="903pt" height="280pt"
 viewBox="0.00 0.00 903.00 280.00" xmlns="http://www.w3.org/2000/svg" xmlns:xlink="http://www.w3.org/1999/xlink">
<g id="graph0" class="graph" transform="scale(1 1) rotate(0) translate(4 276)">
<title>dependency&#45;cruiser output</title>
<polygon fill="white" stroke="transparent" points="-4,4 -4,-276 899,-276 899,4 -4,4"/>
<g id="clust1" class="cluster">
<title>cluster_src</title>
<path fill="#ffffff" stroke="black" stroke-width="2" d="M20,-8C20,-8 875,-8 875,-8 881,-8 887,-14 887,-20 887,-20 887,-252 887,-252 887,-258 881,-264 875,-264 875,-264 20,-264 20,-264 14,-264 8,-258 8,-252 8,-252 8,-20 8,-20 8,-14 14,-8 20,-8"/>
<text text-anchor="middle" x="447.5" y="-252.8" font-family="Helvetica,sans-Serif" font-weight="bold" font-size="9.00">src</text>
</g>
<g id="clust2" class="cluster">
<title>cluster_src/app</title>
<path fill="#ffffff" stroke="black" stroke-width="2" d="M28,-16C28,-16 757,-16 757,-16 763,-16 769,-22 769,-28 769,-28 769,-226 769,-226 769,-232 763,-238 757,-238 757,-238 28,-238 28,-238 22,-238 16,-232 16,-226 16,-226 16,-28 16,-28 16,-22 22,-16 28,-16"/>
<text text-anchor="middle" x="392.5" y="-226.8" font-family="Helvetica,sans-Serif" font-weight="bold" font-size="9.00">app</text>
</g>
<g id="clust3" class="cluster">
<title>cluster_src/app/main</title>
<path fill="#ffffff" stroke="black" stroke-width="2" d="M36,-24C36,-24 562,-24 562,-24 568,-24 574,-30 574,-36 574,-36 574,-200 574,-200 574,-206 568,-212 562,-212 562,-212 36,-212 36,-212 30,-212 24,-206 24,-200 24,-200 24,-36 24,-36 24,-30 30,-24 36,-24"/>
<text text-anchor="middle" x="299" y="-200.8" font-family="Helvetica,sans-Serif" font-weight="bold" font-size="9.00">main</text>
</g>
<g id="clust4" class="cluster">
<title>cluster_src/app/main/issues</title>
<path fill="#ffffff" stroke="black" stroke-width="2" d="M44,-32C44,-32 554,-32 554,-32 560,-32 566,-38 566,-44 566,-44 566,-174 566,-174 566,-180 560,-186 554,-186 554,-186 44,-186 44,-186 38,-186 32,-180 32,-174 32,-174 32,-44 32,-44 32,-38 38,-32 44,-32"/>
<text text-anchor="middle" x="299" y="-174.8" font-family="Helvetica,sans-Serif" font-weight="bold" font-size="9.00">issues</text>
</g>
<g id="clust5" class="cluster">
<title>cluster_src/app/main/issues/view&#45;issue</title>
<path fill="#ffffff" stroke="black" stroke-width="2" d="M52,-40C52,-40 546,-40 546,-40 552,-40 558,-46 558,-52 558,-52 558,-148 558,-148 558,-154 552,-160 546,-160 546,-160 52,-160 52,-160 46,-160 40,-154 40,-148 40,-148 40,-52 40,-52 40,-46 46,-40 52,-40"/>
<text text-anchor="middle" x="299" y="-148.8" font-family="Helvetica,sans-Serif" font-weight="bold" font-size="9.00">view&#45;issue</text>
</g>
<g id="clust6" class="cluster">
<title>cluster_src/app/main/issues/view&#45;issue/view&#45;comment</title>
<path fill="#ffffff" stroke="black" stroke-width="2" d="M186,-48C186,-48 538,-48 538,-48 544,-48 550,-54 550,-60 550,-60 550,-122 550,-122 550,-128 544,-134 538,-134 538,-134 186,-134 186,-134 180,-134 174,-128 174,-122 174,-122 174,-60 174,-60 174,-54 180,-48 186,-48"/>
<text text-anchor="middle" x="362" y="-122.8" font-family="Helvetica,sans-Serif" font-weight="bold" font-size="9.00">view&#45;comment</text>
</g>
<g id="clust7" class="cluster">
<title>cluster_src/app/main/issues/view&#45;issue/view&#45;comment/delete&#45;comment&#45;dialog</title>
<path fill="#ffffff" stroke="black" stroke-width="2" d="M351,-56C351,-56 530,-56 530,-56 536,-56 542,-62 542,-68 542,-68 542,-96 542,-96 542,-102 536,-108 530,-108 530,-108 351,-108 351,-108 345,-108 339,-102 339,-96 339,-96 339,-68 339,-68 339,-62 345,-56 351,-56"/>
<text text-anchor="middle" x="440.5" y="-96.8" font-family="Helvetica,sans-Serif" font-weight="bold" font-size="9.00">delete&#45;comment&#45;dialog</text>
</g>
<g id="clust8" class="cluster">
<title>cluster_src/app/main/issues/view&#45;issue/view</title>
<path fill="#ffffff" stroke="black" stroke-width="2" d="M60,-82C60,-82 154,-82 154,-82 160,-82 166,-88 166,-94 166,-94 166,-122 166,-122 166,-128 160,-134 154,-134 154,-134 60,-134 60,-134 54,-134 48,-128 48,-122 48,-122 48,-94 48,-94 48,-88 54,-82 60,-82"/>
<text text-anchor="middle" x="107" y="-122.8" font-family="Helvetica,sans-Serif" font-weight="bold" font-size="9.00">view</text>
</g>
<g id="clust9" class="cluster">
<title>cluster_src/app/shared</title>
<path fill="#ffffff" stroke="black" stroke-width="2" d="M594,-84C594,-84 749,-84 749,-84 755,-84 761,-90 761,-96 761,-96 761,-192 761,-192 761,-198 755,-204 749,-204 749,-204 594,-204 594,-204 588,-204 582,-198 582,-192 582,-192 582,-96 582,-96 582,-90 588,-84 594,-84"/>
<text text-anchor="middle" x="671.5" y="-192.8" font-family="Helvetica,sans-Serif" font-weight="bold" font-size="9.00">shared</text>
</g>
<g id="clust10" class="cluster">
<title>cluster_src/app/shared/services</title>
<path fill="#ffffff" stroke="black" stroke-width="2" d="M602,-92C602,-92 741,-92 741,-92 747,-92 753,-98 753,-104 753,-104 753,-166 753,-166 753,-172 747,-178 741,-178 741,-178 602,-178 602,-178 596,-178 590,-172 590,-166 590,-166 590,-104 590,-104 590,-98 596,-92 602,-92"/>
<text text-anchor="middle" x="671.5" y="-166.8" font-family="Helvetica,sans-Serif" font-weight="bold" font-size="9.00">services</text>
</g>
<g id="clust11" class="cluster">
<title>cluster_src/app/shared/services/issue&#45;comment</title>
<path fill="#ffffff" stroke="black" stroke-width="2" d="M610,-100C610,-100 733,-100 733,-100 739,-100 745,-106 745,-112 745,-112 745,-140 745,-140 745,-146 739,-152 733,-152 733,-152 610,-152 610,-152 604,-152 598,-146 598,-140 598,-140 598,-112 598,-112 598,-106 604,-100 610,-100"/>
<text text-anchor="middle" x="671.5" y="-140.8" font-family="Helvetica,sans-Serif" font-weight="bold" font-size="9.00">issue&#45;comment</text>
</g>
<g id="clust12" class="cluster">
<title>cluster_src/environments</title>
<path fill="#ffffff" stroke="black" stroke-width="2" d="M789,-100C789,-100 867,-100 867,-100 873,-100 879,-106 879,-112 879,-112 879,-140 879,-140 879,-146 873,-152 867,-152 867,-152 789,-152 789,-152 783,-152 777,-146 777,-140 777,-140 777,-112 777,-112 777,-106 783,-100 789,-100"/>
<text text-anchor="middle" x="828" y="-140.8" font-family="Helvetica,sans-Serif" font-weight="bold" font-size="9.00">environments</text>
</g>
<!-- src/app/main/issues/view&#45;issue/view&#45;comment/delete&#45;comment&#45;dialog/delete&#45;comment&#45;dialog.component.ts -->
<g id="node1" class="node">
<title>src/app/main/issues/view&#45;issue/view&#45;comment/delete&#45;comment&#45;dialog/delete&#45;comment&#45;dialog.component.ts</title>
<g id="a_node1"><a xlink:href="src/app/main/issues/view-issue/view-comment/delete-comment-dialog/delete-comment-dialog.component.ts" xlink:title="delete&#45;comment&#45;dialog.component.ts">
<path fill="#ddfeff" stroke="black" d="M528,-82C528,-82 353,-82 353,-82 350,-82 347,-79 347,-76 347,-76 347,-70 347,-70 347,-67 350,-64 353,-64 353,-64 528,-64 528,-64 531,-64 534,-67 534,-70 534,-70 534,-76 534,-76 534,-79 531,-82 528,-82"/>
<text text-anchor="start" x="355" y="-70.8" font-family="Helvetica,sans-Serif" font-size="9.00">delete&#45;comment&#45;dialog.component.ts</text>
</a>
</g>
</g>
<!-- src/app/shared/services/issue&#45;comment/issue&#45;comment.service.ts -->
<g id="node2" class="node">
<title>src/app/shared/services/issue&#45;comment/issue&#45;comment.service.ts</title>
<g id="a_node2"><a xlink:href="src/app/shared/services/issue-comment/issue-comment.service.ts" xlink:title="issue&#45;comment.service.ts">
<path fill="#ddfeff" stroke="black" d="M731,-126C731,-126 612,-126 612,-126 609,-126 606,-123 606,-120 606,-120 606,-114 606,-114 606,-111 609,-108 612,-108 612,-108 731,-108 731,-108 734,-108 737,-111 737,-114 737,-114 737,-120 737,-120 737,-123 734,-126 731,-126"/>
<text text-anchor="start" x="614" y="-114.8" font-family="Helvetica,sans-Serif" font-size="9.00">issue&#45;comment.service.ts</text>
</a>
</g>
</g>
<!-- src/app/main/issues/view&#45;issue/view&#45;comment/delete&#45;comment&#45;dialog/delete&#45;comment&#45;dialog.component.ts&#45;&gt;src/app/shared/services/issue&#45;comment/issue&#45;comment.service.ts -->
<g id="edge1" class="edge">
<title>src/app/main/issues/view&#45;issue/view&#45;comment/delete&#45;comment&#45;dialog/delete&#45;comment&#45;dialog.component.ts&#45;&gt;src/app/shared/services/issue&#45;comment/issue&#45;comment.service.ts</title>
<path fill="none" stroke="#000000" stroke-width="2" stroke-opacity="0.200000" d="M534.19,-79.55C547.62,-81.24 561.21,-83.35 574,-86 597.11,-90.79 622.49,-99.07 641.42,-105.87"/>
<polygon fill="#000000" fill-opacity="0.200000" stroke="#000000" stroke-width="2" stroke-opacity="0.200000" points="640.73,-107.85 647.08,-107.92 642.16,-103.9 640.73,-107.85"/>
</g>
<!-- src/environments/environment.ts -->
<g id="node5" class="node">
<title>src/environments/environment.ts</title>
<g id="a_node5"><a xlink:href="src/environments/environment.ts" xlink:title="environment.ts">
<path fill="#ddfeff" stroke="black" d="M865,-126C865,-126 791,-126 791,-126 788,-126 785,-123 785,-120 785,-120 785,-114 785,-114 785,-111 788,-108 791,-108 791,-108 865,-108 865,-108 868,-108 871,-111 871,-114 871,-114 871,-120 871,-120 871,-123 868,-126 865,-126"/>
<text text-anchor="start" x="793" y="-114.8" font-family="Helvetica,sans-Serif" font-size="9.00">environment.ts</text>
</a>
</g>
</g>
<!-- src/app/shared/services/issue&#45;comment/issue&#45;comment.service.ts&#45;&gt;src/environments/environment.ts -->
<g id="edge6" class="edge">
<title>src/app/shared/services/issue&#45;comment/issue&#45;comment.service.ts&#45;&gt;src/environments/environment.ts</title>
<path fill="none" stroke="#000000" stroke-width="2" stroke-opacity="0.200000" d="M737.13,-117C750.91,-117 765.25,-117 778.32,-117"/>
<polygon fill="#000000" fill-opacity="0.200000" stroke="#000000" stroke-width="2" stroke-opacity="0.200000" points="778.62,-119.1 784.62,-117 778.62,-114.9 778.62,-119.1"/>
</g>
<!-- src/app/main/issues/view&#45;issue/view&#45;comment/view&#45;comment.component.ts -->
<g id="node3" class="node">
<title>src/app/main/issues/view&#45;issue/view&#45;comment/view&#45;comment.component.ts</title>
<g id="a_node3"><a xlink:href="src/app/main/issues/view-issue/view-comment/view-comment.component.ts" xlink:title="view&#45;comment.component.ts">
<path fill="#ddfeff" stroke="black" d="M325,-108C325,-108 188,-108 188,-108 185,-108 182,-105 182,-102 182,-102 182,-96 182,-96 182,-93 185,-90 188,-90 188,-90 325,-90 325,-90 328,-90 331,-93 331,-96 331,-96 331,-102 331,-102 331,-105 328,-108 325,-108"/>
<text text-anchor="start" x="190" y="-96.8" font-family="Helvetica,sans-Serif" font-size="9.00">view&#45;comment.component.ts</text>
</a>
</g>
</g>
<!-- src/app/main/issues/view&#45;issue/view&#45;comment/view&#45;comment.component.ts&#45;&gt;src/app/main/issues/view&#45;issue/view&#45;comment/delete&#45;comment&#45;dialog/delete&#45;comment&#45;dialog.component.ts -->
<g id="edge3" class="edge">
<title>src/app/main/issues/view&#45;issue/view&#45;comment/view&#45;comment.component.ts&#45;&gt;src/app/main/issues/view&#45;issue/view&#45;comment/delete&#45;comment&#45;dialog/delete&#45;comment&#45;dialog.component.ts</title>
<path fill="none" stroke="#000000" stroke-width="2" stroke-opacity="0.200000" d="M312.7,-89.97C321.49,-88.6 330.49,-87.23 339,-86 346.28,-84.95 353.86,-83.89 361.45,-82.87"/>
<polygon fill="#000000" fill-opacity="0.200000" stroke="#000000" stroke-width="2" stroke-opacity="0.200000" points="362.15,-84.89 367.82,-82.01 361.59,-80.73 362.15,-84.89"/>
</g>
<!-- src/app/main/issues/view&#45;issue/view&#45;comment/view&#45;comment.component.ts&#45;&gt;src/app/shared/services/issue&#45;comment/issue&#45;comment.service.ts -->
<g id="edge2" class="edge">
<title>src/app/main/issues/view&#45;issue/view&#45;comment/view&#45;comment.component.ts&#45;&gt;src/app/shared/services/issue&#45;comment/issue&#45;comment.service.ts</title>
<path fill="none" stroke="#000000" stroke-width="2" stroke-opacity="0.200000" d="M312.19,-108.03C321.13,-109.23 330.31,-110.28 339,-111 428.61,-118.38 532.3,-118.99 599.51,-118.34"/>
<polygon fill="#000000" fill-opacity="0.200000" stroke="#000000" stroke-width="2" stroke-opacity="0.200000" points="599.92,-120.43 605.9,-118.27 599.88,-116.23 599.92,-120.43"/>
</g>
<!-- src/app/main/issues/view&#45;issue/view/view.component.ts -->
<g id="node4" class="node">
<title>src/app/main/issues/view&#45;issue/view/view.component.ts</title>
<g id="a_node4"><a xlink:href="src/app/main/issues/view-issue/view/view.component.ts" xlink:title="view.component.ts">
<path fill="#ddfeff" stroke="black" d="M152,-108C152,-108 62,-108 62,-108 59,-108 56,-105 56,-102 56,-102 56,-96 56,-96 56,-93 59,-90 62,-90 62,-90 152,-90 152,-90 155,-90 158,-93 158,-96 158,-96 158,-102 158,-102 158,-105 155,-108 152,-108"/>
<text text-anchor="start" x="64" y="-96.8" font-family="Helvetica,sans-Serif" font-size="9.00">view.component.ts</text>
</a>
</g>
</g>
<!-- src/app/main/issues/view&#45;issue/view/view.component.ts&#45;&gt;src/app/shared/services/issue&#45;comment/issue&#45;comment.service.ts -->
<g id="edge4" class="edge">
<title>src/app/main/issues/view&#45;issue/view/view.component.ts&#45;&gt;src/app/shared/services/issue&#45;comment/issue&#45;comment.service.ts</title>
<path fill="none" stroke="#000000" stroke-width="2" stroke-opacity="0.200000" d="M119.33,-108.03C131.86,-117.38 153.05,-131.4 174,-137 345.75,-182.91 397.15,-155.13 574,-137 592.34,-135.12 612.34,-131.28 629.35,-127.46"/>
<polygon fill="#000000" fill-opacity="0.200000" stroke="#000000" stroke-width="2" stroke-opacity="0.200000" points="630.1,-129.44 635.48,-126.06 629.16,-125.35 630.1,-129.44"/>
</g>
<!-- src/app/main/issues/view&#45;issue/view/view.component.ts&#45;&gt;src/app/main/issues/view&#45;issue/view&#45;comment/view&#45;comment.component.ts -->
<g id="edge5" class="edge">
<title>src/app/main/issues/view&#45;issue/view/view.component.ts&#45;&gt;src/app/main/issues/view&#45;issue/view&#45;comment/view&#45;comment.component.ts</title>
<path fill="none" stroke="#000000" stroke-width="2" stroke-opacity="0.200000" d="M158.35,-99C163.93,-99 169.7,-99 175.53,-99"/>
<polygon fill="#000000" fill-opacity="0.200000" stroke="#000000" stroke-width="2" stroke-opacity="0.200000" points="175.87,-101.1 181.87,-99 175.87,-96.9 175.87,-101.1"/>
</g>
</g>
</svg>
