<?xml version="1.0" encoding="UTF-8" standalone="no"?>
<!DOCTYPE svg PUBLIC "-//W3C//DTD SVG 1.1//EN"
 "http://www.w3.org/Graphics/SVG/1.1/DTD/svg11.dtd">
<!-- Generated by graphviz version 2.43.0 (0)
 -->
<!-- Title: dependency&#45;cruiser output Pages: 1 -->
<svg width="370pt" height="178pt"
 viewBox="0.00 0.00 370.00 178.00" xmlns="http://www.w3.org/2000/svg" xmlns:xlink="http://www.w3.org/1999/xlink">
<g id="graph0" class="graph" transform="scale(1 1) rotate(0) translate(4 174)">
<title>dependency&#45;cruiser output</title>
<polygon fill="white" stroke="transparent" points="-4,4 -4,-174 366,-174 366,4 -4,4"/>
<g id="clust1" class="cluster">
<title>cluster_src</title>
<path fill="#ffffff" stroke="black" stroke-width="2" d="M20,-8C20,-8 342,-8 342,-8 348,-8 354,-14 354,-20 354,-20 354,-150 354,-150 354,-156 348,-162 342,-162 342,-162 20,-162 20,-162 14,-162 8,-156 8,-150 8,-150 8,-20 8,-20 8,-14 14,-8 20,-8"/>
<text text-anchor="middle" x="181" y="-150.8" font-family="Helvetica,sans-Serif" font-weight="bold" font-size="9.00">src</text>
</g>
<g id="clust2" class="cluster">
<title>cluster_src/app</title>
<path fill="#ffffff" stroke="black" stroke-width="2" d="M28,-16C28,-16 334,-16 334,-16 340,-16 346,-22 346,-28 346,-28 346,-124 346,-124 346,-130 340,-136 334,-136 334,-136 28,-136 28,-136 22,-136 16,-130 16,-124 16,-124 16,-28 16,-28 16,-22 22,-16 28,-16"/>
<text text-anchor="middle" x="181" y="-124.8" font-family="Helvetica,sans-Serif" font-weight="bold" font-size="9.00">app</text>
</g>
<g id="clust3" class="cluster">
<title>cluster_src/app/common</title>
<path fill="#ffffff" stroke="black" stroke-width="2" d="M210,-24C210,-24 326,-24 326,-24 332,-24 338,-30 338,-36 338,-36 338,-98 338,-98 338,-104 332,-110 326,-110 326,-110 210,-110 210,-110 204,-110 198,-104 198,-98 198,-98 198,-36 198,-36 198,-30 204,-24 210,-24"/>
<text text-anchor="middle" x="268" y="-98.8" font-family="Helvetica,sans-Serif" font-weight="bold" font-size="9.00">common</text>
</g>
<g id="clust4" class="cluster">
<title>cluster_src/app/common/footer</title>
<path fill="#ffffff" stroke="black" stroke-width="2" d="M218,-32C218,-32 318,-32 318,-32 324,-32 330,-38 330,-44 330,-44 330,-72 330,-72 330,-78 324,-84 318,-84 318,-84 218,-84 218,-84 212,-84 206,-78 206,-72 206,-72 206,-44 206,-44 206,-38 212,-32 218,-32"/>
<text text-anchor="middle" x="268" y="-72.8" font-family="Helvetica,sans-Serif" font-weight="bold" font-size="9.00">footer</text>
</g>
<g id="clust5" class="cluster">
<title>cluster_src/app/layouts</title>
<path fill="#ffffff" stroke="black" stroke-width="2" d="M36,-24C36,-24 178,-24 178,-24 184,-24 190,-30 190,-36 190,-36 190,-98 190,-98 190,-104 184,-110 178,-110 178,-110 36,-110 36,-110 30,-110 24,-104 24,-98 24,-98 24,-36 24,-36 24,-30 30,-24 36,-24"/>
<text text-anchor="middle" x="107" y="-98.8" font-family="Helvetica,sans-Serif" font-weight="bold" font-size="9.00">layouts</text>
</g>
<g id="clust6" class="cluster">
<title>cluster_src/app/layouts/base&#45;layout</title>
<path fill="#ffffff" stroke="black" stroke-width="2" d="M44,-32C44,-32 170,-32 170,-32 176,-32 182,-38 182,-44 182,-44 182,-72 182,-72 182,-78 176,-84 170,-84 170,-84 44,-84 44,-84 38,-84 32,-78 32,-72 32,-72 32,-44 32,-44 32,-38 38,-32 44,-32"/>
<text text-anchor="middle" x="107" y="-72.8" font-family="Helvetica,sans-Serif" font-weight="bold" font-size="9.00">base&#45;layout</text>
</g>
<!-- src/app/common/footer/footer.component.ts -->
<g id="node1" class="node">
<title>src/app/common/footer/footer.component.ts</title>
<g id="a_node1"><a xlink:href="src/app/common/footer/footer.component.ts" xlink:title="footer.component.ts">
<path fill="#ddfeff" stroke="black" d="M316,-58C316,-58 220,-58 220,-58 217,-58 214,-55 214,-52 214,-52 214,-46 214,-46 214,-43 217,-40 220,-40 220,-40 316,-40 316,-40 319,-40 322,-43 322,-46 322,-46 322,-52 322,-52 322,-55 319,-58 316,-58"/>
<text text-anchor="start" x="222" y="-46.8" font-family="Helvetica,sans-Serif" font-size="9.00">footer.component.ts</text>
</a>
</g>
</g>
<!-- src/app/layouts/base&#45;layout/base&#45;layout.component.ts -->
<g id="node2" class="node">
<title>src/app/layouts/base&#45;layout/base&#45;layout.component.ts</title>
<g id="a_node2"><a xlink:href="src/app/layouts/base-layout/base-layout.component.ts" xlink:title="base&#45;layout.component.ts">
<path fill="#ddfeff" stroke="black" d="M168,-58C168,-58 46,-58 46,-58 43,-58 40,-55 40,-52 40,-52 40,-46 40,-46 40,-43 43,-40 46,-40 46,-40 168,-40 168,-40 171,-40 174,-43 174,-46 174,-46 174,-52 174,-52 174,-55 171,-58 168,-58"/>
<text text-anchor="start" x="48" y="-46.8" font-family="Helvetica,sans-Serif" font-size="9.00">base&#45;layout.component.ts</text>
</a>
</g>
</g>
<!-- src/app/layouts/base&#45;layout/base&#45;layout.component.ts&#45;&gt;src/app/common/footer/footer.component.ts -->
<g id="edge1" class="edge">
<title>src/app/layouts/base&#45;layout/base&#45;layout.component.ts&#45;&gt;src/app/common/footer/footer.component.ts</title>
<path fill="none" stroke="#000000" stroke-width="2" stroke-opacity="0.200000" d="M174.05,-49C185.28,-49 196.88,-49 207.92,-49"/>
<polygon fill="#000000" fill-opacity="0.200000" stroke="#000000" stroke-width="2" stroke-opacity="0.200000" points="207.98,-51.1 213.98,-49 207.98,-46.9 207.98,-51.1"/>
</g>
</g>
</svg>
