<?xml version="1.0" encoding="UTF-8" standalone="no"?>
<!DOCTYPE svg PUBLIC "-//W3C//DTD SVG 1.1//EN"
 "http://www.w3.org/Graphics/SVG/1.1/DTD/svg11.dtd">
<!-- Generated by graphviz version 2.43.0 (0)
 -->
<!-- Title: dependency&#45;cruiser output Pages: 1 -->
<svg width="574pt" height="402pt"
 viewBox="0.00 0.00 574.00 402.00" xmlns="http://www.w3.org/2000/svg" xmlns:xlink="http://www.w3.org/1999/xlink">
<g id="graph0" class="graph" transform="scale(1 1) rotate(0) translate(4 398)">
<title>dependency&#45;cruiser output</title>
<polygon fill="white" stroke="transparent" points="-4,4 -4,-398 570,-398 570,4 -4,4"/>
<g id="clust1" class="cluster">
<title>cluster_src</title>
<path fill="#ffffff" stroke="black" stroke-width="2" d="M20,-8C20,-8 546,-8 546,-8 552,-8 558,-14 558,-20 558,-20 558,-374 558,-374 558,-380 552,-386 546,-386 546,-386 20,-386 20,-386 14,-386 8,-380 8,-374 8,-374 8,-20 8,-20 8,-14 14,-8 20,-8"/>
<text text-anchor="middle" x="283" y="-374.8" font-family="Helvetica,sans-Serif" font-weight="bold" font-size="9.00">src</text>
</g>
<g id="clust2" class="cluster">
<title>cluster_src/app</title>
<path fill="#ffffff" stroke="black" stroke-width="2" d="M28,-16C28,-16 428,-16 428,-16 434,-16 440,-22 440,-28 440,-28 440,-348 440,-348 440,-354 434,-360 428,-360 428,-360 28,-360 28,-360 22,-360 16,-354 16,-348 16,-348 16,-28 16,-28 16,-22 22,-16 28,-16"/>
<text text-anchor="middle" x="228" y="-348.8" font-family="Helvetica,sans-Serif" font-weight="bold" font-size="9.00">app</text>
</g>
<g id="clust3" class="cluster">
<title>cluster_src/app/main</title>
<path fill="#ffffff" stroke="black" stroke-width="2" d="M36,-24C36,-24 163,-24 163,-24 169,-24 175,-30 175,-36 175,-36 175,-98 175,-98 175,-104 169,-110 163,-110 163,-110 36,-110 36,-110 30,-110 24,-104 24,-98 24,-98 24,-36 24,-36 24,-30 30,-24 36,-24"/>
<text text-anchor="middle" x="99.5" y="-98.8" font-family="Helvetica,sans-Serif" font-weight="bold" font-size="9.00">main</text>
</g>
<g id="clust4" class="cluster">
<title>cluster_src/app/main/account</title>
<path fill="#ffffff" stroke="black" stroke-width="2" d="M44,-32C44,-32 155,-32 155,-32 161,-32 167,-38 167,-44 167,-44 167,-72 167,-72 167,-78 161,-84 155,-84 155,-84 44,-84 44,-84 38,-84 32,-78 32,-72 32,-72 32,-44 32,-44 32,-38 38,-32 44,-32"/>
<text text-anchor="middle" x="99.5" y="-72.8" font-family="Helvetica,sans-Serif" font-weight="bold" font-size="9.00">account</text>
</g>
<g id="clust5" class="cluster">
<title>cluster_src/app/shared</title>
<path fill="#ffffff" stroke="black" stroke-width="2" d="M37.5,-118C37.5,-118 420,-118 420,-118 426,-118 432,-124 432,-130 432,-130 432,-322 432,-322 432,-328 426,-334 420,-334 420,-334 37.5,-334 37.5,-334 31.5,-334 25.5,-328 25.5,-322 25.5,-322 25.5,-130 25.5,-130 25.5,-124 31.5,-118 37.5,-118"/>
<text text-anchor="middle" x="228.75" y="-322.8" font-family="Helvetica,sans-Serif" font-weight="bold" font-size="9.00">shared</text>
</g>
<g id="clust6" class="cluster">
<title>cluster_src/app/shared/guards</title>
<path fill="#ffffff" stroke="black" stroke-width="2" d="M45.5,-127C45.5,-127 153.5,-127 153.5,-127 159.5,-127 165.5,-133 165.5,-139 165.5,-139 165.5,-201 165.5,-201 165.5,-207 159.5,-213 153.5,-213 153.5,-213 45.5,-213 45.5,-213 39.5,-213 33.5,-207 33.5,-201 33.5,-201 33.5,-139 33.5,-139 33.5,-133 39.5,-127 45.5,-127"/>
<text text-anchor="middle" x="99.5" y="-201.8" font-family="Helvetica,sans-Serif" font-weight="bold" font-size="9.00">guards</text>
</g>
<g id="clust7" class="cluster">
<title>cluster_src/app/shared/guards/invitation</title>
<path fill="#ffffff" stroke="black" stroke-width="2" d="M53.5,-135C53.5,-135 145.5,-135 145.5,-135 151.5,-135 157.5,-141 157.5,-147 157.5,-147 157.5,-175 157.5,-175 157.5,-181 151.5,-187 145.5,-187 145.5,-187 53.5,-187 53.5,-187 47.5,-187 41.5,-181 41.5,-175 41.5,-175 41.5,-147 41.5,-147 41.5,-141 47.5,-135 53.5,-135"/>
<text text-anchor="middle" x="99.5" y="-175.8" font-family="Helvetica,sans-Serif" font-weight="bold" font-size="9.00">invitation</text>
</g>
<g id="clust8" class="cluster">
<title>cluster_src/app/shared/services</title>
<path fill="#ffffff" stroke="black" stroke-width="2" d="M195,-128C195,-128 405.5,-128 405.5,-128 411.5,-128 417.5,-134 417.5,-140 417.5,-140 417.5,-202 417.5,-202 417.5,-208 411.5,-214 405.5,-214 405.5,-214 195,-214 195,-214 189,-214 183,-208 183,-202 183,-202 183,-140 183,-140 183,-134 189,-128 195,-128"/>
<text text-anchor="middle" x="300.25" y="-202.8" font-family="Helvetica,sans-Serif" font-weight="bold" font-size="9.00">services</text>
</g>
<g id="clust9" class="cluster">
<title>cluster_src/app/shared/services/auth</title>
<path fill="#ffffff" stroke="black" stroke-width="2" d="M322.5,-136C322.5,-136 397.5,-136 397.5,-136 403.5,-136 409.5,-142 409.5,-148 409.5,-148 409.5,-176 409.5,-176 409.5,-182 403.5,-188 397.5,-188 397.5,-188 322.5,-188 322.5,-188 316.5,-188 310.5,-182 310.5,-176 310.5,-176 310.5,-148 310.5,-148 310.5,-142 316.5,-136 322.5,-136"/>
<text text-anchor="middle" x="360" y="-176.8" font-family="Helvetica,sans-Serif" font-weight="bold" font-size="9.00">auth</text>
</g>
<g id="clust10" class="cluster">
<title>cluster_src/app/shared/services/user</title>
<path fill="#ffffff" stroke="black" stroke-width="2" d="M203,-136C203,-136 276,-136 276,-136 282,-136 288,-142 288,-148 288,-148 288,-176 288,-176 288,-182 282,-188 276,-188 276,-188 203,-188 203,-188 197,-188 191,-182 191,-176 191,-176 191,-148 191,-148 191,-142 197,-136 203,-136"/>
<text text-anchor="middle" x="239.5" y="-176.8" font-family="Helvetica,sans-Serif" font-weight="bold" font-size="9.00">user</text>
</g>
<g id="clust11" class="cluster">
<title>cluster_src/app/shared/utils</title>
<path fill="#ffffff" stroke="black" stroke-width="2" d="M308,-222C308,-222 412,-222 412,-222 418,-222 424,-228 424,-234 424,-234 424,-296 424,-296 424,-302 418,-308 412,-308 412,-308 308,-308 308,-308 302,-308 296,-302 296,-296 296,-296 296,-234 296,-234 296,-228 302,-222 308,-222"/>
<text text-anchor="middle" x="360" y="-296.8" font-family="Helvetica,sans-Serif" font-weight="bold" font-size="9.00">utils</text>
</g>
<g id="clust12" class="cluster">
<title>cluster_src/app/shared/utils/paramsHandler</title>
<path fill="#ffffff" stroke="black" stroke-width="2" d="M316,-230C316,-230 404,-230 404,-230 410,-230 416,-236 416,-242 416,-242 416,-270 416,-270 416,-276 410,-282 404,-282 404,-282 316,-282 316,-282 310,-282 304,-276 304,-270 304,-270 304,-242 304,-242 304,-236 310,-230 316,-230"/>
<text text-anchor="middle" x="360" y="-270.8" font-family="Helvetica,sans-Serif" font-weight="bold" font-size="9.00">paramsHandler</text>
</g>
<g id="clust13" class="cluster">
<title>cluster_src/environments</title>
<path fill="#ffffff" stroke="black" stroke-width="2" d="M460,-218C460,-218 538,-218 538,-218 544,-218 550,-224 550,-230 550,-230 550,-258 550,-258 550,-264 544,-270 538,-270 538,-270 460,-270 460,-270 454,-270 448,-264 448,-258 448,-258 448,-230 448,-230 448,-224 454,-218 460,-218"/>
<text text-anchor="middle" x="499" y="-258.8" font-family="Helvetica,sans-Serif" font-weight="bold" font-size="9.00">environments</text>
</g>
<!-- src/app/main/account/account.component.ts -->
<g id="node1" class="node">
<title>src/app/main/account/account.component.ts</title>
<g id="a_node1"><a xlink:href="src/app/main/account/account.component.ts" xlink:title="account.component.ts">
<path fill="#ddfeff" stroke="black" d="M153,-58C153,-58 46,-58 46,-58 43,-58 40,-55 40,-52 40,-52 40,-46 40,-46 40,-43 43,-40 46,-40 46,-40 153,-40 153,-40 156,-40 159,-43 159,-46 159,-46 159,-52 159,-52 159,-55 156,-58 153,-58"/>
<text text-anchor="start" x="48" y="-46.8" font-family="Helvetica,sans-Serif" font-size="9.00">account.component.ts</text>
</a>
</g>
</g>
<!-- src/app/shared/services/auth/auth.service.ts -->
<g id="node2" class="node">
<title>src/app/shared/services/auth/auth.service.ts</title>
<g id="a_node2"><a xlink:href="src/app/shared/services/auth/auth.service.ts" xlink:title="auth.service.ts">
<path fill="#ddfeff" stroke="black" d="M395.5,-162C395.5,-162 324.5,-162 324.5,-162 321.5,-162 318.5,-159 318.5,-156 318.5,-156 318.5,-150 318.5,-150 318.5,-147 321.5,-144 324.5,-144 324.5,-144 395.5,-144 395.5,-144 398.5,-144 401.5,-147 401.5,-150 401.5,-150 401.5,-156 401.5,-156 401.5,-159 398.5,-162 395.5,-162"/>
<text text-anchor="start" x="326.5" y="-150.8" font-family="Helvetica,sans-Serif" font-size="9.00">auth.service.ts</text>
</a>
</g>
</g>
<!-- src/app/main/account/account.component.ts&#45;&gt;src/app/shared/services/auth/auth.service.ts -->
<g id="edge1" class="edge">
<title>src/app/main/account/account.component.ts&#45;&gt;src/app/shared/services/auth/auth.service.ts</title>
<path fill="none" stroke="#000000" stroke-width="2" stroke-opacity="0.200000" d="M122.99,-58.05C170.06,-76.99 278.89,-120.77 330.66,-141.6"/>
<polygon fill="#000000" fill-opacity="0.200000" stroke="#000000" stroke-width="2" stroke-opacity="0.200000" points="330.03,-143.61 336.38,-143.9 331.6,-139.71 330.03,-143.61"/>
</g>
<!-- src/app/shared/services/user/user.service.ts -->
<g id="node3" class="node">
<title>src/app/shared/services/user/user.service.ts</title>
<g id="a_node3"><a xlink:href="src/app/shared/services/user/user.service.ts" xlink:title="user.service.ts">
<path fill="#ddfeff" stroke="black" d="M274,-162C274,-162 205,-162 205,-162 202,-162 199,-159 199,-156 199,-156 199,-150 199,-150 199,-147 202,-144 205,-144 205,-144 274,-144 274,-144 277,-144 280,-147 280,-150 280,-150 280,-156 280,-156 280,-159 277,-162 274,-162"/>
<text text-anchor="start" x="207" y="-150.8" font-family="Helvetica,sans-Serif" font-size="9.00">user.service.ts</text>
</a>
</g>
</g>
<!-- src/app/main/account/account.component.ts&#45;&gt;src/app/shared/services/user/user.service.ts -->
<g id="edge2" class="edge">
<title>src/app/main/account/account.component.ts&#45;&gt;src/app/shared/services/user/user.service.ts</title>
<path fill="none" stroke="#000000" stroke-width="2" stroke-opacity="0.200000" d="M112.75,-58.23C137.46,-76.86 193.35,-118.97 221.55,-140.22"/>
<polygon fill="#000000" fill-opacity="0.200000" stroke="#000000" stroke-width="2" stroke-opacity="0.200000" points="220.42,-142.01 226.48,-143.94 222.95,-138.65 220.42,-142.01"/>
</g>
<!-- src/environments/environment.ts -->
<g id="node5" class="node">
<title>src/environments/environment.ts</title>
<g id="a_node5"><a xlink:href="src/environments/environment.ts" xlink:title="environment.ts">
<path fill="#ddfeff" stroke="black" d="M536,-244C536,-244 462,-244 462,-244 459,-244 456,-241 456,-238 456,-238 456,-232 456,-232 456,-229 459,-226 462,-226 462,-226 536,-226 536,-226 539,-226 542,-229 542,-232 542,-232 542,-238 542,-238 542,-241 539,-244 536,-244"/>
<text text-anchor="start" x="464" y="-232.8" font-family="Helvetica,sans-Serif" font-size="9.00">environment.ts</text>
</a>
</g>
</g>
<!-- src/app/shared/services/auth/auth.service.ts&#45;&gt;src/environments/environment.ts -->
<g id="edge5" class="edge">
<title>src/app/shared/services/auth/auth.service.ts&#45;&gt;src/environments/environment.ts</title>
<path fill="none" stroke="#000000" stroke-width="2" stroke-opacity="0.200000" d="M376.18,-162.09C400.87,-176.87 449.74,-206.12 477.49,-222.73"/>
<polygon fill="#000000" fill-opacity="0.200000" stroke="#000000" stroke-width="2" stroke-opacity="0.200000" points="476.52,-224.59 482.75,-225.87 478.68,-220.99 476.52,-224.59"/>
</g>
<!-- src/app/shared/services/user/user.service.ts&#45;&gt;src/app/shared/services/auth/auth.service.ts -->
<g id="edge8" class="edge">
<title>src/app/shared/services/user/user.service.ts&#45;&gt;src/app/shared/services/auth/auth.service.ts</title>
<path fill="none" stroke="#000000" stroke-width="2" stroke-opacity="0.200000" d="M280.29,-153C290.52,-153 301.62,-153 312.17,-153"/>
<polygon fill="#000000" fill-opacity="0.200000" stroke="#000000" stroke-width="2" stroke-opacity="0.200000" points="312.31,-155.1 318.31,-153 312.31,-150.9 312.31,-155.1"/>
</g>
<!-- src/app/shared/services/user/user.service.ts&#45;&gt;src/environments/environment.ts -->
<g id="edge6" class="edge">
<title>src/app/shared/services/user/user.service.ts&#45;&gt;src/environments/environment.ts</title>
<path fill="none" stroke="#000000" stroke-width="2" stroke-opacity="0.200000" d="M241.08,-162.16C243.21,-187.13 252.93,-256.39 296,-285 349.31,-320.41 380.01,-307.29 440,-285 459.19,-277.87 476.28,-261.22 486.85,-249.09"/>
<polygon fill="#000000" fill-opacity="0.200000" stroke="#000000" stroke-width="2" stroke-opacity="0.200000" points="488.71,-250.15 490.97,-244.21 485.5,-247.44 488.71,-250.15"/>
</g>
<!-- src/app/shared/utils/paramsHandler/paramsHandler.ts -->
<g id="node6" class="node">
<title>src/app/shared/utils/paramsHandler/paramsHandler.ts</title>
<g id="a_node6"><a xlink:href="src/app/shared/utils/paramsHandler/paramsHandler.ts" xlink:title="paramsHandler.ts">
<path fill="#ddfeff" stroke="black" d="M402,-256C402,-256 318,-256 318,-256 315,-256 312,-253 312,-250 312,-250 312,-244 312,-244 312,-241 315,-238 318,-238 318,-238 402,-238 402,-238 405,-238 408,-241 408,-244 408,-244 408,-250 408,-250 408,-253 405,-256 402,-256"/>
<text text-anchor="start" x="320" y="-244.8" font-family="Helvetica,sans-Serif" font-size="9.00">paramsHandler.ts</text>
</a>
</g>
</g>
<!-- src/app/shared/services/user/user.service.ts&#45;&gt;src/app/shared/utils/paramsHandler/paramsHandler.ts -->
<g id="edge7" class="edge">
<title>src/app/shared/services/user/user.service.ts&#45;&gt;src/app/shared/utils/paramsHandler/paramsHandler.ts</title>
<path fill="none" stroke="#000000" stroke-width="2" stroke-opacity="0.200000" d="M251.86,-162.01C272.95,-178.74 318.23,-214.66 342.63,-234.01"/>
<polygon fill="#000000" fill-opacity="0.200000" stroke="#000000" stroke-width="2" stroke-opacity="0.200000" points="341.49,-235.79 347.5,-237.88 344.1,-232.5 341.49,-235.79"/>
</g>
<!-- src/app/shared/guards/invitation/invitation.guard.ts -->
<g id="node4" class="node">
<title>src/app/shared/guards/invitation/invitation.guard.ts</title>
<g id="a_node4"><a xlink:href="src/app/shared/guards/invitation/invitation.guard.ts" xlink:title="invitation.guard.ts">
<path fill="#ddfeff" stroke="black" d="M143.5,-161C143.5,-161 55.5,-161 55.5,-161 52.5,-161 49.5,-158 49.5,-155 49.5,-155 49.5,-149 49.5,-149 49.5,-146 52.5,-143 55.5,-143 55.5,-143 143.5,-143 143.5,-143 146.5,-143 149.5,-146 149.5,-149 149.5,-149 149.5,-155 149.5,-155 149.5,-158 146.5,-161 143.5,-161"/>
<text text-anchor="start" x="57.5" y="-149.8" font-family="Helvetica,sans-Serif" font-size="9.00">invitation.guard.ts</text>
</a>
</g>
</g>
<!-- src/app/shared/guards/invitation/invitation.guard.ts&#45;&gt;src/app/shared/services/auth/auth.service.ts -->
<g id="edge3" class="edge">
<title>src/app/shared/guards/invitation/invitation.guard.ts&#45;&gt;src/app/shared/services/auth/auth.service.ts</title>
<path fill="none" stroke="#000000" stroke-width="2" stroke-opacity="0.200000" d="M131.94,-143C147.21,-139.08 165.91,-134.94 183,-133 229.37,-127.73 241.77,-126.61 288,-133 301.19,-134.82 315.38,-138.46 327.58,-142.15"/>
<polygon fill="#000000" fill-opacity="0.200000" stroke="#000000" stroke-width="2" stroke-opacity="0.200000" points="327.04,-144.18 333.4,-143.95 328.29,-140.17 327.04,-144.18"/>
</g>
<!-- src/app/shared/guards/invitation/invitation.guard.ts&#45;&gt;src/app/shared/services/user/user.service.ts -->
<g id="edge4" class="edge">
<title>src/app/shared/guards/invitation/invitation.guard.ts&#45;&gt;src/app/shared/services/user/user.service.ts</title>
<path fill="none" stroke="#000000" stroke-width="2" stroke-opacity="0.200000" d="M149.54,-152.36C163.52,-152.46 178.68,-152.57 192.47,-152.67"/>
<polygon fill="#000000" fill-opacity="0.200000" stroke="#000000" stroke-width="2" stroke-opacity="0.200000" points="192.69,-154.77 198.7,-152.71 192.72,-150.57 192.69,-154.77"/>
</g>
</g>
</svg>
