<?xml version="1.0" encoding="UTF-8" standalone="no"?>
<!DOCTYPE svg PUBLIC "-//W3C//DTD SVG 1.1//EN"
 "http://www.w3.org/Graphics/SVG/1.1/DTD/svg11.dtd">
<!-- Generated by graphviz version 2.43.0 (0)
 -->
<!-- Title: dependency&#45;cruiser output Pages: 1 -->
<svg width="778pt" height="674pt"
 viewBox="0.00 0.00 778.00 674.00" xmlns="http://www.w3.org/2000/svg" xmlns:xlink="http://www.w3.org/1999/xlink">
<g id="graph0" class="graph" transform="scale(1 1) rotate(0) translate(4 670)">
<title>dependency&#45;cruiser output</title>
<polygon fill="white" stroke="transparent" points="-4,4 -4,-670 774,-670 774,4 -4,4"/>
<g id="clust1" class="cluster">
<title>cluster_src</title>
<path fill="#ffffff" stroke="black" stroke-width="2" d="M20,-8C20,-8 750,-8 750,-8 756,-8 762,-14 762,-20 762,-20 762,-646 762,-646 762,-652 756,-658 750,-658 750,-658 20,-658 20,-658 14,-658 8,-652 8,-646 8,-646 8,-20 8,-20 8,-14 14,-8 20,-8"/>
<text text-anchor="middle" x="385" y="-646.8" font-family="Helvetica,sans-Serif" font-weight="bold" font-size="9.00">src</text>
</g>
<g id="clust2" class="cluster">
<title>cluster_src/app</title>
<path fill="#ffffff" stroke="black" stroke-width="2" d="M28,-16C28,-16 742,-16 742,-16 748,-16 754,-22 754,-28 754,-28 754,-560 754,-560 754,-566 748,-572 742,-572 742,-572 28,-572 28,-572 22,-572 16,-566 16,-560 16,-560 16,-28 16,-28 16,-22 22,-16 28,-16"/>
<text text-anchor="middle" x="385" y="-560.8" font-family="Helvetica,sans-Serif" font-weight="bold" font-size="9.00">app</text>
</g>
<g id="clust3" class="cluster">
<title>cluster_src/app/common</title>
<path fill="#ffffff" stroke="black" stroke-width="2" d="M225.5,-426C225.5,-426 378.5,-426 378.5,-426 384.5,-426 390.5,-432 390.5,-438 390.5,-438 390.5,-534 390.5,-534 390.5,-540 384.5,-546 378.5,-546 378.5,-546 225.5,-546 225.5,-546 219.5,-546 213.5,-540 213.5,-534 213.5,-534 213.5,-438 213.5,-438 213.5,-432 219.5,-426 225.5,-426"/>
<text text-anchor="middle" x="302" y="-534.8" font-family="Helvetica,sans-Serif" font-weight="bold" font-size="9.00">common</text>
</g>
<g id="clust4" class="cluster">
<title>cluster_src/app/common/form</title>
<path fill="#ffffff" stroke="black" stroke-width="2" d="M233.5,-434C233.5,-434 370.5,-434 370.5,-434 376.5,-434 382.5,-440 382.5,-446 382.5,-446 382.5,-508 382.5,-508 382.5,-514 376.5,-520 370.5,-520 370.5,-520 233.5,-520 233.5,-520 227.5,-520 221.5,-514 221.5,-508 221.5,-508 221.5,-446 221.5,-446 221.5,-440 227.5,-434 233.5,-434"/>
<text text-anchor="middle" x="302" y="-508.8" font-family="Helvetica,sans-Serif" font-weight="bold" font-size="9.00">form</text>
</g>
<g id="clust5" class="cluster">
<title>cluster_src/app/common/form/issue&#45;form</title>
<path fill="#ffffff" stroke="black" stroke-width="2" d="M241.5,-442C241.5,-442 362.5,-442 362.5,-442 368.5,-442 374.5,-448 374.5,-454 374.5,-454 374.5,-482 374.5,-482 374.5,-488 368.5,-494 362.5,-494 362.5,-494 241.5,-494 241.5,-494 235.5,-494 229.5,-488 229.5,-482 229.5,-482 229.5,-454 229.5,-454 229.5,-448 235.5,-442 241.5,-442"/>
<text text-anchor="middle" x="302" y="-482.8" font-family="Helvetica,sans-Serif" font-weight="bold" font-size="9.00">issue&#45;form</text>
</g>
<g id="clust6" class="cluster">
<title>cluster_src/app/main</title>
<path fill="#ffffff" stroke="black" stroke-width="2" d="M36,-24C36,-24 408,-24 408,-24 414,-24 420,-30 420,-36 420,-36 420,-406 420,-406 420,-412 414,-418 408,-418 408,-418 36,-418 36,-418 30,-418 24,-412 24,-406 24,-406 24,-36 24,-36 24,-30 30,-24 36,-24"/>
<text text-anchor="middle" x="222" y="-406.8" font-family="Helvetica,sans-Serif" font-weight="bold" font-size="9.00">main</text>
</g>
<g id="clust7" class="cluster">
<title>cluster_src/app/main/manage</title>
<path fill="#ffffff" stroke="black" stroke-width="2" d="M49.5,-32C49.5,-32 400,-32 400,-32 406,-32 412,-38 412,-44 412,-44 412,-140 412,-140 412,-146 406,-152 400,-152 400,-152 49.5,-152 49.5,-152 43.5,-152 37.5,-146 37.5,-140 37.5,-140 37.5,-44 37.5,-44 37.5,-38 43.5,-32 49.5,-32"/>
<text text-anchor="middle" x="224.75" y="-140.8" font-family="Helvetica,sans-Serif" font-weight="bold" font-size="9.00">manage</text>
</g>
<g id="clust8" class="cluster">
<title>cluster_src/app/main/manage/members</title>
<path fill="#ffffff" stroke="black" stroke-width="2" d="M57.5,-40C57.5,-40 392,-40 392,-40 398,-40 404,-46 404,-52 404,-52 404,-114 404,-114 404,-120 398,-126 392,-126 392,-126 57.5,-126 57.5,-126 51.5,-126 45.5,-120 45.5,-114 45.5,-114 45.5,-52 45.5,-52 45.5,-46 51.5,-40 57.5,-40"/>
<text text-anchor="middle" x="224.75" y="-114.8" font-family="Helvetica,sans-Serif" font-weight="bold" font-size="9.00">members</text>
</g>
<g id="clust9" class="cluster">
<title>cluster_src/app/main/manage/members/project&#45;invite&#45;dialog</title>
<path fill="#ffffff" stroke="black" stroke-width="2" d="M220,-48C220,-48 384,-48 384,-48 390,-48 396,-54 396,-60 396,-60 396,-88 396,-88 396,-94 390,-100 384,-100 384,-100 220,-100 220,-100 214,-100 208,-94 208,-88 208,-88 208,-60 208,-60 208,-54 214,-48 220,-48"/>
<text text-anchor="middle" x="302" y="-88.8" font-family="Helvetica,sans-Serif" font-weight="bold" font-size="9.00">project&#45;invite&#45;dialog</text>
</g>
<g id="clust10" class="cluster">
<title>cluster_src/app/main/projects</title>
<path fill="#ffffff" stroke="black" stroke-width="2" d="M44,-160C44,-160 188,-160 188,-160 194,-160 200,-166 200,-172 200,-172 200,-320 200,-320 200,-326 194,-332 188,-332 188,-332 44,-332 44,-332 38,-332 32,-326 32,-320 32,-320 32,-172 32,-172 32,-166 38,-160 44,-160"/>
<text text-anchor="middle" x="116" y="-320.8" font-family="Helvetica,sans-Serif" font-weight="bold" font-size="9.00">projects</text>
</g>
<g id="clust11" class="cluster">
<title>cluster_src/app/main/projects/edit&#45;project</title>
<path fill="#ffffff" stroke="black" stroke-width="2" d="M53,-168C53,-168 179,-168 179,-168 185,-168 191,-174 191,-180 191,-180 191,-208 191,-208 191,-214 185,-220 179,-220 179,-220 53,-220 53,-220 47,-220 41,-214 41,-208 41,-208 41,-180 41,-180 41,-174 47,-168 53,-168"/>
<text text-anchor="middle" x="116" y="-208.8" font-family="Helvetica,sans-Serif" font-weight="bold" font-size="9.00">edit&#45;project</text>
</g>
<g id="clust12" class="cluster">
<title>cluster_src/app/main/projects/new&#45;project</title>
<path fill="#ffffff" stroke="black" stroke-width="2" d="M52,-228C52,-228 180,-228 180,-228 186,-228 192,-234 192,-240 192,-240 192,-268 192,-268 192,-274 186,-280 180,-280 180,-280 52,-280 52,-280 46,-280 40,-274 40,-268 40,-268 40,-240 40,-240 40,-234 46,-228 52,-228"/>
<text text-anchor="middle" x="116" y="-268.8" font-family="Helvetica,sans-Serif" font-weight="bold" font-size="9.00">new&#45;project</text>
</g>
<g id="clust13" class="cluster">
<title>cluster_src/app/main/worktime</title>
<path fill="#ffffff" stroke="black" stroke-width="2" d="M57.5,-340C57.5,-340 174.5,-340 174.5,-340 180.5,-340 186.5,-346 186.5,-352 186.5,-352 186.5,-380 186.5,-380 186.5,-386 180.5,-392 174.5,-392 174.5,-392 57.5,-392 57.5,-392 51.5,-392 45.5,-386 45.5,-380 45.5,-380 45.5,-352 45.5,-352 45.5,-346 51.5,-340 57.5,-340"/>
<text text-anchor="middle" x="116" y="-380.8" font-family="Helvetica,sans-Serif" font-weight="bold" font-size="9.00">worktime</text>
</g>
<g id="clust14" class="cluster">
<title>cluster_src/app/shared</title>
<path fill="#ffffff" stroke="black" stroke-width="2" d="M440,-177C440,-177 734,-177 734,-177 740,-177 746,-183 746,-189 746,-189 746,-345 746,-345 746,-351 740,-357 734,-357 734,-357 440,-357 440,-357 434,-357 428,-351 428,-345 428,-345 428,-189 428,-189 428,-183 434,-177 440,-177"/>
<text text-anchor="middle" x="587" y="-345.8" font-family="Helvetica,sans-Serif" font-weight="bold" font-size="9.00">shared</text>
</g>
<g id="clust15" class="cluster">
<title>cluster_src/app/shared/services</title>
<path fill="#ffffff" stroke="black" stroke-width="2" d="M448,-185C448,-185 590,-185 590,-185 596,-185 602,-191 602,-197 602,-197 602,-319 602,-319 602,-325 596,-331 590,-331 590,-331 448,-331 448,-331 442,-331 436,-325 436,-319 436,-319 436,-197 436,-197 436,-191 442,-185 448,-185"/>
<text text-anchor="middle" x="519" y="-319.8" font-family="Helvetica,sans-Serif" font-weight="bold" font-size="9.00">services</text>
</g>
<g id="clust16" class="cluster">
<title>cluster_src/app/shared/services/project&#45;member</title>
<path fill="#ffffff" stroke="black" stroke-width="2" d="M456,-193C456,-193 582,-193 582,-193 588,-193 594,-199 594,-205 594,-205 594,-233 594,-233 594,-239 588,-245 582,-245 582,-245 456,-245 456,-245 450,-245 444,-239 444,-233 444,-233 444,-205 444,-205 444,-199 450,-193 456,-193"/>
<text text-anchor="middle" x="519" y="-233.8" font-family="Helvetica,sans-Serif" font-weight="bold" font-size="9.00">project&#45;member</text>
</g>
<g id="clust17" class="cluster">
<title>cluster_src/app/shared/services/project</title>
<path fill="#ffffff" stroke="black" stroke-width="2" d="M476,-253C476,-253 562,-253 562,-253 568,-253 574,-259 574,-265 574,-265 574,-293 574,-293 574,-299 568,-305 562,-305 562,-305 476,-305 476,-305 470,-305 464,-299 464,-293 464,-293 464,-265 464,-265 464,-259 470,-253 476,-253"/>
<text text-anchor="middle" x="519" y="-293.8" font-family="Helvetica,sans-Serif" font-weight="bold" font-size="9.00">project</text>
</g>
<g id="clust18" class="cluster">
<title>cluster_src/app/shared/utils</title>
<path fill="#ffffff" stroke="black" stroke-width="2" d="M622,-215C622,-215 726,-215 726,-215 732,-215 738,-221 738,-227 738,-227 738,-289 738,-289 738,-295 732,-301 726,-301 726,-301 622,-301 622,-301 616,-301 610,-295 610,-289 610,-289 610,-227 610,-227 610,-221 616,-215 622,-215"/>
<text text-anchor="middle" x="674" y="-289.8" font-family="Helvetica,sans-Serif" font-weight="bold" font-size="9.00">utils</text>
</g>
<g id="clust19" class="cluster">
<title>cluster_src/app/shared/utils/paramsHandler</title>
<path fill="#ffffff" stroke="black" stroke-width="2" d="M630,-223C630,-223 718,-223 718,-223 724,-223 730,-229 730,-235 730,-235 730,-263 730,-263 730,-269 724,-275 718,-275 718,-275 630,-275 630,-275 624,-275 618,-269 618,-263 618,-263 618,-235 618,-235 618,-229 624,-223 630,-223"/>
<text text-anchor="middle" x="674" y="-263.8" font-family="Helvetica,sans-Serif" font-weight="bold" font-size="9.00">paramsHandler</text>
</g>
<g id="clust20" class="cluster">
<title>cluster_src/environments</title>
<path fill="#ffffff" stroke="black" stroke-width="2" d="M635,-580C635,-580 713,-580 713,-580 719,-580 725,-586 725,-592 725,-592 725,-620 725,-620 725,-626 719,-632 713,-632 713,-632 635,-632 635,-632 629,-632 623,-626 623,-620 623,-620 623,-592 623,-592 623,-586 629,-580 635,-580"/>
<text text-anchor="middle" x="674" y="-620.8" font-family="Helvetica,sans-Serif" font-weight="bold" font-size="9.00">environments</text>
</g>
<!-- src/app/common/form/issue&#45;form/issue&#45;form.component.ts -->
<g id="node1" class="node">
<title>src/app/common/form/issue&#45;form/issue&#45;form.component.ts</title>
<g id="a_node1"><a xlink:href="src/app/common/form/issue-form/issue-form.component.ts" xlink:title="issue&#45;form.component.ts">
<path fill="#ddfeff" stroke="black" d="M360.5,-468C360.5,-468 243.5,-468 243.5,-468 240.5,-468 237.5,-465 237.5,-462 237.5,-462 237.5,-456 237.5,-456 237.5,-453 240.5,-450 243.5,-450 243.5,-450 360.5,-450 360.5,-450 363.5,-450 366.5,-453 366.5,-456 366.5,-456 366.5,-462 366.5,-462 366.5,-465 363.5,-468 360.5,-468"/>
<text text-anchor="start" x="245.5" y="-456.8" font-family="Helvetica,sans-Serif" font-size="9.00">issue&#45;form.component.ts</text>
</a>
</g>
</g>
<!-- src/app/shared/services/project&#45;member/project&#45;member.service.ts -->
<g id="node2" class="node">
<title>src/app/shared/services/project&#45;member/project&#45;member.service.ts</title>
<g id="a_node2"><a xlink:href="src/app/shared/services/project-member/project-member.service.ts" xlink:title="project&#45;member.service.ts">
<path fill="#ddfeff" stroke="black" d="M580,-219C580,-219 458,-219 458,-219 455,-219 452,-216 452,-213 452,-213 452,-207 452,-207 452,-204 455,-201 458,-201 458,-201 580,-201 580,-201 583,-201 586,-204 586,-207 586,-207 586,-213 586,-213 586,-216 583,-219 580,-219"/>
<text text-anchor="start" x="460" y="-207.8" font-family="Helvetica,sans-Serif" font-size="9.00">project&#45;member.service.ts</text>
</a>
</g>
</g>
<!-- src/app/common/form/issue&#45;form/issue&#45;form.component.ts&#45;&gt;src/app/shared/services/project&#45;member/project&#45;member.service.ts -->
<g id="edge1" class="edge">
<title>src/app/common/form/issue&#45;form/issue&#45;form.component.ts&#45;&gt;src/app/shared/services/project&#45;member/project&#45;member.service.ts</title>
<path fill="none" stroke="#000000" stroke-width="2" stroke-opacity="0.200000" d="M306.2,-449.72C317.65,-417.72 359.65,-310.56 428,-250 442.72,-236.96 462.37,-227.56 479.56,-221.17"/>
<polygon fill="#000000" fill-opacity="0.200000" stroke="#000000" stroke-width="2" stroke-opacity="0.200000" points="480.35,-223.12 485.29,-219.11 478.93,-219.17 480.35,-223.12"/>
</g>
<!-- src/environments/environment.ts -->
<g id="node10" class="node">
<title>src/environments/environment.ts</title>
<g id="a_node10"><a xlink:href="src/environments/environment.ts" xlink:title="environment.ts">
<path fill="#ddfeff" stroke="black" d="M711,-606C711,-606 637,-606 637,-606 634,-606 631,-603 631,-600 631,-600 631,-594 631,-594 631,-591 634,-588 637,-588 637,-588 711,-588 711,-588 714,-588 717,-591 717,-594 717,-594 717,-600 717,-600 717,-603 714,-606 711,-606"/>
<text text-anchor="start" x="639" y="-594.8" font-family="Helvetica,sans-Serif" font-size="9.00">environment.ts</text>
</a>
</g>
</g>
<!-- src/app/shared/services/project&#45;member/project&#45;member.service.ts&#45;&gt;src/environments/environment.ts -->
<g id="edge10" class="edge">
<title>src/app/shared/services/project&#45;member/project&#45;member.service.ts&#45;&gt;src/environments/environment.ts</title>
<path fill="none" stroke="#000000" stroke-width="2" stroke-opacity="0.200000" d="M554.56,-219C571.3,-225.09 590.26,-234.85 602,-250 607.26,-256.78 657.38,-515.82 670.08,-581.82"/>
<polygon fill="#000000" fill-opacity="0.200000" stroke="#000000" stroke-width="2" stroke-opacity="0.200000" points="668.06,-582.42 671.26,-587.92 672.19,-581.63 668.06,-582.42"/>
</g>
<!-- src/app/shared/utils/paramsHandler/paramsHandler.ts -->
<g id="node11" class="node">
<title>src/app/shared/utils/paramsHandler/paramsHandler.ts</title>
<g id="a_node11"><a xlink:href="src/app/shared/utils/paramsHandler/paramsHandler.ts" xlink:title="paramsHandler.ts">
<path fill="#ddfeff" stroke="black" d="M716,-249C716,-249 632,-249 632,-249 629,-249 626,-246 626,-243 626,-243 626,-237 626,-237 626,-234 629,-231 632,-231 632,-231 716,-231 716,-231 719,-231 722,-234 722,-237 722,-237 722,-243 722,-243 722,-246 719,-249 716,-249"/>
<text text-anchor="start" x="634" y="-237.8" font-family="Helvetica,sans-Serif" font-size="9.00">paramsHandler.ts</text>
</a>
</g>
</g>
<!-- src/app/shared/services/project&#45;member/project&#45;member.service.ts&#45;&gt;src/app/shared/utils/paramsHandler/paramsHandler.ts -->
<g id="edge11" class="edge">
<title>src/app/shared/services/project&#45;member/project&#45;member.service.ts&#45;&gt;src/app/shared/utils/paramsHandler/paramsHandler.ts</title>
<path fill="none" stroke="#000000" stroke-width="2" stroke-opacity="0.200000" d="M565.91,-219C583.22,-222.4 603.05,-226.28 620.89,-229.78"/>
<polygon fill="#000000" fill-opacity="0.200000" stroke="#000000" stroke-width="2" stroke-opacity="0.200000" points="620.57,-231.86 626.86,-230.95 621.38,-227.74 620.57,-231.86"/>
</g>
<!-- src/app/main/manage/members/members.component.ts -->
<g id="node3" class="node">
<title>src/app/main/manage/members/members.component.ts</title>
<g id="a_node3"><a xlink:href="src/app/main/manage/members/members.component.ts" xlink:title="members.component.ts">
<path fill="#ddfeff" stroke="black" d="M172.5,-100C172.5,-100 59.5,-100 59.5,-100 56.5,-100 53.5,-97 53.5,-94 53.5,-94 53.5,-88 53.5,-88 53.5,-85 56.5,-82 59.5,-82 59.5,-82 172.5,-82 172.5,-82 175.5,-82 178.5,-85 178.5,-88 178.5,-88 178.5,-94 178.5,-94 178.5,-97 175.5,-100 172.5,-100"/>
<text text-anchor="start" x="61.5" y="-88.8" font-family="Helvetica,sans-Serif" font-size="9.00">members.component.ts</text>
</a>
</g>
</g>
<!-- src/app/main/manage/members/members.component.ts&#45;&gt;src/app/shared/services/project&#45;member/project&#45;member.service.ts -->
<g id="edge2" class="edge">
<title>src/app/main/manage/members/members.component.ts&#45;&gt;src/app/shared/services/project&#45;member/project&#45;member.service.ts</title>
<path fill="none" stroke="#000000" stroke-width="2" stroke-opacity="0.200000" d="M147.47,-100.04C220.15,-121.61 403.43,-176 481.68,-199.22"/>
<polygon fill="#000000" fill-opacity="0.200000" stroke="#000000" stroke-width="2" stroke-opacity="0.200000" points="481.23,-201.28 487.58,-200.97 482.42,-197.25 481.23,-201.28"/>
</g>
<!-- src/app/shared/services/project/project.service.ts -->
<g id="node4" class="node">
<title>src/app/shared/services/project/project.service.ts</title>
<g id="a_node4"><a xlink:href="src/app/shared/services/project/project.service.ts" xlink:title="project.service.ts">
<path fill="#ddfeff" stroke="black" d="M560,-279C560,-279 478,-279 478,-279 475,-279 472,-276 472,-273 472,-273 472,-267 472,-267 472,-264 475,-261 478,-261 478,-261 560,-261 560,-261 563,-261 566,-264 566,-267 566,-267 566,-273 566,-273 566,-276 563,-279 560,-279"/>
<text text-anchor="start" x="480" y="-267.8" font-family="Helvetica,sans-Serif" font-size="9.00">project.service.ts</text>
</a>
</g>
</g>
<!-- src/app/main/manage/members/members.component.ts&#45;&gt;src/app/shared/services/project/project.service.ts -->
<g id="edge3" class="edge">
<title>src/app/main/manage/members/members.component.ts&#45;&gt;src/app/shared/services/project/project.service.ts</title>
<path fill="none" stroke="#000000" stroke-width="2" stroke-opacity="0.200000" d="M128.13,-100.03C144.67,-113.07 177.12,-137.23 208,-152 297.02,-194.58 351.67,-146.8 420,-218 429.55,-227.96 418.14,-238.34 428,-248 438.16,-257.95 452.03,-263.65 465.83,-266.85"/>
<polygon fill="#000000" fill-opacity="0.200000" stroke="#000000" stroke-width="2" stroke-opacity="0.200000" points="465.44,-268.91 471.74,-268.07 466.29,-264.8 465.44,-268.91"/>
</g>
<!-- src/app/main/manage/members/project&#45;invite&#45;dialog/project&#45;invite&#45;dialog.component.ts -->
<g id="node5" class="node">
<title>src/app/main/manage/members/project&#45;invite&#45;dialog/project&#45;invite&#45;dialog.component.ts</title>
<g id="a_node5"><a xlink:href="src/app/main/manage/members/project-invite-dialog/project-invite-dialog.component.ts" xlink:title="project&#45;invite&#45;dialog.component.ts">
<path fill="#ddfeff" stroke="black" d="M382,-74C382,-74 222,-74 222,-74 219,-74 216,-71 216,-68 216,-68 216,-62 216,-62 216,-59 219,-56 222,-56 222,-56 382,-56 382,-56 385,-56 388,-59 388,-62 388,-62 388,-68 388,-68 388,-71 385,-74 382,-74"/>
<text text-anchor="start" x="224" y="-62.8" font-family="Helvetica,sans-Serif" font-size="9.00">project&#45;invite&#45;dialog.component.ts</text>
</a>
</g>
</g>
<!-- src/app/main/manage/members/members.component.ts&#45;&gt;src/app/main/manage/members/project&#45;invite&#45;dialog/project&#45;invite&#45;dialog.component.ts -->
<g id="edge4" class="edge">
<title>src/app/main/manage/members/members.component.ts&#45;&gt;src/app/main/manage/members/project&#45;invite&#45;dialog/project&#45;invite&#45;dialog.component.ts</title>
<path fill="none" stroke="#000000" stroke-width="2" stroke-opacity="0.200000" d="M178.53,-82.31C195.27,-79.94 213.54,-77.36 230.73,-74.93"/>
<polygon fill="#000000" fill-opacity="0.200000" stroke="#000000" stroke-width="2" stroke-opacity="0.200000" points="231.37,-76.96 237.01,-74.04 230.78,-72.8 231.37,-76.96"/>
</g>
<!-- src/app/shared/services/project/project.service.ts&#45;&gt;src/environments/environment.ts -->
<g id="edge12" class="edge">
<title>src/app/shared/services/project/project.service.ts&#45;&gt;src/environments/environment.ts</title>
<path fill="none" stroke="#000000" stroke-width="2" stroke-opacity="0.200000" d="M524.25,-279.09C545.44,-324.37 639.65,-525.72 666.08,-582.22"/>
<polygon fill="#000000" fill-opacity="0.200000" stroke="#000000" stroke-width="2" stroke-opacity="0.200000" points="664.25,-583.26 668.7,-587.8 668.06,-581.48 664.25,-583.26"/>
</g>
<!-- src/app/shared/services/project/project.service.ts&#45;&gt;src/app/shared/utils/paramsHandler/paramsHandler.ts -->
<g id="edge13" class="edge">
<title>src/app/shared/services/project/project.service.ts&#45;&gt;src/app/shared/utils/paramsHandler/paramsHandler.ts</title>
<path fill="none" stroke="#000000" stroke-width="2" stroke-opacity="0.200000" d="M565.91,-261C583.22,-257.6 603.05,-253.72 620.89,-250.22"/>
<polygon fill="#000000" fill-opacity="0.200000" stroke="#000000" stroke-width="2" stroke-opacity="0.200000" points="621.38,-252.26 626.86,-249.05 620.57,-248.14 621.38,-252.26"/>
</g>
<!-- src/app/main/manage/members/project&#45;invite&#45;dialog/project&#45;invite&#45;dialog.component.ts&#45;&gt;src/app/shared/services/project&#45;member/project&#45;member.service.ts -->
<g id="edge5" class="edge">
<title>src/app/main/manage/members/project&#45;invite&#45;dialog/project&#45;invite&#45;dialog.component.ts&#45;&gt;src/app/shared/services/project&#45;member/project&#45;member.service.ts</title>
<path fill="none" stroke="#000000" stroke-width="2" stroke-opacity="0.200000" d="M316.45,-74.07C353.48,-99.04 456.98,-168.84 499.45,-197.49"/>
<polygon fill="#000000" fill-opacity="0.200000" stroke="#000000" stroke-width="2" stroke-opacity="0.200000" points="498.41,-199.32 504.56,-200.93 500.76,-195.84 498.41,-199.32"/>
</g>
<!-- src/app/main/projects/edit&#45;project/edit&#45;project.component.ts -->
<g id="node6" class="node">
<title>src/app/main/projects/edit&#45;project/edit&#45;project.component.ts</title>
<g id="a_node6"><a xlink:href="src/app/main/projects/edit-project/edit-project.component.ts" xlink:title="edit&#45;project.component.ts">
<path fill="#ddfeff" stroke="black" d="M177,-194C177,-194 55,-194 55,-194 52,-194 49,-191 49,-188 49,-188 49,-182 49,-182 49,-179 52,-176 55,-176 55,-176 177,-176 177,-176 180,-176 183,-179 183,-182 183,-182 183,-188 183,-188 183,-191 180,-194 177,-194"/>
<text text-anchor="start" x="57" y="-182.8" font-family="Helvetica,sans-Serif" font-size="9.00">edit&#45;project.component.ts</text>
</a>
</g>
</g>
<!-- src/app/main/projects/edit&#45;project/edit&#45;project.component.ts&#45;&gt;src/app/shared/services/project/project.service.ts -->
<g id="edge6" class="edge">
<title>src/app/main/projects/edit&#45;project/edit&#45;project.component.ts&#45;&gt;src/app/shared/services/project/project.service.ts</title>
<path fill="none" stroke="#000000" stroke-width="2" stroke-opacity="0.200000" d="M139.07,-194.11C157.28,-201.3 183.93,-211.07 208,-217 300.46,-239.79 326.37,-230.67 420,-248 438.02,-251.34 457.76,-255.64 474.77,-259.56"/>
<polygon fill="#000000" fill-opacity="0.200000" stroke="#000000" stroke-width="2" stroke-opacity="0.200000" points="474.59,-261.67 480.91,-260.98 475.54,-257.58 474.59,-261.67"/>
</g>
<!-- src/app/main/projects/new&#45;project/new&#45;project.component.ts -->
<g id="node7" class="node">
<title>src/app/main/projects/new&#45;project/new&#45;project.component.ts</title>
<g id="a_node7"><a xlink:href="src/app/main/projects/new-project/new-project.component.ts" xlink:title="new&#45;project.component.ts">
<path fill="#ddfeff" stroke="black" d="M178,-254C178,-254 54,-254 54,-254 51,-254 48,-251 48,-248 48,-248 48,-242 48,-242 48,-239 51,-236 54,-236 54,-236 178,-236 178,-236 181,-236 184,-239 184,-242 184,-242 184,-248 184,-248 184,-251 181,-254 178,-254"/>
<text text-anchor="start" x="56" y="-242.8" font-family="Helvetica,sans-Serif" font-size="9.00">new&#45;project.component.ts</text>
</a>
</g>
</g>
<!-- src/app/main/projects/new&#45;project/new&#45;project.component.ts&#45;&gt;src/app/shared/services/project/project.service.ts -->
<g id="edge7" class="edge">
<title>src/app/main/projects/new&#45;project/new&#45;project.component.ts&#45;&gt;src/app/shared/services/project/project.service.ts</title>
<path fill="none" stroke="#000000" stroke-width="2" stroke-opacity="0.200000" d="M184.12,-249.18C263.33,-254.12 393.38,-262.23 465.57,-266.73"/>
<polygon fill="#000000" fill-opacity="0.200000" stroke="#000000" stroke-width="2" stroke-opacity="0.200000" points="465.82,-268.85 471.94,-267.13 466.08,-264.66 465.82,-268.85"/>
</g>
<!-- src/app/main/projects/projects.component.ts -->
<g id="node8" class="node">
<title>src/app/main/projects/projects.component.ts</title>
<g id="a_node8"><a xlink:href="src/app/main/projects/projects.component.ts" xlink:title="projects.component.ts">
<path fill="#ddfeff" stroke="black" d="M169.5,-306C169.5,-306 62.5,-306 62.5,-306 59.5,-306 56.5,-303 56.5,-300 56.5,-300 56.5,-294 56.5,-294 56.5,-291 59.5,-288 62.5,-288 62.5,-288 169.5,-288 169.5,-288 172.5,-288 175.5,-291 175.5,-294 175.5,-294 175.5,-300 175.5,-300 175.5,-303 172.5,-306 169.5,-306"/>
<text text-anchor="start" x="64.5" y="-294.8" font-family="Helvetica,sans-Serif" font-size="9.00">projects.component.ts</text>
</a>
</g>
</g>
<!-- src/app/main/projects/projects.component.ts&#45;&gt;src/app/shared/services/project/project.service.ts -->
<g id="edge8" class="edge">
<title>src/app/main/projects/projects.component.ts&#45;&gt;src/app/shared/services/project/project.service.ts</title>
<path fill="none" stroke="#000000" stroke-width="2" stroke-opacity="0.200000" d="M175.74,-293.05C253.92,-287.78 390.99,-278.55 465.75,-273.52"/>
<polygon fill="#000000" fill-opacity="0.200000" stroke="#000000" stroke-width="2" stroke-opacity="0.200000" points="466.06,-275.6 471.9,-273.1 465.77,-271.41 466.06,-275.6"/>
</g>
<!-- src/app/main/worktime/worktime.component.ts -->
<g id="node9" class="node">
<title>src/app/main/worktime/worktime.component.ts</title>
<g id="a_node9"><a xlink:href="src/app/main/worktime/worktime.component.ts" xlink:title="worktime.component.ts">
<path fill="#ddfeff" stroke="black" d="M172.5,-366C172.5,-366 59.5,-366 59.5,-366 56.5,-366 53.5,-363 53.5,-360 53.5,-360 53.5,-354 53.5,-354 53.5,-351 56.5,-348 59.5,-348 59.5,-348 172.5,-348 172.5,-348 175.5,-348 178.5,-351 178.5,-354 178.5,-354 178.5,-360 178.5,-360 178.5,-363 175.5,-366 172.5,-366"/>
<text text-anchor="start" x="61.5" y="-354.8" font-family="Helvetica,sans-Serif" font-size="9.00">worktime.component.ts</text>
</a>
</g>
</g>
<!-- src/app/main/worktime/worktime.component.ts&#45;&gt;src/app/shared/services/project/project.service.ts -->
<g id="edge9" class="edge">
<title>src/app/main/worktime/worktime.component.ts&#45;&gt;src/app/shared/services/project/project.service.ts</title>
<path fill="none" stroke="#000000" stroke-width="2" stroke-opacity="0.200000" d="M158.78,-347.94C233.85,-331.65 391.11,-297.53 470.29,-280.35"/>
<polygon fill="#000000" fill-opacity="0.200000" stroke="#000000" stroke-width="2" stroke-opacity="0.200000" points="470.9,-282.37 476.31,-279.04 470.01,-278.26 470.9,-282.37"/>
</g>
</g>
</svg>
