<?xml version="1.0" encoding="UTF-8" standalone="no"?>
<!DOCTYPE svg PUBLIC "-//W3C//DTD SVG 1.1//EN"
 "http://www.w3.org/Graphics/SVG/1.1/DTD/svg11.dtd">
<!-- Generated by graphviz version 2.43.0 (0)
 -->
<!-- Title: dependency&#45;cruiser output Pages: 1 -->
<svg width="303pt" height="212pt"
 viewBox="0.00 0.00 303.00 212.00" xmlns="http://www.w3.org/2000/svg" xmlns:xlink="http://www.w3.org/1999/xlink">
<g id="graph0" class="graph" transform="scale(1 1) rotate(0) translate(4 208)">
<title>dependency&#45;cruiser output</title>
<polygon fill="white" stroke="transparent" points="-4,4 -4,-208 299,-208 299,4 -4,4"/>
<g id="clust1" class="cluster">
<title>cluster_src</title>
<path fill="#ffffff" stroke="black" stroke-width="2" d="M20,-8C20,-8 275,-8 275,-8 281,-8 287,-14 287,-20 287,-20 287,-184 287,-184 287,-190 281,-196 275,-196 275,-196 20,-196 20,-196 14,-196 8,-190 8,-184 8,-184 8,-20 8,-20 8,-14 14,-8 20,-8"/>
<text text-anchor="middle" x="147.5" y="-184.8" font-family="Helvetica,sans-Serif" font-weight="bold" font-size="9.00">src</text>
</g>
<g id="clust2" class="cluster">
<title>cluster_src/app</title>
<path fill="#ffffff" stroke="black" stroke-width="2" d="M28,-16C28,-16 267,-16 267,-16 273,-16 279,-22 279,-28 279,-28 279,-158 279,-158 279,-164 273,-170 267,-170 267,-170 28,-170 28,-170 22,-170 16,-164 16,-158 16,-158 16,-28 16,-28 16,-22 22,-16 28,-16"/>
<text text-anchor="middle" x="147.5" y="-158.8" font-family="Helvetica,sans-Serif" font-weight="bold" font-size="9.00">app</text>
</g>
<g id="clust3" class="cluster">
<title>cluster_src/app/shared</title>
<path fill="#ffffff" stroke="black" stroke-width="2" d="M36,-24C36,-24 259,-24 259,-24 265,-24 271,-30 271,-36 271,-36 271,-132 271,-132 271,-138 265,-144 259,-144 259,-144 36,-144 36,-144 30,-144 24,-138 24,-132 24,-132 24,-36 24,-36 24,-30 30,-24 36,-24"/>
<text text-anchor="middle" x="147.5" y="-132.8" font-family="Helvetica,sans-Serif" font-weight="bold" font-size="9.00">shared</text>
</g>
<g id="clust4" class="cluster">
<title>cluster_src/app/shared/services</title>
<path fill="#ffffff" stroke="black" stroke-width="2" d="M44,-32C44,-32 251,-32 251,-32 257,-32 263,-38 263,-44 263,-44 263,-106 263,-106 263,-112 257,-118 251,-118 251,-118 44,-118 44,-118 38,-118 32,-112 32,-106 32,-106 32,-44 32,-44 32,-38 38,-32 44,-32"/>
<text text-anchor="middle" x="147.5" y="-106.8" font-family="Helvetica,sans-Serif" font-weight="bold" font-size="9.00">services</text>
</g>
<g id="clust5" class="cluster">
<title>cluster_src/app/shared/services/list&#45;state</title>
<path fill="#ffffff" stroke="black" stroke-width="2" d="M52,-40C52,-40 145,-40 145,-40 151,-40 157,-46 157,-52 157,-52 157,-80 157,-80 157,-86 151,-92 145,-92 145,-92 52,-92 52,-92 46,-92 40,-86 40,-80 40,-80 40,-52 40,-52 40,-46 46,-40 52,-40"/>
<text text-anchor="middle" x="98.5" y="-80.8" font-family="Helvetica,sans-Serif" font-weight="bold" font-size="9.00">list&#45;state</text>
</g>
<g id="clust6" class="cluster">
<title>cluster_src/app/shared/services/url</title>
<path fill="#ffffff" stroke="black" stroke-width="2" d="M177,-40C177,-40 243,-40 243,-40 249,-40 255,-46 255,-52 255,-52 255,-80 255,-80 255,-86 249,-92 243,-92 243,-92 177,-92 177,-92 171,-92 165,-86 165,-80 165,-80 165,-52 165,-52 165,-46 171,-40 177,-40"/>
<text text-anchor="middle" x="210" y="-80.8" font-family="Helvetica,sans-Serif" font-weight="bold" font-size="9.00">url</text>
</g>
<!-- src/app/shared/services/list&#45;state/list&#45;state.service.ts -->
<g id="node1" class="node">
<title>src/app/shared/services/list&#45;state/list&#45;state.service.ts</title>
<g id="a_node1"><a xlink:href="src/app/shared/services/list-state/list-state.service.ts" xlink:title="list&#45;state.service.ts">
<path fill="#ddfeff" stroke="black" d="M143,-66C143,-66 54,-66 54,-66 51,-66 48,-63 48,-60 48,-60 48,-54 48,-54 48,-51 51,-48 54,-48 54,-48 143,-48 143,-48 146,-48 149,-51 149,-54 149,-54 149,-60 149,-60 149,-63 146,-66 143,-66"/>
<text text-anchor="start" x="56" y="-54.8" font-family="Helvetica,sans-Serif" font-size="9.00">list&#45;state.service.ts</text>
</a>
</g>
</g>
<!-- src/app/shared/services/url/url.service.ts -->
<g id="node2" class="node">
<title>src/app/shared/services/url/url.service.ts</title>
<g id="a_node2"><a xlink:href="src/app/shared/services/url/url.service.ts" xlink:title="url.service.ts">
<path fill="#ddfeff" stroke="black" d="M241,-66C241,-66 179,-66 179,-66 176,-66 173,-63 173,-60 173,-60 173,-54 173,-54 173,-51 176,-48 179,-48 179,-48 241,-48 241,-48 244,-48 247,-51 247,-54 247,-54 247,-60 247,-60 247,-63 244,-66 241,-66"/>
<text text-anchor="start" x="181" y="-54.8" font-family="Helvetica,sans-Serif" font-size="9.00">url.service.ts</text>
</a>
</g>
</g>
<!-- src/app/shared/services/list&#45;state/list&#45;state.service.ts&#45;&gt;src/app/shared/services/url/url.service.ts -->
<g id="edge1" class="edge">
<title>src/app/shared/services/list&#45;state/list&#45;state.service.ts&#45;&gt;src/app/shared/services/url/url.service.ts</title>
<path fill="none" stroke="#000000" stroke-width="2" stroke-opacity="0.200000" d="M149.12,-57C155.02,-57 161.01,-57 166.79,-57"/>
<polygon fill="#000000" fill-opacity="0.200000" stroke="#000000" stroke-width="2" stroke-opacity="0.200000" points="166.98,-59.1 172.97,-57 166.97,-54.9 166.98,-59.1"/>
</g>
</g>
</svg>
