<?xml version="1.0" encoding="UTF-8" standalone="no"?>
<!DOCTYPE svg PUBLIC "-//W3C//DTD SVG 1.1//EN"
 "http://www.w3.org/Graphics/SVG/1.1/DTD/svg11.dtd">
<!-- Generated by graphviz version 2.43.0 (0)
 -->
<!-- Title: dependency&#45;cruiser output Pages: 1 -->
<svg width="751pt" height="434pt"
 viewBox="0.00 0.00 751.00 434.00" xmlns="http://www.w3.org/2000/svg" xmlns:xlink="http://www.w3.org/1999/xlink">
<g id="graph0" class="graph" transform="scale(1 1) rotate(0) translate(4 430)">
<title>dependency&#45;cruiser output</title>
<polygon fill="white" stroke="transparent" points="-4,4 -4,-430 747,-430 747,4 -4,4"/>
<g id="clust1" class="cluster">
<title>cluster_src</title>
<path fill="#ffffff" stroke="black" stroke-width="2" d="M20,-8C20,-8 723,-8 723,-8 729,-8 735,-14 735,-20 735,-20 735,-406 735,-406 735,-412 729,-418 723,-418 723,-418 20,-418 20,-418 14,-418 8,-412 8,-406 8,-406 8,-20 8,-20 8,-14 14,-8 20,-8"/>
<text text-anchor="middle" x="371.5" y="-406.8" font-family="Helvetica,sans-Serif" font-weight="bold" font-size="9.00">src</text>
</g>
<g id="clust2" class="cluster">
<title>cluster_src/app</title>
<path fill="#ffffff" stroke="black" stroke-width="2" d="M28,-16C28,-16 715,-16 715,-16 721,-16 727,-22 727,-28 727,-28 727,-320 727,-320 727,-326 721,-332 715,-332 715,-332 28,-332 28,-332 22,-332 16,-326 16,-320 16,-320 16,-28 16,-28 16,-22 22,-16 28,-16"/>
<text text-anchor="middle" x="371.5" y="-320.8" font-family="Helvetica,sans-Serif" font-weight="bold" font-size="9.00">app</text>
</g>
<g id="clust3" class="cluster">
<title>cluster_src/app/common</title>
<path fill="#ffffff" stroke="black" stroke-width="2" d="M198.5,-186C198.5,-186 351.5,-186 351.5,-186 357.5,-186 363.5,-192 363.5,-198 363.5,-198 363.5,-294 363.5,-294 363.5,-300 357.5,-306 351.5,-306 351.5,-306 198.5,-306 198.5,-306 192.5,-306 186.5,-300 186.5,-294 186.5,-294 186.5,-198 186.5,-198 186.5,-192 192.5,-186 198.5,-186"/>
<text text-anchor="middle" x="275" y="-294.8" font-family="Helvetica,sans-Serif" font-weight="bold" font-size="9.00">common</text>
</g>
<g id="clust4" class="cluster">
<title>cluster_src/app/common/form</title>
<path fill="#ffffff" stroke="black" stroke-width="2" d="M206.5,-194C206.5,-194 343.5,-194 343.5,-194 349.5,-194 355.5,-200 355.5,-206 355.5,-206 355.5,-268 355.5,-268 355.5,-274 349.5,-280 343.5,-280 343.5,-280 206.5,-280 206.5,-280 200.5,-280 194.5,-274 194.5,-268 194.5,-268 194.5,-206 194.5,-206 194.5,-200 200.5,-194 206.5,-194"/>
<text text-anchor="middle" x="275" y="-268.8" font-family="Helvetica,sans-Serif" font-weight="bold" font-size="9.00">form</text>
</g>
<g id="clust5" class="cluster">
<title>cluster_src/app/common/form/issue&#45;form</title>
<path fill="#ffffff" stroke="black" stroke-width="2" d="M214.5,-202C214.5,-202 335.5,-202 335.5,-202 341.5,-202 347.5,-208 347.5,-214 347.5,-214 347.5,-242 347.5,-242 347.5,-248 341.5,-254 335.5,-254 335.5,-254 214.5,-254 214.5,-254 208.5,-254 202.5,-248 202.5,-242 202.5,-242 202.5,-214 202.5,-214 202.5,-208 208.5,-202 214.5,-202"/>
<text text-anchor="middle" x="275" y="-242.8" font-family="Helvetica,sans-Serif" font-weight="bold" font-size="9.00">issue&#45;form</text>
</g>
<g id="clust6" class="cluster">
<title>cluster_src/app/main</title>
<path fill="#ffffff" stroke="black" stroke-width="2" d="M36,-24C36,-24 381,-24 381,-24 387,-24 393,-30 393,-36 393,-36 393,-166 393,-166 393,-172 387,-178 381,-178 381,-178 36,-178 36,-178 30,-178 24,-172 24,-166 24,-166 24,-36 24,-36 24,-30 30,-24 36,-24"/>
<text text-anchor="middle" x="208.5" y="-166.8" font-family="Helvetica,sans-Serif" font-weight="bold" font-size="9.00">main</text>
</g>
<g id="clust7" class="cluster">
<title>cluster_src/app/main/manage</title>
<path fill="#ffffff" stroke="black" stroke-width="2" d="M44,-32C44,-32 373,-32 373,-32 379,-32 385,-38 385,-44 385,-44 385,-140 385,-140 385,-146 379,-152 373,-152 373,-152 44,-152 44,-152 38,-152 32,-146 32,-140 32,-140 32,-44 32,-44 32,-38 38,-32 44,-32"/>
<text text-anchor="middle" x="208.5" y="-140.8" font-family="Helvetica,sans-Serif" font-weight="bold" font-size="9.00">manage</text>
</g>
<g id="clust8" class="cluster">
<title>cluster_src/app/main/manage/members</title>
<path fill="#ffffff" stroke="black" stroke-width="2" d="M52,-40C52,-40 365,-40 365,-40 371,-40 377,-46 377,-52 377,-52 377,-114 377,-114 377,-120 371,-126 365,-126 365,-126 52,-126 52,-126 46,-126 40,-120 40,-114 40,-114 40,-52 40,-52 40,-46 46,-40 52,-40"/>
<text text-anchor="middle" x="208.5" y="-114.8" font-family="Helvetica,sans-Serif" font-weight="bold" font-size="9.00">members</text>
</g>
<g id="clust9" class="cluster">
<title>cluster_src/app/main/manage/members/project&#45;invite&#45;dialog</title>
<path fill="#ffffff" stroke="black" stroke-width="2" d="M193,-48C193,-48 357,-48 357,-48 363,-48 369,-54 369,-60 369,-60 369,-88 369,-88 369,-94 363,-100 357,-100 357,-100 193,-100 193,-100 187,-100 181,-94 181,-88 181,-88 181,-60 181,-60 181,-54 187,-48 193,-48"/>
<text text-anchor="middle" x="275" y="-88.8" font-family="Helvetica,sans-Serif" font-weight="bold" font-size="9.00">project&#45;invite&#45;dialog</text>
</g>
<g id="clust10" class="cluster">
<title>cluster_src/app/shared</title>
<path fill="#ffffff" stroke="black" stroke-width="2" d="M413,-148C413,-148 707,-148 707,-148 713,-148 719,-154 719,-160 719,-160 719,-256 719,-256 719,-262 713,-268 707,-268 707,-268 413,-268 413,-268 407,-268 401,-262 401,-256 401,-256 401,-160 401,-160 401,-154 407,-148 413,-148"/>
<text text-anchor="middle" x="560" y="-256.8" font-family="Helvetica,sans-Serif" font-weight="bold" font-size="9.00">shared</text>
</g>
<g id="clust11" class="cluster">
<title>cluster_src/app/shared/services</title>
<path fill="#ffffff" stroke="black" stroke-width="2" d="M421,-156C421,-156 563,-156 563,-156 569,-156 575,-162 575,-168 575,-168 575,-230 575,-230 575,-236 569,-242 563,-242 563,-242 421,-242 421,-242 415,-242 409,-236 409,-230 409,-230 409,-168 409,-168 409,-162 415,-156 421,-156"/>
<text text-anchor="middle" x="492" y="-230.8" font-family="Helvetica,sans-Serif" font-weight="bold" font-size="9.00">services</text>
</g>
<g id="clust12" class="cluster">
<title>cluster_src/app/shared/services/project&#45;member</title>
<path fill="#ffffff" stroke="black" stroke-width="2" d="M429,-164C429,-164 555,-164 555,-164 561,-164 567,-170 567,-176 567,-176 567,-204 567,-204 567,-210 561,-216 555,-216 555,-216 429,-216 429,-216 423,-216 417,-210 417,-204 417,-204 417,-176 417,-176 417,-170 423,-164 429,-164"/>
<text text-anchor="middle" x="492" y="-204.8" font-family="Helvetica,sans-Serif" font-weight="bold" font-size="9.00">project&#45;member</text>
</g>
<g id="clust13" class="cluster">
<title>cluster_src/app/shared/utils</title>
<path fill="#ffffff" stroke="black" stroke-width="2" d="M595,-156C595,-156 699,-156 699,-156 705,-156 711,-162 711,-168 711,-168 711,-230 711,-230 711,-236 705,-242 699,-242 699,-242 595,-242 595,-242 589,-242 583,-236 583,-230 583,-230 583,-168 583,-168 583,-162 589,-156 595,-156"/>
<text text-anchor="middle" x="647" y="-230.8" font-family="Helvetica,sans-Serif" font-weight="bold" font-size="9.00">utils</text>
</g>
<g id="clust14" class="cluster">
<title>cluster_src/app/shared/utils/paramsHandler</title>
<path fill="#ffffff" stroke="black" stroke-width="2" d="M603,-164C603,-164 691,-164 691,-164 697,-164 703,-170 703,-176 703,-176 703,-204 703,-204 703,-210 697,-216 691,-216 691,-216 603,-216 603,-216 597,-216 591,-210 591,-204 591,-204 591,-176 591,-176 591,-170 597,-164 603,-164"/>
<text text-anchor="middle" x="647" y="-204.8" font-family="Helvetica,sans-Serif" font-weight="bold" font-size="9.00">paramsHandler</text>
</g>
<g id="clust15" class="cluster">
<title>cluster_src/environments</title>
<path fill="#ffffff" stroke="black" stroke-width="2" d="M608,-340C608,-340 686,-340 686,-340 692,-340 698,-346 698,-352 698,-352 698,-380 698,-380 698,-386 692,-392 686,-392 686,-392 608,-392 608,-392 602,-392 596,-386 596,-380 596,-380 596,-352 596,-352 596,-346 602,-340 608,-340"/>
<text text-anchor="middle" x="647" y="-380.8" font-family="Helvetica,sans-Serif" font-weight="bold" font-size="9.00">environments</text>
</g>
<!-- src/app/common/form/issue&#45;form/issue&#45;form.component.ts -->
<g id="node1" class="node">
<title>src/app/common/form/issue&#45;form/issue&#45;form.component.ts</title>
<g id="a_node1"><a xlink:href="src/app/common/form/issue-form/issue-form.component.ts" xlink:title="issue&#45;form.component.ts">
<path fill="#ddfeff" stroke="black" d="M333.5,-228C333.5,-228 216.5,-228 216.5,-228 213.5,-228 210.5,-225 210.5,-222 210.5,-222 210.5,-216 210.5,-216 210.5,-213 213.5,-210 216.5,-210 216.5,-210 333.5,-210 333.5,-210 336.5,-210 339.5,-213 339.5,-216 339.5,-216 339.5,-222 339.5,-222 339.5,-225 336.5,-228 333.5,-228"/>
<text text-anchor="start" x="218.5" y="-216.8" font-family="Helvetica,sans-Serif" font-size="9.00">issue&#45;form.component.ts</text>
</a>
</g>
</g>
<!-- src/app/shared/services/project&#45;member/project&#45;member.service.ts -->
<g id="node2" class="node">
<title>src/app/shared/services/project&#45;member/project&#45;member.service.ts</title>
<g id="a_node2"><a xlink:href="src/app/shared/services/project-member/project-member.service.ts" xlink:title="project&#45;member.service.ts">
<path fill="#ddfeff" stroke="black" d="M553,-190C553,-190 431,-190 431,-190 428,-190 425,-187 425,-184 425,-184 425,-178 425,-178 425,-175 428,-172 431,-172 431,-172 553,-172 553,-172 556,-172 559,-175 559,-178 559,-178 559,-184 559,-184 559,-187 556,-190 553,-190"/>
<text text-anchor="start" x="433" y="-178.8" font-family="Helvetica,sans-Serif" font-size="9.00">project&#45;member.service.ts</text>
</a>
</g>
</g>
<!-- src/app/common/form/issue&#45;form/issue&#45;form.component.ts&#45;&gt;src/app/shared/services/project&#45;member/project&#45;member.service.ts -->
<g id="edge1" class="edge">
<title>src/app/common/form/issue&#45;form/issue&#45;form.component.ts&#45;&gt;src/app/shared/services/project&#45;member/project&#45;member.service.ts</title>
<path fill="none" stroke="#000000" stroke-width="2" stroke-opacity="0.200000" d="M326.95,-209.99C359.1,-204.31 400.68,-196.96 433.93,-191.09"/>
<polygon fill="#000000" fill-opacity="0.200000" stroke="#000000" stroke-width="2" stroke-opacity="0.200000" points="434.5,-193.12 440.04,-190.01 433.77,-188.98 434.5,-193.12"/>
</g>
<!-- src/environments/environment.ts -->
<g id="node5" class="node">
<title>src/environments/environment.ts</title>
<g id="a_node5"><a xlink:href="src/environments/environment.ts" xlink:title="environment.ts">
<path fill="#ddfeff" stroke="black" d="M684,-366C684,-366 610,-366 610,-366 607,-366 604,-363 604,-360 604,-360 604,-354 604,-354 604,-351 607,-348 610,-348 610,-348 684,-348 684,-348 687,-348 690,-351 690,-354 690,-354 690,-360 690,-360 690,-363 687,-366 684,-366"/>
<text text-anchor="start" x="612" y="-354.8" font-family="Helvetica,sans-Serif" font-size="9.00">environment.ts</text>
</a>
</g>
</g>
<!-- src/app/shared/services/project&#45;member/project&#45;member.service.ts&#45;&gt;src/environments/environment.ts -->
<g id="edge5" class="edge">
<title>src/app/shared/services/project&#45;member/project&#45;member.service.ts&#45;&gt;src/environments/environment.ts</title>
<path fill="none" stroke="#000000" stroke-width="2" stroke-opacity="0.200000" d="M501.23,-190.46C526.66,-219.73 604.14,-308.85 634.05,-343.25"/>
<polygon fill="#000000" fill-opacity="0.200000" stroke="#000000" stroke-width="2" stroke-opacity="0.200000" points="632.58,-344.77 638.1,-347.92 635.75,-342.01 632.58,-344.77"/>
</g>
<!-- src/app/shared/utils/paramsHandler/paramsHandler.ts -->
<g id="node6" class="node">
<title>src/app/shared/utils/paramsHandler/paramsHandler.ts</title>
<g id="a_node6"><a xlink:href="src/app/shared/utils/paramsHandler/paramsHandler.ts" xlink:title="paramsHandler.ts">
<path fill="#ddfeff" stroke="black" d="M689,-190C689,-190 605,-190 605,-190 602,-190 599,-187 599,-184 599,-184 599,-178 599,-178 599,-175 602,-172 605,-172 605,-172 689,-172 689,-172 692,-172 695,-175 695,-178 695,-178 695,-184 695,-184 695,-187 692,-190 689,-190"/>
<text text-anchor="start" x="607" y="-178.8" font-family="Helvetica,sans-Serif" font-size="9.00">paramsHandler.ts</text>
</a>
</g>
</g>
<!-- src/app/shared/services/project&#45;member/project&#45;member.service.ts&#45;&gt;src/app/shared/utils/paramsHandler/paramsHandler.ts -->
<g id="edge6" class="edge">
<title>src/app/shared/services/project&#45;member/project&#45;member.service.ts&#45;&gt;src/app/shared/utils/paramsHandler/paramsHandler.ts</title>
<path fill="none" stroke="#000000" stroke-width="2" stroke-opacity="0.200000" d="M559.22,-181C570.29,-181 581.65,-181 592.36,-181"/>
<polygon fill="#000000" fill-opacity="0.200000" stroke="#000000" stroke-width="2" stroke-opacity="0.200000" points="592.58,-183.1 598.58,-181 592.58,-178.9 592.58,-183.1"/>
</g>
<!-- src/app/main/manage/members/members.component.ts -->
<g id="node3" class="node">
<title>src/app/main/manage/members/members.component.ts</title>
<g id="a_node3"><a xlink:href="src/app/main/manage/members/members.component.ts" xlink:title="members.component.ts">
<path fill="#ddfeff" stroke="black" d="M167,-87C167,-87 54,-87 54,-87 51,-87 48,-84 48,-81 48,-81 48,-75 48,-75 48,-72 51,-69 54,-69 54,-69 167,-69 167,-69 170,-69 173,-72 173,-75 173,-75 173,-81 173,-81 173,-84 170,-87 167,-87"/>
<text text-anchor="start" x="56" y="-75.8" font-family="Helvetica,sans-Serif" font-size="9.00">members.component.ts</text>
</a>
</g>
</g>
<!-- src/app/main/manage/members/members.component.ts&#45;&gt;src/app/shared/services/project&#45;member/project&#45;member.service.ts -->
<g id="edge2" class="edge">
<title>src/app/main/manage/members/members.component.ts&#45;&gt;src/app/shared/services/project&#45;member/project&#45;member.service.ts</title>
<path fill="none" stroke="#000000" stroke-width="2" stroke-opacity="0.200000" d="M134.79,-87.03C148.2,-92.06 165.42,-98.25 181,-103 272.87,-131.01 382.19,-156.79 443.39,-170.56"/>
<polygon fill="#000000" fill-opacity="0.200000" stroke="#000000" stroke-width="2" stroke-opacity="0.200000" points="443.21,-172.67 449.52,-171.94 444.13,-168.57 443.21,-172.67"/>
</g>
<!-- src/app/main/manage/members/project&#45;invite&#45;dialog/project&#45;invite&#45;dialog.component.ts -->
<g id="node4" class="node">
<title>src/app/main/manage/members/project&#45;invite&#45;dialog/project&#45;invite&#45;dialog.component.ts</title>
<g id="a_node4"><a xlink:href="src/app/main/manage/members/project-invite-dialog/project-invite-dialog.component.ts" xlink:title="project&#45;invite&#45;dialog.component.ts">
<path fill="#ddfeff" stroke="black" d="M355,-74C355,-74 195,-74 195,-74 192,-74 189,-71 189,-68 189,-68 189,-62 189,-62 189,-59 192,-56 195,-56 195,-56 355,-56 355,-56 358,-56 361,-59 361,-62 361,-62 361,-68 361,-68 361,-71 358,-74 355,-74"/>
<text text-anchor="start" x="197" y="-62.8" font-family="Helvetica,sans-Serif" font-size="9.00">project&#45;invite&#45;dialog.component.ts</text>
</a>
</g>
</g>
<!-- src/app/main/manage/members/members.component.ts&#45;&gt;src/app/main/manage/members/project&#45;invite&#45;dialog/project&#45;invite&#45;dialog.component.ts -->
<g id="edge3" class="edge">
<title>src/app/main/manage/members/members.component.ts&#45;&gt;src/app/main/manage/members/project&#45;invite&#45;dialog/project&#45;invite&#45;dialog.component.ts</title>
<path fill="none" stroke="#000000" stroke-width="2" stroke-opacity="0.200000" d="M173.4,-73.05C176.43,-72.81 179.51,-72.56 182.6,-72.31"/>
<polygon fill="#000000" fill-opacity="0.200000" stroke="#000000" stroke-width="2" stroke-opacity="0.200000" points="183.16,-74.37 188.97,-71.8 182.82,-70.19 183.16,-74.37"/>
</g>
<!-- src/app/main/manage/members/project&#45;invite&#45;dialog/project&#45;invite&#45;dialog.component.ts&#45;&gt;src/app/shared/services/project&#45;member/project&#45;member.service.ts -->
<g id="edge4" class="edge">
<title>src/app/main/manage/members/project&#45;invite&#45;dialog/project&#45;invite&#45;dialog.component.ts&#45;&gt;src/app/shared/services/project&#45;member/project&#45;member.service.ts</title>
<path fill="none" stroke="#000000" stroke-width="2" stroke-opacity="0.200000" d="M292.87,-74.1C331.33,-94.86 425.53,-145.67 468.71,-168.97"/>
<polygon fill="#000000" fill-opacity="0.200000" stroke="#000000" stroke-width="2" stroke-opacity="0.200000" points="467.93,-170.94 474.21,-171.94 469.92,-167.24 467.93,-170.94"/>
</g>
</g>
</svg>
