<?xml version="1.0" encoding="UTF-8" standalone="no"?>
<!DOCTYPE svg PUBLIC "-//W3C//DTD SVG 1.1//EN"
 "http://www.w3.org/Graphics/SVG/1.1/DTD/svg11.dtd">
<!-- Generated by graphviz version 2.43.0 (0)
 -->
<!-- Title: dependency&#45;cruiser output Pages: 1 -->
<svg width="445pt" height="212pt"
 viewBox="0.00 0.00 445.00 212.00" xmlns="http://www.w3.org/2000/svg" xmlns:xlink="http://www.w3.org/1999/xlink">
<g id="graph0" class="graph" transform="scale(1 1) rotate(0) translate(4 208)">
<title>dependency&#45;cruiser output</title>
<polygon fill="white" stroke="transparent" points="-4,4 -4,-208 441,-208 441,4 -4,4"/>
<g id="clust1" class="cluster">
<title>cluster_src</title>
<path fill="#ffffff" stroke="black" stroke-width="2" d="M20,-8C20,-8 417,-8 417,-8 423,-8 429,-14 429,-20 429,-20 429,-184 429,-184 429,-190 423,-196 417,-196 417,-196 20,-196 20,-196 14,-196 8,-190 8,-184 8,-184 8,-20 8,-20 8,-14 14,-8 20,-8"/>
<text text-anchor="middle" x="218.5" y="-184.8" font-family="Helvetica,sans-Serif" font-weight="bold" font-size="9.00">src</text>
</g>
<g id="clust2" class="cluster">
<title>cluster_src/app</title>
<path fill="#ffffff" stroke="black" stroke-width="2" d="M28,-16C28,-16 409,-16 409,-16 415,-16 421,-22 421,-28 421,-28 421,-158 421,-158 421,-164 415,-170 409,-170 409,-170 28,-170 28,-170 22,-170 16,-164 16,-158 16,-158 16,-28 16,-28 16,-22 22,-16 28,-16"/>
<text text-anchor="middle" x="218.5" y="-158.8" font-family="Helvetica,sans-Serif" font-weight="bold" font-size="9.00">app</text>
</g>
<g id="clust3" class="cluster">
<title>cluster_src/app/layouts</title>
<path fill="#ffffff" stroke="black" stroke-width="2" d="M121,-32C121,-32 262,-32 262,-32 268,-32 274,-38 274,-44 274,-44 274,-106 274,-106 274,-112 268,-118 262,-118 262,-118 121,-118 121,-118 115,-118 109,-112 109,-106 109,-106 109,-44 109,-44 109,-38 115,-32 121,-32"/>
<text text-anchor="middle" x="191.5" y="-106.8" font-family="Helvetica,sans-Serif" font-weight="bold" font-size="9.00">layouts</text>
</g>
<g id="clust4" class="cluster">
<title>cluster_src/app/layouts/tabs&#45;layout</title>
<path fill="#ffffff" stroke="black" stroke-width="2" d="M129,-40C129,-40 254,-40 254,-40 260,-40 266,-46 266,-52 266,-52 266,-80 266,-80 266,-86 260,-92 254,-92 254,-92 129,-92 129,-92 123,-92 117,-86 117,-80 117,-80 117,-52 117,-52 117,-46 123,-40 129,-40"/>
<text text-anchor="middle" x="191.5" y="-80.8" font-family="Helvetica,sans-Serif" font-weight="bold" font-size="9.00">tabs&#45;layout</text>
</g>
<g id="clust5" class="cluster">
<title>cluster_src/app/shared</title>
<path fill="#ffffff" stroke="black" stroke-width="2" d="M294,-24C294,-24 401,-24 401,-24 407,-24 413,-30 413,-36 413,-36 413,-132 413,-132 413,-138 407,-144 401,-144 401,-144 294,-144 294,-144 288,-144 282,-138 282,-132 282,-132 282,-36 282,-36 282,-30 288,-24 294,-24"/>
<text text-anchor="middle" x="347.5" y="-132.8" font-family="Helvetica,sans-Serif" font-weight="bold" font-size="9.00">shared</text>
</g>
<g id="clust6" class="cluster">
<title>cluster_src/app/shared/services</title>
<path fill="#ffffff" stroke="black" stroke-width="2" d="M302,-32C302,-32 393,-32 393,-32 399,-32 405,-38 405,-44 405,-44 405,-106 405,-106 405,-112 399,-118 393,-118 393,-118 302,-118 302,-118 296,-118 290,-112 290,-106 290,-106 290,-44 290,-44 290,-38 296,-32 302,-32"/>
<text text-anchor="middle" x="347.5" y="-106.8" font-family="Helvetica,sans-Serif" font-weight="bold" font-size="9.00">services</text>
</g>
<g id="clust7" class="cluster">
<title>cluster_src/app/shared/services/auth</title>
<path fill="#ffffff" stroke="black" stroke-width="2" d="M310,-40C310,-40 385,-40 385,-40 391,-40 397,-46 397,-52 397,-52 397,-80 397,-80 397,-86 391,-92 385,-92 385,-92 310,-92 310,-92 304,-92 298,-86 298,-80 298,-80 298,-52 298,-52 298,-46 304,-40 310,-40"/>
<text text-anchor="middle" x="347.5" y="-80.8" font-family="Helvetica,sans-Serif" font-weight="bold" font-size="9.00">auth</text>
</g>
<!-- src/app/app.routes.ts -->
<g id="node1" class="node">
<title>src/app/app.routes.ts</title>
<g id="a_node1"><a xlink:href="src/app/app.routes.ts" xlink:title="app.routes.ts">
<path fill="#ddfeff" stroke="black" d="M95,-66C95,-66 30,-66 30,-66 27,-66 24,-63 24,-60 24,-60 24,-54 24,-54 24,-51 27,-48 30,-48 30,-48 95,-48 95,-48 98,-48 101,-51 101,-54 101,-54 101,-60 101,-60 101,-63 98,-66 95,-66"/>
<text text-anchor="start" x="32" y="-54.8" font-family="Helvetica,sans-Serif" font-size="9.00">app.routes.ts</text>
</a>
</g>
</g>
<!-- src/app/layouts/tabs&#45;layout/tabs&#45;layout.component.ts -->
<g id="node2" class="node">
<title>src/app/layouts/tabs&#45;layout/tabs&#45;layout.component.ts</title>
<g id="a_node2"><a xlink:href="src/app/layouts/tabs-layout/tabs-layout.component.ts" xlink:title="tabs&#45;layout.component.ts">
<path fill="#ddfeff" stroke="black" d="M252,-66C252,-66 131,-66 131,-66 128,-66 125,-63 125,-60 125,-60 125,-54 125,-54 125,-51 128,-48 131,-48 131,-48 252,-48 252,-48 255,-48 258,-51 258,-54 258,-54 258,-60 258,-60 258,-63 255,-66 252,-66"/>
<text text-anchor="start" x="133" y="-54.8" font-family="Helvetica,sans-Serif" font-size="9.00">tabs&#45;layout.component.ts</text>
</a>
</g>
</g>
<!-- src/app/app.routes.ts&#45;&gt;src/app/layouts/tabs&#45;layout/tabs&#45;layout.component.ts -->
<g id="edge1" class="edge">
<title>src/app/app.routes.ts&#45;&gt;src/app/layouts/tabs&#45;layout/tabs&#45;layout.component.ts</title>
<path fill="none" stroke="#000000" stroke-width="2" stroke-dasharray="5,2" stroke-opacity="0.200000" d="M101.26,-57C106.85,-57 112.77,-57 118.78,-57"/>
<polygon fill="#000000" fill-opacity="0.200000" stroke="#000000" stroke-width="2" stroke-opacity="0.200000" points="118.82,-59.1 124.82,-57 118.82,-54.9 118.82,-59.1"/>
</g>
<!-- src/app/shared/services/auth/auth.service.ts -->
<g id="node3" class="node">
<title>src/app/shared/services/auth/auth.service.ts</title>
<g id="a_node3"><a xlink:href="src/app/shared/services/auth/auth.service.ts" xlink:title="auth.service.ts">
<path fill="#ddfeff" stroke="black" d="M383,-66C383,-66 312,-66 312,-66 309,-66 306,-63 306,-60 306,-60 306,-54 306,-54 306,-51 309,-48 312,-48 312,-48 383,-48 383,-48 386,-48 389,-51 389,-54 389,-54 389,-60 389,-60 389,-63 386,-66 383,-66"/>
<text text-anchor="start" x="314" y="-54.8" font-family="Helvetica,sans-Serif" font-size="9.00">auth.service.ts</text>
</a>
</g>
</g>
<!-- src/app/layouts/tabs&#45;layout/tabs&#45;layout.component.ts&#45;&gt;src/app/shared/services/auth/auth.service.ts -->
<g id="edge2" class="edge">
<title>src/app/layouts/tabs&#45;layout/tabs&#45;layout.component.ts&#45;&gt;src/app/shared/services/auth/auth.service.ts</title>
<path fill="none" stroke="#000000" stroke-width="2" stroke-opacity="0.200000" d="M258.26,-57C272.17,-57 286.58,-57 299.62,-57"/>
<polygon fill="#000000" fill-opacity="0.200000" stroke="#000000" stroke-width="2" stroke-opacity="0.200000" points="299.9,-59.1 305.9,-57 299.9,-54.9 299.9,-59.1"/>
</g>
</g>
</svg>
