<?xml version="1.0" encoding="UTF-8" standalone="no"?>
<!DOCTYPE svg PUBLIC "-//W3C//DTD SVG 1.1//EN"
 "http://www.w3.org/Graphics/SVG/1.1/DTD/svg11.dtd">
<!-- Generated by graphviz version 2.43.0 (0)
 -->
<!-- Title: dependency&#45;cruiser output Pages: 1 -->
<svg width="496pt" height="426pt"
 viewBox="0.00 0.00 496.00 426.00" xmlns="http://www.w3.org/2000/svg" xmlns:xlink="http://www.w3.org/1999/xlink">
<g id="graph0" class="graph" transform="scale(1 1) rotate(0) translate(4 422)">
<title>dependency&#45;cruiser output</title>
<polygon fill="white" stroke="transparent" points="-4,4 -4,-422 492,-422 492,4 -4,4"/>
<g id="clust1" class="cluster">
<title>cluster_src</title>
<path fill="#ffffff" stroke="black" stroke-width="2" d="M20,-8C20,-8 468,-8 468,-8 474,-8 480,-14 480,-20 480,-20 480,-398 480,-398 480,-404 474,-410 468,-410 468,-410 20,-410 20,-410 14,-410 8,-404 8,-398 8,-398 8,-20 8,-20 8,-14 14,-8 20,-8"/>
<text text-anchor="middle" x="244" y="-398.8" font-family="Helvetica,sans-Serif" font-weight="bold" font-size="9.00">src</text>
</g>
<g id="clust2" class="cluster">
<title>cluster_src/app</title>
<path fill="#ffffff" stroke="black" stroke-width="2" d="M28,-16C28,-16 460,-16 460,-16 466,-16 472,-22 472,-28 472,-28 472,-372 472,-372 472,-378 466,-384 460,-384 460,-384 28,-384 28,-384 22,-384 16,-378 16,-372 16,-372 16,-28 16,-28 16,-22 22,-16 28,-16"/>
<text text-anchor="middle" x="244" y="-372.8" font-family="Helvetica,sans-Serif" font-weight="bold" font-size="9.00">app</text>
</g>
<g id="clust3" class="cluster">
<title>cluster_src/app/auth</title>
<path fill="#ffffff" stroke="black" stroke-width="2" d="M121,-156C121,-156 233,-156 233,-156 239,-156 245,-162 245,-168 245,-168 245,-230 245,-230 245,-236 239,-242 233,-242 233,-242 121,-242 121,-242 115,-242 109,-236 109,-230 109,-230 109,-168 109,-168 109,-162 115,-156 121,-156"/>
<text text-anchor="middle" x="177" y="-230.8" font-family="Helvetica,sans-Serif" font-weight="bold" font-size="9.00">auth</text>
</g>
<g id="clust4" class="cluster">
<title>cluster_src/app/auth/login</title>
<path fill="#ffffff" stroke="black" stroke-width="2" d="M129,-164C129,-164 225,-164 225,-164 231,-164 237,-170 237,-176 237,-176 237,-204 237,-204 237,-210 231,-216 225,-216 225,-216 129,-216 129,-216 123,-216 117,-210 117,-204 117,-204 117,-176 117,-176 117,-170 123,-164 129,-164"/>
<text text-anchor="middle" x="177" y="-204.8" font-family="Helvetica,sans-Serif" font-weight="bold" font-size="9.00">login</text>
</g>
<g id="clust5" class="cluster">
<title>cluster_src/app/shared</title>
<path fill="#ffffff" stroke="black" stroke-width="2" d="M265,-24C265,-24 452,-24 452,-24 458,-24 464,-30 464,-36 464,-36 464,-346 464,-346 464,-352 458,-358 452,-358 452,-358 265,-358 265,-358 259,-358 253,-352 253,-346 253,-346 253,-36 253,-36 253,-30 259,-24 265,-24"/>
<text text-anchor="middle" x="358.5" y="-346.8" font-family="Helvetica,sans-Serif" font-weight="bold" font-size="9.00">shared</text>
</g>
<g id="clust6" class="cluster">
<title>cluster_src/app/shared/services</title>
<path fill="#ffffff" stroke="black" stroke-width="2" d="M273,-126C273,-126 444,-126 444,-126 450,-126 456,-132 456,-138 456,-138 456,-320 456,-320 456,-326 450,-332 444,-332 444,-332 273,-332 273,-332 267,-332 261,-326 261,-320 261,-320 261,-138 261,-138 261,-132 267,-126 273,-126"/>
<text text-anchor="middle" x="358.5" y="-320.8" font-family="Helvetica,sans-Serif" font-weight="bold" font-size="9.00">services</text>
</g>
<g id="clust7" class="cluster">
<title>cluster_src/app/shared/services/auth</title>
<path fill="#ffffff" stroke="black" stroke-width="2" d="M321,-254C321,-254 396,-254 396,-254 402,-254 408,-260 408,-266 408,-266 408,-294 408,-294 408,-300 402,-306 396,-306 396,-306 321,-306 321,-306 315,-306 309,-300 309,-294 309,-294 309,-266 309,-266 309,-260 315,-254 321,-254"/>
<text text-anchor="middle" x="358.5" y="-294.8" font-family="Helvetica,sans-Serif" font-weight="bold" font-size="9.00">auth</text>
</g>
<g id="clust8" class="cluster">
<title>cluster_src/app/shared/services/organization&#45;invitation</title>
<path fill="#ffffff" stroke="black" stroke-width="2" d="M281,-194C281,-194 436,-194 436,-194 442,-194 448,-200 448,-206 448,-206 448,-234 448,-234 448,-240 442,-246 436,-246 436,-246 281,-246 281,-246 275,-246 269,-240 269,-234 269,-234 269,-206 269,-206 269,-200 275,-194 281,-194"/>
<text text-anchor="middle" x="358.5" y="-234.8" font-family="Helvetica,sans-Serif" font-weight="bold" font-size="9.00">organization&#45;invitation</text>
</g>
<g id="clust9" class="cluster">
<title>cluster_src/app/shared/services/snackbar</title>
<path fill="#ffffff" stroke="black" stroke-width="2" d="M311,-134C311,-134 406,-134 406,-134 412,-134 418,-140 418,-146 418,-146 418,-174 418,-174 418,-180 412,-186 406,-186 406,-186 311,-186 311,-186 305,-186 299,-180 299,-174 299,-174 299,-146 299,-146 299,-140 305,-134 311,-134"/>
<text text-anchor="middle" x="358.5" y="-174.8" font-family="Helvetica,sans-Serif" font-weight="bold" font-size="9.00">snackbar</text>
</g>
<g id="clust10" class="cluster">
<title>cluster_src/app/shared/utils</title>
<path fill="#ffffff" stroke="black" stroke-width="2" d="M301.5,-32C301.5,-32 415.5,-32 415.5,-32 421.5,-32 427.5,-38 427.5,-44 427.5,-44 427.5,-106 427.5,-106 427.5,-112 421.5,-118 415.5,-118 415.5,-118 301.5,-118 301.5,-118 295.5,-118 289.5,-112 289.5,-106 289.5,-106 289.5,-44 289.5,-44 289.5,-38 295.5,-32 301.5,-32"/>
<text text-anchor="middle" x="358.5" y="-106.8" font-family="Helvetica,sans-Serif" font-weight="bold" font-size="9.00">utils</text>
</g>
<g id="clust11" class="cluster">
<title>cluster_src/app/shared/utils/formErrorHandler</title>
<path fill="#ffffff" stroke="black" stroke-width="2" d="M309.5,-40C309.5,-40 407.5,-40 407.5,-40 413.5,-40 419.5,-46 419.5,-52 419.5,-52 419.5,-80 419.5,-80 419.5,-86 413.5,-92 407.5,-92 407.5,-92 309.5,-92 309.5,-92 303.5,-92 297.5,-86 297.5,-80 297.5,-80 297.5,-52 297.5,-52 297.5,-46 303.5,-40 309.5,-40"/>
<text text-anchor="middle" x="358.5" y="-80.8" font-family="Helvetica,sans-Serif" font-weight="bold" font-size="9.00">formErrorHandler</text>
</g>
<!-- src/app/app.routes.ts -->
<g id="node1" class="node">
<title>src/app/app.routes.ts</title>
<g id="a_node1"><a xlink:href="src/app/app.routes.ts" xlink:title="app.routes.ts">
<path fill="#ddfeff" stroke="black" d="M95,-190C95,-190 30,-190 30,-190 27,-190 24,-187 24,-184 24,-184 24,-178 24,-178 24,-175 27,-172 30,-172 30,-172 95,-172 95,-172 98,-172 101,-175 101,-178 101,-178 101,-184 101,-184 101,-187 98,-190 95,-190"/>
<text text-anchor="start" x="32" y="-178.8" font-family="Helvetica,sans-Serif" font-size="9.00">app.routes.ts</text>
</a>
</g>
</g>
<!-- src/app/auth/login/login.component.ts -->
<g id="node2" class="node">
<title>src/app/auth/login/login.component.ts</title>
<g id="a_node2"><a xlink:href="src/app/auth/login/login.component.ts" xlink:title="login.component.ts">
<path fill="#ddfeff" stroke="black" d="M223,-190C223,-190 131,-190 131,-190 128,-190 125,-187 125,-184 125,-184 125,-178 125,-178 125,-175 128,-172 131,-172 131,-172 223,-172 223,-172 226,-172 229,-175 229,-178 229,-178 229,-184 229,-184 229,-187 226,-190 223,-190"/>
<text text-anchor="start" x="133" y="-178.8" font-family="Helvetica,sans-Serif" font-size="9.00">login.component.ts</text>
</a>
</g>
</g>
<!-- src/app/app.routes.ts&#45;&gt;src/app/auth/login/login.component.ts -->
<g id="edge1" class="edge">
<title>src/app/app.routes.ts&#45;&gt;src/app/auth/login/login.component.ts</title>
<path fill="none" stroke="#000000" stroke-width="2" stroke-dasharray="5,2" stroke-opacity="0.200000" d="M101.27,-181C106.81,-181 112.61,-181 118.42,-181"/>
<polygon fill="#000000" fill-opacity="0.200000" stroke="#000000" stroke-width="2" stroke-opacity="0.200000" points="118.73,-183.1 124.73,-181 118.73,-178.9 118.73,-183.1"/>
</g>
<!-- src/app/shared/services/auth/auth.service.ts -->
<g id="node3" class="node">
<title>src/app/shared/services/auth/auth.service.ts</title>
<g id="a_node3"><a xlink:href="src/app/shared/services/auth/auth.service.ts" xlink:title="auth.service.ts">
<path fill="#ddfeff" stroke="black" d="M394,-280C394,-280 323,-280 323,-280 320,-280 317,-277 317,-274 317,-274 317,-268 317,-268 317,-265 320,-262 323,-262 323,-262 394,-262 394,-262 397,-262 400,-265 400,-268 400,-268 400,-274 400,-274 400,-277 397,-280 394,-280"/>
<text text-anchor="start" x="325" y="-268.8" font-family="Helvetica,sans-Serif" font-size="9.00">auth.service.ts</text>
</a>
</g>
</g>
<!-- src/app/auth/login/login.component.ts&#45;&gt;src/app/shared/services/auth/auth.service.ts -->
<g id="edge2" class="edge">
<title>src/app/auth/login/login.component.ts&#45;&gt;src/app/shared/services/auth/auth.service.ts</title>
<path fill="none" stroke="#000000" stroke-width="2" stroke-opacity="0.200000" d="M185.23,-190.14C197.48,-204.97 223.88,-234.14 253,-249 270.73,-258.05 291.97,-263.38 310.65,-266.52"/>
<polygon fill="#000000" fill-opacity="0.200000" stroke="#000000" stroke-width="2" stroke-opacity="0.200000" points="310.63,-268.64 316.88,-267.5 311.28,-264.49 310.63,-268.64"/>
</g>
<!-- src/app/shared/services/organization&#45;invitation/organization&#45;invitation.service.ts -->
<g id="node4" class="node">
<title>src/app/shared/services/organization&#45;invitation/organization&#45;invitation.service.ts</title>
<g id="a_node4"><a xlink:href="src/app/shared/services/organization-invitation/organization-invitation.service.ts" xlink:title="organization&#45;invitation.service.ts">
<path fill="#ddfeff" stroke="black" d="M434,-220C434,-220 283,-220 283,-220 280,-220 277,-217 277,-214 277,-214 277,-208 277,-208 277,-205 280,-202 283,-202 283,-202 434,-202 434,-202 437,-202 440,-205 440,-208 440,-208 440,-214 440,-214 440,-217 437,-220 434,-220"/>
<text text-anchor="start" x="285" y="-208.8" font-family="Helvetica,sans-Serif" font-size="9.00">organization&#45;invitation.service.ts</text>
</a>
</g>
</g>
<!-- src/app/auth/login/login.component.ts&#45;&gt;src/app/shared/services/organization&#45;invitation/organization&#45;invitation.service.ts -->
<g id="edge3" class="edge">
<title>src/app/auth/login/login.component.ts&#45;&gt;src/app/shared/services/organization&#45;invitation/organization&#45;invitation.service.ts</title>
<path fill="none" stroke="#000000" stroke-width="2" stroke-opacity="0.200000" d="M229.44,-189.6C250.65,-193.14 275.38,-197.27 297.41,-200.96"/>
<polygon fill="#000000" fill-opacity="0.200000" stroke="#000000" stroke-width="2" stroke-opacity="0.200000" points="297.29,-203.07 303.55,-201.98 297.98,-198.92 297.29,-203.07"/>
</g>
<!-- src/app/shared/services/snackbar/snackbar.service.ts -->
<g id="node5" class="node">
<title>src/app/shared/services/snackbar/snackbar.service.ts</title>
<g id="a_node5"><a xlink:href="src/app/shared/services/snackbar/snackbar.service.ts" xlink:title="snackbar.service.ts">
<path fill="#ddfeff" stroke="black" d="M404,-160C404,-160 313,-160 313,-160 310,-160 307,-157 307,-154 307,-154 307,-148 307,-148 307,-145 310,-142 313,-142 313,-142 404,-142 404,-142 407,-142 410,-145 410,-148 410,-148 410,-154 410,-154 410,-157 407,-160 404,-160"/>
<text text-anchor="start" x="315" y="-148.8" font-family="Helvetica,sans-Serif" font-size="9.00">snackbar.service.ts</text>
</a>
</g>
</g>
<!-- src/app/auth/login/login.component.ts&#45;&gt;src/app/shared/services/snackbar/snackbar.service.ts -->
<g id="edge4" class="edge">
<title>src/app/auth/login/login.component.ts&#45;&gt;src/app/shared/services/snackbar/snackbar.service.ts</title>
<path fill="none" stroke="#000000" stroke-width="2" stroke-opacity="0.200000" d="M229.44,-172.4C251.79,-168.67 278.04,-164.28 300.93,-160.45"/>
<polygon fill="#000000" fill-opacity="0.200000" stroke="#000000" stroke-width="2" stroke-opacity="0.200000" points="301.41,-162.5 306.99,-159.44 300.72,-158.36 301.41,-162.5"/>
</g>
<!-- src/app/shared/utils/formErrorHandler/formErrorHandler.ts -->
<g id="node6" class="node">
<title>src/app/shared/utils/formErrorHandler/formErrorHandler.ts</title>
<g id="a_node6"><a xlink:href="src/app/shared/utils/formErrorHandler/formErrorHandler.ts" xlink:title="formErrorHandler.ts">
<path fill="#ddfeff" stroke="black" d="M405.5,-66C405.5,-66 311.5,-66 311.5,-66 308.5,-66 305.5,-63 305.5,-60 305.5,-60 305.5,-54 305.5,-54 305.5,-51 308.5,-48 311.5,-48 311.5,-48 405.5,-48 405.5,-48 408.5,-48 411.5,-51 411.5,-54 411.5,-54 411.5,-60 411.5,-60 411.5,-63 408.5,-66 405.5,-66"/>
<text text-anchor="start" x="313.5" y="-54.8" font-family="Helvetica,sans-Serif" font-size="9.00">formErrorHandler.ts</text>
</a>
</g>
</g>
<!-- src/app/auth/login/login.component.ts&#45;&gt;src/app/shared/utils/formErrorHandler/formErrorHandler.ts -->
<g id="edge5" class="edge">
<title>src/app/auth/login/login.component.ts&#45;&gt;src/app/shared/utils/formErrorHandler/formErrorHandler.ts</title>
<path fill="none" stroke="#000000" stroke-width="2" stroke-opacity="0.200000" d="M191.2,-171.88C222.84,-150.03 303.06,-94.61 339.27,-69.59"/>
<polygon fill="#000000" fill-opacity="0.200000" stroke="#000000" stroke-width="2" stroke-opacity="0.200000" points="340.54,-71.27 344.28,-66.13 338.15,-67.81 340.54,-71.27"/>
</g>
</g>
</svg>
