<?xml version="1.0" encoding="UTF-8" standalone="no"?>
<!DOCTYPE svg PUBLIC "-//W3C//DTD SVG 1.1//EN"
 "http://www.w3.org/Graphics/SVG/1.1/DTD/svg11.dtd">
<!-- Generated by graphviz version 2.43.0 (0)
 -->
<!-- Title: dependency&#45;cruiser output Pages: 1 -->
<svg width="564pt" height="316pt"
 viewBox="0.00 0.00 564.00 316.00" xmlns="http://www.w3.org/2000/svg" xmlns:xlink="http://www.w3.org/1999/xlink">
<g id="graph0" class="graph" transform="scale(1 1) rotate(0) translate(4 312)">
<title>dependency&#45;cruiser output</title>
<polygon fill="white" stroke="transparent" points="-4,4 -4,-312 560,-312 560,4 -4,4"/>
<g id="clust1" class="cluster">
<title>cluster_src</title>
<path fill="#ffffff" stroke="black" stroke-width="2" d="M20,-8C20,-8 536,-8 536,-8 542,-8 548,-14 548,-20 548,-20 548,-288 548,-288 548,-294 542,-300 536,-300 536,-300 20,-300 20,-300 14,-300 8,-294 8,-288 8,-288 8,-20 8,-20 8,-14 14,-8 20,-8"/>
<text text-anchor="middle" x="278" y="-288.8" font-family="Helvetica,sans-Serif" font-weight="bold" font-size="9.00">src</text>
</g>
<g id="clust2" class="cluster">
<title>cluster_src/app</title>
<path fill="#ffffff" stroke="black" stroke-width="2" d="M28,-16C28,-16 528,-16 528,-16 534,-16 540,-22 540,-28 540,-28 540,-262 540,-262 540,-268 534,-274 528,-274 528,-274 28,-274 28,-274 22,-274 16,-268 16,-262 16,-262 16,-28 16,-28 16,-22 22,-16 28,-16"/>
<text text-anchor="middle" x="278" y="-262.8" font-family="Helvetica,sans-Serif" font-weight="bold" font-size="9.00">app</text>
</g>
<g id="clust3" class="cluster">
<title>cluster_src/app/common</title>
<path fill="#ffffff" stroke="black" stroke-width="2" d="M231.5,-152C231.5,-152 352.5,-152 352.5,-152 358.5,-152 364.5,-158 364.5,-164 364.5,-164 364.5,-226 364.5,-226 364.5,-232 358.5,-238 352.5,-238 352.5,-238 231.5,-238 231.5,-238 225.5,-238 219.5,-232 219.5,-226 219.5,-226 219.5,-164 219.5,-164 219.5,-158 225.5,-152 231.5,-152"/>
<text text-anchor="middle" x="292" y="-226.8" font-family="Helvetica,sans-Serif" font-weight="bold" font-size="9.00">common</text>
</g>
<g id="clust4" class="cluster">
<title>cluster_src/app/common/navbar</title>
<path fill="#ffffff" stroke="black" stroke-width="2" d="M239.5,-160C239.5,-160 344.5,-160 344.5,-160 350.5,-160 356.5,-166 356.5,-172 356.5,-172 356.5,-200 356.5,-200 356.5,-206 350.5,-212 344.5,-212 344.5,-212 239.5,-212 239.5,-212 233.5,-212 227.5,-206 227.5,-200 227.5,-200 227.5,-172 227.5,-172 227.5,-166 233.5,-160 239.5,-160"/>
<text text-anchor="middle" x="292" y="-200.8" font-family="Helvetica,sans-Serif" font-weight="bold" font-size="9.00">navbar</text>
</g>
<g id="clust5" class="cluster">
<title>cluster_src/app/layouts</title>
<path fill="#ffffff" stroke="black" stroke-width="2" d="M36,-157C36,-157 180,-157 180,-157 186,-157 192,-163 192,-169 192,-169 192,-231 192,-231 192,-237 186,-243 180,-243 180,-243 36,-243 36,-243 30,-243 24,-237 24,-231 24,-231 24,-169 24,-169 24,-163 30,-157 36,-157"/>
<text text-anchor="middle" x="108" y="-231.8" font-family="Helvetica,sans-Serif" font-weight="bold" font-size="9.00">layouts</text>
</g>
<g id="clust6" class="cluster">
<title>cluster_src/app/layouts/main&#45;layout</title>
<path fill="#ffffff" stroke="black" stroke-width="2" d="M44,-165C44,-165 172,-165 172,-165 178,-165 184,-171 184,-177 184,-177 184,-205 184,-205 184,-211 178,-217 172,-217 172,-217 44,-217 44,-217 38,-217 32,-211 32,-205 32,-205 32,-177 32,-177 32,-171 38,-165 44,-165"/>
<text text-anchor="middle" x="108" y="-205.8" font-family="Helvetica,sans-Serif" font-weight="bold" font-size="9.00">main&#45;layout</text>
</g>
<g id="clust7" class="cluster">
<title>cluster_src/app/main</title>
<path fill="#ffffff" stroke="black" stroke-width="2" d="M212,-24C212,-24 372,-24 372,-24 378,-24 384,-30 384,-36 384,-36 384,-132 384,-132 384,-138 378,-144 372,-144 372,-144 212,-144 212,-144 206,-144 200,-138 200,-132 200,-132 200,-36 200,-36 200,-30 206,-24 212,-24"/>
<text text-anchor="middle" x="292" y="-132.8" font-family="Helvetica,sans-Serif" font-weight="bold" font-size="9.00">main</text>
</g>
<g id="clust8" class="cluster">
<title>cluster_src/app/main/settings</title>
<path fill="#ffffff" stroke="black" stroke-width="2" d="M220,-32C220,-32 364,-32 364,-32 370,-32 376,-38 376,-44 376,-44 376,-106 376,-106 376,-112 370,-118 364,-118 364,-118 220,-118 220,-118 214,-118 208,-112 208,-106 208,-106 208,-44 208,-44 208,-38 214,-32 220,-32"/>
<text text-anchor="middle" x="292" y="-106.8" font-family="Helvetica,sans-Serif" font-weight="bold" font-size="9.00">settings</text>
</g>
<g id="clust9" class="cluster">
<title>cluster_src/app/main/settings/appearance</title>
<path fill="#ffffff" stroke="black" stroke-width="2" d="M228,-40C228,-40 356,-40 356,-40 362,-40 368,-46 368,-52 368,-52 368,-80 368,-80 368,-86 362,-92 356,-92 356,-92 228,-92 228,-92 222,-92 216,-86 216,-80 216,-80 216,-52 216,-52 216,-46 222,-40 228,-40"/>
<text text-anchor="middle" x="292" y="-80.8" font-family="Helvetica,sans-Serif" font-weight="bold" font-size="9.00">appearance</text>
</g>
<g id="clust10" class="cluster">
<title>cluster_src/app/shared</title>
<path fill="#ffffff" stroke="black" stroke-width="2" d="M404,-128C404,-128 520,-128 520,-128 526,-128 532,-134 532,-140 532,-140 532,-236 532,-236 532,-242 526,-248 520,-248 520,-248 404,-248 404,-248 398,-248 392,-242 392,-236 392,-236 392,-140 392,-140 392,-134 398,-128 404,-128"/>
<text text-anchor="middle" x="462" y="-236.8" font-family="Helvetica,sans-Serif" font-weight="bold" font-size="9.00">shared</text>
</g>
<g id="clust11" class="cluster">
<title>cluster_src/app/shared/services</title>
<path fill="#ffffff" stroke="black" stroke-width="2" d="M412,-136C412,-136 512,-136 512,-136 518,-136 524,-142 524,-148 524,-148 524,-210 524,-210 524,-216 518,-222 512,-222 512,-222 412,-222 412,-222 406,-222 400,-216 400,-210 400,-210 400,-148 400,-148 400,-142 406,-136 412,-136"/>
<text text-anchor="middle" x="462" y="-210.8" font-family="Helvetica,sans-Serif" font-weight="bold" font-size="9.00">services</text>
</g>
<g id="clust12" class="cluster">
<title>cluster_src/app/shared/services/theme</title>
<path fill="#ffffff" stroke="black" stroke-width="2" d="M420,-144C420,-144 504,-144 504,-144 510,-144 516,-150 516,-156 516,-156 516,-184 516,-184 516,-190 510,-196 504,-196 504,-196 420,-196 420,-196 414,-196 408,-190 408,-184 408,-184 408,-156 408,-156 408,-150 414,-144 420,-144"/>
<text text-anchor="middle" x="462" y="-184.8" font-family="Helvetica,sans-Serif" font-weight="bold" font-size="9.00">theme</text>
</g>
<!-- src/app/common/navbar/navbar.component.ts -->
<g id="node1" class="node">
<title>src/app/common/navbar/navbar.component.ts</title>
<g id="a_node1"><a xlink:href="src/app/common/navbar/navbar.component.ts" xlink:title="navbar.component.ts">
<path fill="#ddfeff" stroke="black" d="M342.5,-186C342.5,-186 241.5,-186 241.5,-186 238.5,-186 235.5,-183 235.5,-180 235.5,-180 235.5,-174 235.5,-174 235.5,-171 238.5,-168 241.5,-168 241.5,-168 342.5,-168 342.5,-168 345.5,-168 348.5,-171 348.5,-174 348.5,-174 348.5,-180 348.5,-180 348.5,-183 345.5,-186 342.5,-186"/>
<text text-anchor="start" x="243.5" y="-174.8" font-family="Helvetica,sans-Serif" font-size="9.00">navbar.component.ts</text>
</a>
</g>
</g>
<!-- src/app/shared/services/theme/theme.service.ts -->
<g id="node2" class="node">
<title>src/app/shared/services/theme/theme.service.ts</title>
<g id="a_node2"><a xlink:href="src/app/shared/services/theme/theme.service.ts" xlink:title="theme.service.ts">
<path fill="#ddfeff" stroke="black" d="M502,-170C502,-170 422,-170 422,-170 419,-170 416,-167 416,-164 416,-164 416,-158 416,-158 416,-155 419,-152 422,-152 422,-152 502,-152 502,-152 505,-152 508,-155 508,-158 508,-158 508,-164 508,-164 508,-167 505,-170 502,-170"/>
<text text-anchor="start" x="424" y="-158.8" font-family="Helvetica,sans-Serif" font-size="9.00">theme.service.ts</text>
</a>
</g>
</g>
<!-- src/app/common/navbar/navbar.component.ts&#45;&gt;src/app/shared/services/theme/theme.service.ts -->
<g id="edge1" class="edge">
<title>src/app/common/navbar/navbar.component.ts&#45;&gt;src/app/shared/services/theme/theme.service.ts</title>
<path fill="none" stroke="#000000" stroke-width="2" stroke-opacity="0.200000" d="M348.94,-171.67C368.58,-169.8 390.53,-167.71 409.76,-165.88"/>
<polygon fill="#000000" fill-opacity="0.200000" stroke="#000000" stroke-width="2" stroke-opacity="0.200000" points="410.13,-167.95 415.9,-165.29 409.73,-163.77 410.13,-167.95"/>
</g>
<!-- src/app/layouts/main&#45;layout/main&#45;layout.component.ts -->
<g id="node3" class="node">
<title>src/app/layouts/main&#45;layout/main&#45;layout.component.ts</title>
<g id="a_node3"><a xlink:href="src/app/layouts/main-layout/main-layout.component.ts" xlink:title="main&#45;layout.component.ts">
<path fill="#ddfeff" stroke="black" d="M170,-191C170,-191 46,-191 46,-191 43,-191 40,-188 40,-185 40,-185 40,-179 40,-179 40,-176 43,-173 46,-173 46,-173 170,-173 170,-173 173,-173 176,-176 176,-179 176,-179 176,-185 176,-185 176,-188 173,-191 170,-191"/>
<text text-anchor="start" x="48" y="-179.8" font-family="Helvetica,sans-Serif" font-size="9.00">main&#45;layout.component.ts</text>
</a>
</g>
</g>
<!-- src/app/layouts/main&#45;layout/main&#45;layout.component.ts&#45;&gt;src/app/common/navbar/navbar.component.ts -->
<g id="edge2" class="edge">
<title>src/app/layouts/main&#45;layout/main&#45;layout.component.ts&#45;&gt;src/app/common/navbar/navbar.component.ts</title>
<path fill="none" stroke="#000000" stroke-width="2" stroke-opacity="0.200000" d="M176.25,-180.15C193.57,-179.68 212.12,-179.17 229.14,-178.7"/>
<polygon fill="#000000" fill-opacity="0.200000" stroke="#000000" stroke-width="2" stroke-opacity="0.200000" points="229.4,-180.79 235.34,-178.53 229.29,-176.59 229.4,-180.79"/>
</g>
<!-- src/app/layouts/main&#45;layout/main&#45;layout.component.ts&#45;&gt;src/app/shared/services/theme/theme.service.ts -->
<g id="edge3" class="edge">
<title>src/app/layouts/main&#45;layout/main&#45;layout.component.ts&#45;&gt;src/app/shared/services/theme/theme.service.ts</title>
<path fill="none" stroke="#000000" stroke-width="2" stroke-opacity="0.200000" d="M127.99,-191.1C146.04,-199.2 174.18,-210.46 200,-215 280.54,-229.15 306.02,-239.62 384,-215 409.18,-207.05 433.27,-187.6 447.61,-174.34"/>
<polygon fill="#000000" fill-opacity="0.200000" stroke="#000000" stroke-width="2" stroke-opacity="0.200000" points="449.16,-175.76 452.08,-170.11 446.28,-172.71 449.16,-175.76"/>
</g>
<!-- src/app/main/settings/appearance/appearance.component.ts -->
<g id="node4" class="node">
<title>src/app/main/settings/appearance/appearance.component.ts</title>
<g id="a_node4"><a xlink:href="src/app/main/settings/appearance/appearance.component.ts" xlink:title="appearance.component.ts">
<path fill="#ddfeff" stroke="black" d="M354,-66C354,-66 230,-66 230,-66 227,-66 224,-63 224,-60 224,-60 224,-54 224,-54 224,-51 227,-48 230,-48 230,-48 354,-48 354,-48 357,-48 360,-51 360,-54 360,-54 360,-60 360,-60 360,-63 357,-66 354,-66"/>
<text text-anchor="start" x="232" y="-54.8" font-family="Helvetica,sans-Serif" font-size="9.00">appearance.component.ts</text>
</a>
</g>
</g>
<!-- src/app/main/settings/appearance/appearance.component.ts&#45;&gt;src/app/shared/services/theme/theme.service.ts -->
<g id="edge4" class="edge">
<title>src/app/main/settings/appearance/appearance.component.ts&#45;&gt;src/app/shared/services/theme/theme.service.ts</title>
<path fill="none" stroke="#000000" stroke-width="2" stroke-opacity="0.200000" d="M307.62,-66.05C337.77,-84.72 406.94,-127.53 441.12,-148.7"/>
<polygon fill="#000000" fill-opacity="0.200000" stroke="#000000" stroke-width="2" stroke-opacity="0.200000" points="440.09,-150.53 446.3,-151.9 442.3,-146.96 440.09,-150.53"/>
</g>
</g>
</svg>
