<?xml version="1.0" encoding="UTF-8" standalone="no"?>
<!DOCTYPE svg PUBLIC "-//W3C//DTD SVG 1.1//EN"
 "http://www.w3.org/Graphics/SVG/1.1/DTD/svg11.dtd">
<!-- Generated by graphviz version 2.43.0 (0)
 -->
<!-- Title: dependency&#45;cruiser output Pages: 1 -->
<svg width="531pt" height="512pt"
 viewBox="0.00 0.00 531.00 512.00" xmlns="http://www.w3.org/2000/svg" xmlns:xlink="http://www.w3.org/1999/xlink">
<g id="graph0" class="graph" transform="scale(1 1) rotate(0) translate(4 508)">
<title>dependency&#45;cruiser output</title>
<polygon fill="white" stroke="transparent" points="-4,4 -4,-508 527,-508 527,4 -4,4"/>
<g id="clust1" class="cluster">
<title>cluster_src</title>
<path fill="#ffffff" stroke="black" stroke-width="2" d="M20,-8C20,-8 503,-8 503,-8 509,-8 515,-14 515,-20 515,-20 515,-484 515,-484 515,-490 509,-496 503,-496 503,-496 20,-496 20,-496 14,-496 8,-490 8,-484 8,-484 8,-20 8,-20 8,-14 14,-8 20,-8"/>
<text text-anchor="middle" x="261.5" y="-484.8" font-family="Helvetica,sans-Serif" font-weight="bold" font-size="9.00">src</text>
</g>
<g id="clust2" class="cluster">
<title>cluster_src/app</title>
<path fill="#ffffff" stroke="black" stroke-width="2" d="M28,-16C28,-16 495,-16 495,-16 501,-16 507,-22 507,-28 507,-28 507,-458 507,-458 507,-464 501,-470 495,-470 495,-470 28,-470 28,-470 22,-470 16,-464 16,-458 16,-458 16,-28 16,-28 16,-22 22,-16 28,-16"/>
<text text-anchor="middle" x="261.5" y="-458.8" font-family="Helvetica,sans-Serif" font-weight="bold" font-size="9.00">app</text>
</g>
<g id="clust3" class="cluster">
<title>cluster_src/app/main</title>
<path fill="#ffffff" stroke="black" stroke-width="2" d="M36,-24C36,-24 227,-24 227,-24 233,-24 239,-30 239,-36 239,-36 239,-432 239,-432 239,-438 233,-444 227,-444 227,-444 36,-444 36,-444 30,-444 24,-438 24,-432 24,-432 24,-36 24,-36 24,-30 30,-24 36,-24"/>
<text text-anchor="middle" x="131.5" y="-432.8" font-family="Helvetica,sans-Serif" font-weight="bold" font-size="9.00">main</text>
</g>
<g id="clust4" class="cluster">
<title>cluster_src/app/main/issues</title>
<path fill="#ffffff" stroke="black" stroke-width="2" d="M80.5,-366C80.5,-366 182.5,-366 182.5,-366 188.5,-366 194.5,-372 194.5,-378 194.5,-378 194.5,-406 194.5,-406 194.5,-412 188.5,-418 182.5,-418 182.5,-418 80.5,-418 80.5,-418 74.5,-418 68.5,-412 68.5,-406 68.5,-406 68.5,-378 68.5,-378 68.5,-372 74.5,-366 80.5,-366"/>
<text text-anchor="middle" x="131.5" y="-406.8" font-family="Helvetica,sans-Serif" font-weight="bold" font-size="9.00">issues</text>
</g>
<g id="clust5" class="cluster">
<title>cluster_src/app/main/manage</title>
<path fill="#ffffff" stroke="black" stroke-width="2" d="M73.5,-272C73.5,-272 189.5,-272 189.5,-272 195.5,-272 201.5,-278 201.5,-284 201.5,-284 201.5,-346 201.5,-346 201.5,-352 195.5,-358 189.5,-358 189.5,-358 73.5,-358 73.5,-358 67.5,-358 61.5,-352 61.5,-346 61.5,-346 61.5,-284 61.5,-284 61.5,-278 67.5,-272 73.5,-272"/>
<text text-anchor="middle" x="131.5" y="-346.8" font-family="Helvetica,sans-Serif" font-weight="bold" font-size="9.00">manage</text>
</g>
<g id="clust6" class="cluster">
<title>cluster_src/app/main/manage/labels</title>
<path fill="#ffffff" stroke="black" stroke-width="2" d="M81.5,-280C81.5,-280 181.5,-280 181.5,-280 187.5,-280 193.5,-286 193.5,-292 193.5,-292 193.5,-320 193.5,-320 193.5,-326 187.5,-332 181.5,-332 181.5,-332 81.5,-332 81.5,-332 75.5,-332 69.5,-326 69.5,-320 69.5,-320 69.5,-292 69.5,-292 69.5,-286 75.5,-280 81.5,-280"/>
<text text-anchor="middle" x="131.5" y="-320.8" font-family="Helvetica,sans-Serif" font-weight="bold" font-size="9.00">labels</text>
</g>
<g id="clust7" class="cluster">
<title>cluster_src/app/main/organization&#45;invitation</title>
<path fill="#ffffff" stroke="black" stroke-width="2" d="M44,-212C44,-212 219,-212 219,-212 225,-212 231,-218 231,-224 231,-224 231,-252 231,-252 231,-258 225,-264 219,-264 219,-264 44,-264 44,-264 38,-264 32,-258 32,-252 32,-252 32,-224 32,-224 32,-218 38,-212 44,-212"/>
<text text-anchor="middle" x="131.5" y="-252.8" font-family="Helvetica,sans-Serif" font-weight="bold" font-size="9.00">organization&#45;invitation</text>
</g>
<g id="clust8" class="cluster">
<title>cluster_src/app/main/organizations</title>
<path fill="#ffffff" stroke="black" stroke-width="2" d="M64,-152C64,-152 199,-152 199,-152 205,-152 211,-158 211,-164 211,-164 211,-192 211,-192 211,-198 205,-204 199,-204 199,-204 64,-204 64,-204 58,-204 52,-198 52,-192 52,-192 52,-164 52,-164 52,-158 58,-152 64,-152"/>
<text text-anchor="middle" x="131.5" y="-192.8" font-family="Helvetica,sans-Serif" font-weight="bold" font-size="9.00">organizations</text>
</g>
<g id="clust9" class="cluster">
<title>cluster_src/app/main/projects</title>
<path fill="#ffffff" stroke="black" stroke-width="2" d="M76,-92C76,-92 187,-92 187,-92 193,-92 199,-98 199,-104 199,-104 199,-132 199,-132 199,-138 193,-144 187,-144 187,-144 76,-144 76,-144 70,-144 64,-138 64,-132 64,-132 64,-104 64,-104 64,-98 70,-92 76,-92"/>
<text text-anchor="middle" x="131.5" y="-132.8" font-family="Helvetica,sans-Serif" font-weight="bold" font-size="9.00">projects</text>
</g>
<g id="clust10" class="cluster">
<title>cluster_src/app/main/worktime</title>
<path fill="#ffffff" stroke="black" stroke-width="2" d="M73,-32C73,-32 190,-32 190,-32 196,-32 202,-38 202,-44 202,-44 202,-72 202,-72 202,-78 196,-84 190,-84 190,-84 73,-84 73,-84 67,-84 61,-78 61,-72 61,-72 61,-44 61,-44 61,-38 67,-32 73,-32"/>
<text text-anchor="middle" x="131.5" y="-72.8" font-family="Helvetica,sans-Serif" font-weight="bold" font-size="9.00">worktime</text>
</g>
<g id="clust11" class="cluster">
<title>cluster_src/app/shared</title>
<path fill="#ffffff" stroke="black" stroke-width="2" d="M259,-166C259,-166 487,-166 487,-166 493,-166 499,-172 499,-178 499,-178 499,-368 499,-368 499,-374 493,-380 487,-380 487,-380 259,-380 259,-380 253,-380 247,-374 247,-368 247,-368 247,-178 247,-178 247,-172 253,-166 259,-166"/>
<text text-anchor="middle" x="373" y="-368.8" font-family="Helvetica,sans-Serif" font-weight="bold" font-size="9.00">shared</text>
</g>
<g id="clust12" class="cluster">
<title>cluster_src/app/shared/constants</title>
<path fill="#ffffff" stroke="black" stroke-width="2" d="M400,-268C400,-268 476,-268 476,-268 482,-268 488,-274 488,-280 488,-280 488,-342 488,-342 488,-348 482,-354 476,-354 476,-354 400,-354 400,-354 394,-354 388,-348 388,-342 388,-342 388,-280 388,-280 388,-274 394,-268 400,-268"/>
<text text-anchor="middle" x="438" y="-342.8" font-family="Helvetica,sans-Serif" font-weight="bold" font-size="9.00">constants</text>
</g>
<g id="clust13" class="cluster">
<title>cluster_src/app/shared/constants/table</title>
<path fill="#ffffff" stroke="black" stroke-width="2" d="M408,-276C408,-276 468,-276 468,-276 474,-276 480,-282 480,-288 480,-288 480,-316 480,-316 480,-322 474,-328 468,-328 468,-328 408,-328 408,-328 402,-328 396,-322 396,-316 396,-316 396,-288 396,-288 396,-282 402,-276 408,-276"/>
<text text-anchor="middle" x="438" y="-316.8" font-family="Helvetica,sans-Serif" font-weight="bold" font-size="9.00">table</text>
</g>
<g id="clust14" class="cluster">
<title>cluster_src/app/shared/services</title>
<path fill="#ffffff" stroke="black" stroke-width="2" d="M267,-174C267,-174 479,-174 479,-174 485,-174 491,-180 491,-186 491,-186 491,-248 491,-248 491,-254 485,-260 479,-260 479,-260 267,-260 267,-260 261,-260 255,-254 255,-248 255,-248 255,-186 255,-186 255,-180 261,-174 267,-174"/>
<text text-anchor="middle" x="373" y="-248.8" font-family="Helvetica,sans-Serif" font-weight="bold" font-size="9.00">services</text>
</g>
<g id="clust15" class="cluster">
<title>cluster_src/app/shared/services/list&#45;state</title>
<path fill="#ffffff" stroke="black" stroke-width="2" d="M275,-182C275,-182 368,-182 368,-182 374,-182 380,-188 380,-194 380,-194 380,-222 380,-222 380,-228 374,-234 368,-234 368,-234 275,-234 275,-234 269,-234 263,-228 263,-222 263,-222 263,-194 263,-194 263,-188 269,-182 275,-182"/>
<text text-anchor="middle" x="321.5" y="-222.8" font-family="Helvetica,sans-Serif" font-weight="bold" font-size="9.00">list&#45;state</text>
</g>
<g id="clust16" class="cluster">
<title>cluster_src/app/shared/services/url</title>
<path fill="#ffffff" stroke="black" stroke-width="2" d="M405,-182C405,-182 471,-182 471,-182 477,-182 483,-188 483,-194 483,-194 483,-222 483,-222 483,-228 477,-234 471,-234 471,-234 405,-234 405,-234 399,-234 393,-228 393,-222 393,-222 393,-194 393,-194 393,-188 399,-182 405,-182"/>
<text text-anchor="middle" x="438" y="-222.8" font-family="Helvetica,sans-Serif" font-weight="bold" font-size="9.00">url</text>
</g>
<!-- src/app/main/issues/issues.component.ts -->
<g id="node1" class="node">
<title>src/app/main/issues/issues.component.ts</title>
<g id="a_node1"><a xlink:href="src/app/main/issues/issues.component.ts" xlink:title="issues.component.ts">
<path fill="#ddfeff" stroke="black" d="M180.5,-392C180.5,-392 82.5,-392 82.5,-392 79.5,-392 76.5,-389 76.5,-386 76.5,-386 76.5,-380 76.5,-380 76.5,-377 79.5,-374 82.5,-374 82.5,-374 180.5,-374 180.5,-374 183.5,-374 186.5,-377 186.5,-380 186.5,-380 186.5,-386 186.5,-386 186.5,-389 183.5,-392 180.5,-392"/>
<text text-anchor="start" x="84.5" y="-380.8" font-family="Helvetica,sans-Serif" font-size="9.00">issues.component.ts</text>
</a>
</g>
</g>
<!-- src/app/shared/services/list&#45;state/list&#45;state.service.ts -->
<g id="node2" class="node">
<title>src/app/shared/services/list&#45;state/list&#45;state.service.ts</title>
<g id="a_node2"><a xlink:href="src/app/shared/services/list-state/list-state.service.ts" xlink:title="list&#45;state.service.ts">
<path fill="#ddfeff" stroke="black" d="M366,-208C366,-208 277,-208 277,-208 274,-208 271,-205 271,-202 271,-202 271,-196 271,-196 271,-193 274,-190 277,-190 277,-190 366,-190 366,-190 369,-190 372,-193 372,-196 372,-196 372,-202 372,-202 372,-205 369,-208 366,-208"/>
<text text-anchor="start" x="279" y="-196.8" font-family="Helvetica,sans-Serif" font-size="9.00">list&#45;state.service.ts</text>
</a>
</g>
</g>
<!-- src/app/main/issues/issues.component.ts&#45;&gt;src/app/shared/services/list&#45;state/list&#45;state.service.ts -->
<g id="edge1" class="edge">
<title>src/app/main/issues/issues.component.ts&#45;&gt;src/app/shared/services/list&#45;state/list&#45;state.service.ts</title>
<path fill="none" stroke="#000000" stroke-width="2" stroke-opacity="0.200000" d="M165.22,-373.99C187.93,-366.46 217.79,-353.87 239,-335 278.38,-299.96 304.45,-241.23 315.09,-213.87"/>
<polygon fill="#000000" fill-opacity="0.200000" stroke="#000000" stroke-width="2" stroke-opacity="0.200000" points="317.07,-214.58 317.24,-208.22 313.14,-213.09 317.07,-214.58"/>
</g>
<!-- src/app/shared/constants/table/ListState.ts -->
<g id="node8" class="node">
<title>src/app/shared/constants/table/ListState.ts</title>
<g id="a_node8"><a xlink:href="src/app/shared/constants/table/ListState.ts" xlink:title="ListState.ts">
<path fill="#ddfeff" stroke="black" d="M466,-302C466,-302 410,-302 410,-302 407,-302 404,-299 404,-296 404,-296 404,-290 404,-290 404,-287 407,-284 410,-284 410,-284 466,-284 466,-284 469,-284 472,-287 472,-290 472,-290 472,-296 472,-296 472,-299 469,-302 466,-302"/>
<text text-anchor="start" x="412" y="-290.8" font-family="Helvetica,sans-Serif" font-size="9.00">ListState.ts</text>
</a>
</g>
</g>
<!-- src/app/shared/services/list&#45;state/list&#45;state.service.ts&#45;&gt;src/app/shared/constants/table/ListState.ts -->
<g id="edge7" class="edge">
<title>src/app/shared/services/list&#45;state/list&#45;state.service.ts&#45;&gt;src/app/shared/constants/table/ListState.ts</title>
<path fill="none" stroke="#000000" stroke-width="2" stroke-opacity="0.200000" d="M333.48,-208.01C353.86,-224.74 397.61,-260.66 421.18,-280.01"/>
<polygon fill="#000000" fill-opacity="0.200000" stroke="#000000" stroke-width="2" stroke-opacity="0.200000" points="419.92,-281.69 425.89,-283.88 422.58,-278.45 419.92,-281.69"/>
</g>
<!-- src/app/shared/services/url/url.service.ts -->
<g id="node9" class="node">
<title>src/app/shared/services/url/url.service.ts</title>
<g id="a_node9"><a xlink:href="src/app/shared/services/url/url.service.ts" xlink:title="url.service.ts">
<path fill="#ddfeff" stroke="black" d="M469,-208C469,-208 407,-208 407,-208 404,-208 401,-205 401,-202 401,-202 401,-196 401,-196 401,-193 404,-190 407,-190 407,-190 469,-190 469,-190 472,-190 475,-193 475,-196 475,-196 475,-202 475,-202 475,-205 472,-208 469,-208"/>
<text text-anchor="start" x="409" y="-196.8" font-family="Helvetica,sans-Serif" font-size="9.00">url.service.ts</text>
</a>
</g>
</g>
<!-- src/app/shared/services/list&#45;state/list&#45;state.service.ts&#45;&gt;src/app/shared/services/url/url.service.ts -->
<g id="edge8" class="edge">
<title>src/app/shared/services/list&#45;state/list&#45;state.service.ts&#45;&gt;src/app/shared/services/url/url.service.ts</title>
<path fill="none" stroke="#000000" stroke-width="2" stroke-opacity="0.200000" d="M372.06,-199C379.61,-199 387.35,-199 394.73,-199"/>
<polygon fill="#000000" fill-opacity="0.200000" stroke="#000000" stroke-width="2" stroke-opacity="0.200000" points="394.83,-201.1 400.83,-199 394.83,-196.9 394.83,-201.1"/>
</g>
<!-- src/app/main/manage/labels/labels.component.ts -->
<g id="node3" class="node">
<title>src/app/main/manage/labels/labels.component.ts</title>
<g id="a_node3"><a xlink:href="src/app/main/manage/labels/labels.component.ts" xlink:title="labels.component.ts">
<path fill="#ddfeff" stroke="black" d="M179.5,-306C179.5,-306 83.5,-306 83.5,-306 80.5,-306 77.5,-303 77.5,-300 77.5,-300 77.5,-294 77.5,-294 77.5,-291 80.5,-288 83.5,-288 83.5,-288 179.5,-288 179.5,-288 182.5,-288 185.5,-291 185.5,-294 185.5,-294 185.5,-300 185.5,-300 185.5,-303 182.5,-306 179.5,-306"/>
<text text-anchor="start" x="85.5" y="-294.8" font-family="Helvetica,sans-Serif" font-size="9.00">labels.component.ts</text>
</a>
</g>
</g>
<!-- src/app/main/manage/labels/labels.component.ts&#45;&gt;src/app/shared/services/list&#45;state/list&#45;state.service.ts -->
<g id="edge2" class="edge">
<title>src/app/main/manage/labels/labels.component.ts&#45;&gt;src/app/shared/services/list&#45;state/list&#45;state.service.ts</title>
<path fill="none" stroke="#000000" stroke-width="2" stroke-opacity="0.200000" d="M180.79,-287.95C199.63,-283.27 220.99,-276.49 239,-267 266.18,-252.68 292.53,-228.16 307.6,-212.81"/>
<polygon fill="#000000" fill-opacity="0.200000" stroke="#000000" stroke-width="2" stroke-opacity="0.200000" points="309.24,-214.13 311.9,-208.36 306.22,-211.21 309.24,-214.13"/>
</g>
<!-- src/app/main/organization&#45;invitation/organization&#45;invitation.component.ts -->
<g id="node4" class="node">
<title>src/app/main/organization&#45;invitation/organization&#45;invitation.component.ts</title>
<g id="a_node4"><a xlink:href="src/app/main/organization-invitation/organization-invitation.component.ts" xlink:title="organization&#45;invitation.component.ts">
<path fill="#ddfeff" stroke="black" d="M217,-238C217,-238 46,-238 46,-238 43,-238 40,-235 40,-232 40,-232 40,-226 40,-226 40,-223 43,-220 46,-220 46,-220 217,-220 217,-220 220,-220 223,-223 223,-226 223,-226 223,-232 223,-232 223,-235 220,-238 217,-238"/>
<text text-anchor="start" x="48" y="-226.8" font-family="Helvetica,sans-Serif" font-size="9.00">organization&#45;invitation.component.ts</text>
</a>
</g>
</g>
<!-- src/app/main/organization&#45;invitation/organization&#45;invitation.component.ts&#45;&gt;src/app/shared/services/list&#45;state/list&#45;state.service.ts -->
<g id="edge3" class="edge">
<title>src/app/main/organization&#45;invitation/organization&#45;invitation.component.ts&#45;&gt;src/app/shared/services/list&#45;state/list&#45;state.service.ts</title>
<path fill="none" stroke="#000000" stroke-width="2" stroke-opacity="0.200000" d="M188.91,-220C212.94,-216.16 240.89,-211.7 264.84,-207.88"/>
<polygon fill="#000000" fill-opacity="0.200000" stroke="#000000" stroke-width="2" stroke-opacity="0.200000" points="265.24,-209.94 270.83,-206.93 264.58,-205.8 265.24,-209.94"/>
</g>
<!-- src/app/main/organizations/organizations.component.ts -->
<g id="node5" class="node">
<title>src/app/main/organizations/organizations.component.ts</title>
<g id="a_node5"><a xlink:href="src/app/main/organizations/organizations.component.ts" xlink:title="organizations.component.ts">
<path fill="#ddfeff" stroke="black" d="M197,-178C197,-178 66,-178 66,-178 63,-178 60,-175 60,-172 60,-172 60,-166 60,-166 60,-163 63,-160 66,-160 66,-160 197,-160 197,-160 200,-160 203,-163 203,-166 203,-166 203,-172 203,-172 203,-175 200,-178 197,-178"/>
<text text-anchor="start" x="68" y="-166.8" font-family="Helvetica,sans-Serif" font-size="9.00">organizations.component.ts</text>
</a>
</g>
</g>
<!-- src/app/main/organizations/organizations.component.ts&#45;&gt;src/app/shared/services/list&#45;state/list&#45;state.service.ts -->
<g id="edge4" class="edge">
<title>src/app/main/organizations/organizations.component.ts&#45;&gt;src/app/shared/services/list&#45;state/list&#45;state.service.ts</title>
<path fill="none" stroke="#000000" stroke-width="2" stroke-opacity="0.200000" d="M188.91,-178C212.94,-181.84 240.89,-186.3 264.84,-190.12"/>
<polygon fill="#000000" fill-opacity="0.200000" stroke="#000000" stroke-width="2" stroke-opacity="0.200000" points="264.58,-192.2 270.83,-191.07 265.24,-188.06 264.58,-192.2"/>
</g>
<!-- src/app/main/projects/projects.component.ts -->
<g id="node6" class="node">
<title>src/app/main/projects/projects.component.ts</title>
<g id="a_node6"><a xlink:href="src/app/main/projects/projects.component.ts" xlink:title="projects.component.ts">
<path fill="#ddfeff" stroke="black" d="M185,-118C185,-118 78,-118 78,-118 75,-118 72,-115 72,-112 72,-112 72,-106 72,-106 72,-103 75,-100 78,-100 78,-100 185,-100 185,-100 188,-100 191,-103 191,-106 191,-106 191,-112 191,-112 191,-115 188,-118 185,-118"/>
<text text-anchor="start" x="80" y="-106.8" font-family="Helvetica,sans-Serif" font-size="9.00">projects.component.ts</text>
</a>
</g>
</g>
<!-- src/app/main/projects/projects.component.ts&#45;&gt;src/app/shared/services/list&#45;state/list&#45;state.service.ts -->
<g id="edge5" class="edge">
<title>src/app/main/projects/projects.component.ts&#45;&gt;src/app/shared/services/list&#45;state/list&#45;state.service.ts</title>
<path fill="none" stroke="#000000" stroke-width="2" stroke-opacity="0.200000" d="M161.15,-118.1C182.95,-125.41 213.45,-136.51 239,-149 261.64,-160.07 286.1,-175.6 302.25,-186.4"/>
<polygon fill="#000000" fill-opacity="0.200000" stroke="#000000" stroke-width="2" stroke-opacity="0.200000" points="301.24,-188.26 307.39,-189.87 303.59,-184.77 301.24,-188.26"/>
</g>
<!-- src/app/main/worktime/worktime.component.ts -->
<g id="node7" class="node">
<title>src/app/main/worktime/worktime.component.ts</title>
<g id="a_node7"><a xlink:href="src/app/main/worktime/worktime.component.ts" xlink:title="worktime.component.ts">
<path fill="#ddfeff" stroke="black" d="M188,-58C188,-58 75,-58 75,-58 72,-58 69,-55 69,-52 69,-52 69,-46 69,-46 69,-43 72,-40 75,-40 75,-40 188,-40 188,-40 191,-40 194,-43 194,-46 194,-46 194,-52 194,-52 194,-55 191,-58 188,-58"/>
<text text-anchor="start" x="77" y="-46.8" font-family="Helvetica,sans-Serif" font-size="9.00">worktime.component.ts</text>
</a>
</g>
</g>
<!-- src/app/main/worktime/worktime.component.ts&#45;&gt;src/app/shared/services/list&#45;state/list&#45;state.service.ts -->
<g id="edge6" class="edge">
<title>src/app/main/worktime/worktime.component.ts&#45;&gt;src/app/shared/services/list&#45;state/list&#45;state.service.ts</title>
<path fill="none" stroke="#000000" stroke-width="2" stroke-opacity="0.200000" d="M172.14,-58.02C193.44,-64.25 219.29,-74.13 239,-89 274.16,-115.52 301.12,-161.28 313.33,-184.53"/>
<polygon fill="#000000" fill-opacity="0.200000" stroke="#000000" stroke-width="2" stroke-opacity="0.200000" points="311.5,-185.56 316.11,-189.93 315.23,-183.64 311.5,-185.56"/>
</g>
</g>
</svg>
