<?xml version="1.0" encoding="UTF-8" standalone="no"?>
<!DOCTYPE svg PUBLIC "-//W3C//DTD SVG 1.1//EN"
 "http://www.w3.org/Graphics/SVG/1.1/DTD/svg11.dtd">
<!-- Generated by graphviz version 2.43.0 (0)
 -->
<!-- Title: dependency&#45;cruiser output Pages: 1 -->
<svg width="672pt" height="494pt"
 viewBox="0.00 0.00 672.00 494.00" xmlns="http://www.w3.org/2000/svg" xmlns:xlink="http://www.w3.org/1999/xlink">
<g id="graph0" class="graph" transform="scale(1 1) rotate(0) translate(4 490)">
<title>dependency&#45;cruiser output</title>
<polygon fill="white" stroke="transparent" points="-4,4 -4,-490 668,-490 668,4 -4,4"/>
<g id="clust1" class="cluster">
<title>cluster_src</title>
<path fill="#ffffff" stroke="black" stroke-width="2" d="M20,-8C20,-8 644,-8 644,-8 650,-8 656,-14 656,-20 656,-20 656,-466 656,-466 656,-472 650,-478 644,-478 644,-478 20,-478 20,-478 14,-478 8,-472 8,-466 8,-466 8,-20 8,-20 8,-14 14,-8 20,-8"/>
<text text-anchor="middle" x="332" y="-466.8" font-family="Helvetica,sans-Serif" font-weight="bold" font-size="9.00">src</text>
</g>
<g id="clust2" class="cluster">
<title>cluster_src/app</title>
<path fill="#ffffff" stroke="black" stroke-width="2" d="M28,-16C28,-16 636,-16 636,-16 642,-16 648,-22 648,-28 648,-28 648,-380 648,-380 648,-386 642,-392 636,-392 636,-392 28,-392 28,-392 22,-392 16,-386 16,-380 16,-380 16,-28 16,-28 16,-22 22,-16 28,-16"/>
<text text-anchor="middle" x="332" y="-380.8" font-family="Helvetica,sans-Serif" font-weight="bold" font-size="9.00">app</text>
</g>
<g id="clust3" class="cluster">
<title>cluster_src/app/main</title>
<path fill="#ffffff" stroke="black" stroke-width="2" d="M36,-24C36,-24 278,-24 278,-24 284,-24 290,-30 290,-36 290,-36 290,-354 290,-354 290,-360 284,-366 278,-366 278,-366 36,-366 36,-366 30,-366 24,-360 24,-354 24,-354 24,-36 24,-36 24,-30 30,-24 36,-24"/>
<text text-anchor="middle" x="157" y="-354.8" font-family="Helvetica,sans-Serif" font-weight="bold" font-size="9.00">main</text>
</g>
<g id="clust4" class="cluster">
<title>cluster_src/app/main/manage</title>
<path fill="#ffffff" stroke="black" stroke-width="2" d="M59,-220C59,-220 255,-220 255,-220 261,-220 267,-226 267,-232 267,-232 267,-328 267,-328 267,-334 261,-340 255,-340 255,-340 59,-340 59,-340 53,-340 47,-334 47,-328 47,-328 47,-232 47,-232 47,-226 53,-220 59,-220"/>
<text text-anchor="middle" x="157" y="-328.8" font-family="Helvetica,sans-Serif" font-weight="bold" font-size="9.00">manage</text>
</g>
<g id="clust5" class="cluster">
<title>cluster_src/app/main/manage/members</title>
<path fill="#ffffff" stroke="black" stroke-width="2" d="M67,-228C67,-228 247,-228 247,-228 253,-228 259,-234 259,-240 259,-240 259,-302 259,-302 259,-308 253,-314 247,-314 247,-314 67,-314 67,-314 61,-314 55,-308 55,-302 55,-302 55,-240 55,-240 55,-234 61,-228 67,-228"/>
<text text-anchor="middle" x="157" y="-302.8" font-family="Helvetica,sans-Serif" font-weight="bold" font-size="9.00">members</text>
</g>
<g id="clust6" class="cluster">
<title>cluster_src/app/main/manage/members/project&#45;invite&#45;dialog</title>
<path fill="#ffffff" stroke="black" stroke-width="2" d="M75,-236C75,-236 239,-236 239,-236 245,-236 251,-242 251,-248 251,-248 251,-276 251,-276 251,-282 245,-288 239,-288 239,-288 75,-288 75,-288 69,-288 63,-282 63,-276 63,-276 63,-248 63,-248 63,-242 69,-236 75,-236"/>
<text text-anchor="middle" x="157" y="-276.8" font-family="Helvetica,sans-Serif" font-weight="bold" font-size="9.00">project&#45;invite&#45;dialog</text>
</g>
<g id="clust7" class="cluster">
<title>cluster_src/app/main/organizations</title>
<path fill="#ffffff" stroke="black" stroke-width="2" d="M44,-32C44,-32 270,-32 270,-32 276,-32 282,-38 282,-44 282,-44 282,-200 282,-200 282,-206 276,-212 270,-212 270,-212 44,-212 44,-212 38,-212 32,-206 32,-200 32,-200 32,-44 32,-44 32,-38 38,-32 44,-32"/>
<text text-anchor="middle" x="157" y="-200.8" font-family="Helvetica,sans-Serif" font-weight="bold" font-size="9.00">organizations</text>
</g>
<g id="clust8" class="cluster">
<title>cluster_src/app/main/organizations/manage</title>
<path fill="#ffffff" stroke="black" stroke-width="2" d="M52,-40C52,-40 262,-40 262,-40 268,-40 274,-46 274,-52 274,-52 274,-174 274,-174 274,-180 268,-186 262,-186 262,-186 52,-186 52,-186 46,-186 40,-180 40,-174 40,-174 40,-52 40,-52 40,-46 46,-40 52,-40"/>
<text text-anchor="middle" x="157" y="-174.8" font-family="Helvetica,sans-Serif" font-weight="bold" font-size="9.00">manage</text>
</g>
<g id="clust9" class="cluster">
<title>cluster_src/app/main/organizations/manage/organization&#45;member&#45;item</title>
<path fill="#ffffff" stroke="black" stroke-width="2" d="M60,-108C60,-108 254,-108 254,-108 260,-108 266,-114 266,-120 266,-120 266,-148 266,-148 266,-154 260,-160 254,-160 254,-160 60,-160 60,-160 54,-160 48,-154 48,-148 48,-148 48,-120 48,-120 48,-114 54,-108 60,-108"/>
<text text-anchor="middle" x="157" y="-148.8" font-family="Helvetica,sans-Serif" font-weight="bold" font-size="9.00">organization&#45;member&#45;item</text>
</g>
<g id="clust10" class="cluster">
<title>cluster_src/app/main/organizations/manage/organization&#45;members</title>
<path fill="#ffffff" stroke="black" stroke-width="2" d="M69,-48C69,-48 245,-48 245,-48 251,-48 257,-54 257,-60 257,-60 257,-88 257,-88 257,-94 251,-100 245,-100 245,-100 69,-100 69,-100 63,-100 57,-94 57,-88 57,-88 57,-60 57,-60 57,-54 63,-48 69,-48"/>
<text text-anchor="middle" x="157" y="-88.8" font-family="Helvetica,sans-Serif" font-weight="bold" font-size="9.00">organization&#45;members</text>
</g>
<g id="clust11" class="cluster">
<title>cluster_src/app/shared</title>
<path fill="#ffffff" stroke="black" stroke-width="2" d="M310,-156C310,-156 628,-156 628,-156 634,-156 640,-162 640,-168 640,-168 640,-264 640,-264 640,-270 634,-276 628,-276 628,-276 310,-276 310,-276 304,-276 298,-270 298,-264 298,-264 298,-168 298,-168 298,-162 304,-156 310,-156"/>
<text text-anchor="middle" x="469" y="-264.8" font-family="Helvetica,sans-Serif" font-weight="bold" font-size="9.00">shared</text>
</g>
<g id="clust12" class="cluster">
<title>cluster_src/app/shared/services</title>
<path fill="#ffffff" stroke="black" stroke-width="2" d="M318,-164C318,-164 484,-164 484,-164 490,-164 496,-170 496,-176 496,-176 496,-238 496,-238 496,-244 490,-250 484,-250 484,-250 318,-250 318,-250 312,-250 306,-244 306,-238 306,-238 306,-176 306,-176 306,-170 312,-164 318,-164"/>
<text text-anchor="middle" x="401" y="-238.8" font-family="Helvetica,sans-Serif" font-weight="bold" font-size="9.00">services</text>
</g>
<g id="clust13" class="cluster">
<title>cluster_src/app/shared/services/organization&#45;member</title>
<path fill="#ffffff" stroke="black" stroke-width="2" d="M326,-172C326,-172 476,-172 476,-172 482,-172 488,-178 488,-184 488,-184 488,-212 488,-212 488,-218 482,-224 476,-224 476,-224 326,-224 326,-224 320,-224 314,-218 314,-212 314,-212 314,-184 314,-184 314,-178 320,-172 326,-172"/>
<text text-anchor="middle" x="401" y="-212.8" font-family="Helvetica,sans-Serif" font-weight="bold" font-size="9.00">organization&#45;member</text>
</g>
<g id="clust14" class="cluster">
<title>cluster_src/app/shared/utils</title>
<path fill="#ffffff" stroke="black" stroke-width="2" d="M516,-164C516,-164 620,-164 620,-164 626,-164 632,-170 632,-176 632,-176 632,-238 632,-238 632,-244 626,-250 620,-250 620,-250 516,-250 516,-250 510,-250 504,-244 504,-238 504,-238 504,-176 504,-176 504,-170 510,-164 516,-164"/>
<text text-anchor="middle" x="568" y="-238.8" font-family="Helvetica,sans-Serif" font-weight="bold" font-size="9.00">utils</text>
</g>
<g id="clust15" class="cluster">
<title>cluster_src/app/shared/utils/paramsHandler</title>
<path fill="#ffffff" stroke="black" stroke-width="2" d="M524,-172C524,-172 612,-172 612,-172 618,-172 624,-178 624,-184 624,-184 624,-212 624,-212 624,-218 618,-224 612,-224 612,-224 524,-224 524,-224 518,-224 512,-218 512,-212 512,-212 512,-184 512,-184 512,-178 518,-172 524,-172"/>
<text text-anchor="middle" x="568" y="-212.8" font-family="Helvetica,sans-Serif" font-weight="bold" font-size="9.00">paramsHandler</text>
</g>
<g id="clust16" class="cluster">
<title>cluster_src/environments</title>
<path fill="#ffffff" stroke="black" stroke-width="2" d="M529,-400C529,-400 607,-400 607,-400 613,-400 619,-406 619,-412 619,-412 619,-440 619,-440 619,-446 613,-452 607,-452 607,-452 529,-452 529,-452 523,-452 517,-446 517,-440 517,-440 517,-412 517,-412 517,-406 523,-400 529,-400"/>
<text text-anchor="middle" x="568" y="-440.8" font-family="Helvetica,sans-Serif" font-weight="bold" font-size="9.00">environments</text>
</g>
<!-- src/app/main/manage/members/project&#45;invite&#45;dialog/project&#45;invite&#45;dialog.component.ts -->
<g id="node1" class="node">
<title>src/app/main/manage/members/project&#45;invite&#45;dialog/project&#45;invite&#45;dialog.component.ts</title>
<g id="a_node1"><a xlink:href="src/app/main/manage/members/project-invite-dialog/project-invite-dialog.component.ts" xlink:title="project&#45;invite&#45;dialog.component.ts">
<path fill="#ddfeff" stroke="black" d="M237,-262C237,-262 77,-262 77,-262 74,-262 71,-259 71,-256 71,-256 71,-250 71,-250 71,-247 74,-244 77,-244 77,-244 237,-244 237,-244 240,-244 243,-247 243,-250 243,-250 243,-256 243,-256 243,-259 240,-262 237,-262"/>
<text text-anchor="start" x="79" y="-250.8" font-family="Helvetica,sans-Serif" font-size="9.00">project&#45;invite&#45;dialog.component.ts</text>
</a>
</g>
</g>
<!-- src/app/shared/services/organization&#45;member/organization&#45;member.service.ts -->
<g id="node2" class="node">
<title>src/app/shared/services/organization&#45;member/organization&#45;member.service.ts</title>
<g id="a_node2"><a xlink:href="src/app/shared/services/organization-member/organization-member.service.ts" xlink:title="organization&#45;member.service.ts">
<path fill="#ddfeff" stroke="black" d="M474,-198C474,-198 328,-198 328,-198 325,-198 322,-195 322,-192 322,-192 322,-186 322,-186 322,-183 325,-180 328,-180 328,-180 474,-180 474,-180 477,-180 480,-183 480,-186 480,-186 480,-192 480,-192 480,-195 477,-198 474,-198"/>
<text text-anchor="start" x="330" y="-186.8" font-family="Helvetica,sans-Serif" font-size="9.00">organization&#45;member.service.ts</text>
</a>
</g>
</g>
<!-- src/app/main/manage/members/project&#45;invite&#45;dialog/project&#45;invite&#45;dialog.component.ts&#45;&gt;src/app/shared/services/organization&#45;member/organization&#45;member.service.ts -->
<g id="edge1" class="edge">
<title>src/app/main/manage/members/project&#45;invite&#45;dialog/project&#45;invite&#45;dialog.component.ts&#45;&gt;src/app/shared/services/organization&#45;member/organization&#45;member.service.ts</title>
<path fill="none" stroke="#000000" stroke-width="2" stroke-opacity="0.200000" d="M192.16,-243.97C236.26,-232.3 312.91,-212.03 359.78,-199.64"/>
<polygon fill="#000000" fill-opacity="0.200000" stroke="#000000" stroke-width="2" stroke-opacity="0.200000" points="360.36,-201.66 365.62,-198.09 359.29,-197.6 360.36,-201.66"/>
</g>
<!-- src/environments/environment.ts -->
<g id="node5" class="node">
<title>src/environments/environment.ts</title>
<g id="a_node5"><a xlink:href="src/environments/environment.ts" xlink:title="environment.ts">
<path fill="#ddfeff" stroke="black" d="M605,-426C605,-426 531,-426 531,-426 528,-426 525,-423 525,-420 525,-420 525,-414 525,-414 525,-411 528,-408 531,-408 531,-408 605,-408 605,-408 608,-408 611,-411 611,-414 611,-414 611,-420 611,-420 611,-423 608,-426 605,-426"/>
<text text-anchor="start" x="533" y="-414.8" font-family="Helvetica,sans-Serif" font-size="9.00">environment.ts</text>
</a>
</g>
</g>
<!-- src/app/shared/services/organization&#45;member/organization&#45;member.service.ts&#45;&gt;src/environments/environment.ts -->
<g id="edge4" class="edge">
<title>src/app/shared/services/organization&#45;member/organization&#45;member.service.ts&#45;&gt;src/environments/environment.ts</title>
<path fill="none" stroke="#000000" stroke-width="2" stroke-opacity="0.200000" d="M408.67,-198.22C434.23,-233.53 525.98,-360.32 556.81,-402.92"/>
<polygon fill="#000000" fill-opacity="0.200000" stroke="#000000" stroke-width="2" stroke-opacity="0.200000" points="555.21,-404.29 560.43,-407.91 558.61,-401.82 555.21,-404.29"/>
</g>
<!-- src/app/shared/utils/paramsHandler/paramsHandler.ts -->
<g id="node6" class="node">
<title>src/app/shared/utils/paramsHandler/paramsHandler.ts</title>
<g id="a_node6"><a xlink:href="src/app/shared/utils/paramsHandler/paramsHandler.ts" xlink:title="paramsHandler.ts">
<path fill="#ddfeff" stroke="black" d="M610,-198C610,-198 526,-198 526,-198 523,-198 520,-195 520,-192 520,-192 520,-186 520,-186 520,-183 523,-180 526,-180 526,-180 610,-180 610,-180 613,-180 616,-183 616,-186 616,-186 616,-192 616,-192 616,-195 613,-198 610,-198"/>
<text text-anchor="start" x="528" y="-186.8" font-family="Helvetica,sans-Serif" font-size="9.00">paramsHandler.ts</text>
</a>
</g>
</g>
<!-- src/app/shared/services/organization&#45;member/organization&#45;member.service.ts&#45;&gt;src/app/shared/utils/paramsHandler/paramsHandler.ts -->
<g id="edge5" class="edge">
<title>src/app/shared/services/organization&#45;member/organization&#45;member.service.ts&#45;&gt;src/app/shared/utils/paramsHandler/paramsHandler.ts</title>
<path fill="none" stroke="#000000" stroke-width="2" stroke-opacity="0.200000" d="M480.15,-189C491.43,-189 502.82,-189 513.47,-189"/>
<polygon fill="#000000" fill-opacity="0.200000" stroke="#000000" stroke-width="2" stroke-opacity="0.200000" points="513.65,-191.1 519.65,-189 513.65,-186.9 513.65,-191.1"/>
</g>
<!-- src/app/main/organizations/manage/organization&#45;member&#45;item/organization&#45;member&#45;item.component.ts -->
<g id="node3" class="node">
<title>src/app/main/organizations/manage/organization&#45;member&#45;item/organization&#45;member&#45;item.component.ts</title>
<g id="a_node3"><a xlink:href="src/app/main/organizations/manage/organization-member-item/organization-member-item.component.ts" xlink:title="organization&#45;member&#45;item.component.ts">
<path fill="#ddfeff" stroke="black" d="M252,-134C252,-134 62,-134 62,-134 59,-134 56,-131 56,-128 56,-128 56,-122 56,-122 56,-119 59,-116 62,-116 62,-116 252,-116 252,-116 255,-116 258,-119 258,-122 258,-122 258,-128 258,-128 258,-131 255,-134 252,-134"/>
<text text-anchor="start" x="64" y="-122.8" font-family="Helvetica,sans-Serif" font-size="9.00">organization&#45;member&#45;item.component.ts</text>
</a>
</g>
</g>
<!-- src/app/main/organizations/manage/organization&#45;member&#45;item/organization&#45;member&#45;item.component.ts&#45;&gt;src/app/shared/services/organization&#45;member/organization&#45;member.service.ts -->
<g id="edge2" class="edge">
<title>src/app/main/organizations/manage/organization&#45;member&#45;item/organization&#45;member&#45;item.component.ts&#45;&gt;src/app/shared/services/organization&#45;member/organization&#45;member.service.ts</title>
<path fill="none" stroke="#000000" stroke-width="2" stroke-opacity="0.200000" d="M192.16,-134.03C236.26,-145.7 312.91,-165.97 359.78,-178.36"/>
<polygon fill="#000000" fill-opacity="0.200000" stroke="#000000" stroke-width="2" stroke-opacity="0.200000" points="359.29,-180.4 365.62,-179.91 360.36,-176.34 359.29,-180.4"/>
</g>
<!-- src/app/main/organizations/manage/organization&#45;members/organization&#45;members.component.ts -->
<g id="node4" class="node">
<title>src/app/main/organizations/manage/organization&#45;members/organization&#45;members.component.ts</title>
<g id="a_node4"><a xlink:href="src/app/main/organizations/manage/organization-members/organization-members.component.ts" xlink:title="organization&#45;members.component.ts">
<path fill="#ddfeff" stroke="black" d="M243,-74C243,-74 71,-74 71,-74 68,-74 65,-71 65,-68 65,-68 65,-62 65,-62 65,-59 68,-56 71,-56 71,-56 243,-56 243,-56 246,-56 249,-59 249,-62 249,-62 249,-68 249,-68 249,-71 246,-74 243,-74"/>
<text text-anchor="start" x="73" y="-62.8" font-family="Helvetica,sans-Serif" font-size="9.00">organization&#45;members.component.ts</text>
</a>
</g>
</g>
<!-- src/app/main/organizations/manage/organization&#45;members/organization&#45;members.component.ts&#45;&gt;src/app/shared/services/organization&#45;member/organization&#45;member.service.ts -->
<g id="edge3" class="edge">
<title>src/app/main/organizations/manage/organization&#45;members/organization&#45;members.component.ts&#45;&gt;src/app/shared/services/organization&#45;member/organization&#45;member.service.ts</title>
<path fill="none" stroke="#000000" stroke-width="2" stroke-opacity="0.200000" d="M201.71,-74.07C228.17,-80.56 262.08,-90.7 290,-105 328.02,-124.47 366.27,-157.4 386.11,-175.71"/>
<polygon fill="#000000" fill-opacity="0.200000" stroke="#000000" stroke-width="2" stroke-opacity="0.200000" points="384.69,-177.26 390.51,-179.82 387.56,-174.19 384.69,-177.26"/>
</g>
</g>
</svg>
