<?xml version="1.0" encoding="UTF-8" standalone="no"?>
<!DOCTYPE svg PUBLIC "-//W3C//DTD SVG 1.1//EN"
 "http://www.w3.org/Graphics/SVG/1.1/DTD/svg11.dtd">
<!-- Generated by graphviz version 2.43.0 (0)
 -->
<!-- Title: dependency&#45;cruiser output Pages: 1 -->
<svg width="1103pt" height="782pt"
 viewBox="0.00 0.00 1102.50 782.00" xmlns="http://www.w3.org/2000/svg" xmlns:xlink="http://www.w3.org/1999/xlink">
<g id="graph0" class="graph" transform="scale(1 1) rotate(0) translate(4 778)">
<title>dependency&#45;cruiser output</title>
<polygon fill="white" stroke="transparent" points="-4,4 -4,-778 1098.5,-778 1098.5,4 -4,4"/>
<g id="clust1" class="cluster">
<title>cluster_src</title>
<path fill="#ffffff" stroke="black" stroke-width="2" d="M20,-8C20,-8 1074.5,-8 1074.5,-8 1080.5,-8 1086.5,-14 1086.5,-20 1086.5,-20 1086.5,-754 1086.5,-754 1086.5,-760 1080.5,-766 1074.5,-766 1074.5,-766 20,-766 20,-766 14,-766 8,-760 8,-754 8,-754 8,-20 8,-20 8,-14 14,-8 20,-8"/>
<text text-anchor="middle" x="547.25" y="-754.8" font-family="Helvetica,sans-Serif" font-weight="bold" font-size="9.00">src</text>
</g>
<g id="clust2" class="cluster">
<title>cluster_src/app</title>
<path fill="#ffffff" stroke="black" stroke-width="2" d="M28,-16C28,-16 1066.5,-16 1066.5,-16 1072.5,-16 1078.5,-22 1078.5,-28 1078.5,-28 1078.5,-668 1078.5,-668 1078.5,-674 1072.5,-680 1066.5,-680 1066.5,-680 28,-680 28,-680 22,-680 16,-674 16,-668 16,-668 16,-28 16,-28 16,-22 22,-16 28,-16"/>
<text text-anchor="middle" x="547.25" y="-668.8" font-family="Helvetica,sans-Serif" font-weight="bold" font-size="9.00">app</text>
</g>
<g id="clust3" class="cluster">
<title>cluster_src/app/main</title>
<path fill="#ffffff" stroke="black" stroke-width="2" d="M36,-24C36,-24 735.5,-24 735.5,-24 741.5,-24 747.5,-30 747.5,-36 747.5,-36 747.5,-560 747.5,-560 747.5,-566 741.5,-572 735.5,-572 735.5,-572 36,-572 36,-572 30,-572 24,-566 24,-560 24,-560 24,-36 24,-36 24,-30 30,-24 36,-24"/>
<text text-anchor="middle" x="385.75" y="-560.8" font-family="Helvetica,sans-Serif" font-weight="bold" font-size="9.00">main</text>
</g>
<g id="clust4" class="cluster">
<title>cluster_src/app/main/issues</title>
<path fill="#ffffff" stroke="black" stroke-width="2" d="M44,-32C44,-32 727.5,-32 727.5,-32 733.5,-32 739.5,-38 739.5,-44 739.5,-44 739.5,-440 739.5,-440 739.5,-446 733.5,-452 727.5,-452 727.5,-452 44,-452 44,-452 38,-452 32,-446 32,-440 32,-440 32,-44 32,-44 32,-38 38,-32 44,-32"/>
<text text-anchor="middle" x="385.75" y="-440.8" font-family="Helvetica,sans-Serif" font-weight="bold" font-size="9.00">issues</text>
</g>
<g id="clust5" class="cluster">
<title>cluster_src/app/main/issues/board</title>
<path fill="#ffffff" stroke="black" stroke-width="2" d="M61.5,-168C61.5,-168 162.5,-168 162.5,-168 168.5,-168 174.5,-174 174.5,-180 174.5,-180 174.5,-208 174.5,-208 174.5,-214 168.5,-220 162.5,-220 162.5,-220 61.5,-220 61.5,-220 55.5,-220 49.5,-214 49.5,-208 49.5,-208 49.5,-180 49.5,-180 49.5,-174 55.5,-168 61.5,-168"/>
<text text-anchor="middle" x="112" y="-208.8" font-family="Helvetica,sans-Serif" font-weight="bold" font-size="9.00">board</text>
</g>
<g id="clust6" class="cluster">
<title>cluster_src/app/main/issues/edit&#45;issue</title>
<path fill="#ffffff" stroke="black" stroke-width="2" d="M53.5,-228C53.5,-228 170.5,-228 170.5,-228 176.5,-228 182.5,-234 182.5,-240 182.5,-240 182.5,-268 182.5,-268 182.5,-274 176.5,-280 170.5,-280 170.5,-280 53.5,-280 53.5,-280 47.5,-280 41.5,-274 41.5,-268 41.5,-268 41.5,-240 41.5,-240 41.5,-234 47.5,-228 53.5,-228"/>
<text text-anchor="middle" x="112" y="-268.8" font-family="Helvetica,sans-Serif" font-weight="bold" font-size="9.00">edit&#45;issue</text>
</g>
<g id="clust7" class="cluster">
<title>cluster_src/app/main/issues/new&#45;issue</title>
<path fill="#ffffff" stroke="black" stroke-width="2" d="M52.5,-314C52.5,-314 171.5,-314 171.5,-314 177.5,-314 183.5,-320 183.5,-326 183.5,-326 183.5,-354 183.5,-354 183.5,-360 177.5,-366 171.5,-366 171.5,-366 52.5,-366 52.5,-366 46.5,-366 40.5,-360 40.5,-354 40.5,-354 40.5,-326 40.5,-326 40.5,-320 46.5,-314 52.5,-314"/>
<text text-anchor="middle" x="112" y="-354.8" font-family="Helvetica,sans-Serif" font-weight="bold" font-size="9.00">new&#45;issue</text>
</g>
<g id="clust8" class="cluster">
<title>cluster_src/app/main/issues/overview</title>
<path fill="#ffffff" stroke="black" stroke-width="2" d="M55,-374C55,-374 169,-374 169,-374 175,-374 181,-380 181,-386 181,-386 181,-414 181,-414 181,-420 175,-426 169,-426 169,-426 55,-426 55,-426 49,-426 43,-420 43,-414 43,-414 43,-386 43,-386 43,-380 49,-374 55,-374"/>
<text text-anchor="middle" x="112" y="-414.8" font-family="Helvetica,sans-Serif" font-weight="bold" font-size="9.00">overview</text>
</g>
<g id="clust9" class="cluster">
<title>cluster_src/app/main/issues/view&#45;issue</title>
<path fill="#ffffff" stroke="black" stroke-width="2" d="M52,-40C52,-40 719.5,-40 719.5,-40 725.5,-40 731.5,-46 731.5,-52 731.5,-52 731.5,-148 731.5,-148 731.5,-154 725.5,-160 719.5,-160 719.5,-160 52,-160 52,-160 46,-160 40,-154 40,-148 40,-148 40,-52 40,-52 40,-46 46,-40 52,-40"/>
<text text-anchor="middle" x="385.75" y="-148.8" font-family="Helvetica,sans-Serif" font-weight="bold" font-size="9.00">view&#45;issue</text>
</g>
<g id="clust10" class="cluster">
<title>cluster_src/app/main/issues/view&#45;issue/view&#45;comment</title>
<path fill="#ffffff" stroke="black" stroke-width="2" d="M340.5,-48C340.5,-48 711.5,-48 711.5,-48 717.5,-48 723.5,-54 723.5,-60 723.5,-60 723.5,-122 723.5,-122 723.5,-128 717.5,-134 711.5,-134 711.5,-134 340.5,-134 340.5,-134 334.5,-134 328.5,-128 328.5,-122 328.5,-122 328.5,-60 328.5,-60 328.5,-54 334.5,-48 340.5,-48"/>
<text text-anchor="middle" x="526" y="-122.8" font-family="Helvetica,sans-Serif" font-weight="bold" font-size="9.00">view&#45;comment</text>
</g>
<g id="clust11" class="cluster">
<title>cluster_src/app/main/issues/view&#45;issue/view&#45;comment/delete&#45;comment&#45;dialog</title>
<path fill="#ffffff" stroke="black" stroke-width="2" d="M524.5,-56C524.5,-56 703.5,-56 703.5,-56 709.5,-56 715.5,-62 715.5,-68 715.5,-68 715.5,-96 715.5,-96 715.5,-102 709.5,-108 703.5,-108 703.5,-108 524.5,-108 524.5,-108 518.5,-108 512.5,-102 512.5,-96 512.5,-96 512.5,-68 512.5,-68 512.5,-62 518.5,-56 524.5,-56"/>
<text text-anchor="middle" x="614" y="-96.8" font-family="Helvetica,sans-Serif" font-weight="bold" font-size="9.00">delete&#45;comment&#45;dialog</text>
</g>
<g id="clust12" class="cluster">
<title>cluster_src/app/main/issues/view&#45;issue/view</title>
<path fill="#ffffff" stroke="black" stroke-width="2" d="M203.5,-82C203.5,-82 297.5,-82 297.5,-82 303.5,-82 309.5,-88 309.5,-94 309.5,-94 309.5,-122 309.5,-122 309.5,-128 303.5,-134 297.5,-134 297.5,-134 203.5,-134 203.5,-134 197.5,-134 191.5,-128 191.5,-122 191.5,-122 191.5,-94 191.5,-94 191.5,-88 197.5,-82 203.5,-82"/>
<text text-anchor="middle" x="250.5" y="-122.8" font-family="Helvetica,sans-Serif" font-weight="bold" font-size="9.00">view</text>
</g>
<g id="clust13" class="cluster">
<title>cluster_src/app/main/worktime</title>
<path fill="#ffffff" stroke="black" stroke-width="2" d="M329.5,-460C329.5,-460 492.5,-460 492.5,-460 498.5,-460 504.5,-466 504.5,-472 504.5,-472 504.5,-534 504.5,-534 504.5,-540 498.5,-546 492.5,-546 492.5,-546 329.5,-546 329.5,-546 323.5,-546 317.5,-540 317.5,-534 317.5,-534 317.5,-472 317.5,-472 317.5,-466 323.5,-460 329.5,-460"/>
<text text-anchor="middle" x="411" y="-534.8" font-family="Helvetica,sans-Serif" font-weight="bold" font-size="9.00">worktime</text>
</g>
<g id="clust14" class="cluster">
<title>cluster_src/app/main/worktime/worktime&#45;dialog</title>
<path fill="#ffffff" stroke="black" stroke-width="2" d="M337.5,-468C337.5,-468 484.5,-468 484.5,-468 490.5,-468 496.5,-474 496.5,-480 496.5,-480 496.5,-508 496.5,-508 496.5,-514 490.5,-520 484.5,-520 484.5,-520 337.5,-520 337.5,-520 331.5,-520 325.5,-514 325.5,-508 325.5,-508 325.5,-480 325.5,-480 325.5,-474 331.5,-468 337.5,-468"/>
<text text-anchor="middle" x="411" y="-508.8" font-family="Helvetica,sans-Serif" font-weight="bold" font-size="9.00">worktime&#45;dialog</text>
</g>
<g id="clust15" class="cluster">
<title>cluster_src/app/shared</title>
<path fill="#ffffff" stroke="black" stroke-width="2" d="M767.5,-474C767.5,-474 1058.5,-474 1058.5,-474 1064.5,-474 1070.5,-480 1070.5,-486 1070.5,-486 1070.5,-642 1070.5,-642 1070.5,-648 1064.5,-654 1058.5,-654 1058.5,-654 767.5,-654 767.5,-654 761.5,-654 755.5,-648 755.5,-642 755.5,-642 755.5,-486 755.5,-486 755.5,-480 761.5,-474 767.5,-474"/>
<text text-anchor="middle" x="913" y="-642.8" font-family="Helvetica,sans-Serif" font-weight="bold" font-size="9.00">shared</text>
</g>
<g id="clust16" class="cluster">
<title>cluster_src/app/shared/services</title>
<path fill="#ffffff" stroke="black" stroke-width="2" d="M775.5,-482C775.5,-482 914.5,-482 914.5,-482 920.5,-482 926.5,-488 926.5,-494 926.5,-494 926.5,-616 926.5,-616 926.5,-622 920.5,-628 914.5,-628 914.5,-628 775.5,-628 775.5,-628 769.5,-628 763.5,-622 763.5,-616 763.5,-616 763.5,-494 763.5,-494 763.5,-488 769.5,-482 775.5,-482"/>
<text text-anchor="middle" x="845" y="-616.8" font-family="Helvetica,sans-Serif" font-weight="bold" font-size="9.00">services</text>
</g>
<g id="clust17" class="cluster">
<title>cluster_src/app/shared/services/issue&#45;comment</title>
<path fill="#ffffff" stroke="black" stroke-width="2" d="M783.5,-490C783.5,-490 906.5,-490 906.5,-490 912.5,-490 918.5,-496 918.5,-502 918.5,-502 918.5,-530 918.5,-530 918.5,-536 912.5,-542 906.5,-542 906.5,-542 783.5,-542 783.5,-542 777.5,-542 771.5,-536 771.5,-530 771.5,-530 771.5,-502 771.5,-502 771.5,-496 777.5,-490 783.5,-490"/>
<text text-anchor="middle" x="845" y="-530.8" font-family="Helvetica,sans-Serif" font-weight="bold" font-size="9.00">issue&#45;comment</text>
</g>
<g id="clust18" class="cluster">
<title>cluster_src/app/shared/services/issue</title>
<path fill="#ffffff" stroke="black" stroke-width="2" d="M806.5,-550C806.5,-550 883.5,-550 883.5,-550 889.5,-550 895.5,-556 895.5,-562 895.5,-562 895.5,-590 895.5,-590 895.5,-596 889.5,-602 883.5,-602 883.5,-602 806.5,-602 806.5,-602 800.5,-602 794.5,-596 794.5,-590 794.5,-590 794.5,-562 794.5,-562 794.5,-556 800.5,-550 806.5,-550"/>
<text text-anchor="middle" x="845" y="-590.8" font-family="Helvetica,sans-Serif" font-weight="bold" font-size="9.00">issue</text>
</g>
<g id="clust19" class="cluster">
<title>cluster_src/app/shared/utils</title>
<path fill="#ffffff" stroke="black" stroke-width="2" d="M946.5,-542C946.5,-542 1050.5,-542 1050.5,-542 1056.5,-542 1062.5,-548 1062.5,-554 1062.5,-554 1062.5,-616 1062.5,-616 1062.5,-622 1056.5,-628 1050.5,-628 1050.5,-628 946.5,-628 946.5,-628 940.5,-628 934.5,-622 934.5,-616 934.5,-616 934.5,-554 934.5,-554 934.5,-548 940.5,-542 946.5,-542"/>
<text text-anchor="middle" x="998.5" y="-616.8" font-family="Helvetica,sans-Serif" font-weight="bold" font-size="9.00">utils</text>
</g>
<g id="clust20" class="cluster">
<title>cluster_src/app/shared/utils/paramsHandler</title>
<path fill="#ffffff" stroke="black" stroke-width="2" d="M954.5,-550C954.5,-550 1042.5,-550 1042.5,-550 1048.5,-550 1054.5,-556 1054.5,-562 1054.5,-562 1054.5,-590 1054.5,-590 1054.5,-596 1048.5,-602 1042.5,-602 1042.5,-602 954.5,-602 954.5,-602 948.5,-602 942.5,-596 942.5,-590 942.5,-590 942.5,-562 942.5,-562 942.5,-556 948.5,-550 954.5,-550"/>
<text text-anchor="middle" x="998.5" y="-590.8" font-family="Helvetica,sans-Serif" font-weight="bold" font-size="9.00">paramsHandler</text>
</g>
<g id="clust21" class="cluster">
<title>cluster_src/environments</title>
<path fill="#ffffff" stroke="black" stroke-width="2" d="M959.5,-688C959.5,-688 1037.5,-688 1037.5,-688 1043.5,-688 1049.5,-694 1049.5,-700 1049.5,-700 1049.5,-728 1049.5,-728 1049.5,-734 1043.5,-740 1037.5,-740 1037.5,-740 959.5,-740 959.5,-740 953.5,-740 947.5,-734 947.5,-728 947.5,-728 947.5,-700 947.5,-700 947.5,-694 953.5,-688 959.5,-688"/>
<text text-anchor="middle" x="998.5" y="-728.8" font-family="Helvetica,sans-Serif" font-weight="bold" font-size="9.00">environments</text>
</g>
<!-- src/app/main/issues/board/board.component.ts -->
<g id="node1" class="node">
<title>src/app/main/issues/board/board.component.ts</title>
<g id="a_node1"><a xlink:href="src/app/main/issues/board/board.component.ts" xlink:title="board.component.ts">
<path fill="#ddfeff" stroke="black" d="M160.5,-194C160.5,-194 63.5,-194 63.5,-194 60.5,-194 57.5,-191 57.5,-188 57.5,-188 57.5,-182 57.5,-182 57.5,-179 60.5,-176 63.5,-176 63.5,-176 160.5,-176 160.5,-176 163.5,-176 166.5,-179 166.5,-182 166.5,-182 166.5,-188 166.5,-188 166.5,-191 163.5,-194 160.5,-194"/>
<text text-anchor="start" x="65.5" y="-182.8" font-family="Helvetica,sans-Serif" font-size="9.00">board.component.ts</text>
</a>
</g>
</g>
<!-- src/app/shared/services/issue/issue.service.ts -->
<g id="node2" class="node">
<title>src/app/shared/services/issue/issue.service.ts</title>
<g id="a_node2"><a xlink:href="src/app/shared/services/issue/issue.service.ts" xlink:title="issue.service.ts">
<path fill="#ddfeff" stroke="black" d="M881.5,-576C881.5,-576 808.5,-576 808.5,-576 805.5,-576 802.5,-573 802.5,-570 802.5,-570 802.5,-564 802.5,-564 802.5,-561 805.5,-558 808.5,-558 808.5,-558 881.5,-558 881.5,-558 884.5,-558 887.5,-561 887.5,-564 887.5,-564 887.5,-570 887.5,-570 887.5,-573 884.5,-576 881.5,-576"/>
<text text-anchor="start" x="810.5" y="-564.8" font-family="Helvetica,sans-Serif" font-size="9.00">issue.service.ts</text>
</a>
</g>
</g>
<!-- src/app/main/issues/board/board.component.ts&#45;&gt;src/app/shared/services/issue/issue.service.ts -->
<g id="edge1" class="edge">
<title>src/app/main/issues/board/board.component.ts&#45;&gt;src/app/shared/services/issue/issue.service.ts</title>
<path fill="none" stroke="#000000" stroke-width="2" stroke-opacity="0.200000" d="M143.13,-194.14C158,-200.33 174.62,-210.14 183.5,-225 193.81,-242.27 177.12,-572.93 191.5,-587 213.58,-608.6 716.77,-590.15 747.5,-587 765.84,-585.12 785.84,-581.28 802.85,-577.46"/>
<polygon fill="#000000" fill-opacity="0.200000" stroke="#000000" stroke-width="2" stroke-opacity="0.200000" points="803.6,-579.44 808.98,-576.06 802.66,-575.35 803.6,-579.44"/>
</g>
<!-- src/environments/environment.ts -->
<g id="node13" class="node">
<title>src/environments/environment.ts</title>
<g id="a_node13"><a xlink:href="src/environments/environment.ts" xlink:title="environment.ts">
<path fill="#ddfeff" stroke="black" d="M1035.5,-714C1035.5,-714 961.5,-714 961.5,-714 958.5,-714 955.5,-711 955.5,-708 955.5,-708 955.5,-702 955.5,-702 955.5,-699 958.5,-696 961.5,-696 961.5,-696 1035.5,-696 1035.5,-696 1038.5,-696 1041.5,-699 1041.5,-702 1041.5,-702 1041.5,-708 1041.5,-708 1041.5,-711 1038.5,-714 1035.5,-714"/>
<text text-anchor="start" x="963.5" y="-702.8" font-family="Helvetica,sans-Serif" font-size="9.00">environment.ts</text>
</a>
</g>
</g>
<!-- src/app/shared/services/issue/issue.service.ts&#45;&gt;src/environments/environment.ts -->
<g id="edge17" class="edge">
<title>src/app/shared/services/issue/issue.service.ts&#45;&gt;src/environments/environment.ts</title>
<path fill="none" stroke="#000000" stroke-width="2" stroke-opacity="0.200000" d="M855.94,-576.05C881.93,-599.73 952.03,-663.59 982.75,-691.56"/>
<polygon fill="#000000" fill-opacity="0.200000" stroke="#000000" stroke-width="2" stroke-opacity="0.200000" points="981.47,-693.24 987.32,-695.73 984.3,-690.14 981.47,-693.24"/>
</g>
<!-- src/app/shared/utils/paramsHandler/paramsHandler.ts -->
<g id="node14" class="node">
<title>src/app/shared/utils/paramsHandler/paramsHandler.ts</title>
<g id="a_node14"><a xlink:href="src/app/shared/utils/paramsHandler/paramsHandler.ts" xlink:title="paramsHandler.ts">
<path fill="#ddfeff" stroke="black" d="M1040.5,-576C1040.5,-576 956.5,-576 956.5,-576 953.5,-576 950.5,-573 950.5,-570 950.5,-570 950.5,-564 950.5,-564 950.5,-561 953.5,-558 956.5,-558 956.5,-558 1040.5,-558 1040.5,-558 1043.5,-558 1046.5,-561 1046.5,-564 1046.5,-564 1046.5,-570 1046.5,-570 1046.5,-573 1043.5,-576 1040.5,-576"/>
<text text-anchor="start" x="958.5" y="-564.8" font-family="Helvetica,sans-Serif" font-size="9.00">paramsHandler.ts</text>
</a>
</g>
</g>
<!-- src/app/shared/services/issue/issue.service.ts&#45;&gt;src/app/shared/utils/paramsHandler/paramsHandler.ts -->
<g id="edge18" class="edge">
<title>src/app/shared/services/issue/issue.service.ts&#45;&gt;src/app/shared/utils/paramsHandler/paramsHandler.ts</title>
<path fill="none" stroke="#000000" stroke-width="2" stroke-opacity="0.200000" d="M887.8,-567C905.19,-567 925.59,-567 944.05,-567"/>
<polygon fill="#000000" fill-opacity="0.200000" stroke="#000000" stroke-width="2" stroke-opacity="0.200000" points="944.23,-569.1 950.23,-567 944.23,-564.9 944.23,-569.1"/>
</g>
<!-- src/app/main/issues/edit&#45;issue/edit&#45;issue.component.ts -->
<g id="node3" class="node">
<title>src/app/main/issues/edit&#45;issue/edit&#45;issue.component.ts</title>
<g id="a_node3"><a xlink:href="src/app/main/issues/edit-issue/edit-issue.component.ts" xlink:title="edit&#45;issue.component.ts">
<path fill="#ddfeff" stroke="black" d="M168.5,-254C168.5,-254 55.5,-254 55.5,-254 52.5,-254 49.5,-251 49.5,-248 49.5,-248 49.5,-242 49.5,-242 49.5,-239 52.5,-236 55.5,-236 55.5,-236 168.5,-236 168.5,-236 171.5,-236 174.5,-239 174.5,-242 174.5,-242 174.5,-248 174.5,-248 174.5,-251 171.5,-254 168.5,-254"/>
<text text-anchor="start" x="57.5" y="-242.8" font-family="Helvetica,sans-Serif" font-size="9.00">edit&#45;issue.component.ts</text>
</a>
</g>
</g>
<!-- src/app/main/issues/edit&#45;issue/edit&#45;issue.component.ts&#45;&gt;src/app/shared/services/issue/issue.service.ts -->
<g id="edge2" class="edge">
<title>src/app/main/issues/edit&#45;issue/edit&#45;issue.component.ts&#45;&gt;src/app/shared/services/issue/issue.service.ts</title>
<path fill="none" stroke="#000000" stroke-width="2" stroke-opacity="0.200000" d="M174.54,-250.48C177.88,-252.49 180.92,-254.97 183.5,-258 195.86,-272.51 177.87,-587.68 191.5,-601 213.59,-622.59 717.05,-606.21 747.5,-601 772.57,-596.71 799.79,-586.58 818.9,-578.49"/>
<polygon fill="#000000" fill-opacity="0.200000" stroke="#000000" stroke-width="2" stroke-opacity="0.200000" points="819.88,-580.35 824.56,-576.05 818.22,-576.5 819.88,-580.35"/>
</g>
<!-- src/app/main/issues/issues.component.ts -->
<g id="node4" class="node">
<title>src/app/main/issues/issues.component.ts</title>
<g id="a_node4"><a xlink:href="src/app/main/issues/issues.component.ts" xlink:title="issues.component.ts">
<path fill="#ddfeff" stroke="black" d="M161,-306C161,-306 63,-306 63,-306 60,-306 57,-303 57,-300 57,-300 57,-294 57,-294 57,-291 60,-288 63,-288 63,-288 161,-288 161,-288 164,-288 167,-291 167,-294 167,-294 167,-300 167,-300 167,-303 164,-306 161,-306"/>
<text text-anchor="start" x="65" y="-294.8" font-family="Helvetica,sans-Serif" font-size="9.00">issues.component.ts</text>
</a>
</g>
</g>
<!-- src/app/main/issues/issues.component.ts&#45;&gt;src/app/shared/services/issue/issue.service.ts -->
<g id="edge3" class="edge">
<title>src/app/main/issues/issues.component.ts&#45;&gt;src/app/shared/services/issue/issue.service.ts</title>
<path fill="none" stroke="#000000" stroke-width="2" stroke-opacity="0.200000" d="M167.3,-299.77C173.51,-302.25 179.16,-305.85 183.5,-311 194.39,-323.92 179.4,-603.21 191.5,-615 213.63,-636.55 717.43,-622.07 747.5,-615 776.39,-608.21 806.52,-591.41 825.27,-579.61"/>
<polygon fill="#000000" fill-opacity="0.200000" stroke="#000000" stroke-width="2" stroke-opacity="0.200000" points="826.79,-581.13 830.7,-576.13 824.52,-577.6 826.79,-581.13"/>
</g>
<!-- src/app/main/issues/new&#45;issue/new&#45;issue.component.ts -->
<g id="node5" class="node">
<title>src/app/main/issues/new&#45;issue/new&#45;issue.component.ts</title>
<g id="a_node5"><a xlink:href="src/app/main/issues/new-issue/new-issue.component.ts" xlink:title="new&#45;issue.component.ts">
<path fill="#ddfeff" stroke="black" d="M169.5,-340C169.5,-340 54.5,-340 54.5,-340 51.5,-340 48.5,-337 48.5,-334 48.5,-334 48.5,-328 48.5,-328 48.5,-325 51.5,-322 54.5,-322 54.5,-322 169.5,-322 169.5,-322 172.5,-322 175.5,-325 175.5,-328 175.5,-328 175.5,-334 175.5,-334 175.5,-337 172.5,-340 169.5,-340"/>
<text text-anchor="start" x="56.5" y="-328.8" font-family="Helvetica,sans-Serif" font-size="9.00">new&#45;issue.component.ts</text>
</a>
</g>
</g>
<!-- src/app/main/issues/new&#45;issue/new&#45;issue.component.ts&#45;&gt;src/app/shared/services/issue/issue.service.ts -->
<g id="edge4" class="edge">
<title>src/app/main/issues/new&#45;issue/new&#45;issue.component.ts&#45;&gt;src/app/shared/services/issue/issue.service.ts</title>
<path fill="none" stroke="#000000" stroke-width="2" stroke-opacity="0.200000" d="M142.71,-340.02C157.66,-346.21 174.49,-356.06 183.5,-371 190.91,-383.28 181.2,-619.02 191.5,-629 213.68,-650.5 717.86,-637.7 747.5,-629 779.98,-619.46 811.88,-595.25 829.65,-580.06"/>
<polygon fill="#000000" fill-opacity="0.200000" stroke="#000000" stroke-width="2" stroke-opacity="0.200000" points="831.13,-581.56 834.27,-576.03 828.37,-578.39 831.13,-581.56"/>
</g>
<!-- src/app/main/issues/overview/overview.component.ts -->
<g id="node6" class="node">
<title>src/app/main/issues/overview/overview.component.ts</title>
<g id="a_node6"><a xlink:href="src/app/main/issues/overview/overview.component.ts" xlink:title="overview.component.ts">
<path fill="#ddfeff" stroke="black" d="M167,-400C167,-400 57,-400 57,-400 54,-400 51,-397 51,-394 51,-394 51,-388 51,-388 51,-385 54,-382 57,-382 57,-382 167,-382 167,-382 170,-382 173,-385 173,-388 173,-388 173,-394 173,-394 173,-397 170,-400 167,-400"/>
<text text-anchor="start" x="59" y="-388.8" font-family="Helvetica,sans-Serif" font-size="9.00">overview.component.ts</text>
</a>
</g>
</g>
<!-- src/app/main/issues/overview/overview.component.ts&#45;&gt;src/app/shared/services/issue/issue.service.ts -->
<g id="edge5" class="edge">
<title>src/app/main/issues/overview/overview.component.ts&#45;&gt;src/app/shared/services/issue/issue.service.ts</title>
<path fill="none" stroke="#000000" stroke-width="2" stroke-opacity="0.200000" d="M114.39,-400.12C120.93,-441.7 150.07,-612.51 191.5,-643 390.53,-789.46 514.01,-723.91 747.5,-643 783.05,-630.68 815.43,-599.25 832.13,-580.9"/>
<polygon fill="#000000" fill-opacity="0.200000" stroke="#000000" stroke-width="2" stroke-opacity="0.200000" points="833.98,-581.97 836.41,-576.09 830.85,-579.17 833.98,-581.97"/>
</g>
<!-- src/app/main/issues/view&#45;issue/view&#45;comment/delete&#45;comment&#45;dialog/delete&#45;comment&#45;dialog.component.ts -->
<g id="node7" class="node">
<title>src/app/main/issues/view&#45;issue/view&#45;comment/delete&#45;comment&#45;dialog/delete&#45;comment&#45;dialog.component.ts</title>
<g id="a_node7"><a xlink:href="src/app/main/issues/view-issue/view-comment/delete-comment-dialog/delete-comment-dialog.component.ts" xlink:title="delete&#45;comment&#45;dialog.component.ts">
<path fill="#ddfeff" stroke="black" d="M701.5,-82C701.5,-82 526.5,-82 526.5,-82 523.5,-82 520.5,-79 520.5,-76 520.5,-76 520.5,-70 520.5,-70 520.5,-67 523.5,-64 526.5,-64 526.5,-64 701.5,-64 701.5,-64 704.5,-64 707.5,-67 707.5,-70 707.5,-70 707.5,-76 707.5,-76 707.5,-79 704.5,-82 701.5,-82"/>
<text text-anchor="start" x="528.5" y="-70.8" font-family="Helvetica,sans-Serif" font-size="9.00">delete&#45;comment&#45;dialog.component.ts</text>
</a>
</g>
</g>
<!-- src/app/shared/services/issue&#45;comment/issue&#45;comment.service.ts -->
<g id="node8" class="node">
<title>src/app/shared/services/issue&#45;comment/issue&#45;comment.service.ts</title>
<g id="a_node8"><a xlink:href="src/app/shared/services/issue-comment/issue-comment.service.ts" xlink:title="issue&#45;comment.service.ts">
<path fill="#ddfeff" stroke="black" d="M904.5,-516C904.5,-516 785.5,-516 785.5,-516 782.5,-516 779.5,-513 779.5,-510 779.5,-510 779.5,-504 779.5,-504 779.5,-501 782.5,-498 785.5,-498 785.5,-498 904.5,-498 904.5,-498 907.5,-498 910.5,-501 910.5,-504 910.5,-504 910.5,-510 910.5,-510 910.5,-513 907.5,-516 904.5,-516"/>
<text text-anchor="start" x="787.5" y="-504.8" font-family="Helvetica,sans-Serif" font-size="9.00">issue&#45;comment.service.ts</text>
</a>
</g>
</g>
<!-- src/app/main/issues/view&#45;issue/view&#45;comment/delete&#45;comment&#45;dialog/delete&#45;comment&#45;dialog.component.ts&#45;&gt;src/app/shared/services/issue&#45;comment/issue&#45;comment.service.ts -->
<g id="edge6" class="edge">
<title>src/app/main/issues/view&#45;issue/view&#45;comment/delete&#45;comment&#45;dialog/delete&#45;comment&#45;dialog.component.ts&#45;&gt;src/app/shared/services/issue&#45;comment/issue&#45;comment.service.ts</title>
<path fill="none" stroke="#000000" stroke-width="2" stroke-opacity="0.200000" d="M620.51,-82.29C639.08,-113.67 700.78,-218.79 747.5,-308 783.05,-375.88 821.82,-458.87 837.18,-492.15"/>
<polygon fill="#000000" fill-opacity="0.200000" stroke="#000000" stroke-width="2" stroke-opacity="0.200000" points="835.36,-493.2 839.77,-497.78 839.17,-491.45 835.36,-493.2"/>
</g>
<!-- src/app/shared/services/issue&#45;comment/issue&#45;comment.service.ts&#45;&gt;src/environments/environment.ts -->
<g id="edge16" class="edge">
<title>src/app/shared/services/issue&#45;comment/issue&#45;comment.service.ts&#45;&gt;src/environments/environment.ts</title>
<path fill="none" stroke="#000000" stroke-width="2" stroke-opacity="0.200000" d="M881.17,-516.15C897.5,-522.22 915.66,-531.92 926.5,-547 941.69,-568.13 925.59,-580.55 934.5,-605 946.71,-638.48 971.35,-672.56 985.93,-691.01"/>
<polygon fill="#000000" fill-opacity="0.200000" stroke="#000000" stroke-width="2" stroke-opacity="0.200000" points="984.37,-692.42 989.76,-695.79 987.65,-689.8 984.37,-692.42"/>
</g>
<!-- src/app/main/issues/view&#45;issue/view&#45;comment/view&#45;comment.component.ts -->
<g id="node9" class="node">
<title>src/app/main/issues/view&#45;issue/view&#45;comment/view&#45;comment.component.ts</title>
<g id="a_node9"><a xlink:href="src/app/main/issues/view-issue/view-comment/view-comment.component.ts" xlink:title="view&#45;comment.component.ts">
<path fill="#ddfeff" stroke="black" d="M479.5,-108C479.5,-108 342.5,-108 342.5,-108 339.5,-108 336.5,-105 336.5,-102 336.5,-102 336.5,-96 336.5,-96 336.5,-93 339.5,-90 342.5,-90 342.5,-90 479.5,-90 479.5,-90 482.5,-90 485.5,-93 485.5,-96 485.5,-96 485.5,-102 485.5,-102 485.5,-105 482.5,-108 479.5,-108"/>
<text text-anchor="start" x="344.5" y="-96.8" font-family="Helvetica,sans-Serif" font-size="9.00">view&#45;comment.component.ts</text>
</a>
</g>
</g>
<!-- src/app/main/issues/view&#45;issue/view&#45;comment/view&#45;comment.component.ts&#45;&gt;src/app/main/issues/view&#45;issue/view&#45;comment/delete&#45;comment&#45;dialog/delete&#45;comment&#45;dialog.component.ts -->
<g id="edge8" class="edge">
<title>src/app/main/issues/view&#45;issue/view&#45;comment/view&#45;comment.component.ts&#45;&gt;src/app/main/issues/view&#45;issue/view&#45;comment/delete&#45;comment&#45;dialog/delete&#45;comment&#45;dialog.component.ts</title>
<path fill="none" stroke="#000000" stroke-width="2" stroke-opacity="0.200000" d="M481.74,-89.98C499.67,-87.66 519.04,-85.15 537.26,-82.8"/>
<polygon fill="#000000" fill-opacity="0.200000" stroke="#000000" stroke-width="2" stroke-opacity="0.200000" points="537.71,-84.86 543.39,-82 537.17,-80.69 537.71,-84.86"/>
</g>
<!-- src/app/main/issues/view&#45;issue/view&#45;comment/view&#45;comment.component.ts&#45;&gt;src/app/shared/services/issue&#45;comment/issue&#45;comment.service.ts -->
<g id="edge7" class="edge">
<title>src/app/main/issues/view&#45;issue/view&#45;comment/view&#45;comment.component.ts&#45;&gt;src/app/shared/services/issue&#45;comment/issue&#45;comment.service.ts</title>
<path fill="none" stroke="#000000" stroke-width="2" stroke-opacity="0.200000" d="M421.83,-108.29C478.5,-161.8 763.11,-430.61 829.94,-493.72"/>
<polygon fill="#000000" fill-opacity="0.200000" stroke="#000000" stroke-width="2" stroke-opacity="0.200000" points="828.56,-495.31 834.37,-497.9 831.45,-492.26 828.56,-495.31"/>
</g>
<!-- src/app/main/issues/view&#45;issue/view&#45;issue.component.ts -->
<g id="node10" class="node">
<title>src/app/main/issues/view&#45;issue/view&#45;issue.component.ts</title>
<g id="a_node10"><a xlink:href="src/app/main/issues/view-issue/view-issue.component.ts" xlink:title="view&#45;issue.component.ts">
<path fill="#ddfeff" stroke="black" d="M170,-121C170,-121 54,-121 54,-121 51,-121 48,-118 48,-115 48,-115 48,-109 48,-109 48,-106 51,-103 54,-103 54,-103 170,-103 170,-103 173,-103 176,-106 176,-109 176,-109 176,-115 176,-115 176,-118 173,-121 170,-121"/>
<text text-anchor="start" x="56" y="-109.8" font-family="Helvetica,sans-Serif" font-size="9.00">view&#45;issue.component.ts</text>
</a>
</g>
</g>
<!-- src/app/main/issues/view&#45;issue/view&#45;issue.component.ts&#45;&gt;src/app/shared/services/issue/issue.service.ts -->
<g id="edge9" class="edge">
<title>src/app/main/issues/view&#45;issue/view&#45;issue.component.ts&#45;&gt;src/app/shared/services/issue/issue.service.ts</title>
<path fill="none" stroke="#000000" stroke-width="2" stroke-opacity="0.200000" d="M130.45,-121.09C146.37,-130.21 169.48,-145.66 183.5,-165 291.83,-314.4 171.37,-445.3 317.5,-558 355.35,-587.19 699.71,-573.24 747.5,-572 763.34,-571.59 780.63,-570.8 796.14,-569.97"/>
<polygon fill="#000000" fill-opacity="0.200000" stroke="#000000" stroke-width="2" stroke-opacity="0.200000" points="796.34,-572.06 802.22,-569.64 796.11,-567.87 796.34,-572.06"/>
</g>
<!-- src/app/main/issues/view&#45;issue/view/view.component.ts -->
<g id="node11" class="node">
<title>src/app/main/issues/view&#45;issue/view/view.component.ts</title>
<g id="a_node11"><a xlink:href="src/app/main/issues/view-issue/view/view.component.ts" xlink:title="view.component.ts">
<path fill="#ddfeff" stroke="black" d="M295.5,-108C295.5,-108 205.5,-108 205.5,-108 202.5,-108 199.5,-105 199.5,-102 199.5,-102 199.5,-96 199.5,-96 199.5,-93 202.5,-90 205.5,-90 205.5,-90 295.5,-90 295.5,-90 298.5,-90 301.5,-93 301.5,-96 301.5,-96 301.5,-102 301.5,-102 301.5,-105 298.5,-108 295.5,-108"/>
<text text-anchor="start" x="207.5" y="-96.8" font-family="Helvetica,sans-Serif" font-size="9.00">view.component.ts</text>
</a>
</g>
</g>
<!-- src/app/main/issues/view&#45;issue/view&#45;issue.component.ts&#45;&gt;src/app/main/issues/view&#45;issue/view/view.component.ts -->
<g id="edge10" class="edge">
<title>src/app/main/issues/view&#45;issue/view&#45;issue.component.ts&#45;&gt;src/app/main/issues/view&#45;issue/view/view.component.ts</title>
<path fill="none" stroke="#000000" stroke-width="2" stroke-opacity="0.200000" d="M176.06,-105.99C181.8,-105.45 187.6,-104.9 193.28,-104.35"/>
<polygon fill="#000000" fill-opacity="0.200000" stroke="#000000" stroke-width="2" stroke-opacity="0.200000" points="193.61,-106.43 199.39,-103.77 193.21,-102.25 193.61,-106.43"/>
</g>
<!-- src/app/main/issues/view&#45;issue/view/view.component.ts&#45;&gt;src/app/shared/services/issue/issue.service.ts -->
<g id="edge12" class="edge">
<title>src/app/main/issues/view&#45;issue/view/view.component.ts&#45;&gt;src/app/shared/services/issue/issue.service.ts</title>
<path fill="none" stroke="#000000" stroke-width="2" stroke-opacity="0.200000" d="M251.37,-108.36C250.75,-166.83 250.6,-481.5 317.5,-542 352.5,-573.65 672.91,-570.53 796.07,-568.12"/>
<polygon fill="#000000" fill-opacity="0.200000" stroke="#000000" stroke-width="2" stroke-opacity="0.200000" points="796.18,-570.22 802.14,-568 796.1,-566.02 796.18,-570.22"/>
</g>
<!-- src/app/main/issues/view&#45;issue/view/view.component.ts&#45;&gt;src/app/shared/services/issue&#45;comment/issue&#45;comment.service.ts -->
<g id="edge11" class="edge">
<title>src/app/main/issues/view&#45;issue/view/view.component.ts&#45;&gt;src/app/shared/services/issue&#45;comment/issue&#45;comment.service.ts</title>
<path fill="none" stroke="#000000" stroke-width="2" stroke-opacity="0.200000" d="M251.4,-108.37C250.99,-165.54 252,-466.91 317.5,-523 387.27,-582.75 671.8,-538.86 791.03,-517.21"/>
<polygon fill="#000000" fill-opacity="0.200000" stroke="#000000" stroke-width="2" stroke-opacity="0.200000" points="791.75,-519.21 797.27,-516.07 790.99,-515.08 791.75,-519.21"/>
</g>
<!-- src/app/main/issues/view&#45;issue/view/view.component.ts&#45;&gt;src/app/main/issues/view&#45;issue/view&#45;comment/view&#45;comment.component.ts -->
<g id="edge14" class="edge">
<title>src/app/main/issues/view&#45;issue/view/view.component.ts&#45;&gt;src/app/main/issues/view&#45;issue/view&#45;comment/view&#45;comment.component.ts</title>
<path fill="none" stroke="#000000" stroke-width="2" stroke-opacity="0.200000" d="M301.65,-99C310.81,-99 320.58,-99 330.35,-99"/>
<polygon fill="#000000" fill-opacity="0.200000" stroke="#000000" stroke-width="2" stroke-opacity="0.200000" points="330.43,-101.1 336.43,-99 330.43,-96.9 330.43,-101.1"/>
</g>
<!-- src/app/main/worktime/worktime&#45;dialog/worktime&#45;dialog.component.ts -->
<g id="node12" class="node">
<title>src/app/main/worktime/worktime&#45;dialog/worktime&#45;dialog.component.ts</title>
<g id="a_node12"><a xlink:href="src/app/main/worktime/worktime-dialog/worktime-dialog.component.ts" xlink:title="worktime&#45;dialog.component.ts">
<path fill="#ddfeff" stroke="black" d="M482.5,-494C482.5,-494 339.5,-494 339.5,-494 336.5,-494 333.5,-491 333.5,-488 333.5,-488 333.5,-482 333.5,-482 333.5,-479 336.5,-476 339.5,-476 339.5,-476 482.5,-476 482.5,-476 485.5,-476 488.5,-479 488.5,-482 488.5,-482 488.5,-488 488.5,-488 488.5,-491 485.5,-494 482.5,-494"/>
<text text-anchor="start" x="341.5" y="-482.8" font-family="Helvetica,sans-Serif" font-size="9.00">worktime&#45;dialog.component.ts</text>
</a>
</g>
</g>
<!-- src/app/main/issues/view&#45;issue/view/view.component.ts&#45;&gt;src/app/main/worktime/worktime&#45;dialog/worktime&#45;dialog.component.ts -->
<g id="edge13" class="edge">
<title>src/app/main/issues/view&#45;issue/view/view.component.ts&#45;&gt;src/app/main/worktime/worktime&#45;dialog/worktime&#45;dialog.component.ts</title>
<path fill="none" stroke="#000000" stroke-width="2" stroke-opacity="0.200000" d="M255.26,-108.16C276.11,-158.93 377.49,-405.82 403.77,-469.82"/>
<polygon fill="#000000" fill-opacity="0.200000" stroke="#000000" stroke-width="2" stroke-opacity="0.200000" points="401.98,-471 406.2,-475.75 405.87,-469.41 401.98,-471"/>
</g>
<!-- src/app/main/worktime/worktime&#45;dialog/worktime&#45;dialog.component.ts&#45;&gt;src/app/shared/services/issue/issue.service.ts -->
<g id="edge15" class="edge">
<title>src/app/main/worktime/worktime&#45;dialog/worktime&#45;dialog.component.ts&#45;&gt;src/app/shared/services/issue/issue.service.ts</title>
<path fill="none" stroke="#000000" stroke-width="2" stroke-opacity="0.200000" d="M459.47,-494.01C542.43,-509.76 712.9,-542.12 796.14,-557.92"/>
<polygon fill="#000000" fill-opacity="0.200000" stroke="#000000" stroke-width="2" stroke-opacity="0.200000" points="795.94,-560.01 802.23,-559.07 796.72,-555.89 795.94,-560.01"/>
</g>
</g>
</svg>
