<?xml version="1.0" encoding="UTF-8" standalone="no"?>
<!DOCTYPE svg PUBLIC "-//W3C//DTD SVG 1.1//EN"
 "http://www.w3.org/Graphics/SVG/1.1/DTD/svg11.dtd">
<!-- Generated by graphviz version 2.43.0 (0)
 -->
<!-- Title: dependency&#45;cruiser output Pages: 1 -->
<svg width="389pt" height="374pt"
 viewBox="0.00 0.00 388.50 374.00" xmlns="http://www.w3.org/2000/svg" xmlns:xlink="http://www.w3.org/1999/xlink">
<g id="graph0" class="graph" transform="scale(1 1) rotate(0) translate(4 370)">
<title>dependency&#45;cruiser output</title>
<polygon fill="white" stroke="transparent" points="-4,4 -4,-370 384.5,-370 384.5,4 -4,4"/>
<g id="clust1" class="cluster">
<title>cluster_src</title>
<path fill="#ffffff" stroke="black" stroke-width="2" d="M20,-8C20,-8 360.5,-8 360.5,-8 366.5,-8 372.5,-14 372.5,-20 372.5,-20 372.5,-346 372.5,-346 372.5,-352 366.5,-358 360.5,-358 360.5,-358 20,-358 20,-358 14,-358 8,-352 8,-346 8,-346 8,-20 8,-20 8,-14 14,-8 20,-8"/>
<text text-anchor="middle" x="190.25" y="-346.8" font-family="Helvetica,sans-Serif" font-weight="bold" font-size="9.00">src</text>
</g>
<g id="clust2" class="cluster">
<title>cluster_src/app</title>
<path fill="#ffffff" stroke="black" stroke-width="2" d="M28,-16C28,-16 352.5,-16 352.5,-16 358.5,-16 364.5,-22 364.5,-28 364.5,-28 364.5,-320 364.5,-320 364.5,-326 358.5,-332 352.5,-332 352.5,-332 28,-332 28,-332 22,-332 16,-326 16,-320 16,-320 16,-28 16,-28 16,-22 22,-16 28,-16"/>
<text text-anchor="middle" x="190.25" y="-320.8" font-family="Helvetica,sans-Serif" font-weight="bold" font-size="9.00">app</text>
</g>
<g id="clust3" class="cluster">
<title>cluster_src/app/common</title>
<path fill="#ffffff" stroke="black" stroke-width="2" d="M36,-186C36,-186 344.5,-186 344.5,-186 350.5,-186 356.5,-192 356.5,-198 356.5,-198 356.5,-294 356.5,-294 356.5,-300 350.5,-306 344.5,-306 344.5,-306 36,-306 36,-306 30,-306 24,-300 24,-294 24,-294 24,-198 24,-198 24,-192 30,-186 36,-186"/>
<text text-anchor="middle" x="190.25" y="-294.8" font-family="Helvetica,sans-Serif" font-weight="bold" font-size="9.00">common</text>
</g>
<g id="clust4" class="cluster">
<title>cluster_src/app/common/form</title>
<path fill="#ffffff" stroke="black" stroke-width="2" d="M44,-194C44,-194 181,-194 181,-194 187,-194 193,-200 193,-206 193,-206 193,-268 193,-268 193,-274 187,-280 181,-280 181,-280 44,-280 44,-280 38,-280 32,-274 32,-268 32,-268 32,-206 32,-206 32,-200 38,-194 44,-194"/>
<text text-anchor="middle" x="112.5" y="-268.8" font-family="Helvetica,sans-Serif" font-weight="bold" font-size="9.00">form</text>
</g>
<g id="clust5" class="cluster">
<title>cluster_src/app/common/form/issue&#45;form</title>
<path fill="#ffffff" stroke="black" stroke-width="2" d="M52,-202C52,-202 173,-202 173,-202 179,-202 185,-208 185,-214 185,-214 185,-242 185,-242 185,-248 179,-254 173,-254 173,-254 52,-254 52,-254 46,-254 40,-248 40,-242 40,-242 40,-214 40,-214 40,-208 46,-202 52,-202"/>
<text text-anchor="middle" x="112.5" y="-242.8" font-family="Helvetica,sans-Serif" font-weight="bold" font-size="9.00">issue&#45;form</text>
</g>
<g id="clust6" class="cluster">
<title>cluster_src/app/common/text&#45;editor</title>
<path fill="#ffffff" stroke="black" stroke-width="2" d="M215.5,-198C215.5,-198 336.5,-198 336.5,-198 342.5,-198 348.5,-204 348.5,-210 348.5,-210 348.5,-238 348.5,-238 348.5,-244 342.5,-250 336.5,-250 336.5,-250 215.5,-250 215.5,-250 209.5,-250 203.5,-244 203.5,-238 203.5,-238 203.5,-210 203.5,-210 203.5,-204 209.5,-198 215.5,-198"/>
<text text-anchor="middle" x="276" y="-238.8" font-family="Helvetica,sans-Serif" font-weight="bold" font-size="9.00">text&#45;editor</text>
</g>
<g id="clust7" class="cluster">
<title>cluster_src/app/main</title>
<path fill="#ffffff" stroke="black" stroke-width="2" d="M41.5,-24C41.5,-24 183.5,-24 183.5,-24 189.5,-24 195.5,-30 195.5,-36 195.5,-36 195.5,-166 195.5,-166 195.5,-172 189.5,-178 183.5,-178 183.5,-178 41.5,-178 41.5,-178 35.5,-178 29.5,-172 29.5,-166 29.5,-166 29.5,-36 29.5,-36 29.5,-30 35.5,-24 41.5,-24"/>
<text text-anchor="middle" x="112.5" y="-166.8" font-family="Helvetica,sans-Serif" font-weight="bold" font-size="9.00">main</text>
</g>
<g id="clust8" class="cluster">
<title>cluster_src/app/main/issues</title>
<path fill="#ffffff" stroke="black" stroke-width="2" d="M49.5,-32C49.5,-32 175.5,-32 175.5,-32 181.5,-32 187.5,-38 187.5,-44 187.5,-44 187.5,-140 187.5,-140 187.5,-146 181.5,-152 175.5,-152 175.5,-152 49.5,-152 49.5,-152 43.5,-152 37.5,-146 37.5,-140 37.5,-140 37.5,-44 37.5,-44 37.5,-38 43.5,-32 49.5,-32"/>
<text text-anchor="middle" x="112.5" y="-140.8" font-family="Helvetica,sans-Serif" font-weight="bold" font-size="9.00">issues</text>
</g>
<g id="clust9" class="cluster">
<title>cluster_src/app/main/issues/view&#45;issue</title>
<path fill="#ffffff" stroke="black" stroke-width="2" d="M57.5,-40C57.5,-40 167.5,-40 167.5,-40 173.5,-40 179.5,-46 179.5,-52 179.5,-52 179.5,-114 179.5,-114 179.5,-120 173.5,-126 167.5,-126 167.5,-126 57.5,-126 57.5,-126 51.5,-126 45.5,-120 45.5,-114 45.5,-114 45.5,-52 45.5,-52 45.5,-46 51.5,-40 57.5,-40"/>
<text text-anchor="middle" x="112.5" y="-114.8" font-family="Helvetica,sans-Serif" font-weight="bold" font-size="9.00">view&#45;issue</text>
</g>
<g id="clust10" class="cluster">
<title>cluster_src/app/main/issues/view&#45;issue/view</title>
<path fill="#ffffff" stroke="black" stroke-width="2" d="M65.5,-48C65.5,-48 159.5,-48 159.5,-48 165.5,-48 171.5,-54 171.5,-60 171.5,-60 171.5,-88 171.5,-88 171.5,-94 165.5,-100 159.5,-100 159.5,-100 65.5,-100 65.5,-100 59.5,-100 53.5,-94 53.5,-88 53.5,-88 53.5,-60 53.5,-60 53.5,-54 59.5,-48 65.5,-48"/>
<text text-anchor="middle" x="112.5" y="-88.8" font-family="Helvetica,sans-Serif" font-weight="bold" font-size="9.00">view</text>
</g>
<!-- src/app/common/form/issue&#45;form/issue&#45;form.component.ts -->
<g id="node1" class="node">
<title>src/app/common/form/issue&#45;form/issue&#45;form.component.ts</title>
<g id="a_node1"><a xlink:href="src/app/common/form/issue-form/issue-form.component.ts" xlink:title="issue&#45;form.component.ts">
<path fill="#ddfeff" stroke="black" d="M171,-228C171,-228 54,-228 54,-228 51,-228 48,-225 48,-222 48,-222 48,-216 48,-216 48,-213 51,-210 54,-210 54,-210 171,-210 171,-210 174,-210 177,-213 177,-216 177,-216 177,-222 177,-222 177,-225 174,-228 171,-228"/>
<text text-anchor="start" x="56" y="-216.8" font-family="Helvetica,sans-Serif" font-size="9.00">issue&#45;form.component.ts</text>
</a>
</g>
</g>
<!-- src/app/common/text&#45;editor/text&#45;editor.component.ts -->
<g id="node2" class="node">
<title>src/app/common/text&#45;editor/text&#45;editor.component.ts</title>
<g id="a_node2"><a xlink:href="src/app/common/text-editor/text-editor.component.ts" xlink:title="text&#45;editor.component.ts">
<path fill="#ddfeff" stroke="black" d="M334.5,-224C334.5,-224 217.5,-224 217.5,-224 214.5,-224 211.5,-221 211.5,-218 211.5,-218 211.5,-212 211.5,-212 211.5,-209 214.5,-206 217.5,-206 217.5,-206 334.5,-206 334.5,-206 337.5,-206 340.5,-209 340.5,-212 340.5,-212 340.5,-218 340.5,-218 340.5,-221 337.5,-224 334.5,-224"/>
<text text-anchor="start" x="219.5" y="-212.8" font-family="Helvetica,sans-Serif" font-size="9.00">text&#45;editor.component.ts</text>
</a>
</g>
</g>
<!-- src/app/common/form/issue&#45;form/issue&#45;form.component.ts&#45;&gt;src/app/common/text&#45;editor/text&#45;editor.component.ts -->
<g id="edge1" class="edge">
<title>src/app/common/form/issue&#45;form/issue&#45;form.component.ts&#45;&gt;src/app/common/text&#45;editor/text&#45;editor.component.ts</title>
<path fill="none" stroke="#000000" stroke-width="2" stroke-opacity="0.200000" d="M177.33,-217.42C186.51,-217.19 196.01,-216.96 205.3,-216.73"/>
<polygon fill="#000000" fill-opacity="0.200000" stroke="#000000" stroke-width="2" stroke-opacity="0.200000" points="205.42,-218.82 211.37,-216.58 205.32,-214.63 205.42,-218.82"/>
</g>
<!-- src/app/main/issues/view&#45;issue/view/view.component.ts -->
<g id="node3" class="node">
<title>src/app/main/issues/view&#45;issue/view/view.component.ts</title>
<g id="a_node3"><a xlink:href="src/app/main/issues/view-issue/view/view.component.ts" xlink:title="view.component.ts">
<path fill="#ddfeff" stroke="black" d="M157.5,-74C157.5,-74 67.5,-74 67.5,-74 64.5,-74 61.5,-71 61.5,-68 61.5,-68 61.5,-62 61.5,-62 61.5,-59 64.5,-56 67.5,-56 67.5,-56 157.5,-56 157.5,-56 160.5,-56 163.5,-59 163.5,-62 163.5,-62 163.5,-68 163.5,-68 163.5,-71 160.5,-74 157.5,-74"/>
<text text-anchor="start" x="69.5" y="-62.8" font-family="Helvetica,sans-Serif" font-size="9.00">view.component.ts</text>
</a>
</g>
</g>
<!-- src/app/main/issues/view&#45;issue/view/view.component.ts&#45;&gt;src/app/common/text&#45;editor/text&#45;editor.component.ts -->
<g id="edge2" class="edge">
<title>src/app/main/issues/view&#45;issue/view/view.component.ts&#45;&gt;src/app/common/text&#45;editor/text&#45;editor.component.ts</title>
<path fill="none" stroke="#000000" stroke-width="2" stroke-opacity="0.200000" d="M123.6,-74.38C151.25,-100.06 228.21,-171.54 260.48,-201.51"/>
<polygon fill="#000000" fill-opacity="0.200000" stroke="#000000" stroke-width="2" stroke-opacity="0.200000" points="259.08,-203.08 264.9,-205.62 261.93,-200 259.08,-203.08"/>
</g>
</g>
</svg>
