<?xml version="1.0" encoding="UTF-8" standalone="no"?>
<!DOCTYPE svg PUBLIC "-//W3C//DTD SVG 1.1//EN"
 "http://www.w3.org/Graphics/SVG/1.1/DTD/svg11.dtd">
<!-- Generated by graphviz version 2.43.0 (0)
 -->
<!-- Title: dependency&#45;cruiser output Pages: 1 -->
<svg width="658pt" height="546pt"
 viewBox="0.00 0.00 658.00 546.00" xmlns="http://www.w3.org/2000/svg" xmlns:xlink="http://www.w3.org/1999/xlink">
<g id="graph0" class="graph" transform="scale(1 1) rotate(0) translate(4 542)">
<title>dependency&#45;cruiser output</title>
<polygon fill="white" stroke="transparent" points="-4,4 -4,-542 654,-542 654,4 -4,4"/>
<g id="clust1" class="cluster">
<title>cluster_src</title>
<path fill="#ffffff" stroke="black" stroke-width="2" d="M20,-8C20,-8 630,-8 630,-8 636,-8 642,-14 642,-20 642,-20 642,-518 642,-518 642,-524 636,-530 630,-530 630,-530 20,-530 20,-530 14,-530 8,-524 8,-518 8,-518 8,-20 8,-20 8,-14 14,-8 20,-8"/>
<text text-anchor="middle" x="325" y="-518.8" font-family="Helvetica,sans-Serif" font-weight="bold" font-size="9.00">src</text>
</g>
<g id="clust2" class="cluster">
<title>cluster_src/app</title>
<path fill="#ffffff" stroke="black" stroke-width="2" d="M28,-16C28,-16 622,-16 622,-16 628,-16 634,-22 634,-28 634,-28 634,-492 634,-492 634,-498 628,-504 622,-504 622,-504 28,-504 28,-504 22,-504 16,-498 16,-492 16,-492 16,-28 16,-28 16,-22 22,-16 28,-16"/>
<text text-anchor="middle" x="325" y="-492.8" font-family="Helvetica,sans-Serif" font-weight="bold" font-size="9.00">app</text>
</g>
<g id="clust3" class="cluster">
<title>cluster_src/app/common</title>
<path fill="#ffffff" stroke="black" stroke-width="2" d="M297,-60C297,-60 440,-60 440,-60 446,-60 452,-66 452,-72 452,-72 452,-228 452,-228 452,-234 446,-240 440,-240 440,-240 297,-240 297,-240 291,-240 285,-234 285,-228 285,-228 285,-72 285,-72 285,-66 291,-60 297,-60"/>
<text text-anchor="middle" x="368.5" y="-228.8" font-family="Helvetica,sans-Serif" font-weight="bold" font-size="9.00">common</text>
</g>
<g id="clust4" class="cluster">
<title>cluster_src/app/common/navbar</title>
<path fill="#ffffff" stroke="black" stroke-width="2" d="M316,-162C316,-162 421,-162 421,-162 427,-162 433,-168 433,-174 433,-174 433,-202 433,-202 433,-208 427,-214 421,-214 421,-214 316,-214 316,-214 310,-214 304,-208 304,-202 304,-202 304,-174 304,-174 304,-168 310,-162 316,-162"/>
<text text-anchor="middle" x="368.5" y="-202.8" font-family="Helvetica,sans-Serif" font-weight="bold" font-size="9.00">navbar</text>
</g>
<g id="clust5" class="cluster">
<title>cluster_src/app/common/sidenav</title>
<path fill="#ffffff" stroke="black" stroke-width="2" d="M305,-68C305,-68 432,-68 432,-68 438,-68 444,-74 444,-80 444,-80 444,-142 444,-142 444,-148 438,-154 432,-154 432,-154 305,-154 305,-154 299,-154 293,-148 293,-142 293,-142 293,-80 293,-80 293,-74 299,-68 305,-68"/>
<text text-anchor="middle" x="368.5" y="-142.8" font-family="Helvetica,sans-Serif" font-weight="bold" font-size="9.00">sidenav</text>
</g>
<g id="clust6" class="cluster">
<title>cluster_src/app/common/sidenav/navitem</title>
<path fill="#ffffff" stroke="black" stroke-width="2" d="M313,-76C313,-76 424,-76 424,-76 430,-76 436,-82 436,-88 436,-88 436,-116 436,-116 436,-122 430,-128 424,-128 424,-128 313,-128 313,-128 307,-128 301,-122 301,-116 301,-116 301,-88 301,-88 301,-82 307,-76 313,-76"/>
<text text-anchor="middle" x="368.5" y="-116.8" font-family="Helvetica,sans-Serif" font-weight="bold" font-size="9.00">navitem</text>
</g>
<g id="clust7" class="cluster">
<title>cluster_src/app/layouts</title>
<path fill="#ffffff" stroke="black" stroke-width="2" d="M121,-224C121,-224 265,-224 265,-224 271,-224 277,-230 277,-236 277,-236 277,-298 277,-298 277,-304 271,-310 265,-310 265,-310 121,-310 121,-310 115,-310 109,-304 109,-298 109,-298 109,-236 109,-236 109,-230 115,-224 121,-224"/>
<text text-anchor="middle" x="193" y="-298.8" font-family="Helvetica,sans-Serif" font-weight="bold" font-size="9.00">layouts</text>
</g>
<g id="clust8" class="cluster">
<title>cluster_src/app/layouts/main&#45;layout</title>
<path fill="#ffffff" stroke="black" stroke-width="2" d="M129,-232C129,-232 257,-232 257,-232 263,-232 269,-238 269,-244 269,-244 269,-272 269,-272 269,-278 263,-284 257,-284 257,-284 129,-284 129,-284 123,-284 117,-278 117,-272 117,-272 117,-244 117,-244 117,-238 123,-232 129,-232"/>
<text text-anchor="middle" x="193" y="-272.8" font-family="Helvetica,sans-Serif" font-weight="bold" font-size="9.00">main&#45;layout</text>
</g>
<g id="clust9" class="cluster">
<title>cluster_src/app/shared</title>
<path fill="#ffffff" stroke="black" stroke-width="2" d="M472,-24C472,-24 614,-24 614,-24 620,-24 626,-30 626,-36 626,-36 626,-466 626,-466 626,-472 620,-478 614,-478 614,-478 472,-478 472,-478 466,-478 460,-472 460,-466 460,-466 460,-36 460,-36 460,-30 466,-24 472,-24"/>
<text text-anchor="middle" x="543" y="-466.8" font-family="Helvetica,sans-Serif" font-weight="bold" font-size="9.00">shared</text>
</g>
<g id="clust10" class="cluster">
<title>cluster_src/app/shared/constants</title>
<path fill="#ffffff" stroke="black" stroke-width="2" d="M499,-32C499,-32 587,-32 587,-32 593,-32 599,-38 599,-44 599,-44 599,-106 599,-106 599,-112 593,-118 587,-118 587,-118 499,-118 499,-118 493,-118 487,-112 487,-106 487,-106 487,-44 487,-44 487,-38 493,-32 499,-32"/>
<text text-anchor="middle" x="543" y="-106.8" font-family="Helvetica,sans-Serif" font-weight="bold" font-size="9.00">constants</text>
</g>
<g id="clust11" class="cluster">
<title>cluster_src/app/shared/constants/user</title>
<path fill="#ffffff" stroke="black" stroke-width="2" d="M507,-40C507,-40 579,-40 579,-40 585,-40 591,-46 591,-52 591,-52 591,-80 591,-80 591,-86 585,-92 579,-92 579,-92 507,-92 507,-92 501,-92 495,-86 495,-80 495,-80 495,-52 495,-52 495,-46 501,-40 507,-40"/>
<text text-anchor="middle" x="543" y="-80.8" font-family="Helvetica,sans-Serif" font-weight="bold" font-size="9.00">user</text>
</g>
<g id="clust12" class="cluster">
<title>cluster_src/app/shared/services</title>
<path fill="#ffffff" stroke="black" stroke-width="2" d="M480,-126C480,-126 606,-126 606,-126 612,-126 618,-132 618,-138 618,-138 618,-440 618,-440 618,-446 612,-452 606,-452 606,-452 480,-452 480,-452 474,-452 468,-446 468,-440 468,-440 468,-138 468,-138 468,-132 474,-126 480,-126"/>
<text text-anchor="middle" x="543" y="-440.8" font-family="Helvetica,sans-Serif" font-weight="bold" font-size="9.00">services</text>
</g>
<g id="clust13" class="cluster">
<title>cluster_src/app/shared/services/auth</title>
<path fill="#ffffff" stroke="black" stroke-width="2" d="M505.5,-134C505.5,-134 580.5,-134 580.5,-134 586.5,-134 592.5,-140 592.5,-146 592.5,-146 592.5,-174 592.5,-174 592.5,-180 586.5,-186 580.5,-186 580.5,-186 505.5,-186 505.5,-186 499.5,-186 493.5,-180 493.5,-174 493.5,-174 493.5,-146 493.5,-146 493.5,-140 499.5,-134 505.5,-134"/>
<text text-anchor="middle" x="543" y="-174.8" font-family="Helvetica,sans-Serif" font-weight="bold" font-size="9.00">auth</text>
</g>
<g id="clust14" class="cluster">
<title>cluster_src/app/shared/services/organization</title>
<path fill="#ffffff" stroke="black" stroke-width="2" d="M488,-314C488,-314 598,-314 598,-314 604,-314 610,-320 610,-326 610,-326 610,-354 610,-354 610,-360 604,-366 598,-366 598,-366 488,-366 488,-366 482,-366 476,-360 476,-354 476,-354 476,-326 476,-326 476,-320 482,-314 488,-314"/>
<text text-anchor="middle" x="543" y="-354.8" font-family="Helvetica,sans-Serif" font-weight="bold" font-size="9.00">organization</text>
</g>
<g id="clust15" class="cluster">
<title>cluster_src/app/shared/services/sidebar</title>
<path fill="#ffffff" stroke="black" stroke-width="2" d="M499.5,-194C499.5,-194 586.5,-194 586.5,-194 592.5,-194 598.5,-200 598.5,-206 598.5,-206 598.5,-234 598.5,-234 598.5,-240 592.5,-246 586.5,-246 586.5,-246 499.5,-246 499.5,-246 493.5,-246 487.5,-240 487.5,-234 487.5,-234 487.5,-206 487.5,-206 487.5,-200 493.5,-194 499.5,-194"/>
<text text-anchor="middle" x="543" y="-234.8" font-family="Helvetica,sans-Serif" font-weight="bold" font-size="9.00">sidebar</text>
</g>
<g id="clust16" class="cluster">
<title>cluster_src/app/shared/services/snackbar</title>
<path fill="#ffffff" stroke="black" stroke-width="2" d="M495.5,-374C495.5,-374 590.5,-374 590.5,-374 596.5,-374 602.5,-380 602.5,-386 602.5,-386 602.5,-414 602.5,-414 602.5,-420 596.5,-426 590.5,-426 590.5,-426 495.5,-426 495.5,-426 489.5,-426 483.5,-420 483.5,-414 483.5,-414 483.5,-386 483.5,-386 483.5,-380 489.5,-374 495.5,-374"/>
<text text-anchor="middle" x="543" y="-414.8" font-family="Helvetica,sans-Serif" font-weight="bold" font-size="9.00">snackbar</text>
</g>
<g id="clust17" class="cluster">
<title>cluster_src/app/shared/services/theme</title>
<path fill="#ffffff" stroke="black" stroke-width="2" d="M501,-254C501,-254 585,-254 585,-254 591,-254 597,-260 597,-266 597,-266 597,-294 597,-294 597,-300 591,-306 585,-306 585,-306 501,-306 501,-306 495,-306 489,-300 489,-294 489,-294 489,-266 489,-266 489,-260 495,-254 501,-254"/>
<text text-anchor="middle" x="543" y="-294.8" font-family="Helvetica,sans-Serif" font-weight="bold" font-size="9.00">theme</text>
</g>
<!-- src/app/app.routes.ts -->
<g id="node1" class="node">
<title>src/app/app.routes.ts</title>
<g id="a_node1"><a xlink:href="src/app/app.routes.ts" xlink:title="app.routes.ts">
<path fill="#ddfeff" stroke="black" d="M95,-293C95,-293 30,-293 30,-293 27,-293 24,-290 24,-287 24,-287 24,-281 24,-281 24,-278 27,-275 30,-275 30,-275 95,-275 95,-275 98,-275 101,-278 101,-281 101,-281 101,-287 101,-287 101,-290 98,-293 95,-293"/>
<text text-anchor="start" x="32" y="-281.8" font-family="Helvetica,sans-Serif" font-size="9.00">app.routes.ts</text>
</a>
</g>
</g>
<!-- src/app/layouts/main&#45;layout/main&#45;layout.component.ts -->
<g id="node2" class="node">
<title>src/app/layouts/main&#45;layout/main&#45;layout.component.ts</title>
<g id="a_node2"><a xlink:href="src/app/layouts/main-layout/main-layout.component.ts" xlink:title="main&#45;layout.component.ts">
<path fill="#ddfeff" stroke="black" d="M255,-258C255,-258 131,-258 131,-258 128,-258 125,-255 125,-252 125,-252 125,-246 125,-246 125,-243 128,-240 131,-240 131,-240 255,-240 255,-240 258,-240 261,-243 261,-246 261,-246 261,-252 261,-252 261,-255 258,-258 255,-258"/>
<text text-anchor="start" x="133" y="-246.8" font-family="Helvetica,sans-Serif" font-size="9.00">main&#45;layout.component.ts</text>
</a>
</g>
</g>
<!-- src/app/app.routes.ts&#45;&gt;src/app/layouts/main&#45;layout/main&#45;layout.component.ts -->
<g id="edge1" class="edge">
<title>src/app/app.routes.ts&#45;&gt;src/app/layouts/main&#45;layout/main&#45;layout.component.ts</title>
<path fill="none" stroke="#000000" stroke-width="2" stroke-dasharray="5,2" stroke-opacity="0.200000" d="M79.45,-274.85C87.97,-270.34 98.78,-265.19 109,-262 112.13,-261.02 115.36,-260.11 118.63,-259.27"/>
<polygon fill="#000000" fill-opacity="0.200000" stroke="#000000" stroke-width="2" stroke-opacity="0.200000" points="119.23,-261.29 124.57,-257.83 118.24,-257.21 119.23,-261.29"/>
</g>
<!-- src/app/shared/constants/user/Permissions.ts -->
<g id="node3" class="node">
<title>src/app/shared/constants/user/Permissions.ts</title>
<g id="a_node3"><a xlink:href="src/app/shared/constants/user/Permissions.ts" xlink:title="Permissions.ts">
<path fill="#ddfeff" stroke="black" d="M577,-66C577,-66 509,-66 509,-66 506,-66 503,-63 503,-60 503,-60 503,-54 503,-54 503,-51 506,-48 509,-48 509,-48 577,-48 577,-48 580,-48 583,-51 583,-54 583,-54 583,-60 583,-60 583,-63 580,-66 577,-66"/>
<text text-anchor="start" x="511" y="-54.8" font-family="Helvetica,sans-Serif" font-size="9.00">Permissions.ts</text>
</a>
</g>
</g>
<!-- src/app/app.routes.ts&#45;&gt;src/app/shared/constants/user/Permissions.ts -->
<g id="edge2" class="edge">
<title>src/app/app.routes.ts&#45;&gt;src/app/shared/constants/user/Permissions.ts</title>
<path fill="none" stroke="#000000" stroke-width="2" stroke-opacity="0.200000" d="M101.19,-291.85C181.9,-306.18 370.7,-325.85 452,-217 463.49,-201.62 451.4,-148.16 460,-131 473.51,-104.05 501.35,-82.29 520.83,-69.51"/>
<polygon fill="#000000" fill-opacity="0.200000" stroke="#000000" stroke-width="2" stroke-opacity="0.200000" points="522.16,-71.15 526.08,-66.15 519.9,-67.62 522.16,-71.15"/>
</g>
<!-- src/app/layouts/main&#45;layout/main&#45;layout.component.ts&#45;&gt;src/app/shared/constants/user/Permissions.ts -->
<g id="edge8" class="edge">
<title>src/app/layouts/main&#45;layout/main&#45;layout.component.ts&#45;&gt;src/app/shared/constants/user/Permissions.ts</title>
<path fill="none" stroke="#000000" stroke-width="2" stroke-opacity="0.200000" d="M195.57,-239.59C201.18,-209.18 223.34,-113.21 285,-73 348.82,-31.38 441.57,-38.09 496.45,-47.22"/>
<polygon fill="#000000" fill-opacity="0.200000" stroke="#000000" stroke-width="2" stroke-opacity="0.200000" points="496.35,-49.33 502.62,-48.28 497.06,-45.19 496.35,-49.33"/>
</g>
<!-- src/app/common/navbar/navbar.component.ts -->
<g id="node4" class="node">
<title>src/app/common/navbar/navbar.component.ts</title>
<g id="a_node4"><a xlink:href="src/app/common/navbar/navbar.component.ts" xlink:title="navbar.component.ts">
<path fill="#ddfeff" stroke="black" d="M419,-188C419,-188 318,-188 318,-188 315,-188 312,-185 312,-182 312,-182 312,-176 312,-176 312,-173 315,-170 318,-170 318,-170 419,-170 419,-170 422,-170 425,-173 425,-176 425,-176 425,-182 425,-182 425,-185 422,-188 419,-188"/>
<text text-anchor="start" x="320" y="-176.8" font-family="Helvetica,sans-Serif" font-size="9.00">navbar.component.ts</text>
</a>
</g>
</g>
<!-- src/app/layouts/main&#45;layout/main&#45;layout.component.ts&#45;&gt;src/app/common/navbar/navbar.component.ts -->
<g id="edge6" class="edge">
<title>src/app/layouts/main&#45;layout/main&#45;layout.component.ts&#45;&gt;src/app/common/navbar/navbar.component.ts</title>
<path fill="none" stroke="#000000" stroke-width="2" stroke-opacity="0.200000" d="M216.33,-239.99C247.73,-227.32 304.95,-204.24 339.27,-190.39"/>
<polygon fill="#000000" fill-opacity="0.200000" stroke="#000000" stroke-width="2" stroke-opacity="0.200000" points="340.21,-192.28 344.98,-188.08 338.63,-188.38 340.21,-192.28"/>
</g>
<!-- src/app/shared/services/auth/auth.service.ts -->
<g id="node5" class="node">
<title>src/app/shared/services/auth/auth.service.ts</title>
<g id="a_node5"><a xlink:href="src/app/shared/services/auth/auth.service.ts" xlink:title="auth.service.ts">
<path fill="#ddfeff" stroke="black" d="M578.5,-160C578.5,-160 507.5,-160 507.5,-160 504.5,-160 501.5,-157 501.5,-154 501.5,-154 501.5,-148 501.5,-148 501.5,-145 504.5,-142 507.5,-142 507.5,-142 578.5,-142 578.5,-142 581.5,-142 584.5,-145 584.5,-148 584.5,-148 584.5,-154 584.5,-154 584.5,-157 581.5,-160 578.5,-160"/>
<text text-anchor="start" x="509.5" y="-148.8" font-family="Helvetica,sans-Serif" font-size="9.00">auth.service.ts</text>
</a>
</g>
</g>
<!-- src/app/layouts/main&#45;layout/main&#45;layout.component.ts&#45;&gt;src/app/shared/services/auth/auth.service.ts -->
<g id="edge9" class="edge">
<title>src/app/layouts/main&#45;layout/main&#45;layout.component.ts&#45;&gt;src/app/shared/services/auth/auth.service.ts</title>
<path fill="none" stroke="#000000" stroke-width="2" stroke-opacity="0.200000" d="M261.17,-248.73C327.82,-247.09 423.94,-240.53 452,-217 461.26,-209.23 452.14,-200.19 460,-191 471.37,-177.71 488.19,-168.44 503.64,-162.2"/>
<polygon fill="#000000" fill-opacity="0.200000" stroke="#000000" stroke-width="2" stroke-opacity="0.200000" points="504.42,-164.15 509.26,-160.03 502.91,-160.23 504.42,-164.15"/>
</g>
<!-- src/app/shared/services/sidebar/sidebar.service.ts -->
<g id="node6" class="node">
<title>src/app/shared/services/sidebar/sidebar.service.ts</title>
<g id="a_node6"><a xlink:href="src/app/shared/services/sidebar/sidebar.service.ts" xlink:title="sidebar.service.ts">
<path fill="#ddfeff" stroke="black" d="M584.5,-220C584.5,-220 501.5,-220 501.5,-220 498.5,-220 495.5,-217 495.5,-214 495.5,-214 495.5,-208 495.5,-208 495.5,-205 498.5,-202 501.5,-202 501.5,-202 584.5,-202 584.5,-202 587.5,-202 590.5,-205 590.5,-208 590.5,-208 590.5,-214 590.5,-214 590.5,-217 587.5,-220 584.5,-220"/>
<text text-anchor="start" x="503.5" y="-208.8" font-family="Helvetica,sans-Serif" font-size="9.00">sidebar.service.ts</text>
</a>
</g>
</g>
<!-- src/app/layouts/main&#45;layout/main&#45;layout.component.ts&#45;&gt;src/app/shared/services/sidebar/sidebar.service.ts -->
<g id="edge11" class="edge">
<title>src/app/layouts/main&#45;layout/main&#45;layout.component.ts&#45;&gt;src/app/shared/services/sidebar/sidebar.service.ts</title>
<path fill="none" stroke="#000000" stroke-width="2" stroke-opacity="0.200000" d="M256.59,-258C309.35,-263.69 386.51,-267.53 452,-253 477.56,-247.33 504.46,-233.61 522.12,-223.39"/>
<polygon fill="#000000" fill-opacity="0.200000" stroke="#000000" stroke-width="2" stroke-opacity="0.200000" points="523.64,-224.93 527.74,-220.07 521.5,-221.31 523.64,-224.93"/>
</g>
<!-- src/app/shared/services/theme/theme.service.ts -->
<g id="node7" class="node">
<title>src/app/shared/services/theme/theme.service.ts</title>
<g id="a_node7"><a xlink:href="src/app/shared/services/theme/theme.service.ts" xlink:title="theme.service.ts">
<path fill="#ddfeff" stroke="black" d="M583,-280C583,-280 503,-280 503,-280 500,-280 497,-277 497,-274 497,-274 497,-268 497,-268 497,-265 500,-262 503,-262 503,-262 583,-262 583,-262 586,-262 589,-265 589,-268 589,-268 589,-274 589,-274 589,-277 586,-280 583,-280"/>
<text text-anchor="start" x="505" y="-268.8" font-family="Helvetica,sans-Serif" font-size="9.00">theme.service.ts</text>
</a>
</g>
</g>
<!-- src/app/layouts/main&#45;layout/main&#45;layout.component.ts&#45;&gt;src/app/shared/services/theme/theme.service.ts -->
<g id="edge13" class="edge">
<title>src/app/layouts/main&#45;layout/main&#45;layout.component.ts&#45;&gt;src/app/shared/services/theme/theme.service.ts</title>
<path fill="none" stroke="#000000" stroke-width="2" stroke-opacity="0.200000" d="M231.84,-258.07C248.1,-261.55 267.38,-265.14 285,-267 356,-274.51 438.64,-274.2 490.63,-272.9"/>
<polygon fill="#000000" fill-opacity="0.200000" stroke="#000000" stroke-width="2" stroke-opacity="0.200000" points="490.88,-275 496.82,-272.74 490.77,-270.8 490.88,-275"/>
</g>
<!-- src/app/common/sidenav/navitem/navitem.component.ts -->
<g id="node8" class="node">
<title>src/app/common/sidenav/navitem/navitem.component.ts</title>
<g id="a_node8"><a xlink:href="src/app/common/sidenav/navitem/navitem.component.ts" xlink:title="navitem.component.ts">
<path fill="#ddfeff" stroke="black" d="M422,-102C422,-102 315,-102 315,-102 312,-102 309,-99 309,-96 309,-96 309,-90 309,-90 309,-87 312,-84 315,-84 315,-84 422,-84 422,-84 425,-84 428,-87 428,-90 428,-90 428,-96 428,-96 428,-99 425,-102 422,-102"/>
<text text-anchor="start" x="317" y="-90.8" font-family="Helvetica,sans-Serif" font-size="9.00">navitem.component.ts</text>
</a>
</g>
</g>
<!-- src/app/layouts/main&#45;layout/main&#45;layout.component.ts&#45;&gt;src/app/common/sidenav/navitem/navitem.component.ts -->
<g id="edge7" class="edge">
<title>src/app/layouts/main&#45;layout/main&#45;layout.component.ts&#45;&gt;src/app/common/sidenav/navitem/navitem.component.ts</title>
<path fill="none" stroke="#000000" stroke-width="2" stroke-opacity="0.200000" d="M202.49,-240C218.25,-223.43 253.3,-187.22 285,-159 306.85,-139.55 333.5,-118.72 350.49,-105.77"/>
<polygon fill="#000000" fill-opacity="0.200000" stroke="#000000" stroke-width="2" stroke-opacity="0.200000" points="351.92,-107.32 355.43,-102.02 349.38,-103.97 351.92,-107.32"/>
</g>
<!-- src/app/shared/services/organization/organization.service.ts -->
<g id="node9" class="node">
<title>src/app/shared/services/organization/organization.service.ts</title>
<g id="a_node9"><a xlink:href="src/app/shared/services/organization/organization.service.ts" xlink:title="organization.service.ts">
<path fill="#ddfeff" stroke="black" d="M596,-340C596,-340 490,-340 490,-340 487,-340 484,-337 484,-334 484,-334 484,-328 484,-328 484,-325 487,-322 490,-322 490,-322 596,-322 596,-322 599,-322 602,-325 602,-328 602,-328 602,-334 602,-334 602,-337 599,-340 596,-340"/>
<text text-anchor="start" x="492" y="-328.8" font-family="Helvetica,sans-Serif" font-size="9.00">organization.service.ts</text>
</a>
</g>
</g>
<!-- src/app/layouts/main&#45;layout/main&#45;layout.component.ts&#45;&gt;src/app/shared/services/organization/organization.service.ts -->
<g id="edge10" class="edge">
<title>src/app/layouts/main&#45;layout/main&#45;layout.component.ts&#45;&gt;src/app/shared/services/organization/organization.service.ts</title>
<path fill="none" stroke="#000000" stroke-width="2" stroke-opacity="0.200000" d="M223.72,-258.04C241.4,-263.19 264.35,-269.51 285,-274 358.47,-289.98 385.06,-266.76 452,-301 456.48,-303.29 455.65,-306.49 460,-309 467.96,-313.6 476.9,-317.26 485.88,-320.17"/>
<polygon fill="#000000" fill-opacity="0.200000" stroke="#000000" stroke-width="2" stroke-opacity="0.200000" points="485.43,-322.23 491.78,-321.98 486.66,-318.21 485.43,-322.23"/>
</g>
<!-- src/app/shared/services/snackbar/snackbar.service.ts -->
<g id="node10" class="node">
<title>src/app/shared/services/snackbar/snackbar.service.ts</title>
<g id="a_node10"><a xlink:href="src/app/shared/services/snackbar/snackbar.service.ts" xlink:title="snackbar.service.ts">
<path fill="#ddfeff" stroke="black" d="M588.5,-400C588.5,-400 497.5,-400 497.5,-400 494.5,-400 491.5,-397 491.5,-394 491.5,-394 491.5,-388 491.5,-388 491.5,-385 494.5,-382 497.5,-382 497.5,-382 588.5,-382 588.5,-382 591.5,-382 594.5,-385 594.5,-388 594.5,-388 594.5,-394 594.5,-394 594.5,-397 591.5,-400 588.5,-400"/>
<text text-anchor="start" x="499.5" y="-388.8" font-family="Helvetica,sans-Serif" font-size="9.00">snackbar.service.ts</text>
</a>
</g>
</g>
<!-- src/app/layouts/main&#45;layout/main&#45;layout.component.ts&#45;&gt;src/app/shared/services/snackbar/snackbar.service.ts -->
<g id="edge12" class="edge">
<title>src/app/layouts/main&#45;layout/main&#45;layout.component.ts&#45;&gt;src/app/shared/services/snackbar/snackbar.service.ts</title>
<path fill="none" stroke="#000000" stroke-width="2" stroke-opacity="0.200000" d="M211.33,-258.04C253.15,-279.59 363.31,-334.72 460,-369 471.94,-373.23 485.1,-377.1 497.32,-380.38"/>
<polygon fill="#000000" fill-opacity="0.200000" stroke="#000000" stroke-width="2" stroke-opacity="0.200000" points="496.9,-382.44 503.24,-381.93 497.97,-378.38 496.9,-382.44"/>
</g>
<!-- src/app/common/navbar/navbar.component.ts&#45;&gt;src/app/shared/services/auth/auth.service.ts -->
<g id="edge3" class="edge">
<title>src/app/common/navbar/navbar.component.ts&#45;&gt;src/app/shared/services/auth/auth.service.ts</title>
<path fill="none" stroke="#000000" stroke-width="2" stroke-opacity="0.200000" d="M425.03,-169.99C447.72,-166.3 473.66,-162.09 495.35,-158.57"/>
<polygon fill="#000000" fill-opacity="0.200000" stroke="#000000" stroke-width="2" stroke-opacity="0.200000" points="495.76,-160.63 501.35,-157.6 495.09,-156.49 495.76,-160.63"/>
</g>
<!-- src/app/common/navbar/navbar.component.ts&#45;&gt;src/app/shared/services/sidebar/sidebar.service.ts -->
<g id="edge4" class="edge">
<title>src/app/common/navbar/navbar.component.ts&#45;&gt;src/app/shared/services/sidebar/sidebar.service.ts</title>
<path fill="none" stroke="#000000" stroke-width="2" stroke-opacity="0.200000" d="M418.47,-188.08C440.6,-192.19 466.78,-197.05 489.33,-201.23"/>
<polygon fill="#000000" fill-opacity="0.200000" stroke="#000000" stroke-width="2" stroke-opacity="0.200000" points="489,-203.3 495.28,-202.33 489.77,-199.17 489,-203.3"/>
</g>
<!-- src/app/common/navbar/navbar.component.ts&#45;&gt;src/app/shared/services/theme/theme.service.ts -->
<g id="edge5" class="edge">
<title>src/app/common/navbar/navbar.component.ts&#45;&gt;src/app/shared/services/theme/theme.service.ts</title>
<path fill="none" stroke="#000000" stroke-width="2" stroke-opacity="0.200000" d="M378.67,-188.16C394.12,-203.07 426.9,-232.59 460,-249 469.69,-253.81 480.57,-257.66 491.15,-260.72"/>
<polygon fill="#000000" fill-opacity="0.200000" stroke="#000000" stroke-width="2" stroke-opacity="0.200000" points="490.65,-262.76 497,-262.34 491.77,-258.72 490.65,-262.76"/>
</g>
</g>
</svg>
