<?xml version="1.0" encoding="UTF-8" standalone="no"?>
<!DOCTYPE svg PUBLIC "-//W3C//DTD SVG 1.1//EN"
 "http://www.w3.org/Graphics/SVG/1.1/DTD/svg11.dtd">
<!-- Generated by graphviz version 2.43.0 (0)
 -->
<!-- Title: dependency&#45;cruiser output Pages: 1 -->
<svg width="753pt" height="538pt"
 viewBox="0.00 0.00 753.00 538.00" xmlns="http://www.w3.org/2000/svg" xmlns:xlink="http://www.w3.org/1999/xlink">
<g id="graph0" class="graph" transform="scale(1 1) rotate(0) translate(4 534)">
<title>dependency&#45;cruiser output</title>
<polygon fill="white" stroke="transparent" points="-4,4 -4,-534 749,-534 749,4 -4,4"/>
<g id="clust1" class="cluster">
<title>cluster_src</title>
<path fill="#ffffff" stroke="black" stroke-width="2" d="M20,-8C20,-8 725,-8 725,-8 731,-8 737,-14 737,-20 737,-20 737,-510 737,-510 737,-516 731,-522 725,-522 725,-522 20,-522 20,-522 14,-522 8,-516 8,-510 8,-510 8,-20 8,-20 8,-14 14,-8 20,-8"/>
<text text-anchor="middle" x="372.5" y="-510.8" font-family="Helvetica,sans-Serif" font-weight="bold" font-size="9.00">src</text>
</g>
<g id="clust2" class="cluster">
<title>cluster_src/app</title>
<path fill="#ffffff" stroke="black" stroke-width="2" d="M28,-16C28,-16 717,-16 717,-16 723,-16 729,-22 729,-28 729,-28 729,-484 729,-484 729,-490 723,-496 717,-496 717,-496 28,-496 28,-496 22,-496 16,-490 16,-484 16,-484 16,-28 16,-28 16,-22 22,-16 28,-16"/>
<text text-anchor="middle" x="372.5" y="-484.8" font-family="Helvetica,sans-Serif" font-weight="bold" font-size="9.00">app</text>
</g>
<g id="clust3" class="cluster">
<title>cluster_src/app/auth</title>
<path fill="#ffffff" stroke="black" stroke-width="2" d="M121,-24C121,-24 344,-24 344,-24 350,-24 356,-30 356,-36 356,-36 356,-458 356,-458 356,-464 350,-470 344,-470 344,-470 121,-470 121,-470 115,-470 109,-464 109,-458 109,-458 109,-36 109,-36 109,-30 115,-24 121,-24"/>
<text text-anchor="middle" x="232.5" y="-458.8" font-family="Helvetica,sans-Serif" font-weight="bold" font-size="9.00">auth</text>
</g>
<g id="clust4" class="cluster">
<title>cluster_src/app/auth/login</title>
<path fill="#ffffff" stroke="black" stroke-width="2" d="M184.5,-92C184.5,-92 280.5,-92 280.5,-92 286.5,-92 292.5,-98 292.5,-104 292.5,-104 292.5,-132 292.5,-132 292.5,-138 286.5,-144 280.5,-144 280.5,-144 184.5,-144 184.5,-144 178.5,-144 172.5,-138 172.5,-132 172.5,-132 172.5,-104 172.5,-104 172.5,-98 178.5,-92 184.5,-92"/>
<text text-anchor="middle" x="232.5" y="-132.8" font-family="Helvetica,sans-Serif" font-weight="bold" font-size="9.00">login</text>
</g>
<g id="clust5" class="cluster">
<title>cluster_src/app/auth/not&#45;found</title>
<path fill="#ffffff" stroke="black" stroke-width="2" d="M173,-32C173,-32 292,-32 292,-32 298,-32 304,-38 304,-44 304,-44 304,-72 304,-72 304,-78 298,-84 292,-84 292,-84 173,-84 173,-84 167,-84 161,-78 161,-72 161,-72 161,-44 161,-44 161,-38 167,-32 173,-32"/>
<text text-anchor="middle" x="232.5" y="-72.8" font-family="Helvetica,sans-Serif" font-weight="bold" font-size="9.00">not&#45;found</text>
</g>
<g id="clust6" class="cluster">
<title>cluster_src/app/auth/request&#45;password&#45;reset&#45;email</title>
<path fill="#ffffff" stroke="black" stroke-width="2" d="M129,-152C129,-152 336,-152 336,-152 342,-152 348,-158 348,-164 348,-164 348,-192 348,-192 348,-198 342,-204 336,-204 336,-204 129,-204 129,-204 123,-204 117,-198 117,-192 117,-192 117,-164 117,-164 117,-158 123,-152 129,-152"/>
<text text-anchor="middle" x="232.5" y="-192.8" font-family="Helvetica,sans-Serif" font-weight="bold" font-size="9.00">request&#45;password&#45;reset&#45;email</text>
</g>
<g id="clust7" class="cluster">
<title>cluster_src/app/auth/resend&#45;verification</title>
<path fill="#ffffff" stroke="black" stroke-width="2" d="M153,-212C153,-212 312,-212 312,-212 318,-212 324,-218 324,-224 324,-224 324,-252 324,-252 324,-258 318,-264 312,-264 312,-264 153,-264 153,-264 147,-264 141,-258 141,-252 141,-252 141,-224 141,-224 141,-218 147,-212 153,-212"/>
<text text-anchor="middle" x="232.5" y="-252.8" font-family="Helvetica,sans-Serif" font-weight="bold" font-size="9.00">resend&#45;verification</text>
</g>
<g id="clust8" class="cluster">
<title>cluster_src/app/auth/reset&#45;password</title>
<path fill="#ffffff" stroke="black" stroke-width="2" d="M161,-272C161,-272 304,-272 304,-272 310,-272 316,-278 316,-284 316,-284 316,-312 316,-312 316,-318 310,-324 304,-324 304,-324 161,-324 161,-324 155,-324 149,-318 149,-312 149,-312 149,-284 149,-284 149,-278 155,-272 161,-272"/>
<text text-anchor="middle" x="232.5" y="-312.8" font-family="Helvetica,sans-Serif" font-weight="bold" font-size="9.00">reset&#45;password</text>
</g>
<g id="clust9" class="cluster">
<title>cluster_src/app/auth/signup</title>
<path fill="#ffffff" stroke="black" stroke-width="2" d="M180,-392C180,-392 285,-392 285,-392 291,-392 297,-398 297,-404 297,-404 297,-432 297,-432 297,-438 291,-444 285,-444 285,-444 180,-444 180,-444 174,-444 168,-438 168,-432 168,-432 168,-404 168,-404 168,-398 174,-392 180,-392"/>
<text text-anchor="middle" x="232.5" y="-432.8" font-family="Helvetica,sans-Serif" font-weight="bold" font-size="9.00">signup</text>
</g>
<g id="clust10" class="cluster">
<title>cluster_src/app/auth/verify</title>
<path fill="#ffffff" stroke="black" stroke-width="2" d="M183.5,-332C183.5,-332 281.5,-332 281.5,-332 287.5,-332 293.5,-338 293.5,-344 293.5,-344 293.5,-372 293.5,-372 293.5,-378 287.5,-384 281.5,-384 281.5,-384 183.5,-384 183.5,-384 177.5,-384 171.5,-378 171.5,-372 171.5,-372 171.5,-344 171.5,-344 171.5,-338 177.5,-332 183.5,-332"/>
<text text-anchor="middle" x="232.5" y="-372.8" font-family="Helvetica,sans-Serif" font-weight="bold" font-size="9.00">verify</text>
</g>
<g id="clust11" class="cluster">
<title>cluster_src/app/shared</title>
<path fill="#ffffff" stroke="black" stroke-width="2" d="M376,-56C376,-56 709,-56 709,-56 715,-56 721,-62 721,-68 721,-68 721,-344 721,-344 721,-350 715,-356 709,-356 709,-356 376,-356 376,-356 370,-356 364,-350 364,-344 364,-344 364,-68 364,-68 364,-62 370,-56 376,-56"/>
<text text-anchor="middle" x="542.5" y="-344.8" font-family="Helvetica,sans-Serif" font-weight="bold" font-size="9.00">shared</text>
</g>
<g id="clust12" class="cluster">
<title>cluster_src/app/shared/services</title>
<path fill="#ffffff" stroke="black" stroke-width="2" d="M384,-64C384,-64 555,-64 555,-64 561,-64 567,-70 567,-76 567,-76 567,-258 567,-258 567,-264 561,-270 555,-270 555,-270 384,-270 384,-270 378,-270 372,-264 372,-258 372,-258 372,-76 372,-76 372,-70 378,-64 384,-64"/>
<text text-anchor="middle" x="469.5" y="-258.8" font-family="Helvetica,sans-Serif" font-weight="bold" font-size="9.00">services</text>
</g>
<g id="clust13" class="cluster">
<title>cluster_src/app/shared/services/auth</title>
<path fill="#ffffff" stroke="black" stroke-width="2" d="M432,-132C432,-132 507,-132 507,-132 513,-132 519,-138 519,-144 519,-144 519,-172 519,-172 519,-178 513,-184 507,-184 507,-184 432,-184 432,-184 426,-184 420,-178 420,-172 420,-172 420,-144 420,-144 420,-138 426,-132 432,-132"/>
<text text-anchor="middle" x="469.5" y="-172.8" font-family="Helvetica,sans-Serif" font-weight="bold" font-size="9.00">auth</text>
</g>
<g id="clust14" class="cluster">
<title>cluster_src/app/shared/services/organization&#45;invitation</title>
<path fill="#ffffff" stroke="black" stroke-width="2" d="M392,-72C392,-72 547,-72 547,-72 553,-72 559,-78 559,-84 559,-84 559,-112 559,-112 559,-118 553,-124 547,-124 547,-124 392,-124 392,-124 386,-124 380,-118 380,-112 380,-112 380,-84 380,-84 380,-78 386,-72 392,-72"/>
<text text-anchor="middle" x="469.5" y="-112.8" font-family="Helvetica,sans-Serif" font-weight="bold" font-size="9.00">organization&#45;invitation</text>
</g>
<g id="clust15" class="cluster">
<title>cluster_src/app/shared/services/snackbar</title>
<path fill="#ffffff" stroke="black" stroke-width="2" d="M422,-192C422,-192 517,-192 517,-192 523,-192 529,-198 529,-204 529,-204 529,-232 529,-232 529,-238 523,-244 517,-244 517,-244 422,-244 422,-244 416,-244 410,-238 410,-232 410,-232 410,-204 410,-204 410,-198 416,-192 422,-192"/>
<text text-anchor="middle" x="469.5" y="-232.8" font-family="Helvetica,sans-Serif" font-weight="bold" font-size="9.00">snackbar</text>
</g>
<g id="clust16" class="cluster">
<title>cluster_src/app/shared/utils</title>
<path fill="#ffffff" stroke="black" stroke-width="2" d="M587,-184C587,-184 701,-184 701,-184 707,-184 713,-190 713,-196 713,-196 713,-318 713,-318 713,-324 707,-330 701,-330 701,-330 587,-330 587,-330 581,-330 575,-324 575,-318 575,-318 575,-196 575,-196 575,-190 581,-184 587,-184"/>
<text text-anchor="middle" x="644" y="-318.8" font-family="Helvetica,sans-Serif" font-weight="bold" font-size="9.00">utils</text>
</g>
<g id="clust17" class="cluster">
<title>cluster_src/app/shared/utils/formErrorHandler</title>
<path fill="#ffffff" stroke="black" stroke-width="2" d="M595,-252C595,-252 693,-252 693,-252 699,-252 705,-258 705,-264 705,-264 705,-292 705,-292 705,-298 699,-304 693,-304 693,-304 595,-304 595,-304 589,-304 583,-298 583,-292 583,-292 583,-264 583,-264 583,-258 589,-252 595,-252"/>
<text text-anchor="middle" x="644" y="-292.8" font-family="Helvetica,sans-Serif" font-weight="bold" font-size="9.00">formErrorHandler</text>
</g>
<g id="clust18" class="cluster">
<title>cluster_src/app/shared/utils/jwtDecoder</title>
<path fill="#ffffff" stroke="black" stroke-width="2" d="M609,-192C609,-192 679,-192 679,-192 685,-192 691,-198 691,-204 691,-204 691,-232 691,-232 691,-238 685,-244 679,-244 679,-244 609,-244 609,-244 603,-244 597,-238 597,-232 597,-232 597,-204 597,-204 597,-198 603,-192 609,-192"/>
<text text-anchor="middle" x="644" y="-232.8" font-family="Helvetica,sans-Serif" font-weight="bold" font-size="9.00">jwtDecoder</text>
</g>
<g id="clust19" class="cluster">
<title>cluster_src/app/shared/validators</title>
<path fill="#ffffff" stroke="black" stroke-width="2" d="M420.5,-278C420.5,-278 518.5,-278 518.5,-278 524.5,-278 530.5,-284 530.5,-290 530.5,-290 530.5,-318 530.5,-318 530.5,-324 524.5,-330 518.5,-330 518.5,-330 420.5,-330 420.5,-330 414.5,-330 408.5,-324 408.5,-318 408.5,-318 408.5,-290 408.5,-290 408.5,-284 414.5,-278 420.5,-278"/>
<text text-anchor="middle" x="469.5" y="-318.8" font-family="Helvetica,sans-Serif" font-weight="bold" font-size="9.00">validators</text>
</g>
<!-- src/app/app.routes.ts -->
<g id="node1" class="node">
<title>src/app/app.routes.ts</title>
<g id="a_node1"><a xlink:href="src/app/app.routes.ts" xlink:title="app.routes.ts">
<path fill="#ddfeff" stroke="black" d="M95,-238C95,-238 30,-238 30,-238 27,-238 24,-235 24,-232 24,-232 24,-226 24,-226 24,-223 27,-220 30,-220 30,-220 95,-220 95,-220 98,-220 101,-223 101,-226 101,-226 101,-232 101,-232 101,-235 98,-238 95,-238"/>
<text text-anchor="start" x="32" y="-226.8" font-family="Helvetica,sans-Serif" font-size="9.00">app.routes.ts</text>
</a>
</g>
</g>
<!-- src/app/auth/login/login.component.ts -->
<g id="node2" class="node">
<title>src/app/auth/login/login.component.ts</title>
<g id="a_node2"><a xlink:href="src/app/auth/login/login.component.ts" xlink:title="login.component.ts">
<path fill="#ddfeff" stroke="black" d="M278.5,-118C278.5,-118 186.5,-118 186.5,-118 183.5,-118 180.5,-115 180.5,-112 180.5,-112 180.5,-106 180.5,-106 180.5,-103 183.5,-100 186.5,-100 186.5,-100 278.5,-100 278.5,-100 281.5,-100 284.5,-103 284.5,-106 284.5,-106 284.5,-112 284.5,-112 284.5,-115 281.5,-118 278.5,-118"/>
<text text-anchor="start" x="188.5" y="-106.8" font-family="Helvetica,sans-Serif" font-size="9.00">login.component.ts</text>
</a>
</g>
</g>
<!-- src/app/app.routes.ts&#45;&gt;src/app/auth/login/login.component.ts -->
<g id="edge1" class="edge">
<title>src/app/app.routes.ts&#45;&gt;src/app/auth/login/login.component.ts</title>
<path fill="none" stroke="#000000" stroke-width="2" stroke-dasharray="5,2" stroke-opacity="0.200000" d="M66.24,-219.88C71.67,-203.33 85.36,-168.3 109,-149 127.61,-133.8 152.17,-124.32 174.41,-118.43"/>
<polygon fill="#000000" fill-opacity="0.200000" stroke="#000000" stroke-width="2" stroke-opacity="0.200000" points="175.01,-120.44 180.31,-116.93 173.98,-116.37 175.01,-120.44"/>
</g>
<!-- src/app/auth/not&#45;found/not&#45;found.component.ts -->
<g id="node3" class="node">
<title>src/app/auth/not&#45;found/not&#45;found.component.ts</title>
<g id="a_node3"><a xlink:href="src/app/auth/not-found/not-found.component.ts" xlink:title="not&#45;found.component.ts">
<path fill="#ddfeff" stroke="black" d="M290,-58C290,-58 175,-58 175,-58 172,-58 169,-55 169,-52 169,-52 169,-46 169,-46 169,-43 172,-40 175,-40 175,-40 290,-40 290,-40 293,-40 296,-43 296,-46 296,-46 296,-52 296,-52 296,-55 293,-58 290,-58"/>
<text text-anchor="start" x="177" y="-46.8" font-family="Helvetica,sans-Serif" font-size="9.00">not&#45;found.component.ts</text>
</a>
</g>
</g>
<!-- src/app/app.routes.ts&#45;&gt;src/app/auth/not&#45;found/not&#45;found.component.ts -->
<g id="edge2" class="edge">
<title>src/app/app.routes.ts&#45;&gt;src/app/auth/not&#45;found/not&#45;found.component.ts</title>
<path fill="none" stroke="#000000" stroke-width="2" stroke-dasharray="5,2" stroke-opacity="0.200000" d="M63.75,-219.69C64.94,-194.87 71.62,-126.43 109,-89 123.47,-74.51 143.25,-65.27 162.7,-59.37"/>
<polygon fill="#000000" fill-opacity="0.200000" stroke="#000000" stroke-width="2" stroke-opacity="0.200000" points="163.53,-61.32 168.72,-57.65 162.37,-57.28 163.53,-61.32"/>
</g>
<!-- src/app/auth/request&#45;password&#45;reset&#45;email/request&#45;password&#45;reset&#45;email.component.ts -->
<g id="node4" class="node">
<title>src/app/auth/request&#45;password&#45;reset&#45;email/request&#45;password&#45;reset&#45;email.component.ts</title>
<g id="a_node4"><a xlink:href="src/app/auth/request-password-reset-email/request-password-reset-email.component.ts" xlink:title="request&#45;password&#45;reset&#45;email.component.ts">
<path fill="#ddfeff" stroke="black" d="M334,-178C334,-178 131,-178 131,-178 128,-178 125,-175 125,-172 125,-172 125,-166 125,-166 125,-163 128,-160 131,-160 131,-160 334,-160 334,-160 337,-160 340,-163 340,-166 340,-166 340,-172 340,-172 340,-175 337,-178 334,-178"/>
<text text-anchor="start" x="133" y="-166.8" font-family="Helvetica,sans-Serif" font-size="9.00">request&#45;password&#45;reset&#45;email.component.ts</text>
</a>
</g>
</g>
<!-- src/app/app.routes.ts&#45;&gt;src/app/auth/request&#45;password&#45;reset&#45;email/request&#45;password&#45;reset&#45;email.component.ts -->
<g id="edge3" class="edge">
<title>src/app/app.routes.ts&#45;&gt;src/app/auth/request&#45;password&#45;reset&#45;email/request&#45;password&#45;reset&#45;email.component.ts</title>
<path fill="none" stroke="#000000" stroke-width="2" stroke-dasharray="5,2" stroke-opacity="0.200000" d="M83.26,-219.81C91.19,-216.25 100.46,-212.26 109,-209 137.51,-198.11 170.43,-187.46 194.96,-179.9"/>
<polygon fill="#000000" fill-opacity="0.200000" stroke="#000000" stroke-width="2" stroke-opacity="0.200000" points="195.88,-181.81 201,-178.04 194.65,-177.79 195.88,-181.81"/>
</g>
<!-- src/app/auth/resend&#45;verification/resend&#45;verification.component.ts -->
<g id="node5" class="node">
<title>src/app/auth/resend&#45;verification/resend&#45;verification.component.ts</title>
<g id="a_node5"><a xlink:href="src/app/auth/resend-verification/resend-verification.component.ts" xlink:title="resend&#45;verification.component.ts">
<path fill="#ddfeff" stroke="black" d="M310,-238C310,-238 155,-238 155,-238 152,-238 149,-235 149,-232 149,-232 149,-226 149,-226 149,-223 152,-220 155,-220 155,-220 310,-220 310,-220 313,-220 316,-223 316,-226 316,-226 316,-232 316,-232 316,-235 313,-238 310,-238"/>
<text text-anchor="start" x="157" y="-226.8" font-family="Helvetica,sans-Serif" font-size="9.00">resend&#45;verification.component.ts</text>
</a>
</g>
</g>
<!-- src/app/app.routes.ts&#45;&gt;src/app/auth/resend&#45;verification/resend&#45;verification.component.ts -->
<g id="edge4" class="edge">
<title>src/app/app.routes.ts&#45;&gt;src/app/auth/resend&#45;verification/resend&#45;verification.component.ts</title>
<path fill="none" stroke="#000000" stroke-width="2" stroke-dasharray="5,2" stroke-opacity="0.200000" d="M101.2,-229C113.65,-229 128.06,-229 142.67,-229"/>
<polygon fill="#000000" fill-opacity="0.200000" stroke="#000000" stroke-width="2" stroke-opacity="0.200000" points="142.94,-231.1 148.94,-229 142.94,-226.9 142.94,-231.1"/>
</g>
<!-- src/app/auth/reset&#45;password/reset&#45;password.component.ts -->
<g id="node6" class="node">
<title>src/app/auth/reset&#45;password/reset&#45;password.component.ts</title>
<g id="a_node6"><a xlink:href="src/app/auth/reset-password/reset-password.component.ts" xlink:title="reset&#45;password.component.ts">
<path fill="#ddfeff" stroke="black" d="M302,-298C302,-298 163,-298 163,-298 160,-298 157,-295 157,-292 157,-292 157,-286 157,-286 157,-283 160,-280 163,-280 163,-280 302,-280 302,-280 305,-280 308,-283 308,-286 308,-286 308,-292 308,-292 308,-295 305,-298 302,-298"/>
<text text-anchor="start" x="165" y="-286.8" font-family="Helvetica,sans-Serif" font-size="9.00">reset&#45;password.component.ts</text>
</a>
</g>
</g>
<!-- src/app/app.routes.ts&#45;&gt;src/app/auth/reset&#45;password/reset&#45;password.component.ts -->
<g id="edge5" class="edge">
<title>src/app/app.routes.ts&#45;&gt;src/app/auth/reset&#45;password/reset&#45;password.component.ts</title>
<path fill="none" stroke="#000000" stroke-width="2" stroke-dasharray="5,2" stroke-opacity="0.200000" d="M71.6,-238.08C80.04,-246.93 94.08,-260.03 109,-267 121.93,-273.04 136.35,-277.43 150.62,-280.61"/>
<polygon fill="#000000" fill-opacity="0.200000" stroke="#000000" stroke-width="2" stroke-opacity="0.200000" points="150.42,-282.71 156.73,-281.9 151.29,-278.61 150.42,-282.71"/>
</g>
<!-- src/app/auth/signup/signup.component.ts -->
<g id="node7" class="node">
<title>src/app/auth/signup/signup.component.ts</title>
<g id="a_node7"><a xlink:href="src/app/auth/signup/signup.component.ts" xlink:title="signup.component.ts">
<path fill="#ddfeff" stroke="black" d="M283,-418C283,-418 182,-418 182,-418 179,-418 176,-415 176,-412 176,-412 176,-406 176,-406 176,-403 179,-400 182,-400 182,-400 283,-400 283,-400 286,-400 289,-403 289,-406 289,-406 289,-412 289,-412 289,-415 286,-418 283,-418"/>
<text text-anchor="start" x="184" y="-406.8" font-family="Helvetica,sans-Serif" font-size="9.00">signup.component.ts</text>
</a>
</g>
</g>
<!-- src/app/app.routes.ts&#45;&gt;src/app/auth/signup/signup.component.ts -->
<g id="edge6" class="edge">
<title>src/app/app.routes.ts&#45;&gt;src/app/auth/signup/signup.component.ts</title>
<path fill="none" stroke="#000000" stroke-width="2" stroke-dasharray="5,2" stroke-opacity="0.200000" d="M63.08,-238.19C62.37,-265.48 64.28,-346.65 109,-387 125.42,-401.82 148.3,-408.3 169.85,-410.75"/>
<polygon fill="#000000" fill-opacity="0.200000" stroke="#000000" stroke-width="2" stroke-opacity="0.200000" points="169.71,-412.85 175.88,-411.34 170.11,-408.67 169.71,-412.85"/>
</g>
<!-- src/app/auth/verify/verify.component.ts -->
<g id="node8" class="node">
<title>src/app/auth/verify/verify.component.ts</title>
<g id="a_node8"><a xlink:href="src/app/auth/verify/verify.component.ts" xlink:title="verify.component.ts">
<path fill="#ddfeff" stroke="black" d="M279.5,-358C279.5,-358 185.5,-358 185.5,-358 182.5,-358 179.5,-355 179.5,-352 179.5,-352 179.5,-346 179.5,-346 179.5,-343 182.5,-340 185.5,-340 185.5,-340 279.5,-340 279.5,-340 282.5,-340 285.5,-343 285.5,-346 285.5,-346 285.5,-352 285.5,-352 285.5,-355 282.5,-358 279.5,-358"/>
<text text-anchor="start" x="187.5" y="-346.8" font-family="Helvetica,sans-Serif" font-size="9.00">verify.component.ts</text>
</a>
</g>
</g>
<!-- src/app/app.routes.ts&#45;&gt;src/app/auth/verify/verify.component.ts -->
<g id="edge7" class="edge">
<title>src/app/app.routes.ts&#45;&gt;src/app/auth/verify/verify.component.ts</title>
<path fill="none" stroke="#000000" stroke-width="2" stroke-dasharray="5,2" stroke-opacity="0.200000" d="M64.87,-238.02C68.34,-257.63 79.44,-304.2 109,-327 127.14,-340.99 151.27,-347.17 173.31,-349.6"/>
<polygon fill="#000000" fill-opacity="0.200000" stroke="#000000" stroke-width="2" stroke-opacity="0.200000" points="173.3,-351.71 179.47,-350.19 173.7,-347.53 173.3,-351.71"/>
</g>
<!-- src/app/shared/services/auth/auth.service.ts -->
<g id="node9" class="node">
<title>src/app/shared/services/auth/auth.service.ts</title>
<g id="a_node9"><a xlink:href="src/app/shared/services/auth/auth.service.ts" xlink:title="auth.service.ts">
<path fill="#ddfeff" stroke="black" d="M505,-158C505,-158 434,-158 434,-158 431,-158 428,-155 428,-152 428,-152 428,-146 428,-146 428,-143 431,-140 434,-140 434,-140 505,-140 505,-140 508,-140 511,-143 511,-146 511,-146 511,-152 511,-152 511,-155 508,-158 505,-158"/>
<text text-anchor="start" x="436" y="-146.8" font-family="Helvetica,sans-Serif" font-size="9.00">auth.service.ts</text>
</a>
</g>
</g>
<!-- src/app/auth/login/login.component.ts&#45;&gt;src/app/shared/services/auth/auth.service.ts -->
<g id="edge8" class="edge">
<title>src/app/auth/login/login.component.ts&#45;&gt;src/app/shared/services/auth/auth.service.ts</title>
<path fill="none" stroke="#000000" stroke-width="2" stroke-opacity="0.200000" d="M284.78,-117.73C325.55,-124.67 382.1,-134.29 421.66,-141.03"/>
<polygon fill="#000000" fill-opacity="0.200000" stroke="#000000" stroke-width="2" stroke-opacity="0.200000" points="421.59,-143.15 427.86,-142.08 422.29,-139 421.59,-143.15"/>
</g>
<!-- src/app/shared/services/organization&#45;invitation/organization&#45;invitation.service.ts -->
<g id="node10" class="node">
<title>src/app/shared/services/organization&#45;invitation/organization&#45;invitation.service.ts</title>
<g id="a_node10"><a xlink:href="src/app/shared/services/organization-invitation/organization-invitation.service.ts" xlink:title="organization&#45;invitation.service.ts">
<path fill="#ddfeff" stroke="black" d="M545,-98C545,-98 394,-98 394,-98 391,-98 388,-95 388,-92 388,-92 388,-86 388,-86 388,-83 391,-80 394,-80 394,-80 545,-80 545,-80 548,-80 551,-83 551,-86 551,-86 551,-92 551,-92 551,-95 548,-98 545,-98"/>
<text text-anchor="start" x="396" y="-86.8" font-family="Helvetica,sans-Serif" font-size="9.00">organization&#45;invitation.service.ts</text>
</a>
</g>
</g>
<!-- src/app/auth/login/login.component.ts&#45;&gt;src/app/shared/services/organization&#45;invitation/organization&#45;invitation.service.ts -->
<g id="edge9" class="edge">
<title>src/app/auth/login/login.component.ts&#45;&gt;src/app/shared/services/organization&#45;invitation/organization&#45;invitation.service.ts</title>
<path fill="none" stroke="#000000" stroke-width="2" stroke-opacity="0.200000" d="M284.78,-104.64C313.13,-102.22 349.12,-99.16 381.72,-96.39"/>
<polygon fill="#000000" fill-opacity="0.200000" stroke="#000000" stroke-width="2" stroke-opacity="0.200000" points="381.96,-98.47 387.76,-95.87 381.61,-94.29 381.96,-98.47"/>
</g>
<!-- src/app/shared/services/snackbar/snackbar.service.ts -->
<g id="node11" class="node">
<title>src/app/shared/services/snackbar/snackbar.service.ts</title>
<g id="a_node11"><a xlink:href="src/app/shared/services/snackbar/snackbar.service.ts" xlink:title="snackbar.service.ts">
<path fill="#ddfeff" stroke="black" d="M515,-218C515,-218 424,-218 424,-218 421,-218 418,-215 418,-212 418,-212 418,-206 418,-206 418,-203 421,-200 424,-200 424,-200 515,-200 515,-200 518,-200 521,-203 521,-206 521,-206 521,-212 521,-212 521,-215 518,-218 515,-218"/>
<text text-anchor="start" x="426" y="-206.8" font-family="Helvetica,sans-Serif" font-size="9.00">snackbar.service.ts</text>
</a>
</g>
</g>
<!-- src/app/auth/login/login.component.ts&#45;&gt;src/app/shared/services/snackbar/snackbar.service.ts -->
<g id="edge10" class="edge">
<title>src/app/auth/login/login.component.ts&#45;&gt;src/app/shared/services/snackbar/snackbar.service.ts</title>
<path fill="none" stroke="#000000" stroke-width="2" stroke-opacity="0.200000" d="M284.69,-113.83C309.56,-118.81 337.92,-128.85 356,-149 367.53,-161.85 351.8,-174.8 364,-187 376.49,-199.49 394.17,-205.73 411.43,-208.65"/>
<polygon fill="#000000" fill-opacity="0.200000" stroke="#000000" stroke-width="2" stroke-opacity="0.200000" points="411.52,-210.78 417.76,-209.57 412.13,-206.63 411.52,-210.78"/>
</g>
<!-- src/app/shared/utils/formErrorHandler/formErrorHandler.ts -->
<g id="node12" class="node">
<title>src/app/shared/utils/formErrorHandler/formErrorHandler.ts</title>
<g id="a_node12"><a xlink:href="src/app/shared/utils/formErrorHandler/formErrorHandler.ts" xlink:title="formErrorHandler.ts">
<path fill="#ddfeff" stroke="black" d="M691,-278C691,-278 597,-278 597,-278 594,-278 591,-275 591,-272 591,-272 591,-266 591,-266 591,-263 594,-260 597,-260 597,-260 691,-260 691,-260 694,-260 697,-263 697,-266 697,-266 697,-272 697,-272 697,-275 694,-278 691,-278"/>
<text text-anchor="start" x="599" y="-266.8" font-family="Helvetica,sans-Serif" font-size="9.00">formErrorHandler.ts</text>
</a>
</g>
</g>
<!-- src/app/auth/login/login.component.ts&#45;&gt;src/app/shared/utils/formErrorHandler/formErrorHandler.ts -->
<g id="edge11" class="edge">
<title>src/app/auth/login/login.component.ts&#45;&gt;src/app/shared/utils/formErrorHandler/formErrorHandler.ts</title>
<path fill="none" stroke="#000000" stroke-width="2" stroke-opacity="0.200000" d="M284.55,-112.37C310.2,-116.91 339.29,-126.99 356,-149 368.37,-165.3 349.22,-318.85 364,-333 380.29,-348.6 545.81,-340.73 567,-333 594.08,-323.12 618.19,-298.87 631.67,-283.22"/>
<polygon fill="#000000" fill-opacity="0.200000" stroke="#000000" stroke-width="2" stroke-opacity="0.200000" points="633.57,-284.22 635.82,-278.27 630.35,-281.52 633.57,-284.22"/>
</g>
<!-- src/app/auth/not&#45;found/not&#45;found.component.ts&#45;&gt;src/app/shared/services/auth/auth.service.ts -->
<g id="edge12" class="edge">
<title>src/app/auth/not&#45;found/not&#45;found.component.ts&#45;&gt;src/app/shared/services/auth/auth.service.ts</title>
<path fill="none" stroke="#000000" stroke-width="2" stroke-opacity="0.200000" d="M296.29,-56.49C318,-62.12 340.68,-71.93 356,-89 367.53,-101.85 351.8,-114.8 364,-127 378.97,-141.97 401.38,-147.96 421.61,-150.01"/>
<polygon fill="#000000" fill-opacity="0.200000" stroke="#000000" stroke-width="2" stroke-opacity="0.200000" points="421.65,-152.12 427.8,-150.52 422,-147.93 421.65,-152.12"/>
</g>
<!-- src/app/auth/request&#45;password&#45;reset&#45;email/request&#45;password&#45;reset&#45;email.component.ts&#45;&gt;src/app/shared/services/auth/auth.service.ts -->
<g id="edge13" class="edge">
<title>src/app/auth/request&#45;password&#45;reset&#45;email/request&#45;password&#45;reset&#45;email.component.ts&#45;&gt;src/app/shared/services/auth/auth.service.ts</title>
<path fill="none" stroke="#000000" stroke-width="2" stroke-opacity="0.200000" d="M339.31,-159.99C368.17,-157.54 397.97,-155 421.67,-152.99"/>
<polygon fill="#000000" fill-opacity="0.200000" stroke="#000000" stroke-width="2" stroke-opacity="0.200000" points="422.07,-155.06 427.87,-152.46 421.71,-150.87 422.07,-155.06"/>
</g>
<!-- src/app/auth/request&#45;password&#45;reset&#45;email/request&#45;password&#45;reset&#45;email.component.ts&#45;&gt;src/app/shared/services/snackbar/snackbar.service.ts -->
<g id="edge14" class="edge">
<title>src/app/auth/request&#45;password&#45;reset&#45;email/request&#45;password&#45;reset&#45;email.component.ts&#45;&gt;src/app/shared/services/snackbar/snackbar.service.ts</title>
<path fill="none" stroke="#000000" stroke-width="2" stroke-opacity="0.200000" d="M286.53,-178.03C323.8,-184.37 373.59,-192.85 411.67,-199.33"/>
<polygon fill="#000000" fill-opacity="0.200000" stroke="#000000" stroke-width="2" stroke-opacity="0.200000" points="411.41,-201.41 417.68,-200.35 412.11,-197.27 411.41,-201.41"/>
</g>
<!-- src/app/auth/request&#45;password&#45;reset&#45;email/request&#45;password&#45;reset&#45;email.component.ts&#45;&gt;src/app/shared/utils/formErrorHandler/formErrorHandler.ts -->
<g id="edge15" class="edge">
<title>src/app/auth/request&#45;password&#45;reset&#45;email/request&#45;password&#45;reset&#45;email.component.ts&#45;&gt;src/app/shared/utils/formErrorHandler/formErrorHandler.ts</title>
<path fill="none" stroke="#000000" stroke-width="2" stroke-opacity="0.200000" d="M307.3,-178.04C325.94,-183.93 344.04,-193.5 356,-209 374.23,-232.61 342.29,-322.54 364,-343 380.42,-358.47 546.1,-351.49 567,-343 596.69,-330.94 621.13,-301.08 633.74,-283.2"/>
<polygon fill="#000000" fill-opacity="0.200000" stroke="#000000" stroke-width="2" stroke-opacity="0.200000" points="635.6,-284.2 637.27,-278.07 632.14,-281.82 635.6,-284.2"/>
</g>
<!-- src/app/auth/resend&#45;verification/resend&#45;verification.component.ts&#45;&gt;src/app/shared/services/auth/auth.service.ts -->
<g id="edge16" class="edge">
<title>src/app/auth/resend&#45;verification/resend&#45;verification.component.ts&#45;&gt;src/app/shared/services/auth/auth.service.ts</title>
<path fill="none" stroke="#000000" stroke-width="2" stroke-opacity="0.200000" d="M316.28,-225.42C330.58,-221.79 344.52,-216 356,-207 362.89,-201.6 357.65,-195.03 364,-189 379.97,-173.85 402.28,-164.27 422.18,-158.31"/>
<polygon fill="#000000" fill-opacity="0.200000" stroke="#000000" stroke-width="2" stroke-opacity="0.200000" points="422.81,-160.31 428,-156.64 421.65,-156.27 422.81,-160.31"/>
</g>
<!-- src/app/auth/resend&#45;verification/resend&#45;verification.component.ts&#45;&gt;src/app/shared/services/snackbar/snackbar.service.ts -->
<g id="edge17" class="edge">
<title>src/app/auth/resend&#45;verification/resend&#45;verification.component.ts&#45;&gt;src/app/shared/services/snackbar/snackbar.service.ts</title>
<path fill="none" stroke="#000000" stroke-width="2" stroke-opacity="0.200000" d="M316.02,-221.98C347.63,-219.29 382.95,-216.28 411.64,-213.84"/>
<polygon fill="#000000" fill-opacity="0.200000" stroke="#000000" stroke-width="2" stroke-opacity="0.200000" points="411.85,-215.93 417.65,-213.33 411.5,-211.74 411.85,-215.93"/>
</g>
<!-- src/app/auth/resend&#45;verification/resend&#45;verification.component.ts&#45;&gt;src/app/shared/utils/formErrorHandler/formErrorHandler.ts -->
<g id="edge18" class="edge">
<title>src/app/auth/resend&#45;verification/resend&#45;verification.component.ts&#45;&gt;src/app/shared/utils/formErrorHandler/formErrorHandler.ts</title>
<path fill="none" stroke="#000000" stroke-width="2" stroke-opacity="0.200000" d="M306.35,-238.08C325.21,-243.96 343.66,-253.52 356,-269 368.24,-284.36 349.5,-343.76 364,-357 380.66,-372.21 546.49,-366.39 567,-357 600.05,-341.87 624.21,-304.49 635.63,-283.64"/>
<polygon fill="#000000" fill-opacity="0.200000" stroke="#000000" stroke-width="2" stroke-opacity="0.200000" points="637.55,-284.51 638.51,-278.23 633.84,-282.54 637.55,-284.51"/>
</g>
<!-- src/app/auth/reset&#45;password/reset&#45;password.component.ts&#45;&gt;src/app/shared/services/auth/auth.service.ts -->
<g id="edge19" class="edge">
<title>src/app/auth/reset&#45;password/reset&#45;password.component.ts&#45;&gt;src/app/shared/services/auth/auth.service.ts</title>
<path fill="none" stroke="#000000" stroke-width="2" stroke-opacity="0.200000" d="M308.06,-290.63C326.02,-287.34 343.59,-280.39 356,-267 367.85,-254.22 353.4,-202.83 364,-189 377.88,-170.89 401.02,-160.97 422,-155.55"/>
<polygon fill="#000000" fill-opacity="0.200000" stroke="#000000" stroke-width="2" stroke-opacity="0.200000" points="422.51,-157.59 427.85,-154.14 421.53,-153.5 422.51,-157.59"/>
</g>
<!-- src/app/auth/reset&#45;password/reset&#45;password.component.ts&#45;&gt;src/app/shared/services/snackbar/snackbar.service.ts -->
<g id="edge20" class="edge">
<title>src/app/auth/reset&#45;password/reset&#45;password.component.ts&#45;&gt;src/app/shared/services/snackbar/snackbar.service.ts</title>
<path fill="none" stroke="#000000" stroke-width="2" stroke-opacity="0.200000" d="M304.37,-279.97C321.53,-276.78 339.63,-272.55 356,-267 390.34,-255.36 427.15,-234.63 448.98,-221.36"/>
<polygon fill="#000000" fill-opacity="0.200000" stroke="#000000" stroke-width="2" stroke-opacity="0.200000" points="450.18,-223.09 454.2,-218.16 447.99,-219.51 450.18,-223.09"/>
</g>
<!-- src/app/auth/reset&#45;password/reset&#45;password.component.ts&#45;&gt;src/app/shared/utils/formErrorHandler/formErrorHandler.ts -->
<g id="edge21" class="edge">
<title>src/app/auth/reset&#45;password/reset&#45;password.component.ts&#45;&gt;src/app/shared/utils/formErrorHandler/formErrorHandler.ts</title>
<path fill="none" stroke="#000000" stroke-width="2" stroke-opacity="0.200000" d="M302.53,-298C322.33,-303.83 342.25,-313.38 356,-329 368.55,-343.26 349.36,-358.89 364,-371 398.75,-399.76 526.68,-391.24 567,-371 603.6,-352.63 627.05,-307.36 637.2,-283.79"/>
<polygon fill="#000000" fill-opacity="0.200000" stroke="#000000" stroke-width="2" stroke-opacity="0.200000" points="639.23,-284.38 639.6,-278.03 635.36,-282.76 639.23,-284.38"/>
</g>
<!-- src/app/shared/validators/CustomValidators.ts -->
<g id="node13" class="node">
<title>src/app/shared/validators/CustomValidators.ts</title>
<g id="a_node13"><a xlink:href="src/app/shared/validators/CustomValidators.ts" xlink:title="CustomValidators.ts">
<path fill="#ddfeff" stroke="black" d="M516.5,-304C516.5,-304 422.5,-304 422.5,-304 419.5,-304 416.5,-301 416.5,-298 416.5,-298 416.5,-292 416.5,-292 416.5,-289 419.5,-286 422.5,-286 422.5,-286 516.5,-286 516.5,-286 519.5,-286 522.5,-289 522.5,-292 522.5,-292 522.5,-298 522.5,-298 522.5,-301 519.5,-304 516.5,-304"/>
<text text-anchor="start" x="424.5" y="-292.8" font-family="Helvetica,sans-Serif" font-size="9.00">CustomValidators.ts</text>
</a>
</g>
</g>
<!-- src/app/auth/reset&#45;password/reset&#45;password.component.ts&#45;&gt;src/app/shared/validators/CustomValidators.ts -->
<g id="edge22" class="edge">
<title>src/app/auth/reset&#45;password/reset&#45;password.component.ts&#45;&gt;src/app/shared/validators/CustomValidators.ts</title>
<path fill="none" stroke="#000000" stroke-width="2" stroke-opacity="0.200000" d="M308.18,-290.91C341.19,-291.75 379.43,-292.73 410.27,-293.51"/>
<polygon fill="#000000" fill-opacity="0.200000" stroke="#000000" stroke-width="2" stroke-opacity="0.200000" points="410.29,-295.61 416.34,-293.67 410.4,-291.42 410.29,-295.61"/>
</g>
<!-- src/app/auth/signup/signup.component.ts&#45;&gt;src/app/shared/services/auth/auth.service.ts -->
<g id="edge23" class="edge">
<title>src/app/auth/signup/signup.component.ts&#45;&gt;src/app/shared/services/auth/auth.service.ts</title>
<path fill="none" stroke="#000000" stroke-width="2" stroke-opacity="0.200000" d="M289.19,-413.38C313.3,-412.08 339.68,-405.73 356,-387 370.46,-370.4 351.16,-206.88 364,-189 377.41,-170.32 400.76,-160.37 422,-155.06"/>
<polygon fill="#000000" fill-opacity="0.200000" stroke="#000000" stroke-width="2" stroke-opacity="0.200000" points="422.55,-157.08 427.92,-153.68 421.6,-152.99 422.55,-157.08"/>
</g>
<!-- src/app/auth/signup/signup.component.ts&#45;&gt;src/app/shared/services/snackbar/snackbar.service.ts -->
<g id="edge24" class="edge">
<title>src/app/auth/signup/signup.component.ts&#45;&gt;src/app/shared/services/snackbar/snackbar.service.ts</title>
<path fill="none" stroke="#000000" stroke-width="2" stroke-opacity="0.200000" d="M289.24,-413.13C313.21,-411.74 339.46,-405.4 356,-387 372.68,-368.44 351.18,-296.41 364,-275 380.02,-248.24 411.53,-230.59 435.79,-220.33"/>
<polygon fill="#000000" fill-opacity="0.200000" stroke="#000000" stroke-width="2" stroke-opacity="0.200000" points="436.71,-222.22 441.47,-218.01 435.12,-218.34 436.71,-222.22"/>
</g>
<!-- src/app/auth/signup/signup.component.ts&#45;&gt;src/app/shared/utils/formErrorHandler/formErrorHandler.ts -->
<g id="edge25" class="edge">
<title>src/app/auth/signup/signup.component.ts&#45;&gt;src/app/shared/utils/formErrorHandler/formErrorHandler.ts</title>
<path fill="none" stroke="#000000" stroke-width="2" stroke-opacity="0.200000" d="M260.16,-418.07C320.06,-436.72 467.83,-472.8 567,-413 614.46,-384.38 633.8,-315.14 640.26,-284.28"/>
<polygon fill="#000000" fill-opacity="0.200000" stroke="#000000" stroke-width="2" stroke-opacity="0.200000" points="642.33,-284.6 641.44,-278.31 638.22,-283.78 642.33,-284.6"/>
</g>
<!-- src/app/auth/signup/signup.component.ts&#45;&gt;src/app/shared/validators/CustomValidators.ts -->
<g id="edge27" class="edge">
<title>src/app/auth/signup/signup.component.ts&#45;&gt;src/app/shared/validators/CustomValidators.ts</title>
<path fill="none" stroke="#000000" stroke-width="2" stroke-opacity="0.200000" d="M289.26,-405.02C310.85,-401.95 335.29,-396.54 356,-387 397.8,-367.75 437.14,-329.24 456.31,-308.67"/>
<polygon fill="#000000" fill-opacity="0.200000" stroke="#000000" stroke-width="2" stroke-opacity="0.200000" points="458.01,-309.93 460.52,-304.09 454.91,-307.09 458.01,-309.93"/>
</g>
<!-- src/app/shared/utils/jwtDecoder/jwtDecoder.ts -->
<g id="node14" class="node">
<title>src/app/shared/utils/jwtDecoder/jwtDecoder.ts</title>
<g id="a_node14"><a xlink:href="src/app/shared/utils/jwtDecoder/jwtDecoder.ts" xlink:title="jwtDecoder.ts">
<path fill="#ddfeff" stroke="black" d="M677,-218C677,-218 611,-218 611,-218 608,-218 605,-215 605,-212 605,-212 605,-206 605,-206 605,-203 608,-200 611,-200 611,-200 677,-200 677,-200 680,-200 683,-203 683,-206 683,-206 683,-212 683,-212 683,-215 680,-218 677,-218"/>
<text text-anchor="start" x="613" y="-206.8" font-family="Helvetica,sans-Serif" font-size="9.00">jwtDecoder.ts</text>
</a>
</g>
</g>
<!-- src/app/auth/signup/signup.component.ts&#45;&gt;src/app/shared/utils/jwtDecoder/jwtDecoder.ts -->
<g id="edge26" class="edge">
<title>src/app/auth/signup/signup.component.ts&#45;&gt;src/app/shared/utils/jwtDecoder/jwtDecoder.ts</title>
<path fill="none" stroke="#000000" stroke-width="2" stroke-opacity="0.200000" d="M289.03,-404.23C374.31,-395.67 531.44,-374.57 567,-333 579.19,-318.75 564.93,-264.82 575,-249 583.18,-236.16 597.07,-226.93 610.17,-220.6"/>
<polygon fill="#000000" fill-opacity="0.200000" stroke="#000000" stroke-width="2" stroke-opacity="0.200000" points="611.14,-222.46 615.72,-218.06 609.39,-218.64 611.14,-222.46"/>
</g>
<!-- src/app/auth/verify/verify.component.ts&#45;&gt;src/app/shared/services/auth/auth.service.ts -->
<g id="edge28" class="edge">
<title>src/app/auth/verify/verify.component.ts&#45;&gt;src/app/shared/services/auth/auth.service.ts</title>
<path fill="none" stroke="#000000" stroke-width="2" stroke-opacity="0.200000" d="M285.61,-353.41C310.57,-352.5 338.72,-346.48 356,-327 376.38,-304.02 345.86,-213.79 364,-189 377.52,-170.51 400.76,-160.57 421.89,-155.22"/>
<polygon fill="#000000" fill-opacity="0.200000" stroke="#000000" stroke-width="2" stroke-opacity="0.200000" points="422.43,-157.25 427.79,-153.83 421.46,-153.17 422.43,-157.25"/>
</g>
<!-- src/app/auth/verify/verify.component.ts&#45;&gt;src/app/shared/services/snackbar/snackbar.service.ts -->
<g id="edge29" class="edge">
<title>src/app/auth/verify/verify.component.ts&#45;&gt;src/app/shared/services/snackbar/snackbar.service.ts</title>
<path fill="none" stroke="#000000" stroke-width="2" stroke-opacity="0.200000" d="M285.77,-352.66C310.32,-351.46 338.05,-345.41 356,-327 372.33,-310.26 351.18,-294.56 364,-275 381.2,-248.75 412.86,-230.95 436.84,-220.51"/>
<polygon fill="#000000" fill-opacity="0.200000" stroke="#000000" stroke-width="2" stroke-opacity="0.200000" points="437.74,-222.41 442.45,-218.14 436.11,-218.54 437.74,-222.41"/>
</g>
<!-- src/app/auth/verify/verify.component.ts&#45;&gt;src/app/shared/utils/formErrorHandler/formErrorHandler.ts -->
<g id="edge30" class="edge">
<title>src/app/auth/verify/verify.component.ts&#45;&gt;src/app/shared/utils/formErrorHandler/formErrorHandler.ts</title>
<path fill="none" stroke="#000000" stroke-width="2" stroke-opacity="0.200000" d="M259.09,-358.01C285.12,-366.65 326.79,-379.1 364,-384 453.45,-395.79 487.54,-426.73 567,-384 606.83,-362.58 629.27,-310.11 638.29,-284.11"/>
<polygon fill="#000000" fill-opacity="0.200000" stroke="#000000" stroke-width="2" stroke-opacity="0.200000" points="640.39,-284.46 640.3,-278.11 636.4,-283.13 640.39,-284.46"/>
</g>
<!-- src/app/shared/services/auth/auth.service.ts&#45;&gt;src/app/shared/utils/jwtDecoder/jwtDecoder.ts -->
<g id="edge31" class="edge">
<title>src/app/shared/services/auth/auth.service.ts&#45;&gt;src/app/shared/utils/jwtDecoder/jwtDecoder.ts</title>
<path fill="none" stroke="#000000" stroke-width="2" stroke-opacity="0.200000" d="M496.7,-158.11C527.4,-168.79 578.25,-186.48 611.19,-197.93"/>
<polygon fill="#000000" fill-opacity="0.200000" stroke="#000000" stroke-width="2" stroke-opacity="0.200000" points="610.76,-200.01 617.12,-200 612.14,-196.04 610.76,-200.01"/>
</g>
</g>
</svg>
