<?xml version="1.0" encoding="UTF-8" standalone="no"?>
<!DOCTYPE svg PUBLIC "-//W3C//DTD SVG 1.1//EN"
 "http://www.w3.org/Graphics/SVG/1.1/DTD/svg11.dtd">
<!-- Generated by graphviz version 2.43.0 (0)
 -->
<!-- Title: dependency&#45;cruiser output Pages: 1 -->
<svg width="375pt" height="238pt"
 viewBox="0.00 0.00 375.00 238.00" xmlns="http://www.w3.org/2000/svg" xmlns:xlink="http://www.w3.org/1999/xlink">
<g id="graph0" class="graph" transform="scale(1 1) rotate(0) translate(4 234)">
<title>dependency&#45;cruiser output</title>
<polygon fill="white" stroke="transparent" points="-4,4 -4,-234 371,-234 371,4 -4,4"/>
<g id="clust1" class="cluster">
<title>cluster_src</title>
<path fill="#ffffff" stroke="black" stroke-width="2" d="M20,-8C20,-8 347,-8 347,-8 353,-8 359,-14 359,-20 359,-20 359,-210 359,-210 359,-216 353,-222 347,-222 347,-222 20,-222 20,-222 14,-222 8,-216 8,-210 8,-210 8,-20 8,-20 8,-14 14,-8 20,-8"/>
<text text-anchor="middle" x="183.5" y="-210.8" font-family="Helvetica,sans-Serif" font-weight="bold" font-size="9.00">src</text>
</g>
<g id="clust2" class="cluster">
<title>cluster_src/app</title>
<path fill="#ffffff" stroke="black" stroke-width="2" d="M28,-16C28,-16 339,-16 339,-16 345,-16 351,-22 351,-28 351,-28 351,-184 351,-184 351,-190 345,-196 339,-196 339,-196 28,-196 28,-196 22,-196 16,-190 16,-184 16,-184 16,-28 16,-28 16,-22 22,-16 28,-16"/>
<text text-anchor="middle" x="183.5" y="-184.8" font-family="Helvetica,sans-Serif" font-weight="bold" font-size="9.00">app</text>
</g>
<g id="clust3" class="cluster">
<title>cluster_src/app/common</title>
<path fill="#ffffff" stroke="black" stroke-width="2" d="M36,-24C36,-24 331,-24 331,-24 337,-24 343,-30 343,-36 343,-36 343,-158 343,-158 343,-164 337,-170 331,-170 331,-170 36,-170 36,-170 30,-170 24,-164 24,-158 24,-158 24,-36 24,-36 24,-30 30,-24 36,-24"/>
<text text-anchor="middle" x="183.5" y="-158.8" font-family="Helvetica,sans-Serif" font-weight="bold" font-size="9.00">common</text>
</g>
<g id="clust4" class="cluster">
<title>cluster_src/app/common/list</title>
<path fill="#ffffff" stroke="black" stroke-width="2" d="M49,-92C49,-92 136,-92 136,-92 142,-92 148,-98 148,-104 148,-104 148,-132 148,-132 148,-138 142,-144 136,-144 136,-144 49,-144 49,-144 43,-144 37,-138 37,-132 37,-132 37,-104 37,-104 37,-98 43,-92 49,-92"/>
<text text-anchor="middle" x="92.5" y="-132.8" font-family="Helvetica,sans-Serif" font-weight="bold" font-size="9.00">list</text>
</g>
<g id="clust5" class="cluster">
<title>cluster_src/app/common/mobile&#45;paginator</title>
<path fill="#ffffff" stroke="black" stroke-width="2" d="M173,-62C173,-62 323,-62 323,-62 329,-62 335,-68 335,-74 335,-74 335,-102 335,-102 335,-108 329,-114 323,-114 323,-114 173,-114 173,-114 167,-114 161,-108 161,-102 161,-102 161,-74 161,-74 161,-68 167,-62 173,-62"/>
<text text-anchor="middle" x="248" y="-102.8" font-family="Helvetica,sans-Serif" font-weight="bold" font-size="9.00">mobile&#45;paginator</text>
</g>
<g id="clust6" class="cluster">
<title>cluster_src/app/common/table</title>
<path fill="#ffffff" stroke="black" stroke-width="2" d="M44,-32C44,-32 141,-32 141,-32 147,-32 153,-38 153,-44 153,-44 153,-72 153,-72 153,-78 147,-84 141,-84 141,-84 44,-84 44,-84 38,-84 32,-78 32,-72 32,-72 32,-44 32,-44 32,-38 38,-32 44,-32"/>
<text text-anchor="middle" x="92.5" y="-72.8" font-family="Helvetica,sans-Serif" font-weight="bold" font-size="9.00">table</text>
</g>
<!-- src/app/common/list/list.component.ts -->
<g id="node1" class="node">
<title>src/app/common/list/list.component.ts</title>
<g id="a_node1"><a xlink:href="src/app/common/list/list.component.ts" xlink:title="list.component.ts">
<path fill="#ddfeff" stroke="black" d="M134,-118C134,-118 51,-118 51,-118 48,-118 45,-115 45,-112 45,-112 45,-106 45,-106 45,-103 48,-100 51,-100 51,-100 134,-100 134,-100 137,-100 140,-103 140,-106 140,-106 140,-112 140,-112 140,-115 137,-118 134,-118"/>
<text text-anchor="start" x="53" y="-106.8" font-family="Helvetica,sans-Serif" font-size="9.00">list.component.ts</text>
</a>
</g>
</g>
<!-- src/app/common/mobile&#45;paginator/mobile&#45;paginator.component.ts -->
<g id="node2" class="node">
<title>src/app/common/mobile&#45;paginator/mobile&#45;paginator.component.ts</title>
<g id="a_node2"><a xlink:href="src/app/common/mobile-paginator/mobile-paginator.component.ts" xlink:title="mobile&#45;paginator.component.ts">
<path fill="#ddfeff" stroke="black" d="M321,-88C321,-88 175,-88 175,-88 172,-88 169,-85 169,-82 169,-82 169,-76 169,-76 169,-73 172,-70 175,-70 175,-70 321,-70 321,-70 324,-70 327,-73 327,-76 327,-76 327,-82 327,-82 327,-85 324,-88 321,-88"/>
<text text-anchor="start" x="177" y="-76.8" font-family="Helvetica,sans-Serif" font-size="9.00">mobile&#45;paginator.component.ts</text>
</a>
</g>
</g>
<!-- src/app/common/list/list.component.ts&#45;&gt;src/app/common/mobile&#45;paginator/mobile&#45;paginator.component.ts -->
<g id="edge1" class="edge">
<title>src/app/common/list/list.component.ts&#45;&gt;src/app/common/mobile&#45;paginator/mobile&#45;paginator.component.ts</title>
<path fill="none" stroke="#000000" stroke-width="2" stroke-opacity="0.200000" d="M139.56,-100C156.93,-96.6 176.82,-92.72 194.72,-89.22"/>
<polygon fill="#000000" fill-opacity="0.200000" stroke="#000000" stroke-width="2" stroke-opacity="0.200000" points="195.23,-91.26 200.71,-88.05 194.42,-87.14 195.23,-91.26"/>
</g>
<!-- src/app/common/table/table.component.ts -->
<g id="node3" class="node">
<title>src/app/common/table/table.component.ts</title>
<g id="a_node3"><a xlink:href="src/app/common/table/table.component.ts" xlink:title="table.component.ts">
<path fill="#ddfeff" stroke="black" d="M139,-58C139,-58 46,-58 46,-58 43,-58 40,-55 40,-52 40,-52 40,-46 40,-46 40,-43 43,-40 46,-40 46,-40 139,-40 139,-40 142,-40 145,-43 145,-46 145,-46 145,-52 145,-52 145,-55 142,-58 139,-58"/>
<text text-anchor="start" x="48" y="-46.8" font-family="Helvetica,sans-Serif" font-size="9.00">table.component.ts</text>
</a>
</g>
</g>
<!-- src/app/common/table/table.component.ts&#45;&gt;src/app/common/mobile&#45;paginator/mobile&#45;paginator.component.ts -->
<g id="edge2" class="edge">
<title>src/app/common/table/table.component.ts&#45;&gt;src/app/common/mobile&#45;paginator/mobile&#45;paginator.component.ts</title>
<path fill="none" stroke="#000000" stroke-width="2" stroke-opacity="0.200000" d="M139.56,-58C156.93,-61.4 176.82,-65.28 194.72,-68.78"/>
<polygon fill="#000000" fill-opacity="0.200000" stroke="#000000" stroke-width="2" stroke-opacity="0.200000" points="194.42,-70.86 200.71,-69.95 195.23,-66.74 194.42,-70.86"/>
</g>
</g>
</svg>
