<?xml version="1.0" encoding="UTF-8" standalone="no"?>
<!DOCTYPE svg PUBLIC "-//W3C//DTD SVG 1.1//EN"
 "http://www.w3.org/Graphics/SVG/1.1/DTD/svg11.dtd">
<!-- Generated by graphviz version 2.43.0 (0)
 -->
<!-- Title: dependency&#45;cruiser output Pages: 1 -->
<svg width="618pt" height="1076pt"
 viewBox="0.00 0.00 618.00 1076.00" xmlns="http://www.w3.org/2000/svg" xmlns:xlink="http://www.w3.org/1999/xlink">
<g id="graph0" class="graph" transform="scale(1 1) rotate(0) translate(4 1072)">
<title>dependency&#45;cruiser output</title>
<polygon fill="white" stroke="transparent" points="-4,4 -4,-1072 614,-1072 614,4 -4,4"/>
<g id="clust1" class="cluster">
<title>cluster_src</title>
<path fill="#ffffff" stroke="black" stroke-width="2" d="M20,-8C20,-8 590,-8 590,-8 596,-8 602,-14 602,-20 602,-20 602,-1048 602,-1048 602,-1054 596,-1060 590,-1060 590,-1060 20,-1060 20,-1060 14,-1060 8,-1054 8,-1048 8,-1048 8,-20 8,-20 8,-14 14,-8 20,-8"/>
<text text-anchor="middle" x="305" y="-1048.8" font-family="Helvetica,sans-Serif" font-weight="bold" font-size="9.00">src</text>
</g>
<g id="clust2" class="cluster">
<title>cluster_src/app</title>
<path fill="#ffffff" stroke="black" stroke-width="2" d="M28,-16C28,-16 582,-16 582,-16 588,-16 594,-22 594,-28 594,-28 594,-1022 594,-1022 594,-1028 588,-1034 582,-1034 582,-1034 28,-1034 28,-1034 22,-1034 16,-1028 16,-1022 16,-1022 16,-28 16,-28 16,-22 22,-16 28,-16"/>
<text text-anchor="middle" x="305" y="-1022.8" font-family="Helvetica,sans-Serif" font-weight="bold" font-size="9.00">app</text>
</g>
<g id="clust3" class="cluster">
<title>cluster_src/app/common</title>
<path fill="#ffffff" stroke="black" stroke-width="2" d="M456,-379C456,-379 574,-379 574,-379 580,-379 586,-385 586,-391 586,-391 586,-453 586,-453 586,-459 580,-465 574,-465 574,-465 456,-465 456,-465 450,-465 444,-459 444,-453 444,-453 444,-391 444,-391 444,-385 450,-379 456,-379"/>
<text text-anchor="middle" x="515" y="-453.8" font-family="Helvetica,sans-Serif" font-weight="bold" font-size="9.00">common</text>
</g>
<g id="clust4" class="cluster">
<title>cluster_src/app/common/dialog</title>
<path fill="#ffffff" stroke="black" stroke-width="2" d="M464,-387C464,-387 566,-387 566,-387 572,-387 578,-393 578,-399 578,-399 578,-427 578,-427 578,-433 572,-439 566,-439 566,-439 464,-439 464,-439 458,-439 452,-433 452,-427 452,-427 452,-399 452,-399 452,-393 458,-387 464,-387"/>
<text text-anchor="middle" x="515" y="-427.8" font-family="Helvetica,sans-Serif" font-weight="bold" font-size="9.00">dialog</text>
</g>
<g id="clust5" class="cluster">
<title>cluster_src/app/main</title>
<path fill="#ffffff" stroke="black" stroke-width="2" d="M36,-24C36,-24 279,-24 279,-24 285,-24 291,-30 291,-36 291,-36 291,-996 291,-996 291,-1002 285,-1008 279,-1008 279,-1008 36,-1008 36,-1008 30,-1008 24,-1002 24,-996 24,-996 24,-36 24,-36 24,-30 30,-24 36,-24"/>
<text text-anchor="middle" x="157.5" y="-996.8" font-family="Helvetica,sans-Serif" font-weight="bold" font-size="9.00">main</text>
</g>
<g id="clust6" class="cluster">
<title>cluster_src/app/main/issues</title>
<path fill="#ffffff" stroke="black" stroke-width="2" d="M44,-802C44,-802 271,-802 271,-802 277,-802 283,-808 283,-814 283,-814 283,-970 283,-970 283,-976 277,-982 271,-982 271,-982 44,-982 44,-982 38,-982 32,-976 32,-970 32,-970 32,-814 32,-814 32,-808 38,-802 44,-802"/>
<text text-anchor="middle" x="157.5" y="-970.8" font-family="Helvetica,sans-Serif" font-weight="bold" font-size="9.00">issues</text>
</g>
<g id="clust7" class="cluster">
<title>cluster_src/app/main/issues/view&#45;issue</title>
<path fill="#ffffff" stroke="black" stroke-width="2" d="M52,-836C52,-836 263,-836 263,-836 269,-836 275,-842 275,-848 275,-848 275,-944 275,-944 275,-950 269,-956 263,-956 263,-956 52,-956 52,-956 46,-956 40,-950 40,-944 40,-944 40,-848 40,-848 40,-842 46,-836 52,-836"/>
<text text-anchor="middle" x="157.5" y="-944.8" font-family="Helvetica,sans-Serif" font-weight="bold" font-size="9.00">view&#45;issue</text>
</g>
<g id="clust8" class="cluster">
<title>cluster_src/app/main/issues/view&#45;issue/view&#45;comment</title>
<path fill="#ffffff" stroke="black" stroke-width="2" d="M60,-844C60,-844 255,-844 255,-844 261,-844 267,-850 267,-856 267,-856 267,-918 267,-918 267,-924 261,-930 255,-930 255,-930 60,-930 60,-930 54,-930 48,-924 48,-918 48,-918 48,-856 48,-856 48,-850 54,-844 60,-844"/>
<text text-anchor="middle" x="157.5" y="-918.8" font-family="Helvetica,sans-Serif" font-weight="bold" font-size="9.00">view&#45;comment</text>
</g>
<g id="clust9" class="cluster">
<title>cluster_src/app/main/issues/view&#45;issue/view&#45;comment/delete&#45;comment&#45;dialog</title>
<path fill="#ffffff" stroke="black" stroke-width="2" d="M68,-852C68,-852 247,-852 247,-852 253,-852 259,-858 259,-864 259,-864 259,-892 259,-892 259,-898 253,-904 247,-904 247,-904 68,-904 68,-904 62,-904 56,-898 56,-892 56,-892 56,-864 56,-864 56,-858 62,-852 68,-852"/>
<text text-anchor="middle" x="157.5" y="-892.8" font-family="Helvetica,sans-Serif" font-weight="bold" font-size="9.00">delete&#45;comment&#45;dialog</text>
</g>
<g id="clust10" class="cluster">
<title>cluster_src/app/main/manage</title>
<path fill="#ffffff" stroke="black" stroke-width="2" d="M59.5,-520C59.5,-520 255.5,-520 255.5,-520 261.5,-520 267.5,-526 267.5,-532 267.5,-532 267.5,-782 267.5,-782 267.5,-788 261.5,-794 255.5,-794 255.5,-794 59.5,-794 59.5,-794 53.5,-794 47.5,-788 47.5,-782 47.5,-782 47.5,-532 47.5,-532 47.5,-526 53.5,-520 59.5,-520"/>
<text text-anchor="middle" x="157.5" y="-782.8" font-family="Helvetica,sans-Serif" font-weight="bold" font-size="9.00">manage</text>
</g>
<g id="clust11" class="cluster">
<title>cluster_src/app/main/manage/labels</title>
<path fill="#ffffff" stroke="black" stroke-width="2" d="M71.5,-622C71.5,-622 243.5,-622 243.5,-622 249.5,-622 255.5,-628 255.5,-634 255.5,-634 255.5,-756 255.5,-756 255.5,-762 249.5,-768 243.5,-768 243.5,-768 71.5,-768 71.5,-768 65.5,-768 59.5,-762 59.5,-756 59.5,-756 59.5,-634 59.5,-634 59.5,-628 65.5,-622 71.5,-622"/>
<text text-anchor="middle" x="157.5" y="-756.8" font-family="Helvetica,sans-Serif" font-weight="bold" font-size="9.00">labels</text>
</g>
<g id="clust12" class="cluster">
<title>cluster_src/app/main/manage/labels/label&#45;delete&#45;dialog</title>
<path fill="#ffffff" stroke="black" stroke-width="2" d="M79.5,-690C79.5,-690 235.5,-690 235.5,-690 241.5,-690 247.5,-696 247.5,-702 247.5,-702 247.5,-730 247.5,-730 247.5,-736 241.5,-742 235.5,-742 235.5,-742 79.5,-742 79.5,-742 73.5,-742 67.5,-736 67.5,-730 67.5,-730 67.5,-702 67.5,-702 67.5,-696 73.5,-690 79.5,-690"/>
<text text-anchor="middle" x="157.5" y="-730.8" font-family="Helvetica,sans-Serif" font-weight="bold" font-size="9.00">label&#45;delete&#45;dialog</text>
</g>
<g id="clust13" class="cluster">
<title>cluster_src/app/main/manage/labels/label&#45;form&#45;dialog</title>
<path fill="#ffffff" stroke="black" stroke-width="2" d="M82.5,-630C82.5,-630 232.5,-630 232.5,-630 238.5,-630 244.5,-636 244.5,-642 244.5,-642 244.5,-670 244.5,-670 244.5,-676 238.5,-682 232.5,-682 232.5,-682 82.5,-682 82.5,-682 76.5,-682 70.5,-676 70.5,-670 70.5,-670 70.5,-642 70.5,-642 70.5,-636 76.5,-630 82.5,-630"/>
<text text-anchor="middle" x="157.5" y="-670.8" font-family="Helvetica,sans-Serif" font-weight="bold" font-size="9.00">label&#45;form&#45;dialog</text>
</g>
<g id="clust14" class="cluster">
<title>cluster_src/app/main/manage/members</title>
<path fill="#ffffff" stroke="black" stroke-width="2" d="M67.5,-528C67.5,-528 247.5,-528 247.5,-528 253.5,-528 259.5,-534 259.5,-540 259.5,-540 259.5,-602 259.5,-602 259.5,-608 253.5,-614 247.5,-614 247.5,-614 67.5,-614 67.5,-614 61.5,-614 55.5,-608 55.5,-602 55.5,-602 55.5,-540 55.5,-540 55.5,-534 61.5,-528 67.5,-528"/>
<text text-anchor="middle" x="157.5" y="-602.8" font-family="Helvetica,sans-Serif" font-weight="bold" font-size="9.00">members</text>
</g>
<g id="clust15" class="cluster">
<title>cluster_src/app/main/manage/members/project&#45;invite&#45;dialog</title>
<path fill="#ffffff" stroke="black" stroke-width="2" d="M75.5,-536C75.5,-536 239.5,-536 239.5,-536 245.5,-536 251.5,-542 251.5,-548 251.5,-548 251.5,-576 251.5,-576 251.5,-582 245.5,-588 239.5,-588 239.5,-588 75.5,-588 75.5,-588 69.5,-588 63.5,-582 63.5,-576 63.5,-576 63.5,-548 63.5,-548 63.5,-542 69.5,-536 75.5,-536"/>
<text text-anchor="middle" x="157.5" y="-576.8" font-family="Helvetica,sans-Serif" font-weight="bold" font-size="9.00">project&#45;invite&#45;dialog</text>
</g>
<g id="clust16" class="cluster">
<title>cluster_src/app/main/organizations</title>
<path fill="#ffffff" stroke="black" stroke-width="2" d="M68,-366C68,-366 247,-366 247,-366 253,-366 259,-372 259,-378 259,-378 259,-500 259,-500 259,-506 253,-512 247,-512 247,-512 68,-512 68,-512 62,-512 56,-506 56,-500 56,-500 56,-378 56,-378 56,-372 62,-366 68,-366"/>
<text text-anchor="middle" x="157.5" y="-500.8" font-family="Helvetica,sans-Serif" font-weight="bold" font-size="9.00">organizations</text>
</g>
<g id="clust17" class="cluster">
<title>cluster_src/app/main/organizations/manage</title>
<path fill="#ffffff" stroke="black" stroke-width="2" d="M76,-400C76,-400 239,-400 239,-400 245,-400 251,-406 251,-412 251,-412 251,-474 251,-474 251,-480 245,-486 239,-486 239,-486 76,-486 76,-486 70,-486 64,-480 64,-474 64,-474 64,-412 64,-412 64,-406 70,-400 76,-400"/>
<text text-anchor="middle" x="157.5" y="-474.8" font-family="Helvetica,sans-Serif" font-weight="bold" font-size="9.00">manage</text>
</g>
<g id="clust18" class="cluster">
<title>cluster_src/app/main/organizations/manage/org&#45;invite&#45;dialog</title>
<path fill="#ffffff" stroke="black" stroke-width="2" d="M84,-408C84,-408 231,-408 231,-408 237,-408 243,-414 243,-420 243,-420 243,-448 243,-448 243,-454 237,-460 231,-460 231,-460 84,-460 84,-460 78,-460 72,-454 72,-448 72,-448 72,-420 72,-420 72,-414 78,-408 84,-408"/>
<text text-anchor="middle" x="157.5" y="-448.8" font-family="Helvetica,sans-Serif" font-weight="bold" font-size="9.00">org&#45;invite&#45;dialog</text>
</g>
<g id="clust19" class="cluster">
<title>cluster_src/app/main/projects</title>
<path fill="#ffffff" stroke="black" stroke-width="2" d="M85.5,-186C85.5,-186 229.5,-186 229.5,-186 235.5,-186 241.5,-192 241.5,-198 241.5,-198 241.5,-346 241.5,-346 241.5,-352 235.5,-358 229.5,-358 229.5,-358 85.5,-358 85.5,-358 79.5,-358 73.5,-352 73.5,-346 73.5,-346 73.5,-198 73.5,-198 73.5,-192 79.5,-186 85.5,-186"/>
<text text-anchor="middle" x="157.5" y="-346.8" font-family="Helvetica,sans-Serif" font-weight="bold" font-size="9.00">projects</text>
</g>
<g id="clust20" class="cluster">
<title>cluster_src/app/main/projects/edit&#45;project</title>
<path fill="#ffffff" stroke="black" stroke-width="2" d="M94.5,-280C94.5,-280 220.5,-280 220.5,-280 226.5,-280 232.5,-286 232.5,-292 232.5,-292 232.5,-320 232.5,-320 232.5,-326 226.5,-332 220.5,-332 220.5,-332 94.5,-332 94.5,-332 88.5,-332 82.5,-326 82.5,-320 82.5,-320 82.5,-292 82.5,-292 82.5,-286 88.5,-280 94.5,-280"/>
<text text-anchor="middle" x="157.5" y="-320.8" font-family="Helvetica,sans-Serif" font-weight="bold" font-size="9.00">edit&#45;project</text>
</g>
<g id="clust21" class="cluster">
<title>cluster_src/app/main/projects/new&#45;project</title>
<path fill="#ffffff" stroke="black" stroke-width="2" d="M93.5,-220C93.5,-220 221.5,-220 221.5,-220 227.5,-220 233.5,-226 233.5,-232 233.5,-232 233.5,-260 233.5,-260 233.5,-266 227.5,-272 221.5,-272 221.5,-272 93.5,-272 93.5,-272 87.5,-272 81.5,-266 81.5,-260 81.5,-260 81.5,-232 81.5,-232 81.5,-226 87.5,-220 93.5,-220"/>
<text text-anchor="middle" x="157.5" y="-260.8" font-family="Helvetica,sans-Serif" font-weight="bold" font-size="9.00">new&#45;project</text>
</g>
<g id="clust22" class="cluster">
<title>cluster_src/app/main/worktime</title>
<path fill="#ffffff" stroke="black" stroke-width="2" d="M61,-32C61,-32 254,-32 254,-32 260,-32 266,-38 266,-44 266,-44 266,-166 266,-166 266,-172 260,-178 254,-178 254,-178 61,-178 61,-178 55,-178 49,-172 49,-166 49,-166 49,-44 49,-44 49,-38 55,-32 61,-32"/>
<text text-anchor="middle" x="157.5" y="-166.8" font-family="Helvetica,sans-Serif" font-weight="bold" font-size="9.00">worktime</text>
</g>
<g id="clust23" class="cluster">
<title>cluster_src/app/main/worktime/delete&#45;worktime&#45;dialog</title>
<path fill="#ffffff" stroke="black" stroke-width="2" d="M69,-100C69,-100 246,-100 246,-100 252,-100 258,-106 258,-112 258,-112 258,-140 258,-140 258,-146 252,-152 246,-152 246,-152 69,-152 69,-152 63,-152 57,-146 57,-140 57,-140 57,-112 57,-112 57,-106 63,-100 69,-100"/>
<text text-anchor="middle" x="157.5" y="-140.8" font-family="Helvetica,sans-Serif" font-weight="bold" font-size="9.00">delete&#45;worktime&#45;dialog</text>
</g>
<g id="clust24" class="cluster">
<title>cluster_src/app/main/worktime/worktime&#45;dialog</title>
<path fill="#ffffff" stroke="black" stroke-width="2" d="M84,-40C84,-40 231,-40 231,-40 237,-40 243,-46 243,-52 243,-52 243,-80 243,-80 243,-86 237,-92 231,-92 231,-92 84,-92 84,-92 78,-92 72,-86 72,-80 72,-80 72,-52 72,-52 72,-46 78,-40 84,-40"/>
<text text-anchor="middle" x="157.5" y="-80.8" font-family="Helvetica,sans-Serif" font-weight="bold" font-size="9.00">worktime&#45;dialog</text>
</g>
<g id="clust25" class="cluster">
<title>cluster_src/app/shared</title>
<path fill="#ffffff" stroke="black" stroke-width="2" d="M311,-371C311,-371 424,-371 424,-371 430,-371 436,-377 436,-383 436,-383 436,-479 436,-479 436,-485 430,-491 424,-491 424,-491 311,-491 311,-491 305,-491 299,-485 299,-479 299,-479 299,-383 299,-383 299,-377 305,-371 311,-371"/>
<text text-anchor="middle" x="367.5" y="-479.8" font-family="Helvetica,sans-Serif" font-weight="bold" font-size="9.00">shared</text>
</g>
<g id="clust26" class="cluster">
<title>cluster_src/app/shared/services</title>
<path fill="#ffffff" stroke="black" stroke-width="2" d="M319,-379C319,-379 416,-379 416,-379 422,-379 428,-385 428,-391 428,-391 428,-453 428,-453 428,-459 422,-465 416,-465 416,-465 319,-465 319,-465 313,-465 307,-459 307,-453 307,-453 307,-391 307,-391 307,-385 313,-379 319,-379"/>
<text text-anchor="middle" x="367.5" y="-453.8" font-family="Helvetica,sans-Serif" font-weight="bold" font-size="9.00">services</text>
</g>
<g id="clust27" class="cluster">
<title>cluster_src/app/shared/services/dialog</title>
<path fill="#ffffff" stroke="black" stroke-width="2" d="M327,-387C327,-387 408,-387 408,-387 414,-387 420,-393 420,-399 420,-399 420,-427 420,-427 420,-433 414,-439 408,-439 408,-439 327,-439 327,-439 321,-439 315,-433 315,-427 315,-427 315,-399 315,-399 315,-393 321,-387 327,-387"/>
<text text-anchor="middle" x="367.5" y="-427.8" font-family="Helvetica,sans-Serif" font-weight="bold" font-size="9.00">dialog</text>
</g>
<!-- src/app/common/dialog/dialog.component.ts -->
<g id="node1" class="node">
<title>src/app/common/dialog/dialog.component.ts</title>
<g id="a_node1"><a xlink:href="src/app/common/dialog/dialog.component.ts" xlink:title="dialog.component.ts">
<path fill="#ddfeff" stroke="black" d="M564,-413C564,-413 466,-413 466,-413 463,-413 460,-410 460,-407 460,-407 460,-401 460,-401 460,-398 463,-395 466,-395 466,-395 564,-395 564,-395 567,-395 570,-398 570,-401 570,-401 570,-407 570,-407 570,-410 567,-413 564,-413"/>
<text text-anchor="start" x="468" y="-401.8" font-family="Helvetica,sans-Serif" font-size="9.00">dialog.component.ts</text>
</a>
</g>
</g>
<!-- src/app/main/issues/issues.component.ts -->
<g id="node2" class="node">
<title>src/app/main/issues/issues.component.ts</title>
<g id="a_node2"><a xlink:href="src/app/main/issues/issues.component.ts" xlink:title="issues.component.ts">
<path fill="#ddfeff" stroke="black" d="M206.5,-828C206.5,-828 108.5,-828 108.5,-828 105.5,-828 102.5,-825 102.5,-822 102.5,-822 102.5,-816 102.5,-816 102.5,-813 105.5,-810 108.5,-810 108.5,-810 206.5,-810 206.5,-810 209.5,-810 212.5,-813 212.5,-816 212.5,-816 212.5,-822 212.5,-822 212.5,-825 209.5,-828 206.5,-828"/>
<text text-anchor="start" x="110.5" y="-816.8" font-family="Helvetica,sans-Serif" font-size="9.00">issues.component.ts</text>
</a>
</g>
</g>
<!-- src/app/shared/services/dialog/dialog.service.ts -->
<g id="node3" class="node">
<title>src/app/shared/services/dialog/dialog.service.ts</title>
<g id="a_node3"><a xlink:href="src/app/shared/services/dialog/dialog.service.ts" xlink:title="dialog.service.ts">
<path fill="#ddfeff" stroke="black" d="M406,-413C406,-413 329,-413 329,-413 326,-413 323,-410 323,-407 323,-407 323,-401 323,-401 323,-398 326,-395 329,-395 329,-395 406,-395 406,-395 409,-395 412,-398 412,-401 412,-401 412,-407 412,-407 412,-410 409,-413 406,-413"/>
<text text-anchor="start" x="331" y="-401.8" font-family="Helvetica,sans-Serif" font-size="9.00">dialog.service.ts</text>
</a>
</g>
</g>
<!-- src/app/main/issues/issues.component.ts&#45;&gt;src/app/shared/services/dialog/dialog.service.ts -->
<g id="edge1" class="edge">
<title>src/app/main/issues/issues.component.ts&#45;&gt;src/app/shared/services/dialog/dialog.service.ts</title>
<path fill="none" stroke="#000000" stroke-width="2" stroke-opacity="0.200000" d="M189.52,-809.95C220.08,-799.4 265.76,-778.93 291,-745 330.82,-691.48 357.96,-478.07 364.8,-419.14"/>
<polygon fill="#000000" fill-opacity="0.200000" stroke="#000000" stroke-width="2" stroke-opacity="0.200000" points="366.91,-419.24 365.51,-413.04 362.74,-418.76 366.91,-419.24"/>
</g>
<!-- src/app/shared/services/dialog/dialog.service.ts&#45;&gt;src/app/common/dialog/dialog.component.ts -->
<g id="edge13" class="edge">
<title>src/app/shared/services/dialog/dialog.service.ts&#45;&gt;src/app/common/dialog/dialog.component.ts</title>
<path fill="none" stroke="#000000" stroke-width="2" stroke-opacity="0.200000" d="M412.15,-404C425.15,-404 439.62,-404 453.49,-404"/>
<polygon fill="#000000" fill-opacity="0.200000" stroke="#000000" stroke-width="2" stroke-opacity="0.200000" points="453.81,-406.1 459.81,-404 453.81,-401.9 453.81,-406.1"/>
</g>
<!-- src/app/main/issues/view&#45;issue/view&#45;comment/delete&#45;comment&#45;dialog/delete&#45;comment&#45;dialog.component.ts -->
<g id="node4" class="node">
<title>src/app/main/issues/view&#45;issue/view&#45;comment/delete&#45;comment&#45;dialog/delete&#45;comment&#45;dialog.component.ts</title>
<g id="a_node4"><a xlink:href="src/app/main/issues/view-issue/view-comment/delete-comment-dialog/delete-comment-dialog.component.ts" xlink:title="delete&#45;comment&#45;dialog.component.ts">
<path fill="#ddfeff" stroke="black" d="M245,-878C245,-878 70,-878 70,-878 67,-878 64,-875 64,-872 64,-872 64,-866 64,-866 64,-863 67,-860 70,-860 70,-860 245,-860 245,-860 248,-860 251,-863 251,-866 251,-866 251,-872 251,-872 251,-875 248,-878 245,-878"/>
<text text-anchor="start" x="72" y="-866.8" font-family="Helvetica,sans-Serif" font-size="9.00">delete&#45;comment&#45;dialog.component.ts</text>
</a>
</g>
</g>
<!-- src/app/main/issues/view&#45;issue/view&#45;comment/delete&#45;comment&#45;dialog/delete&#45;comment&#45;dialog.component.ts&#45;&gt;src/app/shared/services/dialog/dialog.service.ts -->
<g id="edge2" class="edge">
<title>src/app/main/issues/view&#45;issue/view&#45;comment/delete&#45;comment&#45;dialog/delete&#45;comment&#45;dialog.component.ts&#45;&gt;src/app/shared/services/dialog/dialog.service.ts</title>
<path fill="none" stroke="#000000" stroke-width="2" stroke-opacity="0.200000" d="M251.04,-875.29C265.86,-872.24 279.94,-866.34 291,-856 356.46,-794.83 365.18,-491.41 366.33,-419.36"/>
<polygon fill="#000000" fill-opacity="0.200000" stroke="#000000" stroke-width="2" stroke-opacity="0.200000" points="368.43,-419.16 366.42,-413.13 364.23,-419.1 368.43,-419.16"/>
</g>
<!-- src/app/main/manage/labels/label&#45;delete&#45;dialog/label&#45;delete&#45;dialog.component.ts -->
<g id="node5" class="node">
<title>src/app/main/manage/labels/label&#45;delete&#45;dialog/label&#45;delete&#45;dialog.component.ts</title>
<g id="a_node5"><a xlink:href="src/app/main/manage/labels/label-delete-dialog/label-delete-dialog.component.ts" xlink:title="label&#45;delete&#45;dialog.component.ts">
<path fill="#ddfeff" stroke="black" d="M233.5,-716C233.5,-716 81.5,-716 81.5,-716 78.5,-716 75.5,-713 75.5,-710 75.5,-710 75.5,-704 75.5,-704 75.5,-701 78.5,-698 81.5,-698 81.5,-698 233.5,-698 233.5,-698 236.5,-698 239.5,-701 239.5,-704 239.5,-704 239.5,-710 239.5,-710 239.5,-713 236.5,-716 233.5,-716"/>
<text text-anchor="start" x="83.5" y="-704.8" font-family="Helvetica,sans-Serif" font-size="9.00">label&#45;delete&#45;dialog.component.ts</text>
</a>
</g>
</g>
<!-- src/app/main/manage/labels/label&#45;delete&#45;dialog/label&#45;delete&#45;dialog.component.ts&#45;&gt;src/app/shared/services/dialog/dialog.service.ts -->
<g id="edge3" class="edge">
<title>src/app/main/manage/labels/label&#45;delete&#45;dialog/label&#45;delete&#45;dialog.component.ts&#45;&gt;src/app/shared/services/dialog/dialog.service.ts</title>
<path fill="none" stroke="#000000" stroke-width="2" stroke-opacity="0.200000" d="M239.64,-708.06C258.38,-704.63 276.92,-697.76 291,-685 331.56,-648.23 357.56,-472.32 364.58,-419.21"/>
<polygon fill="#000000" fill-opacity="0.200000" stroke="#000000" stroke-width="2" stroke-opacity="0.200000" points="366.68,-419.31 365.37,-413.09 362.52,-418.77 366.68,-419.31"/>
</g>
<!-- src/app/main/manage/labels/label&#45;form&#45;dialog/label&#45;form&#45;dialog.component.ts -->
<g id="node6" class="node">
<title>src/app/main/manage/labels/label&#45;form&#45;dialog/label&#45;form&#45;dialog.component.ts</title>
<g id="a_node6"><a xlink:href="src/app/main/manage/labels/label-form-dialog/label-form-dialog.component.ts" xlink:title="label&#45;form&#45;dialog.component.ts">
<path fill="#ddfeff" stroke="black" d="M230.5,-656C230.5,-656 84.5,-656 84.5,-656 81.5,-656 78.5,-653 78.5,-650 78.5,-650 78.5,-644 78.5,-644 78.5,-641 81.5,-638 84.5,-638 84.5,-638 230.5,-638 230.5,-638 233.5,-638 236.5,-641 236.5,-644 236.5,-644 236.5,-650 236.5,-650 236.5,-653 233.5,-656 230.5,-656"/>
<text text-anchor="start" x="86.5" y="-644.8" font-family="Helvetica,sans-Serif" font-size="9.00">label&#45;form&#45;dialog.component.ts</text>
</a>
</g>
</g>
<!-- src/app/main/manage/labels/label&#45;form&#45;dialog/label&#45;form&#45;dialog.component.ts&#45;&gt;src/app/shared/services/dialog/dialog.service.ts -->
<g id="edge4" class="edge">
<title>src/app/main/manage/labels/label&#45;form&#45;dialog/label&#45;form&#45;dialog.component.ts&#45;&gt;src/app/shared/services/dialog/dialog.service.ts</title>
<path fill="none" stroke="#000000" stroke-width="2" stroke-opacity="0.200000" d="M201.6,-637.93C230.21,-629.92 266.83,-615.57 291,-591 340.27,-540.93 358.68,-454.49 364.35,-419.44"/>
<polygon fill="#000000" fill-opacity="0.200000" stroke="#000000" stroke-width="2" stroke-opacity="0.200000" points="366.48,-419.39 365.31,-413.14 362.33,-418.75 366.48,-419.39"/>
</g>
<!-- src/app/main/manage/members/project&#45;invite&#45;dialog/project&#45;invite&#45;dialog.component.ts -->
<g id="node7" class="node">
<title>src/app/main/manage/members/project&#45;invite&#45;dialog/project&#45;invite&#45;dialog.component.ts</title>
<g id="a_node7"><a xlink:href="src/app/main/manage/members/project-invite-dialog/project-invite-dialog.component.ts" xlink:title="project&#45;invite&#45;dialog.component.ts">
<path fill="#ddfeff" stroke="black" d="M237.5,-562C237.5,-562 77.5,-562 77.5,-562 74.5,-562 71.5,-559 71.5,-556 71.5,-556 71.5,-550 71.5,-550 71.5,-547 74.5,-544 77.5,-544 77.5,-544 237.5,-544 237.5,-544 240.5,-544 243.5,-547 243.5,-550 243.5,-550 243.5,-556 243.5,-556 243.5,-559 240.5,-562 237.5,-562"/>
<text text-anchor="start" x="79.5" y="-550.8" font-family="Helvetica,sans-Serif" font-size="9.00">project&#45;invite&#45;dialog.component.ts</text>
</a>
</g>
</g>
<!-- src/app/main/manage/members/project&#45;invite&#45;dialog/project&#45;invite&#45;dialog.component.ts&#45;&gt;src/app/shared/services/dialog/dialog.service.ts -->
<g id="edge5" class="edge">
<title>src/app/main/manage/members/project&#45;invite&#45;dialog/project&#45;invite&#45;dialog.component.ts&#45;&gt;src/app/shared/services/dialog/dialog.service.ts</title>
<path fill="none" stroke="#000000" stroke-width="2" stroke-opacity="0.200000" d="M172.64,-543.84C197.1,-527.9 248.76,-493.8 291,-463 312.01,-447.68 335.52,-429.07 350.63,-416.9"/>
<polygon fill="#000000" fill-opacity="0.200000" stroke="#000000" stroke-width="2" stroke-opacity="0.200000" points="352.07,-418.44 355.42,-413.03 349.43,-415.17 352.07,-418.44"/>
</g>
<!-- src/app/main/organizations/manage/org&#45;invite&#45;dialog/org&#45;invite&#45;dialog.component.ts -->
<g id="node8" class="node">
<title>src/app/main/organizations/manage/org&#45;invite&#45;dialog/org&#45;invite&#45;dialog.component.ts</title>
<g id="a_node8"><a xlink:href="src/app/main/organizations/manage/org-invite-dialog/org-invite-dialog.component.ts" xlink:title="org&#45;invite&#45;dialog.component.ts">
<path fill="#ddfeff" stroke="black" d="M229,-434C229,-434 86,-434 86,-434 83,-434 80,-431 80,-428 80,-428 80,-422 80,-422 80,-419 83,-416 86,-416 86,-416 229,-416 229,-416 232,-416 235,-419 235,-422 235,-422 235,-428 235,-428 235,-431 232,-434 229,-434"/>
<text text-anchor="start" x="88" y="-422.8" font-family="Helvetica,sans-Serif" font-size="9.00">org&#45;invite&#45;dialog.component.ts</text>
</a>
</g>
</g>
<!-- src/app/main/organizations/manage/org&#45;invite&#45;dialog/org&#45;invite&#45;dialog.component.ts&#45;&gt;src/app/shared/services/dialog/dialog.service.ts -->
<g id="edge6" class="edge">
<title>src/app/main/organizations/manage/org&#45;invite&#45;dialog/org&#45;invite&#45;dialog.component.ts&#45;&gt;src/app/shared/services/dialog/dialog.service.ts</title>
<path fill="none" stroke="#000000" stroke-width="2" stroke-opacity="0.200000" d="M235.23,-417.57C253.51,-415.78 272.95,-413.84 291,-412 299.34,-411.15 308.19,-410.23 316.78,-409.32"/>
<polygon fill="#000000" fill-opacity="0.200000" stroke="#000000" stroke-width="2" stroke-opacity="0.200000" points="317.24,-411.39 322.99,-408.67 316.8,-407.21 317.24,-411.39"/>
</g>
<!-- src/app/main/organizations/organizations.component.ts -->
<g id="node9" class="node">
<title>src/app/main/organizations/organizations.component.ts</title>
<g id="a_node9"><a xlink:href="src/app/main/organizations/organizations.component.ts" xlink:title="organizations.component.ts">
<path fill="#ddfeff" stroke="black" d="M223,-392C223,-392 92,-392 92,-392 89,-392 86,-389 86,-386 86,-386 86,-380 86,-380 86,-377 89,-374 92,-374 92,-374 223,-374 223,-374 226,-374 229,-377 229,-380 229,-380 229,-386 229,-386 229,-389 226,-392 223,-392"/>
<text text-anchor="start" x="94" y="-380.8" font-family="Helvetica,sans-Serif" font-size="9.00">organizations.component.ts</text>
</a>
</g>
</g>
<!-- src/app/main/organizations/organizations.component.ts&#45;&gt;src/app/shared/services/dialog/dialog.service.ts -->
<g id="edge7" class="edge">
<title>src/app/main/organizations/organizations.component.ts&#45;&gt;src/app/shared/services/dialog/dialog.service.ts</title>
<path fill="none" stroke="#000000" stroke-width="2" stroke-opacity="0.200000" d="M229.21,-390.14C257.99,-393.05 290.58,-396.34 316.78,-398.98"/>
<polygon fill="#000000" fill-opacity="0.200000" stroke="#000000" stroke-width="2" stroke-opacity="0.200000" points="316.78,-401.09 322.96,-399.6 317.2,-396.91 316.78,-401.09"/>
</g>
<!-- src/app/main/projects/edit&#45;project/edit&#45;project.component.ts -->
<g id="node10" class="node">
<title>src/app/main/projects/edit&#45;project/edit&#45;project.component.ts</title>
<g id="a_node10"><a xlink:href="src/app/main/projects/edit-project/edit-project.component.ts" xlink:title="edit&#45;project.component.ts">
<path fill="#ddfeff" stroke="black" d="M218.5,-306C218.5,-306 96.5,-306 96.5,-306 93.5,-306 90.5,-303 90.5,-300 90.5,-300 90.5,-294 90.5,-294 90.5,-291 93.5,-288 96.5,-288 96.5,-288 218.5,-288 218.5,-288 221.5,-288 224.5,-291 224.5,-294 224.5,-294 224.5,-300 224.5,-300 224.5,-303 221.5,-306 218.5,-306"/>
<text text-anchor="start" x="98.5" y="-294.8" font-family="Helvetica,sans-Serif" font-size="9.00">edit&#45;project.component.ts</text>
</a>
</g>
</g>
<!-- src/app/main/projects/edit&#45;project/edit&#45;project.component.ts&#45;&gt;src/app/shared/services/dialog/dialog.service.ts -->
<g id="edge8" class="edge">
<title>src/app/main/projects/edit&#45;project/edit&#45;project.component.ts&#45;&gt;src/app/shared/services/dialog/dialog.service.ts</title>
<path fill="none" stroke="#000000" stroke-width="2" stroke-opacity="0.200000" d="M177.48,-306.19C203.3,-318.76 250.88,-342.12 291,-363 309.27,-372.5 329.79,-383.68 344.82,-391.96"/>
<polygon fill="#000000" fill-opacity="0.200000" stroke="#000000" stroke-width="2" stroke-opacity="0.200000" points="343.83,-393.81 350.09,-394.87 345.86,-390.14 343.83,-393.81"/>
</g>
<!-- src/app/main/projects/new&#45;project/new&#45;project.component.ts -->
<g id="node11" class="node">
<title>src/app/main/projects/new&#45;project/new&#45;project.component.ts</title>
<g id="a_node11"><a xlink:href="src/app/main/projects/new-project/new-project.component.ts" xlink:title="new&#45;project.component.ts">
<path fill="#ddfeff" stroke="black" d="M219.5,-246C219.5,-246 95.5,-246 95.5,-246 92.5,-246 89.5,-243 89.5,-240 89.5,-240 89.5,-234 89.5,-234 89.5,-231 92.5,-228 95.5,-228 95.5,-228 219.5,-228 219.5,-228 222.5,-228 225.5,-231 225.5,-234 225.5,-234 225.5,-240 225.5,-240 225.5,-243 222.5,-246 219.5,-246"/>
<text text-anchor="start" x="97.5" y="-234.8" font-family="Helvetica,sans-Serif" font-size="9.00">new&#45;project.component.ts</text>
</a>
</g>
</g>
<!-- src/app/main/projects/new&#45;project/new&#45;project.component.ts&#45;&gt;src/app/shared/services/dialog/dialog.service.ts -->
<g id="edge9" class="edge">
<title>src/app/main/projects/new&#45;project/new&#45;project.component.ts&#45;&gt;src/app/shared/services/dialog/dialog.service.ts</title>
<path fill="none" stroke="#000000" stroke-width="2" stroke-opacity="0.200000" d="M221.34,-246.02C245.02,-251.84 271.03,-261.38 291,-277 329.34,-306.99 352.33,-362.31 361.66,-388.93"/>
<polygon fill="#000000" fill-opacity="0.200000" stroke="#000000" stroke-width="2" stroke-opacity="0.200000" points="359.71,-389.74 363.64,-394.74 363.69,-388.39 359.71,-389.74"/>
</g>
<!-- src/app/main/projects/projects.component.ts -->
<g id="node12" class="node">
<title>src/app/main/projects/projects.component.ts</title>
<g id="a_node12"><a xlink:href="src/app/main/projects/projects.component.ts" xlink:title="projects.component.ts">
<path fill="#ddfeff" stroke="black" d="M211,-212C211,-212 104,-212 104,-212 101,-212 98,-209 98,-206 98,-206 98,-200 98,-200 98,-197 101,-194 104,-194 104,-194 211,-194 211,-194 214,-194 217,-197 217,-200 217,-200 217,-206 217,-206 217,-209 214,-212 211,-212"/>
<text text-anchor="start" x="106" y="-200.8" font-family="Helvetica,sans-Serif" font-size="9.00">projects.component.ts</text>
</a>
</g>
</g>
<!-- src/app/main/projects/projects.component.ts&#45;&gt;src/app/shared/services/dialog/dialog.service.ts -->
<g id="edge10" class="edge">
<title>src/app/main/projects/projects.component.ts&#45;&gt;src/app/shared/services/dialog/dialog.service.ts</title>
<path fill="none" stroke="#000000" stroke-width="2" stroke-opacity="0.200000" d="M217.14,-196.49C242.12,-196.73 270.22,-201.33 291,-217 347.58,-259.67 361.89,-351.76 365.4,-388.45"/>
<polygon fill="#000000" fill-opacity="0.200000" stroke="#000000" stroke-width="2" stroke-opacity="0.200000" points="363.32,-388.84 365.94,-394.63 367.51,-388.48 363.32,-388.84"/>
</g>
<!-- src/app/main/worktime/delete&#45;worktime&#45;dialog/delete&#45;worktime&#45;dialog.component.ts -->
<g id="node13" class="node">
<title>src/app/main/worktime/delete&#45;worktime&#45;dialog/delete&#45;worktime&#45;dialog.component.ts</title>
<g id="a_node13"><a xlink:href="src/app/main/worktime/delete-worktime-dialog/delete-worktime-dialog.component.ts" xlink:title="delete&#45;worktime&#45;dialog.component.ts">
<path fill="#ddfeff" stroke="black" d="M244,-126C244,-126 71,-126 71,-126 68,-126 65,-123 65,-120 65,-120 65,-114 65,-114 65,-111 68,-108 71,-108 71,-108 244,-108 244,-108 247,-108 250,-111 250,-114 250,-114 250,-120 250,-120 250,-123 247,-126 244,-126"/>
<text text-anchor="start" x="73" y="-114.8" font-family="Helvetica,sans-Serif" font-size="9.00">delete&#45;worktime&#45;dialog.component.ts</text>
</a>
</g>
</g>
<!-- src/app/main/worktime/delete&#45;worktime&#45;dialog/delete&#45;worktime&#45;dialog.component.ts&#45;&gt;src/app/shared/services/dialog/dialog.service.ts -->
<g id="edge11" class="edge">
<title>src/app/main/worktime/delete&#45;worktime&#45;dialog/delete&#45;worktime&#45;dialog.component.ts&#45;&gt;src/app/shared/services/dialog/dialog.service.ts</title>
<path fill="none" stroke="#000000" stroke-width="2" stroke-opacity="0.200000" d="M193.01,-126.09C222.83,-135.62 265.1,-153.41 291,-183 345.78,-245.59 361.24,-349.77 365.23,-388.7"/>
<polygon fill="#000000" fill-opacity="0.200000" stroke="#000000" stroke-width="2" stroke-opacity="0.200000" points="363.15,-389.01 365.81,-394.79 367.33,-388.61 363.15,-389.01"/>
</g>
<!-- src/app/main/worktime/worktime&#45;dialog/worktime&#45;dialog.component.ts -->
<g id="node14" class="node">
<title>src/app/main/worktime/worktime&#45;dialog/worktime&#45;dialog.component.ts</title>
<g id="a_node14"><a xlink:href="src/app/main/worktime/worktime-dialog/worktime-dialog.component.ts" xlink:title="worktime&#45;dialog.component.ts">
<path fill="#ddfeff" stroke="black" d="M229,-66C229,-66 86,-66 86,-66 83,-66 80,-63 80,-60 80,-60 80,-54 80,-54 80,-51 83,-48 86,-48 86,-48 229,-48 229,-48 232,-48 235,-51 235,-54 235,-54 235,-60 235,-60 235,-63 232,-66 229,-66"/>
<text text-anchor="start" x="88" y="-54.8" font-family="Helvetica,sans-Serif" font-size="9.00">worktime&#45;dialog.component.ts</text>
</a>
</g>
</g>
<!-- src/app/main/worktime/worktime&#45;dialog/worktime&#45;dialog.component.ts&#45;&gt;src/app/shared/services/dialog/dialog.service.ts -->
<g id="edge12" class="edge">
<title>src/app/main/worktime/worktime&#45;dialog/worktime&#45;dialog.component.ts&#45;&gt;src/app/shared/services/dialog/dialog.service.ts</title>
<path fill="none" stroke="#000000" stroke-width="2" stroke-opacity="0.200000" d="M235.29,-66.06C255.78,-71.93 276.28,-81.49 291,-97 332.21,-140.42 358.01,-332.74 364.74,-388.69"/>
<polygon fill="#000000" fill-opacity="0.200000" stroke="#000000" stroke-width="2" stroke-opacity="0.200000" points="362.67,-389.1 365.46,-394.81 366.84,-388.61 362.67,-389.1"/>
</g>
</g>
</svg>
