<?xml version="1.0" encoding="UTF-8" standalone="no"?>
<!DOCTYPE svg PUBLIC "-//W3C//DTD SVG 1.1//EN"
 "http://www.w3.org/Graphics/SVG/1.1/DTD/svg11.dtd">
<!-- Generated by graphviz version 2.43.0 (0)
 -->
<!-- Title: dependency&#45;cruiser output Pages: 1 -->
<svg width="540pt" height="298pt"
 viewBox="0.00 0.00 540.00 298.00" xmlns="http://www.w3.org/2000/svg" xmlns:xlink="http://www.w3.org/1999/xlink">
<g id="graph0" class="graph" transform="scale(1 1) rotate(0) translate(4 294)">
<title>dependency&#45;cruiser output</title>
<polygon fill="white" stroke="transparent" points="-4,4 -4,-294 536,-294 536,4 -4,4"/>
<g id="clust1" class="cluster">
<title>cluster_src</title>
<path fill="#ffffff" stroke="black" stroke-width="2" d="M20,-8C20,-8 512,-8 512,-8 518,-8 524,-14 524,-20 524,-20 524,-270 524,-270 524,-276 518,-282 512,-282 512,-282 20,-282 20,-282 14,-282 8,-276 8,-270 8,-270 8,-20 8,-20 8,-14 14,-8 20,-8"/>
<text text-anchor="middle" x="266" y="-270.8" font-family="Helvetica,sans-Serif" font-weight="bold" font-size="9.00">src</text>
</g>
<g id="clust2" class="cluster">
<title>cluster_src/app</title>
<path fill="#ffffff" stroke="black" stroke-width="2" d="M28,-16C28,-16 504,-16 504,-16 510,-16 516,-22 516,-28 516,-28 516,-244 516,-244 516,-250 510,-256 504,-256 504,-256 28,-256 28,-256 22,-256 16,-250 16,-244 16,-244 16,-28 16,-28 16,-22 22,-16 28,-16"/>
<text text-anchor="middle" x="266" y="-244.8" font-family="Helvetica,sans-Serif" font-weight="bold" font-size="9.00">app</text>
</g>
<g id="clust3" class="cluster">
<title>cluster_src/app/common</title>
<path fill="#ffffff" stroke="black" stroke-width="2" d="M219,-24C219,-24 496,-24 496,-24 502,-24 508,-30 508,-36 508,-36 508,-158 508,-158 508,-164 502,-170 496,-170 496,-170 219,-170 219,-170 213,-170 207,-164 207,-158 207,-158 207,-36 207,-36 207,-30 213,-24 219,-24"/>
<text text-anchor="middle" x="357.5" y="-158.8" font-family="Helvetica,sans-Serif" font-weight="bold" font-size="9.00">common</text>
</g>
<g id="clust4" class="cluster">
<title>cluster_src/app/common/list</title>
<path fill="#ffffff" stroke="black" stroke-width="2" d="M227,-92C227,-92 462,-92 462,-92 468,-92 474,-98 474,-104 474,-104 474,-132 474,-132 474,-138 468,-144 462,-144 462,-144 227,-144 227,-144 221,-144 215,-138 215,-132 215,-132 215,-104 215,-104 215,-98 221,-92 227,-92"/>
<text text-anchor="middle" x="344.5" y="-132.8" font-family="Helvetica,sans-Serif" font-weight="bold" font-size="9.00">list</text>
</g>
<g id="clust5" class="cluster">
<title>cluster_src/app/common/mobile&#45;paginator</title>
<path fill="#ffffff" stroke="black" stroke-width="2" d="M338,-32C338,-32 488,-32 488,-32 494,-32 500,-38 500,-44 500,-44 500,-72 500,-72 500,-78 494,-84 488,-84 488,-84 338,-84 338,-84 332,-84 326,-78 326,-72 326,-72 326,-44 326,-44 326,-38 332,-32 338,-32"/>
<text text-anchor="middle" x="413" y="-72.8" font-family="Helvetica,sans-Serif" font-weight="bold" font-size="9.00">mobile&#45;paginator</text>
</g>
<g id="clust6" class="cluster">
<title>cluster_src/app/main</title>
<path fill="#ffffff" stroke="black" stroke-width="2" d="M36,-24C36,-24 187,-24 187,-24 193,-24 199,-30 199,-36 199,-36 199,-218 199,-218 199,-224 193,-230 187,-230 187,-230 36,-230 36,-230 30,-230 24,-224 24,-218 24,-218 24,-36 24,-36 24,-30 30,-24 36,-24"/>
<text text-anchor="middle" x="111.5" y="-218.8" font-family="Helvetica,sans-Serif" font-weight="bold" font-size="9.00">main</text>
</g>
<g id="clust7" class="cluster">
<title>cluster_src/app/main/issues</title>
<path fill="#ffffff" stroke="black" stroke-width="2" d="M60.5,-32C60.5,-32 162.5,-32 162.5,-32 168.5,-32 174.5,-38 174.5,-44 174.5,-44 174.5,-72 174.5,-72 174.5,-78 168.5,-84 162.5,-84 162.5,-84 60.5,-84 60.5,-84 54.5,-84 48.5,-78 48.5,-72 48.5,-72 48.5,-44 48.5,-44 48.5,-38 54.5,-32 60.5,-32"/>
<text text-anchor="middle" x="111.5" y="-72.8" font-family="Helvetica,sans-Serif" font-weight="bold" font-size="9.00">issues</text>
</g>
<g id="clust8" class="cluster">
<title>cluster_src/app/main/organizations</title>
<path fill="#ffffff" stroke="black" stroke-width="2" d="M44,-92C44,-92 179,-92 179,-92 185,-92 191,-98 191,-104 191,-104 191,-132 191,-132 191,-138 185,-144 179,-144 179,-144 44,-144 44,-144 38,-144 32,-138 32,-132 32,-132 32,-104 32,-104 32,-98 38,-92 44,-92"/>
<text text-anchor="middle" x="111.5" y="-132.8" font-family="Helvetica,sans-Serif" font-weight="bold" font-size="9.00">organizations</text>
</g>
<g id="clust9" class="cluster">
<title>cluster_src/app/main/projects</title>
<path fill="#ffffff" stroke="black" stroke-width="2" d="M56,-152C56,-152 167,-152 167,-152 173,-152 179,-158 179,-164 179,-164 179,-192 179,-192 179,-198 173,-204 167,-204 167,-204 56,-204 56,-204 50,-204 44,-198 44,-192 44,-192 44,-164 44,-164 44,-158 50,-152 56,-152"/>
<text text-anchor="middle" x="111.5" y="-192.8" font-family="Helvetica,sans-Serif" font-weight="bold" font-size="9.00">projects</text>
</g>
<!-- src/app/common/list/list&#45;item.directive.ts -->
<g id="node1" class="node">
<title>src/app/common/list/list&#45;item.directive.ts</title>
<g id="a_node1"><a xlink:href="src/app/common/list/list-item.directive.ts" xlink:title="list&#45;item.directive.ts">
<path fill="#ddfeff" stroke="black" d="M460,-118C460,-118 366,-118 366,-118 363,-118 360,-115 360,-112 360,-112 360,-106 360,-106 360,-103 363,-100 366,-100 366,-100 460,-100 460,-100 463,-100 466,-103 466,-106 466,-106 466,-112 466,-112 466,-115 463,-118 460,-118"/>
<text text-anchor="start" x="368" y="-106.8" font-family="Helvetica,sans-Serif" font-size="9.00">list&#45;item.directive.ts</text>
</a>
</g>
</g>
<!-- src/app/common/list/list.component.ts -->
<g id="node2" class="node">
<title>src/app/common/list/list.component.ts</title>
<g id="a_node2"><a xlink:href="src/app/common/list/list.component.ts" xlink:title="list.component.ts">
<path fill="#ddfeff" stroke="black" d="M312,-118C312,-118 229,-118 229,-118 226,-118 223,-115 223,-112 223,-112 223,-106 223,-106 223,-103 226,-100 229,-100 229,-100 312,-100 312,-100 315,-100 318,-103 318,-106 318,-106 318,-112 318,-112 318,-115 315,-118 312,-118"/>
<text text-anchor="start" x="231" y="-106.8" font-family="Helvetica,sans-Serif" font-size="9.00">list.component.ts</text>
</a>
</g>
</g>
<!-- src/app/common/list/list.component.ts&#45;&gt;src/app/common/list/list&#45;item.directive.ts -->
<g id="edge2" class="edge">
<title>src/app/common/list/list.component.ts&#45;&gt;src/app/common/list/list&#45;item.directive.ts</title>
<path fill="none" stroke="#000000" stroke-width="2" stroke-opacity="0.200000" d="M318.28,-109C329.57,-109 341.77,-109 353.51,-109"/>
<polygon fill="#000000" fill-opacity="0.200000" stroke="#000000" stroke-width="2" stroke-opacity="0.200000" points="353.6,-111.1 359.6,-109 353.6,-106.9 353.6,-111.1"/>
</g>
<!-- src/app/common/mobile&#45;paginator/mobile&#45;paginator.component.ts -->
<g id="node3" class="node">
<title>src/app/common/mobile&#45;paginator/mobile&#45;paginator.component.ts</title>
<g id="a_node3"><a xlink:href="src/app/common/mobile-paginator/mobile-paginator.component.ts" xlink:title="mobile&#45;paginator.component.ts">
<path fill="#ddfeff" stroke="black" d="M486,-58C486,-58 340,-58 340,-58 337,-58 334,-55 334,-52 334,-52 334,-46 334,-46 334,-43 337,-40 340,-40 340,-40 486,-40 486,-40 489,-40 492,-43 492,-46 492,-46 492,-52 492,-52 492,-55 489,-58 486,-58"/>
<text text-anchor="start" x="342" y="-46.8" font-family="Helvetica,sans-Serif" font-size="9.00">mobile&#45;paginator.component.ts</text>
</a>
</g>
</g>
<!-- src/app/common/list/list.component.ts&#45;&gt;src/app/common/mobile&#45;paginator/mobile&#45;paginator.component.ts -->
<g id="edge1" class="edge">
<title>src/app/common/list/list.component.ts&#45;&gt;src/app/common/mobile&#45;paginator/mobile&#45;paginator.component.ts</title>
<path fill="none" stroke="#000000" stroke-width="2" stroke-opacity="0.200000" d="M292.84,-99.89C317.53,-89.34 358.23,-71.96 385.08,-60.5"/>
<polygon fill="#000000" fill-opacity="0.200000" stroke="#000000" stroke-width="2" stroke-opacity="0.200000" points="386.23,-62.29 390.92,-58 384.58,-58.43 386.23,-62.29"/>
</g>
<!-- src/app/main/issues/issues.component.ts -->
<g id="node4" class="node">
<title>src/app/main/issues/issues.component.ts</title>
<g id="a_node4"><a xlink:href="src/app/main/issues/issues.component.ts" xlink:title="issues.component.ts">
<path fill="#ddfeff" stroke="black" d="M160.5,-58C160.5,-58 62.5,-58 62.5,-58 59.5,-58 56.5,-55 56.5,-52 56.5,-52 56.5,-46 56.5,-46 56.5,-43 59.5,-40 62.5,-40 62.5,-40 160.5,-40 160.5,-40 163.5,-40 166.5,-43 166.5,-46 166.5,-46 166.5,-52 166.5,-52 166.5,-55 163.5,-58 160.5,-58"/>
<text text-anchor="start" x="64.5" y="-46.8" font-family="Helvetica,sans-Serif" font-size="9.00">issues.component.ts</text>
</a>
</g>
</g>
<!-- src/app/main/issues/issues.component.ts&#45;&gt;src/app/common/list/list&#45;item.directive.ts -->
<g id="edge3" class="edge">
<title>src/app/main/issues/issues.component.ts&#45;&gt;src/app/common/list/list&#45;item.directive.ts</title>
<path fill="none" stroke="#000000" stroke-width="2" stroke-opacity="0.200000" d="M157.66,-58.05C212.22,-68.98 303.76,-87.32 360.86,-98.75"/>
<polygon fill="#000000" fill-opacity="0.200000" stroke="#000000" stroke-width="2" stroke-opacity="0.200000" points="360.66,-100.86 366.96,-99.98 361.49,-96.74 360.66,-100.86"/>
</g>
<!-- src/app/main/issues/issues.component.ts&#45;&gt;src/app/common/list/list.component.ts -->
<g id="edge4" class="edge">
<title>src/app/main/issues/issues.component.ts&#45;&gt;src/app/common/list/list.component.ts</title>
<path fill="none" stroke="#000000" stroke-width="2" stroke-opacity="0.200000" d="M136.34,-58.11C164.17,-68.75 210.18,-86.33 240.17,-97.79"/>
<polygon fill="#000000" fill-opacity="0.200000" stroke="#000000" stroke-width="2" stroke-opacity="0.200000" points="239.59,-99.82 245.95,-100 241.09,-95.89 239.59,-99.82"/>
</g>
<!-- src/app/main/organizations/organizations.component.ts -->
<g id="node5" class="node">
<title>src/app/main/organizations/organizations.component.ts</title>
<g id="a_node5"><a xlink:href="src/app/main/organizations/organizations.component.ts" xlink:title="organizations.component.ts">
<path fill="#ddfeff" stroke="black" d="M177,-118C177,-118 46,-118 46,-118 43,-118 40,-115 40,-112 40,-112 40,-106 40,-106 40,-103 43,-100 46,-100 46,-100 177,-100 177,-100 180,-100 183,-103 183,-106 183,-106 183,-112 183,-112 183,-115 180,-118 177,-118"/>
<text text-anchor="start" x="48" y="-106.8" font-family="Helvetica,sans-Serif" font-size="9.00">organizations.component.ts</text>
</a>
</g>
</g>
<!-- src/app/main/organizations/organizations.component.ts&#45;&gt;src/app/common/list/list&#45;item.directive.ts -->
<g id="edge5" class="edge">
<title>src/app/main/organizations/organizations.component.ts&#45;&gt;src/app/common/list/list&#45;item.directive.ts</title>
<path fill="none" stroke="#000000" stroke-width="2" stroke-opacity="0.200000" d="M159.92,-118.02C174.92,-120.47 191.6,-122.79 207,-124 256.18,-127.88 268.82,-127.9 318,-124 331.29,-122.95 345.53,-121.07 358.81,-118.99"/>
<polygon fill="#000000" fill-opacity="0.200000" stroke="#000000" stroke-width="2" stroke-opacity="0.200000" points="359.25,-121.05 364.84,-118.02 358.58,-116.9 359.25,-121.05"/>
</g>
<!-- src/app/main/organizations/organizations.component.ts&#45;&gt;src/app/common/list/list.component.ts -->
<g id="edge6" class="edge">
<title>src/app/main/organizations/organizations.component.ts&#45;&gt;src/app/common/list/list.component.ts</title>
<path fill="none" stroke="#000000" stroke-width="2" stroke-opacity="0.200000" d="M183.19,-109C194.35,-109 205.72,-109 216.39,-109"/>
<polygon fill="#000000" fill-opacity="0.200000" stroke="#000000" stroke-width="2" stroke-opacity="0.200000" points="216.58,-111.1 222.58,-109 216.58,-106.9 216.58,-111.1"/>
</g>
<!-- src/app/main/projects/projects.component.ts -->
<g id="node6" class="node">
<title>src/app/main/projects/projects.component.ts</title>
<g id="a_node6"><a xlink:href="src/app/main/projects/projects.component.ts" xlink:title="projects.component.ts">
<path fill="#ddfeff" stroke="black" d="M165,-178C165,-178 58,-178 58,-178 55,-178 52,-175 52,-172 52,-172 52,-166 52,-166 52,-163 55,-160 58,-160 58,-160 165,-160 165,-160 168,-160 171,-163 171,-166 171,-166 171,-172 171,-172 171,-175 168,-178 165,-178"/>
<text text-anchor="start" x="60" y="-166.8" font-family="Helvetica,sans-Serif" font-size="9.00">projects.component.ts</text>
</a>
</g>
</g>
<!-- src/app/main/projects/projects.component.ts&#45;&gt;src/app/common/list/list&#45;item.directive.ts -->
<g id="edge7" class="edge">
<title>src/app/main/projects/projects.component.ts&#45;&gt;src/app/common/list/list&#45;item.directive.ts</title>
<path fill="none" stroke="#000000" stroke-width="2" stroke-opacity="0.200000" d="M160.3,-159.94C201.98,-151.98 264.04,-139.99 318,-129 333.02,-125.94 349.37,-122.5 364.15,-119.35"/>
<polygon fill="#000000" fill-opacity="0.200000" stroke="#000000" stroke-width="2" stroke-opacity="0.200000" points="364.96,-121.32 370.39,-118.02 364.08,-117.22 364.96,-121.32"/>
</g>
<!-- src/app/main/projects/projects.component.ts&#45;&gt;src/app/common/list/list.component.ts -->
<g id="edge8" class="edge">
<title>src/app/main/projects/projects.component.ts&#45;&gt;src/app/common/list/list.component.ts</title>
<path fill="none" stroke="#000000" stroke-width="2" stroke-opacity="0.200000" d="M156.72,-159.97C170.49,-156.57 185.57,-152.23 199,-147 216.96,-140 236.13,-129.44 249.95,-121.23"/>
<polygon fill="#000000" fill-opacity="0.200000" stroke="#000000" stroke-width="2" stroke-opacity="0.200000" points="251.09,-122.99 255.15,-118.1 248.93,-119.39 251.09,-122.99"/>
</g>
</g>
</svg>
