<?xml version="1.0" encoding="UTF-8" standalone="no"?>
<!DOCTYPE svg PUBLIC "-//W3C//DTD SVG 1.1//EN"
 "http://www.w3.org/Graphics/SVG/1.1/DTD/svg11.dtd">
<!-- Generated by graphviz version 2.43.0 (0)
 -->
<!-- Title: dependency&#45;cruiser output Pages: 1 -->
<svg width="244pt" height="212pt"
 viewBox="0.00 0.00 244.00 212.00" xmlns="http://www.w3.org/2000/svg" xmlns:xlink="http://www.w3.org/1999/xlink">
<g id="graph0" class="graph" transform="scale(1 1) rotate(0) translate(4 208)">
<title>dependency&#45;cruiser output</title>
<polygon fill="white" stroke="transparent" points="-4,4 -4,-208 240,-208 240,4 -4,4"/>
<g id="clust1" class="cluster">
<title>cluster_src</title>
<path fill="#ffffff" stroke="black" stroke-width="2" d="M20,-8C20,-8 216,-8 216,-8 222,-8 228,-14 228,-20 228,-20 228,-184 228,-184 228,-190 222,-196 216,-196 216,-196 20,-196 20,-196 14,-196 8,-190 8,-184 8,-184 8,-20 8,-20 8,-14 14,-8 20,-8"/>
<text text-anchor="middle" x="118" y="-184.8" font-family="Helvetica,sans-Serif" font-weight="bold" font-size="9.00">src</text>
</g>
<g id="clust2" class="cluster">
<title>cluster_src/app</title>
<path fill="#ffffff" stroke="black" stroke-width="2" d="M28,-16C28,-16 208,-16 208,-16 214,-16 220,-22 220,-28 220,-28 220,-158 220,-158 220,-164 214,-170 208,-170 208,-170 28,-170 28,-170 22,-170 16,-164 16,-158 16,-158 16,-28 16,-28 16,-22 22,-16 28,-16"/>
<text text-anchor="middle" x="118" y="-158.8" font-family="Helvetica,sans-Serif" font-weight="bold" font-size="9.00">app</text>
</g>
<g id="clust3" class="cluster">
<title>cluster_src/app/shared</title>
<path fill="#ffffff" stroke="black" stroke-width="2" d="M36,-24C36,-24 200,-24 200,-24 206,-24 212,-30 212,-36 212,-36 212,-132 212,-132 212,-138 206,-144 200,-144 200,-144 36,-144 36,-144 30,-144 24,-138 24,-132 24,-132 24,-36 24,-36 24,-30 30,-24 36,-24"/>
<text text-anchor="middle" x="118" y="-132.8" font-family="Helvetica,sans-Serif" font-weight="bold" font-size="9.00">shared</text>
</g>
<g id="clust4" class="cluster">
<title>cluster_src/app/shared/services</title>
<path fill="#ffffff" stroke="black" stroke-width="2" d="M44,-32C44,-32 192,-32 192,-32 198,-32 204,-38 204,-44 204,-44 204,-106 204,-106 204,-112 198,-118 192,-118 192,-118 44,-118 44,-118 38,-118 32,-112 32,-106 32,-106 32,-44 32,-44 32,-38 38,-32 44,-32"/>
<text text-anchor="middle" x="118" y="-106.8" font-family="Helvetica,sans-Serif" font-weight="bold" font-size="9.00">services</text>
</g>
<g id="clust5" class="cluster">
<title>cluster_src/app/shared/services/speed&#45;dial</title>
<path fill="#ffffff" stroke="black" stroke-width="2" d="M52,-40C52,-40 184,-40 184,-40 190,-40 196,-46 196,-52 196,-52 196,-80 196,-80 196,-86 190,-92 184,-92 184,-92 52,-92 52,-92 46,-92 40,-86 40,-80 40,-80 40,-52 40,-52 40,-46 46,-40 52,-40"/>
<text text-anchor="middle" x="118" y="-80.8" font-family="Helvetica,sans-Serif" font-weight="bold" font-size="9.00">speed&#45;dial</text>
</g>
<!-- src/app/shared/services/speed&#45;dial/speed&#45;dial&#45;button.factory.ts -->
<g id="node1" class="node">
<title>src/app/shared/services/speed&#45;dial/speed&#45;dial&#45;button.factory.ts</title>
<g id="a_node1"><a xlink:href="src/app/shared/services/speed-dial/speed-dial-button.factory.ts" xlink:title="speed&#45;dial&#45;button.factory.ts">
<path fill="#ccffcc" stroke="black" d="M182,-66C182,-66 54,-66 54,-66 51,-66 48,-63 48,-60 48,-60 48,-54 48,-54 48,-51 51,-48 54,-48 54,-48 182,-48 182,-48 185,-48 188,-51 188,-54 188,-54 188,-60 188,-60 188,-63 185,-66 182,-66"/>
<text text-anchor="start" x="56" y="-54.8" font-family="Helvetica,sans-Serif" font-size="9.00">speed&#45;dial&#45;button.factory.ts</text>
</a>
</g>
</g>
</g>
</svg>
