<?xml version="1.0" encoding="UTF-8" standalone="no"?>
<!DOCTYPE svg PUBLIC "-//W3C//DTD SVG 1.1//EN"
 "http://www.w3.org/Graphics/SVG/1.1/DTD/svg11.dtd">
<!-- Generated by graphviz version 2.43.0 (0)
 -->
<!-- Title: dependency&#45;cruiser output Pages: 1 -->
<svg width="528pt" height="238pt"
 viewBox="0.00 0.00 528.00 238.00" xmlns="http://www.w3.org/2000/svg" xmlns:xlink="http://www.w3.org/1999/xlink">
<g id="graph0" class="graph" transform="scale(1 1) rotate(0) translate(4 234)">
<title>dependency&#45;cruiser output</title>
<polygon fill="white" stroke="transparent" points="-4,4 -4,-234 524,-234 524,4 -4,4"/>
<g id="clust1" class="cluster">
<title>cluster_src</title>
<path fill="#ffffff" stroke="black" stroke-width="2" d="M20,-8C20,-8 500,-8 500,-8 506,-8 512,-14 512,-20 512,-20 512,-210 512,-210 512,-216 506,-222 500,-222 500,-222 20,-222 20,-222 14,-222 8,-216 8,-210 8,-210 8,-20 8,-20 8,-14 14,-8 20,-8"/>
<text text-anchor="middle" x="260" y="-210.8" font-family="Helvetica,sans-Serif" font-weight="bold" font-size="9.00">src</text>
</g>
<g id="clust2" class="cluster">
<title>cluster_src/app</title>
<path fill="#ffffff" stroke="black" stroke-width="2" d="M28,-16C28,-16 492,-16 492,-16 498,-16 504,-22 504,-28 504,-28 504,-184 504,-184 504,-190 498,-196 492,-196 492,-196 28,-196 28,-196 22,-196 16,-190 16,-184 16,-184 16,-28 16,-28 16,-22 22,-16 28,-16"/>
<text text-anchor="middle" x="260" y="-184.8" font-family="Helvetica,sans-Serif" font-weight="bold" font-size="9.00">app</text>
</g>
<g id="clust3" class="cluster">
<title>cluster_src/app/main</title>
<path fill="#ffffff" stroke="black" stroke-width="2" d="M36,-24C36,-24 209,-24 209,-24 215,-24 221,-30 221,-36 221,-36 221,-158 221,-158 221,-164 215,-170 209,-170 209,-170 36,-170 36,-170 30,-170 24,-164 24,-158 24,-158 24,-36 24,-36 24,-30 30,-24 36,-24"/>
<text text-anchor="middle" x="122.5" y="-158.8" font-family="Helvetica,sans-Serif" font-weight="bold" font-size="9.00">main</text>
</g>
<g id="clust4" class="cluster">
<title>cluster_src/app/main/worktime</title>
<path fill="#ffffff" stroke="black" stroke-width="2" d="M44,-32C44,-32 201,-32 201,-32 207,-32 213,-38 213,-44 213,-44 213,-132 213,-132 213,-138 207,-144 201,-144 201,-144 44,-144 44,-144 38,-144 32,-138 32,-132 32,-132 32,-44 32,-44 32,-38 38,-32 44,-32"/>
<text text-anchor="middle" x="122.5" y="-132.8" font-family="Helvetica,sans-Serif" font-weight="bold" font-size="9.00">worktime</text>
</g>
<g id="clust5" class="cluster">
<title>cluster_src/app/main/worktime/worktime&#45;stats</title>
<path fill="#ffffff" stroke="black" stroke-width="2" d="M52,-40C52,-40 193,-40 193,-40 199,-40 205,-46 205,-52 205,-52 205,-80 205,-80 205,-86 199,-92 193,-92 193,-92 52,-92 52,-92 46,-92 40,-86 40,-80 40,-80 40,-52 40,-52 40,-46 46,-40 52,-40"/>
<text text-anchor="middle" x="122.5" y="-80.8" font-family="Helvetica,sans-Serif" font-weight="bold" font-size="9.00">worktime&#45;stats</text>
</g>
<g id="clust6" class="cluster">
<title>cluster_src/app/shared</title>
<path fill="#ffffff" stroke="black" stroke-width="2" d="M241,-24C241,-24 484,-24 484,-24 490,-24 496,-30 496,-36 496,-36 496,-132 496,-132 496,-138 490,-144 484,-144 484,-144 241,-144 241,-144 235,-144 229,-138 229,-132 229,-132 229,-36 229,-36 229,-30 235,-24 241,-24"/>
<text text-anchor="middle" x="362.5" y="-132.8" font-family="Helvetica,sans-Serif" font-weight="bold" font-size="9.00">shared</text>
</g>
<g id="clust7" class="cluster">
<title>cluster_src/app/shared/services</title>
<path fill="#ffffff" stroke="black" stroke-width="2" d="M249,-32C249,-32 476,-32 476,-32 482,-32 488,-38 488,-44 488,-44 488,-106 488,-106 488,-112 482,-118 476,-118 476,-118 249,-118 249,-118 243,-118 237,-112 237,-106 237,-106 237,-44 237,-44 237,-38 243,-32 249,-32"/>
<text text-anchor="middle" x="362.5" y="-106.8" font-family="Helvetica,sans-Serif" font-weight="bold" font-size="9.00">services</text>
</g>
<g id="clust8" class="cluster">
<title>cluster_src/app/shared/services/date&#45;range</title>
<path fill="#ffffff" stroke="black" stroke-width="2" d="M257,-40C257,-40 361,-40 361,-40 367,-40 373,-46 373,-52 373,-52 373,-80 373,-80 373,-86 367,-92 361,-92 361,-92 257,-92 257,-92 251,-92 245,-86 245,-80 245,-80 245,-52 245,-52 245,-46 251,-40 257,-40"/>
<text text-anchor="middle" x="309" y="-80.8" font-family="Helvetica,sans-Serif" font-weight="bold" font-size="9.00">date&#45;range</text>
</g>
<g id="clust9" class="cluster">
<title>cluster_src/app/shared/services/date</title>
<path fill="#ffffff" stroke="black" stroke-width="2" d="M393,-40C393,-40 468,-40 468,-40 474,-40 480,-46 480,-52 480,-52 480,-80 480,-80 480,-86 474,-92 468,-92 468,-92 393,-92 393,-92 387,-92 381,-86 381,-80 381,-80 381,-52 381,-52 381,-46 387,-40 393,-40"/>
<text text-anchor="middle" x="430.5" y="-80.8" font-family="Helvetica,sans-Serif" font-weight="bold" font-size="9.00">date</text>
</g>
<!-- src/app/main/worktime/worktime&#45;stats/worktime&#45;stats.component.ts -->
<g id="node1" class="node">
<title>src/app/main/worktime/worktime&#45;stats/worktime&#45;stats.component.ts</title>
<g id="a_node1"><a xlink:href="src/app/main/worktime/worktime-stats/worktime-stats.component.ts" xlink:title="worktime&#45;stats.component.ts">
<path fill="#ddfeff" stroke="black" d="M191,-66C191,-66 54,-66 54,-66 51,-66 48,-63 48,-60 48,-60 48,-54 48,-54 48,-51 51,-48 54,-48 54,-48 191,-48 191,-48 194,-48 197,-51 197,-54 197,-54 197,-60 197,-60 197,-63 194,-66 191,-66"/>
<text text-anchor="start" x="56" y="-54.8" font-family="Helvetica,sans-Serif" font-size="9.00">worktime&#45;stats.component.ts</text>
</a>
</g>
</g>
<!-- src/app/shared/services/date&#45;range/date&#45;range.service.ts -->
<g id="node2" class="node">
<title>src/app/shared/services/date&#45;range/date&#45;range.service.ts</title>
<g id="a_node2"><a xlink:href="src/app/shared/services/date-range/date-range.service.ts" xlink:title="date&#45;range.service.ts">
<path fill="#ddfeff" stroke="black" d="M359,-66C359,-66 259,-66 259,-66 256,-66 253,-63 253,-60 253,-60 253,-54 253,-54 253,-51 256,-48 259,-48 259,-48 359,-48 359,-48 362,-48 365,-51 365,-54 365,-54 365,-60 365,-60 365,-63 362,-66 359,-66"/>
<text text-anchor="start" x="261" y="-54.8" font-family="Helvetica,sans-Serif" font-size="9.00">date&#45;range.service.ts</text>
</a>
</g>
</g>
<!-- src/app/main/worktime/worktime&#45;stats/worktime&#45;stats.component.ts&#45;&gt;src/app/shared/services/date&#45;range/date&#45;range.service.ts -->
<g id="edge1" class="edge">
<title>src/app/main/worktime/worktime&#45;stats/worktime&#45;stats.component.ts&#45;&gt;src/app/shared/services/date&#45;range/date&#45;range.service.ts</title>
<path fill="none" stroke="#000000" stroke-width="2" stroke-opacity="0.200000" d="M197.21,-57C213.61,-57 230.81,-57 246.65,-57"/>
<polygon fill="#000000" fill-opacity="0.200000" stroke="#000000" stroke-width="2" stroke-opacity="0.200000" points="246.88,-59.1 252.88,-57 246.88,-54.9 246.88,-59.1"/>
</g>
<!-- src/app/shared/services/date/date.service.ts -->
<g id="node3" class="node">
<title>src/app/shared/services/date/date.service.ts</title>
<g id="a_node3"><a xlink:href="src/app/shared/services/date/date.service.ts" xlink:title="date.service.ts">
<path fill="#ddfeff" stroke="black" d="M466,-66C466,-66 395,-66 395,-66 392,-66 389,-63 389,-60 389,-60 389,-54 389,-54 389,-51 392,-48 395,-48 395,-48 466,-48 466,-48 469,-48 472,-51 472,-54 472,-54 472,-60 472,-60 472,-63 469,-66 466,-66"/>
<text text-anchor="start" x="397" y="-54.8" font-family="Helvetica,sans-Serif" font-size="9.00">date.service.ts</text>
</a>
</g>
</g>
<!-- src/app/main/worktime/worktime&#45;stats/worktime&#45;stats.component.ts&#45;&gt;src/app/shared/services/date/date.service.ts -->
<g id="edge2" class="edge">
<title>src/app/main/worktime/worktime&#45;stats/worktime&#45;stats.component.ts&#45;&gt;src/app/shared/services/date/date.service.ts</title>
<path fill="none" stroke="#000000" stroke-width="2" stroke-opacity="0.200000" d="M197.1,-57.6C205.81,-60.23 214.06,-64.19 221,-70 229.95,-77.49 219.58,-88.12 229,-95 254.85,-113.87 342.39,-104.34 373,-95 389.08,-90.1 404.73,-78.91 415.47,-69.94"/>
<polygon fill="#000000" fill-opacity="0.200000" stroke="#000000" stroke-width="2" stroke-opacity="0.200000" points="416.86,-71.51 420.04,-66 414.12,-68.33 416.86,-71.51"/>
</g>
<!-- src/app/shared/services/date&#45;range/date&#45;range.service.ts&#45;&gt;src/app/shared/services/date/date.service.ts -->
<g id="edge5" class="edge">
<title>src/app/shared/services/date&#45;range/date&#45;range.service.ts&#45;&gt;src/app/shared/services/date/date.service.ts</title>
<path fill="none" stroke="#000000" stroke-width="2" stroke-opacity="0.200000" d="M365.2,-57C371.04,-57 376.94,-57 382.67,-57"/>
<polygon fill="#000000" fill-opacity="0.200000" stroke="#000000" stroke-width="2" stroke-opacity="0.200000" points="382.81,-59.1 388.81,-57 382.81,-54.9 382.81,-59.1"/>
</g>
<!-- src/app/main/worktime/worktime.component.ts -->
<g id="node4" class="node">
<title>src/app/main/worktime/worktime.component.ts</title>
<g id="a_node4"><a xlink:href="src/app/main/worktime/worktime.component.ts" xlink:title="worktime.component.ts">
<path fill="#ddfeff" stroke="black" d="M179,-118C179,-118 66,-118 66,-118 63,-118 60,-115 60,-112 60,-112 60,-106 60,-106 60,-103 63,-100 66,-100 66,-100 179,-100 179,-100 182,-100 185,-103 185,-106 185,-106 185,-112 185,-112 185,-115 182,-118 179,-118"/>
<text text-anchor="start" x="68" y="-106.8" font-family="Helvetica,sans-Serif" font-size="9.00">worktime.component.ts</text>
</a>
</g>
</g>
<!-- src/app/main/worktime/worktime.component.ts&#45;&gt;src/app/shared/services/date&#45;range/date&#45;range.service.ts -->
<g id="edge3" class="edge">
<title>src/app/main/worktime/worktime.component.ts&#45;&gt;src/app/shared/services/date&#45;range/date&#45;range.service.ts</title>
<path fill="none" stroke="#000000" stroke-width="2" stroke-opacity="0.200000" d="M185.14,-102.71C197.16,-100.77 209.57,-98.25 221,-95 243.65,-88.56 268.11,-77.47 285.31,-68.93"/>
<polygon fill="#000000" fill-opacity="0.200000" stroke="#000000" stroke-width="2" stroke-opacity="0.200000" points="286.43,-70.72 290.85,-66.14 284.55,-66.96 286.43,-70.72"/>
</g>
<!-- src/app/main/worktime/worktime.component.ts&#45;&gt;src/app/shared/services/date/date.service.ts -->
<g id="edge4" class="edge">
<title>src/app/main/worktime/worktime.component.ts&#45;&gt;src/app/shared/services/date/date.service.ts</title>
<path fill="none" stroke="#000000" stroke-width="2" stroke-opacity="0.200000" d="M178.48,-118.06C230.37,-124.29 309.47,-127.69 373,-104 390.99,-97.29 407.36,-82.23 417.79,-70.95"/>
<polygon fill="#000000" fill-opacity="0.200000" stroke="#000000" stroke-width="2" stroke-opacity="0.200000" points="419.44,-72.25 421.88,-66.38 416.31,-69.45 419.44,-72.25"/>
</g>
</g>
</svg>
