<?xml version="1.0" encoding="UTF-8" standalone="no"?>
<!DOCTYPE svg PUBLIC "-//W3C//DTD SVG 1.1//EN"
 "http://www.w3.org/Graphics/SVG/1.1/DTD/svg11.dtd">
<!-- Generated by graphviz version 2.43.0 (0)
 -->
<!-- Title: dependency&#45;cruiser output Pages: 1 -->
<svg width="418pt" height="212pt"
 viewBox="0.00 0.00 418.00 212.00" xmlns="http://www.w3.org/2000/svg" xmlns:xlink="http://www.w3.org/1999/xlink">
<g id="graph0" class="graph" transform="scale(1 1) rotate(0) translate(4 208)">
<title>dependency&#45;cruiser output</title>
<polygon fill="white" stroke="transparent" points="-4,4 -4,-208 414,-208 414,4 -4,4"/>
<g id="clust1" class="cluster">
<title>cluster_src</title>
<path fill="#ffffff" stroke="black" stroke-width="2" d="M20,-8C20,-8 390,-8 390,-8 396,-8 402,-14 402,-20 402,-20 402,-184 402,-184 402,-190 396,-196 390,-196 390,-196 20,-196 20,-196 14,-196 8,-190 8,-184 8,-184 8,-20 8,-20 8,-14 14,-8 20,-8"/>
<text text-anchor="middle" x="205" y="-184.8" font-family="Helvetica,sans-Serif" font-weight="bold" font-size="9.00">src</text>
</g>
<g id="clust2" class="cluster">
<title>cluster_src/app</title>
<path fill="#ffffff" stroke="black" stroke-width="2" d="M28,-16C28,-16 382,-16 382,-16 388,-16 394,-22 394,-28 394,-28 394,-158 394,-158 394,-164 388,-170 382,-170 382,-170 28,-170 28,-170 22,-170 16,-164 16,-158 16,-158 16,-28 16,-28 16,-22 22,-16 28,-16"/>
<text text-anchor="middle" x="205" y="-158.8" font-family="Helvetica,sans-Serif" font-weight="bold" font-size="9.00">app</text>
</g>
<g id="clust3" class="cluster">
<title>cluster_src/app/common</title>
<path fill="#ffffff" stroke="black" stroke-width="2" d="M241,-32C241,-32 374,-32 374,-32 380,-32 386,-38 386,-44 386,-44 386,-106 386,-106 386,-112 380,-118 374,-118 374,-118 241,-118 241,-118 235,-118 229,-112 229,-106 229,-106 229,-44 229,-44 229,-38 235,-32 241,-32"/>
<text text-anchor="middle" x="307.5" y="-106.8" font-family="Helvetica,sans-Serif" font-weight="bold" font-size="9.00">common</text>
</g>
<g id="clust4" class="cluster">
<title>cluster_src/app/common/line&#45;chart</title>
<path fill="#ffffff" stroke="black" stroke-width="2" d="M249,-40C249,-40 366,-40 366,-40 372,-40 378,-46 378,-52 378,-52 378,-80 378,-80 378,-86 372,-92 366,-92 366,-92 249,-92 249,-92 243,-92 237,-86 237,-80 237,-80 237,-52 237,-52 237,-46 243,-40 249,-40"/>
<text text-anchor="middle" x="307.5" y="-80.8" font-family="Helvetica,sans-Serif" font-weight="bold" font-size="9.00">line&#45;chart</text>
</g>
<g id="clust5" class="cluster">
<title>cluster_src/app/main</title>
<path fill="#ffffff" stroke="black" stroke-width="2" d="M36,-24C36,-24 209,-24 209,-24 215,-24 221,-30 221,-36 221,-36 221,-132 221,-132 221,-138 215,-144 209,-144 209,-144 36,-144 36,-144 30,-144 24,-138 24,-132 24,-132 24,-36 24,-36 24,-30 30,-24 36,-24"/>
<text text-anchor="middle" x="122.5" y="-132.8" font-family="Helvetica,sans-Serif" font-weight="bold" font-size="9.00">main</text>
</g>
<g id="clust6" class="cluster">
<title>cluster_src/app/main/worktime</title>
<path fill="#ffffff" stroke="black" stroke-width="2" d="M44,-32C44,-32 201,-32 201,-32 207,-32 213,-38 213,-44 213,-44 213,-106 213,-106 213,-112 207,-118 201,-118 201,-118 44,-118 44,-118 38,-118 32,-112 32,-106 32,-106 32,-44 32,-44 32,-38 38,-32 44,-32"/>
<text text-anchor="middle" x="122.5" y="-106.8" font-family="Helvetica,sans-Serif" font-weight="bold" font-size="9.00">worktime</text>
</g>
<g id="clust7" class="cluster">
<title>cluster_src/app/main/worktime/worktime&#45;stats</title>
<path fill="#ffffff" stroke="black" stroke-width="2" d="M52,-40C52,-40 193,-40 193,-40 199,-40 205,-46 205,-52 205,-52 205,-80 205,-80 205,-86 199,-92 193,-92 193,-92 52,-92 52,-92 46,-92 40,-86 40,-80 40,-80 40,-52 40,-52 40,-46 46,-40 52,-40"/>
<text text-anchor="middle" x="122.5" y="-80.8" font-family="Helvetica,sans-Serif" font-weight="bold" font-size="9.00">worktime&#45;stats</text>
</g>
<!-- src/app/common/line&#45;chart/line&#45;chart.component.ts -->
<g id="node1" class="node">
<title>src/app/common/line&#45;chart/line&#45;chart.component.ts</title>
<g id="a_node1"><a xlink:href="src/app/common/line-chart/line-chart.component.ts" xlink:title="line&#45;chart.component.ts">
<path fill="#ddfeff" stroke="black" d="M364,-66C364,-66 251,-66 251,-66 248,-66 245,-63 245,-60 245,-60 245,-54 245,-54 245,-51 248,-48 251,-48 251,-48 364,-48 364,-48 367,-48 370,-51 370,-54 370,-54 370,-60 370,-60 370,-63 367,-66 364,-66"/>
<text text-anchor="start" x="253" y="-54.8" font-family="Helvetica,sans-Serif" font-size="9.00">line&#45;chart.component.ts</text>
</a>
</g>
</g>
<!-- src/app/main/worktime/worktime&#45;stats/worktime&#45;stats.component.ts -->
<g id="node2" class="node">
<title>src/app/main/worktime/worktime&#45;stats/worktime&#45;stats.component.ts</title>
<g id="a_node2"><a xlink:href="src/app/main/worktime/worktime-stats/worktime-stats.component.ts" xlink:title="worktime&#45;stats.component.ts">
<path fill="#ddfeff" stroke="black" d="M191,-66C191,-66 54,-66 54,-66 51,-66 48,-63 48,-60 48,-60 48,-54 48,-54 48,-51 51,-48 54,-48 54,-48 191,-48 191,-48 194,-48 197,-51 197,-54 197,-54 197,-60 197,-60 197,-63 194,-66 191,-66"/>
<text text-anchor="start" x="56" y="-54.8" font-family="Helvetica,sans-Serif" font-size="9.00">worktime&#45;stats.component.ts</text>
</a>
</g>
</g>
<!-- src/app/main/worktime/worktime&#45;stats/worktime&#45;stats.component.ts&#45;&gt;src/app/common/line&#45;chart/line&#45;chart.component.ts -->
<g id="edge1" class="edge">
<title>src/app/main/worktime/worktime&#45;stats/worktime&#45;stats.component.ts&#45;&gt;src/app/common/line&#45;chart/line&#45;chart.component.ts</title>
<path fill="none" stroke="#000000" stroke-width="2" stroke-opacity="0.200000" d="M197.14,-57C210.84,-57 225.09,-57 238.6,-57"/>
<polygon fill="#000000" fill-opacity="0.200000" stroke="#000000" stroke-width="2" stroke-opacity="0.200000" points="238.75,-59.1 244.75,-57 238.75,-54.9 238.75,-59.1"/>
</g>
</g>
</svg>
