<?xml version="1.0" encoding="UTF-8" standalone="no"?>
<!DOCTYPE svg PUBLIC "-//W3C//DTD SVG 1.1//EN"
 "http://www.w3.org/Graphics/SVG/1.1/DTD/svg11.dtd">
<!-- Generated by graphviz version 2.43.0 (0)
 -->
<!-- Title: dependency&#45;cruiser output Pages: 1 -->
<svg width="531pt" height="358pt"
 viewBox="0.00 0.00 531.00 358.00" xmlns="http://www.w3.org/2000/svg" xmlns:xlink="http://www.w3.org/1999/xlink">
<g id="graph0" class="graph" transform="scale(1 1) rotate(0) translate(4 354)">
<title>dependency&#45;cruiser output</title>
<polygon fill="white" stroke="transparent" points="-4,4 -4,-354 527,-354 527,4 -4,4"/>
<g id="clust1" class="cluster">
<title>cluster_src</title>
<path fill="#ffffff" stroke="black" stroke-width="2" d="M20,-8C20,-8 503,-8 503,-8 509,-8 515,-14 515,-20 515,-20 515,-330 515,-330 515,-336 509,-342 503,-342 503,-342 20,-342 20,-342 14,-342 8,-336 8,-330 8,-330 8,-20 8,-20 8,-14 14,-8 20,-8"/>
<text text-anchor="middle" x="261.5" y="-330.8" font-family="Helvetica,sans-Serif" font-weight="bold" font-size="9.00">src</text>
</g>
<g id="clust2" class="cluster">
<title>cluster_src/app</title>
<path fill="#ffffff" stroke="black" stroke-width="2" d="M28,-16C28,-16 495,-16 495,-16 501,-16 507,-22 507,-28 507,-28 507,-304 507,-304 507,-310 501,-316 495,-316 495,-316 28,-316 28,-316 22,-316 16,-310 16,-304 16,-304 16,-28 16,-28 16,-22 22,-16 28,-16"/>
<text text-anchor="middle" x="261.5" y="-304.8" font-family="Helvetica,sans-Serif" font-weight="bold" font-size="9.00">app</text>
</g>
<g id="clust3" class="cluster">
<title>cluster_src/app/common</title>
<path fill="#ffffff" stroke="black" stroke-width="2" d="M259,-114C259,-114 370,-114 370,-114 376,-114 382,-120 382,-126 382,-126 382,-188 382,-188 382,-194 376,-200 370,-200 370,-200 259,-200 259,-200 253,-200 247,-194 247,-188 247,-188 247,-126 247,-126 247,-120 253,-114 259,-114"/>
<text text-anchor="middle" x="314.5" y="-188.8" font-family="Helvetica,sans-Serif" font-weight="bold" font-size="9.00">common</text>
</g>
<g id="clust4" class="cluster">
<title>cluster_src/app/common/filter</title>
<path fill="#ffffff" stroke="black" stroke-width="2" d="M267,-122C267,-122 362,-122 362,-122 368,-122 374,-128 374,-134 374,-134 374,-162 374,-162 374,-168 368,-174 362,-174 362,-174 267,-174 267,-174 261,-174 255,-168 255,-162 255,-162 255,-134 255,-134 255,-128 261,-122 267,-122"/>
<text text-anchor="middle" x="314.5" y="-162.8" font-family="Helvetica,sans-Serif" font-weight="bold" font-size="9.00">filter</text>
</g>
<g id="clust5" class="cluster">
<title>cluster_src/app/main</title>
<path fill="#ffffff" stroke="black" stroke-width="2" d="M36,-24C36,-24 227,-24 227,-24 233,-24 239,-30 239,-36 239,-36 239,-278 239,-278 239,-284 233,-290 227,-290 227,-290 36,-290 36,-290 30,-290 24,-284 24,-278 24,-278 24,-36 24,-36 24,-30 30,-24 36,-24"/>
<text text-anchor="middle" x="131.5" y="-278.8" font-family="Helvetica,sans-Serif" font-weight="bold" font-size="9.00">main</text>
</g>
<g id="clust6" class="cluster">
<title>cluster_src/app/main/issues</title>
<path fill="#ffffff" stroke="black" stroke-width="2" d="M80.5,-212C80.5,-212 182.5,-212 182.5,-212 188.5,-212 194.5,-218 194.5,-224 194.5,-224 194.5,-252 194.5,-252 194.5,-258 188.5,-264 182.5,-264 182.5,-264 80.5,-264 80.5,-264 74.5,-264 68.5,-258 68.5,-252 68.5,-252 68.5,-224 68.5,-224 68.5,-218 74.5,-212 80.5,-212"/>
<text text-anchor="middle" x="131.5" y="-252.8" font-family="Helvetica,sans-Serif" font-weight="bold" font-size="9.00">issues</text>
</g>
<g id="clust7" class="cluster">
<title>cluster_src/app/main/organization&#45;invitation</title>
<path fill="#ffffff" stroke="black" stroke-width="2" d="M44,-152C44,-152 219,-152 219,-152 225,-152 231,-158 231,-164 231,-164 231,-192 231,-192 231,-198 225,-204 219,-204 219,-204 44,-204 44,-204 38,-204 32,-198 32,-192 32,-192 32,-164 32,-164 32,-158 38,-152 44,-152"/>
<text text-anchor="middle" x="131.5" y="-192.8" font-family="Helvetica,sans-Serif" font-weight="bold" font-size="9.00">organization&#45;invitation</text>
</g>
<g id="clust8" class="cluster">
<title>cluster_src/app/main/organizations</title>
<path fill="#ffffff" stroke="black" stroke-width="2" d="M64,-92C64,-92 199,-92 199,-92 205,-92 211,-98 211,-104 211,-104 211,-132 211,-132 211,-138 205,-144 199,-144 199,-144 64,-144 64,-144 58,-144 52,-138 52,-132 52,-132 52,-104 52,-104 52,-98 58,-92 64,-92"/>
<text text-anchor="middle" x="131.5" y="-132.8" font-family="Helvetica,sans-Serif" font-weight="bold" font-size="9.00">organizations</text>
</g>
<g id="clust9" class="cluster">
<title>cluster_src/app/main/projects</title>
<path fill="#ffffff" stroke="black" stroke-width="2" d="M76,-32C76,-32 187,-32 187,-32 193,-32 199,-38 199,-44 199,-44 199,-72 199,-72 199,-78 193,-84 187,-84 187,-84 76,-84 76,-84 70,-84 64,-78 64,-72 64,-72 64,-44 64,-44 64,-38 70,-32 76,-32"/>
<text text-anchor="middle" x="131.5" y="-72.8" font-family="Helvetica,sans-Serif" font-weight="bold" font-size="9.00">projects</text>
</g>
<g id="clust10" class="cluster">
<title>cluster_src/app/shared</title>
<path fill="#ffffff" stroke="black" stroke-width="2" d="M402,-114C402,-114 487,-114 487,-114 493,-114 499,-120 499,-126 499,-126 499,-188 499,-188 499,-194 493,-200 487,-200 487,-200 402,-200 402,-200 396,-200 390,-194 390,-188 390,-188 390,-126 390,-126 390,-120 396,-114 402,-114"/>
<text text-anchor="middle" x="444.5" y="-188.8" font-family="Helvetica,sans-Serif" font-weight="bold" font-size="9.00">shared</text>
</g>
<g id="clust11" class="cluster">
<title>cluster_src/app/shared/utils</title>
<path fill="#ffffff" stroke="black" stroke-width="2" d="M410,-122C410,-122 479,-122 479,-122 485,-122 491,-128 491,-134 491,-134 491,-162 491,-162 491,-168 485,-174 479,-174 479,-174 410,-174 410,-174 404,-174 398,-168 398,-162 398,-162 398,-134 398,-134 398,-128 404,-122 410,-122"/>
<text text-anchor="middle" x="444.5" y="-162.8" font-family="Helvetica,sans-Serif" font-weight="bold" font-size="9.00">utils</text>
</g>
<!-- src/app/common/filter/filter.component.ts -->
<g id="node1" class="node">
<title>src/app/common/filter/filter.component.ts</title>
<g id="a_node1"><a xlink:href="src/app/common/filter/filter.component.ts" xlink:title="filter.component.ts">
<path fill="#ddfeff" stroke="black" d="M360,-148C360,-148 269,-148 269,-148 266,-148 263,-145 263,-142 263,-142 263,-136 263,-136 263,-133 266,-130 269,-130 269,-130 360,-130 360,-130 363,-130 366,-133 366,-136 366,-136 366,-142 366,-142 366,-145 363,-148 360,-148"/>
<text text-anchor="start" x="271" y="-136.8" font-family="Helvetica,sans-Serif" font-size="9.00">filter.component.ts</text>
</a>
</g>
</g>
<!-- src/app/shared/utils/animations.ts -->
<g id="node2" class="node">
<title>src/app/shared/utils/animations.ts</title>
<g id="a_node2"><a xlink:href="src/app/shared/utils/animations.ts" xlink:title="animations.ts">
<path fill="#ddfeff" stroke="black" d="M477,-148C477,-148 412,-148 412,-148 409,-148 406,-145 406,-142 406,-142 406,-136 406,-136 406,-133 409,-130 412,-130 412,-130 477,-130 477,-130 480,-130 483,-133 483,-136 483,-136 483,-142 483,-142 483,-145 480,-148 477,-148"/>
<text text-anchor="start" x="414" y="-136.8" font-family="Helvetica,sans-Serif" font-size="9.00">animations.ts</text>
</a>
</g>
</g>
<!-- src/app/common/filter/filter.component.ts&#45;&gt;src/app/shared/utils/animations.ts -->
<g id="edge1" class="edge">
<title>src/app/common/filter/filter.component.ts&#45;&gt;src/app/shared/utils/animations.ts</title>
<path fill="none" stroke="#000000" stroke-width="2" stroke-opacity="0.200000" d="M366.09,-139C377.19,-139 388.85,-139 399.66,-139"/>
<polygon fill="#000000" fill-opacity="0.200000" stroke="#000000" stroke-width="2" stroke-opacity="0.200000" points="399.91,-141.1 405.91,-139 399.91,-136.9 399.91,-141.1"/>
</g>
<!-- src/app/main/issues/issues.component.ts -->
<g id="node3" class="node">
<title>src/app/main/issues/issues.component.ts</title>
<g id="a_node3"><a xlink:href="src/app/main/issues/issues.component.ts" xlink:title="issues.component.ts">
<path fill="#ddfeff" stroke="black" d="M180.5,-238C180.5,-238 82.5,-238 82.5,-238 79.5,-238 76.5,-235 76.5,-232 76.5,-232 76.5,-226 76.5,-226 76.5,-223 79.5,-220 82.5,-220 82.5,-220 180.5,-220 180.5,-220 183.5,-220 186.5,-223 186.5,-226 186.5,-226 186.5,-232 186.5,-232 186.5,-235 183.5,-238 180.5,-238"/>
<text text-anchor="start" x="84.5" y="-226.8" font-family="Helvetica,sans-Serif" font-size="9.00">issues.component.ts</text>
</a>
</g>
</g>
<!-- src/app/main/issues/issues.component.ts&#45;&gt;src/app/common/filter/filter.component.ts -->
<g id="edge2" class="edge">
<title>src/app/main/issues/issues.component.ts&#45;&gt;src/app/common/filter/filter.component.ts</title>
<path fill="none" stroke="#000000" stroke-width="2" stroke-opacity="0.200000" d="M186.66,-223.56C204.04,-220.34 222.94,-215.19 239,-207 265.07,-193.7 288.85,-168.79 302.22,-153.09"/>
<polygon fill="#000000" fill-opacity="0.200000" stroke="#000000" stroke-width="2" stroke-opacity="0.200000" points="304.11,-154.1 306.34,-148.15 300.89,-151.41 304.11,-154.1"/>
</g>
<!-- src/app/main/organization&#45;invitation/organization&#45;invitation.component.ts -->
<g id="node4" class="node">
<title>src/app/main/organization&#45;invitation/organization&#45;invitation.component.ts</title>
<g id="a_node4"><a xlink:href="src/app/main/organization-invitation/organization-invitation.component.ts" xlink:title="organization&#45;invitation.component.ts">
<path fill="#ddfeff" stroke="black" d="M217,-178C217,-178 46,-178 46,-178 43,-178 40,-175 40,-172 40,-172 40,-166 40,-166 40,-163 43,-160 46,-160 46,-160 217,-160 217,-160 220,-160 223,-163 223,-166 223,-166 223,-172 223,-172 223,-175 220,-178 217,-178"/>
<text text-anchor="start" x="48" y="-166.8" font-family="Helvetica,sans-Serif" font-size="9.00">organization&#45;invitation.component.ts</text>
</a>
</g>
</g>
<!-- src/app/main/organization&#45;invitation/organization&#45;invitation.component.ts&#45;&gt;src/app/common/filter/filter.component.ts -->
<g id="edge3" class="edge">
<title>src/app/main/organization&#45;invitation/organization&#45;invitation.component.ts&#45;&gt;src/app/common/filter/filter.component.ts</title>
<path fill="none" stroke="#000000" stroke-width="2" stroke-opacity="0.200000" d="M186.81,-160C208.98,-156.32 234.63,-152.07 257.03,-148.36"/>
<polygon fill="#000000" fill-opacity="0.200000" stroke="#000000" stroke-width="2" stroke-opacity="0.200000" points="257.37,-150.43 262.95,-147.38 256.68,-146.29 257.37,-150.43"/>
</g>
<!-- src/app/main/organizations/organizations.component.ts -->
<g id="node5" class="node">
<title>src/app/main/organizations/organizations.component.ts</title>
<g id="a_node5"><a xlink:href="src/app/main/organizations/organizations.component.ts" xlink:title="organizations.component.ts">
<path fill="#ddfeff" stroke="black" d="M197,-118C197,-118 66,-118 66,-118 63,-118 60,-115 60,-112 60,-112 60,-106 60,-106 60,-103 63,-100 66,-100 66,-100 197,-100 197,-100 200,-100 203,-103 203,-106 203,-106 203,-112 203,-112 203,-115 200,-118 197,-118"/>
<text text-anchor="start" x="68" y="-106.8" font-family="Helvetica,sans-Serif" font-size="9.00">organizations.component.ts</text>
</a>
</g>
</g>
<!-- src/app/main/organizations/organizations.component.ts&#45;&gt;src/app/common/filter/filter.component.ts -->
<g id="edge4" class="edge">
<title>src/app/main/organizations/organizations.component.ts&#45;&gt;src/app/common/filter/filter.component.ts</title>
<path fill="none" stroke="#000000" stroke-width="2" stroke-opacity="0.200000" d="M186.81,-118C208.98,-121.68 234.63,-125.93 257.03,-129.64"/>
<polygon fill="#000000" fill-opacity="0.200000" stroke="#000000" stroke-width="2" stroke-opacity="0.200000" points="256.68,-131.71 262.95,-130.62 257.37,-127.57 256.68,-131.71"/>
</g>
<!-- src/app/main/projects/projects.component.ts -->
<g id="node6" class="node">
<title>src/app/main/projects/projects.component.ts</title>
<g id="a_node6"><a xlink:href="src/app/main/projects/projects.component.ts" xlink:title="projects.component.ts">
<path fill="#ddfeff" stroke="black" d="M185,-58C185,-58 78,-58 78,-58 75,-58 72,-55 72,-52 72,-52 72,-46 72,-46 72,-43 75,-40 78,-40 78,-40 185,-40 185,-40 188,-40 191,-43 191,-46 191,-46 191,-52 191,-52 191,-55 188,-58 185,-58"/>
<text text-anchor="start" x="80" y="-46.8" font-family="Helvetica,sans-Serif" font-size="9.00">projects.component.ts</text>
</a>
</g>
</g>
<!-- src/app/main/projects/projects.component.ts&#45;&gt;src/app/common/filter/filter.component.ts -->
<g id="edge5" class="edge">
<title>src/app/main/projects/projects.component.ts&#45;&gt;src/app/common/filter/filter.component.ts</title>
<path fill="none" stroke="#000000" stroke-width="2" stroke-opacity="0.200000" d="M162.21,-58.1C184.02,-65.27 214.06,-76.17 239,-89 259.97,-99.79 282.2,-115.31 296.86,-126.18"/>
<polygon fill="#000000" fill-opacity="0.200000" stroke="#000000" stroke-width="2" stroke-opacity="0.200000" points="295.84,-128.05 301.9,-129.96 298.36,-124.69 295.84,-128.05"/>
</g>
</g>
</svg>
