<?xml version="1.0" encoding="UTF-8" standalone="no"?>
<!DOCTYPE svg PUBLIC "-//W3C//DTD SVG 1.1//EN"
 "http://www.w3.org/Graphics/SVG/1.1/DTD/svg11.dtd">
<!-- Generated by graphviz version 2.43.0 (0)
 -->
<!-- Title: dependency&#45;cruiser output Pages: 1 -->
<svg width="621pt" height="340pt"
 viewBox="0.00 0.00 621.00 340.00" xmlns="http://www.w3.org/2000/svg" xmlns:xlink="http://www.w3.org/1999/xlink">
<g id="graph0" class="graph" transform="scale(1 1) rotate(0) translate(4 336)">
<title>dependency&#45;cruiser output</title>
<polygon fill="white" stroke="transparent" points="-4,4 -4,-336 617,-336 617,4 -4,4"/>
<g id="clust1" class="cluster">
<title>cluster_src</title>
<path fill="#ffffff" stroke="black" stroke-width="2" d="M20,-8C20,-8 593,-8 593,-8 599,-8 605,-14 605,-20 605,-20 605,-312 605,-312 605,-318 599,-324 593,-324 593,-324 20,-324 20,-324 14,-324 8,-318 8,-312 8,-312 8,-20 8,-20 8,-14 14,-8 20,-8"/>
<text text-anchor="middle" x="306.5" y="-312.8" font-family="Helvetica,sans-Serif" font-weight="bold" font-size="9.00">src</text>
</g>
<g id="clust2" class="cluster">
<title>cluster_src/app</title>
<path fill="#ffffff" stroke="black" stroke-width="2" d="M28,-16C28,-16 585,-16 585,-16 591,-16 597,-22 597,-28 597,-28 597,-286 597,-286 597,-292 591,-298 585,-298 585,-298 28,-298 28,-298 22,-298 16,-292 16,-286 16,-286 16,-28 16,-28 16,-22 22,-16 28,-16"/>
<text text-anchor="middle" x="306.5" y="-286.8" font-family="Helvetica,sans-Serif" font-weight="bold" font-size="9.00">app</text>
</g>
<g id="clust3" class="cluster">
<title>cluster_src/app/common</title>
<path fill="#ffffff" stroke="black" stroke-width="2" d="M292,-36C292,-36 577,-36 577,-36 583,-36 589,-42 589,-48 589,-48 589,-110 589,-110 589,-116 583,-122 577,-122 577,-122 292,-122 292,-122 286,-122 280,-116 280,-110 280,-110 280,-48 280,-48 280,-42 286,-36 292,-36"/>
<text text-anchor="middle" x="434.5" y="-110.8" font-family="Helvetica,sans-Serif" font-weight="bold" font-size="9.00">common</text>
</g>
<g id="clust4" class="cluster">
<title>cluster_src/app/common/avatar</title>
<path fill="#ffffff" stroke="black" stroke-width="2" d="M467,-44C467,-44 569,-44 569,-44 575,-44 581,-50 581,-56 581,-56 581,-84 581,-84 581,-90 575,-96 569,-96 569,-96 467,-96 467,-96 461,-96 455,-90 455,-84 455,-84 455,-56 455,-56 455,-50 461,-44 467,-44"/>
<text text-anchor="middle" x="518" y="-84.8" font-family="Helvetica,sans-Serif" font-weight="bold" font-size="9.00">avatar</text>
</g>
<g id="clust5" class="cluster">
<title>cluster_src/app/common/member&#45;card</title>
<path fill="#ffffff" stroke="black" stroke-width="2" d="M300,-44C300,-44 435,-44 435,-44 441,-44 447,-50 447,-56 447,-56 447,-84 447,-84 447,-90 441,-96 435,-96 435,-96 300,-96 300,-96 294,-96 288,-90 288,-84 288,-84 288,-56 288,-56 288,-50 294,-44 300,-44"/>
<text text-anchor="middle" x="367.5" y="-84.8" font-family="Helvetica,sans-Serif" font-weight="bold" font-size="9.00">member&#45;card</text>
</g>
<g id="clust6" class="cluster">
<title>cluster_src/app/main</title>
<path fill="#ffffff" stroke="black" stroke-width="2" d="M36,-24C36,-24 260,-24 260,-24 266,-24 272,-30 272,-36 272,-36 272,-260 272,-260 272,-266 266,-272 260,-272 260,-272 36,-272 36,-272 30,-272 24,-266 24,-260 24,-260 24,-36 24,-36 24,-30 30,-24 36,-24"/>
<text text-anchor="middle" x="148" y="-260.8" font-family="Helvetica,sans-Serif" font-weight="bold" font-size="9.00">main</text>
</g>
<g id="clust7" class="cluster">
<title>cluster_src/app/main/manage</title>
<path fill="#ffffff" stroke="black" stroke-width="2" d="M81.5,-32C81.5,-32 214.5,-32 214.5,-32 220.5,-32 226.5,-38 226.5,-44 226.5,-44 226.5,-106 226.5,-106 226.5,-112 220.5,-118 214.5,-118 214.5,-118 81.5,-118 81.5,-118 75.5,-118 69.5,-112 69.5,-106 69.5,-106 69.5,-44 69.5,-44 69.5,-38 75.5,-32 81.5,-32"/>
<text text-anchor="middle" x="148" y="-106.8" font-family="Helvetica,sans-Serif" font-weight="bold" font-size="9.00">manage</text>
</g>
<g id="clust8" class="cluster">
<title>cluster_src/app/main/manage/members</title>
<path fill="#ffffff" stroke="black" stroke-width="2" d="M89.5,-40C89.5,-40 206.5,-40 206.5,-40 212.5,-40 218.5,-46 218.5,-52 218.5,-52 218.5,-80 218.5,-80 218.5,-86 212.5,-92 206.5,-92 206.5,-92 89.5,-92 89.5,-92 83.5,-92 77.5,-86 77.5,-80 77.5,-80 77.5,-52 77.5,-52 77.5,-46 83.5,-40 89.5,-40"/>
<text text-anchor="middle" x="148" y="-80.8" font-family="Helvetica,sans-Serif" font-weight="bold" font-size="9.00">members</text>
</g>
<g id="clust9" class="cluster">
<title>cluster_src/app/main/organizations</title>
<path fill="#ffffff" stroke="black" stroke-width="2" d="M44,-126C44,-126 252,-126 252,-126 258,-126 264,-132 264,-138 264,-138 264,-234 264,-234 264,-240 258,-246 252,-246 252,-246 44,-246 44,-246 38,-246 32,-240 32,-234 32,-234 32,-138 32,-138 32,-132 38,-126 44,-126"/>
<text text-anchor="middle" x="148" y="-234.8" font-family="Helvetica,sans-Serif" font-weight="bold" font-size="9.00">organizations</text>
</g>
<g id="clust10" class="cluster">
<title>cluster_src/app/main/organizations/manage</title>
<path fill="#ffffff" stroke="black" stroke-width="2" d="M52,-134C52,-134 244,-134 244,-134 250,-134 256,-140 256,-146 256,-146 256,-208 256,-208 256,-214 250,-220 244,-220 244,-220 52,-220 52,-220 46,-220 40,-214 40,-208 40,-208 40,-146 40,-146 40,-140 46,-134 52,-134"/>
<text text-anchor="middle" x="148" y="-208.8" font-family="Helvetica,sans-Serif" font-weight="bold" font-size="9.00">manage</text>
</g>
<g id="clust11" class="cluster">
<title>cluster_src/app/main/organizations/manage/organization&#45;members</title>
<path fill="#ffffff" stroke="black" stroke-width="2" d="M60,-142C60,-142 236,-142 236,-142 242,-142 248,-148 248,-154 248,-154 248,-182 248,-182 248,-188 242,-194 236,-194 236,-194 60,-194 60,-194 54,-194 48,-188 48,-182 48,-182 48,-154 48,-154 48,-148 54,-142 60,-142"/>
<text text-anchor="middle" x="148" y="-182.8" font-family="Helvetica,sans-Serif" font-weight="bold" font-size="9.00">organization&#45;members</text>
</g>
<g id="clust12" class="cluster">
<title>cluster_src/app/shared</title>
<path fill="#ffffff" stroke="black" stroke-width="2" d="M487,-130C487,-130 549,-130 549,-130 555,-130 561,-136 561,-142 561,-142 561,-204 561,-204 561,-210 555,-216 549,-216 549,-216 487,-216 487,-216 481,-216 475,-210 475,-204 475,-204 475,-142 475,-142 475,-136 481,-130 487,-130"/>
<text text-anchor="middle" x="518" y="-204.8" font-family="Helvetica,sans-Serif" font-weight="bold" font-size="9.00">shared</text>
</g>
<g id="clust13" class="cluster">
<title>cluster_src/app/shared/constants</title>
<path fill="#ffffff" stroke="black" stroke-width="2" d="M495,-138C495,-138 541,-138 541,-138 547,-138 553,-144 553,-150 553,-150 553,-178 553,-178 553,-184 547,-190 541,-190 541,-190 495,-190 495,-190 489,-190 483,-184 483,-178 483,-178 483,-150 483,-150 483,-144 489,-138 495,-138"/>
<text text-anchor="middle" x="518" y="-178.8" font-family="Helvetica,sans-Serif" font-weight="bold" font-size="9.00">constants</text>
</g>
<!-- src/app/common/avatar/avatar.component.ts -->
<g id="node1" class="node">
<title>src/app/common/avatar/avatar.component.ts</title>
<g id="a_node1"><a xlink:href="src/app/common/avatar/avatar.component.ts" xlink:title="avatar.component.ts">
<path fill="#ddfeff" stroke="black" d="M567,-70C567,-70 469,-70 469,-70 466,-70 463,-67 463,-64 463,-64 463,-58 463,-58 463,-55 466,-52 469,-52 469,-52 567,-52 567,-52 570,-52 573,-55 573,-58 573,-58 573,-64 573,-64 573,-67 570,-70 567,-70"/>
<text text-anchor="start" x="471" y="-58.8" font-family="Helvetica,sans-Serif" font-size="9.00">avatar.component.ts</text>
</a>
</g>
</g>
<!-- src/app/common/member&#45;card/member&#45;card.component.ts -->
<g id="node2" class="node">
<title>src/app/common/member&#45;card/member&#45;card.component.ts</title>
<g id="a_node2"><a xlink:href="src/app/common/member-card/member-card.component.ts" xlink:title="member&#45;card.component.ts">
<path fill="#ddfeff" stroke="black" d="M433,-70C433,-70 302,-70 302,-70 299,-70 296,-67 296,-64 296,-64 296,-58 296,-58 296,-55 299,-52 302,-52 302,-52 433,-52 433,-52 436,-52 439,-55 439,-58 439,-58 439,-64 439,-64 439,-67 436,-70 433,-70"/>
<text text-anchor="start" x="304" y="-58.8" font-family="Helvetica,sans-Serif" font-size="9.00">member&#45;card.component.ts</text>
</a>
</g>
</g>
<!-- src/app/common/member&#45;card/member&#45;card.component.ts&#45;&gt;src/app/common/avatar/avatar.component.ts -->
<g id="edge2" class="edge">
<title>src/app/common/member&#45;card/member&#45;card.component.ts&#45;&gt;src/app/common/avatar/avatar.component.ts</title>
<path fill="none" stroke="#000000" stroke-width="2" stroke-opacity="0.200000" d="M439.27,-61C445.09,-61 450.93,-61 456.66,-61"/>
<polygon fill="#000000" fill-opacity="0.200000" stroke="#000000" stroke-width="2" stroke-opacity="0.200000" points="456.82,-63.1 462.82,-61 456.82,-58.9 456.82,-63.1"/>
</g>
<!-- src/app/shared/constants/Role.ts -->
<g id="node3" class="node">
<title>src/app/shared/constants/Role.ts</title>
<g id="a_node3"><a xlink:href="src/app/shared/constants/Role.ts" xlink:title="Role.ts">
<path fill="#ddfeff" stroke="black" d="M539,-164C539,-164 497,-164 497,-164 494,-164 491,-161 491,-158 491,-158 491,-152 491,-152 491,-149 494,-146 497,-146 497,-146 539,-146 539,-146 542,-146 545,-149 545,-152 545,-152 545,-158 545,-158 545,-161 542,-164 539,-164"/>
<text text-anchor="start" x="502.5" y="-152.8" font-family="Helvetica,sans-Serif" font-size="9.00">Role.ts</text>
</a>
</g>
</g>
<!-- src/app/common/member&#45;card/member&#45;card.component.ts&#45;&gt;src/app/shared/constants/Role.ts -->
<g id="edge1" class="edge">
<title>src/app/common/member&#45;card/member&#45;card.component.ts&#45;&gt;src/app/shared/constants/Role.ts</title>
<path fill="none" stroke="#000000" stroke-width="2" stroke-opacity="0.200000" d="M382.74,-70.01C409.39,-86.88 466.86,-123.26 497.24,-142.49"/>
<polygon fill="#000000" fill-opacity="0.200000" stroke="#000000" stroke-width="2" stroke-opacity="0.200000" points="496.39,-144.44 502.59,-145.88 498.64,-140.89 496.39,-144.44"/>
</g>
<!-- src/app/main/manage/members/members.component.ts -->
<g id="node4" class="node">
<title>src/app/main/manage/members/members.component.ts</title>
<g id="a_node4"><a xlink:href="src/app/main/manage/members/members.component.ts" xlink:title="members.component.ts">
<path fill="#ddfeff" stroke="black" d="M204.5,-66C204.5,-66 91.5,-66 91.5,-66 88.5,-66 85.5,-63 85.5,-60 85.5,-60 85.5,-54 85.5,-54 85.5,-51 88.5,-48 91.5,-48 91.5,-48 204.5,-48 204.5,-48 207.5,-48 210.5,-51 210.5,-54 210.5,-54 210.5,-60 210.5,-60 210.5,-63 207.5,-66 204.5,-66"/>
<text text-anchor="start" x="93.5" y="-54.8" font-family="Helvetica,sans-Serif" font-size="9.00">members.component.ts</text>
</a>
</g>
</g>
<!-- src/app/main/manage/members/members.component.ts&#45;&gt;src/app/common/member&#45;card/member&#45;card.component.ts -->
<g id="edge3" class="edge">
<title>src/app/main/manage/members/members.component.ts&#45;&gt;src/app/common/member&#45;card/member&#45;card.component.ts</title>
<path fill="none" stroke="#000000" stroke-width="2" stroke-opacity="0.200000" d="M210.74,-58.14C235.28,-58.59 263.76,-59.11 289.61,-59.59"/>
<polygon fill="#000000" fill-opacity="0.200000" stroke="#000000" stroke-width="2" stroke-opacity="0.200000" points="289.74,-61.69 295.78,-59.7 289.82,-57.49 289.74,-61.69"/>
</g>
<!-- src/app/main/manage/members/members.component.ts&#45;&gt;src/app/shared/constants/Role.ts -->
<g id="edge4" class="edge">
<title>src/app/main/manage/members/members.component.ts&#45;&gt;src/app/shared/constants/Role.ts</title>
<path fill="none" stroke="#000000" stroke-width="2" stroke-opacity="0.200000" d="M175.41,-66.14C201.74,-75.09 243.41,-88.83 280,-99 352.7,-119.21 439.24,-138.46 484.97,-148.27"/>
<polygon fill="#000000" fill-opacity="0.200000" stroke="#000000" stroke-width="2" stroke-opacity="0.200000" points="484.57,-150.33 490.88,-149.53 485.45,-146.22 484.57,-150.33"/>
</g>
<!-- src/app/main/organizations/manage/organization&#45;members/organization&#45;members.component.ts -->
<g id="node5" class="node">
<title>src/app/main/organizations/manage/organization&#45;members/organization&#45;members.component.ts</title>
<g id="a_node5"><a xlink:href="src/app/main/organizations/manage/organization-members/organization-members.component.ts" xlink:title="organization&#45;members.component.ts">
<path fill="#ddfeff" stroke="black" d="M234,-168C234,-168 62,-168 62,-168 59,-168 56,-165 56,-162 56,-162 56,-156 56,-156 56,-153 59,-150 62,-150 62,-150 234,-150 234,-150 237,-150 240,-153 240,-156 240,-156 240,-162 240,-162 240,-165 237,-168 234,-168"/>
<text text-anchor="start" x="64" y="-156.8" font-family="Helvetica,sans-Serif" font-size="9.00">organization&#45;members.component.ts</text>
</a>
</g>
</g>
<!-- src/app/main/organizations/manage/organization&#45;members/organization&#45;members.component.ts&#45;&gt;src/app/common/member&#45;card/member&#45;card.component.ts -->
<g id="edge5" class="edge">
<title>src/app/main/organizations/manage/organization&#45;members/organization&#45;members.component.ts&#45;&gt;src/app/common/member&#45;card/member&#45;card.component.ts</title>
<path fill="none" stroke="#000000" stroke-width="2" stroke-opacity="0.200000" d="M169.07,-149.96C208.73,-132.09 297.05,-92.29 340.85,-72.56"/>
<polygon fill="#000000" fill-opacity="0.200000" stroke="#000000" stroke-width="2" stroke-opacity="0.200000" points="341.87,-74.4 346.48,-70.02 340.14,-70.57 341.87,-74.4"/>
</g>
<!-- src/app/main/organizations/manage/organization&#45;members/organization&#45;members.component.ts&#45;&gt;src/app/shared/constants/Role.ts -->
<g id="edge6" class="edge">
<title>src/app/main/organizations/manage/organization&#45;members/organization&#45;members.component.ts&#45;&gt;src/app/shared/constants/Role.ts</title>
<path fill="none" stroke="#000000" stroke-width="2" stroke-opacity="0.200000" d="M240.44,-158.01C319.81,-157.14 430.24,-155.94 484.4,-155.35"/>
<polygon fill="#000000" fill-opacity="0.200000" stroke="#000000" stroke-width="2" stroke-opacity="0.200000" points="484.75,-157.45 490.73,-155.29 484.7,-153.25 484.75,-157.45"/>
</g>
</g>
</svg>
