<?xml version="1.0" encoding="UTF-8" standalone="no"?>
<!DOCTYPE svg PUBLIC "-//W3C//DTD SVG 1.1//EN"
 "http://www.w3.org/Graphics/SVG/1.1/DTD/svg11.dtd">
<!-- Generated by graphviz version 2.43.0 (0)
 -->
<!-- Title: dependency&#45;cruiser output Pages: 1 -->
<svg width="550pt" height="366pt"
 viewBox="0.00 0.00 550.00 366.00" xmlns="http://www.w3.org/2000/svg" xmlns:xlink="http://www.w3.org/1999/xlink">
<g id="graph0" class="graph" transform="scale(1 1) rotate(0) translate(4 362)">
<title>dependency&#45;cruiser output</title>
<polygon fill="white" stroke="transparent" points="-4,4 -4,-362 546,-362 546,4 -4,4"/>
<g id="clust1" class="cluster">
<title>cluster_src</title>
<path fill="#ffffff" stroke="black" stroke-width="2" d="M20,-8C20,-8 522,-8 522,-8 528,-8 534,-14 534,-20 534,-20 534,-338 534,-338 534,-344 528,-350 522,-350 522,-350 20,-350 20,-350 14,-350 8,-344 8,-338 8,-338 8,-20 8,-20 8,-14 14,-8 20,-8"/>
<text text-anchor="middle" x="271" y="-338.8" font-family="Helvetica,sans-Serif" font-weight="bold" font-size="9.00">src</text>
</g>
<g id="clust2" class="cluster">
<title>cluster_src/app</title>
<path fill="#ffffff" stroke="black" stroke-width="2" d="M28,-16C28,-16 514,-16 514,-16 520,-16 526,-22 526,-28 526,-28 526,-312 526,-312 526,-318 520,-324 514,-324 514,-324 28,-324 28,-324 22,-324 16,-318 16,-312 16,-312 16,-28 16,-28 16,-22 22,-16 28,-16"/>
<text text-anchor="middle" x="271" y="-312.8" font-family="Helvetica,sans-Serif" font-weight="bold" font-size="9.00">app</text>
</g>
<g id="clust3" class="cluster">
<title>cluster_src/app/auth</title>
<path fill="#ffffff" stroke="black" stroke-width="2" d="M121,-126C121,-126 344,-126 344,-126 350,-126 356,-132 356,-138 356,-138 356,-200 356,-200 356,-206 350,-212 344,-212 344,-212 121,-212 121,-212 115,-212 109,-206 109,-200 109,-200 109,-138 109,-138 109,-132 115,-126 121,-126"/>
<text text-anchor="middle" x="232.5" y="-200.8" font-family="Helvetica,sans-Serif" font-weight="bold" font-size="9.00">auth</text>
</g>
<g id="clust4" class="cluster">
<title>cluster_src/app/auth/request&#45;password&#45;reset&#45;email</title>
<path fill="#ffffff" stroke="black" stroke-width="2" d="M129,-134C129,-134 336,-134 336,-134 342,-134 348,-140 348,-146 348,-146 348,-174 348,-174 348,-180 342,-186 336,-186 336,-186 129,-186 129,-186 123,-186 117,-180 117,-174 117,-174 117,-146 117,-146 117,-140 123,-134 129,-134"/>
<text text-anchor="middle" x="232.5" y="-174.8" font-family="Helvetica,sans-Serif" font-weight="bold" font-size="9.00">request&#45;password&#45;reset&#45;email</text>
</g>
<g id="clust5" class="cluster">
<title>cluster_src/app/shared</title>
<path fill="#ffffff" stroke="black" stroke-width="2" d="M376,-24C376,-24 506,-24 506,-24 512,-24 518,-30 518,-36 518,-36 518,-286 518,-286 518,-292 512,-298 506,-298 506,-298 376,-298 376,-298 370,-298 364,-292 364,-286 364,-286 364,-36 364,-36 364,-30 370,-24 376,-24"/>
<text text-anchor="middle" x="441" y="-286.8" font-family="Helvetica,sans-Serif" font-weight="bold" font-size="9.00">shared</text>
</g>
<g id="clust6" class="cluster">
<title>cluster_src/app/shared/services</title>
<path fill="#ffffff" stroke="black" stroke-width="2" d="M385.5,-126C385.5,-126 496.5,-126 496.5,-126 502.5,-126 508.5,-132 508.5,-138 508.5,-138 508.5,-260 508.5,-260 508.5,-266 502.5,-272 496.5,-272 496.5,-272 385.5,-272 385.5,-272 379.5,-272 373.5,-266 373.5,-260 373.5,-260 373.5,-138 373.5,-138 373.5,-132 379.5,-126 385.5,-126"/>
<text text-anchor="middle" x="441" y="-260.8" font-family="Helvetica,sans-Serif" font-weight="bold" font-size="9.00">services</text>
</g>
<g id="clust7" class="cluster">
<title>cluster_src/app/shared/services/auth</title>
<path fill="#ffffff" stroke="black" stroke-width="2" d="M403.5,-194C403.5,-194 478.5,-194 478.5,-194 484.5,-194 490.5,-200 490.5,-206 490.5,-206 490.5,-234 490.5,-234 490.5,-240 484.5,-246 478.5,-246 478.5,-246 403.5,-246 403.5,-246 397.5,-246 391.5,-240 391.5,-234 391.5,-234 391.5,-206 391.5,-206 391.5,-200 397.5,-194 403.5,-194"/>
<text text-anchor="middle" x="441" y="-234.8" font-family="Helvetica,sans-Serif" font-weight="bold" font-size="9.00">auth</text>
</g>
<g id="clust8" class="cluster">
<title>cluster_src/app/shared/services/snackbar</title>
<path fill="#ffffff" stroke="black" stroke-width="2" d="M393.5,-134C393.5,-134 488.5,-134 488.5,-134 494.5,-134 500.5,-140 500.5,-146 500.5,-146 500.5,-174 500.5,-174 500.5,-180 494.5,-186 488.5,-186 488.5,-186 393.5,-186 393.5,-186 387.5,-186 381.5,-180 381.5,-174 381.5,-174 381.5,-146 381.5,-146 381.5,-140 387.5,-134 393.5,-134"/>
<text text-anchor="middle" x="441" y="-174.8" font-family="Helvetica,sans-Serif" font-weight="bold" font-size="9.00">snackbar</text>
</g>
<g id="clust9" class="cluster">
<title>cluster_src/app/shared/utils</title>
<path fill="#ffffff" stroke="black" stroke-width="2" d="M384,-32C384,-32 498,-32 498,-32 504,-32 510,-38 510,-44 510,-44 510,-106 510,-106 510,-112 504,-118 498,-118 498,-118 384,-118 384,-118 378,-118 372,-112 372,-106 372,-106 372,-44 372,-44 372,-38 378,-32 384,-32"/>
<text text-anchor="middle" x="441" y="-106.8" font-family="Helvetica,sans-Serif" font-weight="bold" font-size="9.00">utils</text>
</g>
<g id="clust10" class="cluster">
<title>cluster_src/app/shared/utils/formErrorHandler</title>
<path fill="#ffffff" stroke="black" stroke-width="2" d="M392,-40C392,-40 490,-40 490,-40 496,-40 502,-46 502,-52 502,-52 502,-80 502,-80 502,-86 496,-92 490,-92 490,-92 392,-92 392,-92 386,-92 380,-86 380,-80 380,-80 380,-52 380,-52 380,-46 386,-40 392,-40"/>
<text text-anchor="middle" x="441" y="-80.8" font-family="Helvetica,sans-Serif" font-weight="bold" font-size="9.00">formErrorHandler</text>
</g>
<!-- src/app/app.routes.ts -->
<g id="node1" class="node">
<title>src/app/app.routes.ts</title>
<g id="a_node1"><a xlink:href="src/app/app.routes.ts" xlink:title="app.routes.ts">
<path fill="#ddfeff" stroke="black" d="M95,-160C95,-160 30,-160 30,-160 27,-160 24,-157 24,-154 24,-154 24,-148 24,-148 24,-145 27,-142 30,-142 30,-142 95,-142 95,-142 98,-142 101,-145 101,-148 101,-148 101,-154 101,-154 101,-157 98,-160 95,-160"/>
<text text-anchor="start" x="32" y="-148.8" font-family="Helvetica,sans-Serif" font-size="9.00">app.routes.ts</text>
</a>
</g>
</g>
<!-- src/app/auth/request&#45;password&#45;reset&#45;email/request&#45;password&#45;reset&#45;email.component.ts -->
<g id="node2" class="node">
<title>src/app/auth/request&#45;password&#45;reset&#45;email/request&#45;password&#45;reset&#45;email.component.ts</title>
<g id="a_node2"><a xlink:href="src/app/auth/request-password-reset-email/request-password-reset-email.component.ts" xlink:title="request&#45;password&#45;reset&#45;email.component.ts">
<path fill="#ddfeff" stroke="black" d="M334,-160C334,-160 131,-160 131,-160 128,-160 125,-157 125,-154 125,-154 125,-148 125,-148 125,-145 128,-142 131,-142 131,-142 334,-142 334,-142 337,-142 340,-145 340,-148 340,-148 340,-154 340,-154 340,-157 337,-160 334,-160"/>
<text text-anchor="start" x="133" y="-148.8" font-family="Helvetica,sans-Serif" font-size="9.00">request&#45;password&#45;reset&#45;email.component.ts</text>
</a>
</g>
</g>
<!-- src/app/app.routes.ts&#45;&gt;src/app/auth/request&#45;password&#45;reset&#45;email/request&#45;password&#45;reset&#45;email.component.ts -->
<g id="edge1" class="edge">
<title>src/app/app.routes.ts&#45;&gt;src/app/auth/request&#45;password&#45;reset&#45;email/request&#45;password&#45;reset&#45;email.component.ts</title>
<path fill="none" stroke="#000000" stroke-width="2" stroke-dasharray="5,2" stroke-opacity="0.200000" d="M101.2,-151C106.72,-151 112.62,-151 118.75,-151"/>
<polygon fill="#000000" fill-opacity="0.200000" stroke="#000000" stroke-width="2" stroke-opacity="0.200000" points="118.96,-153.1 124.96,-151 118.96,-148.9 118.96,-153.1"/>
</g>
<!-- src/app/shared/services/auth/auth.service.ts -->
<g id="node3" class="node">
<title>src/app/shared/services/auth/auth.service.ts</title>
<g id="a_node3"><a xlink:href="src/app/shared/services/auth/auth.service.ts" xlink:title="auth.service.ts">
<path fill="#ddfeff" stroke="black" d="M476.5,-220C476.5,-220 405.5,-220 405.5,-220 402.5,-220 399.5,-217 399.5,-214 399.5,-214 399.5,-208 399.5,-208 399.5,-205 402.5,-202 405.5,-202 405.5,-202 476.5,-202 476.5,-202 479.5,-202 482.5,-205 482.5,-208 482.5,-208 482.5,-214 482.5,-214 482.5,-217 479.5,-220 476.5,-220"/>
<text text-anchor="start" x="407.5" y="-208.8" font-family="Helvetica,sans-Serif" font-size="9.00">auth.service.ts</text>
</a>
</g>
</g>
<!-- src/app/auth/request&#45;password&#45;reset&#45;email/request&#45;password&#45;reset&#45;email.component.ts&#45;&gt;src/app/shared/services/auth/auth.service.ts -->
<g id="edge2" class="edge">
<title>src/app/auth/request&#45;password&#45;reset&#45;email/request&#45;password&#45;reset&#45;email.component.ts&#45;&gt;src/app/shared/services/auth/auth.service.ts</title>
<path fill="none" stroke="#000000" stroke-width="2" stroke-opacity="0.200000" d="M264.61,-160.07C291.05,-167.78 330.01,-179.13 364,-189 376.58,-192.65 390.34,-196.64 402.65,-200.2"/>
<polygon fill="#000000" fill-opacity="0.200000" stroke="#000000" stroke-width="2" stroke-opacity="0.200000" points="402.22,-202.26 408.57,-201.91 403.39,-198.23 402.22,-202.26"/>
</g>
<!-- src/app/shared/services/snackbar/snackbar.service.ts -->
<g id="node4" class="node">
<title>src/app/shared/services/snackbar/snackbar.service.ts</title>
<g id="a_node4"><a xlink:href="src/app/shared/services/snackbar/snackbar.service.ts" xlink:title="snackbar.service.ts">
<path fill="#ddfeff" stroke="black" d="M486.5,-160C486.5,-160 395.5,-160 395.5,-160 392.5,-160 389.5,-157 389.5,-154 389.5,-154 389.5,-148 389.5,-148 389.5,-145 392.5,-142 395.5,-142 395.5,-142 486.5,-142 486.5,-142 489.5,-142 492.5,-145 492.5,-148 492.5,-148 492.5,-154 492.5,-154 492.5,-157 489.5,-160 486.5,-160"/>
<text text-anchor="start" x="397.5" y="-148.8" font-family="Helvetica,sans-Serif" font-size="9.00">snackbar.service.ts</text>
</a>
</g>
</g>
<!-- src/app/auth/request&#45;password&#45;reset&#45;email/request&#45;password&#45;reset&#45;email.component.ts&#45;&gt;src/app/shared/services/snackbar/snackbar.service.ts -->
<g id="edge3" class="edge">
<title>src/app/auth/request&#45;password&#45;reset&#45;email/request&#45;password&#45;reset&#45;email.component.ts&#45;&gt;src/app/shared/services/snackbar/snackbar.service.ts</title>
<path fill="none" stroke="#000000" stroke-width="2" stroke-opacity="0.200000" d="M340.08,-151C354.96,-151 369.75,-151 383.2,-151"/>
<polygon fill="#000000" fill-opacity="0.200000" stroke="#000000" stroke-width="2" stroke-opacity="0.200000" points="383.29,-153.1 389.29,-151 383.29,-148.9 383.29,-153.1"/>
</g>
<!-- src/app/shared/utils/formErrorHandler/formErrorHandler.ts -->
<g id="node5" class="node">
<title>src/app/shared/utils/formErrorHandler/formErrorHandler.ts</title>
<g id="a_node5"><a xlink:href="src/app/shared/utils/formErrorHandler/formErrorHandler.ts" xlink:title="formErrorHandler.ts">
<path fill="#ddfeff" stroke="black" d="M488,-66C488,-66 394,-66 394,-66 391,-66 388,-63 388,-60 388,-60 388,-54 388,-54 388,-51 391,-48 394,-48 394,-48 488,-48 488,-48 491,-48 494,-51 494,-54 494,-54 494,-60 494,-60 494,-63 491,-66 488,-66"/>
<text text-anchor="start" x="396" y="-54.8" font-family="Helvetica,sans-Serif" font-size="9.00">formErrorHandler.ts</text>
</a>
</g>
</g>
<!-- src/app/auth/request&#45;password&#45;reset&#45;email/request&#45;password&#45;reset&#45;email.component.ts&#45;&gt;src/app/shared/utils/formErrorHandler/formErrorHandler.ts -->
<g id="edge4" class="edge">
<title>src/app/auth/request&#45;password&#45;reset&#45;email/request&#45;password&#45;reset&#45;email.component.ts&#45;&gt;src/app/shared/utils/formErrorHandler/formErrorHandler.ts</title>
<path fill="none" stroke="#000000" stroke-width="2" stroke-opacity="0.200000" d="M253.3,-141.99C290.9,-124.87 372.6,-87.68 414.34,-68.68"/>
<polygon fill="#000000" fill-opacity="0.200000" stroke="#000000" stroke-width="2" stroke-opacity="0.200000" points="415.37,-70.52 419.96,-66.12 413.63,-66.7 415.37,-70.52"/>
</g>
</g>
</svg>
