<?xml version="1.0" encoding="UTF-8" standalone="no"?>
<!DOCTYPE svg PUBLIC "-//W3C//DTD SVG 1.1//EN"
 "http://www.w3.org/Graphics/SVG/1.1/DTD/svg11.dtd">
<!-- Generated by graphviz version 2.43.0 (0)
 -->
<!-- Title: dependency&#45;cruiser output Pages: 1 -->
<svg width="439pt" height="212pt"
 viewBox="0.00 0.00 439.00 212.00" xmlns="http://www.w3.org/2000/svg" xmlns:xlink="http://www.w3.org/1999/xlink">
<g id="graph0" class="graph" transform="scale(1 1) rotate(0) translate(4 208)">
<title>dependency&#45;cruiser output</title>
<polygon fill="white" stroke="transparent" points="-4,4 -4,-208 435,-208 435,4 -4,4"/>
<g id="clust1" class="cluster">
<title>cluster_src</title>
<path fill="#ffffff" stroke="black" stroke-width="2" d="M20,-8C20,-8 411,-8 411,-8 417,-8 423,-14 423,-20 423,-20 423,-184 423,-184 423,-190 417,-196 411,-196 411,-196 20,-196 20,-196 14,-196 8,-190 8,-184 8,-184 8,-20 8,-20 8,-14 14,-8 20,-8"/>
<text text-anchor="middle" x="215.5" y="-184.8" font-family="Helvetica,sans-Serif" font-weight="bold" font-size="9.00">src</text>
</g>
<g id="clust2" class="cluster">
<title>cluster_src/app</title>
<path fill="#ffffff" stroke="black" stroke-width="2" d="M28,-16C28,-16 403,-16 403,-16 409,-16 415,-22 415,-28 415,-28 415,-158 415,-158 415,-164 409,-170 403,-170 403,-170 28,-170 28,-170 22,-170 16,-164 16,-158 16,-158 16,-28 16,-28 16,-22 22,-16 28,-16"/>
<text text-anchor="middle" x="215.5" y="-158.8" font-family="Helvetica,sans-Serif" font-weight="bold" font-size="9.00">app</text>
</g>
<g id="clust3" class="cluster">
<title>cluster_src/app/auth</title>
<path fill="#ffffff" stroke="black" stroke-width="2" d="M121,-32C121,-32 256,-32 256,-32 262,-32 268,-38 268,-44 268,-44 268,-106 268,-106 268,-112 262,-118 256,-118 256,-118 121,-118 121,-118 115,-118 109,-112 109,-106 109,-106 109,-44 109,-44 109,-38 115,-32 121,-32"/>
<text text-anchor="middle" x="188.5" y="-106.8" font-family="Helvetica,sans-Serif" font-weight="bold" font-size="9.00">auth</text>
</g>
<g id="clust4" class="cluster">
<title>cluster_src/app/auth/not&#45;found</title>
<path fill="#ffffff" stroke="black" stroke-width="2" d="M129,-40C129,-40 248,-40 248,-40 254,-40 260,-46 260,-52 260,-52 260,-80 260,-80 260,-86 254,-92 248,-92 248,-92 129,-92 129,-92 123,-92 117,-86 117,-80 117,-80 117,-52 117,-52 117,-46 123,-40 129,-40"/>
<text text-anchor="middle" x="188.5" y="-80.8" font-family="Helvetica,sans-Serif" font-weight="bold" font-size="9.00">not&#45;found</text>
</g>
<g id="clust5" class="cluster">
<title>cluster_src/app/shared</title>
<path fill="#ffffff" stroke="black" stroke-width="2" d="M288,-24C288,-24 395,-24 395,-24 401,-24 407,-30 407,-36 407,-36 407,-132 407,-132 407,-138 401,-144 395,-144 395,-144 288,-144 288,-144 282,-144 276,-138 276,-132 276,-132 276,-36 276,-36 276,-30 282,-24 288,-24"/>
<text text-anchor="middle" x="341.5" y="-132.8" font-family="Helvetica,sans-Serif" font-weight="bold" font-size="9.00">shared</text>
</g>
<g id="clust6" class="cluster">
<title>cluster_src/app/shared/services</title>
<path fill="#ffffff" stroke="black" stroke-width="2" d="M296,-32C296,-32 387,-32 387,-32 393,-32 399,-38 399,-44 399,-44 399,-106 399,-106 399,-112 393,-118 387,-118 387,-118 296,-118 296,-118 290,-118 284,-112 284,-106 284,-106 284,-44 284,-44 284,-38 290,-32 296,-32"/>
<text text-anchor="middle" x="341.5" y="-106.8" font-family="Helvetica,sans-Serif" font-weight="bold" font-size="9.00">services</text>
</g>
<g id="clust7" class="cluster">
<title>cluster_src/app/shared/services/auth</title>
<path fill="#ffffff" stroke="black" stroke-width="2" d="M304,-40C304,-40 379,-40 379,-40 385,-40 391,-46 391,-52 391,-52 391,-80 391,-80 391,-86 385,-92 379,-92 379,-92 304,-92 304,-92 298,-92 292,-86 292,-80 292,-80 292,-52 292,-52 292,-46 298,-40 304,-40"/>
<text text-anchor="middle" x="341.5" y="-80.8" font-family="Helvetica,sans-Serif" font-weight="bold" font-size="9.00">auth</text>
</g>
<!-- src/app/app.routes.ts -->
<g id="node1" class="node">
<title>src/app/app.routes.ts</title>
<g id="a_node1"><a xlink:href="src/app/app.routes.ts" xlink:title="app.routes.ts">
<path fill="#ddfeff" stroke="black" d="M95,-66C95,-66 30,-66 30,-66 27,-66 24,-63 24,-60 24,-60 24,-54 24,-54 24,-51 27,-48 30,-48 30,-48 95,-48 95,-48 98,-48 101,-51 101,-54 101,-54 101,-60 101,-60 101,-63 98,-66 95,-66"/>
<text text-anchor="start" x="32" y="-54.8" font-family="Helvetica,sans-Serif" font-size="9.00">app.routes.ts</text>
</a>
</g>
</g>
<!-- src/app/auth/not&#45;found/not&#45;found.component.ts -->
<g id="node2" class="node">
<title>src/app/auth/not&#45;found/not&#45;found.component.ts</title>
<g id="a_node2"><a xlink:href="src/app/auth/not-found/not-found.component.ts" xlink:title="not&#45;found.component.ts">
<path fill="#ddfeff" stroke="black" d="M246,-66C246,-66 131,-66 131,-66 128,-66 125,-63 125,-60 125,-60 125,-54 125,-54 125,-51 128,-48 131,-48 131,-48 246,-48 246,-48 249,-48 252,-51 252,-54 252,-54 252,-60 252,-60 252,-63 249,-66 246,-66"/>
<text text-anchor="start" x="133" y="-54.8" font-family="Helvetica,sans-Serif" font-size="9.00">not&#45;found.component.ts</text>
</a>
</g>
</g>
<!-- src/app/app.routes.ts&#45;&gt;src/app/auth/not&#45;found/not&#45;found.component.ts -->
<g id="edge1" class="edge">
<title>src/app/app.routes.ts&#45;&gt;src/app/auth/not&#45;found/not&#45;found.component.ts</title>
<path fill="none" stroke="#000000" stroke-width="2" stroke-dasharray="5,2" stroke-opacity="0.200000" d="M101.04,-57C106.71,-57 112.7,-57 118.78,-57"/>
<polygon fill="#000000" fill-opacity="0.200000" stroke="#000000" stroke-width="2" stroke-opacity="0.200000" points="118.88,-59.1 124.88,-57 118.88,-54.9 118.88,-59.1"/>
</g>
<!-- src/app/shared/services/auth/auth.service.ts -->
<g id="node3" class="node">
<title>src/app/shared/services/auth/auth.service.ts</title>
<g id="a_node3"><a xlink:href="src/app/shared/services/auth/auth.service.ts" xlink:title="auth.service.ts">
<path fill="#ddfeff" stroke="black" d="M377,-66C377,-66 306,-66 306,-66 303,-66 300,-63 300,-60 300,-60 300,-54 300,-54 300,-51 303,-48 306,-48 306,-48 377,-48 377,-48 380,-48 383,-51 383,-54 383,-54 383,-60 383,-60 383,-63 380,-66 377,-66"/>
<text text-anchor="start" x="308" y="-54.8" font-family="Helvetica,sans-Serif" font-size="9.00">auth.service.ts</text>
</a>
</g>
</g>
<!-- src/app/auth/not&#45;found/not&#45;found.component.ts&#45;&gt;src/app/shared/services/auth/auth.service.ts -->
<g id="edge2" class="edge">
<title>src/app/auth/not&#45;found/not&#45;found.component.ts&#45;&gt;src/app/shared/services/auth/auth.service.ts</title>
<path fill="none" stroke="#000000" stroke-width="2" stroke-opacity="0.200000" d="M252.23,-57C266.01,-57 280.39,-57 293.43,-57"/>
<polygon fill="#000000" fill-opacity="0.200000" stroke="#000000" stroke-width="2" stroke-opacity="0.200000" points="293.72,-59.1 299.72,-57 293.72,-54.9 293.72,-59.1"/>
</g>
</g>
</svg>
