<?xml version="1.0" encoding="UTF-8" standalone="no"?>
<!DOCTYPE svg PUBLIC "-//W3C//DTD SVG 1.1//EN"
 "http://www.w3.org/Graphics/SVG/1.1/DTD/svg11.dtd">
<!-- Generated by graphviz version 2.43.0 (0)
 -->
<!-- Title: dependency&#45;cruiser output Pages: 1 -->
<svg width="361pt" height="392pt"
 viewBox="0.00 0.00 361.00 392.00" xmlns="http://www.w3.org/2000/svg" xmlns:xlink="http://www.w3.org/1999/xlink">
<g id="graph0" class="graph" transform="scale(1 1) rotate(0) translate(4 388)">
<title>dependency&#45;cruiser output</title>
<polygon fill="white" stroke="transparent" points="-4,4 -4,-388 357,-388 357,4 -4,4"/>
<g id="clust1" class="cluster">
<title>cluster_src</title>
<path fill="#ffffff" stroke="black" stroke-width="2" d="M20,-8C20,-8 333,-8 333,-8 339,-8 345,-14 345,-20 345,-20 345,-364 345,-364 345,-370 339,-376 333,-376 333,-376 20,-376 20,-376 14,-376 8,-370 8,-364 8,-364 8,-20 8,-20 8,-14 14,-8 20,-8"/>
<text text-anchor="middle" x="176.5" y="-364.8" font-family="Helvetica,sans-Serif" font-weight="bold" font-size="9.00">src</text>
</g>
<g id="clust2" class="cluster">
<title>cluster_src/app</title>
<path fill="#ffffff" stroke="black" stroke-width="2" d="M28,-16C28,-16 325,-16 325,-16 331,-16 337,-22 337,-28 337,-28 337,-338 337,-338 337,-344 331,-350 325,-350 325,-350 28,-350 28,-350 22,-350 16,-344 16,-338 16,-338 16,-28 16,-28 16,-22 22,-16 28,-16"/>
<text text-anchor="middle" x="176.5" y="-338.8" font-family="Helvetica,sans-Serif" font-weight="bold" font-size="9.00">app</text>
</g>
<g id="clust3" class="cluster">
<title>cluster_src/app/main</title>
<path fill="#ffffff" stroke="black" stroke-width="2" d="M36,-24C36,-24 175,-24 175,-24 181,-24 187,-30 187,-36 187,-36 187,-312 187,-312 187,-318 181,-324 175,-324 175,-324 36,-324 36,-324 30,-324 24,-318 24,-312 24,-312 24,-36 24,-36 24,-30 30,-24 36,-24"/>
<text text-anchor="middle" x="105.5" y="-312.8" font-family="Helvetica,sans-Serif" font-weight="bold" font-size="9.00">main</text>
</g>
<g id="clust4" class="cluster">
<title>cluster_src/app/main/home</title>
<path fill="#ffffff" stroke="black" stroke-width="2" d="M44,-32C44,-32 167,-32 167,-32 173,-32 179,-38 179,-44 179,-44 179,-286 179,-286 179,-292 173,-298 167,-298 167,-298 44,-298 44,-298 38,-298 32,-292 32,-286 32,-286 32,-44 32,-44 32,-38 38,-32 44,-32"/>
<text text-anchor="middle" x="105.5" y="-286.8" font-family="Helvetica,sans-Serif" font-weight="bold" font-size="9.00">home</text>
</g>
<g id="clust5" class="cluster">
<title>cluster_src/app/main/home/end</title>
<path fill="#ffffff" stroke="black" stroke-width="2" d="M59.5,-220C59.5,-220 151.5,-220 151.5,-220 157.5,-220 163.5,-226 163.5,-232 163.5,-232 163.5,-260 163.5,-260 163.5,-266 157.5,-272 151.5,-272 151.5,-272 59.5,-272 59.5,-272 53.5,-272 47.5,-266 47.5,-260 47.5,-260 47.5,-232 47.5,-232 47.5,-226 53.5,-220 59.5,-220"/>
<text text-anchor="middle" x="105.5" y="-260.8" font-family="Helvetica,sans-Serif" font-weight="bold" font-size="9.00">end</text>
</g>
<g id="clust6" class="cluster">
<title>cluster_src/app/main/home/feature</title>
<path fill="#ffffff" stroke="black" stroke-width="2" d="M52,-160C52,-160 159,-160 159,-160 165,-160 171,-166 171,-172 171,-172 171,-200 171,-200 171,-206 165,-212 159,-212 159,-212 52,-212 52,-212 46,-212 40,-206 40,-200 40,-200 40,-172 40,-172 40,-166 46,-160 52,-160"/>
<text text-anchor="middle" x="105.5" y="-200.8" font-family="Helvetica,sans-Serif" font-weight="bold" font-size="9.00">feature</text>
</g>
<g id="clust7" class="cluster">
<title>cluster_src/app/main/home/hero</title>
<path fill="#ffffff" stroke="black" stroke-width="2" d="M58,-100C58,-100 153,-100 153,-100 159,-100 165,-106 165,-112 165,-112 165,-140 165,-140 165,-146 159,-152 153,-152 153,-152 58,-152 58,-152 52,-152 46,-146 46,-140 46,-140 46,-112 46,-112 46,-106 52,-100 58,-100"/>
<text text-anchor="middle" x="105.5" y="-140.8" font-family="Helvetica,sans-Serif" font-weight="bold" font-size="9.00">hero</text>
</g>
<g id="clust8" class="cluster">
<title>cluster_src/app/main/home/stats</title>
<path fill="#ffffff" stroke="black" stroke-width="2" d="M57.5,-40C57.5,-40 153.5,-40 153.5,-40 159.5,-40 165.5,-46 165.5,-52 165.5,-52 165.5,-80 165.5,-80 165.5,-86 159.5,-92 153.5,-92 153.5,-92 57.5,-92 57.5,-92 51.5,-92 45.5,-86 45.5,-80 45.5,-80 45.5,-52 45.5,-52 45.5,-46 51.5,-40 57.5,-40"/>
<text text-anchor="middle" x="105.5" y="-80.8" font-family="Helvetica,sans-Serif" font-weight="bold" font-size="9.00">stats</text>
</g>
<g id="clust9" class="cluster">
<title>cluster_src/app/shared</title>
<path fill="#ffffff" stroke="black" stroke-width="2" d="M207,-114C207,-114 317,-114 317,-114 323,-114 329,-120 329,-126 329,-126 329,-222 329,-222 329,-228 323,-234 317,-234 317,-234 207,-234 207,-234 201,-234 195,-228 195,-222 195,-222 195,-126 195,-126 195,-120 201,-114 207,-114"/>
<text text-anchor="middle" x="262" y="-222.8" font-family="Helvetica,sans-Serif" font-weight="bold" font-size="9.00">shared</text>
</g>
<g id="clust10" class="cluster">
<title>cluster_src/app/shared/services</title>
<path fill="#ffffff" stroke="black" stroke-width="2" d="M215,-122C215,-122 309,-122 309,-122 315,-122 321,-128 321,-134 321,-134 321,-196 321,-196 321,-202 315,-208 309,-208 309,-208 215,-208 215,-208 209,-208 203,-202 203,-196 203,-196 203,-134 203,-134 203,-128 209,-122 215,-122"/>
<text text-anchor="middle" x="262" y="-196.8" font-family="Helvetica,sans-Serif" font-weight="bold" font-size="9.00">services</text>
</g>
<g id="clust11" class="cluster">
<title>cluster_src/app/shared/services/scroll</title>
<path fill="#ffffff" stroke="black" stroke-width="2" d="M223,-130C223,-130 301,-130 301,-130 307,-130 313,-136 313,-142 313,-142 313,-170 313,-170 313,-176 307,-182 301,-182 301,-182 223,-182 223,-182 217,-182 211,-176 211,-170 211,-170 211,-142 211,-142 211,-136 217,-130 223,-130"/>
<text text-anchor="middle" x="262" y="-170.8" font-family="Helvetica,sans-Serif" font-weight="bold" font-size="9.00">scroll</text>
</g>
<!-- src/app/main/home/end/end.component.ts -->
<g id="node1" class="node">
<title>src/app/main/home/end/end.component.ts</title>
<g id="a_node1"><a xlink:href="src/app/main/home/end/end.component.ts" xlink:title="end.component.ts">
<path fill="#ddfeff" stroke="black" d="M149.5,-246C149.5,-246 61.5,-246 61.5,-246 58.5,-246 55.5,-243 55.5,-240 55.5,-240 55.5,-234 55.5,-234 55.5,-231 58.5,-228 61.5,-228 61.5,-228 149.5,-228 149.5,-228 152.5,-228 155.5,-231 155.5,-234 155.5,-234 155.5,-240 155.5,-240 155.5,-243 152.5,-246 149.5,-246"/>
<text text-anchor="start" x="63.5" y="-234.8" font-family="Helvetica,sans-Serif" font-size="9.00">end.component.ts</text>
</a>
</g>
</g>
<!-- src/app/shared/services/scroll/scroll.service.ts -->
<g id="node2" class="node">
<title>src/app/shared/services/scroll/scroll.service.ts</title>
<g id="a_node2"><a xlink:href="src/app/shared/services/scroll/scroll.service.ts" xlink:title="scroll.service.ts">
<path fill="#ddfeff" stroke="black" d="M299,-156C299,-156 225,-156 225,-156 222,-156 219,-153 219,-150 219,-150 219,-144 219,-144 219,-141 222,-138 225,-138 225,-138 299,-138 299,-138 302,-138 305,-141 305,-144 305,-144 305,-150 305,-150 305,-153 302,-156 299,-156"/>
<text text-anchor="start" x="227" y="-144.8" font-family="Helvetica,sans-Serif" font-size="9.00">scroll.service.ts</text>
</a>
</g>
</g>
<!-- src/app/main/home/end/end.component.ts&#45;&gt;src/app/shared/services/scroll/scroll.service.ts -->
<g id="edge1" class="edge">
<title>src/app/main/home/end/end.component.ts&#45;&gt;src/app/shared/services/scroll/scroll.service.ts</title>
<path fill="none" stroke="#000000" stroke-width="2" stroke-opacity="0.200000" d="M154.37,-227.93C165.48,-224.75 176.98,-220.54 187,-215 212.24,-201.05 235.74,-176.76 249.22,-161.3"/>
<polygon fill="#000000" fill-opacity="0.200000" stroke="#000000" stroke-width="2" stroke-opacity="0.200000" points="251.09,-162.35 253.4,-156.43 247.9,-159.62 251.09,-162.35"/>
</g>
<!-- src/app/main/home/feature/feature.component.ts -->
<g id="node3" class="node">
<title>src/app/main/home/feature/feature.component.ts</title>
<g id="a_node3"><a xlink:href="src/app/main/home/feature/feature.component.ts" xlink:title="feature.component.ts">
<path fill="#ddfeff" stroke="black" d="M157,-186C157,-186 54,-186 54,-186 51,-186 48,-183 48,-180 48,-180 48,-174 48,-174 48,-171 51,-168 54,-168 54,-168 157,-168 157,-168 160,-168 163,-171 163,-174 163,-174 163,-180 163,-180 163,-183 160,-186 157,-186"/>
<text text-anchor="start" x="56" y="-174.8" font-family="Helvetica,sans-Serif" font-size="9.00">feature.component.ts</text>
</a>
</g>
</g>
<!-- src/app/main/home/feature/feature.component.ts&#45;&gt;src/app/shared/services/scroll/scroll.service.ts -->
<g id="edge2" class="edge">
<title>src/app/main/home/feature/feature.component.ts&#45;&gt;src/app/shared/services/scroll/scroll.service.ts</title>
<path fill="none" stroke="#000000" stroke-width="2" stroke-opacity="0.200000" d="M152.86,-168C171.7,-164.34 193.48,-160.11 212.54,-156.41"/>
<polygon fill="#000000" fill-opacity="0.200000" stroke="#000000" stroke-width="2" stroke-opacity="0.200000" points="213.4,-158.38 218.89,-155.18 212.6,-154.26 213.4,-158.38"/>
</g>
<!-- src/app/main/home/hero/hero.component.ts -->
<g id="node4" class="node">
<title>src/app/main/home/hero/hero.component.ts</title>
<g id="a_node4"><a xlink:href="src/app/main/home/hero/hero.component.ts" xlink:title="hero.component.ts">
<path fill="#ddfeff" stroke="black" d="M151,-126C151,-126 60,-126 60,-126 57,-126 54,-123 54,-120 54,-120 54,-114 54,-114 54,-111 57,-108 60,-108 60,-108 151,-108 151,-108 154,-108 157,-111 157,-114 157,-114 157,-120 157,-120 157,-123 154,-126 151,-126"/>
<text text-anchor="start" x="62" y="-114.8" font-family="Helvetica,sans-Serif" font-size="9.00">hero.component.ts</text>
</a>
</g>
</g>
<!-- src/app/main/home/hero/hero.component.ts&#45;&gt;src/app/shared/services/scroll/scroll.service.ts -->
<g id="edge3" class="edge">
<title>src/app/main/home/hero/hero.component.ts&#45;&gt;src/app/shared/services/scroll/scroll.service.ts</title>
<path fill="none" stroke="#000000" stroke-width="2" stroke-opacity="0.200000" d="M152.86,-126C171.7,-129.66 193.48,-133.89 212.54,-137.59"/>
<polygon fill="#000000" fill-opacity="0.200000" stroke="#000000" stroke-width="2" stroke-opacity="0.200000" points="212.6,-139.74 218.89,-138.82 213.4,-135.62 212.6,-139.74"/>
</g>
<!-- src/app/main/home/stats/stats.component.ts -->
<g id="node5" class="node">
<title>src/app/main/home/stats/stats.component.ts</title>
<g id="a_node5"><a xlink:href="src/app/main/home/stats/stats.component.ts" xlink:title="stats.component.ts">
<path fill="#ddfeff" stroke="black" d="M151.5,-66C151.5,-66 59.5,-66 59.5,-66 56.5,-66 53.5,-63 53.5,-60 53.5,-60 53.5,-54 53.5,-54 53.5,-51 56.5,-48 59.5,-48 59.5,-48 151.5,-48 151.5,-48 154.5,-48 157.5,-51 157.5,-54 157.5,-54 157.5,-60 157.5,-60 157.5,-63 154.5,-66 151.5,-66"/>
<text text-anchor="start" x="61.5" y="-54.8" font-family="Helvetica,sans-Serif" font-size="9.00">stats.component.ts</text>
</a>
</g>
</g>
<!-- src/app/main/home/stats/stats.component.ts&#45;&gt;src/app/shared/services/scroll/scroll.service.ts -->
<g id="edge4" class="edge">
<title>src/app/main/home/stats/stats.component.ts&#45;&gt;src/app/shared/services/scroll/scroll.service.ts</title>
<path fill="none" stroke="#000000" stroke-width="2" stroke-opacity="0.200000" d="M126.74,-66.14C143.26,-73.82 167.04,-85.37 187,-97 207.04,-108.68 228.94,-123.79 243.67,-134.33"/>
<polygon fill="#000000" fill-opacity="0.200000" stroke="#000000" stroke-width="2" stroke-opacity="0.200000" points="242.66,-136.19 248.76,-137.99 245.11,-132.78 242.66,-136.19"/>
</g>
</g>
</svg>
