<?xml version="1.0" encoding="UTF-8" standalone="no"?>
<!DOCTYPE svg PUBLIC "-//W3C//DTD SVG 1.1//EN"
 "http://www.w3.org/Graphics/SVG/1.1/DTD/svg11.dtd">
<!-- Generated by graphviz version 2.43.0 (0)
 -->
<!-- Title: dependency&#45;cruiser output Pages: 1 -->
<svg width="591pt" height="332pt"
 viewBox="0.00 0.00 591.00 332.00" xmlns="http://www.w3.org/2000/svg" xmlns:xlink="http://www.w3.org/1999/xlink">
<g id="graph0" class="graph" transform="scale(1 1) rotate(0) translate(4 328)">
<title>dependency&#45;cruiser output</title>
<polygon fill="white" stroke="transparent" points="-4,4 -4,-328 587,-328 587,4 -4,4"/>
<g id="clust1" class="cluster">
<title>cluster_src</title>
<path fill="#ffffff" stroke="black" stroke-width="2" d="M20,-8C20,-8 563,-8 563,-8 569,-8 575,-14 575,-20 575,-20 575,-304 575,-304 575,-310 569,-316 563,-316 563,-316 20,-316 20,-316 14,-316 8,-310 8,-304 8,-304 8,-20 8,-20 8,-14 14,-8 20,-8"/>
<text text-anchor="middle" x="291.5" y="-304.8" font-family="Helvetica,sans-Serif" font-weight="bold" font-size="9.00">src</text>
</g>
<g id="clust2" class="cluster">
<title>cluster_src/app</title>
<path fill="#ffffff" stroke="black" stroke-width="2" d="M28,-16C28,-16 555,-16 555,-16 561,-16 567,-22 567,-28 567,-28 567,-278 567,-278 567,-284 561,-290 555,-290 555,-290 28,-290 28,-290 22,-290 16,-284 16,-278 16,-278 16,-28 16,-28 16,-22 22,-16 28,-16"/>
<text text-anchor="middle" x="291.5" y="-278.8" font-family="Helvetica,sans-Serif" font-weight="bold" font-size="9.00">app</text>
</g>
<g id="clust3" class="cluster">
<title>cluster_src/app/auth</title>
<path fill="#ffffff" stroke="black" stroke-width="2" d="M121,-152C121,-152 242,-152 242,-152 248,-152 254,-158 254,-164 254,-164 254,-226 254,-226 254,-232 248,-238 242,-238 242,-238 121,-238 121,-238 115,-238 109,-232 109,-226 109,-226 109,-164 109,-164 109,-158 115,-152 121,-152"/>
<text text-anchor="middle" x="181.5" y="-226.8" font-family="Helvetica,sans-Serif" font-weight="bold" font-size="9.00">auth</text>
</g>
<g id="clust4" class="cluster">
<title>cluster_src/app/auth/signup</title>
<path fill="#ffffff" stroke="black" stroke-width="2" d="M129,-160C129,-160 234,-160 234,-160 240,-160 246,-166 246,-172 246,-172 246,-200 246,-200 246,-206 240,-212 234,-212 234,-212 129,-212 129,-212 123,-212 117,-206 117,-200 117,-200 117,-172 117,-172 117,-166 123,-160 129,-160"/>
<text text-anchor="middle" x="181.5" y="-200.8" font-family="Helvetica,sans-Serif" font-weight="bold" font-size="9.00">signup</text>
</g>
<g id="clust5" class="cluster">
<title>cluster_src/app/shared</title>
<path fill="#ffffff" stroke="black" stroke-width="2" d="M274,-24C274,-24 547,-24 547,-24 553,-24 559,-30 559,-36 559,-36 559,-252 559,-252 559,-258 553,-264 547,-264 547,-264 274,-264 274,-264 268,-264 262,-258 262,-252 262,-252 262,-36 262,-36 262,-30 268,-24 274,-24"/>
<text text-anchor="middle" x="410.5" y="-252.8" font-family="Helvetica,sans-Serif" font-weight="bold" font-size="9.00">shared</text>
</g>
<g id="clust6" class="cluster">
<title>cluster_src/app/shared/services</title>
<path fill="#ffffff" stroke="black" stroke-width="2" d="M282,-92C282,-92 393,-92 393,-92 399,-92 405,-98 405,-104 405,-104 405,-226 405,-226 405,-232 399,-238 393,-238 393,-238 282,-238 282,-238 276,-238 270,-232 270,-226 270,-226 270,-104 270,-104 270,-98 276,-92 282,-92"/>
<text text-anchor="middle" x="337.5" y="-226.8" font-family="Helvetica,sans-Serif" font-weight="bold" font-size="9.00">services</text>
</g>
<g id="clust7" class="cluster">
<title>cluster_src/app/shared/services/auth</title>
<path fill="#ffffff" stroke="black" stroke-width="2" d="M300,-160C300,-160 375,-160 375,-160 381,-160 387,-166 387,-172 387,-172 387,-200 387,-200 387,-206 381,-212 375,-212 375,-212 300,-212 300,-212 294,-212 288,-206 288,-200 288,-200 288,-172 288,-172 288,-166 294,-160 300,-160"/>
<text text-anchor="middle" x="337.5" y="-200.8" font-family="Helvetica,sans-Serif" font-weight="bold" font-size="9.00">auth</text>
</g>
<g id="clust8" class="cluster">
<title>cluster_src/app/shared/services/snackbar</title>
<path fill="#ffffff" stroke="black" stroke-width="2" d="M290,-100C290,-100 385,-100 385,-100 391,-100 397,-106 397,-112 397,-112 397,-140 397,-140 397,-146 391,-152 385,-152 385,-152 290,-152 290,-152 284,-152 278,-146 278,-140 278,-140 278,-112 278,-112 278,-106 284,-100 290,-100"/>
<text text-anchor="middle" x="337.5" y="-140.8" font-family="Helvetica,sans-Serif" font-weight="bold" font-size="9.00">snackbar</text>
</g>
<g id="clust9" class="cluster">
<title>cluster_src/app/shared/utils</title>
<path fill="#ffffff" stroke="black" stroke-width="2" d="M425,-92C425,-92 539,-92 539,-92 545,-92 551,-98 551,-104 551,-104 551,-226 551,-226 551,-232 545,-238 539,-238 539,-238 425,-238 425,-238 419,-238 413,-232 413,-226 413,-226 413,-104 413,-104 413,-98 419,-92 425,-92"/>
<text text-anchor="middle" x="482" y="-226.8" font-family="Helvetica,sans-Serif" font-weight="bold" font-size="9.00">utils</text>
</g>
<g id="clust10" class="cluster">
<title>cluster_src/app/shared/utils/formErrorHandler</title>
<path fill="#ffffff" stroke="black" stroke-width="2" d="M433,-160C433,-160 531,-160 531,-160 537,-160 543,-166 543,-172 543,-172 543,-200 543,-200 543,-206 537,-212 531,-212 531,-212 433,-212 433,-212 427,-212 421,-206 421,-200 421,-200 421,-172 421,-172 421,-166 427,-160 433,-160"/>
<text text-anchor="middle" x="482" y="-200.8" font-family="Helvetica,sans-Serif" font-weight="bold" font-size="9.00">formErrorHandler</text>
</g>
<g id="clust11" class="cluster">
<title>cluster_src/app/shared/utils/jwtDecoder</title>
<path fill="#ffffff" stroke="black" stroke-width="2" d="M447,-100C447,-100 517,-100 517,-100 523,-100 529,-106 529,-112 529,-112 529,-140 529,-140 529,-146 523,-152 517,-152 517,-152 447,-152 447,-152 441,-152 435,-146 435,-140 435,-140 435,-112 435,-112 435,-106 441,-100 447,-100"/>
<text text-anchor="middle" x="482" y="-140.8" font-family="Helvetica,sans-Serif" font-weight="bold" font-size="9.00">jwtDecoder</text>
</g>
<g id="clust12" class="cluster">
<title>cluster_src/app/shared/validators</title>
<path fill="#ffffff" stroke="black" stroke-width="2" d="M288.5,-32C288.5,-32 386.5,-32 386.5,-32 392.5,-32 398.5,-38 398.5,-44 398.5,-44 398.5,-72 398.5,-72 398.5,-78 392.5,-84 386.5,-84 386.5,-84 288.5,-84 288.5,-84 282.5,-84 276.5,-78 276.5,-72 276.5,-72 276.5,-44 276.5,-44 276.5,-38 282.5,-32 288.5,-32"/>
<text text-anchor="middle" x="337.5" y="-72.8" font-family="Helvetica,sans-Serif" font-weight="bold" font-size="9.00">validators</text>
</g>
<!-- src/app/app.routes.ts -->
<g id="node1" class="node">
<title>src/app/app.routes.ts</title>
<g id="a_node1"><a xlink:href="src/app/app.routes.ts" xlink:title="app.routes.ts">
<path fill="#ddfeff" stroke="black" d="M95,-186C95,-186 30,-186 30,-186 27,-186 24,-183 24,-180 24,-180 24,-174 24,-174 24,-171 27,-168 30,-168 30,-168 95,-168 95,-168 98,-168 101,-171 101,-174 101,-174 101,-180 101,-180 101,-183 98,-186 95,-186"/>
<text text-anchor="start" x="32" y="-174.8" font-family="Helvetica,sans-Serif" font-size="9.00">app.routes.ts</text>
</a>
</g>
</g>
<!-- src/app/auth/signup/signup.component.ts -->
<g id="node2" class="node">
<title>src/app/auth/signup/signup.component.ts</title>
<g id="a_node2"><a xlink:href="src/app/auth/signup/signup.component.ts" xlink:title="signup.component.ts">
<path fill="#ddfeff" stroke="black" d="M232,-186C232,-186 131,-186 131,-186 128,-186 125,-183 125,-180 125,-180 125,-174 125,-174 125,-171 128,-168 131,-168 131,-168 232,-168 232,-168 235,-168 238,-171 238,-174 238,-174 238,-180 238,-180 238,-183 235,-186 232,-186"/>
<text text-anchor="start" x="133" y="-174.8" font-family="Helvetica,sans-Serif" font-size="9.00">signup.component.ts</text>
</a>
</g>
</g>
<!-- src/app/app.routes.ts&#45;&gt;src/app/auth/signup/signup.component.ts -->
<g id="edge1" class="edge">
<title>src/app/app.routes.ts&#45;&gt;src/app/auth/signup/signup.component.ts</title>
<path fill="none" stroke="#000000" stroke-width="2" stroke-dasharray="5,2" stroke-opacity="0.200000" d="M101.16,-177C106.66,-177 112.43,-177 118.26,-177"/>
<polygon fill="#000000" fill-opacity="0.200000" stroke="#000000" stroke-width="2" stroke-opacity="0.200000" points="118.59,-179.1 124.59,-177 118.59,-174.9 118.59,-179.1"/>
</g>
<!-- src/app/shared/services/auth/auth.service.ts -->
<g id="node3" class="node">
<title>src/app/shared/services/auth/auth.service.ts</title>
<g id="a_node3"><a xlink:href="src/app/shared/services/auth/auth.service.ts" xlink:title="auth.service.ts">
<path fill="#ddfeff" stroke="black" d="M373,-186C373,-186 302,-186 302,-186 299,-186 296,-183 296,-180 296,-180 296,-174 296,-174 296,-171 299,-168 302,-168 302,-168 373,-168 373,-168 376,-168 379,-171 379,-174 379,-174 379,-180 379,-180 379,-183 376,-186 373,-186"/>
<text text-anchor="start" x="304" y="-174.8" font-family="Helvetica,sans-Serif" font-size="9.00">auth.service.ts</text>
</a>
</g>
</g>
<!-- src/app/auth/signup/signup.component.ts&#45;&gt;src/app/shared/services/auth/auth.service.ts -->
<g id="edge2" class="edge">
<title>src/app/auth/signup/signup.component.ts&#45;&gt;src/app/shared/services/auth/auth.service.ts</title>
<path fill="none" stroke="#000000" stroke-width="2" stroke-opacity="0.200000" d="M238.1,-177C254.98,-177 273.36,-177 289.61,-177"/>
<polygon fill="#000000" fill-opacity="0.200000" stroke="#000000" stroke-width="2" stroke-opacity="0.200000" points="289.96,-179.1 295.96,-177 289.96,-174.9 289.96,-179.1"/>
</g>
<!-- src/app/shared/services/snackbar/snackbar.service.ts -->
<g id="node4" class="node">
<title>src/app/shared/services/snackbar/snackbar.service.ts</title>
<g id="a_node4"><a xlink:href="src/app/shared/services/snackbar/snackbar.service.ts" xlink:title="snackbar.service.ts">
<path fill="#ddfeff" stroke="black" d="M383,-126C383,-126 292,-126 292,-126 289,-126 286,-123 286,-120 286,-120 286,-114 286,-114 286,-111 289,-108 292,-108 292,-108 383,-108 383,-108 386,-108 389,-111 389,-114 389,-114 389,-120 389,-120 389,-123 386,-126 383,-126"/>
<text text-anchor="start" x="294" y="-114.8" font-family="Helvetica,sans-Serif" font-size="9.00">snackbar.service.ts</text>
</a>
</g>
</g>
<!-- src/app/auth/signup/signup.component.ts&#45;&gt;src/app/shared/services/snackbar/snackbar.service.ts -->
<g id="edge3" class="edge">
<title>src/app/auth/signup/signup.component.ts&#45;&gt;src/app/shared/services/snackbar/snackbar.service.ts</title>
<path fill="none" stroke="#000000" stroke-width="2" stroke-opacity="0.200000" d="M205.89,-167.89C233.18,-157.25 278.32,-139.67 307.73,-128.21"/>
<polygon fill="#000000" fill-opacity="0.200000" stroke="#000000" stroke-width="2" stroke-opacity="0.200000" points="308.57,-130.14 313.4,-126 307.04,-126.22 308.57,-130.14"/>
</g>
<!-- src/app/shared/utils/formErrorHandler/formErrorHandler.ts -->
<g id="node5" class="node">
<title>src/app/shared/utils/formErrorHandler/formErrorHandler.ts</title>
<g id="a_node5"><a xlink:href="src/app/shared/utils/formErrorHandler/formErrorHandler.ts" xlink:title="formErrorHandler.ts">
<path fill="#ddfeff" stroke="black" d="M529,-186C529,-186 435,-186 435,-186 432,-186 429,-183 429,-180 429,-180 429,-174 429,-174 429,-171 432,-168 435,-168 435,-168 529,-168 529,-168 532,-168 535,-171 535,-174 535,-174 535,-180 535,-180 535,-183 532,-186 529,-186"/>
<text text-anchor="start" x="437" y="-174.8" font-family="Helvetica,sans-Serif" font-size="9.00">formErrorHandler.ts</text>
</a>
</g>
</g>
<!-- src/app/auth/signup/signup.component.ts&#45;&gt;src/app/shared/utils/formErrorHandler/formErrorHandler.ts -->
<g id="edge4" class="edge">
<title>src/app/auth/signup/signup.component.ts&#45;&gt;src/app/shared/utils/formErrorHandler/formErrorHandler.ts</title>
<path fill="none" stroke="#000000" stroke-width="2" stroke-opacity="0.200000" d="M188.6,-186.08C200.44,-202.75 228.31,-237.75 262,-251 321.14,-274.27 346.12,-274.93 405,-251 434.69,-238.94 459.13,-209.08 471.74,-191.2"/>
<polygon fill="#000000" fill-opacity="0.200000" stroke="#000000" stroke-width="2" stroke-opacity="0.200000" points="473.6,-192.2 475.27,-186.07 470.14,-189.82 473.6,-192.2"/>
</g>
<!-- src/app/shared/utils/jwtDecoder/jwtDecoder.ts -->
<g id="node6" class="node">
<title>src/app/shared/utils/jwtDecoder/jwtDecoder.ts</title>
<g id="a_node6"><a xlink:href="src/app/shared/utils/jwtDecoder/jwtDecoder.ts" xlink:title="jwtDecoder.ts">
<path fill="#ddfeff" stroke="black" d="M515,-126C515,-126 449,-126 449,-126 446,-126 443,-123 443,-120 443,-120 443,-114 443,-114 443,-111 446,-108 449,-108 449,-108 515,-108 515,-108 518,-108 521,-111 521,-114 521,-114 521,-120 521,-120 521,-123 518,-126 515,-126"/>
<text text-anchor="start" x="451" y="-114.8" font-family="Helvetica,sans-Serif" font-size="9.00">jwtDecoder.ts</text>
</a>
</g>
</g>
<!-- src/app/auth/signup/signup.component.ts&#45;&gt;src/app/shared/utils/jwtDecoder/jwtDecoder.ts -->
<g id="edge5" class="edge">
<title>src/app/auth/signup/signup.component.ts&#45;&gt;src/app/shared/utils/jwtDecoder/jwtDecoder.ts</title>
<path fill="none" stroke="#000000" stroke-width="2" stroke-opacity="0.200000" d="M196.55,-186.16C235.07,-210 343.55,-268.55 405,-215 424.62,-197.9 398.56,-178.65 413,-157 421.51,-144.24 435.59,-134.99 448.74,-128.62"/>
<polygon fill="#000000" fill-opacity="0.200000" stroke="#000000" stroke-width="2" stroke-opacity="0.200000" points="449.72,-130.47 454.29,-126.06 447.97,-126.66 449.72,-130.47"/>
</g>
<!-- src/app/shared/validators/CustomValidators.ts -->
<g id="node7" class="node">
<title>src/app/shared/validators/CustomValidators.ts</title>
<g id="a_node7"><a xlink:href="src/app/shared/validators/CustomValidators.ts" xlink:title="CustomValidators.ts">
<path fill="#ddfeff" stroke="black" d="M384.5,-58C384.5,-58 290.5,-58 290.5,-58 287.5,-58 284.5,-55 284.5,-52 284.5,-52 284.5,-46 284.5,-46 284.5,-43 287.5,-40 290.5,-40 290.5,-40 384.5,-40 384.5,-40 387.5,-40 390.5,-43 390.5,-46 390.5,-46 390.5,-52 390.5,-52 390.5,-55 387.5,-58 384.5,-58"/>
<text text-anchor="start" x="292.5" y="-46.8" font-family="Helvetica,sans-Serif" font-size="9.00">CustomValidators.ts</text>
</a>
</g>
</g>
<!-- src/app/auth/signup/signup.component.ts&#45;&gt;src/app/shared/validators/CustomValidators.ts -->
<g id="edge6" class="edge">
<title>src/app/auth/signup/signup.component.ts&#45;&gt;src/app/shared/validators/CustomValidators.ts</title>
<path fill="none" stroke="#000000" stroke-width="2" stroke-opacity="0.200000" d="M190.29,-167.97C203.92,-152.45 233.39,-120.16 262,-97 278.72,-83.46 299.4,-70.4 314.73,-61.32"/>
<polygon fill="#000000" fill-opacity="0.200000" stroke="#000000" stroke-width="2" stroke-opacity="0.200000" points="316,-63.01 320.12,-58.16 313.88,-59.39 316,-63.01"/>
</g>
<!-- src/app/shared/services/auth/auth.service.ts&#45;&gt;src/app/shared/utils/jwtDecoder/jwtDecoder.ts -->
<g id="edge7" class="edge">
<title>src/app/shared/services/auth/auth.service.ts&#45;&gt;src/app/shared/utils/jwtDecoder/jwtDecoder.ts</title>
<path fill="none" stroke="#000000" stroke-width="2" stroke-opacity="0.200000" d="M368.96,-167.94C380.4,-164.28 393.42,-159.78 405,-155 423.66,-147.3 444.08,-136.97 459.06,-129.03"/>
<polygon fill="#000000" fill-opacity="0.200000" stroke="#000000" stroke-width="2" stroke-opacity="0.200000" points="460.41,-130.68 464.71,-126 458.43,-126.98 460.41,-130.68"/>
</g>
</g>
</svg>
