<?xml version="1.0" encoding="UTF-8" standalone="no"?>
<!DOCTYPE svg PUBLIC "-//W3C//DTD SVG 1.1//EN"
 "http://www.w3.org/Graphics/SVG/1.1/DTD/svg11.dtd">
<!-- Generated by graphviz version 2.43.0 (0)
 -->
<!-- Title: dependency&#45;cruiser output Pages: 1 -->
<svg width="528pt" height="332pt"
 viewBox="0.00 0.00 528.00 332.00" xmlns="http://www.w3.org/2000/svg" xmlns:xlink="http://www.w3.org/1999/xlink">
<g id="graph0" class="graph" transform="scale(1 1) rotate(0) translate(4 328)">
<title>dependency&#45;cruiser output</title>
<polygon fill="white" stroke="transparent" points="-4,4 -4,-328 524,-328 524,4 -4,4"/>
<g id="clust1" class="cluster">
<title>cluster_src</title>
<path fill="#ffffff" stroke="black" stroke-width="2" d="M20,-8C20,-8 500,-8 500,-8 506,-8 512,-14 512,-20 512,-20 512,-304 512,-304 512,-310 506,-316 500,-316 500,-316 20,-316 20,-316 14,-316 8,-310 8,-304 8,-304 8,-20 8,-20 8,-14 14,-8 20,-8"/>
<text text-anchor="middle" x="260" y="-304.8" font-family="Helvetica,sans-Serif" font-weight="bold" font-size="9.00">src</text>
</g>
<g id="clust2" class="cluster">
<title>cluster_src/app</title>
<path fill="#ffffff" stroke="black" stroke-width="2" d="M28,-16C28,-16 492,-16 492,-16 498,-16 504,-22 504,-28 504,-28 504,-278 504,-278 504,-284 498,-290 492,-290 492,-290 28,-290 28,-290 22,-290 16,-284 16,-278 16,-278 16,-28 16,-28 16,-22 22,-16 28,-16"/>
<text text-anchor="middle" x="260" y="-278.8" font-family="Helvetica,sans-Serif" font-weight="bold" font-size="9.00">app</text>
</g>
<g id="clust3" class="cluster">
<title>cluster_src/app/common</title>
<path fill="#ffffff" stroke="black" stroke-width="2" d="M212,-37C212,-37 333,-37 333,-37 339,-37 345,-43 345,-49 345,-49 345,-111 345,-111 345,-117 339,-123 333,-123 333,-123 212,-123 212,-123 206,-123 200,-117 200,-111 200,-111 200,-49 200,-49 200,-43 206,-37 212,-37"/>
<text text-anchor="middle" x="272.5" y="-111.8" font-family="Helvetica,sans-Serif" font-weight="bold" font-size="9.00">common</text>
</g>
<g id="clust4" class="cluster">
<title>cluster_src/app/common/navbar</title>
<path fill="#ffffff" stroke="black" stroke-width="2" d="M220,-45C220,-45 325,-45 325,-45 331,-45 337,-51 337,-57 337,-57 337,-85 337,-85 337,-91 331,-97 325,-97 325,-97 220,-97 220,-97 214,-97 208,-91 208,-85 208,-85 208,-57 208,-57 208,-51 214,-45 220,-45"/>
<text text-anchor="middle" x="272.5" y="-85.8" font-family="Helvetica,sans-Serif" font-weight="bold" font-size="9.00">navbar</text>
</g>
<g id="clust5" class="cluster">
<title>cluster_src/app/layouts</title>
<path fill="#ffffff" stroke="black" stroke-width="2" d="M36,-47C36,-47 180,-47 180,-47 186,-47 192,-53 192,-59 192,-59 192,-181 192,-181 192,-187 186,-193 180,-193 180,-193 36,-193 36,-193 30,-193 24,-187 24,-181 24,-181 24,-59 24,-59 24,-53 30,-47 36,-47"/>
<text text-anchor="middle" x="108" y="-181.8" font-family="Helvetica,sans-Serif" font-weight="bold" font-size="9.00">layouts</text>
</g>
<g id="clust6" class="cluster">
<title>cluster_src/app/layouts/base&#45;layout</title>
<path fill="#ffffff" stroke="black" stroke-width="2" d="M45,-55C45,-55 171,-55 171,-55 177,-55 183,-61 183,-67 183,-67 183,-95 183,-95 183,-101 177,-107 171,-107 171,-107 45,-107 45,-107 39,-107 33,-101 33,-95 33,-95 33,-67 33,-67 33,-61 39,-55 45,-55"/>
<text text-anchor="middle" x="108" y="-95.8" font-family="Helvetica,sans-Serif" font-weight="bold" font-size="9.00">base&#45;layout</text>
</g>
<g id="clust7" class="cluster">
<title>cluster_src/app/layouts/main&#45;layout</title>
<path fill="#ffffff" stroke="black" stroke-width="2" d="M44,-115C44,-115 172,-115 172,-115 178,-115 184,-121 184,-127 184,-127 184,-155 184,-155 184,-161 178,-167 172,-167 172,-167 44,-167 44,-167 38,-167 32,-161 32,-155 32,-155 32,-127 32,-127 32,-121 38,-115 44,-115"/>
<text text-anchor="middle" x="108" y="-155.8" font-family="Helvetica,sans-Serif" font-weight="bold" font-size="9.00">main&#45;layout</text>
</g>
<g id="clust8" class="cluster">
<title>cluster_src/app/shared</title>
<path fill="#ffffff" stroke="black" stroke-width="2" d="M365,-24C365,-24 484,-24 484,-24 490,-24 496,-30 496,-36 496,-36 496,-252 496,-252 496,-258 490,-264 484,-264 484,-264 365,-264 365,-264 359,-264 353,-258 353,-252 353,-252 353,-36 353,-36 353,-30 359,-24 365,-24"/>
<text text-anchor="middle" x="424.5" y="-252.8" font-family="Helvetica,sans-Serif" font-weight="bold" font-size="9.00">shared</text>
</g>
<g id="clust9" class="cluster">
<title>cluster_src/app/shared/services</title>
<path fill="#ffffff" stroke="black" stroke-width="2" d="M373,-32C373,-32 476,-32 476,-32 482,-32 488,-38 488,-44 488,-44 488,-226 488,-226 488,-232 482,-238 476,-238 476,-238 373,-238 373,-238 367,-238 361,-232 361,-226 361,-226 361,-44 361,-44 361,-38 367,-32 373,-32"/>
<text text-anchor="middle" x="424.5" y="-226.8" font-family="Helvetica,sans-Serif" font-weight="bold" font-size="9.00">services</text>
</g>
<g id="clust10" class="cluster">
<title>cluster_src/app/shared/services/auth</title>
<path fill="#ffffff" stroke="black" stroke-width="2" d="M387,-40C387,-40 462,-40 462,-40 468,-40 474,-46 474,-52 474,-52 474,-80 474,-80 474,-86 468,-92 462,-92 462,-92 387,-92 387,-92 381,-92 375,-86 375,-80 375,-80 375,-52 375,-52 375,-46 381,-40 387,-40"/>
<text text-anchor="middle" x="424.5" y="-80.8" font-family="Helvetica,sans-Serif" font-weight="bold" font-size="9.00">auth</text>
</g>
<g id="clust11" class="cluster">
<title>cluster_src/app/shared/services/sidebar</title>
<path fill="#ffffff" stroke="black" stroke-width="2" d="M381,-100C381,-100 468,-100 468,-100 474,-100 480,-106 480,-112 480,-112 480,-140 480,-140 480,-146 474,-152 468,-152 468,-152 381,-152 381,-152 375,-152 369,-146 369,-140 369,-140 369,-112 369,-112 369,-106 375,-100 381,-100"/>
<text text-anchor="middle" x="424.5" y="-140.8" font-family="Helvetica,sans-Serif" font-weight="bold" font-size="9.00">sidebar</text>
</g>
<g id="clust12" class="cluster">
<title>cluster_src/app/shared/services/theme</title>
<path fill="#ffffff" stroke="black" stroke-width="2" d="M382.5,-160C382.5,-160 466.5,-160 466.5,-160 472.5,-160 478.5,-166 478.5,-172 478.5,-172 478.5,-200 478.5,-200 478.5,-206 472.5,-212 466.5,-212 466.5,-212 382.5,-212 382.5,-212 376.5,-212 370.5,-206 370.5,-200 370.5,-200 370.5,-172 370.5,-172 370.5,-166 376.5,-160 382.5,-160"/>
<text text-anchor="middle" x="424.5" y="-200.8" font-family="Helvetica,sans-Serif" font-weight="bold" font-size="9.00">theme</text>
</g>
<!-- src/app/common/navbar/navbar.component.ts -->
<g id="node1" class="node">
<title>src/app/common/navbar/navbar.component.ts</title>
<g id="a_node1"><a xlink:href="src/app/common/navbar/navbar.component.ts" xlink:title="navbar.component.ts">
<path fill="#ddfeff" stroke="black" d="M323,-71C323,-71 222,-71 222,-71 219,-71 216,-68 216,-65 216,-65 216,-59 216,-59 216,-56 219,-53 222,-53 222,-53 323,-53 323,-53 326,-53 329,-56 329,-59 329,-59 329,-65 329,-65 329,-68 326,-71 323,-71"/>
<text text-anchor="start" x="224" y="-59.8" font-family="Helvetica,sans-Serif" font-size="9.00">navbar.component.ts</text>
</a>
</g>
</g>
<!-- src/app/shared/services/auth/auth.service.ts -->
<g id="node2" class="node">
<title>src/app/shared/services/auth/auth.service.ts</title>
<g id="a_node2"><a xlink:href="src/app/shared/services/auth/auth.service.ts" xlink:title="auth.service.ts">
<path fill="#ddfeff" stroke="black" d="M460,-66C460,-66 389,-66 389,-66 386,-66 383,-63 383,-60 383,-60 383,-54 383,-54 383,-51 386,-48 389,-48 389,-48 460,-48 460,-48 463,-48 466,-51 466,-54 466,-54 466,-60 466,-60 466,-63 463,-66 460,-66"/>
<text text-anchor="start" x="391" y="-54.8" font-family="Helvetica,sans-Serif" font-size="9.00">auth.service.ts</text>
</a>
</g>
</g>
<!-- src/app/common/navbar/navbar.component.ts&#45;&gt;src/app/shared/services/auth/auth.service.ts -->
<g id="edge1" class="edge">
<title>src/app/common/navbar/navbar.component.ts&#45;&gt;src/app/shared/services/auth/auth.service.ts</title>
<path fill="none" stroke="#000000" stroke-width="2" stroke-opacity="0.200000" d="M329.35,-60.14C344.81,-59.62 361.42,-59.07 376.32,-58.57"/>
<polygon fill="#000000" fill-opacity="0.200000" stroke="#000000" stroke-width="2" stroke-opacity="0.200000" points="376.67,-60.66 382.6,-58.36 376.53,-56.46 376.67,-60.66"/>
</g>
<!-- src/app/shared/services/sidebar/sidebar.service.ts -->
<g id="node3" class="node">
<title>src/app/shared/services/sidebar/sidebar.service.ts</title>
<g id="a_node3"><a xlink:href="src/app/shared/services/sidebar/sidebar.service.ts" xlink:title="sidebar.service.ts">
<path fill="#ddfeff" stroke="black" d="M466,-126C466,-126 383,-126 383,-126 380,-126 377,-123 377,-120 377,-120 377,-114 377,-114 377,-111 380,-108 383,-108 383,-108 466,-108 466,-108 469,-108 472,-111 472,-114 472,-114 472,-120 472,-120 472,-123 469,-126 466,-126"/>
<text text-anchor="start" x="385" y="-114.8" font-family="Helvetica,sans-Serif" font-size="9.00">sidebar.service.ts</text>
</a>
</g>
</g>
<!-- src/app/common/navbar/navbar.component.ts&#45;&gt;src/app/shared/services/sidebar/sidebar.service.ts -->
<g id="edge2" class="edge">
<title>src/app/common/navbar/navbar.component.ts&#45;&gt;src/app/shared/services/sidebar/sidebar.service.ts</title>
<path fill="none" stroke="#000000" stroke-width="2" stroke-opacity="0.200000" d="M293.89,-71.06C309.83,-78.01 332.63,-87.61 353,-95 363.78,-98.91 375.63,-102.77 386.49,-106.15"/>
<polygon fill="#000000" fill-opacity="0.200000" stroke="#000000" stroke-width="2" stroke-opacity="0.200000" points="386.06,-108.21 392.41,-107.97 387.29,-104.19 386.06,-108.21"/>
</g>
<!-- src/app/shared/services/theme/theme.service.ts -->
<g id="node4" class="node">
<title>src/app/shared/services/theme/theme.service.ts</title>
<g id="a_node4"><a xlink:href="src/app/shared/services/theme/theme.service.ts" xlink:title="theme.service.ts">
<path fill="#ddfeff" stroke="black" d="M464.5,-186C464.5,-186 384.5,-186 384.5,-186 381.5,-186 378.5,-183 378.5,-180 378.5,-180 378.5,-174 378.5,-174 378.5,-171 381.5,-168 384.5,-168 384.5,-168 464.5,-168 464.5,-168 467.5,-168 470.5,-171 470.5,-174 470.5,-174 470.5,-180 470.5,-180 470.5,-183 467.5,-186 464.5,-186"/>
<text text-anchor="start" x="386.5" y="-174.8" font-family="Helvetica,sans-Serif" font-size="9.00">theme.service.ts</text>
</a>
</g>
</g>
<!-- src/app/common/navbar/navbar.component.ts&#45;&gt;src/app/shared/services/theme/theme.service.ts -->
<g id="edge3" class="edge">
<title>src/app/common/navbar/navbar.component.ts&#45;&gt;src/app/shared/services/theme/theme.service.ts</title>
<path fill="none" stroke="#000000" stroke-width="2" stroke-opacity="0.200000" d="M278.83,-71.15C290.11,-89.74 318.24,-132.08 353,-155 359.74,-159.44 367.43,-163.03 375.19,-165.92"/>
<polygon fill="#000000" fill-opacity="0.200000" stroke="#000000" stroke-width="2" stroke-opacity="0.200000" points="374.77,-167.99 381.12,-167.99 376.15,-164.03 374.77,-167.99"/>
</g>
<!-- src/app/layouts/base&#45;layout/base&#45;layout.component.ts -->
<g id="node5" class="node">
<title>src/app/layouts/base&#45;layout/base&#45;layout.component.ts</title>
<g id="a_node5"><a xlink:href="src/app/layouts/base-layout/base-layout.component.ts" xlink:title="base&#45;layout.component.ts">
<path fill="#ddfeff" stroke="black" d="M169,-81C169,-81 47,-81 47,-81 44,-81 41,-78 41,-75 41,-75 41,-69 41,-69 41,-66 44,-63 47,-63 47,-63 169,-63 169,-63 172,-63 175,-66 175,-69 175,-69 175,-75 175,-75 175,-78 172,-81 169,-81"/>
<text text-anchor="start" x="49" y="-69.8" font-family="Helvetica,sans-Serif" font-size="9.00">base&#45;layout.component.ts</text>
</a>
</g>
</g>
<!-- src/app/layouts/base&#45;layout/base&#45;layout.component.ts&#45;&gt;src/app/common/navbar/navbar.component.ts -->
<g id="edge4" class="edge">
<title>src/app/layouts/base&#45;layout/base&#45;layout.component.ts&#45;&gt;src/app/common/navbar/navbar.component.ts</title>
<path fill="none" stroke="#000000" stroke-width="2" stroke-opacity="0.200000" d="M175.09,-67.93C186.51,-67.23 198.34,-66.5 209.64,-65.81"/>
<polygon fill="#000000" fill-opacity="0.200000" stroke="#000000" stroke-width="2" stroke-opacity="0.200000" points="210,-67.89 215.86,-65.42 209.74,-63.7 210,-67.89"/>
</g>
<!-- src/app/layouts/main&#45;layout/main&#45;layout.component.ts -->
<g id="node6" class="node">
<title>src/app/layouts/main&#45;layout/main&#45;layout.component.ts</title>
<g id="a_node6"><a xlink:href="src/app/layouts/main-layout/main-layout.component.ts" xlink:title="main&#45;layout.component.ts">
<path fill="#ddfeff" stroke="black" d="M170,-141C170,-141 46,-141 46,-141 43,-141 40,-138 40,-135 40,-135 40,-129 40,-129 40,-126 43,-123 46,-123 46,-123 170,-123 170,-123 173,-123 176,-126 176,-129 176,-129 176,-135 176,-135 176,-138 173,-141 170,-141"/>
<text text-anchor="start" x="48" y="-129.8" font-family="Helvetica,sans-Serif" font-size="9.00">main&#45;layout.component.ts</text>
</a>
</g>
</g>
<!-- src/app/layouts/main&#45;layout/main&#45;layout.component.ts&#45;&gt;src/app/common/navbar/navbar.component.ts -->
<g id="edge5" class="edge">
<title>src/app/layouts/main&#45;layout/main&#45;layout.component.ts&#45;&gt;src/app/common/navbar/navbar.component.ts</title>
<path fill="none" stroke="#000000" stroke-width="2" stroke-opacity="0.200000" d="M152.43,-122.96C165.41,-119.61 179.51,-115.3 192,-110 214.54,-100.44 238.31,-85.34 253.92,-74.63"/>
<polygon fill="#000000" fill-opacity="0.200000" stroke="#000000" stroke-width="2" stroke-opacity="0.200000" points="255.16,-76.32 258.89,-71.18 252.76,-72.87 255.16,-76.32"/>
</g>
<!-- src/app/layouts/main&#45;layout/main&#45;layout.component.ts&#45;&gt;src/app/shared/services/auth/auth.service.ts -->
<g id="edge6" class="edge">
<title>src/app/layouts/main&#45;layout/main&#45;layout.component.ts&#45;&gt;src/app/shared/services/auth/auth.service.ts</title>
<path fill="none" stroke="#000000" stroke-width="2" stroke-opacity="0.200000" d="M176.07,-129.43C224.12,-126.03 289.82,-118.16 345,-100 356.64,-96.17 383.72,-80.74 402.81,-69.46"/>
<polygon fill="#000000" fill-opacity="0.200000" stroke="#000000" stroke-width="2" stroke-opacity="0.200000" points="404.36,-70.98 408.45,-66.11 402.22,-67.37 404.36,-70.98"/>
</g>
<!-- src/app/layouts/main&#45;layout/main&#45;layout.component.ts&#45;&gt;src/app/shared/services/sidebar/sidebar.service.ts -->
<g id="edge7" class="edge">
<title>src/app/layouts/main&#45;layout/main&#45;layout.component.ts&#45;&gt;src/app/shared/services/sidebar/sidebar.service.ts</title>
<path fill="none" stroke="#000000" stroke-width="2" stroke-opacity="0.200000" d="M176.13,-137.95C223.49,-140.98 288.34,-142.76 345,-136 359.13,-134.31 374.39,-130.98 387.66,-127.57"/>
<polygon fill="#000000" fill-opacity="0.200000" stroke="#000000" stroke-width="2" stroke-opacity="0.200000" points="388.34,-129.56 393.61,-126 387.27,-125.5 388.34,-129.56"/>
</g>
<!-- src/app/layouts/main&#45;layout/main&#45;layout.component.ts&#45;&gt;src/app/shared/services/theme/theme.service.ts -->
<g id="edge8" class="edge">
<title>src/app/layouts/main&#45;layout/main&#45;layout.component.ts&#45;&gt;src/app/shared/services/theme/theme.service.ts</title>
<path fill="none" stroke="#000000" stroke-width="2" stroke-opacity="0.200000" d="M172.27,-141.05C230.99,-149.45 317.33,-161.81 371.97,-169.63"/>
<polygon fill="#000000" fill-opacity="0.200000" stroke="#000000" stroke-width="2" stroke-opacity="0.200000" points="371.9,-171.74 378.14,-170.51 372.5,-167.58 371.9,-171.74"/>
</g>
</g>
</svg>
