<?xml version="1.0" encoding="UTF-8" standalone="no"?>
<!DOCTYPE svg PUBLIC "-//W3C//DTD SVG 1.1//EN"
 "http://www.w3.org/Graphics/SVG/1.1/DTD/svg11.dtd">
<!-- Generated by graphviz version 2.43.0 (0)
 -->
<!-- Title: dependency&#45;cruiser output Pages: 1 -->
<svg width="565pt" height="580pt"
 viewBox="0.00 0.00 564.50 580.00" xmlns="http://www.w3.org/2000/svg" xmlns:xlink="http://www.w3.org/1999/xlink">
<g id="graph0" class="graph" transform="scale(1 1) rotate(0) translate(4 576)">
<title>dependency&#45;cruiser output</title>
<polygon fill="white" stroke="transparent" points="-4,4 -4,-576 560.5,-576 560.5,4 -4,4"/>
<g id="clust1" class="cluster">
<title>cluster_src</title>
<path fill="#ffffff" stroke="black" stroke-width="2" d="M20,-8C20,-8 536.5,-8 536.5,-8 542.5,-8 548.5,-14 548.5,-20 548.5,-20 548.5,-552 548.5,-552 548.5,-558 542.5,-564 536.5,-564 536.5,-564 20,-564 20,-564 14,-564 8,-558 8,-552 8,-552 8,-20 8,-20 8,-14 14,-8 20,-8"/>
<text text-anchor="middle" x="278.25" y="-552.8" font-family="Helvetica,sans-Serif" font-weight="bold" font-size="9.00">src</text>
</g>
<g id="clust2" class="cluster">
<title>cluster_src/app</title>
<path fill="#ffffff" stroke="black" stroke-width="2" d="M28,-16C28,-16 528.5,-16 528.5,-16 534.5,-16 540.5,-22 540.5,-28 540.5,-28 540.5,-526 540.5,-526 540.5,-532 534.5,-538 528.5,-538 528.5,-538 28,-538 28,-538 22,-538 16,-532 16,-526 16,-526 16,-28 16,-28 16,-22 22,-16 28,-16"/>
<text text-anchor="middle" x="278.25" y="-526.8" font-family="Helvetica,sans-Serif" font-weight="bold" font-size="9.00">app</text>
</g>
<g id="clust3" class="cluster">
<title>cluster_src/app/main</title>
<path fill="#ffffff" stroke="black" stroke-width="2" d="M36,-24C36,-24 397.5,-24 397.5,-24 403.5,-24 409.5,-30 409.5,-36 409.5,-36 409.5,-218 409.5,-218 409.5,-224 403.5,-230 397.5,-230 397.5,-230 36,-230 36,-230 30,-230 24,-224 24,-218 24,-218 24,-36 24,-36 24,-30 30,-24 36,-24"/>
<text text-anchor="middle" x="216.75" y="-218.8" font-family="Helvetica,sans-Serif" font-weight="bold" font-size="9.00">main</text>
</g>
<g id="clust4" class="cluster">
<title>cluster_src/app/main/account</title>
<path fill="#ffffff" stroke="black" stroke-width="2" d="M67,-152C67,-152 178,-152 178,-152 184,-152 190,-158 190,-164 190,-164 190,-192 190,-192 190,-198 184,-204 178,-204 178,-204 67,-204 67,-204 61,-204 55,-198 55,-192 55,-192 55,-164 55,-164 55,-158 61,-152 67,-152"/>
<text text-anchor="middle" x="122.5" y="-192.8" font-family="Helvetica,sans-Serif" font-weight="bold" font-size="9.00">account</text>
</g>
<g id="clust5" class="cluster">
<title>cluster_src/app/main/worktime</title>
<path fill="#ffffff" stroke="black" stroke-width="2" d="M44,-32C44,-32 389.5,-32 389.5,-32 395.5,-32 401.5,-38 401.5,-44 401.5,-44 401.5,-132 401.5,-132 401.5,-138 395.5,-144 389.5,-144 389.5,-144 44,-144 44,-144 38,-144 32,-138 32,-132 32,-132 32,-44 32,-44 32,-38 38,-32 44,-32"/>
<text text-anchor="middle" x="216.75" y="-132.8" font-family="Helvetica,sans-Serif" font-weight="bold" font-size="9.00">worktime</text>
</g>
<g id="clust6" class="cluster">
<title>cluster_src/app/main/worktime/worktime&#45;dialog</title>
<path fill="#ffffff" stroke="black" stroke-width="2" d="M234.5,-66C234.5,-66 381.5,-66 381.5,-66 387.5,-66 393.5,-72 393.5,-78 393.5,-78 393.5,-106 393.5,-106 393.5,-112 387.5,-118 381.5,-118 381.5,-118 234.5,-118 234.5,-118 228.5,-118 222.5,-112 222.5,-106 222.5,-106 222.5,-78 222.5,-78 222.5,-72 228.5,-66 234.5,-66"/>
<text text-anchor="middle" x="308" y="-106.8" font-family="Helvetica,sans-Serif" font-weight="bold" font-size="9.00">worktime&#45;dialog</text>
</g>
<g id="clust7" class="cluster">
<title>cluster_src/app/main/worktime/worktime&#45;stats</title>
<path fill="#ffffff" stroke="black" stroke-width="2" d="M52,-40C52,-40 193,-40 193,-40 199,-40 205,-46 205,-52 205,-52 205,-80 205,-80 205,-86 199,-92 193,-92 193,-92 52,-92 52,-92 46,-92 40,-86 40,-80 40,-80 40,-52 40,-52 40,-46 46,-40 52,-40"/>
<text text-anchor="middle" x="122.5" y="-80.8" font-family="Helvetica,sans-Serif" font-weight="bold" font-size="9.00">worktime&#45;stats</text>
</g>
<g id="clust8" class="cluster">
<title>cluster_src/app/shared</title>
<path fill="#ffffff" stroke="black" stroke-width="2" d="M225,-238C225,-238 520.5,-238 520.5,-238 526.5,-238 532.5,-244 532.5,-250 532.5,-250 532.5,-500 532.5,-500 532.5,-506 526.5,-512 520.5,-512 520.5,-512 225,-512 225,-512 219,-512 213,-506 213,-500 213,-500 213,-250 213,-250 213,-244 219,-238 225,-238"/>
<text text-anchor="middle" x="372.75" y="-500.8" font-family="Helvetica,sans-Serif" font-weight="bold" font-size="9.00">shared</text>
</g>
<g id="clust9" class="cluster">
<title>cluster_src/app/shared/pipes</title>
<path fill="#ffffff" stroke="black" stroke-width="2" d="M269.5,-400C269.5,-400 346.5,-400 346.5,-400 352.5,-400 358.5,-406 358.5,-412 358.5,-412 358.5,-474 358.5,-474 358.5,-480 352.5,-486 346.5,-486 346.5,-486 269.5,-486 269.5,-486 263.5,-486 257.5,-480 257.5,-474 257.5,-474 257.5,-412 257.5,-412 257.5,-406 263.5,-400 269.5,-400"/>
<text text-anchor="middle" x="308" y="-474.8" font-family="Helvetica,sans-Serif" font-weight="bold" font-size="9.00">pipes</text>
</g>
<g id="clust10" class="cluster">
<title>cluster_src/app/shared/pipes/gmt</title>
<path fill="#ffffff" stroke="black" stroke-width="2" d="M277.5,-408C277.5,-408 338.5,-408 338.5,-408 344.5,-408 350.5,-414 350.5,-420 350.5,-420 350.5,-448 350.5,-448 350.5,-454 344.5,-460 338.5,-460 338.5,-460 277.5,-460 277.5,-460 271.5,-460 265.5,-454 265.5,-448 265.5,-448 265.5,-420 265.5,-420 265.5,-414 271.5,-408 277.5,-408"/>
<text text-anchor="middle" x="308" y="-448.8" font-family="Helvetica,sans-Serif" font-weight="bold" font-size="9.00">gmt</text>
</g>
<g id="clust11" class="cluster">
<title>cluster_src/app/shared/services</title>
<path fill="#ffffff" stroke="black" stroke-width="2" d="M233,-246C233,-246 512.5,-246 512.5,-246 518.5,-246 524.5,-252 524.5,-258 524.5,-258 524.5,-380 524.5,-380 524.5,-386 518.5,-392 512.5,-392 512.5,-392 233,-392 233,-392 227,-392 221,-386 221,-380 221,-380 221,-258 221,-258 221,-252 227,-246 233,-246"/>
<text text-anchor="middle" x="372.75" y="-380.8" font-family="Helvetica,sans-Serif" font-weight="bold" font-size="9.00">services</text>
</g>
<g id="clust12" class="cluster">
<title>cluster_src/app/shared/services/date&#45;range</title>
<path fill="#ffffff" stroke="black" stroke-width="2" d="M256,-254C256,-254 360,-254 360,-254 366,-254 372,-260 372,-266 372,-266 372,-294 372,-294 372,-300 366,-306 360,-306 360,-306 256,-306 256,-306 250,-306 244,-300 244,-294 244,-294 244,-266 244,-266 244,-260 250,-254 256,-254"/>
<text text-anchor="middle" x="308" y="-294.8" font-family="Helvetica,sans-Serif" font-weight="bold" font-size="9.00">date&#45;range</text>
</g>
<g id="clust13" class="cluster">
<title>cluster_src/app/shared/services/date</title>
<path fill="#ffffff" stroke="black" stroke-width="2" d="M429.5,-254C429.5,-254 504.5,-254 504.5,-254 510.5,-254 516.5,-260 516.5,-266 516.5,-266 516.5,-294 516.5,-294 516.5,-300 510.5,-306 504.5,-306 504.5,-306 429.5,-306 429.5,-306 423.5,-306 417.5,-300 417.5,-294 417.5,-294 417.5,-266 417.5,-266 417.5,-260 423.5,-254 429.5,-254"/>
<text text-anchor="middle" x="467" y="-294.8" font-family="Helvetica,sans-Serif" font-weight="bold" font-size="9.00">date</text>
</g>
<g id="clust14" class="cluster">
<title>cluster_src/app/shared/services/displayed&#45;column</title>
<path fill="#ffffff" stroke="black" stroke-width="2" d="M241,-314C241,-314 375,-314 375,-314 381,-314 387,-320 387,-326 387,-326 387,-354 387,-354 387,-360 381,-366 375,-366 375,-366 241,-366 241,-366 235,-366 229,-360 229,-354 229,-354 229,-326 229,-326 229,-320 235,-314 241,-314"/>
<text text-anchor="middle" x="308" y="-354.8" font-family="Helvetica,sans-Serif" font-weight="bold" font-size="9.00">displayed&#45;column</text>
</g>
<!-- src/app/main/account/account.component.ts -->
<g id="node1" class="node">
<title>src/app/main/account/account.component.ts</title>
<g id="a_node1"><a xlink:href="src/app/main/account/account.component.ts" xlink:title="account.component.ts">
<path fill="#ddfeff" stroke="black" d="M176,-178C176,-178 69,-178 69,-178 66,-178 63,-175 63,-172 63,-172 63,-166 63,-166 63,-163 66,-160 69,-160 69,-160 176,-160 176,-160 179,-160 182,-163 182,-166 182,-166 182,-172 182,-172 182,-175 179,-178 176,-178"/>
<text text-anchor="start" x="71" y="-166.8" font-family="Helvetica,sans-Serif" font-size="9.00">account.component.ts</text>
</a>
</g>
</g>
<!-- src/app/shared/services/date/date.service.ts -->
<g id="node2" class="node">
<title>src/app/shared/services/date/date.service.ts</title>
<g id="a_node2"><a xlink:href="src/app/shared/services/date/date.service.ts" xlink:title="date.service.ts">
<path fill="#ddfeff" stroke="black" d="M502.5,-280C502.5,-280 431.5,-280 431.5,-280 428.5,-280 425.5,-277 425.5,-274 425.5,-274 425.5,-268 425.5,-268 425.5,-265 428.5,-262 431.5,-262 431.5,-262 502.5,-262 502.5,-262 505.5,-262 508.5,-265 508.5,-268 508.5,-268 508.5,-274 508.5,-274 508.5,-277 505.5,-280 502.5,-280"/>
<text text-anchor="start" x="433.5" y="-268.8" font-family="Helvetica,sans-Serif" font-size="9.00">date.service.ts</text>
</a>
</g>
</g>
<!-- src/app/main/account/account.component.ts&#45;&gt;src/app/shared/services/date/date.service.ts -->
<g id="edge1" class="edge">
<title>src/app/main/account/account.component.ts&#45;&gt;src/app/shared/services/date/date.service.ts</title>
<path fill="none" stroke="#000000" stroke-width="2" stroke-opacity="0.200000" d="M157.6,-178.05C211.42,-192.51 319.23,-222.11 409.5,-251 418.04,-253.73 427.22,-256.89 435.66,-259.88"/>
<polygon fill="#000000" fill-opacity="0.200000" stroke="#000000" stroke-width="2" stroke-opacity="0.200000" points="435,-261.87 441.36,-261.91 436.41,-257.92 435,-261.87"/>
</g>
<!-- src/app/main/worktime/worktime&#45;dialog/worktime&#45;dialog.component.ts -->
<g id="node3" class="node">
<title>src/app/main/worktime/worktime&#45;dialog/worktime&#45;dialog.component.ts</title>
<g id="a_node3"><a xlink:href="src/app/main/worktime/worktime-dialog/worktime-dialog.component.ts" xlink:title="worktime&#45;dialog.component.ts">
<path fill="#ddfeff" stroke="black" d="M379.5,-92C379.5,-92 236.5,-92 236.5,-92 233.5,-92 230.5,-89 230.5,-86 230.5,-86 230.5,-80 230.5,-80 230.5,-77 233.5,-74 236.5,-74 236.5,-74 379.5,-74 379.5,-74 382.5,-74 385.5,-77 385.5,-80 385.5,-80 385.5,-86 385.5,-86 385.5,-89 382.5,-92 379.5,-92"/>
<text text-anchor="start" x="238.5" y="-80.8" font-family="Helvetica,sans-Serif" font-size="9.00">worktime&#45;dialog.component.ts</text>
</a>
</g>
</g>
<!-- src/app/main/worktime/worktime&#45;dialog/worktime&#45;dialog.component.ts&#45;&gt;src/app/shared/services/date/date.service.ts -->
<g id="edge2" class="edge">
<title>src/app/main/worktime/worktime&#45;dialog/worktime&#45;dialog.component.ts&#45;&gt;src/app/shared/services/date/date.service.ts</title>
<path fill="none" stroke="#000000" stroke-width="2" stroke-opacity="0.200000" d="M337.03,-92.15C359.26,-100.66 389.77,-115.32 409.5,-137 441.62,-172.29 457.11,-228.5 463.01,-255.51"/>
<polygon fill="#000000" fill-opacity="0.200000" stroke="#000000" stroke-width="2" stroke-opacity="0.200000" points="461.03,-256.28 464.31,-261.72 465.14,-255.42 461.03,-256.28"/>
</g>
<!-- src/app/main/worktime/worktime&#45;stats/worktime&#45;stats.component.ts -->
<g id="node4" class="node">
<title>src/app/main/worktime/worktime&#45;stats/worktime&#45;stats.component.ts</title>
<g id="a_node4"><a xlink:href="src/app/main/worktime/worktime-stats/worktime-stats.component.ts" xlink:title="worktime&#45;stats.component.ts">
<path fill="#ddfeff" stroke="black" d="M191,-66C191,-66 54,-66 54,-66 51,-66 48,-63 48,-60 48,-60 48,-54 48,-54 48,-51 51,-48 54,-48 54,-48 191,-48 191,-48 194,-48 197,-51 197,-54 197,-54 197,-60 197,-60 197,-63 194,-66 191,-66"/>
<text text-anchor="start" x="56" y="-54.8" font-family="Helvetica,sans-Serif" font-size="9.00">worktime&#45;stats.component.ts</text>
</a>
</g>
</g>
<!-- src/app/main/worktime/worktime&#45;stats/worktime&#45;stats.component.ts&#45;&gt;src/app/shared/services/date/date.service.ts -->
<g id="edge4" class="edge">
<title>src/app/main/worktime/worktime&#45;stats/worktime&#45;stats.component.ts&#45;&gt;src/app/shared/services/date/date.service.ts</title>
<path fill="none" stroke="#000000" stroke-width="2" stroke-opacity="0.200000" d="M197,-63.68C199.88,-65.47 202.57,-67.57 205,-70 221.2,-86.24 198.36,-103.34 213,-121 272.16,-192.38 335.64,-134.96 409.5,-191 432.75,-208.64 450.21,-238.57 459.21,-256.4"/>
<polygon fill="#000000" fill-opacity="0.200000" stroke="#000000" stroke-width="2" stroke-opacity="0.200000" points="457.4,-257.48 461.93,-261.94 461.17,-255.63 457.4,-257.48"/>
</g>
<!-- src/app/shared/services/date&#45;range/date&#45;range.service.ts -->
<g id="node5" class="node">
<title>src/app/shared/services/date&#45;range/date&#45;range.service.ts</title>
<g id="a_node5"><a xlink:href="src/app/shared/services/date-range/date-range.service.ts" xlink:title="date&#45;range.service.ts">
<path fill="#ddfeff" stroke="black" d="M358,-280C358,-280 258,-280 258,-280 255,-280 252,-277 252,-274 252,-274 252,-268 252,-268 252,-265 255,-262 258,-262 258,-262 358,-262 358,-262 361,-262 364,-265 364,-268 364,-268 364,-274 364,-274 364,-277 361,-280 358,-280"/>
<text text-anchor="start" x="260" y="-268.8" font-family="Helvetica,sans-Serif" font-size="9.00">date&#45;range.service.ts</text>
</a>
</g>
</g>
<!-- src/app/main/worktime/worktime&#45;stats/worktime&#45;stats.component.ts&#45;&gt;src/app/shared/services/date&#45;range/date&#45;range.service.ts -->
<g id="edge3" class="edge">
<title>src/app/main/worktime/worktime&#45;stats/worktime&#45;stats.component.ts&#45;&gt;src/app/shared/services/date&#45;range/date&#45;range.service.ts</title>
<path fill="none" stroke="#000000" stroke-width="2" stroke-opacity="0.200000" d="M197.15,-63.53C199.99,-65.37 202.63,-67.51 205,-70 216.54,-82.16 206.88,-129.4 213,-145 231.24,-191.54 271.5,-235.98 292.93,-257.5"/>
<polygon fill="#000000" fill-opacity="0.200000" stroke="#000000" stroke-width="2" stroke-opacity="0.200000" points="291.71,-259.25 297.45,-261.98 294.67,-256.27 291.71,-259.25"/>
</g>
<!-- src/app/shared/services/date&#45;range/date&#45;range.service.ts&#45;&gt;src/app/shared/services/date/date.service.ts -->
<g id="edge10" class="edge">
<title>src/app/shared/services/date&#45;range/date&#45;range.service.ts&#45;&gt;src/app/shared/services/date/date.service.ts</title>
<path fill="none" stroke="#000000" stroke-width="2" stroke-opacity="0.200000" d="M364.35,-271C382.28,-271 401.98,-271 419.22,-271"/>
<polygon fill="#000000" fill-opacity="0.200000" stroke="#000000" stroke-width="2" stroke-opacity="0.200000" points="419.45,-273.1 425.45,-271 419.45,-268.9 419.45,-273.1"/>
</g>
<!-- src/app/main/worktime/worktime.component.ts -->
<g id="node6" class="node">
<title>src/app/main/worktime/worktime.component.ts</title>
<g id="a_node6"><a xlink:href="src/app/main/worktime/worktime.component.ts" xlink:title="worktime.component.ts">
<path fill="#ddfeff" stroke="black" d="M179,-118C179,-118 66,-118 66,-118 63,-118 60,-115 60,-112 60,-112 60,-106 60,-106 60,-103 63,-100 66,-100 66,-100 179,-100 179,-100 182,-100 185,-103 185,-106 185,-106 185,-112 185,-112 185,-115 182,-118 179,-118"/>
<text text-anchor="start" x="68" y="-106.8" font-family="Helvetica,sans-Serif" font-size="9.00">worktime.component.ts</text>
</a>
</g>
</g>
<!-- src/app/main/worktime/worktime.component.ts&#45;&gt;src/app/shared/services/date/date.service.ts -->
<g id="edge6" class="edge">
<title>src/app/main/worktime/worktime.component.ts&#45;&gt;src/app/shared/services/date/date.service.ts</title>
<path fill="none" stroke="#000000" stroke-width="2" stroke-opacity="0.200000" d="M161.53,-118.15C177.78,-124.12 195.22,-133.74 205,-149 214.42,-163.69 200.5,-450.82 213,-463 275.54,-523.96 339.57,-515.32 409.5,-463 438.42,-441.37 457.63,-328.26 463.83,-286.51"/>
<polygon fill="#000000" fill-opacity="0.200000" stroke="#000000" stroke-width="2" stroke-opacity="0.200000" points="465.92,-286.68 464.71,-280.44 461.77,-286.08 465.92,-286.68"/>
</g>
<!-- src/app/main/worktime/worktime.component.ts&#45;&gt;src/app/main/worktime/worktime&#45;dialog/worktime&#45;dialog.component.ts -->
<g id="edge8" class="edge">
<title>src/app/main/worktime/worktime.component.ts&#45;&gt;src/app/main/worktime/worktime&#45;dialog/worktime&#45;dialog.component.ts</title>
<path fill="none" stroke="#000000" stroke-width="2" stroke-opacity="0.200000" d="M185.11,-100.27C201.8,-97.91 219.99,-95.33 237.1,-92.9"/>
<polygon fill="#000000" fill-opacity="0.200000" stroke="#000000" stroke-width="2" stroke-opacity="0.200000" points="237.71,-94.94 243.36,-92.02 237.12,-90.78 237.71,-94.94"/>
</g>
<!-- src/app/main/worktime/worktime.component.ts&#45;&gt;src/app/shared/services/date&#45;range/date&#45;range.service.ts -->
<g id="edge5" class="edge">
<title>src/app/main/worktime/worktime.component.ts&#45;&gt;src/app/shared/services/date&#45;range/date&#45;range.service.ts</title>
<path fill="none" stroke="#000000" stroke-width="2" stroke-opacity="0.200000" d="M148.58,-118.1C165.54,-125 187.89,-135.57 205,-149 245.99,-181.17 281.98,-232.21 298.06,-256.82"/>
<polygon fill="#000000" fill-opacity="0.200000" stroke="#000000" stroke-width="2" stroke-opacity="0.200000" points="296.34,-258.03 301.36,-261.93 299.87,-255.75 296.34,-258.03"/>
</g>
<!-- src/app/shared/services/displayed&#45;column/displayed&#45;column.service.ts -->
<g id="node7" class="node">
<title>src/app/shared/services/displayed&#45;column/displayed&#45;column.service.ts</title>
<g id="a_node7"><a xlink:href="src/app/shared/services/displayed-column/displayed-column.service.ts" xlink:title="displayed&#45;column.service.ts">
<path fill="#ddfeff" stroke="black" d="M373,-340C373,-340 243,-340 243,-340 240,-340 237,-337 237,-334 237,-334 237,-328 237,-328 237,-325 240,-322 243,-322 243,-322 373,-322 373,-322 376,-322 379,-325 379,-328 379,-328 379,-334 379,-334 379,-337 376,-340 373,-340"/>
<text text-anchor="start" x="245" y="-328.8" font-family="Helvetica,sans-Serif" font-size="9.00">displayed&#45;column.service.ts</text>
</a>
</g>
</g>
<!-- src/app/main/worktime/worktime.component.ts&#45;&gt;src/app/shared/services/displayed&#45;column/displayed&#45;column.service.ts -->
<g id="edge7" class="edge">
<title>src/app/main/worktime/worktime.component.ts&#45;&gt;src/app/shared/services/displayed&#45;column/displayed&#45;column.service.ts</title>
<path fill="none" stroke="#000000" stroke-width="2" stroke-opacity="0.200000" d="M160.94,-118.1C177.27,-124.08 194.95,-133.73 205,-149 214.79,-163.87 201.6,-295.33 213,-309 217.95,-314.93 224.16,-319.44 231.03,-322.85"/>
<polygon fill="#000000" fill-opacity="0.200000" stroke="#000000" stroke-width="2" stroke-opacity="0.200000" points="230.6,-324.95 236.93,-325.46 232.29,-321.11 230.6,-324.95"/>
</g>
<!-- src/app/shared/services/displayed&#45;column/displayed&#45;column.service.ts&#45;&gt;src/app/shared/services/date/date.service.ts -->
<g id="edge11" class="edge">
<title>src/app/shared/services/displayed&#45;column/displayed&#45;column.service.ts&#45;&gt;src/app/shared/services/date/date.service.ts</title>
<path fill="none" stroke="#000000" stroke-width="2" stroke-opacity="0.200000" d="M368.09,-321.94C381.99,-318.76 396.52,-314.54 409.5,-309 424.26,-302.69 439.26,-292.39 450.09,-284.1"/>
<polygon fill="#000000" fill-opacity="0.200000" stroke="#000000" stroke-width="2" stroke-opacity="0.200000" points="451.62,-285.57 455.05,-280.22 449.03,-282.26 451.62,-285.57"/>
</g>
<!-- src/app/shared/pipes/gmt/gmt.pipe.ts -->
<g id="node8" class="node">
<title>src/app/shared/pipes/gmt/gmt.pipe.ts</title>
<g id="a_node8"><a xlink:href="src/app/shared/pipes/gmt/gmt.pipe.ts" xlink:title="gmt.pipe.ts">
<path fill="#ddfeff" stroke="black" d="M336.5,-434C336.5,-434 279.5,-434 279.5,-434 276.5,-434 273.5,-431 273.5,-428 273.5,-428 273.5,-422 273.5,-422 273.5,-419 276.5,-416 279.5,-416 279.5,-416 336.5,-416 336.5,-416 339.5,-416 342.5,-419 342.5,-422 342.5,-422 342.5,-428 342.5,-428 342.5,-431 339.5,-434 336.5,-434"/>
<text text-anchor="start" x="281.5" y="-422.8" font-family="Helvetica,sans-Serif" font-size="9.00">gmt.pipe.ts</text>
</a>
</g>
</g>
<!-- src/app/shared/pipes/gmt/gmt.pipe.ts&#45;&gt;src/app/shared/services/date/date.service.ts -->
<g id="edge9" class="edge">
<title>src/app/shared/pipes/gmt/gmt.pipe.ts&#45;&gt;src/app/shared/services/date/date.service.ts</title>
<path fill="none" stroke="#000000" stroke-width="2" stroke-opacity="0.200000" d="M333.29,-415.88C355.26,-406.68 387.45,-390.73 409.5,-369 434.45,-344.41 452.07,-306.5 460.45,-285.78"/>
<polygon fill="#000000" fill-opacity="0.200000" stroke="#000000" stroke-width="2" stroke-opacity="0.200000" points="462.41,-286.53 462.66,-280.17 458.51,-284.98 462.41,-286.53"/>
</g>
</g>
</svg>
