<?xml version="1.0" encoding="UTF-8" standalone="no"?>
<!DOCTYPE svg PUBLIC "-//W3C//DTD SVG 1.1//EN"
 "http://www.w3.org/Graphics/SVG/1.1/DTD/svg11.dtd">
<!-- Generated by graphviz version 2.43.0 (0)
 -->
<!-- Title: dependency&#45;cruiser output Pages: 1 -->
<svg width="858pt" height="1196pt"
 viewBox="0.00 0.00 858.00 1196.00" xmlns="http://www.w3.org/2000/svg" xmlns:xlink="http://www.w3.org/1999/xlink">
<g id="graph0" class="graph" transform="scale(1 1) rotate(0) translate(4 1192)">
<title>dependency&#45;cruiser output</title>
<polygon fill="white" stroke="transparent" points="-4,4 -4,-1192 854,-1192 854,4 -4,4"/>
<g id="clust1" class="cluster">
<title>cluster_src</title>
<path fill="#ffffff" stroke="black" stroke-width="2" d="M20,-8C20,-8 830,-8 830,-8 836,-8 842,-14 842,-20 842,-20 842,-1168 842,-1168 842,-1174 836,-1180 830,-1180 830,-1180 20,-1180 20,-1180 14,-1180 8,-1174 8,-1168 8,-1168 8,-20 8,-20 8,-14 14,-8 20,-8"/>
<text text-anchor="middle" x="425" y="-1168.8" font-family="Helvetica,sans-Serif" font-weight="bold" font-size="9.00">src</text>
</g>
<g id="clust2" class="cluster">
<title>cluster_src/app</title>
<path fill="#ffffff" stroke="black" stroke-width="2" d="M28,-16C28,-16 822,-16 822,-16 828,-16 834,-22 834,-28 834,-28 834,-1082 834,-1082 834,-1088 828,-1094 822,-1094 822,-1094 28,-1094 28,-1094 22,-1094 16,-1088 16,-1082 16,-1082 16,-28 16,-28 16,-22 22,-16 28,-16"/>
<text text-anchor="middle" x="425" y="-1082.8" font-family="Helvetica,sans-Serif" font-weight="bold" font-size="9.00">app</text>
</g>
<g id="clust3" class="cluster">
<title>cluster_src/app/auth</title>
<path fill="#ffffff" stroke="black" stroke-width="2" d="M313.5,-982C313.5,-982 425.5,-982 425.5,-982 431.5,-982 437.5,-988 437.5,-994 437.5,-994 437.5,-1056 437.5,-1056 437.5,-1062 431.5,-1068 425.5,-1068 425.5,-1068 313.5,-1068 313.5,-1068 307.5,-1068 301.5,-1062 301.5,-1056 301.5,-1056 301.5,-994 301.5,-994 301.5,-988 307.5,-982 313.5,-982"/>
<text text-anchor="middle" x="369.5" y="-1056.8" font-family="Helvetica,sans-Serif" font-weight="bold" font-size="9.00">auth</text>
</g>
<g id="clust4" class="cluster">
<title>cluster_src/app/auth/login</title>
<path fill="#ffffff" stroke="black" stroke-width="2" d="M321.5,-990C321.5,-990 417.5,-990 417.5,-990 423.5,-990 429.5,-996 429.5,-1002 429.5,-1002 429.5,-1030 429.5,-1030 429.5,-1036 423.5,-1042 417.5,-1042 417.5,-1042 321.5,-1042 321.5,-1042 315.5,-1042 309.5,-1036 309.5,-1030 309.5,-1030 309.5,-1002 309.5,-1002 309.5,-996 315.5,-990 321.5,-990"/>
<text text-anchor="middle" x="369.5" y="-1030.8" font-family="Helvetica,sans-Serif" font-weight="bold" font-size="9.00">login</text>
</g>
<g id="clust5" class="cluster">
<title>cluster_src/app/layouts</title>
<path fill="#ffffff" stroke="black" stroke-width="2" d="M297.5,-888C297.5,-888 441.5,-888 441.5,-888 447.5,-888 453.5,-894 453.5,-900 453.5,-900 453.5,-962 453.5,-962 453.5,-968 447.5,-974 441.5,-974 441.5,-974 297.5,-974 297.5,-974 291.5,-974 285.5,-968 285.5,-962 285.5,-962 285.5,-900 285.5,-900 285.5,-894 291.5,-888 297.5,-888"/>
<text text-anchor="middle" x="369.5" y="-962.8" font-family="Helvetica,sans-Serif" font-weight="bold" font-size="9.00">layouts</text>
</g>
<g id="clust6" class="cluster">
<title>cluster_src/app/layouts/main&#45;layout</title>
<path fill="#ffffff" stroke="black" stroke-width="2" d="M305.5,-896C305.5,-896 433.5,-896 433.5,-896 439.5,-896 445.5,-902 445.5,-908 445.5,-908 445.5,-936 445.5,-936 445.5,-942 439.5,-948 433.5,-948 433.5,-948 305.5,-948 305.5,-948 299.5,-948 293.5,-942 293.5,-936 293.5,-936 293.5,-908 293.5,-908 293.5,-902 299.5,-896 305.5,-896"/>
<text text-anchor="middle" x="369.5" y="-936.8" font-family="Helvetica,sans-Serif" font-weight="bold" font-size="9.00">main&#45;layout</text>
</g>
<g id="clust7" class="cluster">
<title>cluster_src/app/main</title>
<path fill="#ffffff" stroke="black" stroke-width="2" d="M36,-272C36,-272 467,-272 467,-272 473,-272 479,-278 479,-284 479,-284 479,-868 479,-868 479,-874 473,-880 467,-880 467,-880 36,-880 36,-880 30,-880 24,-874 24,-868 24,-868 24,-284 24,-284 24,-278 30,-272 36,-272"/>
<text text-anchor="middle" x="251.5" y="-868.8" font-family="Helvetica,sans-Serif" font-weight="bold" font-size="9.00">main</text>
</g>
<g id="clust8" class="cluster">
<title>cluster_src/app/main/manage</title>
<path fill="#ffffff" stroke="black" stroke-width="2" d="M59,-614C59,-614 255,-614 255,-614 261,-614 267,-620 267,-626 267,-626 267,-722 267,-722 267,-728 261,-734 255,-734 255,-734 59,-734 59,-734 53,-734 47,-728 47,-722 47,-722 47,-626 47,-626 47,-620 53,-614 59,-614"/>
<text text-anchor="middle" x="157" y="-722.8" font-family="Helvetica,sans-Serif" font-weight="bold" font-size="9.00">manage</text>
</g>
<g id="clust9" class="cluster">
<title>cluster_src/app/main/manage/members</title>
<path fill="#ffffff" stroke="black" stroke-width="2" d="M67,-622C67,-622 247,-622 247,-622 253,-622 259,-628 259,-634 259,-634 259,-696 259,-696 259,-702 253,-708 247,-708 247,-708 67,-708 67,-708 61,-708 55,-702 55,-696 55,-696 55,-634 55,-634 55,-628 61,-622 67,-622"/>
<text text-anchor="middle" x="157" y="-696.8" font-family="Helvetica,sans-Serif" font-weight="bold" font-size="9.00">members</text>
</g>
<g id="clust10" class="cluster">
<title>cluster_src/app/main/manage/members/project&#45;invite&#45;dialog</title>
<path fill="#ffffff" stroke="black" stroke-width="2" d="M75,-630C75,-630 239,-630 239,-630 245,-630 251,-636 251,-642 251,-642 251,-670 251,-670 251,-676 245,-682 239,-682 239,-682 75,-682 75,-682 69,-682 63,-676 63,-670 63,-670 63,-642 63,-642 63,-636 69,-630 75,-630"/>
<text text-anchor="middle" x="157" y="-670.8" font-family="Helvetica,sans-Serif" font-weight="bold" font-size="9.00">project&#45;invite&#45;dialog</text>
</g>
<g id="clust11" class="cluster">
<title>cluster_src/app/main/organization&#45;invitation</title>
<path fill="#ffffff" stroke="black" stroke-width="2" d="M50,-742C50,-742 264,-742 264,-742 270,-742 276,-748 276,-754 276,-754 276,-842 276,-842 276,-848 270,-854 264,-854 264,-854 50,-854 50,-854 44,-854 38,-848 38,-842 38,-842 38,-754 38,-754 38,-748 44,-742 50,-742"/>
<text text-anchor="middle" x="157" y="-842.8" font-family="Helvetica,sans-Serif" font-weight="bold" font-size="9.00">organization&#45;invitation</text>
</g>
<g id="clust12" class="cluster">
<title>cluster_src/app/main/organization&#45;invitation/organization&#45;invitation&#45;item</title>
<path fill="#ffffff" stroke="black" stroke-width="2" d="M58,-750C58,-750 256,-750 256,-750 262,-750 268,-756 268,-762 268,-762 268,-790 268,-790 268,-796 262,-802 256,-802 256,-802 58,-802 58,-802 52,-802 46,-796 46,-790 46,-790 46,-762 46,-762 46,-756 52,-750 58,-750"/>
<text text-anchor="middle" x="157" y="-790.8" font-family="Helvetica,sans-Serif" font-weight="bold" font-size="9.00">organization&#45;invitation&#45;item</text>
</g>
<g id="clust13" class="cluster">
<title>cluster_src/app/main/organizations</title>
<path fill="#ffffff" stroke="black" stroke-width="2" d="M44,-280C44,-280 459,-280 459,-280 465,-280 471,-286 471,-292 471,-292 471,-594 471,-594 471,-600 465,-606 459,-606 459,-606 44,-606 44,-606 38,-606 32,-600 32,-594 32,-594 32,-292 32,-292 32,-286 38,-280 44,-280"/>
<text text-anchor="middle" x="251.5" y="-594.8" font-family="Helvetica,sans-Serif" font-weight="bold" font-size="9.00">organizations</text>
</g>
<g id="clust14" class="cluster">
<title>cluster_src/app/main/organizations/create&#45;organization</title>
<path fill="#ffffff" stroke="black" stroke-width="2" d="M76,-442C76,-442 238,-442 238,-442 244,-442 250,-448 250,-454 250,-454 250,-482 250,-482 250,-488 244,-494 238,-494 238,-494 76,-494 76,-494 70,-494 64,-488 64,-482 64,-482 64,-454 64,-454 64,-448 70,-442 76,-442"/>
<text text-anchor="middle" x="157" y="-482.8" font-family="Helvetica,sans-Serif" font-weight="bold" font-size="9.00">create&#45;organization</text>
</g>
<g id="clust15" class="cluster">
<title>cluster_src/app/main/organizations/edit&#45;organization</title>
<path fill="#ffffff" stroke="black" stroke-width="2" d="M81.5,-502C81.5,-502 232.5,-502 232.5,-502 238.5,-502 244.5,-508 244.5,-514 244.5,-514 244.5,-542 244.5,-542 244.5,-548 238.5,-554 232.5,-554 232.5,-554 81.5,-554 81.5,-554 75.5,-554 69.5,-548 69.5,-542 69.5,-542 69.5,-514 69.5,-514 69.5,-508 75.5,-502 81.5,-502"/>
<text text-anchor="middle" x="157" y="-542.8" font-family="Helvetica,sans-Serif" font-weight="bold" font-size="9.00">edit&#45;organization</text>
</g>
<g id="clust16" class="cluster">
<title>cluster_src/app/main/organizations/manage</title>
<path fill="#ffffff" stroke="black" stroke-width="2" d="M52,-288C52,-288 451,-288 451,-288 457,-288 463,-294 463,-300 463,-300 463,-422 463,-422 463,-428 457,-434 451,-434 451,-434 52,-434 52,-434 46,-434 40,-428 40,-422 40,-422 40,-300 40,-300 40,-294 46,-288 52,-288"/>
<text text-anchor="middle" x="251.5" y="-422.8" font-family="Helvetica,sans-Serif" font-weight="bold" font-size="9.00">manage</text>
</g>
<g id="clust17" class="cluster">
<title>cluster_src/app/main/organizations/manage/org&#45;invite&#45;dialog</title>
<path fill="#ffffff" stroke="black" stroke-width="2" d="M296,-296C296,-296 443,-296 443,-296 449,-296 455,-302 455,-308 455,-308 455,-336 455,-336 455,-342 449,-348 443,-348 443,-348 296,-348 296,-348 290,-348 284,-342 284,-336 284,-336 284,-308 284,-308 284,-302 290,-296 296,-296"/>
<text text-anchor="middle" x="369.5" y="-336.8" font-family="Helvetica,sans-Serif" font-weight="bold" font-size="9.00">org&#45;invite&#45;dialog</text>
</g>
<g id="clust18" class="cluster">
<title>cluster_src/app/main/organizations/manage/organization&#45;member&#45;item</title>
<path fill="#ffffff" stroke="black" stroke-width="2" d="M60,-296C60,-296 254,-296 254,-296 260,-296 266,-302 266,-308 266,-308 266,-336 266,-336 266,-342 260,-348 254,-348 254,-348 60,-348 60,-348 54,-348 48,-342 48,-336 48,-336 48,-308 48,-308 48,-302 54,-296 60,-296"/>
<text text-anchor="middle" x="157" y="-336.8" font-family="Helvetica,sans-Serif" font-weight="bold" font-size="9.00">organization&#45;member&#45;item</text>
</g>
<g id="clust19" class="cluster">
<title>cluster_src/app/main/organizations/manage/organization&#45;members</title>
<path fill="#ffffff" stroke="black" stroke-width="2" d="M69,-356C69,-356 245,-356 245,-356 251,-356 257,-362 257,-368 257,-368 257,-396 257,-396 257,-402 251,-408 245,-408 245,-408 69,-408 69,-408 63,-408 57,-402 57,-396 57,-396 57,-368 57,-368 57,-362 63,-356 69,-356"/>
<text text-anchor="middle" x="157" y="-396.8" font-family="Helvetica,sans-Serif" font-weight="bold" font-size="9.00">organization&#45;members</text>
</g>
<g id="clust20" class="cluster">
<title>cluster_src/app/shared</title>
<path fill="#ffffff" stroke="black" stroke-width="2" d="M307.5,-24C307.5,-24 814,-24 814,-24 820,-24 826,-30 826,-36 826,-36 826,-252 826,-252 826,-258 820,-264 814,-264 814,-264 307.5,-264 307.5,-264 301.5,-264 295.5,-258 295.5,-252 295.5,-252 295.5,-36 295.5,-36 295.5,-30 301.5,-24 307.5,-24"/>
<text text-anchor="middle" x="560.75" y="-252.8" font-family="Helvetica,sans-Serif" font-weight="bold" font-size="9.00">shared</text>
</g>
<g id="clust21" class="cluster">
<title>cluster_src/app/shared/guards</title>
<path fill="#ffffff" stroke="black" stroke-width="2" d="M315.5,-32C315.5,-32 423.5,-32 423.5,-32 429.5,-32 435.5,-38 435.5,-44 435.5,-44 435.5,-106 435.5,-106 435.5,-112 429.5,-118 423.5,-118 423.5,-118 315.5,-118 315.5,-118 309.5,-118 303.5,-112 303.5,-106 303.5,-106 303.5,-44 303.5,-44 303.5,-38 309.5,-32 315.5,-32"/>
<text text-anchor="middle" x="369.5" y="-106.8" font-family="Helvetica,sans-Serif" font-weight="bold" font-size="9.00">guards</text>
</g>
<g id="clust22" class="cluster">
<title>cluster_src/app/shared/guards/invitation</title>
<path fill="#ffffff" stroke="black" stroke-width="2" d="M323.5,-40C323.5,-40 415.5,-40 415.5,-40 421.5,-40 427.5,-46 427.5,-52 427.5,-52 427.5,-80 427.5,-80 427.5,-86 421.5,-92 415.5,-92 415.5,-92 323.5,-92 323.5,-92 317.5,-92 311.5,-86 311.5,-80 311.5,-80 311.5,-52 311.5,-52 311.5,-46 317.5,-40 323.5,-40"/>
<text text-anchor="middle" x="369.5" y="-80.8" font-family="Helvetica,sans-Serif" font-weight="bold" font-size="9.00">invitation</text>
</g>
<g id="clust23" class="cluster">
<title>cluster_src/app/shared/services</title>
<path fill="#ffffff" stroke="black" stroke-width="2" d="M499,-32C499,-32 670,-32 670,-32 676,-32 682,-38 682,-44 682,-44 682,-226 682,-226 682,-232 676,-238 670,-238 670,-238 499,-238 499,-238 493,-238 487,-232 487,-226 487,-226 487,-44 487,-44 487,-38 493,-32 499,-32"/>
<text text-anchor="middle" x="584.5" y="-226.8" font-family="Helvetica,sans-Serif" font-weight="bold" font-size="9.00">services</text>
</g>
<g id="clust24" class="cluster">
<title>cluster_src/app/shared/services/organization&#45;invitation</title>
<path fill="#ffffff" stroke="black" stroke-width="2" d="M507,-40C507,-40 662,-40 662,-40 668,-40 674,-46 674,-52 674,-52 674,-80 674,-80 674,-86 668,-92 662,-92 662,-92 507,-92 507,-92 501,-92 495,-86 495,-80 495,-80 495,-52 495,-52 495,-46 501,-40 507,-40"/>
<text text-anchor="middle" x="584.5" y="-80.8" font-family="Helvetica,sans-Serif" font-weight="bold" font-size="9.00">organization&#45;invitation</text>
</g>
<g id="clust25" class="cluster">
<title>cluster_src/app/shared/services/organization&#45;member</title>
<path fill="#ffffff" stroke="black" stroke-width="2" d="M509.5,-100C509.5,-100 659.5,-100 659.5,-100 665.5,-100 671.5,-106 671.5,-112 671.5,-112 671.5,-140 671.5,-140 671.5,-146 665.5,-152 659.5,-152 659.5,-152 509.5,-152 509.5,-152 503.5,-152 497.5,-146 497.5,-140 497.5,-140 497.5,-112 497.5,-112 497.5,-106 503.5,-100 509.5,-100"/>
<text text-anchor="middle" x="584.5" y="-140.8" font-family="Helvetica,sans-Serif" font-weight="bold" font-size="9.00">organization&#45;member</text>
</g>
<g id="clust26" class="cluster">
<title>cluster_src/app/shared/services/organization</title>
<path fill="#ffffff" stroke="black" stroke-width="2" d="M529.5,-160C529.5,-160 639.5,-160 639.5,-160 645.5,-160 651.5,-166 651.5,-172 651.5,-172 651.5,-200 651.5,-200 651.5,-206 645.5,-212 639.5,-212 639.5,-212 529.5,-212 529.5,-212 523.5,-212 517.5,-206 517.5,-200 517.5,-200 517.5,-172 517.5,-172 517.5,-166 523.5,-160 529.5,-160"/>
<text text-anchor="middle" x="584.5" y="-200.8" font-family="Helvetica,sans-Serif" font-weight="bold" font-size="9.00">organization</text>
</g>
<g id="clust27" class="cluster">
<title>cluster_src/app/shared/utils</title>
<path fill="#ffffff" stroke="black" stroke-width="2" d="M702,-92C702,-92 806,-92 806,-92 812,-92 818,-98 818,-104 818,-104 818,-166 818,-166 818,-172 812,-178 806,-178 806,-178 702,-178 702,-178 696,-178 690,-172 690,-166 690,-166 690,-104 690,-104 690,-98 696,-92 702,-92"/>
<text text-anchor="middle" x="754" y="-166.8" font-family="Helvetica,sans-Serif" font-weight="bold" font-size="9.00">utils</text>
</g>
<g id="clust28" class="cluster">
<title>cluster_src/app/shared/utils/paramsHandler</title>
<path fill="#ffffff" stroke="black" stroke-width="2" d="M710,-100C710,-100 798,-100 798,-100 804,-100 810,-106 810,-112 810,-112 810,-140 810,-140 810,-146 804,-152 798,-152 798,-152 710,-152 710,-152 704,-152 698,-146 698,-140 698,-140 698,-112 698,-112 698,-106 704,-100 710,-100"/>
<text text-anchor="middle" x="754" y="-140.8" font-family="Helvetica,sans-Serif" font-weight="bold" font-size="9.00">paramsHandler</text>
</g>
<g id="clust29" class="cluster">
<title>cluster_src/environments</title>
<path fill="#ffffff" stroke="black" stroke-width="2" d="M715,-1102C715,-1102 793,-1102 793,-1102 799,-1102 805,-1108 805,-1114 805,-1114 805,-1142 805,-1142 805,-1148 799,-1154 793,-1154 793,-1154 715,-1154 715,-1154 709,-1154 703,-1148 703,-1142 703,-1142 703,-1114 703,-1114 703,-1108 709,-1102 715,-1102"/>
<text text-anchor="middle" x="754" y="-1142.8" font-family="Helvetica,sans-Serif" font-weight="bold" font-size="9.00">environments</text>
</g>
<!-- src/app/auth/login/login.component.ts -->
<g id="node1" class="node">
<title>src/app/auth/login/login.component.ts</title>
<g id="a_node1"><a xlink:href="src/app/auth/login/login.component.ts" xlink:title="login.component.ts">
<path fill="#ddfeff" stroke="black" d="M415.5,-1016C415.5,-1016 323.5,-1016 323.5,-1016 320.5,-1016 317.5,-1013 317.5,-1010 317.5,-1010 317.5,-1004 317.5,-1004 317.5,-1001 320.5,-998 323.5,-998 323.5,-998 415.5,-998 415.5,-998 418.5,-998 421.5,-1001 421.5,-1004 421.5,-1004 421.5,-1010 421.5,-1010 421.5,-1013 418.5,-1016 415.5,-1016"/>
<text text-anchor="start" x="325.5" y="-1004.8" font-family="Helvetica,sans-Serif" font-size="9.00">login.component.ts</text>
</a>
</g>
</g>
<!-- src/app/shared/services/organization&#45;invitation/organization&#45;invitation.service.ts -->
<g id="node2" class="node">
<title>src/app/shared/services/organization&#45;invitation/organization&#45;invitation.service.ts</title>
<g id="a_node2"><a xlink:href="src/app/shared/services/organization-invitation/organization-invitation.service.ts" xlink:title="organization&#45;invitation.service.ts">
<path fill="#ddfeff" stroke="black" d="M660,-66C660,-66 509,-66 509,-66 506,-66 503,-63 503,-60 503,-60 503,-54 503,-54 503,-51 506,-48 509,-48 509,-48 660,-48 660,-48 663,-48 666,-51 666,-54 666,-54 666,-60 666,-60 666,-63 663,-66 660,-66"/>
<text text-anchor="start" x="511" y="-54.8" font-family="Helvetica,sans-Serif" font-size="9.00">organization&#45;invitation.service.ts</text>
</a>
</g>
</g>
<!-- src/app/auth/login/login.component.ts&#45;&gt;src/app/shared/services/organization&#45;invitation/organization&#45;invitation.service.ts -->
<g id="edge1" class="edge">
<title>src/app/auth/login/login.component.ts&#45;&gt;src/app/shared/services/organization&#45;invitation/organization&#45;invitation.service.ts</title>
<path fill="none" stroke="#000000" stroke-width="2" stroke-opacity="0.200000" d="M409.17,-997.98C433.77,-990.03 463.77,-975.73 479,-951 491.44,-930.8 473.73,-116.66 487,-97 496.4,-83.08 511.63,-73.99 527.24,-68.07"/>
<polygon fill="#000000" fill-opacity="0.200000" stroke="#000000" stroke-width="2" stroke-opacity="0.200000" points="528.04,-70.01 533,-66.02 526.64,-66.05 528.04,-70.01"/>
</g>
<!-- src/environments/environment.ts -->
<g id="node16" class="node">
<title>src/environments/environment.ts</title>
<g id="a_node16"><a xlink:href="src/environments/environment.ts" xlink:title="environment.ts">
<path fill="#ddfeff" stroke="black" d="M791,-1128C791,-1128 717,-1128 717,-1128 714,-1128 711,-1125 711,-1122 711,-1122 711,-1116 711,-1116 711,-1113 714,-1110 717,-1110 717,-1110 791,-1110 791,-1110 794,-1110 797,-1113 797,-1116 797,-1116 797,-1122 797,-1122 797,-1125 794,-1128 791,-1128"/>
<text text-anchor="start" x="719" y="-1116.8" font-family="Helvetica,sans-Serif" font-size="9.00">environment.ts</text>
</a>
</g>
</g>
<!-- src/app/shared/services/organization&#45;invitation/organization&#45;invitation.service.ts&#45;&gt;src/environments/environment.ts -->
<g id="edge14" class="edge">
<title>src/app/shared/services/organization&#45;invitation/organization&#45;invitation.service.ts&#45;&gt;src/environments/environment.ts</title>
<path fill="none" stroke="#000000" stroke-width="2" stroke-opacity="0.200000" d="M634.5,-66.03C652.3,-71.85 670.77,-81.39 682,-97 689.71,-107.72 744.22,-978.18 752.06,-1103.93"/>
<polygon fill="#000000" fill-opacity="0.200000" stroke="#000000" stroke-width="2" stroke-opacity="0.200000" points="749.97,-1104.1 752.44,-1109.95 754.16,-1103.83 749.97,-1104.1"/>
</g>
<!-- src/app/shared/utils/paramsHandler/paramsHandler.ts -->
<g id="node17" class="node">
<title>src/app/shared/utils/paramsHandler/paramsHandler.ts</title>
<g id="a_node17"><a xlink:href="src/app/shared/utils/paramsHandler/paramsHandler.ts" xlink:title="paramsHandler.ts">
<path fill="#ddfeff" stroke="black" d="M796,-126C796,-126 712,-126 712,-126 709,-126 706,-123 706,-120 706,-120 706,-114 706,-114 706,-111 709,-108 712,-108 712,-108 796,-108 796,-108 799,-108 802,-111 802,-114 802,-114 802,-120 802,-120 802,-123 799,-126 796,-126"/>
<text text-anchor="start" x="714" y="-114.8" font-family="Helvetica,sans-Serif" font-size="9.00">paramsHandler.ts</text>
</a>
</g>
</g>
<!-- src/app/shared/services/organization&#45;invitation/organization&#45;invitation.service.ts&#45;&gt;src/app/shared/utils/paramsHandler/paramsHandler.ts -->
<g id="edge15" class="edge">
<title>src/app/shared/services/organization&#45;invitation/organization&#45;invitation.service.ts&#45;&gt;src/app/shared/utils/paramsHandler/paramsHandler.ts</title>
<path fill="none" stroke="#000000" stroke-width="2" stroke-opacity="0.200000" d="M610.94,-66.11C640.75,-76.79 690.13,-94.48 722.11,-105.93"/>
<polygon fill="#000000" fill-opacity="0.200000" stroke="#000000" stroke-width="2" stroke-opacity="0.200000" points="721.51,-107.95 727.87,-108 722.93,-104 721.51,-107.95"/>
</g>
<!-- src/app/layouts/main&#45;layout/main&#45;layout.component.ts -->
<g id="node3" class="node">
<title>src/app/layouts/main&#45;layout/main&#45;layout.component.ts</title>
<g id="a_node3"><a xlink:href="src/app/layouts/main-layout/main-layout.component.ts" xlink:title="main&#45;layout.component.ts">
<path fill="#ddfeff" stroke="black" d="M431.5,-922C431.5,-922 307.5,-922 307.5,-922 304.5,-922 301.5,-919 301.5,-916 301.5,-916 301.5,-910 301.5,-910 301.5,-907 304.5,-904 307.5,-904 307.5,-904 431.5,-904 431.5,-904 434.5,-904 437.5,-907 437.5,-910 437.5,-910 437.5,-916 437.5,-916 437.5,-919 434.5,-922 431.5,-922"/>
<text text-anchor="start" x="309.5" y="-910.8" font-family="Helvetica,sans-Serif" font-size="9.00">main&#45;layout.component.ts</text>
</a>
</g>
</g>
<!-- src/app/shared/services/organization/organization.service.ts -->
<g id="node4" class="node">
<title>src/app/shared/services/organization/organization.service.ts</title>
<g id="a_node4"><a xlink:href="src/app/shared/services/organization/organization.service.ts" xlink:title="organization.service.ts">
<path fill="#ddfeff" stroke="black" d="M637.5,-186C637.5,-186 531.5,-186 531.5,-186 528.5,-186 525.5,-183 525.5,-180 525.5,-180 525.5,-174 525.5,-174 525.5,-171 528.5,-168 531.5,-168 531.5,-168 637.5,-168 637.5,-168 640.5,-168 643.5,-171 643.5,-174 643.5,-174 643.5,-180 643.5,-180 643.5,-183 640.5,-186 637.5,-186"/>
<text text-anchor="start" x="533.5" y="-174.8" font-family="Helvetica,sans-Serif" font-size="9.00">organization.service.ts</text>
</a>
</g>
</g>
<!-- src/app/layouts/main&#45;layout/main&#45;layout.component.ts&#45;&gt;src/app/shared/services/organization/organization.service.ts -->
<g id="edge2" class="edge">
<title>src/app/layouts/main&#45;layout/main&#45;layout.component.ts&#45;&gt;src/app/shared/services/organization/organization.service.ts</title>
<path fill="none" stroke="#000000" stroke-width="2" stroke-opacity="0.200000" d="M380.23,-903.91C401.89,-883.06 454.12,-829.24 479,-773 574.3,-557.54 582.82,-262.19 583.47,-192.27"/>
<polygon fill="#000000" fill-opacity="0.200000" stroke="#000000" stroke-width="2" stroke-opacity="0.200000" points="585.57,-192.23 583.51,-186.22 581.37,-192.21 585.57,-192.23"/>
</g>
<!-- src/app/shared/services/organization/organization.service.ts&#45;&gt;src/environments/environment.ts -->
<g id="edge18" class="edge">
<title>src/app/shared/services/organization/organization.service.ts&#45;&gt;src/environments/environment.ts</title>
<path fill="none" stroke="#000000" stroke-width="2" stroke-opacity="0.200000" d="M587.1,-186.02C602.88,-274.73 730.08,-990.11 750.3,-1103.8"/>
<polygon fill="#000000" fill-opacity="0.200000" stroke="#000000" stroke-width="2" stroke-opacity="0.200000" points="748.26,-1104.33 751.38,-1109.87 752.39,-1103.59 748.26,-1104.33"/>
</g>
<!-- src/app/shared/services/organization/organization.service.ts&#45;&gt;src/app/shared/utils/paramsHandler/paramsHandler.ts -->
<g id="edge19" class="edge">
<title>src/app/shared/services/organization/organization.service.ts&#45;&gt;src/app/shared/utils/paramsHandler/paramsHandler.ts</title>
<path fill="none" stroke="#000000" stroke-width="2" stroke-opacity="0.200000" d="M636.83,-167.97C651.65,-164.65 667.68,-160.36 682,-155 700.27,-148.17 719.71,-137.5 733.62,-129.21"/>
<polygon fill="#000000" fill-opacity="0.200000" stroke="#000000" stroke-width="2" stroke-opacity="0.200000" points="734.8,-130.94 738.85,-126.04 732.63,-127.35 734.8,-130.94"/>
</g>
<!-- src/app/main/manage/members/project&#45;invite&#45;dialog/project&#45;invite&#45;dialog.component.ts -->
<g id="node5" class="node">
<title>src/app/main/manage/members/project&#45;invite&#45;dialog/project&#45;invite&#45;dialog.component.ts</title>
<g id="a_node5"><a xlink:href="src/app/main/manage/members/project-invite-dialog/project-invite-dialog.component.ts" xlink:title="project&#45;invite&#45;dialog.component.ts">
<path fill="#ddfeff" stroke="black" d="M237,-656C237,-656 77,-656 77,-656 74,-656 71,-653 71,-650 71,-650 71,-644 71,-644 71,-641 74,-638 77,-638 77,-638 237,-638 237,-638 240,-638 243,-641 243,-644 243,-644 243,-650 243,-650 243,-653 240,-656 237,-656"/>
<text text-anchor="start" x="79" y="-644.8" font-family="Helvetica,sans-Serif" font-size="9.00">project&#45;invite&#45;dialog.component.ts</text>
</a>
</g>
</g>
<!-- src/app/shared/services/organization&#45;member/organization&#45;member.service.ts -->
<g id="node6" class="node">
<title>src/app/shared/services/organization&#45;member/organization&#45;member.service.ts</title>
<g id="a_node6"><a xlink:href="src/app/shared/services/organization-member/organization-member.service.ts" xlink:title="organization&#45;member.service.ts">
<path fill="#ddfeff" stroke="black" d="M657.5,-126C657.5,-126 511.5,-126 511.5,-126 508.5,-126 505.5,-123 505.5,-120 505.5,-120 505.5,-114 505.5,-114 505.5,-111 508.5,-108 511.5,-108 511.5,-108 657.5,-108 657.5,-108 660.5,-108 663.5,-111 663.5,-114 663.5,-114 663.5,-120 663.5,-120 663.5,-123 660.5,-126 657.5,-126"/>
<text text-anchor="start" x="513.5" y="-114.8" font-family="Helvetica,sans-Serif" font-size="9.00">organization&#45;member.service.ts</text>
</a>
</g>
</g>
<!-- src/app/main/manage/members/project&#45;invite&#45;dialog/project&#45;invite&#45;dialog.component.ts&#45;&gt;src/app/shared/services/organization&#45;member/organization&#45;member.service.ts -->
<g id="edge3" class="edge">
<title>src/app/main/manage/members/project&#45;invite&#45;dialog/project&#45;invite&#45;dialog.component.ts&#45;&gt;src/app/shared/services/organization&#45;member/organization&#45;member.service.ts</title>
<path fill="none" stroke="#000000" stroke-width="2" stroke-opacity="0.200000" d="M204.1,-637.99C226.95,-632.12 254.24,-622.91 276,-609 388.11,-537.37 428.44,-512.06 479,-389 488.8,-365.14 472.31,-178.2 487,-157 496.62,-143.13 512,-134.06 527.68,-128.13"/>
<polygon fill="#000000" fill-opacity="0.200000" stroke="#000000" stroke-width="2" stroke-opacity="0.200000" points="528.5,-130.06 533.46,-126.08 527.1,-126.1 528.5,-130.06"/>
</g>
<!-- src/app/shared/services/organization&#45;member/organization&#45;member.service.ts&#45;&gt;src/environments/environment.ts -->
<g id="edge16" class="edge">
<title>src/app/shared/services/organization&#45;member/organization&#45;member.service.ts&#45;&gt;src/environments/environment.ts</title>
<path fill="none" stroke="#000000" stroke-width="2" stroke-opacity="0.200000" d="M634.47,-126.06C652.26,-131.88 670.74,-141.42 682,-157 739.82,-237.02 751.36,-985.82 752.82,-1103.48"/>
<polygon fill="#000000" fill-opacity="0.200000" stroke="#000000" stroke-width="2" stroke-opacity="0.200000" points="750.73,-1103.77 752.9,-1109.74 754.93,-1103.72 750.73,-1103.77"/>
</g>
<!-- src/app/shared/services/organization&#45;member/organization&#45;member.service.ts&#45;&gt;src/app/shared/utils/paramsHandler/paramsHandler.ts -->
<g id="edge17" class="edge">
<title>src/app/shared/services/organization&#45;member/organization&#45;member.service.ts&#45;&gt;src/app/shared/utils/paramsHandler/paramsHandler.ts</title>
<path fill="none" stroke="#000000" stroke-width="2" stroke-opacity="0.200000" d="M663.86,-117C675.92,-117 688.14,-117 699.5,-117"/>
<polygon fill="#000000" fill-opacity="0.200000" stroke="#000000" stroke-width="2" stroke-opacity="0.200000" points="699.72,-119.1 705.72,-117 699.72,-114.9 699.72,-119.1"/>
</g>
<!-- src/app/main/organization&#45;invitation/organization&#45;invitation&#45;item/organization&#45;invitation&#45;item.component.ts -->
<g id="node7" class="node">
<title>src/app/main/organization&#45;invitation/organization&#45;invitation&#45;item/organization&#45;invitation&#45;item.component.ts</title>
<g id="a_node7"><a xlink:href="src/app/main/organization-invitation/organization-invitation-item/organization-invitation-item.component.ts" xlink:title="organization&#45;invitation&#45;item.component.ts">
<path fill="#ddfeff" stroke="black" d="M254,-776C254,-776 60,-776 60,-776 57,-776 54,-773 54,-770 54,-770 54,-764 54,-764 54,-761 57,-758 60,-758 60,-758 254,-758 254,-758 257,-758 260,-761 260,-764 260,-764 260,-770 260,-770 260,-773 257,-776 254,-776"/>
<text text-anchor="start" x="62" y="-764.8" font-family="Helvetica,sans-Serif" font-size="9.00">organization&#45;invitation&#45;item.component.ts</text>
</a>
</g>
</g>
<!-- src/app/main/organization&#45;invitation/organization&#45;invitation&#45;item/organization&#45;invitation&#45;item.component.ts&#45;&gt;src/app/shared/services/organization&#45;invitation/organization&#45;invitation.service.ts -->
<g id="edge4" class="edge">
<title>src/app/main/organization&#45;invitation/organization&#45;invitation&#45;item/organization&#45;invitation&#45;item.component.ts&#45;&gt;src/app/shared/services/organization&#45;invitation/organization&#45;invitation.service.ts</title>
<path fill="none" stroke="#000000" stroke-width="2" stroke-opacity="0.200000" d="M175.71,-757.81C200.41,-744.35 245.58,-717.35 276,-685 395.02,-558.47 429.53,-517.52 479,-351 487.04,-323.93 470.95,-120.23 487,-97 496.6,-83.11 511.97,-74.04 527.65,-68.11"/>
<polygon fill="#000000" fill-opacity="0.200000" stroke="#000000" stroke-width="2" stroke-opacity="0.200000" points="528.48,-70.04 533.43,-66.06 527.07,-66.09 528.48,-70.04"/>
</g>
<!-- src/app/main/organization&#45;invitation/organization&#45;invitation.component.ts -->
<g id="node8" class="node">
<title>src/app/main/organization&#45;invitation/organization&#45;invitation.component.ts</title>
<g id="a_node8"><a xlink:href="src/app/main/organization-invitation/organization-invitation.component.ts" xlink:title="organization&#45;invitation.component.ts">
<path fill="#ddfeff" stroke="black" d="M242.5,-828C242.5,-828 71.5,-828 71.5,-828 68.5,-828 65.5,-825 65.5,-822 65.5,-822 65.5,-816 65.5,-816 65.5,-813 68.5,-810 71.5,-810 71.5,-810 242.5,-810 242.5,-810 245.5,-810 248.5,-813 248.5,-816 248.5,-816 248.5,-822 248.5,-822 248.5,-825 245.5,-828 242.5,-828"/>
<text text-anchor="start" x="73.5" y="-816.8" font-family="Helvetica,sans-Serif" font-size="9.00">organization&#45;invitation.component.ts</text>
</a>
</g>
</g>
<!-- src/app/main/organization&#45;invitation/organization&#45;invitation.component.ts&#45;&gt;src/app/shared/services/organization&#45;invitation/organization&#45;invitation.service.ts -->
<g id="edge5" class="edge">
<title>src/app/main/organization&#45;invitation/organization&#45;invitation.component.ts&#45;&gt;src/app/shared/services/organization&#45;invitation/organization&#45;invitation.service.ts</title>
<path fill="none" stroke="#000000" stroke-width="2" stroke-opacity="0.200000" d="M248.59,-816.29C258.25,-813.69 267.59,-810.04 276,-805 411.26,-723.94 430.27,-663.98 479,-514 486.16,-491.96 473.95,-116.14 487,-97 496.46,-83.12 511.71,-74.05 527.32,-68.12"/>
<polygon fill="#000000" fill-opacity="0.200000" stroke="#000000" stroke-width="2" stroke-opacity="0.200000" points="528.13,-70.07 533.08,-66.08 526.72,-66.11 528.13,-70.07"/>
</g>
<!-- src/app/main/organizations/create&#45;organization/create&#45;organization.component.ts -->
<g id="node9" class="node">
<title>src/app/main/organizations/create&#45;organization/create&#45;organization.component.ts</title>
<g id="a_node9"><a xlink:href="src/app/main/organizations/create-organization/create-organization.component.ts" xlink:title="create&#45;organization.component.ts">
<path fill="#ddfeff" stroke="black" d="M236,-468C236,-468 78,-468 78,-468 75,-468 72,-465 72,-462 72,-462 72,-456 72,-456 72,-453 75,-450 78,-450 78,-450 236,-450 236,-450 239,-450 242,-453 242,-456 242,-456 242,-462 242,-462 242,-465 239,-468 236,-468"/>
<text text-anchor="start" x="80" y="-456.8" font-family="Helvetica,sans-Serif" font-size="9.00">create&#45;organization.component.ts</text>
</a>
</g>
</g>
<!-- src/app/main/organizations/create&#45;organization/create&#45;organization.component.ts&#45;&gt;src/app/shared/services/organization/organization.service.ts -->
<g id="edge6" class="edge">
<title>src/app/main/organizations/create&#45;organization/create&#45;organization.component.ts&#45;&gt;src/app/shared/services/organization/organization.service.ts</title>
<path fill="none" stroke="#000000" stroke-width="2" stroke-opacity="0.200000" d="M242.17,-460.08C312.33,-456.78 411.38,-441.89 479,-389 545.3,-337.14 572.45,-232.27 580.62,-192.64"/>
<polygon fill="#000000" fill-opacity="0.200000" stroke="#000000" stroke-width="2" stroke-opacity="0.200000" points="582.74,-192.74 581.85,-186.44 578.62,-191.92 582.74,-192.74"/>
</g>
<!-- src/app/main/organizations/edit&#45;organization/edit&#45;organization.component.ts -->
<g id="node10" class="node">
<title>src/app/main/organizations/edit&#45;organization/edit&#45;organization.component.ts</title>
<g id="a_node10"><a xlink:href="src/app/main/organizations/edit-organization/edit-organization.component.ts" xlink:title="edit&#45;organization.component.ts">
<path fill="#ddfeff" stroke="black" d="M230.5,-528C230.5,-528 83.5,-528 83.5,-528 80.5,-528 77.5,-525 77.5,-522 77.5,-522 77.5,-516 77.5,-516 77.5,-513 80.5,-510 83.5,-510 83.5,-510 230.5,-510 230.5,-510 233.5,-510 236.5,-513 236.5,-516 236.5,-516 236.5,-522 236.5,-522 236.5,-525 233.5,-528 230.5,-528"/>
<text text-anchor="start" x="85.5" y="-516.8" font-family="Helvetica,sans-Serif" font-size="9.00">edit&#45;organization.component.ts</text>
</a>
</g>
</g>
<!-- src/app/main/organizations/edit&#45;organization/edit&#45;organization.component.ts&#45;&gt;src/app/shared/services/organization/organization.service.ts -->
<g id="edge7" class="edge">
<title>src/app/main/organizations/edit&#45;organization/edit&#45;organization.component.ts&#45;&gt;src/app/shared/services/organization/organization.service.ts</title>
<path fill="none" stroke="#000000" stroke-width="2" stroke-opacity="0.200000" d="M216.01,-510C235.24,-506.53 256.67,-502.15 276,-497 368.36,-472.39 409.39,-491.5 479,-426 550.45,-358.77 574.91,-235.08 581.47,-192.15"/>
<polygon fill="#000000" fill-opacity="0.200000" stroke="#000000" stroke-width="2" stroke-opacity="0.200000" points="583.55,-192.44 582.34,-186.19 579.39,-191.83 583.55,-192.44"/>
</g>
<!-- src/app/main/organizations/manage/org&#45;invite&#45;dialog/org&#45;invite&#45;dialog.component.ts -->
<g id="node11" class="node">
<title>src/app/main/organizations/manage/org&#45;invite&#45;dialog/org&#45;invite&#45;dialog.component.ts</title>
<g id="a_node11"><a xlink:href="src/app/main/organizations/manage/org-invite-dialog/org-invite-dialog.component.ts" xlink:title="org&#45;invite&#45;dialog.component.ts">
<path fill="#ddfeff" stroke="black" d="M441,-322C441,-322 298,-322 298,-322 295,-322 292,-319 292,-316 292,-316 292,-310 292,-310 292,-307 295,-304 298,-304 298,-304 441,-304 441,-304 444,-304 447,-307 447,-310 447,-310 447,-316 447,-316 447,-319 444,-322 441,-322"/>
<text text-anchor="start" x="300" y="-310.8" font-family="Helvetica,sans-Serif" font-size="9.00">org&#45;invite&#45;dialog.component.ts</text>
</a>
</g>
</g>
<!-- src/app/main/organizations/manage/org&#45;invite&#45;dialog/org&#45;invite&#45;dialog.component.ts&#45;&gt;src/app/shared/services/organization&#45;invitation/organization&#45;invitation.service.ts -->
<g id="edge8" class="edge">
<title>src/app/main/organizations/manage/org&#45;invite&#45;dialog/org&#45;invite&#45;dialog.component.ts&#45;&gt;src/app/shared/services/organization&#45;invitation/organization&#45;invitation.service.ts</title>
<path fill="none" stroke="#000000" stroke-width="2" stroke-opacity="0.200000" d="M373.01,-303.8C382.39,-271.08 418.39,-158.97 487,-97 501.87,-83.57 521.89,-74.28 539.83,-68.06"/>
<polygon fill="#000000" fill-opacity="0.200000" stroke="#000000" stroke-width="2" stroke-opacity="0.200000" points="540.8,-69.95 545.83,-66.06 539.47,-65.96 540.8,-69.95"/>
</g>
<!-- src/app/main/organizations/manage/organization&#45;member&#45;item/organization&#45;member&#45;item.component.ts -->
<g id="node12" class="node">
<title>src/app/main/organizations/manage/organization&#45;member&#45;item/organization&#45;member&#45;item.component.ts</title>
<g id="a_node12"><a xlink:href="src/app/main/organizations/manage/organization-member-item/organization-member-item.component.ts" xlink:title="organization&#45;member&#45;item.component.ts">
<path fill="#ddfeff" stroke="black" d="M252,-322C252,-322 62,-322 62,-322 59,-322 56,-319 56,-316 56,-316 56,-310 56,-310 56,-307 59,-304 62,-304 62,-304 252,-304 252,-304 255,-304 258,-307 258,-310 258,-310 258,-316 258,-316 258,-319 255,-322 252,-322"/>
<text text-anchor="start" x="64" y="-310.8" font-family="Helvetica,sans-Serif" font-size="9.00">organization&#45;member&#45;item.component.ts</text>
</a>
</g>
</g>
<!-- src/app/main/organizations/manage/organization&#45;member&#45;item/organization&#45;member&#45;item.component.ts&#45;&gt;src/app/shared/services/organization&#45;member/organization&#45;member.service.ts -->
<g id="edge9" class="edge">
<title>src/app/main/organizations/manage/organization&#45;member&#45;item/organization&#45;member&#45;item.component.ts&#45;&gt;src/app/shared/services/organization&#45;member/organization&#45;member.service.ts</title>
<path fill="none" stroke="#000000" stroke-width="2" stroke-opacity="0.200000" d="M180.76,-322.08C205.65,-331.47 246.93,-345.53 284,-351 326.87,-357.32 447.73,-381 479,-351 494.57,-336.06 474.65,-174.69 487,-157 496.71,-143.09 512.2,-134.01 527.96,-128.08"/>
<polygon fill="#000000" fill-opacity="0.200000" stroke="#000000" stroke-width="2" stroke-opacity="0.200000" points="528.8,-130.01 533.76,-126.04 527.41,-126.05 528.8,-130.01"/>
</g>
<!-- src/app/main/organizations/manage/organization&#45;members/organization&#45;members.component.ts -->
<g id="node13" class="node">
<title>src/app/main/organizations/manage/organization&#45;members/organization&#45;members.component.ts</title>
<g id="a_node13"><a xlink:href="src/app/main/organizations/manage/organization-members/organization-members.component.ts" xlink:title="organization&#45;members.component.ts">
<path fill="#ddfeff" stroke="black" d="M243,-382C243,-382 71,-382 71,-382 68,-382 65,-379 65,-376 65,-376 65,-370 65,-370 65,-367 68,-364 71,-364 71,-364 243,-364 243,-364 246,-364 249,-367 249,-370 249,-370 249,-376 249,-376 249,-379 246,-382 243,-382"/>
<text text-anchor="start" x="73" y="-370.8" font-family="Helvetica,sans-Serif" font-size="9.00">organization&#45;members.component.ts</text>
</a>
</g>
</g>
<!-- src/app/main/organizations/manage/organization&#45;members/organization&#45;members.component.ts&#45;&gt;src/app/shared/services/organization&#45;member/organization&#45;member.service.ts -->
<g id="edge10" class="edge">
<title>src/app/main/organizations/manage/organization&#45;members/organization&#45;members.component.ts&#45;&gt;src/app/shared/services/organization&#45;member/organization&#45;member.service.ts</title>
<path fill="none" stroke="#000000" stroke-width="2" stroke-opacity="0.200000" d="M183.26,-382.05C243.93,-401.98 398.77,-441.85 479,-362 495.16,-345.92 473.97,-175.7 487,-157 496.69,-143.08 512.18,-134 527.94,-128.07"/>
<polygon fill="#000000" fill-opacity="0.200000" stroke="#000000" stroke-width="2" stroke-opacity="0.200000" points="528.78,-130 533.75,-126.02 527.39,-126.04 528.78,-130"/>
</g>
<!-- src/app/main/organizations/manage/organization&#45;members/organization&#45;members.component.ts&#45;&gt;src/app/main/organizations/manage/org&#45;invite&#45;dialog/org&#45;invite&#45;dialog.component.ts -->
<g id="edge11" class="edge">
<title>src/app/main/organizations/manage/organization&#45;members/organization&#45;members.component.ts&#45;&gt;src/app/main/organizations/manage/org&#45;invite&#45;dialog/org&#45;invite&#45;dialog.component.ts</title>
<path fill="none" stroke="#000000" stroke-width="2" stroke-opacity="0.200000" d="M219.51,-364C237.87,-360.65 257.91,-356.34 276,-351 299.64,-344.02 325.5,-333.1 343.86,-324.75"/>
<polygon fill="#000000" fill-opacity="0.200000" stroke="#000000" stroke-width="2" stroke-opacity="0.200000" points="345.2,-326.44 349.78,-322.03 343.45,-322.63 345.2,-326.44"/>
</g>
<!-- src/app/main/organizations/organizations.component.ts -->
<g id="node14" class="node">
<title>src/app/main/organizations/organizations.component.ts</title>
<g id="a_node14"><a xlink:href="src/app/main/organizations/organizations.component.ts" xlink:title="organizations.component.ts">
<path fill="#ddfeff" stroke="black" d="M222.5,-580C222.5,-580 91.5,-580 91.5,-580 88.5,-580 85.5,-577 85.5,-574 85.5,-574 85.5,-568 85.5,-568 85.5,-565 88.5,-562 91.5,-562 91.5,-562 222.5,-562 222.5,-562 225.5,-562 228.5,-565 228.5,-568 228.5,-568 228.5,-574 228.5,-574 228.5,-577 225.5,-580 222.5,-580"/>
<text text-anchor="start" x="93.5" y="-568.8" font-family="Helvetica,sans-Serif" font-size="9.00">organizations.component.ts</text>
</a>
</g>
</g>
<!-- src/app/main/organizations/organizations.component.ts&#45;&gt;src/app/shared/services/organization/organization.service.ts -->
<g id="edge12" class="edge">
<title>src/app/main/organizations/organizations.component.ts&#45;&gt;src/app/shared/services/organization/organization.service.ts</title>
<path fill="none" stroke="#000000" stroke-width="2" stroke-opacity="0.200000" d="M228.6,-566.76C301.69,-558.51 414.07,-534.37 479,-464 555.26,-381.35 576.88,-238.68 582.06,-192.15"/>
<polygon fill="#000000" fill-opacity="0.200000" stroke="#000000" stroke-width="2" stroke-opacity="0.200000" points="584.17,-192.19 582.71,-186 579.99,-191.75 584.17,-192.19"/>
</g>
<!-- src/app/shared/guards/invitation/invitation.guard.ts -->
<g id="node15" class="node">
<title>src/app/shared/guards/invitation/invitation.guard.ts</title>
<g id="a_node15"><a xlink:href="src/app/shared/guards/invitation/invitation.guard.ts" xlink:title="invitation.guard.ts">
<path fill="#ddfeff" stroke="black" d="M413.5,-66C413.5,-66 325.5,-66 325.5,-66 322.5,-66 319.5,-63 319.5,-60 319.5,-60 319.5,-54 319.5,-54 319.5,-51 322.5,-48 325.5,-48 325.5,-48 413.5,-48 413.5,-48 416.5,-48 419.5,-51 419.5,-54 419.5,-54 419.5,-60 419.5,-60 419.5,-63 416.5,-66 413.5,-66"/>
<text text-anchor="start" x="327.5" y="-54.8" font-family="Helvetica,sans-Serif" font-size="9.00">invitation.guard.ts</text>
</a>
</g>
</g>
<!-- src/app/shared/guards/invitation/invitation.guard.ts&#45;&gt;src/app/shared/services/organization&#45;invitation/organization&#45;invitation.service.ts -->
<g id="edge13" class="edge">
<title>src/app/shared/guards/invitation/invitation.guard.ts&#45;&gt;src/app/shared/services/organization&#45;invitation/organization&#45;invitation.service.ts</title>
<path fill="none" stroke="#000000" stroke-width="2" stroke-opacity="0.200000" d="M419.63,-57C442.5,-57 470.38,-57 496.63,-57"/>
<polygon fill="#000000" fill-opacity="0.200000" stroke="#000000" stroke-width="2" stroke-opacity="0.200000" points="496.9,-59.1 502.9,-57 496.9,-54.9 496.9,-59.1"/>
</g>
</g>
</svg>
