<?xml version="1.0" encoding="UTF-8" standalone="no"?>
<!DOCTYPE svg PUBLIC "-//W3C//DTD SVG 1.1//EN"
 "http://www.w3.org/Graphics/SVG/1.1/DTD/svg11.dtd">
<!-- Generated by graphviz version 2.43.0 (0)
 -->
<!-- Title: dependency&#45;cruiser output Pages: 1 -->
<svg width="502pt" height="366pt"
 viewBox="0.00 0.00 502.00 366.00" xmlns="http://www.w3.org/2000/svg" xmlns:xlink="http://www.w3.org/1999/xlink">
<g id="graph0" class="graph" transform="scale(1 1) rotate(0) translate(4 362)">
<title>dependency&#45;cruiser output</title>
<polygon fill="white" stroke="transparent" points="-4,4 -4,-362 498,-362 498,4 -4,4"/>
<g id="clust1" class="cluster">
<title>cluster_src</title>
<path fill="#ffffff" stroke="black" stroke-width="2" d="M20,-8C20,-8 474,-8 474,-8 480,-8 486,-14 486,-20 486,-20 486,-338 486,-338 486,-344 480,-350 474,-350 474,-350 20,-350 20,-350 14,-350 8,-344 8,-338 8,-338 8,-20 8,-20 8,-14 14,-8 20,-8"/>
<text text-anchor="middle" x="247" y="-338.8" font-family="Helvetica,sans-Serif" font-weight="bold" font-size="9.00">src</text>
</g>
<g id="clust2" class="cluster">
<title>cluster_src/app</title>
<path fill="#ffffff" stroke="black" stroke-width="2" d="M28,-16C28,-16 466,-16 466,-16 472,-16 478,-22 478,-28 478,-28 478,-312 478,-312 478,-318 472,-324 466,-324 466,-324 28,-324 28,-324 22,-324 16,-318 16,-312 16,-312 16,-28 16,-28 16,-22 22,-16 28,-16"/>
<text text-anchor="middle" x="247" y="-312.8" font-family="Helvetica,sans-Serif" font-weight="bold" font-size="9.00">app</text>
</g>
<g id="clust3" class="cluster">
<title>cluster_src/app/auth</title>
<path fill="#ffffff" stroke="black" stroke-width="2" d="M121,-126C121,-126 296,-126 296,-126 302,-126 308,-132 308,-138 308,-138 308,-200 308,-200 308,-206 302,-212 296,-212 296,-212 121,-212 121,-212 115,-212 109,-206 109,-200 109,-200 109,-138 109,-138 109,-132 115,-126 121,-126"/>
<text text-anchor="middle" x="208.5" y="-200.8" font-family="Helvetica,sans-Serif" font-weight="bold" font-size="9.00">auth</text>
</g>
<g id="clust4" class="cluster">
<title>cluster_src/app/auth/resend&#45;verification</title>
<path fill="#ffffff" stroke="black" stroke-width="2" d="M129,-134C129,-134 288,-134 288,-134 294,-134 300,-140 300,-146 300,-146 300,-174 300,-174 300,-180 294,-186 288,-186 288,-186 129,-186 129,-186 123,-186 117,-180 117,-174 117,-174 117,-146 117,-146 117,-140 123,-134 129,-134"/>
<text text-anchor="middle" x="208.5" y="-174.8" font-family="Helvetica,sans-Serif" font-weight="bold" font-size="9.00">resend&#45;verification</text>
</g>
<g id="clust5" class="cluster">
<title>cluster_src/app/shared</title>
<path fill="#ffffff" stroke="black" stroke-width="2" d="M328,-24C328,-24 458,-24 458,-24 464,-24 470,-30 470,-36 470,-36 470,-286 470,-286 470,-292 464,-298 458,-298 458,-298 328,-298 328,-298 322,-298 316,-292 316,-286 316,-286 316,-36 316,-36 316,-30 322,-24 328,-24"/>
<text text-anchor="middle" x="393" y="-286.8" font-family="Helvetica,sans-Serif" font-weight="bold" font-size="9.00">shared</text>
</g>
<g id="clust6" class="cluster">
<title>cluster_src/app/shared/services</title>
<path fill="#ffffff" stroke="black" stroke-width="2" d="M337.5,-126C337.5,-126 448.5,-126 448.5,-126 454.5,-126 460.5,-132 460.5,-138 460.5,-138 460.5,-260 460.5,-260 460.5,-266 454.5,-272 448.5,-272 448.5,-272 337.5,-272 337.5,-272 331.5,-272 325.5,-266 325.5,-260 325.5,-260 325.5,-138 325.5,-138 325.5,-132 331.5,-126 337.5,-126"/>
<text text-anchor="middle" x="393" y="-260.8" font-family="Helvetica,sans-Serif" font-weight="bold" font-size="9.00">services</text>
</g>
<g id="clust7" class="cluster">
<title>cluster_src/app/shared/services/auth</title>
<path fill="#ffffff" stroke="black" stroke-width="2" d="M355.5,-194C355.5,-194 430.5,-194 430.5,-194 436.5,-194 442.5,-200 442.5,-206 442.5,-206 442.5,-234 442.5,-234 442.5,-240 436.5,-246 430.5,-246 430.5,-246 355.5,-246 355.5,-246 349.5,-246 343.5,-240 343.5,-234 343.5,-234 343.5,-206 343.5,-206 343.5,-200 349.5,-194 355.5,-194"/>
<text text-anchor="middle" x="393" y="-234.8" font-family="Helvetica,sans-Serif" font-weight="bold" font-size="9.00">auth</text>
</g>
<g id="clust8" class="cluster">
<title>cluster_src/app/shared/services/snackbar</title>
<path fill="#ffffff" stroke="black" stroke-width="2" d="M345.5,-134C345.5,-134 440.5,-134 440.5,-134 446.5,-134 452.5,-140 452.5,-146 452.5,-146 452.5,-174 452.5,-174 452.5,-180 446.5,-186 440.5,-186 440.5,-186 345.5,-186 345.5,-186 339.5,-186 333.5,-180 333.5,-174 333.5,-174 333.5,-146 333.5,-146 333.5,-140 339.5,-134 345.5,-134"/>
<text text-anchor="middle" x="393" y="-174.8" font-family="Helvetica,sans-Serif" font-weight="bold" font-size="9.00">snackbar</text>
</g>
<g id="clust9" class="cluster">
<title>cluster_src/app/shared/utils</title>
<path fill="#ffffff" stroke="black" stroke-width="2" d="M336,-32C336,-32 450,-32 450,-32 456,-32 462,-38 462,-44 462,-44 462,-106 462,-106 462,-112 456,-118 450,-118 450,-118 336,-118 336,-118 330,-118 324,-112 324,-106 324,-106 324,-44 324,-44 324,-38 330,-32 336,-32"/>
<text text-anchor="middle" x="393" y="-106.8" font-family="Helvetica,sans-Serif" font-weight="bold" font-size="9.00">utils</text>
</g>
<g id="clust10" class="cluster">
<title>cluster_src/app/shared/utils/formErrorHandler</title>
<path fill="#ffffff" stroke="black" stroke-width="2" d="M344,-40C344,-40 442,-40 442,-40 448,-40 454,-46 454,-52 454,-52 454,-80 454,-80 454,-86 448,-92 442,-92 442,-92 344,-92 344,-92 338,-92 332,-86 332,-80 332,-80 332,-52 332,-52 332,-46 338,-40 344,-40"/>
<text text-anchor="middle" x="393" y="-80.8" font-family="Helvetica,sans-Serif" font-weight="bold" font-size="9.00">formErrorHandler</text>
</g>
<!-- src/app/app.routes.ts -->
<g id="node1" class="node">
<title>src/app/app.routes.ts</title>
<g id="a_node1"><a xlink:href="src/app/app.routes.ts" xlink:title="app.routes.ts">
<path fill="#ddfeff" stroke="black" d="M95,-160C95,-160 30,-160 30,-160 27,-160 24,-157 24,-154 24,-154 24,-148 24,-148 24,-145 27,-142 30,-142 30,-142 95,-142 95,-142 98,-142 101,-145 101,-148 101,-148 101,-154 101,-154 101,-157 98,-160 95,-160"/>
<text text-anchor="start" x="32" y="-148.8" font-family="Helvetica,sans-Serif" font-size="9.00">app.routes.ts</text>
</a>
</g>
</g>
<!-- src/app/auth/resend&#45;verification/resend&#45;verification.component.ts -->
<g id="node2" class="node">
<title>src/app/auth/resend&#45;verification/resend&#45;verification.component.ts</title>
<g id="a_node2"><a xlink:href="src/app/auth/resend-verification/resend-verification.component.ts" xlink:title="resend&#45;verification.component.ts">
<path fill="#ddfeff" stroke="black" d="M286,-160C286,-160 131,-160 131,-160 128,-160 125,-157 125,-154 125,-154 125,-148 125,-148 125,-145 128,-142 131,-142 131,-142 286,-142 286,-142 289,-142 292,-145 292,-148 292,-148 292,-154 292,-154 292,-157 289,-160 286,-160"/>
<text text-anchor="start" x="133" y="-148.8" font-family="Helvetica,sans-Serif" font-size="9.00">resend&#45;verification.component.ts</text>
</a>
</g>
</g>
<!-- src/app/app.routes.ts&#45;&gt;src/app/auth/resend&#45;verification/resend&#45;verification.component.ts -->
<g id="edge1" class="edge">
<title>src/app/app.routes.ts&#45;&gt;src/app/auth/resend&#45;verification/resend&#45;verification.component.ts</title>
<path fill="none" stroke="#000000" stroke-width="2" stroke-dasharray="5,2" stroke-opacity="0.200000" d="M101.33,-151C106.83,-151 112.68,-151 118.69,-151"/>
<polygon fill="#000000" fill-opacity="0.200000" stroke="#000000" stroke-width="2" stroke-opacity="0.200000" points="118.75,-153.1 124.75,-151 118.75,-148.9 118.75,-153.1"/>
</g>
<!-- src/app/shared/services/auth/auth.service.ts -->
<g id="node3" class="node">
<title>src/app/shared/services/auth/auth.service.ts</title>
<g id="a_node3"><a xlink:href="src/app/shared/services/auth/auth.service.ts" xlink:title="auth.service.ts">
<path fill="#ddfeff" stroke="black" d="M428.5,-220C428.5,-220 357.5,-220 357.5,-220 354.5,-220 351.5,-217 351.5,-214 351.5,-214 351.5,-208 351.5,-208 351.5,-205 354.5,-202 357.5,-202 357.5,-202 428.5,-202 428.5,-202 431.5,-202 434.5,-205 434.5,-208 434.5,-208 434.5,-214 434.5,-214 434.5,-217 431.5,-220 428.5,-220"/>
<text text-anchor="start" x="359.5" y="-208.8" font-family="Helvetica,sans-Serif" font-size="9.00">auth.service.ts</text>
</a>
</g>
</g>
<!-- src/app/auth/resend&#45;verification/resend&#45;verification.component.ts&#45;&gt;src/app/shared/services/auth/auth.service.ts -->
<g id="edge2" class="edge">
<title>src/app/auth/resend&#45;verification/resend&#45;verification.component.ts&#45;&gt;src/app/shared/services/auth/auth.service.ts</title>
<path fill="none" stroke="#000000" stroke-width="2" stroke-opacity="0.200000" d="M233.47,-160.02C254.96,-168 287.42,-179.77 316,-189 327.91,-192.84 340.97,-196.74 352.85,-200.16"/>
<polygon fill="#000000" fill-opacity="0.200000" stroke="#000000" stroke-width="2" stroke-opacity="0.200000" points="352.6,-202.27 358.95,-201.91 353.76,-198.24 352.6,-202.27"/>
</g>
<!-- src/app/shared/services/snackbar/snackbar.service.ts -->
<g id="node4" class="node">
<title>src/app/shared/services/snackbar/snackbar.service.ts</title>
<g id="a_node4"><a xlink:href="src/app/shared/services/snackbar/snackbar.service.ts" xlink:title="snackbar.service.ts">
<path fill="#ddfeff" stroke="black" d="M438.5,-160C438.5,-160 347.5,-160 347.5,-160 344.5,-160 341.5,-157 341.5,-154 341.5,-154 341.5,-148 341.5,-148 341.5,-145 344.5,-142 347.5,-142 347.5,-142 438.5,-142 438.5,-142 441.5,-142 444.5,-145 444.5,-148 444.5,-148 444.5,-154 444.5,-154 444.5,-157 441.5,-160 438.5,-160"/>
<text text-anchor="start" x="349.5" y="-148.8" font-family="Helvetica,sans-Serif" font-size="9.00">snackbar.service.ts</text>
</a>
</g>
</g>
<!-- src/app/auth/resend&#45;verification/resend&#45;verification.component.ts&#45;&gt;src/app/shared/services/snackbar/snackbar.service.ts -->
<g id="edge3" class="edge">
<title>src/app/auth/resend&#45;verification/resend&#45;verification.component.ts&#45;&gt;src/app/shared/services/snackbar/snackbar.service.ts</title>
<path fill="none" stroke="#000000" stroke-width="2" stroke-opacity="0.200000" d="M292.21,-151C306.76,-151 321.61,-151 335.26,-151"/>
<polygon fill="#000000" fill-opacity="0.200000" stroke="#000000" stroke-width="2" stroke-opacity="0.200000" points="335.44,-153.1 341.44,-151 335.44,-148.9 335.44,-153.1"/>
</g>
<!-- src/app/shared/utils/formErrorHandler/formErrorHandler.ts -->
<g id="node5" class="node">
<title>src/app/shared/utils/formErrorHandler/formErrorHandler.ts</title>
<g id="a_node5"><a xlink:href="src/app/shared/utils/formErrorHandler/formErrorHandler.ts" xlink:title="formErrorHandler.ts">
<path fill="#ddfeff" stroke="black" d="M440,-66C440,-66 346,-66 346,-66 343,-66 340,-63 340,-60 340,-60 340,-54 340,-54 340,-51 343,-48 346,-48 346,-48 440,-48 440,-48 443,-48 446,-51 446,-54 446,-54 446,-60 446,-60 446,-63 443,-66 440,-66"/>
<text text-anchor="start" x="348" y="-54.8" font-family="Helvetica,sans-Serif" font-size="9.00">formErrorHandler.ts</text>
</a>
</g>
</g>
<!-- src/app/auth/resend&#45;verification/resend&#45;verification.component.ts&#45;&gt;src/app/shared/utils/formErrorHandler/formErrorHandler.ts -->
<g id="edge4" class="edge">
<title>src/app/auth/resend&#45;verification/resend&#45;verification.component.ts&#45;&gt;src/app/shared/utils/formErrorHandler/formErrorHandler.ts</title>
<path fill="none" stroke="#000000" stroke-width="2" stroke-opacity="0.200000" d="M227,-141.99C260.03,-124.98 331.55,-88.13 368.64,-69.03"/>
<polygon fill="#000000" fill-opacity="0.200000" stroke="#000000" stroke-width="2" stroke-opacity="0.200000" points="369.91,-70.74 374.29,-66.12 367.99,-67 369.91,-70.74"/>
</g>
</g>
</svg>
