<?xml version="1.0" encoding="UTF-8" standalone="no"?>
<!DOCTYPE svg PUBLIC "-//W3C//DTD SVG 1.1//EN"
 "http://www.w3.org/Graphics/SVG/1.1/DTD/svg11.dtd">
<!-- Generated by graphviz version 2.43.0 (0)
 -->
<!-- Title: dependency&#45;cruiser output Pages: 1 -->
<svg width="758pt" height="332pt"
 viewBox="0.00 0.00 758.00 332.00" xmlns="http://www.w3.org/2000/svg" xmlns:xlink="http://www.w3.org/1999/xlink">
<g id="graph0" class="graph" transform="scale(1 1) rotate(0) translate(4 328)">
<title>dependency&#45;cruiser output</title>
<polygon fill="white" stroke="transparent" points="-4,4 -4,-328 754,-328 754,4 -4,4"/>
<g id="clust1" class="cluster">
<title>cluster_src</title>
<path fill="#ffffff" stroke="black" stroke-width="2" d="M20,-8C20,-8 730,-8 730,-8 736,-8 742,-14 742,-20 742,-20 742,-304 742,-304 742,-310 736,-316 730,-316 730,-316 20,-316 20,-316 14,-316 8,-310 8,-304 8,-304 8,-20 8,-20 8,-14 14,-8 20,-8"/>
<text text-anchor="middle" x="375" y="-304.8" font-family="Helvetica,sans-Serif" font-weight="bold" font-size="9.00">src</text>
</g>
<g id="clust2" class="cluster">
<title>cluster_src/app</title>
<path fill="#ffffff" stroke="black" stroke-width="2" d="M28,-16C28,-16 722,-16 722,-16 728,-16 734,-22 734,-28 734,-28 734,-218 734,-218 734,-224 728,-230 722,-230 722,-230 28,-230 28,-230 22,-230 16,-224 16,-218 16,-218 16,-28 16,-28 16,-22 22,-16 28,-16"/>
<text text-anchor="middle" x="375" y="-218.8" font-family="Helvetica,sans-Serif" font-weight="bold" font-size="9.00">app</text>
</g>
<g id="clust3" class="cluster">
<title>cluster_src/app/main</title>
<path fill="#ffffff" stroke="black" stroke-width="2" d="M36,-24C36,-24 418,-24 418,-24 424,-24 430,-30 430,-36 430,-36 430,-192 430,-192 430,-198 424,-204 418,-204 418,-204 36,-204 36,-204 30,-204 24,-198 24,-192 24,-192 24,-36 24,-36 24,-30 30,-24 36,-24"/>
<text text-anchor="middle" x="227" y="-192.8" font-family="Helvetica,sans-Serif" font-weight="bold" font-size="9.00">main</text>
</g>
<g id="clust4" class="cluster">
<title>cluster_src/app/main/worktime</title>
<path fill="#ffffff" stroke="black" stroke-width="2" d="M44,-32C44,-32 410,-32 410,-32 416,-32 422,-38 422,-44 422,-44 422,-166 422,-166 422,-172 416,-178 410,-178 410,-178 44,-178 44,-178 38,-178 32,-172 32,-166 32,-166 32,-44 32,-44 32,-38 38,-32 44,-32"/>
<text text-anchor="middle" x="227" y="-166.8" font-family="Helvetica,sans-Serif" font-weight="bold" font-size="9.00">worktime</text>
</g>
<g id="clust5" class="cluster">
<title>cluster_src/app/main/worktime/delete&#45;worktime&#45;dialog</title>
<path fill="#ffffff" stroke="black" stroke-width="2" d="M225,-40C225,-40 402,-40 402,-40 408,-40 414,-46 414,-52 414,-52 414,-80 414,-80 414,-86 408,-92 402,-92 402,-92 225,-92 225,-92 219,-92 213,-86 213,-80 213,-80 213,-52 213,-52 213,-46 219,-40 225,-40"/>
<text text-anchor="middle" x="313.5" y="-80.8" font-family="Helvetica,sans-Serif" font-weight="bold" font-size="9.00">delete&#45;worktime&#45;dialog</text>
</g>
<g id="clust6" class="cluster">
<title>cluster_src/app/main/worktime/worktime&#45;dialog</title>
<path fill="#ffffff" stroke="black" stroke-width="2" d="M240,-100C240,-100 387,-100 387,-100 393,-100 399,-106 399,-112 399,-112 399,-140 399,-140 399,-146 393,-152 387,-152 387,-152 240,-152 240,-152 234,-152 228,-146 228,-140 228,-140 228,-112 228,-112 228,-106 234,-100 240,-100"/>
<text text-anchor="middle" x="313.5" y="-140.8" font-family="Helvetica,sans-Serif" font-weight="bold" font-size="9.00">worktime&#45;dialog</text>
</g>
<g id="clust7" class="cluster">
<title>cluster_src/app/main/worktime/worktime&#45;stats</title>
<path fill="#ffffff" stroke="black" stroke-width="2" d="M52,-100C52,-100 193,-100 193,-100 199,-100 205,-106 205,-112 205,-112 205,-140 205,-140 205,-146 199,-152 193,-152 193,-152 52,-152 52,-152 46,-152 40,-146 40,-140 40,-140 40,-112 40,-112 40,-106 46,-100 52,-100"/>
<text text-anchor="middle" x="122.5" y="-140.8" font-family="Helvetica,sans-Serif" font-weight="bold" font-size="9.00">worktime&#45;stats</text>
</g>
<g id="clust8" class="cluster">
<title>cluster_src/app/shared</title>
<path fill="#ffffff" stroke="black" stroke-width="2" d="M450,-84C450,-84 714,-84 714,-84 720,-84 726,-90 726,-96 726,-96 726,-192 726,-192 726,-198 720,-204 714,-204 714,-204 450,-204 450,-204 444,-204 438,-198 438,-192 438,-192 438,-96 438,-96 438,-90 444,-84 450,-84"/>
<text text-anchor="middle" x="582" y="-192.8" font-family="Helvetica,sans-Serif" font-weight="bold" font-size="9.00">shared</text>
</g>
<g id="clust9" class="cluster">
<title>cluster_src/app/shared/services</title>
<path fill="#ffffff" stroke="black" stroke-width="2" d="M458,-92C458,-92 570,-92 570,-92 576,-92 582,-98 582,-104 582,-104 582,-166 582,-166 582,-172 576,-178 570,-178 570,-178 458,-178 458,-178 452,-178 446,-172 446,-166 446,-166 446,-104 446,-104 446,-98 452,-92 458,-92"/>
<text text-anchor="middle" x="514" y="-166.8" font-family="Helvetica,sans-Serif" font-weight="bold" font-size="9.00">services</text>
</g>
<g id="clust10" class="cluster">
<title>cluster_src/app/shared/services/worktime</title>
<path fill="#ffffff" stroke="black" stroke-width="2" d="M466,-100C466,-100 562,-100 562,-100 568,-100 574,-106 574,-112 574,-112 574,-140 574,-140 574,-146 568,-152 562,-152 562,-152 466,-152 466,-152 460,-152 454,-146 454,-140 454,-140 454,-112 454,-112 454,-106 460,-100 466,-100"/>
<text text-anchor="middle" x="514" y="-140.8" font-family="Helvetica,sans-Serif" font-weight="bold" font-size="9.00">worktime</text>
</g>
<g id="clust11" class="cluster">
<title>cluster_src/app/shared/utils</title>
<path fill="#ffffff" stroke="black" stroke-width="2" d="M602,-92C602,-92 706,-92 706,-92 712,-92 718,-98 718,-104 718,-104 718,-166 718,-166 718,-172 712,-178 706,-178 706,-178 602,-178 602,-178 596,-178 590,-172 590,-166 590,-166 590,-104 590,-104 590,-98 596,-92 602,-92"/>
<text text-anchor="middle" x="654" y="-166.8" font-family="Helvetica,sans-Serif" font-weight="bold" font-size="9.00">utils</text>
</g>
<g id="clust12" class="cluster">
<title>cluster_src/app/shared/utils/paramsHandler</title>
<path fill="#ffffff" stroke="black" stroke-width="2" d="M610,-100C610,-100 698,-100 698,-100 704,-100 710,-106 710,-112 710,-112 710,-140 710,-140 710,-146 704,-152 698,-152 698,-152 610,-152 610,-152 604,-152 598,-146 598,-140 598,-140 598,-112 598,-112 598,-106 604,-100 610,-100"/>
<text text-anchor="middle" x="654" y="-140.8" font-family="Helvetica,sans-Serif" font-weight="bold" font-size="9.00">paramsHandler</text>
</g>
<g id="clust13" class="cluster">
<title>cluster_src/environments</title>
<path fill="#ffffff" stroke="black" stroke-width="2" d="M615,-238C615,-238 693,-238 693,-238 699,-238 705,-244 705,-250 705,-250 705,-278 705,-278 705,-284 699,-290 693,-290 693,-290 615,-290 615,-290 609,-290 603,-284 603,-278 603,-278 603,-250 603,-250 603,-244 609,-238 615,-238"/>
<text text-anchor="middle" x="654" y="-278.8" font-family="Helvetica,sans-Serif" font-weight="bold" font-size="9.00">environments</text>
</g>
<!-- src/app/main/worktime/delete&#45;worktime&#45;dialog/delete&#45;worktime&#45;dialog.component.ts -->
<g id="node1" class="node">
<title>src/app/main/worktime/delete&#45;worktime&#45;dialog/delete&#45;worktime&#45;dialog.component.ts</title>
<g id="a_node1"><a xlink:href="src/app/main/worktime/delete-worktime-dialog/delete-worktime-dialog.component.ts" xlink:title="delete&#45;worktime&#45;dialog.component.ts">
<path fill="#ddfeff" stroke="black" d="M400,-66C400,-66 227,-66 227,-66 224,-66 221,-63 221,-60 221,-60 221,-54 221,-54 221,-51 224,-48 227,-48 227,-48 400,-48 400,-48 403,-48 406,-51 406,-54 406,-54 406,-60 406,-60 406,-63 403,-66 400,-66"/>
<text text-anchor="start" x="229" y="-54.8" font-family="Helvetica,sans-Serif" font-size="9.00">delete&#45;worktime&#45;dialog.component.ts</text>
</a>
</g>
</g>
<!-- src/app/shared/services/worktime/worktime.service.ts -->
<g id="node2" class="node">
<title>src/app/shared/services/worktime/worktime.service.ts</title>
<g id="a_node2"><a xlink:href="src/app/shared/services/worktime/worktime.service.ts" xlink:title="worktime.service.ts">
<path fill="#ddfeff" stroke="black" d="M560,-126C560,-126 468,-126 468,-126 465,-126 462,-123 462,-120 462,-120 462,-114 462,-114 462,-111 465,-108 468,-108 468,-108 560,-108 560,-108 563,-108 566,-111 566,-114 566,-114 566,-120 566,-120 566,-123 563,-126 560,-126"/>
<text text-anchor="start" x="470" y="-114.8" font-family="Helvetica,sans-Serif" font-size="9.00">worktime.service.ts</text>
</a>
</g>
</g>
<!-- src/app/main/worktime/delete&#45;worktime&#45;dialog/delete&#45;worktime&#45;dialog.component.ts&#45;&gt;src/app/shared/services/worktime/worktime.service.ts -->
<g id="edge1" class="edge">
<title>src/app/main/worktime/delete&#45;worktime&#45;dialog/delete&#45;worktime&#45;dialog.component.ts&#45;&gt;src/app/shared/services/worktime/worktime.service.ts</title>
<path fill="none" stroke="#000000" stroke-width="2" stroke-opacity="0.200000" d="M344.65,-66.11C380.27,-76.88 439.46,-94.77 477.33,-106.22"/>
<polygon fill="#000000" fill-opacity="0.200000" stroke="#000000" stroke-width="2" stroke-opacity="0.200000" points="476.87,-108.27 483.22,-108 478.08,-104.25 476.87,-108.27"/>
</g>
<!-- src/environments/environment.ts -->
<g id="node6" class="node">
<title>src/environments/environment.ts</title>
<g id="a_node6"><a xlink:href="src/environments/environment.ts" xlink:title="environment.ts">
<path fill="#ddfeff" stroke="black" d="M691,-264C691,-264 617,-264 617,-264 614,-264 611,-261 611,-258 611,-258 611,-252 611,-252 611,-249 614,-246 617,-246 617,-246 691,-246 691,-246 694,-246 697,-249 697,-252 697,-252 697,-258 697,-258 697,-261 694,-264 691,-264"/>
<text text-anchor="start" x="619" y="-252.8" font-family="Helvetica,sans-Serif" font-size="9.00">environment.ts</text>
</a>
</g>
</g>
<!-- src/app/shared/services/worktime/worktime.service.ts&#45;&gt;src/environments/environment.ts -->
<g id="edge7" class="edge">
<title>src/app/shared/services/worktime/worktime.service.ts&#45;&gt;src/environments/environment.ts</title>
<path fill="none" stroke="#000000" stroke-width="2" stroke-opacity="0.200000" d="M524.05,-126.05C547.64,-149.64 611.06,-213.06 639.21,-241.21"/>
<polygon fill="#000000" fill-opacity="0.200000" stroke="#000000" stroke-width="2" stroke-opacity="0.200000" points="638,-242.97 643.73,-245.73 640.97,-240 638,-242.97"/>
</g>
<!-- src/app/shared/utils/paramsHandler/paramsHandler.ts -->
<g id="node7" class="node">
<title>src/app/shared/utils/paramsHandler/paramsHandler.ts</title>
<g id="a_node7"><a xlink:href="src/app/shared/utils/paramsHandler/paramsHandler.ts" xlink:title="paramsHandler.ts">
<path fill="#ddfeff" stroke="black" d="M696,-126C696,-126 612,-126 612,-126 609,-126 606,-123 606,-120 606,-120 606,-114 606,-114 606,-111 609,-108 612,-108 612,-108 696,-108 696,-108 699,-108 702,-111 702,-114 702,-114 702,-120 702,-120 702,-123 699,-126 696,-126"/>
<text text-anchor="start" x="614" y="-114.8" font-family="Helvetica,sans-Serif" font-size="9.00">paramsHandler.ts</text>
</a>
</g>
</g>
<!-- src/app/shared/services/worktime/worktime.service.ts&#45;&gt;src/app/shared/utils/paramsHandler/paramsHandler.ts -->
<g id="edge8" class="edge">
<title>src/app/shared/services/worktime/worktime.service.ts&#45;&gt;src/app/shared/utils/paramsHandler/paramsHandler.ts</title>
<path fill="none" stroke="#000000" stroke-width="2" stroke-opacity="0.200000" d="M566.39,-117C577.25,-117 588.74,-117 599.67,-117"/>
<polygon fill="#000000" fill-opacity="0.200000" stroke="#000000" stroke-width="2" stroke-opacity="0.200000" points="599.68,-119.1 605.68,-117 599.68,-114.9 599.68,-119.1"/>
</g>
<!-- src/app/main/worktime/worktime&#45;dialog/worktime&#45;dialog.component.ts -->
<g id="node3" class="node">
<title>src/app/main/worktime/worktime&#45;dialog/worktime&#45;dialog.component.ts</title>
<g id="a_node3"><a xlink:href="src/app/main/worktime/worktime-dialog/worktime-dialog.component.ts" xlink:title="worktime&#45;dialog.component.ts">
<path fill="#ddfeff" stroke="black" d="M385,-126C385,-126 242,-126 242,-126 239,-126 236,-123 236,-120 236,-120 236,-114 236,-114 236,-111 239,-108 242,-108 242,-108 385,-108 385,-108 388,-108 391,-111 391,-114 391,-114 391,-120 391,-120 391,-123 388,-126 385,-126"/>
<text text-anchor="start" x="244" y="-114.8" font-family="Helvetica,sans-Serif" font-size="9.00">worktime&#45;dialog.component.ts</text>
</a>
</g>
</g>
<!-- src/app/main/worktime/worktime&#45;dialog/worktime&#45;dialog.component.ts&#45;&gt;src/app/shared/services/worktime/worktime.service.ts -->
<g id="edge2" class="edge">
<title>src/app/main/worktime/worktime&#45;dialog/worktime&#45;dialog.component.ts&#45;&gt;src/app/shared/services/worktime/worktime.service.ts</title>
<path fill="none" stroke="#000000" stroke-width="2" stroke-opacity="0.200000" d="M391.25,-117C412.7,-117 435.64,-117 455.75,-117"/>
<polygon fill="#000000" fill-opacity="0.200000" stroke="#000000" stroke-width="2" stroke-opacity="0.200000" points="455.9,-119.1 461.9,-117 455.9,-114.9 455.9,-119.1"/>
</g>
<!-- src/app/main/worktime/worktime&#45;stats/worktime&#45;stats.component.ts -->
<g id="node4" class="node">
<title>src/app/main/worktime/worktime&#45;stats/worktime&#45;stats.component.ts</title>
<g id="a_node4"><a xlink:href="src/app/main/worktime/worktime-stats/worktime-stats.component.ts" xlink:title="worktime&#45;stats.component.ts">
<path fill="#ddfeff" stroke="black" d="M191,-126C191,-126 54,-126 54,-126 51,-126 48,-123 48,-120 48,-120 48,-114 48,-114 48,-111 51,-108 54,-108 54,-108 191,-108 191,-108 194,-108 197,-111 197,-114 197,-114 197,-120 197,-120 197,-123 194,-126 191,-126"/>
<text text-anchor="start" x="56" y="-114.8" font-family="Helvetica,sans-Serif" font-size="9.00">worktime&#45;stats.component.ts</text>
</a>
</g>
</g>
<!-- src/app/main/worktime/worktime&#45;stats/worktime&#45;stats.component.ts&#45;&gt;src/app/shared/services/worktime/worktime.service.ts -->
<g id="edge3" class="edge">
<title>src/app/main/worktime/worktime&#45;stats/worktime&#45;stats.component.ts&#45;&gt;src/app/shared/services/worktime/worktime.service.ts</title>
<path fill="none" stroke="#000000" stroke-width="2" stroke-opacity="0.200000" d="M134.46,-126.18C150.49,-138.95 181.82,-161.46 213,-170 306.02,-195.48 337.42,-197.04 430,-170 456.25,-162.34 482.09,-143.56 497.79,-130.55"/>
<polygon fill="#000000" fill-opacity="0.200000" stroke="#000000" stroke-width="2" stroke-opacity="0.200000" points="499.49,-131.87 502.72,-126.39 496.78,-128.66 499.49,-131.87"/>
</g>
<!-- src/app/main/worktime/worktime.component.ts -->
<g id="node5" class="node">
<title>src/app/main/worktime/worktime.component.ts</title>
<g id="a_node5"><a xlink:href="src/app/main/worktime/worktime.component.ts" xlink:title="worktime.component.ts">
<path fill="#ddfeff" stroke="black" d="M179,-92C179,-92 66,-92 66,-92 63,-92 60,-89 60,-86 60,-86 60,-80 60,-80 60,-77 63,-74 66,-74 66,-74 179,-74 179,-74 182,-74 185,-77 185,-80 185,-80 185,-86 185,-86 185,-89 182,-92 179,-92"/>
<text text-anchor="start" x="68" y="-80.8" font-family="Helvetica,sans-Serif" font-size="9.00">worktime.component.ts</text>
</a>
</g>
</g>
<!-- src/app/main/worktime/worktime.component.ts&#45;&gt;src/app/main/worktime/delete&#45;worktime&#45;dialog/delete&#45;worktime&#45;dialog.component.ts -->
<g id="edge5" class="edge">
<title>src/app/main/worktime/worktime.component.ts&#45;&gt;src/app/main/worktime/delete&#45;worktime&#45;dialog/delete&#45;worktime&#45;dialog.component.ts</title>
<path fill="none" stroke="#000000" stroke-width="2" stroke-opacity="0.200000" d="M185.12,-74.52C202.93,-72.07 222.52,-69.38 240.88,-66.85"/>
<polygon fill="#000000" fill-opacity="0.200000" stroke="#000000" stroke-width="2" stroke-opacity="0.200000" points="241.4,-68.9 247.06,-66 240.83,-64.74 241.4,-68.9"/>
</g>
<!-- src/app/main/worktime/worktime.component.ts&#45;&gt;src/app/shared/services/worktime/worktime.service.ts -->
<g id="edge4" class="edge">
<title>src/app/main/worktime/worktime.component.ts&#45;&gt;src/app/shared/services/worktime/worktime.service.ts</title>
<path fill="none" stroke="#000000" stroke-width="2" stroke-opacity="0.200000" d="M185.18,-84.84C192.62,-87.44 199.51,-91.33 205,-97 223.09,-115.7 193.38,-137.9 213,-155 231.18,-170.84 406.44,-160.14 430,-155 452.82,-150.03 476.86,-138.19 493.17,-129.04"/>
<polygon fill="#000000" fill-opacity="0.200000" stroke="#000000" stroke-width="2" stroke-opacity="0.200000" points="494.22,-130.85 498.39,-126.05 492.13,-127.21 494.22,-130.85"/>
</g>
<!-- src/app/main/worktime/worktime.component.ts&#45;&gt;src/app/main/worktime/worktime&#45;dialog/worktime&#45;dialog.component.ts -->
<g id="edge6" class="edge">
<title>src/app/main/worktime/worktime.component.ts&#45;&gt;src/app/main/worktime/worktime&#45;dialog/worktime&#45;dialog.component.ts</title>
<path fill="none" stroke="#000000" stroke-width="2" stroke-opacity="0.200000" d="M176.57,-92.01C186.04,-93.65 195.81,-95.36 205,-97 222.48,-100.13 241.53,-103.64 258.67,-106.83"/>
<polygon fill="#000000" fill-opacity="0.200000" stroke="#000000" stroke-width="2" stroke-opacity="0.200000" points="258.61,-108.96 264.9,-108 259.39,-104.83 258.61,-108.96"/>
</g>
</g>
</svg>
