<?xml version="1.0" encoding="UTF-8" standalone="no"?>
<!DOCTYPE svg PUBLIC "-//W3C//DTD SVG 1.1//EN"
 "http://www.w3.org/Graphics/SVG/1.1/DTD/svg11.dtd">
<!-- Generated by graphviz version 2.43.0 (0)
 -->
<!-- Title: dependency&#45;cruiser output Pages: 1 -->
<svg width="486pt" height="426pt"
 viewBox="0.00 0.00 486.00 426.00" xmlns="http://www.w3.org/2000/svg" xmlns:xlink="http://www.w3.org/1999/xlink">
<g id="graph0" class="graph" transform="scale(1 1) rotate(0) translate(4 422)">
<title>dependency&#45;cruiser output</title>
<polygon fill="white" stroke="transparent" points="-4,4 -4,-422 482,-422 482,4 -4,4"/>
<g id="clust1" class="cluster">
<title>cluster_src</title>
<path fill="#ffffff" stroke="black" stroke-width="2" d="M20,-8C20,-8 458,-8 458,-8 464,-8 470,-14 470,-20 470,-20 470,-398 470,-398 470,-404 464,-410 458,-410 458,-410 20,-410 20,-410 14,-410 8,-404 8,-398 8,-398 8,-20 8,-20 8,-14 14,-8 20,-8"/>
<text text-anchor="middle" x="239" y="-398.8" font-family="Helvetica,sans-Serif" font-weight="bold" font-size="9.00">src</text>
</g>
<g id="clust2" class="cluster">
<title>cluster_src/app</title>
<path fill="#ffffff" stroke="black" stroke-width="2" d="M28,-16C28,-16 450,-16 450,-16 456,-16 462,-22 462,-28 462,-28 462,-372 462,-372 462,-378 456,-384 450,-384 450,-384 28,-384 28,-384 22,-384 16,-378 16,-372 16,-372 16,-28 16,-28 16,-22 22,-16 28,-16"/>
<text text-anchor="middle" x="239" y="-372.8" font-family="Helvetica,sans-Serif" font-weight="bold" font-size="9.00">app</text>
</g>
<g id="clust3" class="cluster">
<title>cluster_src/app/auth</title>
<path fill="#ffffff" stroke="black" stroke-width="2" d="M121,-139C121,-139 280,-139 280,-139 286,-139 292,-145 292,-151 292,-151 292,-213 292,-213 292,-219 286,-225 280,-225 280,-225 121,-225 121,-225 115,-225 109,-219 109,-213 109,-213 109,-151 109,-151 109,-145 115,-139 121,-139"/>
<text text-anchor="middle" x="200.5" y="-213.8" font-family="Helvetica,sans-Serif" font-weight="bold" font-size="9.00">auth</text>
</g>
<g id="clust4" class="cluster">
<title>cluster_src/app/auth/reset&#45;password</title>
<path fill="#ffffff" stroke="black" stroke-width="2" d="M129,-147C129,-147 272,-147 272,-147 278,-147 284,-153 284,-159 284,-159 284,-187 284,-187 284,-193 278,-199 272,-199 272,-199 129,-199 129,-199 123,-199 117,-193 117,-187 117,-187 117,-159 117,-159 117,-153 123,-147 129,-147"/>
<text text-anchor="middle" x="200.5" y="-187.8" font-family="Helvetica,sans-Serif" font-weight="bold" font-size="9.00">reset&#45;password</text>
</g>
<g id="clust5" class="cluster">
<title>cluster_src/app/shared</title>
<path fill="#ffffff" stroke="black" stroke-width="2" d="M312,-24C312,-24 442,-24 442,-24 448,-24 454,-30 454,-36 454,-36 454,-346 454,-346 454,-352 448,-358 442,-358 442,-358 312,-358 312,-358 306,-358 300,-352 300,-346 300,-346 300,-36 300,-36 300,-30 306,-24 312,-24"/>
<text text-anchor="middle" x="377" y="-346.8" font-family="Helvetica,sans-Serif" font-weight="bold" font-size="9.00">shared</text>
</g>
<g id="clust6" class="cluster">
<title>cluster_src/app/shared/services</title>
<path fill="#ffffff" stroke="black" stroke-width="2" d="M321.5,-186C321.5,-186 432.5,-186 432.5,-186 438.5,-186 444.5,-192 444.5,-198 444.5,-198 444.5,-320 444.5,-320 444.5,-326 438.5,-332 432.5,-332 432.5,-332 321.5,-332 321.5,-332 315.5,-332 309.5,-326 309.5,-320 309.5,-320 309.5,-198 309.5,-198 309.5,-192 315.5,-186 321.5,-186"/>
<text text-anchor="middle" x="377" y="-320.8" font-family="Helvetica,sans-Serif" font-weight="bold" font-size="9.00">services</text>
</g>
<g id="clust7" class="cluster">
<title>cluster_src/app/shared/services/auth</title>
<path fill="#ffffff" stroke="black" stroke-width="2" d="M339.5,-254C339.5,-254 414.5,-254 414.5,-254 420.5,-254 426.5,-260 426.5,-266 426.5,-266 426.5,-294 426.5,-294 426.5,-300 420.5,-306 414.5,-306 414.5,-306 339.5,-306 339.5,-306 333.5,-306 327.5,-300 327.5,-294 327.5,-294 327.5,-266 327.5,-266 327.5,-260 333.5,-254 339.5,-254"/>
<text text-anchor="middle" x="377" y="-294.8" font-family="Helvetica,sans-Serif" font-weight="bold" font-size="9.00">auth</text>
</g>
<g id="clust8" class="cluster">
<title>cluster_src/app/shared/services/snackbar</title>
<path fill="#ffffff" stroke="black" stroke-width="2" d="M329.5,-194C329.5,-194 424.5,-194 424.5,-194 430.5,-194 436.5,-200 436.5,-206 436.5,-206 436.5,-234 436.5,-234 436.5,-240 430.5,-246 424.5,-246 424.5,-246 329.5,-246 329.5,-246 323.5,-246 317.5,-240 317.5,-234 317.5,-234 317.5,-206 317.5,-206 317.5,-200 323.5,-194 329.5,-194"/>
<text text-anchor="middle" x="377" y="-234.8" font-family="Helvetica,sans-Serif" font-weight="bold" font-size="9.00">snackbar</text>
</g>
<g id="clust9" class="cluster">
<title>cluster_src/app/shared/utils</title>
<path fill="#ffffff" stroke="black" stroke-width="2" d="M320,-92C320,-92 434,-92 434,-92 440,-92 446,-98 446,-104 446,-104 446,-166 446,-166 446,-172 440,-178 434,-178 434,-178 320,-178 320,-178 314,-178 308,-172 308,-166 308,-166 308,-104 308,-104 308,-98 314,-92 320,-92"/>
<text text-anchor="middle" x="377" y="-166.8" font-family="Helvetica,sans-Serif" font-weight="bold" font-size="9.00">utils</text>
</g>
<g id="clust10" class="cluster">
<title>cluster_src/app/shared/utils/formErrorHandler</title>
<path fill="#ffffff" stroke="black" stroke-width="2" d="M328,-100C328,-100 426,-100 426,-100 432,-100 438,-106 438,-112 438,-112 438,-140 438,-140 438,-146 432,-152 426,-152 426,-152 328,-152 328,-152 322,-152 316,-146 316,-140 316,-140 316,-112 316,-112 316,-106 322,-100 328,-100"/>
<text text-anchor="middle" x="377" y="-140.8" font-family="Helvetica,sans-Serif" font-weight="bold" font-size="9.00">formErrorHandler</text>
</g>
<g id="clust11" class="cluster">
<title>cluster_src/app/shared/validators</title>
<path fill="#ffffff" stroke="black" stroke-width="2" d="M328,-32C328,-32 426,-32 426,-32 432,-32 438,-38 438,-44 438,-44 438,-72 438,-72 438,-78 432,-84 426,-84 426,-84 328,-84 328,-84 322,-84 316,-78 316,-72 316,-72 316,-44 316,-44 316,-38 322,-32 328,-32"/>
<text text-anchor="middle" x="377" y="-72.8" font-family="Helvetica,sans-Serif" font-weight="bold" font-size="9.00">validators</text>
</g>
<!-- src/app/app.routes.ts -->
<g id="node1" class="node">
<title>src/app/app.routes.ts</title>
<g id="a_node1"><a xlink:href="src/app/app.routes.ts" xlink:title="app.routes.ts">
<path fill="#ddfeff" stroke="black" d="M95,-173C95,-173 30,-173 30,-173 27,-173 24,-170 24,-167 24,-167 24,-161 24,-161 24,-158 27,-155 30,-155 30,-155 95,-155 95,-155 98,-155 101,-158 101,-161 101,-161 101,-167 101,-167 101,-170 98,-173 95,-173"/>
<text text-anchor="start" x="32" y="-161.8" font-family="Helvetica,sans-Serif" font-size="9.00">app.routes.ts</text>
</a>
</g>
</g>
<!-- src/app/auth/reset&#45;password/reset&#45;password.component.ts -->
<g id="node2" class="node">
<title>src/app/auth/reset&#45;password/reset&#45;password.component.ts</title>
<g id="a_node2"><a xlink:href="src/app/auth/reset-password/reset-password.component.ts" xlink:title="reset&#45;password.component.ts">
<path fill="#ddfeff" stroke="black" d="M270,-173C270,-173 131,-173 131,-173 128,-173 125,-170 125,-167 125,-167 125,-161 125,-161 125,-158 128,-155 131,-155 131,-155 270,-155 270,-155 273,-155 276,-158 276,-161 276,-161 276,-167 276,-167 276,-170 273,-173 270,-173"/>
<text text-anchor="start" x="133" y="-161.8" font-family="Helvetica,sans-Serif" font-size="9.00">reset&#45;password.component.ts</text>
</a>
</g>
</g>
<!-- src/app/app.routes.ts&#45;&gt;src/app/auth/reset&#45;password/reset&#45;password.component.ts -->
<g id="edge1" class="edge">
<title>src/app/app.routes.ts&#45;&gt;src/app/auth/reset&#45;password/reset&#45;password.component.ts</title>
<path fill="none" stroke="#000000" stroke-width="2" stroke-dasharray="5,2" stroke-opacity="0.200000" d="M101.02,-164C106.62,-164 112.57,-164 118.67,-164"/>
<polygon fill="#000000" fill-opacity="0.200000" stroke="#000000" stroke-width="2" stroke-opacity="0.200000" points="118.8,-166.1 124.8,-164 118.8,-161.9 118.8,-166.1"/>
</g>
<!-- src/app/shared/services/auth/auth.service.ts -->
<g id="node3" class="node">
<title>src/app/shared/services/auth/auth.service.ts</title>
<g id="a_node3"><a xlink:href="src/app/shared/services/auth/auth.service.ts" xlink:title="auth.service.ts">
<path fill="#ddfeff" stroke="black" d="M412.5,-280C412.5,-280 341.5,-280 341.5,-280 338.5,-280 335.5,-277 335.5,-274 335.5,-274 335.5,-268 335.5,-268 335.5,-265 338.5,-262 341.5,-262 341.5,-262 412.5,-262 412.5,-262 415.5,-262 418.5,-265 418.5,-268 418.5,-268 418.5,-274 418.5,-274 418.5,-277 415.5,-280 412.5,-280"/>
<text text-anchor="start" x="343.5" y="-268.8" font-family="Helvetica,sans-Serif" font-size="9.00">auth.service.ts</text>
</a>
</g>
</g>
<!-- src/app/auth/reset&#45;password/reset&#45;password.component.ts&#45;&gt;src/app/shared/services/auth/auth.service.ts -->
<g id="edge2" class="edge">
<title>src/app/auth/reset&#45;password/reset&#45;password.component.ts&#45;&gt;src/app/shared/services/auth/auth.service.ts</title>
<path fill="none" stroke="#000000" stroke-width="2" stroke-opacity="0.200000" d="M209.5,-173.13C225.15,-190.46 261.68,-228.22 300,-249 309.08,-253.93 319.39,-257.86 329.42,-260.95"/>
<polygon fill="#000000" fill-opacity="0.200000" stroke="#000000" stroke-width="2" stroke-opacity="0.200000" points="328.93,-263 335.28,-262.68 330.12,-258.97 328.93,-263"/>
</g>
<!-- src/app/shared/services/snackbar/snackbar.service.ts -->
<g id="node4" class="node">
<title>src/app/shared/services/snackbar/snackbar.service.ts</title>
<g id="a_node4"><a xlink:href="src/app/shared/services/snackbar/snackbar.service.ts" xlink:title="snackbar.service.ts">
<path fill="#ddfeff" stroke="black" d="M422.5,-220C422.5,-220 331.5,-220 331.5,-220 328.5,-220 325.5,-217 325.5,-214 325.5,-214 325.5,-208 325.5,-208 325.5,-205 328.5,-202 331.5,-202 331.5,-202 422.5,-202 422.5,-202 425.5,-202 428.5,-205 428.5,-208 428.5,-208 428.5,-214 428.5,-214 428.5,-217 425.5,-220 422.5,-220"/>
<text text-anchor="start" x="333.5" y="-208.8" font-family="Helvetica,sans-Serif" font-size="9.00">snackbar.service.ts</text>
</a>
</g>
</g>
<!-- src/app/auth/reset&#45;password/reset&#45;password.component.ts&#45;&gt;src/app/shared/services/snackbar/snackbar.service.ts -->
<g id="edge3" class="edge">
<title>src/app/auth/reset&#45;password/reset&#45;password.component.ts&#45;&gt;src/app/shared/services/snackbar/snackbar.service.ts</title>
<path fill="none" stroke="#000000" stroke-width="2" stroke-opacity="0.200000" d="M235.15,-173.06C264.11,-180.86 305.95,-192.13 336.51,-200.36"/>
<polygon fill="#000000" fill-opacity="0.200000" stroke="#000000" stroke-width="2" stroke-opacity="0.200000" points="336.12,-202.43 342.46,-201.97 337.21,-198.38 336.12,-202.43"/>
</g>
<!-- src/app/shared/utils/formErrorHandler/formErrorHandler.ts -->
<g id="node5" class="node">
<title>src/app/shared/utils/formErrorHandler/formErrorHandler.ts</title>
<g id="a_node5"><a xlink:href="src/app/shared/utils/formErrorHandler/formErrorHandler.ts" xlink:title="formErrorHandler.ts">
<path fill="#ddfeff" stroke="black" d="M424,-126C424,-126 330,-126 330,-126 327,-126 324,-123 324,-120 324,-120 324,-114 324,-114 324,-111 327,-108 330,-108 330,-108 424,-108 424,-108 427,-108 430,-111 430,-114 430,-114 430,-120 430,-120 430,-123 427,-126 424,-126"/>
<text text-anchor="start" x="332" y="-114.8" font-family="Helvetica,sans-Serif" font-size="9.00">formErrorHandler.ts</text>
</a>
</g>
</g>
<!-- src/app/auth/reset&#45;password/reset&#45;password.component.ts&#45;&gt;src/app/shared/utils/formErrorHandler/formErrorHandler.ts -->
<g id="edge4" class="edge">
<title>src/app/auth/reset&#45;password/reset&#45;password.component.ts&#45;&gt;src/app/shared/utils/formErrorHandler/formErrorHandler.ts</title>
<path fill="none" stroke="#000000" stroke-width="2" stroke-opacity="0.200000" d="M235.15,-154.94C264.11,-147.14 305.95,-135.87 336.51,-127.64"/>
<polygon fill="#000000" fill-opacity="0.200000" stroke="#000000" stroke-width="2" stroke-opacity="0.200000" points="337.21,-129.62 342.46,-126.03 336.12,-125.57 337.21,-129.62"/>
</g>
<!-- src/app/shared/validators/CustomValidators.ts -->
<g id="node6" class="node">
<title>src/app/shared/validators/CustomValidators.ts</title>
<g id="a_node6"><a xlink:href="src/app/shared/validators/CustomValidators.ts" xlink:title="CustomValidators.ts">
<path fill="#ddfeff" stroke="black" d="M424,-58C424,-58 330,-58 330,-58 327,-58 324,-55 324,-52 324,-52 324,-46 324,-46 324,-43 327,-40 330,-40 330,-40 424,-40 424,-40 427,-40 430,-43 430,-46 430,-46 430,-52 430,-52 430,-55 427,-58 424,-58"/>
<text text-anchor="start" x="332" y="-46.8" font-family="Helvetica,sans-Serif" font-size="9.00">CustomValidators.ts</text>
</a>
</g>
</g>
<!-- src/app/auth/reset&#45;password/reset&#45;password.component.ts&#45;&gt;src/app/shared/validators/CustomValidators.ts -->
<g id="edge5" class="edge">
<title>src/app/auth/reset&#45;password/reset&#45;password.component.ts&#45;&gt;src/app/shared/validators/CustomValidators.ts</title>
<path fill="none" stroke="#000000" stroke-width="2" stroke-opacity="0.200000" d="M214.47,-154.97C233.22,-141.97 269.04,-117.3 300,-97 318.83,-84.65 340.58,-70.98 355.97,-61.39"/>
<polygon fill="#000000" fill-opacity="0.200000" stroke="#000000" stroke-width="2" stroke-opacity="0.200000" points="357.35,-63.01 361.34,-58.06 355.13,-59.44 357.35,-63.01"/>
</g>
</g>
</svg>
