<?xml version="1.0" encoding="UTF-8" standalone="no"?>
<!DOCTYPE svg PUBLIC "-//W3C//DTD SVG 1.1//EN"
 "http://www.w3.org/Graphics/SVG/1.1/DTD/svg11.dtd">
<!-- Generated by graphviz version 2.43.0 (0)
 -->
<!-- Title: dependency&#45;cruiser output Pages: 1 -->
<svg width="798pt" height="2098pt"
 viewBox="0.00 0.00 798.00 2098.13" xmlns="http://www.w3.org/2000/svg" xmlns:xlink="http://www.w3.org/1999/xlink">
<g id="graph0" class="graph" transform="scale(1 1) rotate(0) translate(4 2094.13)">
<title>dependency&#45;cruiser output</title>
<polygon fill="white" stroke="transparent" points="-4,4 -4,-2094.13 794,-2094.13 794,4 -4,4"/>
<g id="clust1" class="cluster">
<title>cluster_src</title>
<path fill="#ffffff" stroke="black" stroke-width="2" d="M20,-12.13C20,-12.13 770,-12.13 770,-12.13 776,-12.13 782,-18.13 782,-24.13 782,-24.13 782,-2070.13 782,-2070.13 782,-2076.13 776,-2082.13 770,-2082.13 770,-2082.13 20,-2082.13 20,-2082.13 14,-2082.13 8,-2076.13 8,-2070.13 8,-2070.13 8,-24.13 8,-24.13 8,-18.13 14,-12.13 20,-12.13"/>
<text text-anchor="middle" x="395" y="-2070.93" font-family="Helvetica,sans-Serif" font-weight="bold" font-size="9.00">src</text>
</g>
<g id="clust2" class="cluster">
<title>cluster_src/app</title>
<path fill="#ffffff" stroke="black" stroke-width="2" d="M28,-20.13C28,-20.13 762,-20.13 762,-20.13 768,-20.13 774,-26.13 774,-32.13 774,-32.13 774,-1984.13 774,-1984.13 774,-1990.13 768,-1996.13 762,-1996.13 762,-1996.13 28,-1996.13 28,-1996.13 22,-1996.13 16,-1990.13 16,-1984.13 16,-1984.13 16,-32.13 16,-32.13 16,-26.13 22,-20.13 28,-20.13"/>
<text text-anchor="middle" x="395" y="-1984.93" font-family="Helvetica,sans-Serif" font-weight="bold" font-size="9.00">app</text>
</g>
<g id="clust3" class="cluster">
<title>cluster_src/app/auth</title>
<path fill="#ffffff" stroke="black" stroke-width="2" d="M290,-38.13C290,-38.13 513,-38.13 513,-38.13 519,-38.13 525,-44.13 525,-50.13 525,-50.13 525,-472.13 525,-472.13 525,-478.13 519,-484.13 513,-484.13 513,-484.13 290,-484.13 290,-484.13 284,-484.13 278,-478.13 278,-472.13 278,-472.13 278,-50.13 278,-50.13 278,-44.13 284,-38.13 290,-38.13"/>
<text text-anchor="middle" x="401.5" y="-472.93" font-family="Helvetica,sans-Serif" font-weight="bold" font-size="9.00">auth</text>
</g>
<g id="clust4" class="cluster">
<title>cluster_src/app/auth/login</title>
<path fill="#ffffff" stroke="black" stroke-width="2" d="M353.5,-226.13C353.5,-226.13 449.5,-226.13 449.5,-226.13 455.5,-226.13 461.5,-232.13 461.5,-238.13 461.5,-238.13 461.5,-266.13 461.5,-266.13 461.5,-272.13 455.5,-278.13 449.5,-278.13 449.5,-278.13 353.5,-278.13 353.5,-278.13 347.5,-278.13 341.5,-272.13 341.5,-266.13 341.5,-266.13 341.5,-238.13 341.5,-238.13 341.5,-232.13 347.5,-226.13 353.5,-226.13"/>
<text text-anchor="middle" x="401.5" y="-266.93" font-family="Helvetica,sans-Serif" font-weight="bold" font-size="9.00">login</text>
</g>
<g id="clust5" class="cluster">
<title>cluster_src/app/auth/not&#45;found</title>
<path fill="#ffffff" stroke="black" stroke-width="2" d="M342,-166.13C342,-166.13 461,-166.13 461,-166.13 467,-166.13 473,-172.13 473,-178.13 473,-178.13 473,-206.13 473,-206.13 473,-212.13 467,-218.13 461,-218.13 461,-218.13 342,-218.13 342,-218.13 336,-218.13 330,-212.13 330,-206.13 330,-206.13 330,-178.13 330,-178.13 330,-172.13 336,-166.13 342,-166.13"/>
<text text-anchor="middle" x="401.5" y="-206.93" font-family="Helvetica,sans-Serif" font-weight="bold" font-size="9.00">not&#45;found</text>
</g>
<g id="clust6" class="cluster">
<title>cluster_src/app/auth/request&#45;password&#45;reset&#45;email</title>
<path fill="#ffffff" stroke="black" stroke-width="2" d="M298,-106.13C298,-106.13 505,-106.13 505,-106.13 511,-106.13 517,-112.13 517,-118.13 517,-118.13 517,-146.13 517,-146.13 517,-152.13 511,-158.13 505,-158.13 505,-158.13 298,-158.13 298,-158.13 292,-158.13 286,-152.13 286,-146.13 286,-146.13 286,-118.13 286,-118.13 286,-112.13 292,-106.13 298,-106.13"/>
<text text-anchor="middle" x="401.5" y="-146.93" font-family="Helvetica,sans-Serif" font-weight="bold" font-size="9.00">request&#45;password&#45;reset&#45;email</text>
</g>
<g id="clust7" class="cluster">
<title>cluster_src/app/auth/resend&#45;verification</title>
<path fill="#ffffff" stroke="black" stroke-width="2" d="M322,-406.13C322,-406.13 481,-406.13 481,-406.13 487,-406.13 493,-412.13 493,-418.13 493,-418.13 493,-446.13 493,-446.13 493,-452.13 487,-458.13 481,-458.13 481,-458.13 322,-458.13 322,-458.13 316,-458.13 310,-452.13 310,-446.13 310,-446.13 310,-418.13 310,-418.13 310,-412.13 316,-406.13 322,-406.13"/>
<text text-anchor="middle" x="401.5" y="-446.93" font-family="Helvetica,sans-Serif" font-weight="bold" font-size="9.00">resend&#45;verification</text>
</g>
<g id="clust8" class="cluster">
<title>cluster_src/app/auth/reset&#45;password</title>
<path fill="#ffffff" stroke="black" stroke-width="2" d="M330,-346.13C330,-346.13 473,-346.13 473,-346.13 479,-346.13 485,-352.13 485,-358.13 485,-358.13 485,-386.13 485,-386.13 485,-392.13 479,-398.13 473,-398.13 473,-398.13 330,-398.13 330,-398.13 324,-398.13 318,-392.13 318,-386.13 318,-386.13 318,-358.13 318,-358.13 318,-352.13 324,-346.13 330,-346.13"/>
<text text-anchor="middle" x="401.5" y="-386.93" font-family="Helvetica,sans-Serif" font-weight="bold" font-size="9.00">reset&#45;password</text>
</g>
<g id="clust9" class="cluster">
<title>cluster_src/app/auth/signup</title>
<path fill="#ffffff" stroke="black" stroke-width="2" d="M349,-46.13C349,-46.13 454,-46.13 454,-46.13 460,-46.13 466,-52.13 466,-58.13 466,-58.13 466,-86.13 466,-86.13 466,-92.13 460,-98.13 454,-98.13 454,-98.13 349,-98.13 349,-98.13 343,-98.13 337,-92.13 337,-86.13 337,-86.13 337,-58.13 337,-58.13 337,-52.13 343,-46.13 349,-46.13"/>
<text text-anchor="middle" x="401.5" y="-86.93" font-family="Helvetica,sans-Serif" font-weight="bold" font-size="9.00">signup</text>
</g>
<g id="clust10" class="cluster">
<title>cluster_src/app/auth/verify</title>
<path fill="#ffffff" stroke="black" stroke-width="2" d="M352.5,-286.13C352.5,-286.13 450.5,-286.13 450.5,-286.13 456.5,-286.13 462.5,-292.13 462.5,-298.13 462.5,-298.13 462.5,-326.13 462.5,-326.13 462.5,-332.13 456.5,-338.13 450.5,-338.13 450.5,-338.13 352.5,-338.13 352.5,-338.13 346.5,-338.13 340.5,-332.13 340.5,-326.13 340.5,-326.13 340.5,-298.13 340.5,-298.13 340.5,-292.13 346.5,-286.13 352.5,-286.13"/>
<text text-anchor="middle" x="401.5" y="-326.93" font-family="Helvetica,sans-Serif" font-weight="bold" font-size="9.00">verify</text>
</g>
<g id="clust11" class="cluster">
<title>cluster_src/app/common</title>
<path fill="#ffffff" stroke="black" stroke-width="2" d="M320.5,-1350.13C320.5,-1350.13 482.5,-1350.13 482.5,-1350.13 488.5,-1350.13 494.5,-1356.13 494.5,-1362.13 494.5,-1362.13 494.5,-1578.13 494.5,-1578.13 494.5,-1584.13 488.5,-1590.13 482.5,-1590.13 482.5,-1590.13 320.5,-1590.13 320.5,-1590.13 314.5,-1590.13 308.5,-1584.13 308.5,-1578.13 308.5,-1578.13 308.5,-1362.13 308.5,-1362.13 308.5,-1356.13 314.5,-1350.13 320.5,-1350.13"/>
<text text-anchor="middle" x="401.5" y="-1578.93" font-family="Helvetica,sans-Serif" font-weight="bold" font-size="9.00">common</text>
</g>
<g id="clust12" class="cluster">
<title>cluster_src/app/common/form</title>
<path fill="#ffffff" stroke="black" stroke-width="2" d="M328.5,-1418.13C328.5,-1418.13 474.5,-1418.13 474.5,-1418.13 480.5,-1418.13 486.5,-1424.13 486.5,-1430.13 486.5,-1430.13 486.5,-1552.13 486.5,-1552.13 486.5,-1558.13 480.5,-1564.13 474.5,-1564.13 474.5,-1564.13 328.5,-1564.13 328.5,-1564.13 322.5,-1564.13 316.5,-1558.13 316.5,-1552.13 316.5,-1552.13 316.5,-1430.13 316.5,-1430.13 316.5,-1424.13 322.5,-1418.13 328.5,-1418.13"/>
<text text-anchor="middle" x="401.5" y="-1552.93" font-family="Helvetica,sans-Serif" font-weight="bold" font-size="9.00">form</text>
</g>
<g id="clust13" class="cluster">
<title>cluster_src/app/common/form/issue&#45;form</title>
<path fill="#ffffff" stroke="black" stroke-width="2" d="M341,-1486.13C341,-1486.13 462,-1486.13 462,-1486.13 468,-1486.13 474,-1492.13 474,-1498.13 474,-1498.13 474,-1526.13 474,-1526.13 474,-1532.13 468,-1538.13 462,-1538.13 462,-1538.13 341,-1538.13 341,-1538.13 335,-1538.13 329,-1532.13 329,-1526.13 329,-1526.13 329,-1498.13 329,-1498.13 329,-1492.13 335,-1486.13 341,-1486.13"/>
<text text-anchor="middle" x="401.5" y="-1526.93" font-family="Helvetica,sans-Serif" font-weight="bold" font-size="9.00">issue&#45;form</text>
</g>
<g id="clust14" class="cluster">
<title>cluster_src/app/common/form/project&#45;form</title>
<path fill="#ffffff" stroke="black" stroke-width="2" d="M336.5,-1426.13C336.5,-1426.13 466.5,-1426.13 466.5,-1426.13 472.5,-1426.13 478.5,-1432.13 478.5,-1438.13 478.5,-1438.13 478.5,-1466.13 478.5,-1466.13 478.5,-1472.13 472.5,-1478.13 466.5,-1478.13 466.5,-1478.13 336.5,-1478.13 336.5,-1478.13 330.5,-1478.13 324.5,-1472.13 324.5,-1466.13 324.5,-1466.13 324.5,-1438.13 324.5,-1438.13 324.5,-1432.13 330.5,-1426.13 336.5,-1426.13"/>
<text text-anchor="middle" x="401.5" y="-1466.93" font-family="Helvetica,sans-Serif" font-weight="bold" font-size="9.00">project&#45;form</text>
</g>
<g id="clust15" class="cluster">
<title>cluster_src/app/common/navbar</title>
<path fill="#ffffff" stroke="black" stroke-width="2" d="M349,-1358.13C349,-1358.13 454,-1358.13 454,-1358.13 460,-1358.13 466,-1364.13 466,-1370.13 466,-1370.13 466,-1398.13 466,-1398.13 466,-1404.13 460,-1410.13 454,-1410.13 454,-1410.13 349,-1410.13 349,-1410.13 343,-1410.13 337,-1404.13 337,-1398.13 337,-1398.13 337,-1370.13 337,-1370.13 337,-1364.13 343,-1358.13 349,-1358.13"/>
<text text-anchor="middle" x="401.5" y="-1398.93" font-family="Helvetica,sans-Serif" font-weight="bold" font-size="9.00">navbar</text>
</g>
<g id="clust16" class="cluster">
<title>cluster_src/app/layouts</title>
<path fill="#ffffff" stroke="black" stroke-width="2" d="M79,-1350.13C79,-1350.13 223,-1350.13 223,-1350.13 229,-1350.13 235,-1356.13 235,-1362.13 235,-1362.13 235,-1484.13 235,-1484.13 235,-1490.13 229,-1496.13 223,-1496.13 223,-1496.13 79,-1496.13 79,-1496.13 73,-1496.13 67,-1490.13 67,-1484.13 67,-1484.13 67,-1362.13 67,-1362.13 67,-1356.13 73,-1350.13 79,-1350.13"/>
<text text-anchor="middle" x="151" y="-1484.93" font-family="Helvetica,sans-Serif" font-weight="bold" font-size="9.00">layouts</text>
</g>
<g id="clust17" class="cluster">
<title>cluster_src/app/layouts/main&#45;layout</title>
<path fill="#ffffff" stroke="black" stroke-width="2" d="M87,-1358.13C87,-1358.13 215,-1358.13 215,-1358.13 221,-1358.13 227,-1364.13 227,-1370.13 227,-1370.13 227,-1398.13 227,-1398.13 227,-1404.13 221,-1410.13 215,-1410.13 215,-1410.13 87,-1410.13 87,-1410.13 81,-1410.13 75,-1404.13 75,-1398.13 75,-1398.13 75,-1370.13 75,-1370.13 75,-1364.13 81,-1358.13 87,-1358.13"/>
<text text-anchor="middle" x="151" y="-1398.93" font-family="Helvetica,sans-Serif" font-weight="bold" font-size="9.00">main&#45;layout</text>
</g>
<g id="clust18" class="cluster">
<title>cluster_src/app/layouts/tabs&#45;layout</title>
<path fill="#ffffff" stroke="black" stroke-width="2" d="M88.5,-1418.13C88.5,-1418.13 213.5,-1418.13 213.5,-1418.13 219.5,-1418.13 225.5,-1424.13 225.5,-1430.13 225.5,-1430.13 225.5,-1458.13 225.5,-1458.13 225.5,-1464.13 219.5,-1470.13 213.5,-1470.13 213.5,-1470.13 88.5,-1470.13 88.5,-1470.13 82.5,-1470.13 76.5,-1464.13 76.5,-1458.13 76.5,-1458.13 76.5,-1430.13 76.5,-1430.13 76.5,-1424.13 82.5,-1418.13 88.5,-1418.13"/>
<text text-anchor="middle" x="151" y="-1458.93" font-family="Helvetica,sans-Serif" font-weight="bold" font-size="9.00">tabs&#45;layout</text>
</g>
<g id="clust19" class="cluster">
<title>cluster_src/app/main</title>
<path fill="#ffffff" stroke="black" stroke-width="2" d="M36,-492.13C36,-492.13 507.5,-492.13 507.5,-492.13 513.5,-492.13 519.5,-498.13 519.5,-504.13 519.5,-504.13 519.5,-1276.13 519.5,-1276.13 519.5,-1282.13 513.5,-1288.13 507.5,-1288.13 507.5,-1288.13 36,-1288.13 36,-1288.13 30,-1288.13 24,-1282.13 24,-1276.13 24,-1276.13 24,-504.13 24,-504.13 24,-498.13 30,-492.13 36,-492.13"/>
<text text-anchor="middle" x="271.75" y="-1276.93" font-family="Helvetica,sans-Serif" font-weight="bold" font-size="9.00">main</text>
</g>
<g id="clust20" class="cluster">
<title>cluster_src/app/main/account</title>
<path fill="#ffffff" stroke="black" stroke-width="2" d="M95.5,-868.13C95.5,-868.13 206.5,-868.13 206.5,-868.13 212.5,-868.13 218.5,-874.13 218.5,-880.13 218.5,-880.13 218.5,-908.13 218.5,-908.13 218.5,-914.13 212.5,-920.13 206.5,-920.13 206.5,-920.13 95.5,-920.13 95.5,-920.13 89.5,-920.13 83.5,-914.13 83.5,-908.13 83.5,-908.13 83.5,-880.13 83.5,-880.13 83.5,-874.13 89.5,-868.13 95.5,-868.13"/>
<text text-anchor="middle" x="151" y="-908.93" font-family="Helvetica,sans-Serif" font-weight="bold" font-size="9.00">account</text>
</g>
<g id="clust21" class="cluster">
<title>cluster_src/app/main/issues</title>
<path fill="#ffffff" stroke="black" stroke-width="2" d="M88,-1116.13C88,-1116.13 488,-1116.13 488,-1116.13 494,-1116.13 500,-1122.13 500,-1128.13 500,-1128.13 500,-1250.13 500,-1250.13 500,-1256.13 494,-1262.13 488,-1262.13 488,-1262.13 88,-1262.13 88,-1262.13 82,-1262.13 76,-1256.13 76,-1250.13 76,-1250.13 76,-1128.13 76,-1128.13 76,-1122.13 82,-1116.13 88,-1116.13"/>
<text text-anchor="middle" x="288" y="-1250.93" font-family="Helvetica,sans-Serif" font-weight="bold" font-size="9.00">issues</text>
</g>
<g id="clust22" class="cluster">
<title>cluster_src/app/main/issues/view&#45;issue</title>
<path fill="#ffffff" stroke="black" stroke-width="2" d="M96,-1150.13C96,-1150.13 480,-1150.13 480,-1150.13 486,-1150.13 492,-1156.13 492,-1162.13 492,-1162.13 492,-1224.13 492,-1224.13 492,-1230.13 486,-1236.13 480,-1236.13 480,-1236.13 96,-1236.13 96,-1236.13 90,-1236.13 84,-1230.13 84,-1224.13 84,-1224.13 84,-1162.13 84,-1162.13 84,-1156.13 90,-1150.13 96,-1150.13"/>
<text text-anchor="middle" x="288" y="-1224.93" font-family="Helvetica,sans-Serif" font-weight="bold" font-size="9.00">view&#45;issue</text>
</g>
<g id="clust23" class="cluster">
<title>cluster_src/app/main/issues/view&#45;issue/view&#45;comment</title>
<path fill="#ffffff" stroke="black" stroke-width="2" d="M331,-1158.13C331,-1158.13 472,-1158.13 472,-1158.13 478,-1158.13 484,-1164.13 484,-1170.13 484,-1170.13 484,-1198.13 484,-1198.13 484,-1204.13 478,-1210.13 472,-1210.13 472,-1210.13 331,-1210.13 331,-1210.13 325,-1210.13 319,-1204.13 319,-1198.13 319,-1198.13 319,-1170.13 319,-1170.13 319,-1164.13 325,-1158.13 331,-1158.13"/>
<text text-anchor="middle" x="401.5" y="-1198.93" font-family="Helvetica,sans-Serif" font-weight="bold" font-size="9.00">view&#45;comment</text>
</g>
<g id="clust24" class="cluster">
<title>cluster_src/app/main/issues/view&#45;issue/view</title>
<path fill="#ffffff" stroke="black" stroke-width="2" d="M104,-1158.13C104,-1158.13 198,-1158.13 198,-1158.13 204,-1158.13 210,-1164.13 210,-1170.13 210,-1170.13 210,-1198.13 210,-1198.13 210,-1204.13 204,-1210.13 198,-1210.13 198,-1210.13 104,-1210.13 104,-1210.13 98,-1210.13 92,-1204.13 92,-1198.13 92,-1198.13 92,-1170.13 92,-1170.13 92,-1164.13 98,-1158.13 104,-1158.13"/>
<text text-anchor="middle" x="151" y="-1198.93" font-family="Helvetica,sans-Serif" font-weight="bold" font-size="9.00">view</text>
</g>
<g id="clust25" class="cluster">
<title>cluster_src/app/main/manage</title>
<path fill="#ffffff" stroke="black" stroke-width="2" d="M84.5,-928.13C84.5,-928.13 499.5,-928.13 499.5,-928.13 505.5,-928.13 511.5,-934.13 511.5,-940.13 511.5,-940.13 511.5,-1096.13 511.5,-1096.13 511.5,-1102.13 505.5,-1108.13 499.5,-1108.13 499.5,-1108.13 84.5,-1108.13 84.5,-1108.13 78.5,-1108.13 72.5,-1102.13 72.5,-1096.13 72.5,-1096.13 72.5,-940.13 72.5,-940.13 72.5,-934.13 78.5,-928.13 84.5,-928.13"/>
<text text-anchor="middle" x="292" y="-1096.93" font-family="Helvetica,sans-Serif" font-weight="bold" font-size="9.00">manage</text>
</g>
<g id="clust26" class="cluster">
<title>cluster_src/app/main/manage/labels</title>
<path fill="#ffffff" stroke="black" stroke-width="2" d="M101,-1030.13C101,-1030.13 201,-1030.13 201,-1030.13 207,-1030.13 213,-1036.13 213,-1042.13 213,-1042.13 213,-1070.13 213,-1070.13 213,-1076.13 207,-1082.13 201,-1082.13 201,-1082.13 101,-1082.13 101,-1082.13 95,-1082.13 89,-1076.13 89,-1070.13 89,-1070.13 89,-1042.13 89,-1042.13 89,-1036.13 95,-1030.13 101,-1030.13"/>
<text text-anchor="middle" x="151" y="-1070.93" font-family="Helvetica,sans-Serif" font-weight="bold" font-size="9.00">labels</text>
</g>
<g id="clust27" class="cluster">
<title>cluster_src/app/main/manage/members</title>
<path fill="#ffffff" stroke="black" stroke-width="2" d="M92.5,-936.13C92.5,-936.13 491.5,-936.13 491.5,-936.13 497.5,-936.13 503.5,-942.13 503.5,-948.13 503.5,-948.13 503.5,-1010.13 503.5,-1010.13 503.5,-1016.13 497.5,-1022.13 491.5,-1022.13 491.5,-1022.13 92.5,-1022.13 92.5,-1022.13 86.5,-1022.13 80.5,-1016.13 80.5,-1010.13 80.5,-1010.13 80.5,-948.13 80.5,-948.13 80.5,-942.13 86.5,-936.13 92.5,-936.13"/>
<text text-anchor="middle" x="292" y="-1010.93" font-family="Helvetica,sans-Serif" font-weight="bold" font-size="9.00">members</text>
</g>
<g id="clust28" class="cluster">
<title>cluster_src/app/main/manage/members/project&#45;invite&#45;dialog</title>
<path fill="#ffffff" stroke="black" stroke-width="2" d="M319.5,-944.13C319.5,-944.13 483.5,-944.13 483.5,-944.13 489.5,-944.13 495.5,-950.13 495.5,-956.13 495.5,-956.13 495.5,-984.13 495.5,-984.13 495.5,-990.13 489.5,-996.13 483.5,-996.13 483.5,-996.13 319.5,-996.13 319.5,-996.13 313.5,-996.13 307.5,-990.13 307.5,-984.13 307.5,-984.13 307.5,-956.13 307.5,-956.13 307.5,-950.13 313.5,-944.13 319.5,-944.13"/>
<text text-anchor="middle" x="401.5" y="-984.93" font-family="Helvetica,sans-Serif" font-weight="bold" font-size="9.00">project&#45;invite&#45;dialog</text>
</g>
<g id="clust29" class="cluster">
<title>cluster_src/app/main/organization&#45;invitation</title>
<path fill="#ffffff" stroke="black" stroke-width="2" d="M44,-620.13C44,-620.13 258,-620.13 258,-620.13 264,-620.13 270,-626.13 270,-632.13 270,-632.13 270,-694.13 270,-694.13 270,-700.13 264,-706.13 258,-706.13 258,-706.13 44,-706.13 44,-706.13 38,-706.13 32,-700.13 32,-694.13 32,-694.13 32,-632.13 32,-632.13 32,-626.13 38,-620.13 44,-620.13"/>
<text text-anchor="middle" x="151" y="-694.93" font-family="Helvetica,sans-Serif" font-weight="bold" font-size="9.00">organization&#45;invitation</text>
</g>
<g id="clust30" class="cluster">
<title>cluster_src/app/main/organization&#45;invitation/organization&#45;invitation&#45;item</title>
<path fill="#ffffff" stroke="black" stroke-width="2" d="M52,-628.13C52,-628.13 250,-628.13 250,-628.13 256,-628.13 262,-634.13 262,-640.13 262,-640.13 262,-668.13 262,-668.13 262,-674.13 256,-680.13 250,-680.13 250,-680.13 52,-680.13 52,-680.13 46,-680.13 40,-674.13 40,-668.13 40,-668.13 40,-640.13 40,-640.13 40,-634.13 46,-628.13 52,-628.13"/>
<text text-anchor="middle" x="151" y="-668.93" font-family="Helvetica,sans-Serif" font-weight="bold" font-size="9.00">organization&#45;invitation&#45;item</text>
</g>
<g id="clust31" class="cluster">
<title>cluster_src/app/main/organizations</title>
<path fill="#ffffff" stroke="black" stroke-width="2" d="M47,-714.13C47,-714.13 491,-714.13 491,-714.13 497,-714.13 503,-720.13 503,-726.13 503,-726.13 503,-848.13 503,-848.13 503,-854.13 497,-860.13 491,-860.13 491,-860.13 47,-860.13 47,-860.13 41,-860.13 35,-854.13 35,-848.13 35,-848.13 35,-726.13 35,-726.13 35,-720.13 41,-714.13 47,-714.13"/>
<text text-anchor="middle" x="269" y="-848.93" font-family="Helvetica,sans-Serif" font-weight="bold" font-size="9.00">organizations</text>
</g>
<g id="clust32" class="cluster">
<title>cluster_src/app/main/organizations/manage</title>
<path fill="#ffffff" stroke="black" stroke-width="2" d="M55,-748.13C55,-748.13 483,-748.13 483,-748.13 489,-748.13 495,-754.13 495,-760.13 495,-760.13 495,-822.13 495,-822.13 495,-828.13 489,-834.13 483,-834.13 483,-834.13 55,-834.13 55,-834.13 49,-834.13 43,-828.13 43,-822.13 43,-822.13 43,-760.13 43,-760.13 43,-754.13 49,-748.13 55,-748.13"/>
<text text-anchor="middle" x="269" y="-822.93" font-family="Helvetica,sans-Serif" font-weight="bold" font-size="9.00">manage</text>
</g>
<g id="clust33" class="cluster">
<title>cluster_src/app/main/organizations/manage/org&#45;invite&#45;dialog</title>
<path fill="#ffffff" stroke="black" stroke-width="2" d="M328,-756.13C328,-756.13 475,-756.13 475,-756.13 481,-756.13 487,-762.13 487,-768.13 487,-768.13 487,-796.13 487,-796.13 487,-802.13 481,-808.13 475,-808.13 475,-808.13 328,-808.13 328,-808.13 322,-808.13 316,-802.13 316,-796.13 316,-796.13 316,-768.13 316,-768.13 316,-762.13 322,-756.13 328,-756.13"/>
<text text-anchor="middle" x="401.5" y="-796.93" font-family="Helvetica,sans-Serif" font-weight="bold" font-size="9.00">org&#45;invite&#45;dialog</text>
</g>
<g id="clust34" class="cluster">
<title>cluster_src/app/main/organizations/manage/organization&#45;members</title>
<path fill="#ffffff" stroke="black" stroke-width="2" d="M63,-756.13C63,-756.13 239,-756.13 239,-756.13 245,-756.13 251,-762.13 251,-768.13 251,-768.13 251,-796.13 251,-796.13 251,-802.13 245,-808.13 239,-808.13 239,-808.13 63,-808.13 63,-808.13 57,-808.13 51,-802.13 51,-796.13 51,-796.13 51,-768.13 51,-768.13 51,-762.13 57,-756.13 63,-756.13"/>
<text text-anchor="middle" x="151" y="-796.93" font-family="Helvetica,sans-Serif" font-weight="bold" font-size="9.00">organization&#45;members</text>
</g>
<g id="clust35" class="cluster">
<title>cluster_src/app/main/projects</title>
<path fill="#ffffff" stroke="black" stroke-width="2" d="M95.5,-500.13C95.5,-500.13 206.5,-500.13 206.5,-500.13 212.5,-500.13 218.5,-506.13 218.5,-512.13 218.5,-512.13 218.5,-540.13 218.5,-540.13 218.5,-546.13 212.5,-552.13 206.5,-552.13 206.5,-552.13 95.5,-552.13 95.5,-552.13 89.5,-552.13 83.5,-546.13 83.5,-540.13 83.5,-540.13 83.5,-512.13 83.5,-512.13 83.5,-506.13 89.5,-500.13 95.5,-500.13"/>
<text text-anchor="middle" x="151" y="-540.93" font-family="Helvetica,sans-Serif" font-weight="bold" font-size="9.00">projects</text>
</g>
<g id="clust36" class="cluster">
<title>cluster_src/app/main/worktime</title>
<path fill="#ffffff" stroke="black" stroke-width="2" d="M92.5,-560.13C92.5,-560.13 209.5,-560.13 209.5,-560.13 215.5,-560.13 221.5,-566.13 221.5,-572.13 221.5,-572.13 221.5,-600.13 221.5,-600.13 221.5,-606.13 215.5,-612.13 209.5,-612.13 209.5,-612.13 92.5,-612.13 92.5,-612.13 86.5,-612.13 80.5,-606.13 80.5,-600.13 80.5,-600.13 80.5,-572.13 80.5,-572.13 80.5,-566.13 86.5,-560.13 92.5,-560.13"/>
<text text-anchor="middle" x="151" y="-600.93" font-family="Helvetica,sans-Serif" font-weight="bold" font-size="9.00">worktime</text>
</g>
<g id="clust37" class="cluster">
<title>cluster_src/app/shared</title>
<path fill="#ffffff" stroke="black" stroke-width="2" d="M72,-1604.13C72,-1604.13 754,-1604.13 754,-1604.13 760,-1604.13 766,-1610.13 766,-1616.13 766,-1616.13 766,-1958.13 766,-1958.13 766,-1964.13 760,-1970.13 754,-1970.13 754,-1970.13 72,-1970.13 72,-1970.13 66,-1970.13 60,-1964.13 60,-1958.13 60,-1958.13 60,-1616.13 60,-1616.13 60,-1610.13 66,-1604.13 72,-1604.13"/>
<text text-anchor="middle" x="413" y="-1958.93" font-family="Helvetica,sans-Serif" font-weight="bold" font-size="9.00">shared</text>
</g>
<g id="clust38" class="cluster">
<title>cluster_src/app/shared/constants</title>
<path fill="#ffffff" stroke="black" stroke-width="2" d="M670.5,-1848.13C670.5,-1848.13 735.5,-1848.13 735.5,-1848.13 741.5,-1848.13 747.5,-1854.13 747.5,-1860.13 747.5,-1860.13 747.5,-1922.13 747.5,-1922.13 747.5,-1928.13 741.5,-1934.13 735.5,-1934.13 735.5,-1934.13 670.5,-1934.13 670.5,-1934.13 664.5,-1934.13 658.5,-1928.13 658.5,-1922.13 658.5,-1922.13 658.5,-1860.13 658.5,-1860.13 658.5,-1854.13 664.5,-1848.13 670.5,-1848.13"/>
<text text-anchor="middle" x="703" y="-1922.93" font-family="Helvetica,sans-Serif" font-weight="bold" font-size="9.00">constants</text>
</g>
<g id="clust39" class="cluster">
<title>cluster_src/app/shared/constants/user</title>
<path fill="#ffffff" stroke="black" stroke-width="2" d="M678.5,-1856.13C678.5,-1856.13 727.5,-1856.13 727.5,-1856.13 733.5,-1856.13 739.5,-1862.13 739.5,-1868.13 739.5,-1868.13 739.5,-1896.13 739.5,-1896.13 739.5,-1902.13 733.5,-1908.13 727.5,-1908.13 727.5,-1908.13 678.5,-1908.13 678.5,-1908.13 672.5,-1908.13 666.5,-1902.13 666.5,-1896.13 666.5,-1896.13 666.5,-1868.13 666.5,-1868.13 666.5,-1862.13 672.5,-1856.13 678.5,-1856.13"/>
<text text-anchor="middle" x="703" y="-1896.93" font-family="Helvetica,sans-Serif" font-weight="bold" font-size="9.00">user</text>
</g>
<g id="clust40" class="cluster">
<title>cluster_src/app/shared/guards</title>
<path fill="#ffffff" stroke="black" stroke-width="2" d="M80,-1612.13C80,-1612.13 222,-1612.13 222,-1612.13 228,-1612.13 234,-1618.13 234,-1624.13 234,-1624.13 234,-1866.13 234,-1866.13 234,-1872.13 228,-1878.13 222,-1878.13 222,-1878.13 80,-1878.13 80,-1878.13 74,-1878.13 68,-1872.13 68,-1866.13 68,-1866.13 68,-1624.13 68,-1624.13 68,-1618.13 74,-1612.13 80,-1612.13"/>
<text text-anchor="middle" x="151" y="-1866.93" font-family="Helvetica,sans-Serif" font-weight="bold" font-size="9.00">guards</text>
</g>
<g id="clust41" class="cluster">
<title>cluster_src/app/shared/guards/authenticated</title>
<path fill="#ffffff" stroke="black" stroke-width="2" d="M94,-1680.13C94,-1680.13 208,-1680.13 208,-1680.13 214,-1680.13 220,-1686.13 220,-1692.13 220,-1692.13 220,-1720.13 220,-1720.13 220,-1726.13 214,-1732.13 208,-1732.13 208,-1732.13 94,-1732.13 94,-1732.13 88,-1732.13 82,-1726.13 82,-1720.13 82,-1720.13 82,-1692.13 82,-1692.13 82,-1686.13 88,-1680.13 94,-1680.13"/>
<text text-anchor="middle" x="151" y="-1720.93" font-family="Helvetica,sans-Serif" font-weight="bold" font-size="9.00">authenticated</text>
</g>
<g id="clust42" class="cluster">
<title>cluster_src/app/shared/guards/invitation</title>
<path fill="#ffffff" stroke="black" stroke-width="2" d="M105,-1800.13C105,-1800.13 197,-1800.13 197,-1800.13 203,-1800.13 209,-1806.13 209,-1812.13 209,-1812.13 209,-1840.13 209,-1840.13 209,-1846.13 203,-1852.13 197,-1852.13 197,-1852.13 105,-1852.13 105,-1852.13 99,-1852.13 93,-1846.13 93,-1840.13 93,-1840.13 93,-1812.13 93,-1812.13 93,-1806.13 99,-1800.13 105,-1800.13"/>
<text text-anchor="middle" x="151" y="-1840.93" font-family="Helvetica,sans-Serif" font-weight="bold" font-size="9.00">invitation</text>
</g>
<g id="clust43" class="cluster">
<title>cluster_src/app/shared/guards/permission</title>
<path fill="#ffffff" stroke="black" stroke-width="2" d="M101.5,-1740.13C101.5,-1740.13 200.5,-1740.13 200.5,-1740.13 206.5,-1740.13 212.5,-1746.13 212.5,-1752.13 212.5,-1752.13 212.5,-1780.13 212.5,-1780.13 212.5,-1786.13 206.5,-1792.13 200.5,-1792.13 200.5,-1792.13 101.5,-1792.13 101.5,-1792.13 95.5,-1792.13 89.5,-1786.13 89.5,-1780.13 89.5,-1780.13 89.5,-1752.13 89.5,-1752.13 89.5,-1746.13 95.5,-1740.13 101.5,-1740.13"/>
<text text-anchor="middle" x="151" y="-1780.93" font-family="Helvetica,sans-Serif" font-weight="bold" font-size="9.00">permission</text>
</g>
<g id="clust44" class="cluster">
<title>cluster_src/app/shared/guards/unauthenticated</title>
<path fill="#ffffff" stroke="black" stroke-width="2" d="M88,-1620.13C88,-1620.13 214,-1620.13 214,-1620.13 220,-1620.13 226,-1626.13 226,-1632.13 226,-1632.13 226,-1660.13 226,-1660.13 226,-1666.13 220,-1672.13 214,-1672.13 214,-1672.13 88,-1672.13 88,-1672.13 82,-1672.13 76,-1666.13 76,-1660.13 76,-1660.13 76,-1632.13 76,-1632.13 76,-1626.13 82,-1620.13 88,-1620.13"/>
<text text-anchor="middle" x="151" y="-1660.93" font-family="Helvetica,sans-Serif" font-weight="bold" font-size="9.00">unauthenticated</text>
</g>
<g id="clust45" class="cluster">
<title>cluster_src/app/shared/interceptors</title>
<path fill="#ffffff" stroke="black" stroke-width="2" d="M347,-1650.13C347,-1650.13 456,-1650.13 456,-1650.13 462,-1650.13 468,-1656.13 468,-1662.13 468,-1662.13 468,-1724.13 468,-1724.13 468,-1730.13 462,-1736.13 456,-1736.13 456,-1736.13 347,-1736.13 347,-1736.13 341,-1736.13 335,-1730.13 335,-1724.13 335,-1724.13 335,-1662.13 335,-1662.13 335,-1656.13 341,-1650.13 347,-1650.13"/>
<text text-anchor="middle" x="401.5" y="-1724.93" font-family="Helvetica,sans-Serif" font-weight="bold" font-size="9.00">interceptors</text>
</g>
<g id="clust46" class="cluster">
<title>cluster_src/app/shared/interceptors/auth</title>
<path fill="#ffffff" stroke="black" stroke-width="2" d="M355,-1658.13C355,-1658.13 448,-1658.13 448,-1658.13 454,-1658.13 460,-1664.13 460,-1670.13 460,-1670.13 460,-1698.13 460,-1698.13 460,-1704.13 454,-1710.13 448,-1710.13 448,-1710.13 355,-1710.13 355,-1710.13 349,-1710.13 343,-1704.13 343,-1698.13 343,-1698.13 343,-1670.13 343,-1670.13 343,-1664.13 349,-1658.13 355,-1658.13"/>
<text text-anchor="middle" x="401.5" y="-1698.93" font-family="Helvetica,sans-Serif" font-weight="bold" font-size="9.00">auth</text>
</g>
<g id="clust47" class="cluster">
<title>cluster_src/app/shared/resolvers</title>
<path fill="#ffffff" stroke="black" stroke-width="2" d="M340.5,-1754.13C340.5,-1754.13 462.5,-1754.13 462.5,-1754.13 468.5,-1754.13 474.5,-1760.13 474.5,-1766.13 474.5,-1766.13 474.5,-1828.13 474.5,-1828.13 474.5,-1834.13 468.5,-1840.13 462.5,-1840.13 462.5,-1840.13 340.5,-1840.13 340.5,-1840.13 334.5,-1840.13 328.5,-1834.13 328.5,-1828.13 328.5,-1828.13 328.5,-1766.13 328.5,-1766.13 328.5,-1760.13 334.5,-1754.13 340.5,-1754.13"/>
<text text-anchor="middle" x="401.5" y="-1828.93" font-family="Helvetica,sans-Serif" font-weight="bold" font-size="9.00">resolvers</text>
</g>
<g id="clust48" class="cluster">
<title>cluster_src/app/shared/resolvers/permission</title>
<path fill="#ffffff" stroke="black" stroke-width="2" d="M348.5,-1762.13C348.5,-1762.13 454.5,-1762.13 454.5,-1762.13 460.5,-1762.13 466.5,-1768.13 466.5,-1774.13 466.5,-1774.13 466.5,-1802.13 466.5,-1802.13 466.5,-1808.13 460.5,-1814.13 454.5,-1814.13 454.5,-1814.13 348.5,-1814.13 348.5,-1814.13 342.5,-1814.13 336.5,-1808.13 336.5,-1802.13 336.5,-1802.13 336.5,-1774.13 336.5,-1774.13 336.5,-1768.13 342.5,-1762.13 348.5,-1762.13"/>
<text text-anchor="middle" x="401.5" y="-1802.93" font-family="Helvetica,sans-Serif" font-weight="bold" font-size="9.00">permission</text>
</g>
<g id="clust49" class="cluster">
<title>cluster_src/app/shared/services</title>
<path fill="#ffffff" stroke="black" stroke-width="2" d="M357,-1848.13C357,-1848.13 628,-1848.13 628,-1848.13 634,-1848.13 640,-1854.13 640,-1860.13 640,-1860.13 640,-1922.13 640,-1922.13 640,-1928.13 634,-1934.13 628,-1934.13 628,-1934.13 357,-1934.13 357,-1934.13 351,-1934.13 345,-1928.13 345,-1922.13 345,-1922.13 345,-1860.13 345,-1860.13 345,-1854.13 351,-1848.13 357,-1848.13"/>
<text text-anchor="middle" x="492.5" y="-1922.93" font-family="Helvetica,sans-Serif" font-weight="bold" font-size="9.00">services</text>
</g>
<g id="clust50" class="cluster">
<title>cluster_src/app/shared/services/auth</title>
<path fill="#ffffff" stroke="black" stroke-width="2" d="M545,-1856.13C545,-1856.13 620,-1856.13 620,-1856.13 626,-1856.13 632,-1862.13 632,-1868.13 632,-1868.13 632,-1896.13 632,-1896.13 632,-1902.13 626,-1908.13 620,-1908.13 620,-1908.13 545,-1908.13 545,-1908.13 539,-1908.13 533,-1902.13 533,-1896.13 533,-1896.13 533,-1868.13 533,-1868.13 533,-1862.13 539,-1856.13 545,-1856.13"/>
<text text-anchor="middle" x="582.5" y="-1896.93" font-family="Helvetica,sans-Serif" font-weight="bold" font-size="9.00">auth</text>
</g>
<g id="clust51" class="cluster">
<title>cluster_src/app/shared/services/user</title>
<path fill="#ffffff" stroke="black" stroke-width="2" d="M365,-1856.13C365,-1856.13 438,-1856.13 438,-1856.13 444,-1856.13 450,-1862.13 450,-1868.13 450,-1868.13 450,-1896.13 450,-1896.13 450,-1902.13 444,-1908.13 438,-1908.13 438,-1908.13 365,-1908.13 365,-1908.13 359,-1908.13 353,-1902.13 353,-1896.13 353,-1896.13 353,-1868.13 353,-1868.13 353,-1862.13 359,-1856.13 365,-1856.13"/>
<text text-anchor="middle" x="401.5" y="-1896.93" font-family="Helvetica,sans-Serif" font-weight="bold" font-size="9.00">user</text>
</g>
<g id="clust52" class="cluster">
<title>cluster_src/app/shared/utils</title>
<path fill="#ffffff" stroke="black" stroke-width="2" d="M660,-1683.13C660,-1683.13 746,-1683.13 746,-1683.13 752,-1683.13 758,-1689.13 758,-1695.13 758,-1695.13 758,-1757.13 758,-1757.13 758,-1763.13 752,-1769.13 746,-1769.13 746,-1769.13 660,-1769.13 660,-1769.13 654,-1769.13 648,-1763.13 648,-1757.13 648,-1757.13 648,-1695.13 648,-1695.13 648,-1689.13 654,-1683.13 660,-1683.13"/>
<text text-anchor="middle" x="703" y="-1757.93" font-family="Helvetica,sans-Serif" font-weight="bold" font-size="9.00">utils</text>
</g>
<g id="clust53" class="cluster">
<title>cluster_src/app/shared/utils/jwtDecoder</title>
<path fill="#ffffff" stroke="black" stroke-width="2" d="M668,-1691.13C668,-1691.13 738,-1691.13 738,-1691.13 744,-1691.13 750,-1697.13 750,-1703.13 750,-1703.13 750,-1731.13 750,-1731.13 750,-1737.13 744,-1743.13 738,-1743.13 738,-1743.13 668,-1743.13 668,-1743.13 662,-1743.13 656,-1737.13 656,-1731.13 656,-1731.13 656,-1703.13 656,-1703.13 656,-1697.13 662,-1691.13 668,-1691.13"/>
<text text-anchor="middle" x="703" y="-1731.93" font-family="Helvetica,sans-Serif" font-weight="bold" font-size="9.00">jwtDecoder</text>
</g>
<g id="clust54" class="cluster">
<title>cluster_src/environments</title>
<path fill="#ffffff" stroke="black" stroke-width="2" d="M664,-2004.13C664,-2004.13 742,-2004.13 742,-2004.13 748,-2004.13 754,-2010.13 754,-2016.13 754,-2016.13 754,-2044.13 754,-2044.13 754,-2050.13 748,-2056.13 742,-2056.13 742,-2056.13 664,-2056.13 664,-2056.13 658,-2056.13 652,-2050.13 652,-2044.13 652,-2044.13 652,-2016.13 652,-2016.13 652,-2010.13 658,-2004.13 664,-2004.13"/>
<text text-anchor="middle" x="703" y="-2044.93" font-family="Helvetica,sans-Serif" font-weight="bold" font-size="9.00">environments</text>
</g>
<!-- src/app/auth/login/login.component.ts -->
<g id="node1" class="node">
<title>src/app/auth/login/login.component.ts</title>
<g id="a_node1"><a xlink:href="src/app/auth/login/login.component.ts" xlink:title="login.component.ts">
<path fill="#ddfeff" stroke="black" d="M447.5,-252.13C447.5,-252.13 355.5,-252.13 355.5,-252.13 352.5,-252.13 349.5,-249.13 349.5,-246.13 349.5,-246.13 349.5,-240.13 349.5,-240.13 349.5,-237.13 352.5,-234.13 355.5,-234.13 355.5,-234.13 447.5,-234.13 447.5,-234.13 450.5,-234.13 453.5,-237.13 453.5,-240.13 453.5,-240.13 453.5,-246.13 453.5,-246.13 453.5,-249.13 450.5,-252.13 447.5,-252.13"/>
<text text-anchor="start" x="357.5" y="-240.93" font-family="Helvetica,sans-Serif" font-size="9.00">login.component.ts</text>
</a>
</g>
</g>
<!-- src/app/shared/services/auth/auth.service.ts -->
<g id="node2" class="node">
<title>src/app/shared/services/auth/auth.service.ts</title>
<g id="a_node2"><a xlink:href="src/app/shared/services/auth/auth.service.ts" xlink:title="auth.service.ts">
<path fill="#ddfeff" stroke="black" d="M618,-1882.13C618,-1882.13 547,-1882.13 547,-1882.13 544,-1882.13 541,-1879.13 541,-1876.13 541,-1876.13 541,-1870.13 541,-1870.13 541,-1867.13 544,-1864.13 547,-1864.13 547,-1864.13 618,-1864.13 618,-1864.13 621,-1864.13 624,-1867.13 624,-1870.13 624,-1870.13 624,-1876.13 624,-1876.13 624,-1879.13 621,-1882.13 618,-1882.13"/>
<text text-anchor="start" x="549" y="-1870.93" font-family="Helvetica,sans-Serif" font-size="9.00">auth.service.ts</text>
</a>
</g>
</g>
<!-- src/app/auth/login/login.component.ts&#45;&gt;src/app/shared/services/auth/auth.service.ts -->
<g id="edge1" class="edge">
<title>src/app/auth/login/login.component.ts&#45;&gt;src/app/shared/services/auth/auth.service.ts</title>
<path fill="none" stroke="#000000" stroke-width="2" stroke-opacity="0.200000" d="M453.51,-246.24C479.31,-250.7 508.56,-260.78 525,-283.13 534.98,-296.69 532.47,-872.3 533,-889.13 545.32,-1283.57 574.83,-1766.31 580.54,-1857.78"/>
<polygon fill="#000000" fill-opacity="0.200000" stroke="#000000" stroke-width="2" stroke-opacity="0.200000" points="578.45,-1858.05 580.92,-1863.91 582.64,-1857.79 578.45,-1858.05"/>
</g>
<!-- src/app/shared/utils/jwtDecoder/jwtDecoder.ts -->
<g id="node8" class="node">
<title>src/app/shared/utils/jwtDecoder/jwtDecoder.ts</title>
<g id="a_node8"><a xlink:href="src/app/shared/utils/jwtDecoder/jwtDecoder.ts" xlink:title="jwtDecoder.ts">
<path fill="#ddfeff" stroke="black" d="M736,-1717.13C736,-1717.13 670,-1717.13 670,-1717.13 667,-1717.13 664,-1714.13 664,-1711.13 664,-1711.13 664,-1705.13 664,-1705.13 664,-1702.13 667,-1699.13 670,-1699.13 670,-1699.13 736,-1699.13 736,-1699.13 739,-1699.13 742,-1702.13 742,-1705.13 742,-1705.13 742,-1711.13 742,-1711.13 742,-1714.13 739,-1717.13 736,-1717.13"/>
<text text-anchor="start" x="672" y="-1705.93" font-family="Helvetica,sans-Serif" font-size="9.00">jwtDecoder.ts</text>
</a>
</g>
</g>
<!-- src/app/shared/services/auth/auth.service.ts&#45;&gt;src/app/shared/utils/jwtDecoder/jwtDecoder.ts -->
<g id="edge43" class="edge">
<title>src/app/shared/services/auth/auth.service.ts&#45;&gt;src/app/shared/utils/jwtDecoder/jwtDecoder.ts</title>
<path fill="none" stroke="#000000" stroke-width="2" stroke-opacity="0.200000" d="M590.21,-1863.79C609.93,-1836.33 667.78,-1755.77 691.59,-1722.63"/>
<polygon fill="#000000" fill-opacity="0.200000" stroke="#000000" stroke-width="2" stroke-opacity="0.200000" points="693.57,-1723.47 695.36,-1717.37 690.16,-1721.02 693.57,-1723.47"/>
</g>
<!-- src/app/shared/constants/user/Claims.ts -->
<g id="node29" class="node">
<title>src/app/shared/constants/user/Claims.ts</title>
<g id="a_node29"><a xlink:href="src/app/shared/constants/user/Claims.ts" xlink:title="Claims.ts">
<path fill="#ddfeff" stroke="black" d="M725.5,-1882.13C725.5,-1882.13 680.5,-1882.13 680.5,-1882.13 677.5,-1882.13 674.5,-1879.13 674.5,-1876.13 674.5,-1876.13 674.5,-1870.13 674.5,-1870.13 674.5,-1867.13 677.5,-1864.13 680.5,-1864.13 680.5,-1864.13 725.5,-1864.13 725.5,-1864.13 728.5,-1864.13 731.5,-1867.13 731.5,-1870.13 731.5,-1870.13 731.5,-1876.13 731.5,-1876.13 731.5,-1879.13 728.5,-1882.13 725.5,-1882.13"/>
<text text-anchor="start" x="682.5" y="-1870.93" font-family="Helvetica,sans-Serif" font-size="9.00">Claims.ts</text>
</a>
</g>
</g>
<!-- src/app/shared/services/auth/auth.service.ts&#45;&gt;src/app/shared/constants/user/Claims.ts -->
<g id="edge42" class="edge">
<title>src/app/shared/services/auth/auth.service.ts&#45;&gt;src/app/shared/constants/user/Claims.ts</title>
<path fill="none" stroke="#000000" stroke-width="2" stroke-opacity="0.200000" d="M624.28,-1873.13C638.56,-1873.13 654.44,-1873.13 668.09,-1873.13"/>
<polygon fill="#000000" fill-opacity="0.200000" stroke="#000000" stroke-width="2" stroke-opacity="0.200000" points="668.2,-1875.23 674.2,-1873.13 668.2,-1871.03 668.2,-1875.23"/>
</g>
<!-- src/environments/environment.ts -->
<g id="node36" class="node">
<title>src/environments/environment.ts</title>
<g id="a_node36"><a xlink:href="src/environments/environment.ts" xlink:title="environment.ts">
<path fill="#ddfeff" stroke="black" d="M740,-2030.13C740,-2030.13 666,-2030.13 666,-2030.13 663,-2030.13 660,-2027.13 660,-2024.13 660,-2024.13 660,-2018.13 660,-2018.13 660,-2015.13 663,-2012.13 666,-2012.13 666,-2012.13 740,-2012.13 740,-2012.13 743,-2012.13 746,-2015.13 746,-2018.13 746,-2018.13 746,-2024.13 746,-2024.13 746,-2027.13 743,-2030.13 740,-2030.13"/>
<text text-anchor="start" x="668" y="-2018.93" font-family="Helvetica,sans-Serif" font-size="9.00">environment.ts</text>
</a>
</g>
</g>
<!-- src/app/shared/services/auth/auth.service.ts&#45;&gt;src/environments/environment.ts -->
<g id="edge41" class="edge">
<title>src/app/shared/services/auth/auth.service.ts&#45;&gt;src/environments/environment.ts</title>
<path fill="none" stroke="#000000" stroke-width="2" stroke-opacity="0.200000" d="M590.91,-1882.39C611.03,-1907.51 666.75,-1977.1 690.75,-2007.08"/>
<polygon fill="#000000" fill-opacity="0.200000" stroke="#000000" stroke-width="2" stroke-opacity="0.200000" points="689.2,-2008.5 694.59,-2011.87 692.48,-2005.88 689.2,-2008.5"/>
</g>
<!-- src/app/auth/not&#45;found/not&#45;found.component.ts -->
<g id="node3" class="node">
<title>src/app/auth/not&#45;found/not&#45;found.component.ts</title>
<g id="a_node3"><a xlink:href="src/app/auth/not-found/not-found.component.ts" xlink:title="not&#45;found.component.ts">
<path fill="#ddfeff" stroke="black" d="M459,-192.13C459,-192.13 344,-192.13 344,-192.13 341,-192.13 338,-189.13 338,-186.13 338,-186.13 338,-180.13 338,-180.13 338,-177.13 341,-174.13 344,-174.13 344,-174.13 459,-174.13 459,-174.13 462,-174.13 465,-177.13 465,-180.13 465,-180.13 465,-186.13 465,-186.13 465,-189.13 462,-192.13 459,-192.13"/>
<text text-anchor="start" x="346" y="-180.93" font-family="Helvetica,sans-Serif" font-size="9.00">not&#45;found.component.ts</text>
</a>
</g>
</g>
<!-- src/app/auth/not&#45;found/not&#45;found.component.ts&#45;&gt;src/app/shared/services/auth/auth.service.ts -->
<g id="edge2" class="edge">
<title>src/app/auth/not&#45;found/not&#45;found.component.ts&#45;&gt;src/app/shared/services/auth/auth.service.ts</title>
<path fill="none" stroke="#000000" stroke-width="2" stroke-opacity="0.200000" d="M465.24,-188.63C487.76,-193.97 511.03,-204.11 525,-223.13 530.48,-230.58 532.72,-879.88 533,-889.13 545.09,-1283.58 574.78,-1766.31 580.53,-1857.78"/>
<polygon fill="#000000" fill-opacity="0.200000" stroke="#000000" stroke-width="2" stroke-opacity="0.200000" points="578.44,-1858.05 580.91,-1863.91 582.63,-1857.79 578.44,-1858.05"/>
</g>
<!-- src/app/auth/request&#45;password&#45;reset&#45;email/request&#45;password&#45;reset&#45;email.component.ts -->
<g id="node4" class="node">
<title>src/app/auth/request&#45;password&#45;reset&#45;email/request&#45;password&#45;reset&#45;email.component.ts</title>
<g id="a_node4"><a xlink:href="src/app/auth/request-password-reset-email/request-password-reset-email.component.ts" xlink:title="request&#45;password&#45;reset&#45;email.component.ts">
<path fill="#ddfeff" stroke="black" d="M503,-132.13C503,-132.13 300,-132.13 300,-132.13 297,-132.13 294,-129.13 294,-126.13 294,-126.13 294,-120.13 294,-120.13 294,-117.13 297,-114.13 300,-114.13 300,-114.13 503,-114.13 503,-114.13 506,-114.13 509,-117.13 509,-120.13 509,-120.13 509,-126.13 509,-126.13 509,-129.13 506,-132.13 503,-132.13"/>
<text text-anchor="start" x="302" y="-120.93" font-family="Helvetica,sans-Serif" font-size="9.00">request&#45;password&#45;reset&#45;email.component.ts</text>
</a>
</g>
</g>
<!-- src/app/auth/request&#45;password&#45;reset&#45;email/request&#45;password&#45;reset&#45;email.component.ts&#45;&gt;src/app/shared/services/auth/auth.service.ts -->
<g id="edge3" class="edge">
<title>src/app/auth/request&#45;password&#45;reset&#45;email/request&#45;password&#45;reset&#45;email.component.ts&#45;&gt;src/app/shared/services/auth/auth.service.ts</title>
<path fill="none" stroke="#000000" stroke-width="2" stroke-opacity="0.200000" d="M478.07,-132.2C496.26,-138.13 513.68,-147.71 525,-163.13 530.97,-171.26 532.7,-879.05 533,-889.13 544.89,-1283.59 574.74,-1766.31 580.52,-1857.78"/>
<polygon fill="#000000" fill-opacity="0.200000" stroke="#000000" stroke-width="2" stroke-opacity="0.200000" points="578.44,-1858.05 580.91,-1863.91 582.63,-1857.79 578.44,-1858.05"/>
</g>
<!-- src/app/auth/resend&#45;verification/resend&#45;verification.component.ts -->
<g id="node5" class="node">
<title>src/app/auth/resend&#45;verification/resend&#45;verification.component.ts</title>
<g id="a_node5"><a xlink:href="src/app/auth/resend-verification/resend-verification.component.ts" xlink:title="resend&#45;verification.component.ts">
<path fill="#ddfeff" stroke="black" d="M479,-432.13C479,-432.13 324,-432.13 324,-432.13 321,-432.13 318,-429.13 318,-426.13 318,-426.13 318,-420.13 318,-420.13 318,-417.13 321,-414.13 324,-414.13 324,-414.13 479,-414.13 479,-414.13 482,-414.13 485,-417.13 485,-420.13 485,-420.13 485,-426.13 485,-426.13 485,-429.13 482,-432.13 479,-432.13"/>
<text text-anchor="start" x="326" y="-420.93" font-family="Helvetica,sans-Serif" font-size="9.00">resend&#45;verification.component.ts</text>
</a>
</g>
</g>
<!-- src/app/auth/resend&#45;verification/resend&#45;verification.component.ts&#45;&gt;src/app/shared/services/auth/auth.service.ts -->
<g id="edge4" class="edge">
<title>src/app/auth/resend&#45;verification/resend&#45;verification.component.ts&#45;&gt;src/app/shared/services/auth/auth.service.ts</title>
<path fill="none" stroke="#000000" stroke-width="2" stroke-opacity="0.200000" d="M415.73,-432.32C442.39,-451.71 501.95,-499.81 525,-557.13 531.88,-574.25 532.32,-870.69 533,-889.13 547.47,-1283.5 575.25,-1766.3 580.6,-1857.78"/>
<polygon fill="#000000" fill-opacity="0.200000" stroke="#000000" stroke-width="2" stroke-opacity="0.200000" points="578.51,-1858.04 580.96,-1863.91 582.7,-1857.8 578.51,-1858.04"/>
</g>
<!-- src/app/auth/reset&#45;password/reset&#45;password.component.ts -->
<g id="node6" class="node">
<title>src/app/auth/reset&#45;password/reset&#45;password.component.ts</title>
<g id="a_node6"><a xlink:href="src/app/auth/reset-password/reset-password.component.ts" xlink:title="reset&#45;password.component.ts">
<path fill="#ddfeff" stroke="black" d="M471,-372.13C471,-372.13 332,-372.13 332,-372.13 329,-372.13 326,-369.13 326,-366.13 326,-366.13 326,-360.13 326,-360.13 326,-357.13 329,-354.13 332,-354.13 332,-354.13 471,-354.13 471,-354.13 474,-354.13 477,-357.13 477,-360.13 477,-360.13 477,-366.13 477,-366.13 477,-369.13 474,-372.13 471,-372.13"/>
<text text-anchor="start" x="334" y="-360.93" font-family="Helvetica,sans-Serif" font-size="9.00">reset&#45;password.component.ts</text>
</a>
</g>
</g>
<!-- src/app/auth/reset&#45;password/reset&#45;password.component.ts&#45;&gt;src/app/shared/services/auth/auth.service.ts -->
<g id="edge5" class="edge">
<title>src/app/auth/reset&#45;password/reset&#45;password.component.ts&#45;&gt;src/app/shared/services/auth/auth.service.ts</title>
<path fill="none" stroke="#000000" stroke-width="2" stroke-opacity="0.200000" d="M477.06,-371.94C495.59,-377.83 513.44,-387.47 525,-403.13 533.02,-413.99 532.56,-875.63 533,-889.13 545.96,-1283.55 574.96,-1766.31 580.55,-1857.78"/>
<polygon fill="#000000" fill-opacity="0.200000" stroke="#000000" stroke-width="2" stroke-opacity="0.200000" points="578.47,-1858.05 580.93,-1863.91 582.66,-1857.79 578.47,-1858.05"/>
</g>
<!-- src/app/auth/signup/signup.component.ts -->
<g id="node7" class="node">
<title>src/app/auth/signup/signup.component.ts</title>
<g id="a_node7"><a xlink:href="src/app/auth/signup/signup.component.ts" xlink:title="signup.component.ts">
<path fill="#ddfeff" stroke="black" d="M452,-72.13C452,-72.13 351,-72.13 351,-72.13 348,-72.13 345,-69.13 345,-66.13 345,-66.13 345,-60.13 345,-60.13 345,-57.13 348,-54.13 351,-54.13 351,-54.13 452,-54.13 452,-54.13 455,-54.13 458,-57.13 458,-60.13 458,-60.13 458,-66.13 458,-66.13 458,-69.13 455,-72.13 452,-72.13"/>
<text text-anchor="start" x="353" y="-60.93" font-family="Helvetica,sans-Serif" font-size="9.00">signup.component.ts</text>
</a>
</g>
</g>
<!-- src/app/auth/signup/signup.component.ts&#45;&gt;src/app/shared/services/auth/auth.service.ts -->
<g id="edge6" class="edge">
<title>src/app/auth/signup/signup.component.ts&#45;&gt;src/app/shared/services/auth/auth.service.ts</title>
<path fill="none" stroke="#000000" stroke-width="2" stroke-opacity="0.200000" d="M458.25,-67.09C482.83,-71.94 509.59,-82.11 525,-103.13 531.46,-111.93 532.68,-878.22 533,-889.13 544.72,-1283.59 574.71,-1766.31 580.52,-1857.78"/>
<polygon fill="#000000" fill-opacity="0.200000" stroke="#000000" stroke-width="2" stroke-opacity="0.200000" points="578.43,-1858.05 580.91,-1863.91 582.62,-1857.79 578.43,-1858.05"/>
</g>
<!-- src/app/auth/signup/signup.component.ts&#45;&gt;src/app/shared/utils/jwtDecoder/jwtDecoder.ts -->
<g id="edge7" class="edge">
<title>src/app/auth/signup/signup.component.ts&#45;&gt;src/app/shared/utils/jwtDecoder/jwtDecoder.ts</title>
<path fill="none" stroke="#000000" stroke-width="2" stroke-opacity="0.200000" d="M458.28,-68C482.4,-73.06 508.77,-83.16 525,-103.13 631.28,-233.88 694.05,-1534.69 701.29,-1692.48"/>
<polygon fill="#000000" fill-opacity="0.200000" stroke="#000000" stroke-width="2" stroke-opacity="0.200000" points="699.21,-1692.86 701.58,-1698.75 703.4,-1692.67 699.21,-1692.86"/>
</g>
<!-- src/app/auth/verify/verify.component.ts -->
<g id="node9" class="node">
<title>src/app/auth/verify/verify.component.ts</title>
<g id="a_node9"><a xlink:href="src/app/auth/verify/verify.component.ts" xlink:title="verify.component.ts">
<path fill="#ddfeff" stroke="black" d="M448.5,-312.13C448.5,-312.13 354.5,-312.13 354.5,-312.13 351.5,-312.13 348.5,-309.13 348.5,-306.13 348.5,-306.13 348.5,-300.13 348.5,-300.13 348.5,-297.13 351.5,-294.13 354.5,-294.13 354.5,-294.13 448.5,-294.13 448.5,-294.13 451.5,-294.13 454.5,-297.13 454.5,-300.13 454.5,-300.13 454.5,-306.13 454.5,-306.13 454.5,-309.13 451.5,-312.13 448.5,-312.13"/>
<text text-anchor="start" x="356.5" y="-300.93" font-family="Helvetica,sans-Serif" font-size="9.00">verify.component.ts</text>
</a>
</g>
</g>
<!-- src/app/auth/verify/verify.component.ts&#45;&gt;src/app/shared/services/auth/auth.service.ts -->
<g id="edge8" class="edge">
<title>src/app/auth/verify/verify.component.ts&#45;&gt;src/app/shared/services/auth/auth.service.ts</title>
<path fill="none" stroke="#000000" stroke-width="2" stroke-opacity="0.200000" d="M454.75,-306.47C480.23,-311.04 508.81,-321.15 525,-343.13 534,-355.34 532.52,-873.97 533,-889.13 545.61,-1283.56 574.89,-1766.31 580.54,-1857.78"/>
<polygon fill="#000000" fill-opacity="0.200000" stroke="#000000" stroke-width="2" stroke-opacity="0.200000" points="578.46,-1858.05 580.92,-1863.91 582.65,-1857.79 578.46,-1858.05"/>
</g>
<!-- src/app/common/form/issue&#45;form/issue&#45;form.component.ts -->
<g id="node10" class="node">
<title>src/app/common/form/issue&#45;form/issue&#45;form.component.ts</title>
<g id="a_node10"><a xlink:href="src/app/common/form/issue-form/issue-form.component.ts" xlink:title="issue&#45;form.component.ts">
<path fill="#ddfeff" stroke="black" d="M460,-1512.13C460,-1512.13 343,-1512.13 343,-1512.13 340,-1512.13 337,-1509.13 337,-1506.13 337,-1506.13 337,-1500.13 337,-1500.13 337,-1497.13 340,-1494.13 343,-1494.13 343,-1494.13 460,-1494.13 460,-1494.13 463,-1494.13 466,-1497.13 466,-1500.13 466,-1500.13 466,-1506.13 466,-1506.13 466,-1509.13 463,-1512.13 460,-1512.13"/>
<text text-anchor="start" x="345" y="-1500.93" font-family="Helvetica,sans-Serif" font-size="9.00">issue&#45;form.component.ts</text>
</a>
</g>
</g>
<!-- src/app/common/form/issue&#45;form/issue&#45;form.component.ts&#45;&gt;src/app/shared/services/auth/auth.service.ts -->
<g id="edge9" class="edge">
<title>src/app/common/form/issue&#45;form/issue&#45;form.component.ts&#45;&gt;src/app/shared/services/auth/auth.service.ts</title>
<path fill="none" stroke="#000000" stroke-width="2" stroke-opacity="0.200000" d="M422.18,-1512.17C449.81,-1525.94 499.57,-1554.88 525,-1595.13 580.31,-1682.65 582.88,-1813.88 582.03,-1858.03"/>
<polygon fill="#000000" fill-opacity="0.200000" stroke="#000000" stroke-width="2" stroke-opacity="0.200000" points="579.93,-1858.07 581.88,-1864.12 584.13,-1858.17 579.93,-1858.07"/>
</g>
<!-- src/app/common/form/project&#45;form/project&#45;form.component.ts -->
<g id="node11" class="node">
<title>src/app/common/form/project&#45;form/project&#45;form.component.ts</title>
<g id="a_node11"><a xlink:href="src/app/common/form/project-form/project-form.component.ts" xlink:title="project&#45;form.component.ts">
<path fill="#ddfeff" stroke="black" d="M464.5,-1452.13C464.5,-1452.13 338.5,-1452.13 338.5,-1452.13 335.5,-1452.13 332.5,-1449.13 332.5,-1446.13 332.5,-1446.13 332.5,-1440.13 332.5,-1440.13 332.5,-1437.13 335.5,-1434.13 338.5,-1434.13 338.5,-1434.13 464.5,-1434.13 464.5,-1434.13 467.5,-1434.13 470.5,-1437.13 470.5,-1440.13 470.5,-1440.13 470.5,-1446.13 470.5,-1446.13 470.5,-1449.13 467.5,-1452.13 464.5,-1452.13"/>
<text text-anchor="start" x="340.5" y="-1440.93" font-family="Helvetica,sans-Serif" font-size="9.00">project&#45;form.component.ts</text>
</a>
</g>
</g>
<!-- src/app/common/form/project&#45;form/project&#45;form.component.ts&#45;&gt;src/app/shared/services/auth/auth.service.ts -->
<g id="edge10" class="edge">
<title>src/app/common/form/project&#45;form/project&#45;form.component.ts&#45;&gt;src/app/shared/services/auth/auth.service.ts</title>
<path fill="none" stroke="#000000" stroke-width="2" stroke-opacity="0.200000" d="M470.67,-1451.4C490.92,-1457.17 511.32,-1466.87 525,-1483.13 573.98,-1541.34 580.5,-1792.75 581.37,-1857.74"/>
<polygon fill="#000000" fill-opacity="0.200000" stroke="#000000" stroke-width="2" stroke-opacity="0.200000" points="579.27,-1858.11 581.44,-1864.09 583.47,-1858.06 579.27,-1858.11"/>
</g>
<!-- src/app/common/navbar/navbar.component.ts -->
<g id="node12" class="node">
<title>src/app/common/navbar/navbar.component.ts</title>
<g id="a_node12"><a xlink:href="src/app/common/navbar/navbar.component.ts" xlink:title="navbar.component.ts">
<path fill="#ddfeff" stroke="black" d="M452,-1384.13C452,-1384.13 351,-1384.13 351,-1384.13 348,-1384.13 345,-1381.13 345,-1378.13 345,-1378.13 345,-1372.13 345,-1372.13 345,-1369.13 348,-1366.13 351,-1366.13 351,-1366.13 452,-1366.13 452,-1366.13 455,-1366.13 458,-1369.13 458,-1372.13 458,-1372.13 458,-1378.13 458,-1378.13 458,-1381.13 455,-1384.13 452,-1384.13"/>
<text text-anchor="start" x="353" y="-1372.93" font-family="Helvetica,sans-Serif" font-size="9.00">navbar.component.ts</text>
</a>
</g>
</g>
<!-- src/app/common/navbar/navbar.component.ts&#45;&gt;src/app/shared/services/auth/auth.service.ts -->
<g id="edge11" class="edge">
<title>src/app/common/navbar/navbar.component.ts&#45;&gt;src/app/shared/services/auth/auth.service.ts</title>
<path fill="none" stroke="#000000" stroke-width="2" stroke-opacity="0.200000" d="M458.06,-1383.82C482.28,-1390.5 508.8,-1402.31 525,-1423.13 579.33,-1492.97 581.81,-1787.02 581.61,-1857.77"/>
<polygon fill="#000000" fill-opacity="0.200000" stroke="#000000" stroke-width="2" stroke-opacity="0.200000" points="579.51,-1857.9 581.58,-1863.91 583.71,-1857.92 579.51,-1857.9"/>
</g>
<!-- src/app/layouts/main&#45;layout/main&#45;layout.component.ts -->
<g id="node13" class="node">
<title>src/app/layouts/main&#45;layout/main&#45;layout.component.ts</title>
<g id="a_node13"><a xlink:href="src/app/layouts/main-layout/main-layout.component.ts" xlink:title="main&#45;layout.component.ts">
<path fill="#ddfeff" stroke="black" d="M213,-1384.13C213,-1384.13 89,-1384.13 89,-1384.13 86,-1384.13 83,-1381.13 83,-1378.13 83,-1378.13 83,-1372.13 83,-1372.13 83,-1369.13 86,-1366.13 89,-1366.13 89,-1366.13 213,-1366.13 213,-1366.13 216,-1366.13 219,-1369.13 219,-1372.13 219,-1372.13 219,-1378.13 219,-1378.13 219,-1381.13 216,-1384.13 213,-1384.13"/>
<text text-anchor="start" x="91" y="-1372.93" font-family="Helvetica,sans-Serif" font-size="9.00">main&#45;layout.component.ts</text>
</a>
</g>
</g>
<!-- src/app/layouts/main&#45;layout/main&#45;layout.component.ts&#45;&gt;src/app/shared/services/auth/auth.service.ts -->
<g id="edge13" class="edge">
<title>src/app/layouts/main&#45;layout/main&#45;layout.component.ts&#45;&gt;src/app/shared/services/auth/auth.service.ts</title>
<path fill="none" stroke="#000000" stroke-width="2" stroke-opacity="0.200000" d="M192.42,-1366.12C278.72,-1347.94 477.02,-1312.1 525,-1355.13 563.48,-1389.64 578.29,-1775.48 581.02,-1857.76"/>
<polygon fill="#000000" fill-opacity="0.200000" stroke="#000000" stroke-width="2" stroke-opacity="0.200000" points="578.93,-1858.03 581.22,-1863.96 583.12,-1857.9 578.93,-1858.03"/>
</g>
<!-- src/app/layouts/main&#45;layout/main&#45;layout.component.ts&#45;&gt;src/app/common/navbar/navbar.component.ts -->
<g id="edge12" class="edge">
<title>src/app/layouts/main&#45;layout/main&#45;layout.component.ts&#45;&gt;src/app/common/navbar/navbar.component.ts</title>
<path fill="none" stroke="#000000" stroke-width="2" stroke-opacity="0.200000" d="M219.25,-1375.13C256.48,-1375.13 302.43,-1375.13 338.74,-1375.13"/>
<polygon fill="#000000" fill-opacity="0.200000" stroke="#000000" stroke-width="2" stroke-opacity="0.200000" points="338.95,-1377.23 344.95,-1375.13 338.95,-1373.03 338.95,-1377.23"/>
</g>
<!-- src/app/layouts/tabs&#45;layout/tabs&#45;layout.component.ts -->
<g id="node14" class="node">
<title>src/app/layouts/tabs&#45;layout/tabs&#45;layout.component.ts</title>
<g id="a_node14"><a xlink:href="src/app/layouts/tabs-layout/tabs-layout.component.ts" xlink:title="tabs&#45;layout.component.ts">
<path fill="#ddfeff" stroke="black" d="M211.5,-1444.13C211.5,-1444.13 90.5,-1444.13 90.5,-1444.13 87.5,-1444.13 84.5,-1441.13 84.5,-1438.13 84.5,-1438.13 84.5,-1432.13 84.5,-1432.13 84.5,-1429.13 87.5,-1426.13 90.5,-1426.13 90.5,-1426.13 211.5,-1426.13 211.5,-1426.13 214.5,-1426.13 217.5,-1429.13 217.5,-1432.13 217.5,-1432.13 217.5,-1438.13 217.5,-1438.13 217.5,-1441.13 214.5,-1444.13 211.5,-1444.13"/>
<text text-anchor="start" x="92.5" y="-1432.93" font-family="Helvetica,sans-Serif" font-size="9.00">tabs&#45;layout.component.ts</text>
</a>
</g>
</g>
<!-- src/app/layouts/tabs&#45;layout/tabs&#45;layout.component.ts&#45;&gt;src/app/shared/services/auth/auth.service.ts -->
<g id="edge14" class="edge">
<title>src/app/layouts/tabs&#45;layout/tabs&#45;layout.component.ts&#45;&gt;src/app/shared/services/auth/auth.service.ts</title>
<path fill="none" stroke="#000000" stroke-width="2" stroke-opacity="0.200000" d="M160.15,-1444.38C178.85,-1465 227.15,-1515 278,-1541.13 378.77,-1592.9 446.62,-1522.33 525,-1604.13 560.55,-1641.23 576.27,-1806.24 580.37,-1857.73"/>
<polygon fill="#000000" fill-opacity="0.200000" stroke="#000000" stroke-width="2" stroke-opacity="0.200000" points="578.29,-1858.14 580.85,-1863.96 582.48,-1857.81 578.29,-1858.14"/>
</g>
<!-- src/app/main/account/account.component.ts -->
<g id="node15" class="node">
<title>src/app/main/account/account.component.ts</title>
<g id="a_node15"><a xlink:href="src/app/main/account/account.component.ts" xlink:title="account.component.ts">
<path fill="#ddfeff" stroke="black" d="M204.5,-894.13C204.5,-894.13 97.5,-894.13 97.5,-894.13 94.5,-894.13 91.5,-891.13 91.5,-888.13 91.5,-888.13 91.5,-882.13 91.5,-882.13 91.5,-879.13 94.5,-876.13 97.5,-876.13 97.5,-876.13 204.5,-876.13 204.5,-876.13 207.5,-876.13 210.5,-879.13 210.5,-882.13 210.5,-882.13 210.5,-888.13 210.5,-888.13 210.5,-891.13 207.5,-894.13 204.5,-894.13"/>
<text text-anchor="start" x="99.5" y="-882.93" font-family="Helvetica,sans-Serif" font-size="9.00">account.component.ts</text>
</a>
</g>
</g>
<!-- src/app/main/account/account.component.ts&#45;&gt;src/app/shared/services/auth/auth.service.ts -->
<g id="edge15" class="edge">
<title>src/app/main/account/account.component.ts&#45;&gt;src/app/shared/services/auth/auth.service.ts</title>
<path fill="none" stroke="#000000" stroke-width="2" stroke-opacity="0.200000" d="M179.9,-876.11C207.95,-865.44 249.86,-844.73 270,-811.13 283.17,-789.16 259.27,-713.6 278,-696.13 298.07,-677.41 505.2,-677.13 525,-696.13 532.74,-703.56 532.51,-878.41 533,-889.13 550.89,-1283.36 575.93,-1766.27 580.7,-1857.78"/>
<polygon fill="#000000" fill-opacity="0.200000" stroke="#000000" stroke-width="2" stroke-opacity="0.200000" points="578.61,-1858.02 581.02,-1863.91 582.8,-1857.8 578.61,-1858.02"/>
</g>
<!-- src/app/shared/services/user/user.service.ts -->
<g id="node16" class="node">
<title>src/app/shared/services/user/user.service.ts</title>
<g id="a_node16"><a xlink:href="src/app/shared/services/user/user.service.ts" xlink:title="user.service.ts">
<path fill="#ddfeff" stroke="black" d="M436,-1882.13C436,-1882.13 367,-1882.13 367,-1882.13 364,-1882.13 361,-1879.13 361,-1876.13 361,-1876.13 361,-1870.13 361,-1870.13 361,-1867.13 364,-1864.13 367,-1864.13 367,-1864.13 436,-1864.13 436,-1864.13 439,-1864.13 442,-1867.13 442,-1870.13 442,-1870.13 442,-1876.13 442,-1876.13 442,-1879.13 439,-1882.13 436,-1882.13"/>
<text text-anchor="start" x="369" y="-1870.93" font-family="Helvetica,sans-Serif" font-size="9.00">user.service.ts</text>
</a>
</g>
</g>
<!-- src/app/main/account/account.component.ts&#45;&gt;src/app/shared/services/user/user.service.ts -->
<g id="edge16" class="edge">
<title>src/app/main/account/account.component.ts&#45;&gt;src/app/shared/services/user/user.service.ts</title>
<path fill="none" stroke="#000000" stroke-width="2" stroke-opacity="0.200000" d="M208.79,-894.16C231.75,-900.89 256.08,-912.64 270,-933.13 283.8,-953.44 264.63,-1796.53 278,-1817.13 294.98,-1843.3 327.53,-1857.4 354.81,-1864.91"/>
<polygon fill="#000000" fill-opacity="0.200000" stroke="#000000" stroke-width="2" stroke-opacity="0.200000" points="354.57,-1867.01 360.9,-1866.5 355.63,-1862.95 354.57,-1867.01"/>
</g>
<!-- src/app/shared/services/user/user.service.ts&#45;&gt;src/app/shared/services/auth/auth.service.ts -->
<g id="edge45" class="edge">
<title>src/app/shared/services/user/user.service.ts&#45;&gt;src/app/shared/services/auth/auth.service.ts</title>
<path fill="none" stroke="#000000" stroke-width="2" stroke-opacity="0.200000" d="M442.23,-1873.13C469.63,-1873.13 506.17,-1873.13 534.94,-1873.13"/>
<polygon fill="#000000" fill-opacity="0.200000" stroke="#000000" stroke-width="2" stroke-opacity="0.200000" points="534.96,-1875.23 540.96,-1873.13 534.96,-1871.03 534.96,-1875.23"/>
</g>
<!-- src/app/shared/services/user/user.service.ts&#45;&gt;src/environments/environment.ts -->
<g id="edge44" class="edge">
<title>src/app/shared/services/user/user.service.ts&#45;&gt;src/environments/environment.ts</title>
<path fill="none" stroke="#000000" stroke-width="2" stroke-opacity="0.200000" d="M420.78,-1882.16C472.48,-1907.71 619.7,-1980.46 677.9,-2009.22"/>
<polygon fill="#000000" fill-opacity="0.200000" stroke="#000000" stroke-width="2" stroke-opacity="0.200000" points="677.27,-2011.25 683.57,-2012.02 679.13,-2007.48 677.27,-2011.25"/>
</g>
<!-- src/app/main/issues/issues.component.ts -->
<g id="node17" class="node">
<title>src/app/main/issues/issues.component.ts</title>
<g id="a_node17"><a xlink:href="src/app/main/issues/issues.component.ts" xlink:title="issues.component.ts">
<path fill="#ddfeff" stroke="black" d="M200,-1142.13C200,-1142.13 102,-1142.13 102,-1142.13 99,-1142.13 96,-1139.13 96,-1136.13 96,-1136.13 96,-1130.13 96,-1130.13 96,-1127.13 99,-1124.13 102,-1124.13 102,-1124.13 200,-1124.13 200,-1124.13 203,-1124.13 206,-1127.13 206,-1130.13 206,-1130.13 206,-1136.13 206,-1136.13 206,-1139.13 203,-1142.13 200,-1142.13"/>
<text text-anchor="start" x="104" y="-1130.93" font-family="Helvetica,sans-Serif" font-size="9.00">issues.component.ts</text>
</a>
</g>
</g>
<!-- src/app/main/issues/issues.component.ts&#45;&gt;src/app/shared/services/auth/auth.service.ts -->
<g id="edge17" class="edge">
<title>src/app/main/issues/issues.component.ts&#45;&gt;src/app/shared/services/auth/auth.service.ts</title>
<path fill="none" stroke="#000000" stroke-width="2" stroke-opacity="0.200000" d="M206.19,-1124.71C229.83,-1118.08 255.42,-1106.24 270,-1085.13 280.48,-1069.95 264.8,-766.02 278,-753.13 356.55,-676.45 445.44,-677.49 525,-753.13 527.63,-755.63 574.29,-1723.37 580.76,-1857.72"/>
<polygon fill="#000000" fill-opacity="0.200000" stroke="#000000" stroke-width="2" stroke-opacity="0.200000" points="578.67,-1857.91 581.05,-1863.81 582.86,-1857.71 578.67,-1857.91"/>
</g>
<!-- src/app/main/issues/view&#45;issue/view&#45;comment/view&#45;comment.component.ts -->
<g id="node18" class="node">
<title>src/app/main/issues/view&#45;issue/view&#45;comment/view&#45;comment.component.ts</title>
<g id="a_node18"><a xlink:href="src/app/main/issues/view-issue/view-comment/view-comment.component.ts" xlink:title="view&#45;comment.component.ts">
<path fill="#ddfeff" stroke="black" d="M470,-1184.13C470,-1184.13 333,-1184.13 333,-1184.13 330,-1184.13 327,-1181.13 327,-1178.13 327,-1178.13 327,-1172.13 327,-1172.13 327,-1169.13 330,-1166.13 333,-1166.13 333,-1166.13 470,-1166.13 470,-1166.13 473,-1166.13 476,-1169.13 476,-1172.13 476,-1172.13 476,-1178.13 476,-1178.13 476,-1181.13 473,-1184.13 470,-1184.13"/>
<text text-anchor="start" x="335" y="-1172.93" font-family="Helvetica,sans-Serif" font-size="9.00">view&#45;comment.component.ts</text>
</a>
</g>
</g>
<!-- src/app/main/issues/view&#45;issue/view&#45;comment/view&#45;comment.component.ts&#45;&gt;src/app/shared/services/auth/auth.service.ts -->
<g id="edge18" class="edge">
<title>src/app/main/issues/view&#45;issue/view&#45;comment/view&#45;comment.component.ts&#45;&gt;src/app/shared/services/auth/auth.service.ts</title>
<path fill="none" stroke="#000000" stroke-width="2" stroke-opacity="0.200000" d="M423.73,-1184.27C452.26,-1197.79 502.03,-1226.04 525,-1267.13 583.99,-1372.64 582.67,-1773.63 581.72,-1857.64"/>
<polygon fill="#000000" fill-opacity="0.200000" stroke="#000000" stroke-width="2" stroke-opacity="0.200000" points="579.62,-1857.73 581.64,-1863.75 583.82,-1857.78 579.62,-1857.73"/>
</g>
<!-- src/app/main/issues/view&#45;issue/view/view.component.ts -->
<g id="node19" class="node">
<title>src/app/main/issues/view&#45;issue/view/view.component.ts</title>
<g id="a_node19"><a xlink:href="src/app/main/issues/view-issue/view/view.component.ts" xlink:title="view.component.ts">
<path fill="#ddfeff" stroke="black" d="M196,-1184.13C196,-1184.13 106,-1184.13 106,-1184.13 103,-1184.13 100,-1181.13 100,-1178.13 100,-1178.13 100,-1172.13 100,-1172.13 100,-1169.13 103,-1166.13 106,-1166.13 106,-1166.13 196,-1166.13 196,-1166.13 199,-1166.13 202,-1169.13 202,-1172.13 202,-1172.13 202,-1178.13 202,-1178.13 202,-1181.13 199,-1184.13 196,-1184.13"/>
<text text-anchor="start" x="108" y="-1172.93" font-family="Helvetica,sans-Serif" font-size="9.00">view.component.ts</text>
</a>
</g>
</g>
<!-- src/app/main/issues/view&#45;issue/view/view.component.ts&#45;&gt;src/app/shared/services/auth/auth.service.ts -->
<g id="edge19" class="edge">
<title>src/app/main/issues/view&#45;issue/view/view.component.ts&#45;&gt;src/app/shared/services/auth/auth.service.ts</title>
<path fill="none" stroke="#000000" stroke-width="2" stroke-opacity="0.200000" d="M156.71,-1184.3C170.85,-1210.69 215.76,-1286.85 278,-1317.13 302.72,-1329.16 505.14,-1313.11 525,-1332.13 564.1,-1369.57 578.48,-1773.94 581.06,-1857.91"/>
<polygon fill="#000000" fill-opacity="0.200000" stroke="#000000" stroke-width="2" stroke-opacity="0.200000" points="578.96,-1858.08 581.24,-1864.02 583.16,-1857.96 578.96,-1858.08"/>
</g>
<!-- src/app/main/issues/view&#45;issue/view/view.component.ts&#45;&gt;src/app/main/issues/view&#45;issue/view&#45;comment/view&#45;comment.component.ts -->
<g id="edge20" class="edge">
<title>src/app/main/issues/view&#45;issue/view/view.component.ts&#45;&gt;src/app/main/issues/view&#45;issue/view&#45;comment/view&#45;comment.component.ts</title>
<path fill="none" stroke="#000000" stroke-width="2" stroke-opacity="0.200000" d="M202.29,-1175.13C236.21,-1175.13 281.7,-1175.13 320.55,-1175.13"/>
<polygon fill="#000000" fill-opacity="0.200000" stroke="#000000" stroke-width="2" stroke-opacity="0.200000" points="320.72,-1177.23 326.72,-1175.13 320.72,-1173.03 320.72,-1177.23"/>
</g>
<!-- src/app/main/manage/labels/labels.component.ts -->
<g id="node20" class="node">
<title>src/app/main/manage/labels/labels.component.ts</title>
<g id="a_node20"><a xlink:href="src/app/main/manage/labels/labels.component.ts" xlink:title="labels.component.ts">
<path fill="#ddfeff" stroke="black" d="M199,-1056.13C199,-1056.13 103,-1056.13 103,-1056.13 100,-1056.13 97,-1053.13 97,-1050.13 97,-1050.13 97,-1044.13 97,-1044.13 97,-1041.13 100,-1038.13 103,-1038.13 103,-1038.13 199,-1038.13 199,-1038.13 202,-1038.13 205,-1041.13 205,-1044.13 205,-1044.13 205,-1050.13 205,-1050.13 205,-1053.13 202,-1056.13 199,-1056.13"/>
<text text-anchor="start" x="105" y="-1044.93" font-family="Helvetica,sans-Serif" font-size="9.00">labels.component.ts</text>
</a>
</g>
</g>
<!-- src/app/main/manage/labels/labels.component.ts&#45;&gt;src/app/shared/services/auth/auth.service.ts -->
<g id="edge21" class="edge">
<title>src/app/main/manage/labels/labels.component.ts&#45;&gt;src/app/shared/services/auth/auth.service.ts</title>
<path fill="none" stroke="#000000" stroke-width="2" stroke-opacity="0.200000" d="M186.17,-1056.19C213.96,-1065.52 251.49,-1083.04 270,-1113.13 281.07,-1131.13 263.2,-1288.05 278,-1303.13 316.52,-1342.37 485.33,-1280.05 525,-1318.13 565.09,-1356.62 578.71,-1772.22 581.1,-1857.78"/>
<polygon fill="#000000" fill-opacity="0.200000" stroke="#000000" stroke-width="2" stroke-opacity="0.200000" points="579,-1857.84 581.26,-1863.78 583.2,-1857.73 579,-1857.84"/>
</g>
<!-- src/app/main/manage/members/members.component.ts -->
<g id="node21" class="node">
<title>src/app/main/manage/members/members.component.ts</title>
<g id="a_node21"><a xlink:href="src/app/main/manage/members/members.component.ts" xlink:title="members.component.ts">
<path fill="#ddfeff" stroke="black" d="M207.5,-983.13C207.5,-983.13 94.5,-983.13 94.5,-983.13 91.5,-983.13 88.5,-980.13 88.5,-977.13 88.5,-977.13 88.5,-971.13 88.5,-971.13 88.5,-968.13 91.5,-965.13 94.5,-965.13 94.5,-965.13 207.5,-965.13 207.5,-965.13 210.5,-965.13 213.5,-968.13 213.5,-971.13 213.5,-971.13 213.5,-977.13 213.5,-977.13 213.5,-980.13 210.5,-983.13 207.5,-983.13"/>
<text text-anchor="start" x="96.5" y="-971.93" font-family="Helvetica,sans-Serif" font-size="9.00">members.component.ts</text>
</a>
</g>
</g>
<!-- src/app/main/manage/members/members.component.ts&#45;&gt;src/app/shared/services/auth/auth.service.ts -->
<g id="edge22" class="edge">
<title>src/app/main/manage/members/members.component.ts&#45;&gt;src/app/shared/services/auth/auth.service.ts</title>
<path fill="none" stroke="#000000" stroke-width="2" stroke-opacity="0.200000" d="M200.51,-983.14C225.66,-990.51 254.33,-1003.7 270,-1027.13 286.19,-1051.34 257.72,-1268.23 278,-1289.13 316.29,-1328.59 485.38,-1266 525,-1304.13 566.13,-1343.71 578.96,-1771.49 581.14,-1857.95"/>
<polygon fill="#000000" fill-opacity="0.200000" stroke="#000000" stroke-width="2" stroke-opacity="0.200000" points="579.04,-1858.05 581.29,-1864 583.24,-1857.95 579.04,-1858.05"/>
</g>
<!-- src/app/main/manage/members/project&#45;invite&#45;dialog/project&#45;invite&#45;dialog.component.ts -->
<g id="node22" class="node">
<title>src/app/main/manage/members/project&#45;invite&#45;dialog/project&#45;invite&#45;dialog.component.ts</title>
<g id="a_node22"><a xlink:href="src/app/main/manage/members/project-invite-dialog/project-invite-dialog.component.ts" xlink:title="project&#45;invite&#45;dialog.component.ts">
<path fill="#ddfeff" stroke="black" d="M481.5,-970.13C481.5,-970.13 321.5,-970.13 321.5,-970.13 318.5,-970.13 315.5,-967.13 315.5,-964.13 315.5,-964.13 315.5,-958.13 315.5,-958.13 315.5,-955.13 318.5,-952.13 321.5,-952.13 321.5,-952.13 481.5,-952.13 481.5,-952.13 484.5,-952.13 487.5,-955.13 487.5,-958.13 487.5,-958.13 487.5,-964.13 487.5,-964.13 487.5,-967.13 484.5,-970.13 481.5,-970.13"/>
<text text-anchor="start" x="323.5" y="-958.93" font-family="Helvetica,sans-Serif" font-size="9.00">project&#45;invite&#45;dialog.component.ts</text>
</a>
</g>
</g>
<!-- src/app/main/manage/members/members.component.ts&#45;&gt;src/app/main/manage/members/project&#45;invite&#45;dialog/project&#45;invite&#45;dialog.component.ts -->
<g id="edge23" class="edge">
<title>src/app/main/manage/members/members.component.ts&#45;&gt;src/app/main/manage/members/project&#45;invite&#45;dialog/project&#45;invite&#45;dialog.component.ts</title>
<path fill="none" stroke="#000000" stroke-width="2" stroke-opacity="0.200000" d="M213.75,-970.9C242.45,-969.4 277.17,-967.58 308.85,-965.92"/>
<polygon fill="#000000" fill-opacity="0.200000" stroke="#000000" stroke-width="2" stroke-opacity="0.200000" points="309.26,-968.01 315.14,-965.59 309.04,-963.81 309.26,-968.01"/>
</g>
<!-- src/app/main/manage/members/project&#45;invite&#45;dialog/project&#45;invite&#45;dialog.component.ts&#45;&gt;src/app/shared/services/auth/auth.service.ts -->
<g id="edge24" class="edge">
<title>src/app/main/manage/members/project&#45;invite&#45;dialog/project&#45;invite&#45;dialog.component.ts&#45;&gt;src/app/shared/services/auth/auth.service.ts</title>
<path fill="none" stroke="#000000" stroke-width="2" stroke-opacity="0.200000" d="M410.72,-970.36C433.71,-996.82 498.74,-1076.13 525,-1155.13 570.5,-1292.01 579.88,-1765.39 581.29,-1857.52"/>
<polygon fill="#000000" fill-opacity="0.200000" stroke="#000000" stroke-width="2" stroke-opacity="0.200000" points="579.19,-1857.74 581.38,-1863.71 583.39,-1857.68 579.19,-1857.74"/>
</g>
<!-- src/app/main/organization&#45;invitation/organization&#45;invitation&#45;item/organization&#45;invitation&#45;item.component.ts -->
<g id="node23" class="node">
<title>src/app/main/organization&#45;invitation/organization&#45;invitation&#45;item/organization&#45;invitation&#45;item.component.ts</title>
<g id="a_node23"><a xlink:href="src/app/main/organization-invitation/organization-invitation-item/organization-invitation-item.component.ts" xlink:title="organization&#45;invitation&#45;item.component.ts">
<path fill="#ddfeff" stroke="black" d="M248,-654.13C248,-654.13 54,-654.13 54,-654.13 51,-654.13 48,-651.13 48,-648.13 48,-648.13 48,-642.13 48,-642.13 48,-639.13 51,-636.13 54,-636.13 54,-636.13 248,-636.13 248,-636.13 251,-636.13 254,-639.13 254,-642.13 254,-642.13 254,-648.13 254,-648.13 254,-651.13 251,-654.13 248,-654.13"/>
<text text-anchor="start" x="56" y="-642.93" font-family="Helvetica,sans-Serif" font-size="9.00">organization&#45;invitation&#45;item.component.ts</text>
</a>
</g>
</g>
<!-- src/app/main/organization&#45;invitation/organization&#45;invitation&#45;item/organization&#45;invitation&#45;item.component.ts&#45;&gt;src/app/shared/services/auth/auth.service.ts -->
<g id="edge25" class="edge">
<title>src/app/main/organization&#45;invitation/organization&#45;invitation&#45;item/organization&#45;invitation&#45;item.component.ts&#45;&gt;src/app/shared/services/auth/auth.service.ts</title>
<path fill="none" stroke="#000000" stroke-width="2" stroke-opacity="0.200000" d="M186.65,-654.16C214.54,-663.44 251.95,-680.9 270,-711.13 284.3,-735.08 260.71,-1191.24 278,-1213.13 348.22,-1302.04 451.35,-1190.04 525,-1276.13 564,-1321.71 578.57,-1769.18 581.09,-1857.89"/>
<polygon fill="#000000" fill-opacity="0.200000" stroke="#000000" stroke-width="2" stroke-opacity="0.200000" points="579,-1858.14 581.26,-1864.08 583.2,-1858.02 579,-1858.14"/>
</g>
<!-- src/app/main/organization&#45;invitation/organization&#45;invitation&#45;item/organization&#45;invitation&#45;item.component.ts&#45;&gt;src/app/shared/utils/jwtDecoder/jwtDecoder.ts -->
<g id="edge26" class="edge">
<title>src/app/main/organization&#45;invitation/organization&#45;invitation&#45;item/organization&#45;invitation&#45;item.component.ts&#45;&gt;src/app/shared/utils/jwtDecoder/jwtDecoder.ts</title>
<path fill="none" stroke="#000000" stroke-width="2" stroke-opacity="0.200000" d="M241.53,-636.08C252.55,-631.32 262.54,-624.59 270,-615.13 279.84,-602.65 266.69,-54.29 278,-43.13 356.17,33.95 420.25,-10.28 525,-43.13 584.41,-61.76 610.09,-68.52 640,-123.13 679.79,-195.79 699.56,-1532.71 701.79,-1692.54"/>
<polygon fill="#000000" fill-opacity="0.200000" stroke="#000000" stroke-width="2" stroke-opacity="0.200000" points="699.69,-1692.91 701.88,-1698.88 703.89,-1692.86 699.69,-1692.91"/>
</g>
<!-- src/app/main/organizations/manage/org&#45;invite&#45;dialog/org&#45;invite&#45;dialog.component.ts -->
<g id="node24" class="node">
<title>src/app/main/organizations/manage/org&#45;invite&#45;dialog/org&#45;invite&#45;dialog.component.ts</title>
<g id="a_node24"><a xlink:href="src/app/main/organizations/manage/org-invite-dialog/org-invite-dialog.component.ts" xlink:title="org&#45;invite&#45;dialog.component.ts">
<path fill="#ddfeff" stroke="black" d="M473,-782.13C473,-782.13 330,-782.13 330,-782.13 327,-782.13 324,-779.13 324,-776.13 324,-776.13 324,-770.13 324,-770.13 324,-767.13 327,-764.13 330,-764.13 330,-764.13 473,-764.13 473,-764.13 476,-764.13 479,-767.13 479,-770.13 479,-770.13 479,-776.13 479,-776.13 479,-779.13 476,-782.13 473,-782.13"/>
<text text-anchor="start" x="332" y="-770.93" font-family="Helvetica,sans-Serif" font-size="9.00">org&#45;invite&#45;dialog.component.ts</text>
</a>
</g>
</g>
<!-- src/app/main/organizations/manage/org&#45;invite&#45;dialog/org&#45;invite&#45;dialog.component.ts&#45;&gt;src/app/shared/services/auth/auth.service.ts -->
<g id="edge27" class="edge">
<title>src/app/main/organizations/manage/org&#45;invite&#45;dialog/org&#45;invite&#45;dialog.component.ts&#45;&gt;src/app/shared/services/auth/auth.service.ts</title>
<path fill="none" stroke="#000000" stroke-width="2" stroke-opacity="0.200000" d="M412.17,-782.18C436.47,-805.66 499.95,-871.5 525,-941.13 557.31,-1030.96 578,-1744.57 581.09,-1857.97"/>
<polygon fill="#000000" fill-opacity="0.200000" stroke="#000000" stroke-width="2" stroke-opacity="0.200000" points="579,-1858.08 581.26,-1864.02 583.2,-1857.97 579,-1858.08"/>
</g>
<!-- src/app/main/organizations/manage/organization&#45;members/organization&#45;members.component.ts -->
<g id="node25" class="node">
<title>src/app/main/organizations/manage/organization&#45;members/organization&#45;members.component.ts</title>
<g id="a_node25"><a xlink:href="src/app/main/organizations/manage/organization-members/organization-members.component.ts" xlink:title="organization&#45;members.component.ts">
<path fill="#ddfeff" stroke="black" d="M237,-782.13C237,-782.13 65,-782.13 65,-782.13 62,-782.13 59,-779.13 59,-776.13 59,-776.13 59,-770.13 59,-770.13 59,-767.13 62,-764.13 65,-764.13 65,-764.13 237,-764.13 237,-764.13 240,-764.13 243,-767.13 243,-770.13 243,-770.13 243,-776.13 243,-776.13 243,-779.13 240,-782.13 237,-782.13"/>
<text text-anchor="start" x="67" y="-770.93" font-family="Helvetica,sans-Serif" font-size="9.00">organization&#45;members.component.ts</text>
</a>
</g>
</g>
<!-- src/app/main/organizations/manage/organization&#45;members/organization&#45;members.component.ts&#45;&gt;src/app/shared/services/auth/auth.service.ts -->
<g id="edge28" class="edge">
<title>src/app/main/organizations/manage/organization&#45;members/organization&#45;members.component.ts&#45;&gt;src/app/shared/services/auth/auth.service.ts</title>
<path fill="none" stroke="#000000" stroke-width="2" stroke-opacity="0.200000" d="M172.9,-782.26C200.89,-795.77 249.42,-824.01 270,-865.13 280.2,-885.5 262.23,-1258.69 278,-1275.13 316.08,-1314.8 485.42,-1251.95 525,-1290.13 567.08,-1330.73 579.15,-1769 581.17,-1857.58"/>
<polygon fill="#000000" fill-opacity="0.200000" stroke="#000000" stroke-width="2" stroke-opacity="0.200000" points="579.08,-1857.82 581.31,-1863.77 583.28,-1857.73 579.08,-1857.82"/>
</g>
<!-- src/app/main/organizations/manage/organization&#45;members/organization&#45;members.component.ts&#45;&gt;src/app/main/organizations/manage/org&#45;invite&#45;dialog/org&#45;invite&#45;dialog.component.ts -->
<g id="edge29" class="edge">
<title>src/app/main/organizations/manage/organization&#45;members/organization&#45;members.component.ts&#45;&gt;src/app/main/organizations/manage/org&#45;invite&#45;dialog/org&#45;invite&#45;dialog.component.ts</title>
<path fill="none" stroke="#000000" stroke-width="2" stroke-opacity="0.200000" d="M243.12,-773.13C267.51,-773.13 293.74,-773.13 317.66,-773.13"/>
<polygon fill="#000000" fill-opacity="0.200000" stroke="#000000" stroke-width="2" stroke-opacity="0.200000" points="317.68,-775.23 323.68,-773.13 317.68,-771.03 317.68,-775.23"/>
</g>
<!-- src/app/main/organizations/organizations.component.ts -->
<g id="node26" class="node">
<title>src/app/main/organizations/organizations.component.ts</title>
<g id="a_node26"><a xlink:href="src/app/main/organizations/organizations.component.ts" xlink:title="organizations.component.ts">
<path fill="#ddfeff" stroke="black" d="M216.5,-740.13C216.5,-740.13 85.5,-740.13 85.5,-740.13 82.5,-740.13 79.5,-737.13 79.5,-734.13 79.5,-734.13 79.5,-728.13 79.5,-728.13 79.5,-725.13 82.5,-722.13 85.5,-722.13 85.5,-722.13 216.5,-722.13 216.5,-722.13 219.5,-722.13 222.5,-725.13 222.5,-728.13 222.5,-728.13 222.5,-734.13 222.5,-734.13 222.5,-737.13 219.5,-740.13 216.5,-740.13"/>
<text text-anchor="start" x="87.5" y="-728.93" font-family="Helvetica,sans-Serif" font-size="9.00">organizations.component.ts</text>
</a>
</g>
</g>
<!-- src/app/main/organizations/organizations.component.ts&#45;&gt;src/app/shared/services/auth/auth.service.ts -->
<g id="edge30" class="edge">
<title>src/app/main/organizations/organizations.component.ts&#45;&gt;src/app/shared/services/auth/auth.service.ts</title>
<path fill="none" stroke="#000000" stroke-width="2" stroke-opacity="0.200000" d="M169.33,-722C193.07,-710.05 237.4,-689.75 278,-682.13 385.9,-661.89 445.89,-606.02 525,-682.13 533.29,-690.11 532.49,-877.63 533,-889.13 550.33,-1283.38 575.82,-1766.27 580.68,-1857.78"/>
<polygon fill="#000000" fill-opacity="0.200000" stroke="#000000" stroke-width="2" stroke-opacity="0.200000" points="578.59,-1858.03 581.01,-1863.91 582.79,-1857.8 578.59,-1858.03"/>
</g>
<!-- src/app/main/projects/projects.component.ts -->
<g id="node27" class="node">
<title>src/app/main/projects/projects.component.ts</title>
<g id="a_node27"><a xlink:href="src/app/main/projects/projects.component.ts" xlink:title="projects.component.ts">
<path fill="#ddfeff" stroke="black" d="M204.5,-526.13C204.5,-526.13 97.5,-526.13 97.5,-526.13 94.5,-526.13 91.5,-523.13 91.5,-520.13 91.5,-520.13 91.5,-514.13 91.5,-514.13 91.5,-511.13 94.5,-508.13 97.5,-508.13 97.5,-508.13 204.5,-508.13 204.5,-508.13 207.5,-508.13 210.5,-511.13 210.5,-514.13 210.5,-514.13 210.5,-520.13 210.5,-520.13 210.5,-523.13 207.5,-526.13 204.5,-526.13"/>
<text text-anchor="start" x="99.5" y="-514.93" font-family="Helvetica,sans-Serif" font-size="9.00">projects.component.ts</text>
</a>
</g>
</g>
<!-- src/app/main/projects/projects.component.ts&#45;&gt;src/app/shared/services/auth/auth.service.ts -->
<g id="edge31" class="edge">
<title>src/app/main/projects/projects.component.ts&#45;&gt;src/app/shared/services/auth/auth.service.ts</title>
<path fill="none" stroke="#000000" stroke-width="2" stroke-opacity="0.200000" d="M201.8,-508.08C283.45,-496.46 444.73,-487.62 525,-580.13 530.63,-586.61 532.68,-880.55 533,-889.13 547.82,-1283.49 575.32,-1766.29 580.61,-1857.78"/>
<polygon fill="#000000" fill-opacity="0.200000" stroke="#000000" stroke-width="2" stroke-opacity="0.200000" points="578.52,-1858.04 580.96,-1863.91 582.71,-1857.8 578.52,-1858.04"/>
</g>
<!-- src/app/main/worktime/worktime.component.ts -->
<g id="node28" class="node">
<title>src/app/main/worktime/worktime.component.ts</title>
<g id="a_node28"><a xlink:href="src/app/main/worktime/worktime.component.ts" xlink:title="worktime.component.ts">
<path fill="#ddfeff" stroke="black" d="M207.5,-586.13C207.5,-586.13 94.5,-586.13 94.5,-586.13 91.5,-586.13 88.5,-583.13 88.5,-580.13 88.5,-580.13 88.5,-574.13 88.5,-574.13 88.5,-571.13 91.5,-568.13 94.5,-568.13 94.5,-568.13 207.5,-568.13 207.5,-568.13 210.5,-568.13 213.5,-571.13 213.5,-574.13 213.5,-574.13 213.5,-580.13 213.5,-580.13 213.5,-583.13 210.5,-586.13 207.5,-586.13"/>
<text text-anchor="start" x="96.5" y="-574.93" font-family="Helvetica,sans-Serif" font-size="9.00">worktime.component.ts</text>
</a>
</g>
</g>
<!-- src/app/main/worktime/worktime.component.ts&#45;&gt;src/app/shared/services/auth/auth.service.ts -->
<g id="edge32" class="edge">
<title>src/app/main/worktime/worktime.component.ts&#45;&gt;src/app/shared/services/auth/auth.service.ts</title>
<path fill="none" stroke="#000000" stroke-width="2" stroke-opacity="0.200000" d="M213.72,-578.62C309.02,-582.36 485.19,-595.42 525,-641.13 534.05,-651.52 532.44,-875.36 533,-889.13 549.08,-1283.44 575.57,-1766.28 580.65,-1857.78"/>
<polygon fill="#000000" fill-opacity="0.200000" stroke="#000000" stroke-width="2" stroke-opacity="0.200000" points="578.56,-1858.03 580.99,-1863.91 582.75,-1857.8 578.56,-1858.03"/>
</g>
<!-- src/app/shared/guards/authenticated/authenticated.guard.ts -->
<g id="node30" class="node">
<title>src/app/shared/guards/authenticated/authenticated.guard.ts</title>
<g id="a_node30"><a xlink:href="src/app/shared/guards/authenticated/authenticated.guard.ts" xlink:title="authenticated.guard.ts">
<path fill="#ddfeff" stroke="black" d="M206,-1706.13C206,-1706.13 96,-1706.13 96,-1706.13 93,-1706.13 90,-1703.13 90,-1700.13 90,-1700.13 90,-1694.13 90,-1694.13 90,-1691.13 93,-1688.13 96,-1688.13 96,-1688.13 206,-1688.13 206,-1688.13 209,-1688.13 212,-1691.13 212,-1694.13 212,-1694.13 212,-1700.13 212,-1700.13 212,-1703.13 209,-1706.13 206,-1706.13"/>
<text text-anchor="start" x="98" y="-1694.93" font-family="Helvetica,sans-Serif" font-size="9.00">authenticated.guard.ts</text>
</a>
</g>
</g>
<!-- src/app/shared/guards/authenticated/authenticated.guard.ts&#45;&gt;src/app/shared/services/auth/auth.service.ts -->
<g id="edge33" class="edge">
<title>src/app/shared/guards/authenticated/authenticated.guard.ts&#45;&gt;src/app/shared/services/auth/auth.service.ts</title>
<path fill="none" stroke="#000000" stroke-width="2" stroke-opacity="0.200000" d="M212.13,-1698.86C232.88,-1696.39 254.71,-1689.9 270,-1675.13 281.79,-1663.74 265.21,-1649.39 278,-1639.13 299.41,-1621.96 503.44,-1622.15 525,-1639.13 559.97,-1666.66 575.86,-1810.35 580.21,-1857.86"/>
<polygon fill="#000000" fill-opacity="0.200000" stroke="#000000" stroke-width="2" stroke-opacity="0.200000" points="578.13,-1858.11 580.75,-1863.9 582.31,-1857.74 578.13,-1858.11"/>
</g>
<!-- src/app/shared/guards/invitation/invitation.guard.ts -->
<g id="node31" class="node">
<title>src/app/shared/guards/invitation/invitation.guard.ts</title>
<g id="a_node31"><a xlink:href="src/app/shared/guards/invitation/invitation.guard.ts" xlink:title="invitation.guard.ts">
<path fill="#ddfeff" stroke="black" d="M195,-1826.13C195,-1826.13 107,-1826.13 107,-1826.13 104,-1826.13 101,-1823.13 101,-1820.13 101,-1820.13 101,-1814.13 101,-1814.13 101,-1811.13 104,-1808.13 107,-1808.13 107,-1808.13 195,-1808.13 195,-1808.13 198,-1808.13 201,-1811.13 201,-1814.13 201,-1814.13 201,-1820.13 201,-1820.13 201,-1823.13 198,-1826.13 195,-1826.13"/>
<text text-anchor="start" x="109" y="-1814.93" font-family="Helvetica,sans-Serif" font-size="9.00">invitation.guard.ts</text>
</a>
</g>
</g>
<!-- src/app/shared/guards/invitation/invitation.guard.ts&#45;&gt;src/app/shared/services/auth/auth.service.ts -->
<g id="edge34" class="edge">
<title>src/app/shared/guards/invitation/invitation.guard.ts&#45;&gt;src/app/shared/services/auth/auth.service.ts</title>
<path fill="none" stroke="#000000" stroke-width="2" stroke-opacity="0.200000" d="M201.04,-1821.05C225.39,-1820.15 253.13,-1814.29 270,-1795.13 290.59,-1771.74 255.35,-1676.53 278,-1655.13 297.95,-1636.28 503.3,-1638.33 525,-1655.13 557.71,-1680.44 574.95,-1812.84 579.94,-1858.01"/>
<polygon fill="#000000" fill-opacity="0.200000" stroke="#000000" stroke-width="2" stroke-opacity="0.200000" points="577.86,-1858.28 580.59,-1864.02 582.04,-1857.83 577.86,-1858.28"/>
</g>
<!-- src/app/shared/guards/invitation/invitation.guard.ts&#45;&gt;src/app/shared/utils/jwtDecoder/jwtDecoder.ts -->
<g id="edge36" class="edge">
<title>src/app/shared/guards/invitation/invitation.guard.ts&#45;&gt;src/app/shared/utils/jwtDecoder/jwtDecoder.ts</title>
<path fill="none" stroke="#000000" stroke-width="2" stroke-opacity="0.200000" d="M160.01,-1826.19C178.43,-1846.23 226.2,-1893.93 278,-1911.13 430.7,-1961.81 518.71,-2016.84 640,-1911.13 649.81,-1902.58 644.82,-1865.75 648,-1853.13 660.33,-1804.17 683.66,-1748.95 695.19,-1723.05"/>
<polygon fill="#000000" fill-opacity="0.200000" stroke="#000000" stroke-width="2" stroke-opacity="0.200000" points="697.19,-1723.74 697.73,-1717.4 693.35,-1722.02 697.19,-1723.74"/>
</g>
<!-- src/app/shared/guards/invitation/invitation.guard.ts&#45;&gt;src/app/shared/services/user/user.service.ts -->
<g id="edge35" class="edge">
<title>src/app/shared/guards/invitation/invitation.guard.ts&#45;&gt;src/app/shared/services/user/user.service.ts</title>
<path fill="none" stroke="#000000" stroke-width="2" stroke-opacity="0.200000" d="M192.2,-1826.19C236.64,-1836.2 308.07,-1852.3 354.65,-1862.8"/>
<polygon fill="#000000" fill-opacity="0.200000" stroke="#000000" stroke-width="2" stroke-opacity="0.200000" points="354.45,-1864.9 360.77,-1864.18 355.38,-1860.81 354.45,-1864.9"/>
</g>
<!-- src/app/shared/guards/permission/permission.guard.ts -->
<g id="node32" class="node">
<title>src/app/shared/guards/permission/permission.guard.ts</title>
<g id="a_node32"><a xlink:href="src/app/shared/guards/permission/permission.guard.ts" xlink:title="permission.guard.ts">
<path fill="#ddfeff" stroke="black" d="M198.5,-1766.13C198.5,-1766.13 103.5,-1766.13 103.5,-1766.13 100.5,-1766.13 97.5,-1763.13 97.5,-1760.13 97.5,-1760.13 97.5,-1754.13 97.5,-1754.13 97.5,-1751.13 100.5,-1748.13 103.5,-1748.13 103.5,-1748.13 198.5,-1748.13 198.5,-1748.13 201.5,-1748.13 204.5,-1751.13 204.5,-1754.13 204.5,-1754.13 204.5,-1760.13 204.5,-1760.13 204.5,-1763.13 201.5,-1766.13 198.5,-1766.13"/>
<text text-anchor="start" x="105.5" y="-1754.93" font-family="Helvetica,sans-Serif" font-size="9.00">permission.guard.ts</text>
</a>
</g>
</g>
<!-- src/app/shared/guards/permission/permission.guard.ts&#45;&gt;src/app/shared/services/auth/auth.service.ts -->
<g id="edge37" class="edge">
<title>src/app/shared/guards/permission/permission.guard.ts&#45;&gt;src/app/shared/services/auth/auth.service.ts</title>
<path fill="none" stroke="#000000" stroke-width="2" stroke-opacity="0.200000" d="M204.61,-1750.81C294.52,-1741.08 473.09,-1726.73 525,-1759.13 560.24,-1781.13 574.2,-1832.33 579.12,-1857.95"/>
<polygon fill="#000000" fill-opacity="0.200000" stroke="#000000" stroke-width="2" stroke-opacity="0.200000" points="577.06,-1858.35 580.19,-1863.88 581.19,-1857.61 577.06,-1858.35"/>
</g>
<!-- src/app/shared/guards/unauthenticated/unauthenticated.guard.ts -->
<g id="node33" class="node">
<title>src/app/shared/guards/unauthenticated/unauthenticated.guard.ts</title>
<g id="a_node33"><a xlink:href="src/app/shared/guards/unauthenticated/unauthenticated.guard.ts" xlink:title="unauthenticated.guard.ts">
<path fill="#ddfeff" stroke="black" d="M212,-1646.13C212,-1646.13 90,-1646.13 90,-1646.13 87,-1646.13 84,-1643.13 84,-1640.13 84,-1640.13 84,-1634.13 84,-1634.13 84,-1631.13 87,-1628.13 90,-1628.13 90,-1628.13 212,-1628.13 212,-1628.13 215,-1628.13 218,-1631.13 218,-1634.13 218,-1634.13 218,-1640.13 218,-1640.13 218,-1643.13 215,-1646.13 212,-1646.13"/>
<text text-anchor="start" x="92" y="-1634.93" font-family="Helvetica,sans-Serif" font-size="9.00">unauthenticated.guard.ts</text>
</a>
</g>
</g>
<!-- src/app/shared/guards/unauthenticated/unauthenticated.guard.ts&#45;&gt;src/app/shared/services/auth/auth.service.ts -->
<g id="edge38" class="edge">
<title>src/app/shared/guards/unauthenticated/unauthenticated.guard.ts&#45;&gt;src/app/shared/services/auth/auth.service.ts</title>
<path fill="none" stroke="#000000" stroke-width="2" stroke-opacity="0.200000" d="M199.43,-1628.13C288.46,-1612.39 476.07,-1585.06 525,-1624.13 562.13,-1653.78 576.69,-1808.38 580.45,-1857.87"/>
<polygon fill="#000000" fill-opacity="0.200000" stroke="#000000" stroke-width="2" stroke-opacity="0.200000" points="578.36,-1858.05 580.89,-1863.88 582.55,-1857.74 578.36,-1858.05"/>
</g>
<!-- src/app/shared/interceptors/auth/auth.interceptor.ts -->
<g id="node34" class="node">
<title>src/app/shared/interceptors/auth/auth.interceptor.ts</title>
<g id="a_node34"><a xlink:href="src/app/shared/interceptors/auth/auth.interceptor.ts" xlink:title="auth.interceptor.ts">
<path fill="#ddfeff" stroke="black" d="M446,-1684.13C446,-1684.13 357,-1684.13 357,-1684.13 354,-1684.13 351,-1681.13 351,-1678.13 351,-1678.13 351,-1672.13 351,-1672.13 351,-1669.13 354,-1666.13 357,-1666.13 357,-1666.13 446,-1666.13 446,-1666.13 449,-1666.13 452,-1669.13 452,-1672.13 452,-1672.13 452,-1678.13 452,-1678.13 452,-1681.13 449,-1684.13 446,-1684.13"/>
<text text-anchor="start" x="359" y="-1672.93" font-family="Helvetica,sans-Serif" font-size="9.00">auth.interceptor.ts</text>
</a>
</g>
</g>
<!-- src/app/shared/interceptors/auth/auth.interceptor.ts&#45;&gt;src/app/shared/services/auth/auth.service.ts -->
<g id="edge39" class="edge">
<title>src/app/shared/interceptors/auth/auth.interceptor.ts&#45;&gt;src/app/shared/services/auth/auth.service.ts</title>
<path fill="none" stroke="#000000" stroke-width="2" stroke-opacity="0.200000" d="M430.77,-1684.16C458.11,-1694.18 499.09,-1712.78 525,-1741.13 556.78,-1775.9 572.43,-1831.27 578.45,-1857.88"/>
<polygon fill="#000000" fill-opacity="0.200000" stroke="#000000" stroke-width="2" stroke-opacity="0.200000" points="576.45,-1858.57 579.77,-1863.99 580.55,-1857.68 576.45,-1858.57"/>
</g>
<!-- src/app/shared/resolvers/permission/permission.resolver.ts -->
<g id="node35" class="node">
<title>src/app/shared/resolvers/permission/permission.resolver.ts</title>
<g id="a_node35"><a xlink:href="src/app/shared/resolvers/permission/permission.resolver.ts" xlink:title="permission.resolver.ts">
<path fill="#ddfeff" stroke="black" d="M452.5,-1788.13C452.5,-1788.13 350.5,-1788.13 350.5,-1788.13 347.5,-1788.13 344.5,-1785.13 344.5,-1782.13 344.5,-1782.13 344.5,-1776.13 344.5,-1776.13 344.5,-1773.13 347.5,-1770.13 350.5,-1770.13 350.5,-1770.13 452.5,-1770.13 452.5,-1770.13 455.5,-1770.13 458.5,-1773.13 458.5,-1776.13 458.5,-1776.13 458.5,-1782.13 458.5,-1782.13 458.5,-1785.13 455.5,-1788.13 452.5,-1788.13"/>
<text text-anchor="start" x="352.5" y="-1776.93" font-family="Helvetica,sans-Serif" font-size="9.00">permission.resolver.ts</text>
</a>
</g>
</g>
<!-- src/app/shared/resolvers/permission/permission.resolver.ts&#45;&gt;src/app/shared/services/auth/auth.service.ts -->
<g id="edge40" class="edge">
<title>src/app/shared/resolvers/permission/permission.resolver.ts&#45;&gt;src/app/shared/services/auth/auth.service.ts</title>
<path fill="none" stroke="#000000" stroke-width="2" stroke-opacity="0.200000" d="M419.66,-1788.14C452.06,-1805.15 522.21,-1842 558.59,-1861.1"/>
<polygon fill="#000000" fill-opacity="0.200000" stroke="#000000" stroke-width="2" stroke-opacity="0.200000" points="557.84,-1863.08 564.13,-1864.01 559.79,-1859.36 557.84,-1863.08"/>
</g>
</g>
</svg>
