<?xml version="1.0" encoding="UTF-8" standalone="no"?>
<!DOCTYPE svg PUBLIC "-//W3C//DTD SVG 1.1//EN"
 "http://www.w3.org/Graphics/SVG/1.1/DTD/svg11.dtd">
<!-- Generated by graphviz version 2.43.0 (0)
 -->
<!-- Title: dependency&#45;cruiser output Pages: 1 -->
<svg width="658pt" height="546pt"
 viewBox="0.00 0.00 658.00 546.00" xmlns="http://www.w3.org/2000/svg" xmlns:xlink="http://www.w3.org/1999/xlink">
<g id="graph0" class="graph" transform="scale(1 1) rotate(0) translate(4 542)">
<title>dependency&#45;cruiser output</title>
<polygon fill="white" stroke="transparent" points="-4,4 -4,-542 654,-542 654,4 -4,4"/>
<g id="clust1" class="cluster">
<title>cluster_src</title>
<path fill="#ffffff" stroke="black" stroke-width="2" d="M20,-8C20,-8 630,-8 630,-8 636,-8 642,-14 642,-20 642,-20 642,-518 642,-518 642,-524 636,-530 630,-530 630,-530 20,-530 20,-530 14,-530 8,-524 8,-518 8,-518 8,-20 8,-20 8,-14 14,-8 20,-8"/>
<text text-anchor="middle" x="325" y="-518.8" font-family="Helvetica,sans-Serif" font-weight="bold" font-size="9.00">src</text>
</g>
<g id="clust2" class="cluster">
<title>cluster_src/app</title>
<path fill="#ffffff" stroke="black" stroke-width="2" d="M28,-16C28,-16 622,-16 622,-16 628,-16 634,-22 634,-28 634,-28 634,-492 634,-492 634,-498 628,-504 622,-504 622,-504 28,-504 28,-504 22,-504 16,-498 16,-492 16,-492 16,-28 16,-28 16,-22 22,-16 28,-16"/>
<text text-anchor="middle" x="325" y="-492.8" font-family="Helvetica,sans-Serif" font-weight="bold" font-size="9.00">app</text>
</g>
<g id="clust3" class="cluster">
<title>cluster_src/app/common</title>
<path fill="#ffffff" stroke="black" stroke-width="2" d="M297,-24C297,-24 440,-24 440,-24 446,-24 452,-30 452,-36 452,-36 452,-252 452,-252 452,-258 446,-264 440,-264 440,-264 297,-264 297,-264 291,-264 285,-258 285,-252 285,-252 285,-36 285,-36 285,-30 291,-24 297,-24"/>
<text text-anchor="middle" x="368.5" y="-252.8" font-family="Helvetica,sans-Serif" font-weight="bold" font-size="9.00">common</text>
</g>
<g id="clust4" class="cluster">
<title>cluster_src/app/common/footer</title>
<path fill="#ffffff" stroke="black" stroke-width="2" d="M318.5,-186C318.5,-186 418.5,-186 418.5,-186 424.5,-186 430.5,-192 430.5,-198 430.5,-198 430.5,-226 430.5,-226 430.5,-232 424.5,-238 418.5,-238 418.5,-238 318.5,-238 318.5,-238 312.5,-238 306.5,-232 306.5,-226 306.5,-226 306.5,-198 306.5,-198 306.5,-192 312.5,-186 318.5,-186"/>
<text text-anchor="middle" x="368.5" y="-226.8" font-family="Helvetica,sans-Serif" font-weight="bold" font-size="9.00">footer</text>
</g>
<g id="clust5" class="cluster">
<title>cluster_src/app/common/navbar</title>
<path fill="#ffffff" stroke="black" stroke-width="2" d="M316,-126C316,-126 421,-126 421,-126 427,-126 433,-132 433,-138 433,-138 433,-166 433,-166 433,-172 427,-178 421,-178 421,-178 316,-178 316,-178 310,-178 304,-172 304,-166 304,-166 304,-138 304,-138 304,-132 310,-126 316,-126"/>
<text text-anchor="middle" x="368.5" y="-166.8" font-family="Helvetica,sans-Serif" font-weight="bold" font-size="9.00">navbar</text>
</g>
<g id="clust6" class="cluster">
<title>cluster_src/app/common/sidenav</title>
<path fill="#ffffff" stroke="black" stroke-width="2" d="M305,-32C305,-32 432,-32 432,-32 438,-32 444,-38 444,-44 444,-44 444,-106 444,-106 444,-112 438,-118 432,-118 432,-118 305,-118 305,-118 299,-118 293,-112 293,-106 293,-106 293,-44 293,-44 293,-38 299,-32 305,-32"/>
<text text-anchor="middle" x="368.5" y="-106.8" font-family="Helvetica,sans-Serif" font-weight="bold" font-size="9.00">sidenav</text>
</g>
<g id="clust7" class="cluster">
<title>cluster_src/app/common/sidenav/navitem</title>
<path fill="#ffffff" stroke="black" stroke-width="2" d="M313,-40C313,-40 424,-40 424,-40 430,-40 436,-46 436,-52 436,-52 436,-80 436,-80 436,-86 430,-92 424,-92 424,-92 313,-92 313,-92 307,-92 301,-86 301,-80 301,-80 301,-52 301,-52 301,-46 307,-40 313,-40"/>
<text text-anchor="middle" x="368.5" y="-80.8" font-family="Helvetica,sans-Serif" font-weight="bold" font-size="9.00">navitem</text>
</g>
<g id="clust8" class="cluster">
<title>cluster_src/app/layouts</title>
<path fill="#ffffff" stroke="black" stroke-width="2" d="M121,-195C121,-195 265,-195 265,-195 271,-195 277,-201 277,-207 277,-207 277,-389 277,-389 277,-395 271,-401 265,-401 265,-401 121,-401 121,-401 115,-401 109,-395 109,-389 109,-389 109,-207 109,-207 109,-201 115,-195 121,-195"/>
<text text-anchor="middle" x="193" y="-389.8" font-family="Helvetica,sans-Serif" font-weight="bold" font-size="9.00">layouts</text>
</g>
<g id="clust9" class="cluster">
<title>cluster_src/app/layouts/base&#45;layout</title>
<path fill="#ffffff" stroke="black" stroke-width="2" d="M130,-203C130,-203 256,-203 256,-203 262,-203 268,-209 268,-215 268,-215 268,-243 268,-243 268,-249 262,-255 256,-255 256,-255 130,-255 130,-255 124,-255 118,-249 118,-243 118,-243 118,-215 118,-215 118,-209 124,-203 130,-203"/>
<text text-anchor="middle" x="193" y="-243.8" font-family="Helvetica,sans-Serif" font-weight="bold" font-size="9.00">base&#45;layout</text>
</g>
<g id="clust10" class="cluster">
<title>cluster_src/app/layouts/main&#45;layout</title>
<path fill="#ffffff" stroke="black" stroke-width="2" d="M129,-263C129,-263 257,-263 257,-263 263,-263 269,-269 269,-275 269,-275 269,-303 269,-303 269,-309 263,-315 257,-315 257,-315 129,-315 129,-315 123,-315 117,-309 117,-303 117,-303 117,-275 117,-275 117,-269 123,-263 129,-263"/>
<text text-anchor="middle" x="193" y="-303.8" font-family="Helvetica,sans-Serif" font-weight="bold" font-size="9.00">main&#45;layout</text>
</g>
<g id="clust11" class="cluster">
<title>cluster_src/app/layouts/tabs&#45;layout</title>
<path fill="#ffffff" stroke="black" stroke-width="2" d="M130.5,-323C130.5,-323 255.5,-323 255.5,-323 261.5,-323 267.5,-329 267.5,-335 267.5,-335 267.5,-363 267.5,-363 267.5,-369 261.5,-375 255.5,-375 255.5,-375 130.5,-375 130.5,-375 124.5,-375 118.5,-369 118.5,-363 118.5,-363 118.5,-335 118.5,-335 118.5,-329 124.5,-323 130.5,-323"/>
<text text-anchor="middle" x="193" y="-363.8" font-family="Helvetica,sans-Serif" font-weight="bold" font-size="9.00">tabs&#45;layout</text>
</g>
<g id="clust12" class="cluster">
<title>cluster_src/app/shared</title>
<path fill="#ffffff" stroke="black" stroke-width="2" d="M472,-24C472,-24 614,-24 614,-24 620,-24 626,-30 626,-36 626,-36 626,-466 626,-466 626,-472 620,-478 614,-478 614,-478 472,-478 472,-478 466,-478 460,-472 460,-466 460,-466 460,-36 460,-36 460,-30 466,-24 472,-24"/>
<text text-anchor="middle" x="543" y="-466.8" font-family="Helvetica,sans-Serif" font-weight="bold" font-size="9.00">shared</text>
</g>
<g id="clust13" class="cluster">
<title>cluster_src/app/shared/constants</title>
<path fill="#ffffff" stroke="black" stroke-width="2" d="M499,-366C499,-366 587,-366 587,-366 593,-366 599,-372 599,-378 599,-378 599,-440 599,-440 599,-446 593,-452 587,-452 587,-452 499,-452 499,-452 493,-452 487,-446 487,-440 487,-440 487,-378 487,-378 487,-372 493,-366 499,-366"/>
<text text-anchor="middle" x="543" y="-440.8" font-family="Helvetica,sans-Serif" font-weight="bold" font-size="9.00">constants</text>
</g>
<g id="clust14" class="cluster">
<title>cluster_src/app/shared/constants/user</title>
<path fill="#ffffff" stroke="black" stroke-width="2" d="M507,-374C507,-374 579,-374 579,-374 585,-374 591,-380 591,-386 591,-386 591,-414 591,-414 591,-420 585,-426 579,-426 579,-426 507,-426 507,-426 501,-426 495,-420 495,-414 495,-414 495,-386 495,-386 495,-380 501,-374 507,-374"/>
<text text-anchor="middle" x="543" y="-414.8" font-family="Helvetica,sans-Serif" font-weight="bold" font-size="9.00">user</text>
</g>
<g id="clust15" class="cluster">
<title>cluster_src/app/shared/services</title>
<path fill="#ffffff" stroke="black" stroke-width="2" d="M480,-32C480,-32 606,-32 606,-32 612,-32 618,-38 618,-44 618,-44 618,-346 618,-346 618,-352 612,-358 606,-358 606,-358 480,-358 480,-358 474,-358 468,-352 468,-346 468,-346 468,-44 468,-44 468,-38 474,-32 480,-32"/>
<text text-anchor="middle" x="543" y="-346.8" font-family="Helvetica,sans-Serif" font-weight="bold" font-size="9.00">services</text>
</g>
<g id="clust16" class="cluster">
<title>cluster_src/app/shared/services/auth</title>
<path fill="#ffffff" stroke="black" stroke-width="2" d="M505.5,-160C505.5,-160 580.5,-160 580.5,-160 586.5,-160 592.5,-166 592.5,-172 592.5,-172 592.5,-200 592.5,-200 592.5,-206 586.5,-212 580.5,-212 580.5,-212 505.5,-212 505.5,-212 499.5,-212 493.5,-206 493.5,-200 493.5,-200 493.5,-172 493.5,-172 493.5,-166 499.5,-160 505.5,-160"/>
<text text-anchor="middle" x="543" y="-200.8" font-family="Helvetica,sans-Serif" font-weight="bold" font-size="9.00">auth</text>
</g>
<g id="clust17" class="cluster">
<title>cluster_src/app/shared/services/organization</title>
<path fill="#ffffff" stroke="black" stroke-width="2" d="M488,-220C488,-220 598,-220 598,-220 604,-220 610,-226 610,-232 610,-232 610,-260 610,-260 610,-266 604,-272 598,-272 598,-272 488,-272 488,-272 482,-272 476,-266 476,-260 476,-260 476,-232 476,-232 476,-226 482,-220 488,-220"/>
<text text-anchor="middle" x="543" y="-260.8" font-family="Helvetica,sans-Serif" font-weight="bold" font-size="9.00">organization</text>
</g>
<g id="clust18" class="cluster">
<title>cluster_src/app/shared/services/sidebar</title>
<path fill="#ffffff" stroke="black" stroke-width="2" d="M499.5,-40C499.5,-40 586.5,-40 586.5,-40 592.5,-40 598.5,-46 598.5,-52 598.5,-52 598.5,-80 598.5,-80 598.5,-86 592.5,-92 586.5,-92 586.5,-92 499.5,-92 499.5,-92 493.5,-92 487.5,-86 487.5,-80 487.5,-80 487.5,-52 487.5,-52 487.5,-46 493.5,-40 499.5,-40"/>
<text text-anchor="middle" x="543" y="-80.8" font-family="Helvetica,sans-Serif" font-weight="bold" font-size="9.00">sidebar</text>
</g>
<g id="clust19" class="cluster">
<title>cluster_src/app/shared/services/snackbar</title>
<path fill="#ffffff" stroke="black" stroke-width="2" d="M495.5,-280C495.5,-280 590.5,-280 590.5,-280 596.5,-280 602.5,-286 602.5,-292 602.5,-292 602.5,-320 602.5,-320 602.5,-326 596.5,-332 590.5,-332 590.5,-332 495.5,-332 495.5,-332 489.5,-332 483.5,-326 483.5,-320 483.5,-320 483.5,-292 483.5,-292 483.5,-286 489.5,-280 495.5,-280"/>
<text text-anchor="middle" x="543" y="-320.8" font-family="Helvetica,sans-Serif" font-weight="bold" font-size="9.00">snackbar</text>
</g>
<g id="clust20" class="cluster">
<title>cluster_src/app/shared/services/theme</title>
<path fill="#ffffff" stroke="black" stroke-width="2" d="M501,-100C501,-100 585,-100 585,-100 591,-100 597,-106 597,-112 597,-112 597,-140 597,-140 597,-146 591,-152 585,-152 585,-152 501,-152 501,-152 495,-152 489,-146 489,-140 489,-140 489,-112 489,-112 489,-106 495,-100 501,-100"/>
<text text-anchor="middle" x="543" y="-140.8" font-family="Helvetica,sans-Serif" font-weight="bold" font-size="9.00">theme</text>
</g>
<!-- src/app/app.routes.ts -->
<g id="node1" class="node">
<title>src/app/app.routes.ts</title>
<g id="a_node1"><a xlink:href="src/app/app.routes.ts" xlink:title="app.routes.ts">
<path fill="#ddfeff" stroke="black" d="M95,-319C95,-319 30,-319 30,-319 27,-319 24,-316 24,-313 24,-313 24,-307 24,-307 24,-304 27,-301 30,-301 30,-301 95,-301 95,-301 98,-301 101,-304 101,-307 101,-307 101,-313 101,-313 101,-316 98,-319 95,-319"/>
<text text-anchor="start" x="32" y="-307.8" font-family="Helvetica,sans-Serif" font-size="9.00">app.routes.ts</text>
</a>
</g>
</g>
<!-- src/app/layouts/base&#45;layout/base&#45;layout.component.ts -->
<g id="node2" class="node">
<title>src/app/layouts/base&#45;layout/base&#45;layout.component.ts</title>
<g id="a_node2"><a xlink:href="src/app/layouts/base-layout/base-layout.component.ts" xlink:title="base&#45;layout.component.ts">
<path fill="#ddfeff" stroke="black" d="M254,-229C254,-229 132,-229 132,-229 129,-229 126,-226 126,-223 126,-223 126,-217 126,-217 126,-214 129,-211 132,-211 132,-211 254,-211 254,-211 257,-211 260,-214 260,-217 260,-217 260,-223 260,-223 260,-226 257,-229 254,-229"/>
<text text-anchor="start" x="134" y="-217.8" font-family="Helvetica,sans-Serif" font-size="9.00">base&#45;layout.component.ts</text>
</a>
</g>
</g>
<!-- src/app/app.routes.ts&#45;&gt;src/app/layouts/base&#45;layout/base&#45;layout.component.ts -->
<g id="edge1" class="edge">
<title>src/app/app.routes.ts&#45;&gt;src/app/layouts/base&#45;layout/base&#45;layout.component.ts</title>
<path fill="none" stroke="#000000" stroke-width="2" stroke-dasharray="5,2" stroke-opacity="0.200000" d="M70.04,-300.9C78.19,-290.06 93.01,-271.93 109,-260 124.87,-248.16 144.8,-238.42 161.16,-231.51"/>
<polygon fill="#000000" fill-opacity="0.200000" stroke="#000000" stroke-width="2" stroke-opacity="0.200000" points="162.26,-233.33 167.01,-229.1 160.66,-229.45 162.26,-233.33"/>
</g>
<!-- src/app/layouts/main&#45;layout/main&#45;layout.component.ts -->
<g id="node3" class="node">
<title>src/app/layouts/main&#45;layout/main&#45;layout.component.ts</title>
<g id="a_node3"><a xlink:href="src/app/layouts/main-layout/main-layout.component.ts" xlink:title="main&#45;layout.component.ts">
<path fill="#ddfeff" stroke="black" d="M255,-289C255,-289 131,-289 131,-289 128,-289 125,-286 125,-283 125,-283 125,-277 125,-277 125,-274 128,-271 131,-271 131,-271 255,-271 255,-271 258,-271 261,-274 261,-277 261,-277 261,-283 261,-283 261,-286 258,-289 255,-289"/>
<text text-anchor="start" x="133" y="-277.8" font-family="Helvetica,sans-Serif" font-size="9.00">main&#45;layout.component.ts</text>
</a>
</g>
</g>
<!-- src/app/app.routes.ts&#45;&gt;src/app/layouts/main&#45;layout/main&#45;layout.component.ts -->
<g id="edge2" class="edge">
<title>src/app/app.routes.ts&#45;&gt;src/app/layouts/main&#45;layout/main&#45;layout.component.ts</title>
<path fill="none" stroke="#000000" stroke-width="2" stroke-dasharray="5,2" stroke-opacity="0.200000" d="M101.01,-301.24C115.53,-297.85 132.27,-293.95 147.39,-290.41"/>
<polygon fill="#000000" fill-opacity="0.200000" stroke="#000000" stroke-width="2" stroke-opacity="0.200000" points="147.96,-292.44 153.32,-289.03 147,-288.35 147.96,-292.44"/>
</g>
<!-- src/app/layouts/tabs&#45;layout/tabs&#45;layout.component.ts -->
<g id="node4" class="node">
<title>src/app/layouts/tabs&#45;layout/tabs&#45;layout.component.ts</title>
<g id="a_node4"><a xlink:href="src/app/layouts/tabs-layout/tabs-layout.component.ts" xlink:title="tabs&#45;layout.component.ts">
<path fill="#ddfeff" stroke="black" d="M253.5,-349C253.5,-349 132.5,-349 132.5,-349 129.5,-349 126.5,-346 126.5,-343 126.5,-343 126.5,-337 126.5,-337 126.5,-334 129.5,-331 132.5,-331 132.5,-331 253.5,-331 253.5,-331 256.5,-331 259.5,-334 259.5,-337 259.5,-337 259.5,-343 259.5,-343 259.5,-346 256.5,-349 253.5,-349"/>
<text text-anchor="start" x="134.5" y="-337.8" font-family="Helvetica,sans-Serif" font-size="9.00">tabs&#45;layout.component.ts</text>
</a>
</g>
</g>
<!-- src/app/app.routes.ts&#45;&gt;src/app/layouts/tabs&#45;layout/tabs&#45;layout.component.ts -->
<g id="edge3" class="edge">
<title>src/app/app.routes.ts&#45;&gt;src/app/layouts/tabs&#45;layout/tabs&#45;layout.component.ts</title>
<path fill="none" stroke="#000000" stroke-width="2" stroke-dasharray="5,2" stroke-opacity="0.200000" d="M101.01,-318.76C115.53,-322.15 132.27,-326.05 147.39,-329.59"/>
<polygon fill="#000000" fill-opacity="0.200000" stroke="#000000" stroke-width="2" stroke-opacity="0.200000" points="147,-331.65 153.32,-330.97 147.96,-327.56 147,-331.65"/>
</g>
<!-- src/app/shared/constants/user/Permissions.ts -->
<g id="node5" class="node">
<title>src/app/shared/constants/user/Permissions.ts</title>
<g id="a_node5"><a xlink:href="src/app/shared/constants/user/Permissions.ts" xlink:title="Permissions.ts">
<path fill="#ddfeff" stroke="black" d="M577,-400C577,-400 509,-400 509,-400 506,-400 503,-397 503,-394 503,-394 503,-388 503,-388 503,-385 506,-382 509,-382 509,-382 577,-382 577,-382 580,-382 583,-385 583,-388 583,-388 583,-394 583,-394 583,-397 580,-400 577,-400"/>
<text text-anchor="start" x="511" y="-388.8" font-family="Helvetica,sans-Serif" font-size="9.00">Permissions.ts</text>
</a>
</g>
</g>
<!-- src/app/app.routes.ts&#45;&gt;src/app/shared/constants/user/Permissions.ts -->
<g id="edge4" class="edge">
<title>src/app/app.routes.ts&#45;&gt;src/app/shared/constants/user/Permissions.ts</title>
<path fill="none" stroke="#000000" stroke-width="2" stroke-opacity="0.200000" d="M66.48,-319.11C72.05,-334.46 85.64,-365.07 109,-378 236.78,-448.73 419.85,-419.63 500.81,-401.46"/>
<polygon fill="#000000" fill-opacity="0.200000" stroke="#000000" stroke-width="2" stroke-opacity="0.200000" points="501.54,-403.45 506.93,-400.07 500.61,-399.35 501.54,-403.45"/>
</g>
<!-- src/app/common/footer/footer.component.ts -->
<g id="node6" class="node">
<title>src/app/common/footer/footer.component.ts</title>
<g id="a_node6"><a xlink:href="src/app/common/footer/footer.component.ts" xlink:title="footer.component.ts">
<path fill="#ddfeff" stroke="black" d="M416.5,-212C416.5,-212 320.5,-212 320.5,-212 317.5,-212 314.5,-209 314.5,-206 314.5,-206 314.5,-200 314.5,-200 314.5,-197 317.5,-194 320.5,-194 320.5,-194 416.5,-194 416.5,-194 419.5,-194 422.5,-197 422.5,-200 422.5,-200 422.5,-206 422.5,-206 422.5,-209 419.5,-212 416.5,-212"/>
<text text-anchor="start" x="322.5" y="-200.8" font-family="Helvetica,sans-Serif" font-size="9.00">footer.component.ts</text>
</a>
</g>
</g>
<!-- src/app/layouts/base&#45;layout/base&#45;layout.component.ts&#45;&gt;src/app/common/footer/footer.component.ts -->
<g id="edge8" class="edge">
<title>src/app/layouts/base&#45;layout/base&#45;layout.component.ts&#45;&gt;src/app/common/footer/footer.component.ts</title>
<path fill="none" stroke="#000000" stroke-width="2" stroke-opacity="0.200000" d="M260.09,-213.52C275.9,-211.98 292.68,-210.33 308.16,-208.81"/>
<polygon fill="#000000" fill-opacity="0.200000" stroke="#000000" stroke-width="2" stroke-opacity="0.200000" points="308.49,-210.89 314.25,-208.22 308.08,-206.71 308.49,-210.89"/>
</g>
<!-- src/app/common/navbar/navbar.component.ts -->
<g id="node7" class="node">
<title>src/app/common/navbar/navbar.component.ts</title>
<g id="a_node7"><a xlink:href="src/app/common/navbar/navbar.component.ts" xlink:title="navbar.component.ts">
<path fill="#ddfeff" stroke="black" d="M419,-152C419,-152 318,-152 318,-152 315,-152 312,-149 312,-146 312,-146 312,-140 312,-140 312,-137 315,-134 318,-134 318,-134 419,-134 419,-134 422,-134 425,-137 425,-140 425,-140 425,-146 425,-146 425,-149 422,-152 419,-152"/>
<text text-anchor="start" x="320" y="-140.8" font-family="Helvetica,sans-Serif" font-size="9.00">navbar.component.ts</text>
</a>
</g>
</g>
<!-- src/app/layouts/base&#45;layout/base&#45;layout.component.ts&#45;&gt;src/app/common/navbar/navbar.component.ts -->
<g id="edge9" class="edge">
<title>src/app/layouts/base&#45;layout/base&#45;layout.component.ts&#45;&gt;src/app/common/navbar/navbar.component.ts</title>
<path fill="none" stroke="#000000" stroke-width="2" stroke-opacity="0.200000" d="M214.58,-210.86C246.23,-196.82 306.82,-169.93 341.47,-154.55"/>
<polygon fill="#000000" fill-opacity="0.200000" stroke="#000000" stroke-width="2" stroke-opacity="0.200000" points="342.58,-156.36 347.21,-152 340.88,-152.52 342.58,-156.36"/>
</g>
<!-- src/app/layouts/main&#45;layout/main&#45;layout.component.ts&#45;&gt;src/app/shared/constants/user/Permissions.ts -->
<g id="edge12" class="edge">
<title>src/app/layouts/main&#45;layout/main&#45;layout.component.ts&#45;&gt;src/app/shared/constants/user/Permissions.ts</title>
<path fill="none" stroke="#000000" stroke-width="2" stroke-opacity="0.200000" d="M217.08,-289.13C234.25,-296.39 257.92,-307.39 277,-320 280.94,-322.6 280.69,-325.07 285,-327 353.25,-357.64 380.22,-326.94 452,-348 476.93,-355.32 503.55,-368.83 521.32,-378.76"/>
<polygon fill="#000000" fill-opacity="0.200000" stroke="#000000" stroke-width="2" stroke-opacity="0.200000" points="520.74,-380.84 526.99,-381.97 522.81,-377.19 520.74,-380.84"/>
</g>
<!-- src/app/layouts/main&#45;layout/main&#45;layout.component.ts&#45;&gt;src/app/common/navbar/navbar.component.ts -->
<g id="edge10" class="edge">
<title>src/app/layouts/main&#45;layout/main&#45;layout.component.ts&#45;&gt;src/app/common/navbar/navbar.component.ts</title>
<path fill="none" stroke="#000000" stroke-width="2" stroke-opacity="0.200000" d="M259.71,-270.98C266.27,-267.77 272.24,-263.54 277,-258 298.83,-232.56 265.72,-210.42 285,-183 294.46,-169.55 309.71,-160.44 324.55,-154.36"/>
<polygon fill="#000000" fill-opacity="0.200000" stroke="#000000" stroke-width="2" stroke-opacity="0.200000" points="325.58,-156.22 330.42,-152.1 324.07,-152.3 325.58,-156.22"/>
</g>
<!-- src/app/shared/services/auth/auth.service.ts -->
<g id="node8" class="node">
<title>src/app/shared/services/auth/auth.service.ts</title>
<g id="a_node8"><a xlink:href="src/app/shared/services/auth/auth.service.ts" xlink:title="auth.service.ts">
<path fill="#ddfeff" stroke="black" d="M578.5,-186C578.5,-186 507.5,-186 507.5,-186 504.5,-186 501.5,-183 501.5,-180 501.5,-180 501.5,-174 501.5,-174 501.5,-171 504.5,-168 507.5,-168 507.5,-168 578.5,-168 578.5,-168 581.5,-168 584.5,-171 584.5,-174 584.5,-174 584.5,-180 584.5,-180 584.5,-183 581.5,-186 578.5,-186"/>
<text text-anchor="start" x="509.5" y="-174.8" font-family="Helvetica,sans-Serif" font-size="9.00">auth.service.ts</text>
</a>
</g>
</g>
<!-- src/app/layouts/main&#45;layout/main&#45;layout.component.ts&#45;&gt;src/app/shared/services/auth/auth.service.ts -->
<g id="edge13" class="edge">
<title>src/app/layouts/main&#45;layout/main&#45;layout.component.ts&#45;&gt;src/app/shared/services/auth/auth.service.ts</title>
<path fill="none" stroke="#000000" stroke-width="2" stroke-opacity="0.200000" d="M238.33,-289.01C303.72,-301.15 421.6,-318.29 452,-291 464.31,-279.95 450.49,-230.54 460,-217 469.48,-203.5 484.83,-194.36 499.69,-188.27"/>
<polygon fill="#000000" fill-opacity="0.200000" stroke="#000000" stroke-width="2" stroke-opacity="0.200000" points="500.73,-190.12 505.57,-186.01 499.22,-186.2 500.73,-190.12"/>
</g>
<!-- src/app/shared/services/sidebar/sidebar.service.ts -->
<g id="node9" class="node">
<title>src/app/shared/services/sidebar/sidebar.service.ts</title>
<g id="a_node9"><a xlink:href="src/app/shared/services/sidebar/sidebar.service.ts" xlink:title="sidebar.service.ts">
<path fill="#ddfeff" stroke="black" d="M584.5,-66C584.5,-66 501.5,-66 501.5,-66 498.5,-66 495.5,-63 495.5,-60 495.5,-60 495.5,-54 495.5,-54 495.5,-51 498.5,-48 501.5,-48 501.5,-48 584.5,-48 584.5,-48 587.5,-48 590.5,-51 590.5,-54 590.5,-54 590.5,-60 590.5,-60 590.5,-63 587.5,-66 584.5,-66"/>
<text text-anchor="start" x="503.5" y="-54.8" font-family="Helvetica,sans-Serif" font-size="9.00">sidebar.service.ts</text>
</a>
</g>
</g>
<!-- src/app/layouts/main&#45;layout/main&#45;layout.component.ts&#45;&gt;src/app/shared/services/sidebar/sidebar.service.ts -->
<g id="edge15" class="edge">
<title>src/app/layouts/main&#45;layout/main&#45;layout.component.ts&#45;&gt;src/app/shared/services/sidebar/sidebar.service.ts</title>
<path fill="none" stroke="#000000" stroke-width="2" stroke-opacity="0.200000" d="M261.25,-274.21C333.36,-267.32 439.27,-254.99 452,-241 473.57,-217.29 442.27,-123.7 460,-97 468.97,-83.49 483.89,-74.38 498.56,-68.33"/>
<polygon fill="#000000" fill-opacity="0.200000" stroke="#000000" stroke-width="2" stroke-opacity="0.200000" points="499.54,-70.2 504.37,-66.07 498.02,-66.28 499.54,-70.2"/>
</g>
<!-- src/app/shared/services/theme/theme.service.ts -->
<g id="node10" class="node">
<title>src/app/shared/services/theme/theme.service.ts</title>
<g id="a_node10"><a xlink:href="src/app/shared/services/theme/theme.service.ts" xlink:title="theme.service.ts">
<path fill="#ddfeff" stroke="black" d="M583,-126C583,-126 503,-126 503,-126 500,-126 497,-123 497,-120 497,-120 497,-114 497,-114 497,-111 500,-108 503,-108 503,-108 583,-108 583,-108 586,-108 589,-111 589,-114 589,-114 589,-120 589,-120 589,-123 586,-126 583,-126"/>
<text text-anchor="start" x="505" y="-114.8" font-family="Helvetica,sans-Serif" font-size="9.00">theme.service.ts</text>
</a>
</g>
</g>
<!-- src/app/layouts/main&#45;layout/main&#45;layout.component.ts&#45;&gt;src/app/shared/services/theme/theme.service.ts -->
<g id="edge17" class="edge">
<title>src/app/layouts/main&#45;layout/main&#45;layout.component.ts&#45;&gt;src/app/shared/services/theme/theme.service.ts</title>
<path fill="none" stroke="#000000" stroke-width="2" stroke-opacity="0.200000" d="M261.27,-283.84C333.08,-287.22 438.44,-289.84 452,-277 471.41,-258.63 445.09,-179.18 460,-157 469.05,-143.54 483.98,-134.44 498.64,-128.38"/>
<polygon fill="#000000" fill-opacity="0.200000" stroke="#000000" stroke-width="2" stroke-opacity="0.200000" points="499.62,-130.25 504.45,-126.12 498.09,-126.34 499.62,-130.25"/>
</g>
<!-- src/app/common/sidenav/navitem/navitem.component.ts -->
<g id="node11" class="node">
<title>src/app/common/sidenav/navitem/navitem.component.ts</title>
<g id="a_node11"><a xlink:href="src/app/common/sidenav/navitem/navitem.component.ts" xlink:title="navitem.component.ts">
<path fill="#ddfeff" stroke="black" d="M422,-66C422,-66 315,-66 315,-66 312,-66 309,-63 309,-60 309,-60 309,-54 309,-54 309,-51 312,-48 315,-48 315,-48 422,-48 422,-48 425,-48 428,-51 428,-54 428,-54 428,-60 428,-60 428,-63 425,-66 422,-66"/>
<text text-anchor="start" x="317" y="-54.8" font-family="Helvetica,sans-Serif" font-size="9.00">navitem.component.ts</text>
</a>
</g>
</g>
<!-- src/app/layouts/main&#45;layout/main&#45;layout.component.ts&#45;&gt;src/app/common/sidenav/navitem/navitem.component.ts -->
<g id="edge11" class="edge">
<title>src/app/layouts/main&#45;layout/main&#45;layout.component.ts&#45;&gt;src/app/common/sidenav/navitem/navitem.component.ts</title>
<path fill="none" stroke="#000000" stroke-width="2" stroke-opacity="0.200000" d="M260.77,-270.8C266.96,-267.6 272.56,-263.42 277,-258 296.02,-234.74 271.19,-149.69 285,-123 297.64,-98.58 323.76,-80.13 343.25,-69.03"/>
<polygon fill="#000000" fill-opacity="0.200000" stroke="#000000" stroke-width="2" stroke-opacity="0.200000" points="344.32,-70.84 348.55,-66.09 342.28,-67.16 344.32,-70.84"/>
</g>
<!-- src/app/shared/services/organization/organization.service.ts -->
<g id="node12" class="node">
<title>src/app/shared/services/organization/organization.service.ts</title>
<g id="a_node12"><a xlink:href="src/app/shared/services/organization/organization.service.ts" xlink:title="organization.service.ts">
<path fill="#ddfeff" stroke="black" d="M596,-246C596,-246 490,-246 490,-246 487,-246 484,-243 484,-240 484,-240 484,-234 484,-234 484,-231 487,-228 490,-228 490,-228 596,-228 596,-228 599,-228 602,-231 602,-234 602,-234 602,-240 602,-240 602,-243 599,-246 596,-246"/>
<text text-anchor="start" x="492" y="-234.8" font-family="Helvetica,sans-Serif" font-size="9.00">organization.service.ts</text>
</a>
</g>
</g>
<!-- src/app/layouts/main&#45;layout/main&#45;layout.component.ts&#45;&gt;src/app/shared/services/organization/organization.service.ts -->
<g id="edge14" class="edge">
<title>src/app/layouts/main&#45;layout/main&#45;layout.component.ts&#45;&gt;src/app/shared/services/organization/organization.service.ts</title>
<path fill="none" stroke="#000000" stroke-width="2" stroke-opacity="0.200000" d="M219.9,-289.11C237.9,-294.95 262.59,-301.98 285,-305 321.78,-309.96 422.37,-327.35 452,-305 462.33,-297.21 451.69,-286.92 460,-277 471.05,-263.82 487.48,-254.62 502.73,-248.4"/>
<polygon fill="#000000" fill-opacity="0.200000" stroke="#000000" stroke-width="2" stroke-opacity="0.200000" points="503.9,-250.21 508.73,-246.08 502.38,-246.29 503.9,-250.21"/>
</g>
<!-- src/app/shared/services/snackbar/snackbar.service.ts -->
<g id="node13" class="node">
<title>src/app/shared/services/snackbar/snackbar.service.ts</title>
<g id="a_node13"><a xlink:href="src/app/shared/services/snackbar/snackbar.service.ts" xlink:title="snackbar.service.ts">
<path fill="#ddfeff" stroke="black" d="M588.5,-306C588.5,-306 497.5,-306 497.5,-306 494.5,-306 491.5,-303 491.5,-300 491.5,-300 491.5,-294 491.5,-294 491.5,-291 494.5,-288 497.5,-288 497.5,-288 588.5,-288 588.5,-288 591.5,-288 594.5,-291 594.5,-294 594.5,-294 594.5,-300 594.5,-300 594.5,-303 591.5,-306 588.5,-306"/>
<text text-anchor="start" x="499.5" y="-294.8" font-family="Helvetica,sans-Serif" font-size="9.00">snackbar.service.ts</text>
</a>
</g>
</g>
<!-- src/app/layouts/main&#45;layout/main&#45;layout.component.ts&#45;&gt;src/app/shared/services/snackbar/snackbar.service.ts -->
<g id="edge16" class="edge">
<title>src/app/layouts/main&#45;layout/main&#45;layout.component.ts&#45;&gt;src/app/shared/services/snackbar/snackbar.service.ts</title>
<path fill="none" stroke="#000000" stroke-width="2" stroke-opacity="0.200000" d="M209.79,-289.12C227.45,-298.74 257.22,-313.3 285,-319 357.71,-333.92 378.31,-327.88 452,-319 470.35,-316.79 490.35,-312.13 506.83,-307.67"/>
<polygon fill="#000000" fill-opacity="0.200000" stroke="#000000" stroke-width="2" stroke-opacity="0.200000" points="507.51,-309.66 512.74,-306.04 506.39,-305.61 507.51,-309.66"/>
</g>
<!-- src/app/layouts/tabs&#45;layout/tabs&#45;layout.component.ts&#45;&gt;src/app/shared/services/auth/auth.service.ts -->
<g id="edge18" class="edge">
<title>src/app/layouts/tabs&#45;layout/tabs&#45;layout.component.ts&#45;&gt;src/app/shared/services/auth/auth.service.ts</title>
<path fill="none" stroke="#000000" stroke-width="2" stroke-opacity="0.200000" d="M244.63,-349.02C303.48,-356.28 399.25,-357.58 452,-302 465.06,-288.24 449.2,-232.6 460,-217 469.31,-203.55 484.46,-194.44 499.21,-188.36"/>
<polygon fill="#000000" fill-opacity="0.200000" stroke="#000000" stroke-width="2" stroke-opacity="0.200000" points="500.22,-190.22 505.06,-186.09 498.7,-186.3 500.22,-190.22"/>
</g>
<!-- src/app/common/navbar/navbar.component.ts&#45;&gt;src/app/shared/services/auth/auth.service.ts -->
<g id="edge5" class="edge">
<title>src/app/common/navbar/navbar.component.ts&#45;&gt;src/app/shared/services/auth/auth.service.ts</title>
<path fill="none" stroke="#000000" stroke-width="2" stroke-opacity="0.200000" d="M415.27,-152.02C439.93,-156.88 470.3,-162.87 495.13,-167.76"/>
<polygon fill="#000000" fill-opacity="0.200000" stroke="#000000" stroke-width="2" stroke-opacity="0.200000" points="495.02,-169.88 501.31,-168.98 495.83,-165.76 495.02,-169.88"/>
</g>
<!-- src/app/common/navbar/navbar.component.ts&#45;&gt;src/app/shared/services/sidebar/sidebar.service.ts -->
<g id="edge6" class="edge">
<title>src/app/common/navbar/navbar.component.ts&#45;&gt;src/app/shared/services/sidebar/sidebar.service.ts</title>
<path fill="none" stroke="#000000" stroke-width="2" stroke-opacity="0.200000" d="M387.14,-133.92C405.35,-124.58 434.6,-109.65 460,-97 479.19,-87.44 501.02,-76.81 517.32,-68.91"/>
<polygon fill="#000000" fill-opacity="0.200000" stroke="#000000" stroke-width="2" stroke-opacity="0.200000" points="518.58,-70.63 523.07,-66.13 516.75,-66.85 518.58,-70.63"/>
</g>
<!-- src/app/common/navbar/navbar.component.ts&#45;&gt;src/app/shared/services/theme/theme.service.ts -->
<g id="edge7" class="edge">
<title>src/app/common/navbar/navbar.component.ts&#45;&gt;src/app/shared/services/theme/theme.service.ts</title>
<path fill="none" stroke="#000000" stroke-width="2" stroke-opacity="0.200000" d="M425.03,-134.63C446.19,-131.44 470.18,-127.83 490.9,-124.7"/>
<polygon fill="#000000" fill-opacity="0.200000" stroke="#000000" stroke-width="2" stroke-opacity="0.200000" points="491.32,-126.76 496.94,-123.79 490.69,-122.61 491.32,-126.76"/>
</g>
</g>
</svg>
