<?xml version="1.0" encoding="UTF-8" standalone="no"?>
<!DOCTYPE svg PUBLIC "-//W3C//DTD SVG 1.1//EN"
 "http://www.w3.org/Graphics/SVG/1.1/DTD/svg11.dtd">
<!-- Generated by graphviz version 2.43.0 (0)
 -->
<!-- Title: dependency&#45;cruiser output Pages: 1 -->
<svg width="692pt" height="614pt"
 viewBox="0.00 0.00 692.00 614.00" xmlns="http://www.w3.org/2000/svg" xmlns:xlink="http://www.w3.org/1999/xlink">
<g id="graph0" class="graph" transform="scale(1 1) rotate(0) translate(4 610)">
<title>dependency&#45;cruiser output</title>
<polygon fill="white" stroke="transparent" points="-4,4 -4,-610 688,-610 688,4 -4,4"/>
<g id="clust1" class="cluster">
<title>cluster_src</title>
<path fill="#ffffff" stroke="black" stroke-width="2" d="M20,-8C20,-8 664,-8 664,-8 670,-8 676,-14 676,-20 676,-20 676,-586 676,-586 676,-592 670,-598 664,-598 664,-598 20,-598 20,-598 14,-598 8,-592 8,-586 8,-586 8,-20 8,-20 8,-14 14,-8 20,-8"/>
<text text-anchor="middle" x="342" y="-586.8" font-family="Helvetica,sans-Serif" font-weight="bold" font-size="9.00">src</text>
</g>
<g id="clust2" class="cluster">
<title>cluster_src/app</title>
<path fill="#ffffff" stroke="black" stroke-width="2" d="M28,-16C28,-16 656,-16 656,-16 662,-16 668,-22 668,-28 668,-28 668,-500 668,-500 668,-506 662,-512 656,-512 656,-512 28,-512 28,-512 22,-512 16,-506 16,-500 16,-500 16,-28 16,-28 16,-22 22,-16 28,-16"/>
<text text-anchor="middle" x="342" y="-500.8" font-family="Helvetica,sans-Serif" font-weight="bold" font-size="9.00">app</text>
</g>
<g id="clust3" class="cluster">
<title>cluster_src/app/common</title>
<path fill="#ffffff" stroke="black" stroke-width="2" d="M194.5,-366C194.5,-366 347.5,-366 347.5,-366 353.5,-366 359.5,-372 359.5,-378 359.5,-378 359.5,-474 359.5,-474 359.5,-480 353.5,-486 347.5,-486 347.5,-486 194.5,-486 194.5,-486 188.5,-486 182.5,-480 182.5,-474 182.5,-474 182.5,-378 182.5,-378 182.5,-372 188.5,-366 194.5,-366"/>
<text text-anchor="middle" x="271" y="-474.8" font-family="Helvetica,sans-Serif" font-weight="bold" font-size="9.00">common</text>
</g>
<g id="clust4" class="cluster">
<title>cluster_src/app/common/form</title>
<path fill="#ffffff" stroke="black" stroke-width="2" d="M202.5,-374C202.5,-374 339.5,-374 339.5,-374 345.5,-374 351.5,-380 351.5,-386 351.5,-386 351.5,-448 351.5,-448 351.5,-454 345.5,-460 339.5,-460 339.5,-460 202.5,-460 202.5,-460 196.5,-460 190.5,-454 190.5,-448 190.5,-448 190.5,-386 190.5,-386 190.5,-380 196.5,-374 202.5,-374"/>
<text text-anchor="middle" x="271" y="-448.8" font-family="Helvetica,sans-Serif" font-weight="bold" font-size="9.00">form</text>
</g>
<g id="clust5" class="cluster">
<title>cluster_src/app/common/form/issue&#45;form</title>
<path fill="#ffffff" stroke="black" stroke-width="2" d="M210.5,-382C210.5,-382 331.5,-382 331.5,-382 337.5,-382 343.5,-388 343.5,-394 343.5,-394 343.5,-422 343.5,-422 343.5,-428 337.5,-434 331.5,-434 331.5,-434 210.5,-434 210.5,-434 204.5,-434 198.5,-428 198.5,-422 198.5,-422 198.5,-394 198.5,-394 198.5,-388 204.5,-382 210.5,-382"/>
<text text-anchor="middle" x="271" y="-422.8" font-family="Helvetica,sans-Serif" font-weight="bold" font-size="9.00">issue&#45;form</text>
</g>
<g id="clust6" class="cluster">
<title>cluster_src/app/main</title>
<path fill="#ffffff" stroke="black" stroke-width="2" d="M36,-24C36,-24 373,-24 373,-24 379,-24 385,-30 385,-36 385,-36 385,-346 385,-346 385,-352 379,-358 373,-358 373,-358 36,-358 36,-358 30,-358 24,-352 24,-346 24,-346 24,-36 24,-36 24,-30 30,-24 36,-24"/>
<text text-anchor="middle" x="204.5" y="-346.8" font-family="Helvetica,sans-Serif" font-weight="bold" font-size="9.00">main</text>
</g>
<g id="clust7" class="cluster">
<title>cluster_src/app/main/issues</title>
<path fill="#ffffff" stroke="black" stroke-width="2" d="M44,-220C44,-220 161,-220 161,-220 167,-220 173,-226 173,-232 173,-232 173,-320 173,-320 173,-326 167,-332 161,-332 161,-332 44,-332 44,-332 38,-332 32,-326 32,-320 32,-320 32,-232 32,-232 32,-226 38,-220 44,-220"/>
<text text-anchor="middle" x="102.5" y="-320.8" font-family="Helvetica,sans-Serif" font-weight="bold" font-size="9.00">issues</text>
</g>
<g id="clust8" class="cluster">
<title>cluster_src/app/main/issues/board</title>
<path fill="#ffffff" stroke="black" stroke-width="2" d="M52,-228C52,-228 153,-228 153,-228 159,-228 165,-234 165,-240 165,-240 165,-268 165,-268 165,-274 159,-280 153,-280 153,-280 52,-280 52,-280 46,-280 40,-274 40,-268 40,-268 40,-240 40,-240 40,-234 46,-228 52,-228"/>
<text text-anchor="middle" x="102.5" y="-268.8" font-family="Helvetica,sans-Serif" font-weight="bold" font-size="9.00">board</text>
</g>
<g id="clust9" class="cluster">
<title>cluster_src/app/main/manage</title>
<path fill="#ffffff" stroke="black" stroke-width="2" d="M44.5,-32C44.5,-32 365,-32 365,-32 371,-32 377,-38 377,-44 377,-44 377,-200 377,-200 377,-206 371,-212 365,-212 365,-212 44.5,-212 44.5,-212 38.5,-212 32.5,-206 32.5,-200 32.5,-200 32.5,-44 32.5,-44 32.5,-38 38.5,-32 44.5,-32"/>
<text text-anchor="middle" x="204.75" y="-200.8" font-family="Helvetica,sans-Serif" font-weight="bold" font-size="9.00">manage</text>
</g>
<g id="clust10" class="cluster">
<title>cluster_src/app/main/manage/labels</title>
<path fill="#ffffff" stroke="black" stroke-width="2" d="M52.5,-40C52.5,-40 357,-40 357,-40 363,-40 369,-46 369,-52 369,-52 369,-174 369,-174 369,-180 363,-186 357,-186 357,-186 52.5,-186 52.5,-186 46.5,-186 40.5,-180 40.5,-174 40.5,-174 40.5,-52 40.5,-52 40.5,-46 46.5,-40 52.5,-40"/>
<text text-anchor="middle" x="204.75" y="-174.8" font-family="Helvetica,sans-Serif" font-weight="bold" font-size="9.00">labels</text>
</g>
<g id="clust11" class="cluster">
<title>cluster_src/app/main/manage/labels/label&#45;delete&#45;dialog</title>
<path fill="#ffffff" stroke="black" stroke-width="2" d="M193,-48C193,-48 349,-48 349,-48 355,-48 361,-54 361,-60 361,-60 361,-88 361,-88 361,-94 355,-100 349,-100 349,-100 193,-100 193,-100 187,-100 181,-94 181,-88 181,-88 181,-60 181,-60 181,-54 187,-48 193,-48"/>
<text text-anchor="middle" x="271" y="-88.8" font-family="Helvetica,sans-Serif" font-weight="bold" font-size="9.00">label&#45;delete&#45;dialog</text>
</g>
<g id="clust12" class="cluster">
<title>cluster_src/app/main/manage/labels/label&#45;form&#45;dialog</title>
<path fill="#ffffff" stroke="black" stroke-width="2" d="M196,-108C196,-108 346,-108 346,-108 352,-108 358,-114 358,-120 358,-120 358,-148 358,-148 358,-154 352,-160 346,-160 346,-160 196,-160 196,-160 190,-160 184,-154 184,-148 184,-148 184,-120 184,-120 184,-114 190,-108 196,-108"/>
<text text-anchor="middle" x="271" y="-148.8" font-family="Helvetica,sans-Serif" font-weight="bold" font-size="9.00">label&#45;form&#45;dialog</text>
</g>
<g id="clust13" class="cluster">
<title>cluster_src/app/shared</title>
<path fill="#ffffff" stroke="black" stroke-width="2" d="M405,-212C405,-212 648,-212 648,-212 654,-212 660,-218 660,-224 660,-224 660,-320 660,-320 660,-326 654,-332 648,-332 648,-332 405,-332 405,-332 399,-332 393,-326 393,-320 393,-320 393,-224 393,-224 393,-218 399,-212 405,-212"/>
<text text-anchor="middle" x="526.5" y="-320.8" font-family="Helvetica,sans-Serif" font-weight="bold" font-size="9.00">shared</text>
</g>
<g id="clust14" class="cluster">
<title>cluster_src/app/shared/services</title>
<path fill="#ffffff" stroke="black" stroke-width="2" d="M413,-220C413,-220 504,-220 504,-220 510,-220 516,-226 516,-232 516,-232 516,-294 516,-294 516,-300 510,-306 504,-306 504,-306 413,-306 413,-306 407,-306 401,-300 401,-294 401,-294 401,-232 401,-232 401,-226 407,-220 413,-220"/>
<text text-anchor="middle" x="458.5" y="-294.8" font-family="Helvetica,sans-Serif" font-weight="bold" font-size="9.00">services</text>
</g>
<g id="clust15" class="cluster">
<title>cluster_src/app/shared/services/label</title>
<path fill="#ffffff" stroke="black" stroke-width="2" d="M421,-228C421,-228 496,-228 496,-228 502,-228 508,-234 508,-240 508,-240 508,-268 508,-268 508,-274 502,-280 496,-280 496,-280 421,-280 421,-280 415,-280 409,-274 409,-268 409,-268 409,-240 409,-240 409,-234 415,-228 421,-228"/>
<text text-anchor="middle" x="458.5" y="-268.8" font-family="Helvetica,sans-Serif" font-weight="bold" font-size="9.00">label</text>
</g>
<g id="clust16" class="cluster">
<title>cluster_src/app/shared/utils</title>
<path fill="#ffffff" stroke="black" stroke-width="2" d="M536,-220C536,-220 640,-220 640,-220 646,-220 652,-226 652,-232 652,-232 652,-294 652,-294 652,-300 646,-306 640,-306 640,-306 536,-306 536,-306 530,-306 524,-300 524,-294 524,-294 524,-232 524,-232 524,-226 530,-220 536,-220"/>
<text text-anchor="middle" x="588" y="-294.8" font-family="Helvetica,sans-Serif" font-weight="bold" font-size="9.00">utils</text>
</g>
<g id="clust17" class="cluster">
<title>cluster_src/app/shared/utils/paramsHandler</title>
<path fill="#ffffff" stroke="black" stroke-width="2" d="M544,-228C544,-228 632,-228 632,-228 638,-228 644,-234 644,-240 644,-240 644,-268 644,-268 644,-274 638,-280 632,-280 632,-280 544,-280 544,-280 538,-280 532,-274 532,-268 532,-268 532,-240 532,-240 532,-234 538,-228 544,-228"/>
<text text-anchor="middle" x="588" y="-268.8" font-family="Helvetica,sans-Serif" font-weight="bold" font-size="9.00">paramsHandler</text>
</g>
<g id="clust18" class="cluster">
<title>cluster_src/environments</title>
<path fill="#ffffff" stroke="black" stroke-width="2" d="M549,-520C549,-520 627,-520 627,-520 633,-520 639,-526 639,-532 639,-532 639,-560 639,-560 639,-566 633,-572 627,-572 627,-572 549,-572 549,-572 543,-572 537,-566 537,-560 537,-560 537,-532 537,-532 537,-526 543,-520 549,-520"/>
<text text-anchor="middle" x="588" y="-560.8" font-family="Helvetica,sans-Serif" font-weight="bold" font-size="9.00">environments</text>
</g>
<!-- src/app/common/form/issue&#45;form/issue&#45;form.component.ts -->
<g id="node1" class="node">
<title>src/app/common/form/issue&#45;form/issue&#45;form.component.ts</title>
<g id="a_node1"><a xlink:href="src/app/common/form/issue-form/issue-form.component.ts" xlink:title="issue&#45;form.component.ts">
<path fill="#ddfeff" stroke="black" d="M329.5,-408C329.5,-408 212.5,-408 212.5,-408 209.5,-408 206.5,-405 206.5,-402 206.5,-402 206.5,-396 206.5,-396 206.5,-393 209.5,-390 212.5,-390 212.5,-390 329.5,-390 329.5,-390 332.5,-390 335.5,-393 335.5,-396 335.5,-396 335.5,-402 335.5,-402 335.5,-405 332.5,-408 329.5,-408"/>
<text text-anchor="start" x="214.5" y="-396.8" font-family="Helvetica,sans-Serif" font-size="9.00">issue&#45;form.component.ts</text>
</a>
</g>
</g>
<!-- src/app/shared/services/label/label.service.ts -->
<g id="node2" class="node">
<title>src/app/shared/services/label/label.service.ts</title>
<g id="a_node2"><a xlink:href="src/app/shared/services/label/label.service.ts" xlink:title="label.service.ts">
<path fill="#ddfeff" stroke="black" d="M494,-254C494,-254 423,-254 423,-254 420,-254 417,-251 417,-248 417,-248 417,-242 417,-242 417,-239 420,-236 423,-236 423,-236 494,-236 494,-236 497,-236 500,-239 500,-242 500,-242 500,-248 500,-248 500,-251 497,-254 494,-254"/>
<text text-anchor="start" x="425" y="-242.8" font-family="Helvetica,sans-Serif" font-size="9.00">label.service.ts</text>
</a>
</g>
</g>
<!-- src/app/common/form/issue&#45;form/issue&#45;form.component.ts&#45;&gt;src/app/shared/services/label/label.service.ts -->
<g id="edge1" class="edge">
<title>src/app/common/form/issue&#45;form/issue&#45;form.component.ts&#45;&gt;src/app/shared/services/label/label.service.ts</title>
<path fill="none" stroke="#000000" stroke-width="2" stroke-opacity="0.200000" d="M283.05,-389.83C314.55,-363.68 404.9,-288.67 441.66,-258.15"/>
<polygon fill="#000000" fill-opacity="0.200000" stroke="#000000" stroke-width="2" stroke-opacity="0.200000" points="443,-259.77 446.28,-254.32 440.32,-256.54 443,-259.77"/>
</g>
<!-- src/environments/environment.ts -->
<g id="node8" class="node">
<title>src/environments/environment.ts</title>
<g id="a_node8"><a xlink:href="src/environments/environment.ts" xlink:title="environment.ts">
<path fill="#ddfeff" stroke="black" d="M625,-546C625,-546 551,-546 551,-546 548,-546 545,-543 545,-540 545,-540 545,-534 545,-534 545,-531 548,-528 551,-528 551,-528 625,-528 625,-528 628,-528 631,-531 631,-534 631,-534 631,-540 631,-540 631,-543 628,-546 625,-546"/>
<text text-anchor="start" x="553" y="-534.8" font-family="Helvetica,sans-Serif" font-size="9.00">environment.ts</text>
</a>
</g>
</g>
<!-- src/app/shared/services/label/label.service.ts&#45;&gt;src/environments/environment.ts -->
<g id="edge9" class="edge">
<title>src/app/shared/services/label/label.service.ts&#45;&gt;src/environments/environment.ts</title>
<path fill="none" stroke="#000000" stroke-width="2" stroke-opacity="0.200000" d="M463.46,-254.06C481.67,-295.78 557.57,-469.59 580.44,-521.99"/>
<polygon fill="#000000" fill-opacity="0.200000" stroke="#000000" stroke-width="2" stroke-opacity="0.200000" points="578.64,-523.1 582.96,-527.76 582.49,-521.42 578.64,-523.1"/>
</g>
<!-- src/app/shared/utils/paramsHandler/paramsHandler.ts -->
<g id="node9" class="node">
<title>src/app/shared/utils/paramsHandler/paramsHandler.ts</title>
<g id="a_node9"><a xlink:href="src/app/shared/utils/paramsHandler/paramsHandler.ts" xlink:title="paramsHandler.ts">
<path fill="#ddfeff" stroke="black" d="M630,-254C630,-254 546,-254 546,-254 543,-254 540,-251 540,-248 540,-248 540,-242 540,-242 540,-239 543,-236 546,-236 546,-236 630,-236 630,-236 633,-236 636,-239 636,-242 636,-242 636,-248 636,-248 636,-251 633,-254 630,-254"/>
<text text-anchor="start" x="548" y="-242.8" font-family="Helvetica,sans-Serif" font-size="9.00">paramsHandler.ts</text>
</a>
</g>
</g>
<!-- src/app/shared/services/label/label.service.ts&#45;&gt;src/app/shared/utils/paramsHandler/paramsHandler.ts -->
<g id="edge10" class="edge">
<title>src/app/shared/services/label/label.service.ts&#45;&gt;src/app/shared/utils/paramsHandler/paramsHandler.ts</title>
<path fill="none" stroke="#000000" stroke-width="2" stroke-opacity="0.200000" d="M500.19,-245C510.77,-245 522.32,-245 533.45,-245"/>
<polygon fill="#000000" fill-opacity="0.200000" stroke="#000000" stroke-width="2" stroke-opacity="0.200000" points="533.58,-247.1 539.58,-245 533.58,-242.9 533.58,-247.1"/>
</g>
<!-- src/app/main/issues/board/board.component.ts -->
<g id="node3" class="node">
<title>src/app/main/issues/board/board.component.ts</title>
<g id="a_node3"><a xlink:href="src/app/main/issues/board/board.component.ts" xlink:title="board.component.ts">
<path fill="#ddfeff" stroke="black" d="M151,-254C151,-254 54,-254 54,-254 51,-254 48,-251 48,-248 48,-248 48,-242 48,-242 48,-239 51,-236 54,-236 54,-236 151,-236 151,-236 154,-236 157,-239 157,-242 157,-242 157,-248 157,-248 157,-251 154,-254 151,-254"/>
<text text-anchor="start" x="56" y="-242.8" font-family="Helvetica,sans-Serif" font-size="9.00">board.component.ts</text>
</a>
</g>
</g>
<!-- src/app/main/issues/board/board.component.ts&#45;&gt;src/app/shared/services/label/label.service.ts -->
<g id="edge2" class="edge">
<title>src/app/main/issues/board/board.component.ts&#45;&gt;src/app/shared/services/label/label.service.ts</title>
<path fill="none" stroke="#000000" stroke-width="2" stroke-opacity="0.200000" d="M157.26,-245C226.31,-245 345.03,-245 410.59,-245"/>
<polygon fill="#000000" fill-opacity="0.200000" stroke="#000000" stroke-width="2" stroke-opacity="0.200000" points="410.76,-247.1 416.76,-245 410.76,-242.9 410.76,-247.1"/>
</g>
<!-- src/app/main/issues/issues.component.ts -->
<g id="node4" class="node">
<title>src/app/main/issues/issues.component.ts</title>
<g id="a_node4"><a xlink:href="src/app/main/issues/issues.component.ts" xlink:title="issues.component.ts">
<path fill="#ddfeff" stroke="black" d="M151.5,-306C151.5,-306 53.5,-306 53.5,-306 50.5,-306 47.5,-303 47.5,-300 47.5,-300 47.5,-294 47.5,-294 47.5,-291 50.5,-288 53.5,-288 53.5,-288 151.5,-288 151.5,-288 154.5,-288 157.5,-291 157.5,-294 157.5,-294 157.5,-300 157.5,-300 157.5,-303 154.5,-306 151.5,-306"/>
<text text-anchor="start" x="55.5" y="-294.8" font-family="Helvetica,sans-Serif" font-size="9.00">issues.component.ts</text>
</a>
</g>
</g>
<!-- src/app/main/issues/issues.component.ts&#45;&gt;src/app/shared/services/label/label.service.ts -->
<g id="edge3" class="edge">
<title>src/app/main/issues/issues.component.ts&#45;&gt;src/app/shared/services/label/label.service.ts</title>
<path fill="none" stroke="#000000" stroke-width="2" stroke-opacity="0.200000" d="M157.65,-289.05C226.79,-278.89 345.29,-261.48 410.7,-251.87"/>
<polygon fill="#000000" fill-opacity="0.200000" stroke="#000000" stroke-width="2" stroke-opacity="0.200000" points="411.23,-253.92 416.86,-250.97 410.62,-249.76 411.23,-253.92"/>
</g>
<!-- src/app/main/manage/labels/label&#45;delete&#45;dialog/label&#45;delete&#45;dialog.component.ts -->
<g id="node5" class="node">
<title>src/app/main/manage/labels/label&#45;delete&#45;dialog/label&#45;delete&#45;dialog.component.ts</title>
<g id="a_node5"><a xlink:href="src/app/main/manage/labels/label-delete-dialog/label-delete-dialog.component.ts" xlink:title="label&#45;delete&#45;dialog.component.ts">
<path fill="#ddfeff" stroke="black" d="M347,-74C347,-74 195,-74 195,-74 192,-74 189,-71 189,-68 189,-68 189,-62 189,-62 189,-59 192,-56 195,-56 195,-56 347,-56 347,-56 350,-56 353,-59 353,-62 353,-62 353,-68 353,-68 353,-71 350,-74 347,-74"/>
<text text-anchor="start" x="197" y="-62.8" font-family="Helvetica,sans-Serif" font-size="9.00">label&#45;delete&#45;dialog.component.ts</text>
</a>
</g>
</g>
<!-- src/app/main/manage/labels/label&#45;delete&#45;dialog/label&#45;delete&#45;dialog.component.ts&#45;&gt;src/app/shared/services/label/label.service.ts -->
<g id="edge4" class="edge">
<title>src/app/main/manage/labels/label&#45;delete&#45;dialog/label&#45;delete&#45;dialog.component.ts&#45;&gt;src/app/shared/services/label/label.service.ts</title>
<path fill="none" stroke="#000000" stroke-width="2" stroke-opacity="0.200000" d="M321.79,-74.04C343.17,-79.95 367.27,-89.55 385,-105 424.72,-139.6 445.69,-201.29 453.66,-229.8"/>
<polygon fill="#000000" fill-opacity="0.200000" stroke="#000000" stroke-width="2" stroke-opacity="0.200000" points="451.65,-230.42 455.24,-235.67 455.71,-229.33 451.65,-230.42"/>
</g>
<!-- src/app/main/manage/labels/label&#45;form&#45;dialog/label&#45;form&#45;dialog.component.ts -->
<g id="node6" class="node">
<title>src/app/main/manage/labels/label&#45;form&#45;dialog/label&#45;form&#45;dialog.component.ts</title>
<g id="a_node6"><a xlink:href="src/app/main/manage/labels/label-form-dialog/label-form-dialog.component.ts" xlink:title="label&#45;form&#45;dialog.component.ts">
<path fill="#ddfeff" stroke="black" d="M344,-134C344,-134 198,-134 198,-134 195,-134 192,-131 192,-128 192,-128 192,-122 192,-122 192,-119 195,-116 198,-116 198,-116 344,-116 344,-116 347,-116 350,-119 350,-122 350,-122 350,-128 350,-128 350,-131 347,-134 344,-134"/>
<text text-anchor="start" x="200" y="-122.8" font-family="Helvetica,sans-Serif" font-size="9.00">label&#45;form&#45;dialog.component.ts</text>
</a>
</g>
</g>
<!-- src/app/main/manage/labels/label&#45;form&#45;dialog/label&#45;form&#45;dialog.component.ts&#45;&gt;src/app/shared/services/label/label.service.ts -->
<g id="edge5" class="edge">
<title>src/app/main/manage/labels/label&#45;form&#45;dialog/label&#45;form&#45;dialog.component.ts&#45;&gt;src/app/shared/services/label/label.service.ts</title>
<path fill="none" stroke="#000000" stroke-width="2" stroke-opacity="0.200000" d="M286.73,-134.04C308.39,-147.38 350.06,-173.23 385,-196 403.59,-208.12 424.57,-222.36 439.16,-232.36"/>
<polygon fill="#000000" fill-opacity="0.200000" stroke="#000000" stroke-width="2" stroke-opacity="0.200000" points="438.09,-234.17 444.23,-235.83 440.47,-230.71 438.09,-234.17"/>
</g>
<!-- src/app/main/manage/labels/labels.component.ts -->
<g id="node7" class="node">
<title>src/app/main/manage/labels/labels.component.ts</title>
<g id="a_node7"><a xlink:href="src/app/main/manage/labels/labels.component.ts" xlink:title="labels.component.ts">
<path fill="#ddfeff" stroke="black" d="M150.5,-134C150.5,-134 54.5,-134 54.5,-134 51.5,-134 48.5,-131 48.5,-128 48.5,-128 48.5,-122 48.5,-122 48.5,-119 51.5,-116 54.5,-116 54.5,-116 150.5,-116 150.5,-116 153.5,-116 156.5,-119 156.5,-122 156.5,-122 156.5,-128 156.5,-128 156.5,-131 153.5,-134 150.5,-134"/>
<text text-anchor="start" x="56.5" y="-122.8" font-family="Helvetica,sans-Serif" font-size="9.00">labels.component.ts</text>
</a>
</g>
</g>
<!-- src/app/main/manage/labels/labels.component.ts&#45;&gt;src/app/shared/services/label/label.service.ts -->
<g id="edge6" class="edge">
<title>src/app/main/manage/labels/labels.component.ts&#45;&gt;src/app/shared/services/label/label.service.ts</title>
<path fill="none" stroke="#000000" stroke-width="2" stroke-opacity="0.200000" d="M120.07,-134.13C135.52,-142.41 159.36,-154.56 181,-163 261.33,-194.35 358.72,-220.63 413.86,-234.48"/>
<polygon fill="#000000" fill-opacity="0.200000" stroke="#000000" stroke-width="2" stroke-opacity="0.200000" points="413.38,-236.52 419.71,-235.94 414.4,-232.45 413.38,-236.52"/>
</g>
<!-- src/app/main/manage/labels/labels.component.ts&#45;&gt;src/app/main/manage/labels/label&#45;delete&#45;dialog/label&#45;delete&#45;dialog.component.ts -->
<g id="edge7" class="edge">
<title>src/app/main/manage/labels/labels.component.ts&#45;&gt;src/app/main/manage/labels/label&#45;delete&#45;dialog/label&#45;delete&#45;dialog.component.ts</title>
<path fill="none" stroke="#000000" stroke-width="2" stroke-opacity="0.200000" d="M128.79,-115.89C158.42,-105.21 207.5,-87.52 239.29,-76.07"/>
<polygon fill="#000000" fill-opacity="0.200000" stroke="#000000" stroke-width="2" stroke-opacity="0.200000" points="240.09,-78.01 245.02,-74 238.66,-74.06 240.09,-78.01"/>
</g>
<!-- src/app/main/manage/labels/labels.component.ts&#45;&gt;src/app/main/manage/labels/label&#45;form&#45;dialog/label&#45;form&#45;dialog.component.ts -->
<g id="edge8" class="edge">
<title>src/app/main/manage/labels/labels.component.ts&#45;&gt;src/app/main/manage/labels/label&#45;form&#45;dialog/label&#45;form&#45;dialog.component.ts</title>
<path fill="none" stroke="#000000" stroke-width="2" stroke-opacity="0.200000" d="M156.64,-125C165.94,-125 175.82,-125 185.72,-125"/>
<polygon fill="#000000" fill-opacity="0.200000" stroke="#000000" stroke-width="2" stroke-opacity="0.200000" points="185.88,-127.1 191.88,-125 185.88,-122.9 185.88,-127.1"/>
</g>
</g>
</svg>
