<?xml version="1.0" encoding="UTF-8" standalone="no"?>
<!DOCTYPE svg PUBLIC "-//W3C//DTD SVG 1.1//EN"
 "http://www.w3.org/Graphics/SVG/1.1/DTD/svg11.dtd">
<!-- Generated by graphviz version 2.43.0 (0)
 -->
<!-- Title: dependency&#45;cruiser output Pages: 1 -->
<svg width="399pt" height="212pt"
 viewBox="0.00 0.00 399.00 212.00" xmlns="http://www.w3.org/2000/svg" xmlns:xlink="http://www.w3.org/1999/xlink">
<g id="graph0" class="graph" transform="scale(1 1) rotate(0) translate(4 208)">
<title>dependency&#45;cruiser output</title>
<polygon fill="white" stroke="transparent" points="-4,4 -4,-208 395,-208 395,4 -4,4"/>
<g id="clust1" class="cluster">
<title>cluster_src</title>
<path fill="#ffffff" stroke="black" stroke-width="2" d="M20,-8C20,-8 371,-8 371,-8 377,-8 383,-14 383,-20 383,-20 383,-184 383,-184 383,-190 377,-196 371,-196 371,-196 20,-196 20,-196 14,-196 8,-190 8,-184 8,-184 8,-20 8,-20 8,-14 14,-8 20,-8"/>
<text text-anchor="middle" x="195.5" y="-184.8" font-family="Helvetica,sans-Serif" font-weight="bold" font-size="9.00">src</text>
</g>
<g id="clust2" class="cluster">
<title>cluster_src/app</title>
<path fill="#ffffff" stroke="black" stroke-width="2" d="M28,-16C28,-16 363,-16 363,-16 369,-16 375,-22 375,-28 375,-28 375,-158 375,-158 375,-164 369,-170 363,-170 363,-170 28,-170 28,-170 22,-170 16,-164 16,-158 16,-158 16,-28 16,-28 16,-22 22,-16 28,-16"/>
<text text-anchor="middle" x="195.5" y="-158.8" font-family="Helvetica,sans-Serif" font-weight="bold" font-size="9.00">app</text>
</g>
<g id="clust3" class="cluster">
<title>cluster_src/app/common</title>
<path fill="#ffffff" stroke="black" stroke-width="2" d="M212,-24C212,-24 355,-24 355,-24 361,-24 367,-30 367,-36 367,-36 367,-132 367,-132 367,-138 361,-144 355,-144 355,-144 212,-144 212,-144 206,-144 200,-138 200,-132 200,-132 200,-36 200,-36 200,-30 206,-24 212,-24"/>
<text text-anchor="middle" x="283.5" y="-132.8" font-family="Helvetica,sans-Serif" font-weight="bold" font-size="9.00">common</text>
</g>
<g id="clust4" class="cluster">
<title>cluster_src/app/common/sidenav</title>
<path fill="#ffffff" stroke="black" stroke-width="2" d="M220,-32C220,-32 347,-32 347,-32 353,-32 359,-38 359,-44 359,-44 359,-106 359,-106 359,-112 353,-118 347,-118 347,-118 220,-118 220,-118 214,-118 208,-112 208,-106 208,-106 208,-44 208,-44 208,-38 214,-32 220,-32"/>
<text text-anchor="middle" x="283.5" y="-106.8" font-family="Helvetica,sans-Serif" font-weight="bold" font-size="9.00">sidenav</text>
</g>
<g id="clust5" class="cluster">
<title>cluster_src/app/common/sidenav/navitem</title>
<path fill="#ffffff" stroke="black" stroke-width="2" d="M228,-40C228,-40 339,-40 339,-40 345,-40 351,-46 351,-52 351,-52 351,-80 351,-80 351,-86 345,-92 339,-92 339,-92 228,-92 228,-92 222,-92 216,-86 216,-80 216,-80 216,-52 216,-52 216,-46 222,-40 228,-40"/>
<text text-anchor="middle" x="283.5" y="-80.8" font-family="Helvetica,sans-Serif" font-weight="bold" font-size="9.00">navitem</text>
</g>
<g id="clust6" class="cluster">
<title>cluster_src/app/layouts</title>
<path fill="#ffffff" stroke="black" stroke-width="2" d="M36,-32C36,-32 180,-32 180,-32 186,-32 192,-38 192,-44 192,-44 192,-106 192,-106 192,-112 186,-118 180,-118 180,-118 36,-118 36,-118 30,-118 24,-112 24,-106 24,-106 24,-44 24,-44 24,-38 30,-32 36,-32"/>
<text text-anchor="middle" x="108" y="-106.8" font-family="Helvetica,sans-Serif" font-weight="bold" font-size="9.00">layouts</text>
</g>
<g id="clust7" class="cluster">
<title>cluster_src/app/layouts/main&#45;layout</title>
<path fill="#ffffff" stroke="black" stroke-width="2" d="M44,-40C44,-40 172,-40 172,-40 178,-40 184,-46 184,-52 184,-52 184,-80 184,-80 184,-86 178,-92 172,-92 172,-92 44,-92 44,-92 38,-92 32,-86 32,-80 32,-80 32,-52 32,-52 32,-46 38,-40 44,-40"/>
<text text-anchor="middle" x="108" y="-80.8" font-family="Helvetica,sans-Serif" font-weight="bold" font-size="9.00">main&#45;layout</text>
</g>
<!-- src/app/common/sidenav/navitem/navitem.component.ts -->
<g id="node1" class="node">
<title>src/app/common/sidenav/navitem/navitem.component.ts</title>
<g id="a_node1"><a xlink:href="src/app/common/sidenav/navitem/navitem.component.ts" xlink:title="navitem.component.ts">
<path fill="#ddfeff" stroke="black" d="M337,-66C337,-66 230,-66 230,-66 227,-66 224,-63 224,-60 224,-60 224,-54 224,-54 224,-51 227,-48 230,-48 230,-48 337,-48 337,-48 340,-48 343,-51 343,-54 343,-54 343,-60 343,-60 343,-63 340,-66 337,-66"/>
<text text-anchor="start" x="232" y="-54.8" font-family="Helvetica,sans-Serif" font-size="9.00">navitem.component.ts</text>
</a>
</g>
</g>
<!-- src/app/layouts/main&#45;layout/main&#45;layout.component.ts -->
<g id="node2" class="node">
<title>src/app/layouts/main&#45;layout/main&#45;layout.component.ts</title>
<g id="a_node2"><a xlink:href="src/app/layouts/main-layout/main-layout.component.ts" xlink:title="main&#45;layout.component.ts">
<path fill="#ddfeff" stroke="black" d="M170,-66C170,-66 46,-66 46,-66 43,-66 40,-63 40,-60 40,-60 40,-54 40,-54 40,-51 43,-48 46,-48 46,-48 170,-48 170,-48 173,-48 176,-51 176,-54 176,-54 176,-60 176,-60 176,-63 173,-66 170,-66"/>
<text text-anchor="start" x="48" y="-54.8" font-family="Helvetica,sans-Serif" font-size="9.00">main&#45;layout.component.ts</text>
</a>
</g>
</g>
<!-- src/app/layouts/main&#45;layout/main&#45;layout.component.ts&#45;&gt;src/app/common/sidenav/navitem/navitem.component.ts -->
<g id="edge1" class="edge">
<title>src/app/layouts/main&#45;layout/main&#45;layout.component.ts&#45;&gt;src/app/common/sidenav/navitem/navitem.component.ts</title>
<path fill="none" stroke="#000000" stroke-width="2" stroke-opacity="0.200000" d="M176.08,-57C189.72,-57 204.05,-57 217.62,-57"/>
<polygon fill="#000000" fill-opacity="0.200000" stroke="#000000" stroke-width="2" stroke-opacity="0.200000" points="217.79,-59.1 223.79,-57 217.79,-54.9 217.79,-59.1"/>
</g>
</g>
</svg>
