<?xml version="1.0" encoding="UTF-8" standalone="no"?>
<!DOCTYPE svg PUBLIC "-//W3C//DTD SVG 1.1//EN"
 "http://www.w3.org/Graphics/SVG/1.1/DTD/svg11.dtd">
<!-- Generated by graphviz version 2.43.0 (0)
 -->
<!-- Title: dependency&#45;cruiser output Pages: 1 -->
<svg width="674pt" height="730pt"
 viewBox="0.00 0.00 674.00 730.00" xmlns="http://www.w3.org/2000/svg" xmlns:xlink="http://www.w3.org/1999/xlink">
<g id="graph0" class="graph" transform="scale(1 1) rotate(0) translate(4 726)">
<title>dependency&#45;cruiser output</title>
<polygon fill="white" stroke="transparent" points="-4,4 -4,-726 670,-726 670,4 -4,4"/>
<g id="clust1" class="cluster">
<title>cluster_src</title>
<path fill="#ffffff" stroke="black" stroke-width="2" d="M20,-8C20,-8 646,-8 646,-8 652,-8 658,-14 658,-20 658,-20 658,-702 658,-702 658,-708 652,-714 646,-714 646,-714 20,-714 20,-714 14,-714 8,-708 8,-702 8,-702 8,-20 8,-20 8,-14 14,-8 20,-8"/>
<text text-anchor="middle" x="333" y="-702.8" font-family="Helvetica,sans-Serif" font-weight="bold" font-size="9.00">src</text>
</g>
<g id="clust2" class="cluster">
<title>cluster_src/app</title>
<path fill="#ffffff" stroke="black" stroke-width="2" d="M28,-16C28,-16 638,-16 638,-16 644,-16 650,-22 650,-28 650,-28 650,-676 650,-676 650,-682 644,-688 638,-688 638,-688 28,-688 28,-688 22,-688 16,-682 16,-676 16,-676 16,-28 16,-28 16,-22 22,-16 28,-16"/>
<text text-anchor="middle" x="333" y="-676.8" font-family="Helvetica,sans-Serif" font-weight="bold" font-size="9.00">app</text>
</g>
<g id="clust3" class="cluster">
<title>cluster_src/app/common</title>
<path fill="#ffffff" stroke="black" stroke-width="2" d="M262,-24C262,-24 619.5,-24 619.5,-24 625.5,-24 631.5,-30 631.5,-36 631.5,-36 631.5,-252 631.5,-252 631.5,-258 625.5,-264 619.5,-264 619.5,-264 262,-264 262,-264 256,-264 250,-258 250,-252 250,-252 250,-36 250,-36 250,-30 256,-24 262,-24"/>
<text text-anchor="middle" x="440.75" y="-252.8" font-family="Helvetica,sans-Serif" font-weight="bold" font-size="9.00">common</text>
</g>
<g id="clust4" class="cluster">
<title>cluster_src/app/common/badge</title>
<path fill="#ffffff" stroke="black" stroke-width="2" d="M499.5,-113C499.5,-113 602.5,-113 602.5,-113 608.5,-113 614.5,-119 614.5,-125 614.5,-125 614.5,-153 614.5,-153 614.5,-159 608.5,-165 602.5,-165 602.5,-165 499.5,-165 499.5,-165 493.5,-165 487.5,-159 487.5,-153 487.5,-153 487.5,-125 487.5,-125 487.5,-119 493.5,-113 499.5,-113"/>
<text text-anchor="middle" x="551" y="-153.8" font-family="Helvetica,sans-Serif" font-weight="bold" font-size="9.00">badge</text>
</g>
<g id="clust5" class="cluster">
<title>cluster_src/app/common/form</title>
<path fill="#ffffff" stroke="black" stroke-width="2" d="M270,-32C270,-32 440,-32 440,-32 446,-32 452,-38 452,-44 452,-44 452,-226 452,-226 452,-232 446,-238 440,-238 440,-238 270,-238 270,-238 264,-238 258,-232 258,-226 258,-226 258,-44 258,-44 258,-38 264,-32 270,-32"/>
<text text-anchor="middle" x="355" y="-226.8" font-family="Helvetica,sans-Serif" font-weight="bold" font-size="9.00">form</text>
</g>
<g id="clust6" class="cluster">
<title>cluster_src/app/common/form/issue&#45;form</title>
<path fill="#ffffff" stroke="black" stroke-width="2" d="M294.5,-160C294.5,-160 415.5,-160 415.5,-160 421.5,-160 427.5,-166 427.5,-172 427.5,-172 427.5,-200 427.5,-200 427.5,-206 421.5,-212 415.5,-212 415.5,-212 294.5,-212 294.5,-212 288.5,-212 282.5,-206 282.5,-200 282.5,-200 282.5,-172 282.5,-172 282.5,-166 288.5,-160 294.5,-160"/>
<text text-anchor="middle" x="355" y="-200.8" font-family="Helvetica,sans-Serif" font-weight="bold" font-size="9.00">issue&#45;form</text>
</g>
<g id="clust7" class="cluster">
<title>cluster_src/app/common/form/organization&#45;form</title>
<path fill="#ffffff" stroke="black" stroke-width="2" d="M278,-100C278,-100 432,-100 432,-100 438,-100 444,-106 444,-112 444,-112 444,-140 444,-140 444,-146 438,-152 432,-152 432,-152 278,-152 278,-152 272,-152 266,-146 266,-140 266,-140 266,-112 266,-112 266,-106 272,-100 278,-100"/>
<text text-anchor="middle" x="355" y="-140.8" font-family="Helvetica,sans-Serif" font-weight="bold" font-size="9.00">organization&#45;form</text>
</g>
<g id="clust8" class="cluster">
<title>cluster_src/app/common/form/project&#45;form</title>
<path fill="#ffffff" stroke="black" stroke-width="2" d="M290,-40C290,-40 420,-40 420,-40 426,-40 432,-46 432,-52 432,-52 432,-80 432,-80 432,-86 426,-92 420,-92 420,-92 290,-92 290,-92 284,-92 278,-86 278,-80 278,-80 278,-52 278,-52 278,-46 284,-40 290,-40"/>
<text text-anchor="middle" x="355" y="-80.8" font-family="Helvetica,sans-Serif" font-weight="bold" font-size="9.00">project&#45;form</text>
</g>
<g id="clust9" class="cluster">
<title>cluster_src/app/common/text&#45;editor</title>
<path fill="#ffffff" stroke="black" stroke-width="2" d="M490.5,-173C490.5,-173 611.5,-173 611.5,-173 617.5,-173 623.5,-179 623.5,-185 623.5,-185 623.5,-213 623.5,-213 623.5,-219 617.5,-225 611.5,-225 611.5,-225 490.5,-225 490.5,-225 484.5,-225 478.5,-219 478.5,-213 478.5,-213 478.5,-185 478.5,-185 478.5,-179 484.5,-173 490.5,-173"/>
<text text-anchor="middle" x="551" y="-213.8" font-family="Helvetica,sans-Serif" font-weight="bold" font-size="9.00">text&#45;editor</text>
</g>
<g id="clust10" class="cluster">
<title>cluster_src/app/main</title>
<path fill="#ffffff" stroke="black" stroke-width="2" d="M36,-151C36,-151 230,-151 230,-151 236,-151 242,-157 242,-163 242,-163 242,-627 242,-627 242,-633 236,-639 230,-639 230,-639 36,-639 36,-639 30,-639 24,-633 24,-627 24,-627 24,-163 24,-163 24,-157 30,-151 36,-151"/>
<text text-anchor="middle" x="133" y="-627.8" font-family="Helvetica,sans-Serif" font-weight="bold" font-size="9.00">main</text>
</g>
<g id="clust11" class="cluster">
<title>cluster_src/app/main/issues</title>
<path fill="#ffffff" stroke="black" stroke-width="2" d="M65.5,-159C65.5,-159 200.5,-159 200.5,-159 206.5,-159 212.5,-165 212.5,-171 212.5,-171 212.5,-293 212.5,-293 212.5,-299 206.5,-305 200.5,-305 200.5,-305 65.5,-305 65.5,-305 59.5,-305 53.5,-299 53.5,-293 53.5,-293 53.5,-171 53.5,-171 53.5,-165 59.5,-159 65.5,-159"/>
<text text-anchor="middle" x="133" y="-293.8" font-family="Helvetica,sans-Serif" font-weight="bold" font-size="9.00">issues</text>
</g>
<g id="clust12" class="cluster">
<title>cluster_src/app/main/issues/edit&#45;issue</title>
<path fill="#ffffff" stroke="black" stroke-width="2" d="M74.5,-167C74.5,-167 191.5,-167 191.5,-167 197.5,-167 203.5,-173 203.5,-179 203.5,-179 203.5,-207 203.5,-207 203.5,-213 197.5,-219 191.5,-219 191.5,-219 74.5,-219 74.5,-219 68.5,-219 62.5,-213 62.5,-207 62.5,-207 62.5,-179 62.5,-179 62.5,-173 68.5,-167 74.5,-167"/>
<text text-anchor="middle" x="133" y="-207.8" font-family="Helvetica,sans-Serif" font-weight="bold" font-size="9.00">edit&#45;issue</text>
</g>
<g id="clust13" class="cluster">
<title>cluster_src/app/main/issues/new&#45;issue</title>
<path fill="#ffffff" stroke="black" stroke-width="2" d="M73.5,-227C73.5,-227 192.5,-227 192.5,-227 198.5,-227 204.5,-233 204.5,-239 204.5,-239 204.5,-267 204.5,-267 204.5,-273 198.5,-279 192.5,-279 192.5,-279 73.5,-279 73.5,-279 67.5,-279 61.5,-273 61.5,-267 61.5,-267 61.5,-239 61.5,-239 61.5,-233 67.5,-227 73.5,-227"/>
<text text-anchor="middle" x="133" y="-267.8" font-family="Helvetica,sans-Serif" font-weight="bold" font-size="9.00">new&#45;issue</text>
</g>
<g id="clust14" class="cluster">
<title>cluster_src/app/main/organizations</title>
<path fill="#ffffff" stroke="black" stroke-width="2" d="M44,-313C44,-313 222,-313 222,-313 228,-313 234,-319 234,-325 234,-325 234,-447 234,-447 234,-453 228,-459 222,-459 222,-459 44,-459 44,-459 38,-459 32,-453 32,-447 32,-447 32,-325 32,-325 32,-319 38,-313 44,-313"/>
<text text-anchor="middle" x="133" y="-447.8" font-family="Helvetica,sans-Serif" font-weight="bold" font-size="9.00">organizations</text>
</g>
<g id="clust15" class="cluster">
<title>cluster_src/app/main/organizations/create&#45;organization</title>
<path fill="#ffffff" stroke="black" stroke-width="2" d="M52,-321C52,-321 214,-321 214,-321 220,-321 226,-327 226,-333 226,-333 226,-361 226,-361 226,-367 220,-373 214,-373 214,-373 52,-373 52,-373 46,-373 40,-367 40,-361 40,-361 40,-333 40,-333 40,-327 46,-321 52,-321"/>
<text text-anchor="middle" x="133" y="-361.8" font-family="Helvetica,sans-Serif" font-weight="bold" font-size="9.00">create&#45;organization</text>
</g>
<g id="clust16" class="cluster">
<title>cluster_src/app/main/organizations/edit&#45;organization</title>
<path fill="#ffffff" stroke="black" stroke-width="2" d="M57.5,-381C57.5,-381 208.5,-381 208.5,-381 214.5,-381 220.5,-387 220.5,-393 220.5,-393 220.5,-421 220.5,-421 220.5,-427 214.5,-433 208.5,-433 208.5,-433 57.5,-433 57.5,-433 51.5,-433 45.5,-427 45.5,-421 45.5,-421 45.5,-393 45.5,-393 45.5,-387 51.5,-381 57.5,-381"/>
<text text-anchor="middle" x="133" y="-421.8" font-family="Helvetica,sans-Serif" font-weight="bold" font-size="9.00">edit&#45;organization</text>
</g>
<g id="clust17" class="cluster">
<title>cluster_src/app/main/projects</title>
<path fill="#ffffff" stroke="black" stroke-width="2" d="M61,-467C61,-467 205,-467 205,-467 211,-467 217,-473 217,-479 217,-479 217,-601 217,-601 217,-607 211,-613 205,-613 205,-613 61,-613 61,-613 55,-613 49,-607 49,-601 49,-601 49,-479 49,-479 49,-473 55,-467 61,-467"/>
<text text-anchor="middle" x="133" y="-601.8" font-family="Helvetica,sans-Serif" font-weight="bold" font-size="9.00">projects</text>
</g>
<g id="clust18" class="cluster">
<title>cluster_src/app/main/projects/edit&#45;project</title>
<path fill="#ffffff" stroke="black" stroke-width="2" d="M70,-475C70,-475 196,-475 196,-475 202,-475 208,-481 208,-487 208,-487 208,-515 208,-515 208,-521 202,-527 196,-527 196,-527 70,-527 70,-527 64,-527 58,-521 58,-515 58,-515 58,-487 58,-487 58,-481 64,-475 70,-475"/>
<text text-anchor="middle" x="133" y="-515.8" font-family="Helvetica,sans-Serif" font-weight="bold" font-size="9.00">edit&#45;project</text>
</g>
<g id="clust19" class="cluster">
<title>cluster_src/app/main/projects/new&#45;project</title>
<path fill="#ffffff" stroke="black" stroke-width="2" d="M69,-535C69,-535 197,-535 197,-535 203,-535 209,-541 209,-547 209,-547 209,-575 209,-575 209,-581 203,-587 197,-587 197,-587 69,-587 69,-587 63,-587 57,-581 57,-575 57,-575 57,-547 57,-547 57,-541 63,-535 69,-535"/>
<text text-anchor="middle" x="133" y="-575.8" font-family="Helvetica,sans-Serif" font-weight="bold" font-size="9.00">new&#45;project</text>
</g>
<g id="clust20" class="cluster">
<title>cluster_src/app/shared</title>
<path fill="#ffffff" stroke="black" stroke-width="2" d="M472,-272C472,-272 630,-272 630,-272 636,-272 642,-278 642,-284 642,-284 642,-650 642,-650 642,-656 636,-662 630,-662 630,-662 472,-662 472,-662 466,-662 460,-656 460,-650 460,-650 460,-284 460,-284 460,-278 466,-272 472,-272"/>
<text text-anchor="middle" x="551" y="-650.8" font-family="Helvetica,sans-Serif" font-weight="bold" font-size="9.00">shared</text>
</g>
<g id="clust21" class="cluster">
<title>cluster_src/app/shared/model</title>
<path fill="#ffffff" stroke="black" stroke-width="2" d="M525.5,-280C525.5,-280 576.5,-280 576.5,-280 582.5,-280 588.5,-286 588.5,-292 588.5,-292 588.5,-350 588.5,-350 588.5,-356 582.5,-362 576.5,-362 576.5,-362 525.5,-362 525.5,-362 519.5,-362 513.5,-356 513.5,-350 513.5,-350 513.5,-292 513.5,-292 513.5,-286 519.5,-280 525.5,-280"/>
<text text-anchor="middle" x="551" y="-350.8" font-family="Helvetica,sans-Serif" font-weight="bold" font-size="9.00">model</text>
</g>
<g id="clust22" class="cluster">
<title>cluster_src/app/shared/services</title>
<path fill="#ffffff" stroke="black" stroke-width="2" d="M480,-370C480,-370 622,-370 622,-370 628,-370 634,-376 634,-382 634,-382 634,-624 634,-624 634,-630 628,-636 622,-636 622,-636 480,-636 480,-636 474,-636 468,-630 468,-624 468,-624 468,-382 468,-382 468,-376 474,-370 480,-370"/>
<text text-anchor="middle" x="551" y="-624.8" font-family="Helvetica,sans-Serif" font-weight="bold" font-size="9.00">services</text>
</g>
<g id="clust23" class="cluster">
<title>cluster_src/app/shared/services/auth</title>
<path fill="#ffffff" stroke="black" stroke-width="2" d="M513.5,-378C513.5,-378 588.5,-378 588.5,-378 594.5,-378 600.5,-384 600.5,-390 600.5,-390 600.5,-418 600.5,-418 600.5,-424 594.5,-430 588.5,-430 588.5,-430 513.5,-430 513.5,-430 507.5,-430 501.5,-424 501.5,-418 501.5,-418 501.5,-390 501.5,-390 501.5,-384 507.5,-378 513.5,-378"/>
<text text-anchor="middle" x="551" y="-418.8" font-family="Helvetica,sans-Serif" font-weight="bold" font-size="9.00">auth</text>
</g>
<g id="clust24" class="cluster">
<title>cluster_src/app/shared/services/label</title>
<path fill="#ffffff" stroke="black" stroke-width="2" d="M513.5,-438C513.5,-438 588.5,-438 588.5,-438 594.5,-438 600.5,-444 600.5,-450 600.5,-450 600.5,-478 600.5,-478 600.5,-484 594.5,-490 588.5,-490 588.5,-490 513.5,-490 513.5,-490 507.5,-490 501.5,-484 501.5,-478 501.5,-478 501.5,-450 501.5,-450 501.5,-444 507.5,-438 513.5,-438"/>
<text text-anchor="middle" x="551" y="-478.8" font-family="Helvetica,sans-Serif" font-weight="bold" font-size="9.00">label</text>
</g>
<g id="clust25" class="cluster">
<title>cluster_src/app/shared/services/project&#45;member</title>
<path fill="#ffffff" stroke="black" stroke-width="2" d="M488,-498C488,-498 614,-498 614,-498 620,-498 626,-504 626,-510 626,-510 626,-538 626,-538 626,-544 620,-550 614,-550 614,-550 488,-550 488,-550 482,-550 476,-544 476,-538 476,-538 476,-510 476,-510 476,-504 482,-498 488,-498"/>
<text text-anchor="middle" x="551" y="-538.8" font-family="Helvetica,sans-Serif" font-weight="bold" font-size="9.00">project&#45;member</text>
</g>
<g id="clust26" class="cluster">
<title>cluster_src/app/shared/services/snackbar</title>
<path fill="#ffffff" stroke="black" stroke-width="2" d="M503.5,-558C503.5,-558 598.5,-558 598.5,-558 604.5,-558 610.5,-564 610.5,-570 610.5,-570 610.5,-598 610.5,-598 610.5,-604 604.5,-610 598.5,-610 598.5,-610 503.5,-610 503.5,-610 497.5,-610 491.5,-604 491.5,-598 491.5,-598 491.5,-570 491.5,-570 491.5,-564 497.5,-558 503.5,-558"/>
<text text-anchor="middle" x="551" y="-598.8" font-family="Helvetica,sans-Serif" font-weight="bold" font-size="9.00">snackbar</text>
</g>
<!-- src/app/common/badge/badge.component.ts -->
<g id="node1" class="node">
<title>src/app/common/badge/badge.component.ts</title>
<g id="a_node1"><a xlink:href="src/app/common/badge/badge.component.ts" xlink:title="badge.component.ts">
<path fill="#ddfeff" stroke="black" d="M600.5,-139C600.5,-139 501.5,-139 501.5,-139 498.5,-139 495.5,-136 495.5,-133 495.5,-133 495.5,-127 495.5,-127 495.5,-124 498.5,-121 501.5,-121 501.5,-121 600.5,-121 600.5,-121 603.5,-121 606.5,-124 606.5,-127 606.5,-127 606.5,-133 606.5,-133 606.5,-136 603.5,-139 600.5,-139"/>
<text text-anchor="start" x="503.5" y="-127.8" font-family="Helvetica,sans-Serif" font-size="9.00">badge.component.ts</text>
</a>
</g>
</g>
<!-- src/app/common/form/issue&#45;form/issue&#45;form.component.ts -->
<g id="node2" class="node">
<title>src/app/common/form/issue&#45;form/issue&#45;form.component.ts</title>
<g id="a_node2"><a xlink:href="src/app/common/form/issue-form/issue-form.component.ts" xlink:title="issue&#45;form.component.ts">
<path fill="#ddfeff" stroke="black" d="M413.5,-186C413.5,-186 296.5,-186 296.5,-186 293.5,-186 290.5,-183 290.5,-180 290.5,-180 290.5,-174 290.5,-174 290.5,-171 293.5,-168 296.5,-168 296.5,-168 413.5,-168 413.5,-168 416.5,-168 419.5,-171 419.5,-174 419.5,-174 419.5,-180 419.5,-180 419.5,-183 416.5,-186 413.5,-186"/>
<text text-anchor="start" x="298.5" y="-174.8" font-family="Helvetica,sans-Serif" font-size="9.00">issue&#45;form.component.ts</text>
</a>
</g>
</g>
<!-- src/app/common/form/issue&#45;form/issue&#45;form.component.ts&#45;&gt;src/app/common/badge/badge.component.ts -->
<g id="edge6" class="edge">
<title>src/app/common/form/issue&#45;form/issue&#45;form.component.ts&#45;&gt;src/app/common/badge/badge.component.ts</title>
<path fill="none" stroke="#000000" stroke-width="2" stroke-opacity="0.200000" d="M396.69,-167.91C413.79,-164.02 433.89,-159.39 452,-155 470.86,-150.43 491.7,-145.15 509.29,-140.62"/>
<polygon fill="#000000" fill-opacity="0.200000" stroke="#000000" stroke-width="2" stroke-opacity="0.200000" points="509.84,-142.65 515.13,-139.12 508.79,-138.58 509.84,-142.65"/>
</g>
<!-- src/app/shared/model/Issue.ts -->
<g id="node3" class="node">
<title>src/app/shared/model/Issue.ts</title>
<g id="a_node3"><a xlink:href="src/app/shared/model/Issue.ts" xlink:title="Issue.ts">
<path fill="#ddfeff" stroke="black" d="M572,-336C572,-336 530,-336 530,-336 527,-336 524,-333 524,-330 524,-330 524,-324 524,-324 524,-321 527,-318 530,-318 530,-318 572,-318 572,-318 575,-318 578,-321 578,-324 578,-324 578,-330 578,-330 578,-333 575,-336 572,-336"/>
<text text-anchor="start" x="533.5" y="-324.8" font-family="Helvetica,sans-Serif" font-size="9.00">Issue.ts</text>
</a>
</g>
</g>
<!-- src/app/common/form/issue&#45;form/issue&#45;form.component.ts&#45;&gt;src/app/shared/model/Issue.ts -->
<g id="edge1" class="edge">
<title>src/app/common/form/issue&#45;form/issue&#45;form.component.ts&#45;&gt;src/app/shared/model/Issue.ts</title>
<path fill="none" stroke="#000000" stroke-width="2" stroke-opacity="0.200000" d="M360.03,-186.12C371.55,-211.02 407.21,-280.37 460,-312 477.19,-322.3 499.36,-326.08 517.39,-327.27"/>
<polygon fill="#000000" fill-opacity="0.200000" stroke="#000000" stroke-width="2" stroke-opacity="0.200000" points="517.73,-329.39 523.83,-327.6 517.95,-325.2 517.73,-329.39"/>
</g>
<!-- src/app/shared/services/auth/auth.service.ts -->
<g id="node4" class="node">
<title>src/app/shared/services/auth/auth.service.ts</title>
<g id="a_node4"><a xlink:href="src/app/shared/services/auth/auth.service.ts" xlink:title="auth.service.ts">
<path fill="#ddfeff" stroke="black" d="M586.5,-404C586.5,-404 515.5,-404 515.5,-404 512.5,-404 509.5,-401 509.5,-398 509.5,-398 509.5,-392 509.5,-392 509.5,-389 512.5,-386 515.5,-386 515.5,-386 586.5,-386 586.5,-386 589.5,-386 592.5,-389 592.5,-392 592.5,-392 592.5,-398 592.5,-398 592.5,-401 589.5,-404 586.5,-404"/>
<text text-anchor="start" x="517.5" y="-392.8" font-family="Helvetica,sans-Serif" font-size="9.00">auth.service.ts</text>
</a>
</g>
</g>
<!-- src/app/common/form/issue&#45;form/issue&#45;form.component.ts&#45;&gt;src/app/shared/services/auth/auth.service.ts -->
<g id="edge2" class="edge">
<title>src/app/common/form/issue&#45;form/issue&#45;form.component.ts&#45;&gt;src/app/shared/services/auth/auth.service.ts</title>
<path fill="none" stroke="#000000" stroke-width="2" stroke-opacity="0.200000" d="M364.62,-186.23C383.81,-207.36 430.07,-261.6 452,-316 460.25,-336.47 445.69,-348.2 460,-365 470.94,-377.84 487.53,-385.21 503.5,-389.43"/>
<polygon fill="#000000" fill-opacity="0.200000" stroke="#000000" stroke-width="2" stroke-opacity="0.200000" points="503.02,-391.47 509.34,-390.85 504.01,-387.39 503.02,-391.47"/>
</g>
<!-- src/app/shared/services/label/label.service.ts -->
<g id="node5" class="node">
<title>src/app/shared/services/label/label.service.ts</title>
<g id="a_node5"><a xlink:href="src/app/shared/services/label/label.service.ts" xlink:title="label.service.ts">
<path fill="#ddfeff" stroke="black" d="M586.5,-464C586.5,-464 515.5,-464 515.5,-464 512.5,-464 509.5,-461 509.5,-458 509.5,-458 509.5,-452 509.5,-452 509.5,-449 512.5,-446 515.5,-446 515.5,-446 586.5,-446 586.5,-446 589.5,-446 592.5,-449 592.5,-452 592.5,-452 592.5,-458 592.5,-458 592.5,-461 589.5,-464 586.5,-464"/>
<text text-anchor="start" x="517.5" y="-452.8" font-family="Helvetica,sans-Serif" font-size="9.00">label.service.ts</text>
</a>
</g>
</g>
<!-- src/app/common/form/issue&#45;form/issue&#45;form.component.ts&#45;&gt;src/app/shared/services/label/label.service.ts -->
<g id="edge3" class="edge">
<title>src/app/common/form/issue&#45;form/issue&#45;form.component.ts&#45;&gt;src/app/shared/services/label/label.service.ts</title>
<path fill="none" stroke="#000000" stroke-width="2" stroke-opacity="0.200000" d="M364.99,-186.1C384.94,-206.94 432.64,-260.63 452,-316 460.6,-340.6 443.22,-413.06 460,-433 470.61,-445.6 487.13,-451.64 503.14,-454.35"/>
<polygon fill="#000000" fill-opacity="0.200000" stroke="#000000" stroke-width="2" stroke-opacity="0.200000" points="503.23,-456.49 509.47,-455.27 503.83,-452.33 503.23,-456.49"/>
</g>
<!-- src/app/shared/services/project&#45;member/project&#45;member.service.ts -->
<g id="node6" class="node">
<title>src/app/shared/services/project&#45;member/project&#45;member.service.ts</title>
<g id="a_node6"><a xlink:href="src/app/shared/services/project-member/project-member.service.ts" xlink:title="project&#45;member.service.ts">
<path fill="#ddfeff" stroke="black" d="M612,-524C612,-524 490,-524 490,-524 487,-524 484,-521 484,-518 484,-518 484,-512 484,-512 484,-509 487,-506 490,-506 490,-506 612,-506 612,-506 615,-506 618,-509 618,-512 618,-512 618,-518 618,-518 618,-521 615,-524 612,-524"/>
<text text-anchor="start" x="492" y="-512.8" font-family="Helvetica,sans-Serif" font-size="9.00">project&#45;member.service.ts</text>
</a>
</g>
</g>
<!-- src/app/common/form/issue&#45;form/issue&#45;form.component.ts&#45;&gt;src/app/shared/services/project&#45;member/project&#45;member.service.ts -->
<g id="edge4" class="edge">
<title>src/app/common/form/issue&#45;form/issue&#45;form.component.ts&#45;&gt;src/app/shared/services/project&#45;member/project&#45;member.service.ts</title>
<path fill="none" stroke="#000000" stroke-width="2" stroke-opacity="0.200000" d="M365.08,-186.06C385.22,-206.84 433.28,-260.41 452,-316 458.28,-334.66 447.5,-477.79 460,-493 464.87,-498.92 471.04,-503.4 477.87,-506.77"/>
<polygon fill="#000000" fill-opacity="0.200000" stroke="#000000" stroke-width="2" stroke-opacity="0.200000" points="477.4,-508.86 483.74,-509.34 479.09,-505.01 477.4,-508.86"/>
</g>
<!-- src/app/shared/services/snackbar/snackbar.service.ts -->
<g id="node7" class="node">
<title>src/app/shared/services/snackbar/snackbar.service.ts</title>
<g id="a_node7"><a xlink:href="src/app/shared/services/snackbar/snackbar.service.ts" xlink:title="snackbar.service.ts">
<path fill="#ddfeff" stroke="black" d="M596.5,-584C596.5,-584 505.5,-584 505.5,-584 502.5,-584 499.5,-581 499.5,-578 499.5,-578 499.5,-572 499.5,-572 499.5,-569 502.5,-566 505.5,-566 505.5,-566 596.5,-566 596.5,-566 599.5,-566 602.5,-569 602.5,-572 602.5,-572 602.5,-578 602.5,-578 602.5,-581 599.5,-584 596.5,-584"/>
<text text-anchor="start" x="507.5" y="-572.8" font-family="Helvetica,sans-Serif" font-size="9.00">snackbar.service.ts</text>
</a>
</g>
</g>
<!-- src/app/common/form/issue&#45;form/issue&#45;form.component.ts&#45;&gt;src/app/shared/services/snackbar/snackbar.service.ts -->
<g id="edge5" class="edge">
<title>src/app/common/form/issue&#45;form/issue&#45;form.component.ts&#45;&gt;src/app/shared/services/snackbar/snackbar.service.ts</title>
<path fill="none" stroke="#000000" stroke-width="2" stroke-opacity="0.200000" d="M365.13,-186.05C385.36,-206.79 433.6,-260.3 452,-316 460.27,-341.02 443.38,-532.55 460,-553 468.36,-563.28 480.66,-569.23 493.49,-572.56"/>
<polygon fill="#000000" fill-opacity="0.200000" stroke="#000000" stroke-width="2" stroke-opacity="0.200000" points="493.1,-574.62 499.42,-573.91 494.04,-570.53 493.1,-574.62"/>
</g>
<!-- src/app/common/text&#45;editor/text&#45;editor.component.ts -->
<g id="node8" class="node">
<title>src/app/common/text&#45;editor/text&#45;editor.component.ts</title>
<g id="a_node8"><a xlink:href="src/app/common/text-editor/text-editor.component.ts" xlink:title="text&#45;editor.component.ts">
<path fill="#ddfeff" stroke="black" d="M609.5,-199C609.5,-199 492.5,-199 492.5,-199 489.5,-199 486.5,-196 486.5,-193 486.5,-193 486.5,-187 486.5,-187 486.5,-184 489.5,-181 492.5,-181 492.5,-181 609.5,-181 609.5,-181 612.5,-181 615.5,-184 615.5,-187 615.5,-187 615.5,-193 615.5,-193 615.5,-196 612.5,-199 609.5,-199"/>
<text text-anchor="start" x="494.5" y="-187.8" font-family="Helvetica,sans-Serif" font-size="9.00">text&#45;editor.component.ts</text>
</a>
</g>
</g>
<!-- src/app/common/form/issue&#45;form/issue&#45;form.component.ts&#45;&gt;src/app/common/text&#45;editor/text&#45;editor.component.ts -->
<g id="edge7" class="edge">
<title>src/app/common/form/issue&#45;form/issue&#45;form.component.ts&#45;&gt;src/app/common/text&#45;editor/text&#45;editor.component.ts</title>
<path fill="none" stroke="#000000" stroke-width="2" stroke-opacity="0.200000" d="M419.52,-181.26C438.95,-182.56 460.42,-184 480.24,-185.33"/>
<polygon fill="#000000" fill-opacity="0.200000" stroke="#000000" stroke-width="2" stroke-opacity="0.200000" points="480.21,-187.43 486.33,-185.73 480.49,-183.24 480.21,-187.43"/>
</g>
<!-- src/app/common/form/organization&#45;form/organization&#45;form.component.ts -->
<g id="node9" class="node">
<title>src/app/common/form/organization&#45;form/organization&#45;form.component.ts</title>
<g id="a_node9"><a xlink:href="src/app/common/form/organization-form/organization-form.component.ts" xlink:title="organization&#45;form.component.ts">
<path fill="#ddfeff" stroke="black" d="M430,-126C430,-126 280,-126 280,-126 277,-126 274,-123 274,-120 274,-120 274,-114 274,-114 274,-111 277,-108 280,-108 280,-108 430,-108 430,-108 433,-108 436,-111 436,-114 436,-114 436,-120 436,-120 436,-123 433,-126 430,-126"/>
<text text-anchor="start" x="282" y="-114.8" font-family="Helvetica,sans-Serif" font-size="9.00">organization&#45;form.component.ts</text>
</a>
</g>
</g>
<!-- src/app/common/form/project&#45;form/project&#45;form.component.ts -->
<g id="node10" class="node">
<title>src/app/common/form/project&#45;form/project&#45;form.component.ts</title>
<g id="a_node10"><a xlink:href="src/app/common/form/project-form/project-form.component.ts" xlink:title="project&#45;form.component.ts">
<path fill="#ddfeff" stroke="black" d="M418,-66C418,-66 292,-66 292,-66 289,-66 286,-63 286,-60 286,-60 286,-54 286,-54 286,-51 289,-48 292,-48 292,-48 418,-48 418,-48 421,-48 424,-51 424,-54 424,-54 424,-60 424,-60 424,-63 421,-66 418,-66"/>
<text text-anchor="start" x="294" y="-54.8" font-family="Helvetica,sans-Serif" font-size="9.00">project&#45;form.component.ts</text>
</a>
</g>
</g>
<!-- src/app/common/form/project&#45;form/project&#45;form.component.ts&#45;&gt;src/app/shared/services/auth/auth.service.ts -->
<g id="edge9" class="edge">
<title>src/app/common/form/project&#45;form/project&#45;form.component.ts&#45;&gt;src/app/shared/services/auth/auth.service.ts</title>
<path fill="none" stroke="#000000" stroke-width="2" stroke-opacity="0.200000" d="M405.58,-66.03C423.17,-71.85 441.25,-81.38 452,-97 468.89,-121.54 442.22,-341.09 460,-365 470.24,-378.77 487.06,-386.3 503.4,-390.39"/>
<polygon fill="#000000" fill-opacity="0.200000" stroke="#000000" stroke-width="2" stroke-opacity="0.200000" points="503.07,-392.47 509.38,-391.75 504,-388.37 503.07,-392.47"/>
</g>
<!-- src/app/shared/model/Project.ts -->
<g id="node11" class="node">
<title>src/app/shared/model/Project.ts</title>
<g id="a_node11"><a xlink:href="src/app/shared/model/Project.ts" xlink:title="Project.ts">
<path fill="#ddfeff" stroke="black" d="M574.5,-306C574.5,-306 527.5,-306 527.5,-306 524.5,-306 521.5,-303 521.5,-300 521.5,-300 521.5,-294 521.5,-294 521.5,-291 524.5,-288 527.5,-288 527.5,-288 574.5,-288 574.5,-288 577.5,-288 580.5,-291 580.5,-294 580.5,-294 580.5,-300 580.5,-300 580.5,-303 577.5,-306 574.5,-306"/>
<text text-anchor="start" x="529.5" y="-294.8" font-family="Helvetica,sans-Serif" font-size="9.00">Project.ts</text>
</a>
</g>
</g>
<!-- src/app/common/form/project&#45;form/project&#45;form.component.ts&#45;&gt;src/app/shared/model/Project.ts -->
<g id="edge8" class="edge">
<title>src/app/common/form/project&#45;form/project&#45;form.component.ts&#45;&gt;src/app/shared/model/Project.ts</title>
<path fill="none" stroke="#000000" stroke-width="2" stroke-opacity="0.200000" d="M404.82,-66.04C422.54,-71.87 440.9,-81.41 452,-97 468.91,-120.76 446.3,-202.25 460,-228 474,-254.33 502.94,-273.66 524.24,-285.05"/>
<polygon fill="#000000" fill-opacity="0.200000" stroke="#000000" stroke-width="2" stroke-opacity="0.200000" points="523.46,-287.01 529.75,-287.91 525.4,-283.28 523.46,-287.01"/>
</g>
<!-- src/app/main/issues/edit&#45;issue/edit&#45;issue.component.ts -->
<g id="node12" class="node">
<title>src/app/main/issues/edit&#45;issue/edit&#45;issue.component.ts</title>
<g id="a_node12"><a xlink:href="src/app/main/issues/edit-issue/edit-issue.component.ts" xlink:title="edit&#45;issue.component.ts">
<path fill="#ddfeff" stroke="black" d="M189.5,-193C189.5,-193 76.5,-193 76.5,-193 73.5,-193 70.5,-190 70.5,-187 70.5,-187 70.5,-181 70.5,-181 70.5,-178 73.5,-175 76.5,-175 76.5,-175 189.5,-175 189.5,-175 192.5,-175 195.5,-178 195.5,-181 195.5,-181 195.5,-187 195.5,-187 195.5,-190 192.5,-193 189.5,-193"/>
<text text-anchor="start" x="78.5" y="-181.8" font-family="Helvetica,sans-Serif" font-size="9.00">edit&#45;issue.component.ts</text>
</a>
</g>
</g>
<!-- src/app/main/issues/edit&#45;issue/edit&#45;issue.component.ts&#45;&gt;src/app/common/form/issue&#45;form/issue&#45;form.component.ts -->
<g id="edge10" class="edge">
<title>src/app/main/issues/edit&#45;issue/edit&#45;issue.component.ts&#45;&gt;src/app/common/form/issue&#45;form/issue&#45;form.component.ts</title>
<path fill="none" stroke="#000000" stroke-width="2" stroke-opacity="0.200000" d="M195.57,-182.04C223.11,-181.16 255.7,-180.13 284.14,-179.22"/>
<polygon fill="#000000" fill-opacity="0.200000" stroke="#000000" stroke-width="2" stroke-opacity="0.200000" points="284.21,-181.32 290.14,-179.03 284.08,-177.12 284.21,-181.32"/>
</g>
<!-- src/app/main/issues/edit&#45;issue/edit&#45;issue.component.ts&#45;&gt;src/app/shared/services/snackbar/snackbar.service.ts -->
<g id="edge11" class="edge">
<title>src/app/main/issues/edit&#45;issue/edit&#45;issue.component.ts&#45;&gt;src/app/shared/services/snackbar/snackbar.service.ts</title>
<path fill="none" stroke="#000000" stroke-width="2" stroke-opacity="0.200000" d="M164.94,-193.03C238.16,-215.09 418.47,-273.69 452,-325 465.87,-346.22 444,-533.34 460,-553 468.36,-563.28 480.67,-569.22 493.5,-572.55"/>
<polygon fill="#000000" fill-opacity="0.200000" stroke="#000000" stroke-width="2" stroke-opacity="0.200000" points="493.11,-574.62 499.43,-573.9 494.05,-570.52 493.11,-574.62"/>
</g>
<!-- src/app/main/issues/new&#45;issue/new&#45;issue.component.ts -->
<g id="node13" class="node">
<title>src/app/main/issues/new&#45;issue/new&#45;issue.component.ts</title>
<g id="a_node13"><a xlink:href="src/app/main/issues/new-issue/new-issue.component.ts" xlink:title="new&#45;issue.component.ts">
<path fill="#ddfeff" stroke="black" d="M190.5,-253C190.5,-253 75.5,-253 75.5,-253 72.5,-253 69.5,-250 69.5,-247 69.5,-247 69.5,-241 69.5,-241 69.5,-238 72.5,-235 75.5,-235 75.5,-235 190.5,-235 190.5,-235 193.5,-235 196.5,-238 196.5,-241 196.5,-241 196.5,-247 196.5,-247 196.5,-250 193.5,-253 190.5,-253"/>
<text text-anchor="start" x="77.5" y="-241.8" font-family="Helvetica,sans-Serif" font-size="9.00">new&#45;issue.component.ts</text>
</a>
</g>
</g>
<!-- src/app/main/issues/new&#45;issue/new&#45;issue.component.ts&#45;&gt;src/app/common/form/issue&#45;form/issue&#45;form.component.ts -->
<g id="edge12" class="edge">
<title>src/app/main/issues/new&#45;issue/new&#45;issue.component.ts&#45;&gt;src/app/common/form/issue&#45;form/issue&#45;form.component.ts</title>
<path fill="none" stroke="#000000" stroke-width="2" stroke-opacity="0.200000" d="M188.04,-234.98C205.43,-231.55 224.68,-227.2 242,-222 272.59,-212.82 306.44,-198.63 328.84,-188.64"/>
<polygon fill="#000000" fill-opacity="0.200000" stroke="#000000" stroke-width="2" stroke-opacity="0.200000" points="329.95,-190.44 334.56,-186.07 328.23,-186.61 329.95,-190.44"/>
</g>
<!-- src/app/main/issues/new&#45;issue/new&#45;issue.component.ts&#45;&gt;src/app/shared/services/snackbar/snackbar.service.ts -->
<g id="edge13" class="edge">
<title>src/app/main/issues/new&#45;issue/new&#45;issue.component.ts&#45;&gt;src/app/shared/services/snackbar/snackbar.service.ts</title>
<path fill="none" stroke="#000000" stroke-width="2" stroke-opacity="0.200000" d="M147.77,-253.16C168.42,-266.96 208.57,-294.03 242,-318 245.61,-320.59 246.18,-321.72 250,-324 334.9,-374.6 396.27,-335.37 452,-417 469.07,-442 440.61,-529.75 460,-553 468.4,-563.07 480.57,-568.96 493.27,-572.31"/>
<polygon fill="#000000" fill-opacity="0.200000" stroke="#000000" stroke-width="2" stroke-opacity="0.200000" points="492.8,-574.36 499.12,-573.67 493.76,-570.27 492.8,-574.36"/>
</g>
<!-- src/app/main/organizations/create&#45;organization/create&#45;organization.component.ts -->
<g id="node14" class="node">
<title>src/app/main/organizations/create&#45;organization/create&#45;organization.component.ts</title>
<g id="a_node14"><a xlink:href="src/app/main/organizations/create-organization/create-organization.component.ts" xlink:title="create&#45;organization.component.ts">
<path fill="#ddfeff" stroke="black" d="M212,-347C212,-347 54,-347 54,-347 51,-347 48,-344 48,-341 48,-341 48,-335 48,-335 48,-332 51,-329 54,-329 54,-329 212,-329 212,-329 215,-329 218,-332 218,-335 218,-335 218,-341 218,-341 218,-344 215,-347 212,-347"/>
<text text-anchor="start" x="56" y="-335.8" font-family="Helvetica,sans-Serif" font-size="9.00">create&#45;organization.component.ts</text>
</a>
</g>
</g>
<!-- src/app/main/organizations/create&#45;organization/create&#45;organization.component.ts&#45;&gt;src/app/shared/services/snackbar/snackbar.service.ts -->
<g id="edge15" class="edge">
<title>src/app/main/organizations/create&#45;organization/create&#45;organization.component.ts&#45;&gt;src/app/shared/services/snackbar/snackbar.service.ts</title>
<path fill="none" stroke="#000000" stroke-width="2" stroke-opacity="0.200000" d="M189.2,-347.07C208.44,-352.89 228.55,-362.41 242,-378 253.27,-391.07 238.13,-403.47 250,-416 313.92,-483.45 391.93,-399.09 452,-470 463.98,-484.14 447.87,-538.99 460,-553 468.58,-562.91 480.82,-568.74 493.52,-572.09"/>
<polygon fill="#000000" fill-opacity="0.200000" stroke="#000000" stroke-width="2" stroke-opacity="0.200000" points="493.06,-574.13 499.38,-573.45 494.02,-570.04 493.06,-574.13"/>
</g>
<!-- src/app/main/organizations/create&#45;organization/create&#45;organization.component.ts&#45;&gt;src/app/common/form/organization&#45;form/organization&#45;form.component.ts -->
<g id="edge14" class="edge">
<title>src/app/main/organizations/create&#45;organization/create&#45;organization.component.ts&#45;&gt;src/app/common/form/organization&#45;form/organization&#45;form.component.ts</title>
<path fill="none" stroke="#000000" stroke-width="2" stroke-opacity="0.200000" d="M171.27,-328.92C195.71,-320.88 226.01,-306.5 242,-282 257.21,-258.69 233.52,-179.43 250,-157 260.25,-143.05 276.05,-133.96 292.26,-128.05"/>
<polygon fill="#000000" fill-opacity="0.200000" stroke="#000000" stroke-width="2" stroke-opacity="0.200000" points="293.24,-129.93 298.24,-126.01 291.89,-125.95 293.24,-129.93"/>
</g>
<!-- src/app/main/organizations/edit&#45;organization/edit&#45;organization.component.ts -->
<g id="node15" class="node">
<title>src/app/main/organizations/edit&#45;organization/edit&#45;organization.component.ts</title>
<g id="a_node15"><a xlink:href="src/app/main/organizations/edit-organization/edit-organization.component.ts" xlink:title="edit&#45;organization.component.ts">
<path fill="#ddfeff" stroke="black" d="M206.5,-407C206.5,-407 59.5,-407 59.5,-407 56.5,-407 53.5,-404 53.5,-401 53.5,-401 53.5,-395 53.5,-395 53.5,-392 56.5,-389 59.5,-389 59.5,-389 206.5,-389 206.5,-389 209.5,-389 212.5,-392 212.5,-395 212.5,-395 212.5,-401 212.5,-401 212.5,-404 209.5,-407 206.5,-407"/>
<text text-anchor="start" x="61.5" y="-395.8" font-family="Helvetica,sans-Serif" font-size="9.00">edit&#45;organization.component.ts</text>
</a>
</g>
</g>
<!-- src/app/main/organizations/edit&#45;organization/edit&#45;organization.component.ts&#45;&gt;src/app/shared/services/snackbar/snackbar.service.ts -->
<g id="edge17" class="edge">
<title>src/app/main/organizations/edit&#45;organization/edit&#45;organization.component.ts&#45;&gt;src/app/shared/services/snackbar/snackbar.service.ts</title>
<path fill="none" stroke="#000000" stroke-width="2" stroke-opacity="0.200000" d="M145.8,-407.13C166,-422.3 208.99,-452.64 250,-469 335.26,-503 387.65,-446.54 452,-512 465.02,-525.24 447.18,-539.57 460,-553 468.78,-562.2 480.72,-567.82 493.03,-571.19"/>
<polygon fill="#000000" fill-opacity="0.200000" stroke="#000000" stroke-width="2" stroke-opacity="0.200000" points="492.77,-573.28 499.09,-572.66 493.76,-569.2 492.77,-573.28"/>
</g>
<!-- src/app/main/organizations/edit&#45;organization/edit&#45;organization.component.ts&#45;&gt;src/app/common/form/organization&#45;form/organization&#45;form.component.ts -->
<g id="edge16" class="edge">
<title>src/app/main/organizations/edit&#45;organization/edit&#45;organization.component.ts&#45;&gt;src/app/common/form/organization&#45;form/organization&#45;form.component.ts</title>
<path fill="none" stroke="#000000" stroke-width="2" stroke-opacity="0.200000" d="M212.58,-394.93C223.87,-391.1 234.27,-385.12 242,-376 257.75,-357.43 235.85,-176.82 250,-157 259.96,-143.05 275.49,-133.96 291.53,-128.05"/>
<polygon fill="#000000" fill-opacity="0.200000" stroke="#000000" stroke-width="2" stroke-opacity="0.200000" points="292.47,-129.94 297.46,-126.01 291.1,-125.97 292.47,-129.94"/>
</g>
<!-- src/app/main/projects/edit&#45;project/edit&#45;project.component.ts -->
<g id="node16" class="node">
<title>src/app/main/projects/edit&#45;project/edit&#45;project.component.ts</title>
<g id="a_node16"><a xlink:href="src/app/main/projects/edit-project/edit-project.component.ts" xlink:title="edit&#45;project.component.ts">
<path fill="#ddfeff" stroke="black" d="M194,-501C194,-501 72,-501 72,-501 69,-501 66,-498 66,-495 66,-495 66,-489 66,-489 66,-486 69,-483 72,-483 72,-483 194,-483 194,-483 197,-483 200,-486 200,-489 200,-489 200,-495 200,-495 200,-498 197,-501 194,-501"/>
<text text-anchor="start" x="74" y="-489.8" font-family="Helvetica,sans-Serif" font-size="9.00">edit&#45;project.component.ts</text>
</a>
</g>
</g>
<!-- src/app/main/projects/edit&#45;project/edit&#45;project.component.ts&#45;&gt;src/app/shared/services/snackbar/snackbar.service.ts -->
<g id="edge19" class="edge">
<title>src/app/main/projects/edit&#45;project/edit&#45;project.component.ts&#45;&gt;src/app/shared/services/snackbar/snackbar.service.ts</title>
<path fill="none" stroke="#000000" stroke-width="2" stroke-opacity="0.200000" d="M180.1,-501.05C241.97,-513.21 355.3,-535.55 452,-555 467.63,-558.14 484.65,-561.6 500.06,-564.75"/>
<polygon fill="#000000" fill-opacity="0.200000" stroke="#000000" stroke-width="2" stroke-opacity="0.200000" points="499.81,-566.84 506.11,-565.99 500.65,-562.73 499.81,-566.84"/>
</g>
<!-- src/app/main/projects/edit&#45;project/edit&#45;project.component.ts&#45;&gt;src/app/common/form/project&#45;form/project&#45;form.component.ts -->
<g id="edge18" class="edge">
<title>src/app/main/projects/edit&#45;project/edit&#45;project.component.ts&#45;&gt;src/app/common/form/project&#45;form/project&#45;form.component.ts</title>
<path fill="none" stroke="#000000" stroke-width="2" stroke-opacity="0.200000" d="M172.11,-482.95C196.61,-474.96 226.62,-460.64 242,-436 261.95,-404.04 228.3,-127.8 250,-97 259.82,-83.05 275.21,-73.97 291.18,-68.05"/>
<polygon fill="#000000" fill-opacity="0.200000" stroke="#000000" stroke-width="2" stroke-opacity="0.200000" points="292.09,-69.96 297.07,-66.01 290.72,-65.99 292.09,-69.96"/>
</g>
<!-- src/app/main/projects/new&#45;project/new&#45;project.component.ts -->
<g id="node17" class="node">
<title>src/app/main/projects/new&#45;project/new&#45;project.component.ts</title>
<g id="a_node17"><a xlink:href="src/app/main/projects/new-project/new-project.component.ts" xlink:title="new&#45;project.component.ts">
<path fill="#ddfeff" stroke="black" d="M195,-561C195,-561 71,-561 71,-561 68,-561 65,-558 65,-555 65,-555 65,-549 65,-549 65,-546 68,-543 71,-543 71,-543 195,-543 195,-543 198,-543 201,-546 201,-549 201,-549 201,-555 201,-555 201,-558 198,-561 195,-561"/>
<text text-anchor="start" x="73" y="-549.8" font-family="Helvetica,sans-Serif" font-size="9.00">new&#45;project.component.ts</text>
</a>
</g>
</g>
<!-- src/app/main/projects/new&#45;project/new&#45;project.component.ts&#45;&gt;src/app/shared/services/snackbar/snackbar.service.ts -->
<g id="edge21" class="edge">
<title>src/app/main/projects/new&#45;project/new&#45;project.component.ts&#45;&gt;src/app/shared/services/snackbar/snackbar.service.ts</title>
<path fill="none" stroke="#000000" stroke-width="2" stroke-opacity="0.200000" d="M201.3,-555.72C282.38,-560.2 417.15,-567.66 493.22,-571.86"/>
<polygon fill="#000000" fill-opacity="0.200000" stroke="#000000" stroke-width="2" stroke-opacity="0.200000" points="493.39,-573.97 499.49,-572.21 493.62,-569.78 493.39,-573.97"/>
</g>
<!-- src/app/main/projects/new&#45;project/new&#45;project.component.ts&#45;&gt;src/app/common/form/project&#45;form/project&#45;form.component.ts -->
<g id="edge20" class="edge">
<title>src/app/main/projects/new&#45;project/new&#45;project.component.ts&#45;&gt;src/app/common/form/project&#45;form/project&#45;form.component.ts</title>
<path fill="none" stroke="#000000" stroke-width="2" stroke-opacity="0.200000" d="M201.1,-552.22C216.73,-548.89 231.78,-542.28 242,-530 257.39,-511.51 236.2,-116.71 250,-97 259.74,-83.1 275.01,-74.03 290.89,-68.11"/>
<polygon fill="#000000" fill-opacity="0.200000" stroke="#000000" stroke-width="2" stroke-opacity="0.200000" points="291.78,-70.02 296.76,-66.07 290.4,-66.06 291.78,-70.02"/>
</g>
</g>
</svg>
