<?xml version="1.0" encoding="UTF-8" standalone="no"?>
<!DOCTYPE svg PUBLIC "-//W3C//DTD SVG 1.1//EN"
 "http://www.w3.org/Graphics/SVG/1.1/DTD/svg11.dtd">
<!-- Generated by graphviz version 2.43.0 (0)
 -->
<!-- Title: dependency&#45;cruiser output Pages: 1 -->
<svg width="598pt" height="332pt"
 viewBox="0.00 0.00 598.00 332.00" xmlns="http://www.w3.org/2000/svg" xmlns:xlink="http://www.w3.org/1999/xlink">
<g id="graph0" class="graph" transform="scale(1 1) rotate(0) translate(4 328)">
<title>dependency&#45;cruiser output</title>
<polygon fill="white" stroke="transparent" points="-4,4 -4,-328 594,-328 594,4 -4,4"/>
<g id="clust1" class="cluster">
<title>cluster_src</title>
<path fill="#ffffff" stroke="black" stroke-width="2" d="M20,-8C20,-8 570,-8 570,-8 576,-8 582,-14 582,-20 582,-20 582,-304 582,-304 582,-310 576,-316 570,-316 570,-316 20,-316 20,-316 14,-316 8,-310 8,-304 8,-304 8,-20 8,-20 8,-14 14,-8 20,-8"/>
<text text-anchor="middle" x="295" y="-304.8" font-family="Helvetica,sans-Serif" font-weight="bold" font-size="9.00">src</text>
</g>
<g id="clust2" class="cluster">
<title>cluster_src/app</title>
<path fill="#ffffff" stroke="black" stroke-width="2" d="M28,-16C28,-16 562,-16 562,-16 568,-16 574,-22 574,-28 574,-28 574,-278 574,-278 574,-284 568,-290 562,-290 562,-290 28,-290 28,-290 22,-290 16,-284 16,-278 16,-278 16,-28 16,-28 16,-22 22,-16 28,-16"/>
<text text-anchor="middle" x="295" y="-278.8" font-family="Helvetica,sans-Serif" font-weight="bold" font-size="9.00">app</text>
</g>
<g id="clust3" class="cluster">
<title>cluster_src/app/common</title>
<path fill="#ffffff" stroke="black" stroke-width="2" d="M259,-54C259,-54 554,-54 554,-54 560,-54 566,-60 566,-66 566,-66 566,-188 566,-188 566,-194 560,-200 554,-200 554,-200 259,-200 259,-200 253,-200 247,-194 247,-188 247,-188 247,-66 247,-66 247,-60 253,-54 259,-54"/>
<text text-anchor="middle" x="406.5" y="-188.8" font-family="Helvetica,sans-Serif" font-weight="bold" font-size="9.00">common</text>
</g>
<g id="clust4" class="cluster">
<title>cluster_src/app/common/badge</title>
<path fill="#ffffff" stroke="black" stroke-width="2" d="M419.5,-62C419.5,-62 522.5,-62 522.5,-62 528.5,-62 534.5,-68 534.5,-74 534.5,-74 534.5,-102 534.5,-102 534.5,-108 528.5,-114 522.5,-114 522.5,-114 419.5,-114 419.5,-114 413.5,-114 407.5,-108 407.5,-102 407.5,-102 407.5,-74 407.5,-74 407.5,-68 413.5,-62 419.5,-62"/>
<text text-anchor="middle" x="471" y="-102.8" font-family="Helvetica,sans-Serif" font-weight="bold" font-size="9.00">badge</text>
</g>
<g id="clust5" class="cluster">
<title>cluster_src/app/common/mobile&#45;paginator</title>
<path fill="#ffffff" stroke="black" stroke-width="2" d="M396,-122C396,-122 546,-122 546,-122 552,-122 558,-128 558,-134 558,-134 558,-162 558,-162 558,-168 552,-174 546,-174 546,-174 396,-174 396,-174 390,-174 384,-168 384,-162 384,-162 384,-134 384,-134 384,-128 390,-122 396,-122"/>
<text text-anchor="middle" x="471" y="-162.8" font-family="Helvetica,sans-Serif" font-weight="bold" font-size="9.00">mobile&#45;paginator</text>
</g>
<g id="clust6" class="cluster">
<title>cluster_src/app/common/table</title>
<path fill="#ffffff" stroke="black" stroke-width="2" d="M267,-92C267,-92 364,-92 364,-92 370,-92 376,-98 376,-104 376,-104 376,-132 376,-132 376,-138 370,-144 364,-144 364,-144 267,-144 267,-144 261,-144 255,-138 255,-132 255,-132 255,-104 255,-104 255,-98 261,-92 267,-92"/>
<text text-anchor="middle" x="315.5" y="-132.8" font-family="Helvetica,sans-Serif" font-weight="bold" font-size="9.00">table</text>
</g>
<g id="clust7" class="cluster">
<title>cluster_src/app/main</title>
<path fill="#ffffff" stroke="black" stroke-width="2" d="M36,-24C36,-24 227,-24 227,-24 233,-24 239,-30 239,-36 239,-36 239,-252 239,-252 239,-258 233,-264 227,-264 227,-264 36,-264 36,-264 30,-264 24,-258 24,-252 24,-252 24,-36 24,-36 24,-30 30,-24 36,-24"/>
<text text-anchor="middle" x="131.5" y="-252.8" font-family="Helvetica,sans-Serif" font-weight="bold" font-size="9.00">main</text>
</g>
<g id="clust8" class="cluster">
<title>cluster_src/app/main/manage</title>
<path fill="#ffffff" stroke="black" stroke-width="2" d="M73.5,-152C73.5,-152 189.5,-152 189.5,-152 195.5,-152 201.5,-158 201.5,-164 201.5,-164 201.5,-226 201.5,-226 201.5,-232 195.5,-238 189.5,-238 189.5,-238 73.5,-238 73.5,-238 67.5,-238 61.5,-232 61.5,-226 61.5,-226 61.5,-164 61.5,-164 61.5,-158 67.5,-152 73.5,-152"/>
<text text-anchor="middle" x="131.5" y="-226.8" font-family="Helvetica,sans-Serif" font-weight="bold" font-size="9.00">manage</text>
</g>
<g id="clust9" class="cluster">
<title>cluster_src/app/main/manage/labels</title>
<path fill="#ffffff" stroke="black" stroke-width="2" d="M81.5,-160C81.5,-160 181.5,-160 181.5,-160 187.5,-160 193.5,-166 193.5,-172 193.5,-172 193.5,-200 193.5,-200 193.5,-206 187.5,-212 181.5,-212 181.5,-212 81.5,-212 81.5,-212 75.5,-212 69.5,-206 69.5,-200 69.5,-200 69.5,-172 69.5,-172 69.5,-166 75.5,-160 81.5,-160"/>
<text text-anchor="middle" x="131.5" y="-200.8" font-family="Helvetica,sans-Serif" font-weight="bold" font-size="9.00">labels</text>
</g>
<g id="clust10" class="cluster">
<title>cluster_src/app/main/organization&#45;invitation</title>
<path fill="#ffffff" stroke="black" stroke-width="2" d="M44,-92C44,-92 219,-92 219,-92 225,-92 231,-98 231,-104 231,-104 231,-132 231,-132 231,-138 225,-144 219,-144 219,-144 44,-144 44,-144 38,-144 32,-138 32,-132 32,-132 32,-104 32,-104 32,-98 38,-92 44,-92"/>
<text text-anchor="middle" x="131.5" y="-132.8" font-family="Helvetica,sans-Serif" font-weight="bold" font-size="9.00">organization&#45;invitation</text>
</g>
<g id="clust11" class="cluster">
<title>cluster_src/app/main/worktime</title>
<path fill="#ffffff" stroke="black" stroke-width="2" d="M73,-32C73,-32 190,-32 190,-32 196,-32 202,-38 202,-44 202,-44 202,-72 202,-72 202,-78 196,-84 190,-84 190,-84 73,-84 73,-84 67,-84 61,-78 61,-72 61,-72 61,-44 61,-44 61,-38 67,-32 73,-32"/>
<text text-anchor="middle" x="131.5" y="-72.8" font-family="Helvetica,sans-Serif" font-weight="bold" font-size="9.00">worktime</text>
</g>
<!-- src/app/common/badge/badge.component.ts -->
<g id="node1" class="node">
<title>src/app/common/badge/badge.component.ts</title>
<g id="a_node1"><a xlink:href="src/app/common/badge/badge.component.ts" xlink:title="badge.component.ts">
<path fill="#ddfeff" stroke="black" d="M520.5,-88C520.5,-88 421.5,-88 421.5,-88 418.5,-88 415.5,-85 415.5,-82 415.5,-82 415.5,-76 415.5,-76 415.5,-73 418.5,-70 421.5,-70 421.5,-70 520.5,-70 520.5,-70 523.5,-70 526.5,-73 526.5,-76 526.5,-76 526.5,-82 526.5,-82 526.5,-85 523.5,-88 520.5,-88"/>
<text text-anchor="start" x="423.5" y="-76.8" font-family="Helvetica,sans-Serif" font-size="9.00">badge.component.ts</text>
</a>
</g>
</g>
<!-- src/app/common/mobile&#45;paginator/mobile&#45;paginator.component.ts -->
<g id="node2" class="node">
<title>src/app/common/mobile&#45;paginator/mobile&#45;paginator.component.ts</title>
<g id="a_node2"><a xlink:href="src/app/common/mobile-paginator/mobile-paginator.component.ts" xlink:title="mobile&#45;paginator.component.ts">
<path fill="#ddfeff" stroke="black" d="M544,-148C544,-148 398,-148 398,-148 395,-148 392,-145 392,-142 392,-142 392,-136 392,-136 392,-133 395,-130 398,-130 398,-130 544,-130 544,-130 547,-130 550,-133 550,-136 550,-136 550,-142 550,-142 550,-145 547,-148 544,-148"/>
<text text-anchor="start" x="400" y="-136.8" font-family="Helvetica,sans-Serif" font-size="9.00">mobile&#45;paginator.component.ts</text>
</a>
</g>
</g>
<!-- src/app/common/table/table.component.ts -->
<g id="node3" class="node">
<title>src/app/common/table/table.component.ts</title>
<g id="a_node3"><a xlink:href="src/app/common/table/table.component.ts" xlink:title="table.component.ts">
<path fill="#ddfeff" stroke="black" d="M362,-118C362,-118 269,-118 269,-118 266,-118 263,-115 263,-112 263,-112 263,-106 263,-106 263,-103 266,-100 269,-100 269,-100 362,-100 362,-100 365,-100 368,-103 368,-106 368,-106 368,-112 368,-112 368,-115 365,-118 362,-118"/>
<text text-anchor="start" x="271" y="-106.8" font-family="Helvetica,sans-Serif" font-size="9.00">table.component.ts</text>
</a>
</g>
</g>
<!-- src/app/common/table/table.component.ts&#45;&gt;src/app/common/badge/badge.component.ts -->
<g id="edge1" class="edge">
<title>src/app/common/table/table.component.ts&#45;&gt;src/app/common/badge/badge.component.ts</title>
<path fill="none" stroke="#000000" stroke-width="2" stroke-opacity="0.200000" d="M362.56,-100C379.93,-96.6 399.82,-92.72 417.72,-89.22"/>
<polygon fill="#000000" fill-opacity="0.200000" stroke="#000000" stroke-width="2" stroke-opacity="0.200000" points="418.23,-91.26 423.71,-88.05 417.42,-87.14 418.23,-91.26"/>
</g>
<!-- src/app/common/table/table.component.ts&#45;&gt;src/app/common/mobile&#45;paginator/mobile&#45;paginator.component.ts -->
<g id="edge2" class="edge">
<title>src/app/common/table/table.component.ts&#45;&gt;src/app/common/mobile&#45;paginator/mobile&#45;paginator.component.ts</title>
<path fill="none" stroke="#000000" stroke-width="2" stroke-opacity="0.200000" d="M362.56,-118C379.93,-121.4 399.82,-125.28 417.72,-128.78"/>
<polygon fill="#000000" fill-opacity="0.200000" stroke="#000000" stroke-width="2" stroke-opacity="0.200000" points="417.42,-130.86 423.71,-129.95 418.23,-126.74 417.42,-130.86"/>
</g>
<!-- src/app/main/manage/labels/labels.component.ts -->
<g id="node4" class="node">
<title>src/app/main/manage/labels/labels.component.ts</title>
<g id="a_node4"><a xlink:href="src/app/main/manage/labels/labels.component.ts" xlink:title="labels.component.ts">
<path fill="#ddfeff" stroke="black" d="M179.5,-186C179.5,-186 83.5,-186 83.5,-186 80.5,-186 77.5,-183 77.5,-180 77.5,-180 77.5,-174 77.5,-174 77.5,-171 80.5,-168 83.5,-168 83.5,-168 179.5,-168 179.5,-168 182.5,-168 185.5,-171 185.5,-174 185.5,-174 185.5,-180 185.5,-180 185.5,-183 182.5,-186 179.5,-186"/>
<text text-anchor="start" x="85.5" y="-174.8" font-family="Helvetica,sans-Serif" font-size="9.00">labels.component.ts</text>
</a>
</g>
</g>
<!-- src/app/main/manage/labels/labels.component.ts&#45;&gt;src/app/common/table/table.component.ts -->
<g id="edge3" class="edge">
<title>src/app/main/manage/labels/labels.component.ts&#45;&gt;src/app/common/table/table.component.ts</title>
<path fill="none" stroke="#000000" stroke-width="2" stroke-opacity="0.200000" d="M171.28,-167.98C191.74,-162.75 217.06,-155.52 239,-147 257.84,-139.68 278.26,-129.24 293.11,-121.15"/>
<polygon fill="#000000" fill-opacity="0.200000" stroke="#000000" stroke-width="2" stroke-opacity="0.200000" points="294.46,-122.8 298.71,-118.07 292.44,-119.13 294.46,-122.8"/>
</g>
<!-- src/app/main/organization&#45;invitation/organization&#45;invitation.component.ts -->
<g id="node5" class="node">
<title>src/app/main/organization&#45;invitation/organization&#45;invitation.component.ts</title>
<g id="a_node5"><a xlink:href="src/app/main/organization-invitation/organization-invitation.component.ts" xlink:title="organization&#45;invitation.component.ts">
<path fill="#ddfeff" stroke="black" d="M217,-118C217,-118 46,-118 46,-118 43,-118 40,-115 40,-112 40,-112 40,-106 40,-106 40,-103 43,-100 46,-100 46,-100 217,-100 217,-100 220,-100 223,-103 223,-106 223,-106 223,-112 223,-112 223,-115 220,-118 217,-118"/>
<text text-anchor="start" x="48" y="-106.8" font-family="Helvetica,sans-Serif" font-size="9.00">organization&#45;invitation.component.ts</text>
</a>
</g>
</g>
<!-- src/app/main/organization&#45;invitation/organization&#45;invitation.component.ts&#45;&gt;src/app/common/table/table.component.ts -->
<g id="edge4" class="edge">
<title>src/app/main/organization&#45;invitation/organization&#45;invitation.component.ts&#45;&gt;src/app/common/table/table.component.ts</title>
<path fill="none" stroke="#000000" stroke-width="2" stroke-opacity="0.200000" d="M223.23,-109C234.55,-109 245.87,-109 256.49,-109"/>
<polygon fill="#000000" fill-opacity="0.200000" stroke="#000000" stroke-width="2" stroke-opacity="0.200000" points="256.66,-111.1 262.66,-109 256.66,-106.9 256.66,-111.1"/>
</g>
<!-- src/app/main/worktime/worktime.component.ts -->
<g id="node6" class="node">
<title>src/app/main/worktime/worktime.component.ts</title>
<g id="a_node6"><a xlink:href="src/app/main/worktime/worktime.component.ts" xlink:title="worktime.component.ts">
<path fill="#ddfeff" stroke="black" d="M188,-58C188,-58 75,-58 75,-58 72,-58 69,-55 69,-52 69,-52 69,-46 69,-46 69,-43 72,-40 75,-40 75,-40 188,-40 188,-40 191,-40 194,-43 194,-46 194,-46 194,-52 194,-52 194,-55 191,-58 188,-58"/>
<text text-anchor="start" x="77" y="-46.8" font-family="Helvetica,sans-Serif" font-size="9.00">worktime.component.ts</text>
</a>
</g>
</g>
<!-- src/app/main/worktime/worktime.component.ts&#45;&gt;src/app/common/table/table.component.ts -->
<g id="edge5" class="edge">
<title>src/app/main/worktime/worktime.component.ts&#45;&gt;src/app/common/table/table.component.ts</title>
<path fill="none" stroke="#000000" stroke-width="2" stroke-opacity="0.200000" d="M160.14,-58.11C192.67,-68.84 246.63,-86.63 281.37,-98.08"/>
<polygon fill="#000000" fill-opacity="0.200000" stroke="#000000" stroke-width="2" stroke-opacity="0.200000" points="280.84,-100.11 287.19,-100 282.15,-96.13 280.84,-100.11"/>
</g>
</g>
</svg>
