<?xml version="1.0" encoding="UTF-8" standalone="no"?>
<!DOCTYPE svg PUBLIC "-//W3C//DTD SVG 1.1//EN"
 "http://www.w3.org/Graphics/SVG/1.1/DTD/svg11.dtd">
<!-- Generated by graphviz version 2.43.0 (0)
 -->
<!-- Title: dependency&#45;cruiser output Pages: 1 -->
<svg width="516pt" height="452pt"
 viewBox="0.00 0.00 516.00 452.00" xmlns="http://www.w3.org/2000/svg" xmlns:xlink="http://www.w3.org/1999/xlink">
<g id="graph0" class="graph" transform="scale(1 1) rotate(0) translate(4 448)">
<title>dependency&#45;cruiser output</title>
<polygon fill="white" stroke="transparent" points="-4,4 -4,-448 512,-448 512,4 -4,4"/>
<g id="clust1" class="cluster">
<title>cluster_src</title>
<path fill="#ffffff" stroke="black" stroke-width="2" d="M20,-8C20,-8 488,-8 488,-8 494,-8 500,-14 500,-20 500,-20 500,-424 500,-424 500,-430 494,-436 488,-436 488,-436 20,-436 20,-436 14,-436 8,-430 8,-424 8,-424 8,-20 8,-20 8,-14 14,-8 20,-8"/>
<text text-anchor="middle" x="254" y="-424.8" font-family="Helvetica,sans-Serif" font-weight="bold" font-size="9.00">src</text>
</g>
<g id="clust2" class="cluster">
<title>cluster_src/app</title>
<path fill="#ffffff" stroke="black" stroke-width="2" d="M28,-16C28,-16 480,-16 480,-16 486,-16 492,-22 492,-28 492,-28 492,-398 492,-398 492,-404 486,-410 480,-410 480,-410 28,-410 28,-410 22,-410 16,-404 16,-398 16,-398 16,-28 16,-28 16,-22 22,-16 28,-16"/>
<text text-anchor="middle" x="254" y="-398.8" font-family="Helvetica,sans-Serif" font-weight="bold" font-size="9.00">app</text>
</g>
<g id="clust3" class="cluster">
<title>cluster_src/app/common</title>
<path fill="#ffffff" stroke="black" stroke-width="2" d="M219,-144C219,-144 355,-144 355,-144 361,-144 367,-150 367,-156 367,-156 367,-218 367,-218 367,-224 361,-230 355,-230 355,-230 219,-230 219,-230 213,-230 207,-224 207,-218 207,-218 207,-156 207,-156 207,-150 213,-144 219,-144"/>
<text text-anchor="middle" x="287" y="-218.8" font-family="Helvetica,sans-Serif" font-weight="bold" font-size="9.00">common</text>
</g>
<g id="clust4" class="cluster">
<title>cluster_src/app/common/speed&#45;dial</title>
<path fill="#ffffff" stroke="black" stroke-width="2" d="M227,-152C227,-152 347,-152 347,-152 353,-152 359,-158 359,-164 359,-164 359,-192 359,-192 359,-198 353,-204 347,-204 347,-204 227,-204 227,-204 221,-204 215,-198 215,-192 215,-192 215,-164 215,-164 215,-158 221,-152 227,-152"/>
<text text-anchor="middle" x="287" y="-192.8" font-family="Helvetica,sans-Serif" font-weight="bold" font-size="9.00">speed&#45;dial</text>
</g>
<g id="clust5" class="cluster">
<title>cluster_src/app/main</title>
<path fill="#ffffff" stroke="black" stroke-width="2" d="M36,-24C36,-24 187,-24 187,-24 193,-24 199,-30 199,-36 199,-36 199,-372 199,-372 199,-378 193,-384 187,-384 187,-384 36,-384 36,-384 30,-384 24,-378 24,-372 24,-372 24,-36 24,-36 24,-30 30,-24 36,-24"/>
<text text-anchor="middle" x="111.5" y="-372.8" font-family="Helvetica,sans-Serif" font-weight="bold" font-size="9.00">main</text>
</g>
<g id="clust6" class="cluster">
<title>cluster_src/app/main/issues</title>
<path fill="#ffffff" stroke="black" stroke-width="2" d="M60.5,-306C60.5,-306 162.5,-306 162.5,-306 168.5,-306 174.5,-312 174.5,-318 174.5,-318 174.5,-346 174.5,-346 174.5,-352 168.5,-358 162.5,-358 162.5,-358 60.5,-358 60.5,-358 54.5,-358 48.5,-352 48.5,-346 48.5,-346 48.5,-318 48.5,-318 48.5,-312 54.5,-306 60.5,-306"/>
<text text-anchor="middle" x="111.5" y="-346.8" font-family="Helvetica,sans-Serif" font-weight="bold" font-size="9.00">issues</text>
</g>
<g id="clust7" class="cluster">
<title>cluster_src/app/main/manage</title>
<path fill="#ffffff" stroke="black" stroke-width="2" d="M53.5,-212C53.5,-212 169.5,-212 169.5,-212 175.5,-212 181.5,-218 181.5,-224 181.5,-224 181.5,-286 181.5,-286 181.5,-292 175.5,-298 169.5,-298 169.5,-298 53.5,-298 53.5,-298 47.5,-298 41.5,-292 41.5,-286 41.5,-286 41.5,-224 41.5,-224 41.5,-218 47.5,-212 53.5,-212"/>
<text text-anchor="middle" x="111.5" y="-286.8" font-family="Helvetica,sans-Serif" font-weight="bold" font-size="9.00">manage</text>
</g>
<g id="clust8" class="cluster">
<title>cluster_src/app/main/manage/labels</title>
<path fill="#ffffff" stroke="black" stroke-width="2" d="M61.5,-220C61.5,-220 161.5,-220 161.5,-220 167.5,-220 173.5,-226 173.5,-232 173.5,-232 173.5,-260 173.5,-260 173.5,-266 167.5,-272 161.5,-272 161.5,-272 61.5,-272 61.5,-272 55.5,-272 49.5,-266 49.5,-260 49.5,-260 49.5,-232 49.5,-232 49.5,-226 55.5,-220 61.5,-220"/>
<text text-anchor="middle" x="111.5" y="-260.8" font-family="Helvetica,sans-Serif" font-weight="bold" font-size="9.00">labels</text>
</g>
<g id="clust9" class="cluster">
<title>cluster_src/app/main/organizations</title>
<path fill="#ffffff" stroke="black" stroke-width="2" d="M44,-152C44,-152 179,-152 179,-152 185,-152 191,-158 191,-164 191,-164 191,-192 191,-192 191,-198 185,-204 179,-204 179,-204 44,-204 44,-204 38,-204 32,-198 32,-192 32,-192 32,-164 32,-164 32,-158 38,-152 44,-152"/>
<text text-anchor="middle" x="111.5" y="-192.8" font-family="Helvetica,sans-Serif" font-weight="bold" font-size="9.00">organizations</text>
</g>
<g id="clust10" class="cluster">
<title>cluster_src/app/main/projects</title>
<path fill="#ffffff" stroke="black" stroke-width="2" d="M56,-92C56,-92 167,-92 167,-92 173,-92 179,-98 179,-104 179,-104 179,-132 179,-132 179,-138 173,-144 167,-144 167,-144 56,-144 56,-144 50,-144 44,-138 44,-132 44,-132 44,-104 44,-104 44,-98 50,-92 56,-92"/>
<text text-anchor="middle" x="111.5" y="-132.8" font-family="Helvetica,sans-Serif" font-weight="bold" font-size="9.00">projects</text>
</g>
<g id="clust11" class="cluster">
<title>cluster_src/app/main/worktime</title>
<path fill="#ffffff" stroke="black" stroke-width="2" d="M53,-32C53,-32 170,-32 170,-32 176,-32 182,-38 182,-44 182,-44 182,-72 182,-72 182,-78 176,-84 170,-84 170,-84 53,-84 53,-84 47,-84 41,-78 41,-72 41,-72 41,-44 41,-44 41,-38 47,-32 53,-32"/>
<text text-anchor="middle" x="111.5" y="-72.8" font-family="Helvetica,sans-Serif" font-weight="bold" font-size="9.00">worktime</text>
</g>
<g id="clust12" class="cluster">
<title>cluster_src/app/shared</title>
<path fill="#ffffff" stroke="black" stroke-width="2" d="M387,-144C387,-144 472,-144 472,-144 478,-144 484,-150 484,-156 484,-156 484,-218 484,-218 484,-224 478,-230 472,-230 472,-230 387,-230 387,-230 381,-230 375,-224 375,-218 375,-218 375,-156 375,-156 375,-150 381,-144 387,-144"/>
<text text-anchor="middle" x="429.5" y="-218.8" font-family="Helvetica,sans-Serif" font-weight="bold" font-size="9.00">shared</text>
</g>
<g id="clust13" class="cluster">
<title>cluster_src/app/shared/utils</title>
<path fill="#ffffff" stroke="black" stroke-width="2" d="M395,-152C395,-152 464,-152 464,-152 470,-152 476,-158 476,-164 476,-164 476,-192 476,-192 476,-198 470,-204 464,-204 464,-204 395,-204 395,-204 389,-204 383,-198 383,-192 383,-192 383,-164 383,-164 383,-158 389,-152 395,-152"/>
<text text-anchor="middle" x="429.5" y="-192.8" font-family="Helvetica,sans-Serif" font-weight="bold" font-size="9.00">utils</text>
</g>
<!-- src/app/common/speed&#45;dial/speed&#45;dial.component.ts -->
<g id="node1" class="node">
<title>src/app/common/speed&#45;dial/speed&#45;dial.component.ts</title>
<g id="a_node1"><a xlink:href="src/app/common/speed-dial/speed-dial.component.ts" xlink:title="speed&#45;dial.component.ts">
<path fill="#ddfeff" stroke="black" d="M345,-178C345,-178 229,-178 229,-178 226,-178 223,-175 223,-172 223,-172 223,-166 223,-166 223,-163 226,-160 229,-160 229,-160 345,-160 345,-160 348,-160 351,-163 351,-166 351,-166 351,-172 351,-172 351,-175 348,-178 345,-178"/>
<text text-anchor="start" x="231" y="-166.8" font-family="Helvetica,sans-Serif" font-size="9.00">speed&#45;dial.component.ts</text>
</a>
</g>
</g>
<!-- src/app/shared/utils/animations.ts -->
<g id="node2" class="node">
<title>src/app/shared/utils/animations.ts</title>
<g id="a_node2"><a xlink:href="src/app/shared/utils/animations.ts" xlink:title="animations.ts">
<path fill="#ddfeff" stroke="black" d="M462,-178C462,-178 397,-178 397,-178 394,-178 391,-175 391,-172 391,-172 391,-166 391,-166 391,-163 394,-160 397,-160 397,-160 462,-160 462,-160 465,-160 468,-163 468,-166 468,-166 468,-172 468,-172 468,-175 465,-178 462,-178"/>
<text text-anchor="start" x="399" y="-166.8" font-family="Helvetica,sans-Serif" font-size="9.00">animations.ts</text>
</a>
</g>
</g>
<!-- src/app/common/speed&#45;dial/speed&#45;dial.component.ts&#45;&gt;src/app/shared/utils/animations.ts -->
<g id="edge1" class="edge">
<title>src/app/common/speed&#45;dial/speed&#45;dial.component.ts&#45;&gt;src/app/shared/utils/animations.ts</title>
<path fill="none" stroke="#000000" stroke-width="2" stroke-opacity="0.200000" d="M351.26,-169C362.59,-169 374.16,-169 384.78,-169"/>
<polygon fill="#000000" fill-opacity="0.200000" stroke="#000000" stroke-width="2" stroke-opacity="0.200000" points="384.91,-171.1 390.91,-169 384.91,-166.9 384.91,-171.1"/>
</g>
<!-- src/app/main/issues/issues.component.ts -->
<g id="node3" class="node">
<title>src/app/main/issues/issues.component.ts</title>
<g id="a_node3"><a xlink:href="src/app/main/issues/issues.component.ts" xlink:title="issues.component.ts">
<path fill="#ddfeff" stroke="black" d="M160.5,-332C160.5,-332 62.5,-332 62.5,-332 59.5,-332 56.5,-329 56.5,-326 56.5,-326 56.5,-320 56.5,-320 56.5,-317 59.5,-314 62.5,-314 62.5,-314 160.5,-314 160.5,-314 163.5,-314 166.5,-317 166.5,-320 166.5,-320 166.5,-326 166.5,-326 166.5,-329 163.5,-332 160.5,-332"/>
<text text-anchor="start" x="64.5" y="-320.8" font-family="Helvetica,sans-Serif" font-size="9.00">issues.component.ts</text>
</a>
</g>
</g>
<!-- src/app/main/issues/issues.component.ts&#45;&gt;src/app/common/speed&#45;dial/speed&#45;dial.component.ts -->
<g id="edge2" class="edge">
<title>src/app/main/issues/issues.component.ts&#45;&gt;src/app/common/speed&#45;dial/speed&#45;dial.component.ts</title>
<path fill="none" stroke="#000000" stroke-width="2" stroke-opacity="0.200000" d="M133.8,-313.95C152.22,-305.51 178.95,-291.72 199,-275 232.37,-247.17 262.39,-205.14 276.86,-183.3"/>
<polygon fill="#000000" fill-opacity="0.200000" stroke="#000000" stroke-width="2" stroke-opacity="0.200000" points="278.67,-184.38 280.2,-178.21 275.16,-182.08 278.67,-184.38"/>
</g>
<!-- src/app/main/manage/labels/labels.component.ts -->
<g id="node4" class="node">
<title>src/app/main/manage/labels/labels.component.ts</title>
<g id="a_node4"><a xlink:href="src/app/main/manage/labels/labels.component.ts" xlink:title="labels.component.ts">
<path fill="#ddfeff" stroke="black" d="M159.5,-246C159.5,-246 63.5,-246 63.5,-246 60.5,-246 57.5,-243 57.5,-240 57.5,-240 57.5,-234 57.5,-234 57.5,-231 60.5,-228 63.5,-228 63.5,-228 159.5,-228 159.5,-228 162.5,-228 165.5,-231 165.5,-234 165.5,-234 165.5,-240 165.5,-240 165.5,-243 162.5,-246 159.5,-246"/>
<text text-anchor="start" x="65.5" y="-234.8" font-family="Helvetica,sans-Serif" font-size="9.00">labels.component.ts</text>
</a>
</g>
</g>
<!-- src/app/main/manage/labels/labels.component.ts&#45;&gt;src/app/common/speed&#45;dial/speed&#45;dial.component.ts -->
<g id="edge3" class="edge">
<title>src/app/main/manage/labels/labels.component.ts&#45;&gt;src/app/common/speed&#45;dial/speed&#45;dial.component.ts</title>
<path fill="none" stroke="#000000" stroke-width="2" stroke-opacity="0.200000" d="M140.36,-227.95C157.41,-222.26 179.61,-214.58 199,-207 220.1,-198.75 243.62,-188.4 260.89,-180.59"/>
<polygon fill="#000000" fill-opacity="0.200000" stroke="#000000" stroke-width="2" stroke-opacity="0.200000" points="261.89,-182.44 266.49,-178.04 260.16,-178.61 261.89,-182.44"/>
</g>
<!-- src/app/main/organizations/organizations.component.ts -->
<g id="node5" class="node">
<title>src/app/main/organizations/organizations.component.ts</title>
<g id="a_node5"><a xlink:href="src/app/main/organizations/organizations.component.ts" xlink:title="organizations.component.ts">
<path fill="#ddfeff" stroke="black" d="M177,-178C177,-178 46,-178 46,-178 43,-178 40,-175 40,-172 40,-172 40,-166 40,-166 40,-163 43,-160 46,-160 46,-160 177,-160 177,-160 180,-160 183,-163 183,-166 183,-166 183,-172 183,-172 183,-175 180,-178 177,-178"/>
<text text-anchor="start" x="48" y="-166.8" font-family="Helvetica,sans-Serif" font-size="9.00">organizations.component.ts</text>
</a>
</g>
</g>
<!-- src/app/main/organizations/organizations.component.ts&#45;&gt;src/app/common/speed&#45;dial/speed&#45;dial.component.ts -->
<g id="edge4" class="edge">
<title>src/app/main/organizations/organizations.component.ts&#45;&gt;src/app/common/speed&#45;dial/speed&#45;dial.component.ts</title>
<path fill="none" stroke="#000000" stroke-width="2" stroke-opacity="0.200000" d="M183.07,-169C194.15,-169 205.6,-169 216.65,-169"/>
<polygon fill="#000000" fill-opacity="0.200000" stroke="#000000" stroke-width="2" stroke-opacity="0.200000" points="216.75,-171.1 222.75,-169 216.75,-166.9 216.75,-171.1"/>
</g>
<!-- src/app/main/projects/projects.component.ts -->
<g id="node6" class="node">
<title>src/app/main/projects/projects.component.ts</title>
<g id="a_node6"><a xlink:href="src/app/main/projects/projects.component.ts" xlink:title="projects.component.ts">
<path fill="#ddfeff" stroke="black" d="M165,-118C165,-118 58,-118 58,-118 55,-118 52,-115 52,-112 52,-112 52,-106 52,-106 52,-103 55,-100 58,-100 58,-100 165,-100 165,-100 168,-100 171,-103 171,-106 171,-106 171,-112 171,-112 171,-115 168,-118 165,-118"/>
<text text-anchor="start" x="60" y="-106.8" font-family="Helvetica,sans-Serif" font-size="9.00">projects.component.ts</text>
</a>
</g>
</g>
<!-- src/app/main/projects/projects.component.ts&#45;&gt;src/app/common/speed&#45;dial/speed&#45;dial.component.ts -->
<g id="edge5" class="edge">
<title>src/app/main/projects/projects.component.ts&#45;&gt;src/app/common/speed&#45;dial/speed&#45;dial.component.ts</title>
<path fill="none" stroke="#000000" stroke-width="2" stroke-opacity="0.200000" d="M138.85,-118.11C169.73,-128.79 220.87,-146.48 254,-157.93"/>
<polygon fill="#000000" fill-opacity="0.200000" stroke="#000000" stroke-width="2" stroke-opacity="0.200000" points="253.61,-160.02 259.97,-160 254.99,-156.05 253.61,-160.02"/>
</g>
<!-- src/app/main/worktime/worktime.component.ts -->
<g id="node7" class="node">
<title>src/app/main/worktime/worktime.component.ts</title>
<g id="a_node7"><a xlink:href="src/app/main/worktime/worktime.component.ts" xlink:title="worktime.component.ts">
<path fill="#ddfeff" stroke="black" d="M168,-58C168,-58 55,-58 55,-58 52,-58 49,-55 49,-52 49,-52 49,-46 49,-46 49,-43 52,-40 55,-40 55,-40 168,-40 168,-40 171,-40 174,-43 174,-46 174,-46 174,-52 174,-52 174,-55 171,-58 168,-58"/>
<text text-anchor="start" x="57" y="-46.8" font-family="Helvetica,sans-Serif" font-size="9.00">worktime.component.ts</text>
</a>
</g>
</g>
<!-- src/app/main/worktime/worktime.component.ts&#45;&gt;src/app/common/speed&#45;dial/speed&#45;dial.component.ts -->
<g id="edge6" class="edge">
<title>src/app/main/worktime/worktime.component.ts&#45;&gt;src/app/common/speed&#45;dial/speed&#45;dial.component.ts</title>
<path fill="none" stroke="#000000" stroke-width="2" stroke-opacity="0.200000" d="M137.44,-58.13C155.32,-65.23 179.59,-76.05 199,-89 228.49,-108.67 257.8,-138.23 273.74,-155.37"/>
<polygon fill="#000000" fill-opacity="0.200000" stroke="#000000" stroke-width="2" stroke-opacity="0.200000" points="272.26,-156.86 277.87,-159.85 275.35,-154.02 272.26,-156.86"/>
</g>
</g>
</svg>
