<?xml version="1.0" encoding="UTF-8" standalone="no"?>
<!DOCTYPE svg PUBLIC "-//W3C//DTD SVG 1.1//EN"
 "http://www.w3.org/Graphics/SVG/1.1/DTD/svg11.dtd">
<!-- Generated by graphviz version 2.43.0 (0)
 -->
<!-- Title: dependency&#45;cruiser output Pages: 1 -->
<svg width="657pt" height="648pt"
 viewBox="0.00 0.00 657.00 648.00" xmlns="http://www.w3.org/2000/svg" xmlns:xlink="http://www.w3.org/1999/xlink">
<g id="graph0" class="graph" transform="scale(1 1) rotate(0) translate(4 644)">
<title>dependency&#45;cruiser output</title>
<polygon fill="white" stroke="transparent" points="-4,4 -4,-644 653,-644 653,4 -4,4"/>
<g id="clust1" class="cluster">
<title>cluster_src</title>
<path fill="#ffffff" stroke="black" stroke-width="2" d="M20,-8C20,-8 629,-8 629,-8 635,-8 641,-14 641,-20 641,-20 641,-620 641,-620 641,-626 635,-632 629,-632 629,-632 20,-632 20,-632 14,-632 8,-626 8,-620 8,-620 8,-20 8,-20 8,-14 14,-8 20,-8"/>
<text text-anchor="middle" x="324.5" y="-620.8" font-family="Helvetica,sans-Serif" font-weight="bold" font-size="9.00">src</text>
</g>
<g id="clust2" class="cluster">
<title>cluster_src/app</title>
<path fill="#ffffff" stroke="black" stroke-width="2" d="M28,-16C28,-16 621,-16 621,-16 627,-16 633,-22 633,-28 633,-28 633,-534 633,-534 633,-540 627,-546 621,-546 621,-546 28,-546 28,-546 22,-546 16,-540 16,-534 16,-534 16,-28 16,-28 16,-22 22,-16 28,-16"/>
<text text-anchor="middle" x="324.5" y="-534.8" font-family="Helvetica,sans-Serif" font-weight="bold" font-size="9.00">app</text>
</g>
<g id="clust3" class="cluster">
<title>cluster_src/app/auth</title>
<path fill="#ffffff" stroke="black" stroke-width="2" d="M95,-434C95,-434 207,-434 207,-434 213,-434 219,-440 219,-446 219,-446 219,-508 219,-508 219,-514 213,-520 207,-520 207,-520 95,-520 95,-520 89,-520 83,-514 83,-508 83,-508 83,-446 83,-446 83,-440 89,-434 95,-434"/>
<text text-anchor="middle" x="151" y="-508.8" font-family="Helvetica,sans-Serif" font-weight="bold" font-size="9.00">auth</text>
</g>
<g id="clust4" class="cluster">
<title>cluster_src/app/auth/login</title>
<path fill="#ffffff" stroke="black" stroke-width="2" d="M103,-442C103,-442 199,-442 199,-442 205,-442 211,-448 211,-454 211,-454 211,-482 211,-482 211,-488 205,-494 199,-494 199,-494 103,-494 103,-494 97,-494 91,-488 91,-482 91,-482 91,-454 91,-454 91,-448 97,-442 103,-442"/>
<text text-anchor="middle" x="151" y="-482.8" font-family="Helvetica,sans-Serif" font-weight="bold" font-size="9.00">login</text>
</g>
<g id="clust5" class="cluster">
<title>cluster_src/app/main</title>
<path fill="#ffffff" stroke="black" stroke-width="2" d="M36,-152C36,-152 266,-152 266,-152 272,-152 278,-158 278,-164 278,-164 278,-414 278,-414 278,-420 272,-426 266,-426 266,-426 36,-426 36,-426 30,-426 24,-420 24,-414 24,-414 24,-164 24,-164 24,-158 30,-152 36,-152"/>
<text text-anchor="middle" x="151" y="-414.8" font-family="Helvetica,sans-Serif" font-weight="bold" font-size="9.00">main</text>
</g>
<g id="clust6" class="cluster">
<title>cluster_src/app/main/organization&#45;invitation</title>
<path fill="#ffffff" stroke="black" stroke-width="2" d="M44,-288C44,-288 258,-288 258,-288 264,-288 270,-294 270,-300 270,-300 270,-388 270,-388 270,-394 264,-400 258,-400 258,-400 44,-400 44,-400 38,-400 32,-394 32,-388 32,-388 32,-300 32,-300 32,-294 38,-288 44,-288"/>
<text text-anchor="middle" x="151" y="-388.8" font-family="Helvetica,sans-Serif" font-weight="bold" font-size="9.00">organization&#45;invitation</text>
</g>
<g id="clust7" class="cluster">
<title>cluster_src/app/main/organization&#45;invitation/organization&#45;invitation&#45;item</title>
<path fill="#ffffff" stroke="black" stroke-width="2" d="M52,-322C52,-322 250,-322 250,-322 256,-322 262,-328 262,-334 262,-334 262,-362 262,-362 262,-368 256,-374 250,-374 250,-374 52,-374 52,-374 46,-374 40,-368 40,-362 40,-362 40,-334 40,-334 40,-328 46,-322 52,-322"/>
<text text-anchor="middle" x="151" y="-362.8" font-family="Helvetica,sans-Serif" font-weight="bold" font-size="9.00">organization&#45;invitation&#45;item</text>
</g>
<g id="clust8" class="cluster">
<title>cluster_src/app/main/organizations</title>
<path fill="#ffffff" stroke="black" stroke-width="2" d="M61.5,-160C61.5,-160 240.5,-160 240.5,-160 246.5,-160 252.5,-166 252.5,-172 252.5,-172 252.5,-268 252.5,-268 252.5,-274 246.5,-280 240.5,-280 240.5,-280 61.5,-280 61.5,-280 55.5,-280 49.5,-274 49.5,-268 49.5,-268 49.5,-172 49.5,-172 49.5,-166 55.5,-160 61.5,-160"/>
<text text-anchor="middle" x="151" y="-268.8" font-family="Helvetica,sans-Serif" font-weight="bold" font-size="9.00">organizations</text>
</g>
<g id="clust9" class="cluster">
<title>cluster_src/app/main/organizations/manage</title>
<path fill="#ffffff" stroke="black" stroke-width="2" d="M69.5,-168C69.5,-168 232.5,-168 232.5,-168 238.5,-168 244.5,-174 244.5,-180 244.5,-180 244.5,-242 244.5,-242 244.5,-248 238.5,-254 232.5,-254 232.5,-254 69.5,-254 69.5,-254 63.5,-254 57.5,-248 57.5,-242 57.5,-242 57.5,-180 57.5,-180 57.5,-174 63.5,-168 69.5,-168"/>
<text text-anchor="middle" x="151" y="-242.8" font-family="Helvetica,sans-Serif" font-weight="bold" font-size="9.00">manage</text>
</g>
<g id="clust10" class="cluster">
<title>cluster_src/app/main/organizations/manage/org&#45;invite&#45;dialog</title>
<path fill="#ffffff" stroke="black" stroke-width="2" d="M77.5,-176C77.5,-176 224.5,-176 224.5,-176 230.5,-176 236.5,-182 236.5,-188 236.5,-188 236.5,-216 236.5,-216 236.5,-222 230.5,-228 224.5,-228 224.5,-228 77.5,-228 77.5,-228 71.5,-228 65.5,-222 65.5,-216 65.5,-216 65.5,-188 65.5,-188 65.5,-182 71.5,-176 77.5,-176"/>
<text text-anchor="middle" x="151" y="-216.8" font-family="Helvetica,sans-Serif" font-weight="bold" font-size="9.00">org&#45;invite&#45;dialog</text>
</g>
<g id="clust11" class="cluster">
<title>cluster_src/app/shared</title>
<path fill="#ffffff" stroke="black" stroke-width="2" d="M89,-24C89,-24 613,-24 613,-24 619,-24 625,-30 625,-36 625,-36 625,-132 625,-132 625,-138 619,-144 613,-144 613,-144 89,-144 89,-144 83,-144 77,-138 77,-132 77,-132 77,-36 77,-36 77,-30 83,-24 89,-24"/>
<text text-anchor="middle" x="351" y="-132.8" font-family="Helvetica,sans-Serif" font-weight="bold" font-size="9.00">shared</text>
</g>
<g id="clust12" class="cluster">
<title>cluster_src/app/shared/guards</title>
<path fill="#ffffff" stroke="black" stroke-width="2" d="M97,-32C97,-32 205,-32 205,-32 211,-32 217,-38 217,-44 217,-44 217,-106 217,-106 217,-112 211,-118 205,-118 205,-118 97,-118 97,-118 91,-118 85,-112 85,-106 85,-106 85,-44 85,-44 85,-38 91,-32 97,-32"/>
<text text-anchor="middle" x="151" y="-106.8" font-family="Helvetica,sans-Serif" font-weight="bold" font-size="9.00">guards</text>
</g>
<g id="clust13" class="cluster">
<title>cluster_src/app/shared/guards/invitation</title>
<path fill="#ffffff" stroke="black" stroke-width="2" d="M105,-40C105,-40 197,-40 197,-40 203,-40 209,-46 209,-52 209,-52 209,-80 209,-80 209,-86 203,-92 197,-92 197,-92 105,-92 105,-92 99,-92 93,-86 93,-80 93,-80 93,-52 93,-52 93,-46 99,-40 105,-40"/>
<text text-anchor="middle" x="151" y="-80.8" font-family="Helvetica,sans-Serif" font-weight="bold" font-size="9.00">invitation</text>
</g>
<g id="clust14" class="cluster">
<title>cluster_src/app/shared/services</title>
<path fill="#ffffff" stroke="black" stroke-width="2" d="M298,-32C298,-32 469,-32 469,-32 475,-32 481,-38 481,-44 481,-44 481,-106 481,-106 481,-112 475,-118 469,-118 469,-118 298,-118 298,-118 292,-118 286,-112 286,-106 286,-106 286,-44 286,-44 286,-38 292,-32 298,-32"/>
<text text-anchor="middle" x="383.5" y="-106.8" font-family="Helvetica,sans-Serif" font-weight="bold" font-size="9.00">services</text>
</g>
<g id="clust15" class="cluster">
<title>cluster_src/app/shared/services/organization&#45;invitation</title>
<path fill="#ffffff" stroke="black" stroke-width="2" d="M306,-40C306,-40 461,-40 461,-40 467,-40 473,-46 473,-52 473,-52 473,-80 473,-80 473,-86 467,-92 461,-92 461,-92 306,-92 306,-92 300,-92 294,-86 294,-80 294,-80 294,-52 294,-52 294,-46 300,-40 306,-40"/>
<text text-anchor="middle" x="383.5" y="-80.8" font-family="Helvetica,sans-Serif" font-weight="bold" font-size="9.00">organization&#45;invitation</text>
</g>
<g id="clust16" class="cluster">
<title>cluster_src/app/shared/utils</title>
<path fill="#ffffff" stroke="black" stroke-width="2" d="M501,-32C501,-32 605,-32 605,-32 611,-32 617,-38 617,-44 617,-44 617,-106 617,-106 617,-112 611,-118 605,-118 605,-118 501,-118 501,-118 495,-118 489,-112 489,-106 489,-106 489,-44 489,-44 489,-38 495,-32 501,-32"/>
<text text-anchor="middle" x="553" y="-106.8" font-family="Helvetica,sans-Serif" font-weight="bold" font-size="9.00">utils</text>
</g>
<g id="clust17" class="cluster">
<title>cluster_src/app/shared/utils/paramsHandler</title>
<path fill="#ffffff" stroke="black" stroke-width="2" d="M509,-40C509,-40 597,-40 597,-40 603,-40 609,-46 609,-52 609,-52 609,-80 609,-80 609,-86 603,-92 597,-92 597,-92 509,-92 509,-92 503,-92 497,-86 497,-80 497,-80 497,-52 497,-52 497,-46 503,-40 509,-40"/>
<text text-anchor="middle" x="553" y="-80.8" font-family="Helvetica,sans-Serif" font-weight="bold" font-size="9.00">paramsHandler</text>
</g>
<g id="clust18" class="cluster">
<title>cluster_src/environments</title>
<path fill="#ffffff" stroke="black" stroke-width="2" d="M514,-554C514,-554 592,-554 592,-554 598,-554 604,-560 604,-566 604,-566 604,-594 604,-594 604,-600 598,-606 592,-606 592,-606 514,-606 514,-606 508,-606 502,-600 502,-594 502,-594 502,-566 502,-566 502,-560 508,-554 514,-554"/>
<text text-anchor="middle" x="553" y="-594.8" font-family="Helvetica,sans-Serif" font-weight="bold" font-size="9.00">environments</text>
</g>
<!-- src/app/auth/login/login.component.ts -->
<g id="node1" class="node">
<title>src/app/auth/login/login.component.ts</title>
<g id="a_node1"><a xlink:href="src/app/auth/login/login.component.ts" xlink:title="login.component.ts">
<path fill="#ddfeff" stroke="black" d="M197,-468C197,-468 105,-468 105,-468 102,-468 99,-465 99,-462 99,-462 99,-456 99,-456 99,-453 102,-450 105,-450 105,-450 197,-450 197,-450 200,-450 203,-453 203,-456 203,-456 203,-462 203,-462 203,-465 200,-468 197,-468"/>
<text text-anchor="start" x="107" y="-456.8" font-family="Helvetica,sans-Serif" font-size="9.00">login.component.ts</text>
</a>
</g>
</g>
<!-- src/app/shared/services/organization&#45;invitation/organization&#45;invitation.service.ts -->
<g id="node2" class="node">
<title>src/app/shared/services/organization&#45;invitation/organization&#45;invitation.service.ts</title>
<g id="a_node2"><a xlink:href="src/app/shared/services/organization-invitation/organization-invitation.service.ts" xlink:title="organization&#45;invitation.service.ts">
<path fill="#ddfeff" stroke="black" d="M459,-66C459,-66 308,-66 308,-66 305,-66 302,-63 302,-60 302,-60 302,-54 302,-54 302,-51 305,-48 308,-48 308,-48 459,-48 459,-48 462,-48 465,-51 465,-54 465,-54 465,-60 465,-60 465,-63 462,-66 459,-66"/>
<text text-anchor="start" x="310" y="-54.8" font-family="Helvetica,sans-Serif" font-size="9.00">organization&#45;invitation.service.ts</text>
</a>
</g>
</g>
<!-- src/app/auth/login/login.component.ts&#45;&gt;src/app/shared/services/organization&#45;invitation/organization&#45;invitation.service.ts -->
<g id="edge1" class="edge">
<title>src/app/auth/login/login.component.ts&#45;&gt;src/app/shared/services/organization&#45;invitation/organization&#45;invitation.service.ts</title>
<path fill="none" stroke="#000000" stroke-width="2" stroke-opacity="0.200000" d="M174.97,-449.81C203.18,-437.38 250.66,-412.61 278,-377 353.97,-278.05 375.9,-121.63 381.1,-72.37"/>
<polygon fill="#000000" fill-opacity="0.200000" stroke="#000000" stroke-width="2" stroke-opacity="0.200000" points="383.21,-72.33 381.72,-66.15 379.03,-71.91 383.21,-72.33"/>
</g>
<!-- src/environments/environment.ts -->
<g id="node7" class="node">
<title>src/environments/environment.ts</title>
<g id="a_node7"><a xlink:href="src/environments/environment.ts" xlink:title="environment.ts">
<path fill="#ddfeff" stroke="black" d="M590,-580C590,-580 516,-580 516,-580 513,-580 510,-577 510,-574 510,-574 510,-568 510,-568 510,-565 513,-562 516,-562 516,-562 590,-562 590,-562 593,-562 596,-565 596,-568 596,-568 596,-574 596,-574 596,-577 593,-580 590,-580"/>
<text text-anchor="start" x="518" y="-568.8" font-family="Helvetica,sans-Serif" font-size="9.00">environment.ts</text>
</a>
</g>
</g>
<!-- src/app/shared/services/organization&#45;invitation/organization&#45;invitation.service.ts&#45;&gt;src/environments/environment.ts -->
<g id="edge6" class="edge">
<title>src/app/shared/services/organization&#45;invitation/organization&#45;invitation.service.ts&#45;&gt;src/environments/environment.ts</title>
<path fill="none" stroke="#000000" stroke-width="2" stroke-opacity="0.200000" d="M387.55,-66.36C407.73,-128.3 522.02,-478.99 547.12,-556.03"/>
<polygon fill="#000000" fill-opacity="0.200000" stroke="#000000" stroke-width="2" stroke-opacity="0.200000" points="545.17,-556.82 549.02,-561.87 549.16,-555.52 545.17,-556.82"/>
</g>
<!-- src/app/shared/utils/paramsHandler/paramsHandler.ts -->
<g id="node8" class="node">
<title>src/app/shared/utils/paramsHandler/paramsHandler.ts</title>
<g id="a_node8"><a xlink:href="src/app/shared/utils/paramsHandler/paramsHandler.ts" xlink:title="paramsHandler.ts">
<path fill="#ddfeff" stroke="black" d="M595,-66C595,-66 511,-66 511,-66 508,-66 505,-63 505,-60 505,-60 505,-54 505,-54 505,-51 508,-48 511,-48 511,-48 595,-48 595,-48 598,-48 601,-51 601,-54 601,-54 601,-60 601,-60 601,-63 598,-66 595,-66"/>
<text text-anchor="start" x="513" y="-54.8" font-family="Helvetica,sans-Serif" font-size="9.00">paramsHandler.ts</text>
</a>
</g>
</g>
<!-- src/app/shared/services/organization&#45;invitation/organization&#45;invitation.service.ts&#45;&gt;src/app/shared/utils/paramsHandler/paramsHandler.ts -->
<g id="edge7" class="edge">
<title>src/app/shared/services/organization&#45;invitation/organization&#45;invitation.service.ts&#45;&gt;src/app/shared/utils/paramsHandler/paramsHandler.ts</title>
<path fill="none" stroke="#000000" stroke-width="2" stroke-opacity="0.200000" d="M465.31,-57C476.64,-57 488.04,-57 498.68,-57"/>
<polygon fill="#000000" fill-opacity="0.200000" stroke="#000000" stroke-width="2" stroke-opacity="0.200000" points="498.85,-59.1 504.85,-57 498.85,-54.9 498.85,-59.1"/>
</g>
<!-- src/app/main/organization&#45;invitation/organization&#45;invitation&#45;item/organization&#45;invitation&#45;item.component.ts -->
<g id="node3" class="node">
<title>src/app/main/organization&#45;invitation/organization&#45;invitation&#45;item/organization&#45;invitation&#45;item.component.ts</title>
<g id="a_node3"><a xlink:href="src/app/main/organization-invitation/organization-invitation-item/organization-invitation-item.component.ts" xlink:title="organization&#45;invitation&#45;item.component.ts">
<path fill="#ddfeff" stroke="black" d="M248,-348C248,-348 54,-348 54,-348 51,-348 48,-345 48,-342 48,-342 48,-336 48,-336 48,-333 51,-330 54,-330 54,-330 248,-330 248,-330 251,-330 254,-333 254,-336 254,-336 254,-342 254,-342 254,-345 251,-348 248,-348"/>
<text text-anchor="start" x="56" y="-336.8" font-family="Helvetica,sans-Serif" font-size="9.00">organization&#45;invitation&#45;item.component.ts</text>
</a>
</g>
</g>
<!-- src/app/main/organization&#45;invitation/organization&#45;invitation&#45;item/organization&#45;invitation&#45;item.component.ts&#45;&gt;src/app/shared/services/organization&#45;invitation/organization&#45;invitation.service.ts -->
<g id="edge2" class="edge">
<title>src/app/main/organization&#45;invitation/organization&#45;invitation&#45;item/organization&#45;invitation&#45;item.component.ts&#45;&gt;src/app/shared/services/organization&#45;invitation/organization&#45;invitation.service.ts</title>
<path fill="none" stroke="#000000" stroke-width="2" stroke-opacity="0.200000" d="M254.17,-338.46C262.73,-335.52 270.83,-331.47 278,-326 362.49,-261.57 378.71,-119.29 381.79,-72.35"/>
<polygon fill="#000000" fill-opacity="0.200000" stroke="#000000" stroke-width="2" stroke-opacity="0.200000" points="383.9,-72.25 382.15,-66.14 379.7,-72.01 383.9,-72.25"/>
</g>
<!-- src/app/main/organization&#45;invitation/organization&#45;invitation.component.ts -->
<g id="node4" class="node">
<title>src/app/main/organization&#45;invitation/organization&#45;invitation.component.ts</title>
<g id="a_node4"><a xlink:href="src/app/main/organization-invitation/organization-invitation.component.ts" xlink:title="organization&#45;invitation.component.ts">
<path fill="#ddfeff" stroke="black" d="M236.5,-314C236.5,-314 65.5,-314 65.5,-314 62.5,-314 59.5,-311 59.5,-308 59.5,-308 59.5,-302 59.5,-302 59.5,-299 62.5,-296 65.5,-296 65.5,-296 236.5,-296 236.5,-296 239.5,-296 242.5,-299 242.5,-302 242.5,-302 242.5,-308 242.5,-308 242.5,-311 239.5,-314 236.5,-314"/>
<text text-anchor="start" x="67.5" y="-302.8" font-family="Helvetica,sans-Serif" font-size="9.00">organization&#45;invitation.component.ts</text>
</a>
</g>
</g>
<!-- src/app/main/organization&#45;invitation/organization&#45;invitation.component.ts&#45;&gt;src/app/shared/services/organization&#45;invitation/organization&#45;invitation.service.ts -->
<g id="edge3" class="edge">
<title>src/app/main/organization&#45;invitation/organization&#45;invitation.component.ts&#45;&gt;src/app/shared/services/organization&#45;invitation/organization&#45;invitation.service.ts</title>
<path fill="none" stroke="#000000" stroke-width="2" stroke-opacity="0.200000" d="M174.73,-295.83C201.85,-284.02 247.36,-261.35 278,-231 327.53,-181.95 362.91,-104.81 376.43,-72.28"/>
<polygon fill="#000000" fill-opacity="0.200000" stroke="#000000" stroke-width="2" stroke-opacity="0.200000" points="378.52,-72.74 378.85,-66.39 374.63,-71.15 378.52,-72.74"/>
</g>
<!-- src/app/main/organizations/manage/org&#45;invite&#45;dialog/org&#45;invite&#45;dialog.component.ts -->
<g id="node5" class="node">
<title>src/app/main/organizations/manage/org&#45;invite&#45;dialog/org&#45;invite&#45;dialog.component.ts</title>
<g id="a_node5"><a xlink:href="src/app/main/organizations/manage/org-invite-dialog/org-invite-dialog.component.ts" xlink:title="org&#45;invite&#45;dialog.component.ts">
<path fill="#ddfeff" stroke="black" d="M222.5,-202C222.5,-202 79.5,-202 79.5,-202 76.5,-202 73.5,-199 73.5,-196 73.5,-196 73.5,-190 73.5,-190 73.5,-187 76.5,-184 79.5,-184 79.5,-184 222.5,-184 222.5,-184 225.5,-184 228.5,-187 228.5,-190 228.5,-190 228.5,-196 228.5,-196 228.5,-199 225.5,-202 222.5,-202"/>
<text text-anchor="start" x="81.5" y="-190.8" font-family="Helvetica,sans-Serif" font-size="9.00">org&#45;invite&#45;dialog.component.ts</text>
</a>
</g>
</g>
<!-- src/app/main/organizations/manage/org&#45;invite&#45;dialog/org&#45;invite&#45;dialog.component.ts&#45;&gt;src/app/shared/services/organization&#45;invitation/organization&#45;invitation.service.ts -->
<g id="edge4" class="edge">
<title>src/app/main/organizations/manage/org&#45;invite&#45;dialog/org&#45;invite&#45;dialog.component.ts&#45;&gt;src/app/shared/services/organization&#45;invitation/organization&#45;invitation.service.ts</title>
<path fill="none" stroke="#000000" stroke-width="2" stroke-opacity="0.200000" d="M167.48,-183.87C207.83,-160.06 316.25,-96.09 361.85,-69.19"/>
<polygon fill="#000000" fill-opacity="0.200000" stroke="#000000" stroke-width="2" stroke-opacity="0.200000" points="362.99,-70.95 367.09,-66.09 360.85,-67.34 362.99,-70.95"/>
</g>
<!-- src/app/shared/guards/invitation/invitation.guard.ts -->
<g id="node6" class="node">
<title>src/app/shared/guards/invitation/invitation.guard.ts</title>
<g id="a_node6"><a xlink:href="src/app/shared/guards/invitation/invitation.guard.ts" xlink:title="invitation.guard.ts">
<path fill="#ddfeff" stroke="black" d="M195,-66C195,-66 107,-66 107,-66 104,-66 101,-63 101,-60 101,-60 101,-54 101,-54 101,-51 104,-48 107,-48 107,-48 195,-48 195,-48 198,-48 201,-51 201,-54 201,-54 201,-60 201,-60 201,-63 198,-66 195,-66"/>
<text text-anchor="start" x="109" y="-54.8" font-family="Helvetica,sans-Serif" font-size="9.00">invitation.guard.ts</text>
</a>
</g>
</g>
<!-- src/app/shared/guards/invitation/invitation.guard.ts&#45;&gt;src/app/shared/services/organization&#45;invitation/organization&#45;invitation.service.ts -->
<g id="edge5" class="edge">
<title>src/app/shared/guards/invitation/invitation.guard.ts&#45;&gt;src/app/shared/services/organization&#45;invitation/organization&#45;invitation.service.ts</title>
<path fill="none" stroke="#000000" stroke-width="2" stroke-opacity="0.200000" d="M201.17,-57C228.56,-57 263.48,-57 295.34,-57"/>
<polygon fill="#000000" fill-opacity="0.200000" stroke="#000000" stroke-width="2" stroke-opacity="0.200000" points="295.67,-59.1 301.67,-57 295.67,-54.9 295.67,-59.1"/>
</g>
</g>
</svg>
