<?xml version="1.0" encoding="UTF-8" standalone="no"?>
<!DOCTYPE svg PUBLIC "-//W3C//DTD SVG 1.1//EN"
 "http://www.w3.org/Graphics/SVG/1.1/DTD/svg11.dtd">
<!-- Generated by graphviz version 2.43.0 (0)
 -->
<!-- Title: dependency&#45;cruiser output Pages: 1 -->
<svg width="582pt" height="238pt"
 viewBox="0.00 0.00 582.00 238.00" xmlns="http://www.w3.org/2000/svg" xmlns:xlink="http://www.w3.org/1999/xlink">
<g id="graph0" class="graph" transform="scale(1 1) rotate(0) translate(4 234)">
<title>dependency&#45;cruiser output</title>
<polygon fill="white" stroke="transparent" points="-4,4 -4,-234 578,-234 578,4 -4,4"/>
<g id="clust1" class="cluster">
<title>cluster_src</title>
<path fill="#ffffff" stroke="black" stroke-width="2" d="M20,-8C20,-8 554,-8 554,-8 560,-8 566,-14 566,-20 566,-20 566,-210 566,-210 566,-216 560,-222 554,-222 554,-222 20,-222 20,-222 14,-222 8,-216 8,-210 8,-210 8,-20 8,-20 8,-14 14,-8 20,-8"/>
<text text-anchor="middle" x="287" y="-210.8" font-family="Helvetica,sans-Serif" font-weight="bold" font-size="9.00">src</text>
</g>
<g id="clust2" class="cluster">
<title>cluster_src/app</title>
<path fill="#ffffff" stroke="black" stroke-width="2" d="M28,-16C28,-16 546,-16 546,-16 552,-16 558,-22 558,-28 558,-28 558,-184 558,-184 558,-190 552,-196 546,-196 546,-196 28,-196 28,-196 22,-196 16,-190 16,-184 16,-184 16,-28 16,-28 16,-22 22,-16 28,-16"/>
<text text-anchor="middle" x="287" y="-184.8" font-family="Helvetica,sans-Serif" font-weight="bold" font-size="9.00">app</text>
</g>
<g id="clust3" class="cluster">
<title>cluster_src/app/common</title>
<path fill="#ffffff" stroke="black" stroke-width="2" d="M241,-37C241,-37 538,-37 538,-37 544,-37 550,-43 550,-49 550,-49 550,-145 550,-145 550,-151 544,-157 538,-157 538,-157 241,-157 241,-157 235,-157 229,-151 229,-145 229,-145 229,-49 229,-49 229,-43 235,-37 241,-37"/>
<text text-anchor="middle" x="389.5" y="-145.8" font-family="Helvetica,sans-Serif" font-weight="bold" font-size="9.00">common</text>
</g>
<g id="clust4" class="cluster">
<title>cluster_src/app/common/date&#45;range</title>
<path fill="#ffffff" stroke="black" stroke-width="2" d="M249,-45C249,-45 530,-45 530,-45 536,-45 542,-51 542,-57 542,-57 542,-119 542,-119 542,-125 536,-131 530,-131 530,-131 249,-131 249,-131 243,-131 237,-125 237,-119 237,-119 237,-57 237,-57 237,-51 243,-45 249,-45"/>
<text text-anchor="middle" x="389.5" y="-119.8" font-family="Helvetica,sans-Serif" font-weight="bold" font-size="9.00">date&#45;range</text>
</g>
<g id="clust5" class="cluster">
<title>cluster_src/app/common/date&#45;range/week&#45;selection&#45;strategy</title>
<path fill="#ffffff" stroke="black" stroke-width="2" d="M397,-53C397,-53 522,-53 522,-53 528,-53 534,-59 534,-65 534,-65 534,-93 534,-93 534,-99 528,-105 522,-105 522,-105 397,-105 397,-105 391,-105 385,-99 385,-93 385,-93 385,-65 385,-65 385,-59 391,-53 397,-53"/>
<text text-anchor="middle" x="459.5" y="-93.8" font-family="Helvetica,sans-Serif" font-weight="bold" font-size="9.00">week&#45;selection&#45;strategy</text>
</g>
<g id="clust6" class="cluster">
<title>cluster_src/app/main</title>
<path fill="#ffffff" stroke="black" stroke-width="2" d="M36,-24C36,-24 209,-24 209,-24 215,-24 221,-30 221,-36 221,-36 221,-158 221,-158 221,-164 215,-170 209,-170 209,-170 36,-170 36,-170 30,-170 24,-164 24,-158 24,-158 24,-36 24,-36 24,-30 30,-24 36,-24"/>
<text text-anchor="middle" x="122.5" y="-158.8" font-family="Helvetica,sans-Serif" font-weight="bold" font-size="9.00">main</text>
</g>
<g id="clust7" class="cluster">
<title>cluster_src/app/main/worktime</title>
<path fill="#ffffff" stroke="black" stroke-width="2" d="M44,-32C44,-32 201,-32 201,-32 207,-32 213,-38 213,-44 213,-44 213,-132 213,-132 213,-138 207,-144 201,-144 201,-144 44,-144 44,-144 38,-144 32,-138 32,-132 32,-132 32,-44 32,-44 32,-38 38,-32 44,-32"/>
<text text-anchor="middle" x="122.5" y="-132.8" font-family="Helvetica,sans-Serif" font-weight="bold" font-size="9.00">worktime</text>
</g>
<g id="clust8" class="cluster">
<title>cluster_src/app/main/worktime/worktime&#45;stats</title>
<path fill="#ffffff" stroke="black" stroke-width="2" d="M52,-66C52,-66 193,-66 193,-66 199,-66 205,-72 205,-78 205,-78 205,-106 205,-106 205,-112 199,-118 193,-118 193,-118 52,-118 52,-118 46,-118 40,-112 40,-106 40,-106 40,-78 40,-78 40,-72 46,-66 52,-66"/>
<text text-anchor="middle" x="122.5" y="-106.8" font-family="Helvetica,sans-Serif" font-weight="bold" font-size="9.00">worktime&#45;stats</text>
</g>
<!-- src/app/common/date&#45;range/date&#45;range.component.ts -->
<g id="node1" class="node">
<title>src/app/common/date&#45;range/date&#45;range.component.ts</title>
<g id="a_node1"><a xlink:href="src/app/common/date-range/date-range.component.ts" xlink:title="date&#45;range.component.ts">
<path fill="#ddfeff" stroke="black" d="M371,-79C371,-79 251,-79 251,-79 248,-79 245,-76 245,-73 245,-73 245,-67 245,-67 245,-64 248,-61 251,-61 251,-61 371,-61 371,-61 374,-61 377,-64 377,-67 377,-67 377,-73 377,-73 377,-76 374,-79 371,-79"/>
<text text-anchor="start" x="253" y="-67.8" font-family="Helvetica,sans-Serif" font-size="9.00">date&#45;range.component.ts</text>
</a>
</g>
</g>
<!-- src/app/common/date&#45;range/week&#45;selection&#45;strategy/week&#45;selection&#45;strategy.ts -->
<g id="node2" class="node">
<title>src/app/common/date&#45;range/week&#45;selection&#45;strategy/week&#45;selection&#45;strategy.ts</title>
<g id="a_node2"><a xlink:href="src/app/common/date-range/week-selection-strategy/week-selection-strategy.ts" xlink:title="week&#45;selection&#45;strategy.ts">
<path fill="#ddfeff" stroke="black" d="M520,-79C520,-79 399,-79 399,-79 396,-79 393,-76 393,-73 393,-73 393,-67 393,-67 393,-64 396,-61 399,-61 399,-61 520,-61 520,-61 523,-61 526,-64 526,-67 526,-67 526,-73 526,-73 526,-76 523,-79 520,-79"/>
<text text-anchor="start" x="401" y="-67.8" font-family="Helvetica,sans-Serif" font-size="9.00">week&#45;selection&#45;strategy.ts</text>
</a>
</g>
</g>
<!-- src/app/common/date&#45;range/date&#45;range.component.ts&#45;&gt;src/app/common/date&#45;range/week&#45;selection&#45;strategy/week&#45;selection&#45;strategy.ts -->
<g id="edge1" class="edge">
<title>src/app/common/date&#45;range/date&#45;range.component.ts&#45;&gt;src/app/common/date&#45;range/week&#45;selection&#45;strategy/week&#45;selection&#45;strategy.ts</title>
<path fill="none" stroke="#000000" stroke-width="2" stroke-opacity="0.200000" d="M377.11,-70C380.2,-70 383.3,-70 386.4,-70"/>
<polygon fill="#000000" fill-opacity="0.200000" stroke="#000000" stroke-width="2" stroke-opacity="0.200000" points="386.76,-72.1 392.76,-70 386.76,-67.9 386.76,-72.1"/>
</g>
<!-- src/app/main/worktime/worktime&#45;stats/worktime&#45;stats.component.ts -->
<g id="node3" class="node">
<title>src/app/main/worktime/worktime&#45;stats/worktime&#45;stats.component.ts</title>
<g id="a_node3"><a xlink:href="src/app/main/worktime/worktime-stats/worktime-stats.component.ts" xlink:title="worktime&#45;stats.component.ts">
<path fill="#ddfeff" stroke="black" d="M191,-92C191,-92 54,-92 54,-92 51,-92 48,-89 48,-86 48,-86 48,-80 48,-80 48,-77 51,-74 54,-74 54,-74 191,-74 191,-74 194,-74 197,-77 197,-80 197,-80 197,-86 197,-86 197,-89 194,-92 191,-92"/>
<text text-anchor="start" x="56" y="-80.8" font-family="Helvetica,sans-Serif" font-size="9.00">worktime&#45;stats.component.ts</text>
</a>
</g>
</g>
<!-- src/app/main/worktime/worktime&#45;stats/worktime&#45;stats.component.ts&#45;&gt;src/app/common/date&#45;range/date&#45;range.component.ts -->
<g id="edge2" class="edge">
<title>src/app/main/worktime/worktime&#45;stats/worktime&#45;stats.component.ts&#45;&gt;src/app/common/date&#45;range/date&#45;range.component.ts</title>
<path fill="none" stroke="#000000" stroke-width="2" stroke-opacity="0.200000" d="M197.21,-77.86C210.9,-76.91 225.17,-75.91 238.78,-74.96"/>
<polygon fill="#000000" fill-opacity="0.200000" stroke="#000000" stroke-width="2" stroke-opacity="0.200000" points="239.14,-77.04 244.98,-74.53 238.85,-72.85 239.14,-77.04"/>
</g>
<!-- src/app/main/worktime/worktime.component.ts -->
<g id="node4" class="node">
<title>src/app/main/worktime/worktime.component.ts</title>
<g id="a_node4"><a xlink:href="src/app/main/worktime/worktime.component.ts" xlink:title="worktime.component.ts">
<path fill="#ddfeff" stroke="black" d="M179,-58C179,-58 66,-58 66,-58 63,-58 60,-55 60,-52 60,-52 60,-46 60,-46 60,-43 63,-40 66,-40 66,-40 179,-40 179,-40 182,-40 185,-43 185,-46 185,-46 185,-52 185,-52 185,-55 182,-58 179,-58"/>
<text text-anchor="start" x="68" y="-46.8" font-family="Helvetica,sans-Serif" font-size="9.00">worktime.component.ts</text>
</a>
</g>
</g>
<!-- src/app/main/worktime/worktime.component.ts&#45;&gt;src/app/common/date&#45;range/date&#45;range.component.ts -->
<g id="edge3" class="edge">
<title>src/app/main/worktime/worktime.component.ts&#45;&gt;src/app/common/date&#45;range/date&#45;range.component.ts</title>
<path fill="none" stroke="#000000" stroke-width="2" stroke-opacity="0.200000" d="M185.08,-55.93C202.34,-57.88 221.23,-60 238.99,-62"/>
<polygon fill="#000000" fill-opacity="0.200000" stroke="#000000" stroke-width="2" stroke-opacity="0.200000" points="238.76,-64.09 244.96,-62.68 239.23,-59.92 238.76,-64.09"/>
</g>
</g>
</svg>
