<?xml version="1.0" encoding="UTF-8" standalone="no"?>
<!DOCTYPE svg PUBLIC "-//W3C//DTD SVG 1.1//EN"
 "http://www.w3.org/Graphics/SVG/1.1/DTD/svg11.dtd">
<!-- Generated by graphviz version 2.43.0 (0)
 -->
<!-- Title: dependency&#45;cruiser output Pages: 1 -->
<svg width="460pt" height="238pt"
 viewBox="0.00 0.00 460.00 238.00" xmlns="http://www.w3.org/2000/svg" xmlns:xlink="http://www.w3.org/1999/xlink">
<g id="graph0" class="graph" transform="scale(1 1) rotate(0) translate(4 234)">
<title>dependency&#45;cruiser output</title>
<polygon fill="white" stroke="transparent" points="-4,4 -4,-234 456,-234 456,4 -4,4"/>
<g id="clust1" class="cluster">
<title>cluster_src</title>
<path fill="#ffffff" stroke="black" stroke-width="2" d="M20,-8C20,-8 432,-8 432,-8 438,-8 444,-14 444,-20 444,-20 444,-210 444,-210 444,-216 438,-222 432,-222 432,-222 20,-222 20,-222 14,-222 8,-216 8,-210 8,-210 8,-20 8,-20 8,-14 14,-8 20,-8"/>
<text text-anchor="middle" x="226" y="-210.8" font-family="Helvetica,sans-Serif" font-weight="bold" font-size="9.00">src</text>
</g>
<g id="clust2" class="cluster">
<title>cluster_src/app</title>
<path fill="#ffffff" stroke="black" stroke-width="2" d="M28,-16C28,-16 424,-16 424,-16 430,-16 436,-22 436,-28 436,-28 436,-184 436,-184 436,-190 430,-196 424,-196 424,-196 28,-196 28,-196 22,-196 16,-190 16,-184 16,-184 16,-28 16,-28 16,-22 22,-16 28,-16"/>
<text text-anchor="middle" x="226" y="-184.8" font-family="Helvetica,sans-Serif" font-weight="bold" font-size="9.00">app</text>
</g>
<g id="clust3" class="cluster">
<title>cluster_src/app/common</title>
<path fill="#ffffff" stroke="black" stroke-width="2" d="M295,-24C295,-24 416,-24 416,-24 422,-24 428,-30 428,-36 428,-36 428,-158 428,-158 428,-164 422,-170 416,-170 416,-170 295,-170 295,-170 289,-170 283,-164 283,-158 283,-158 283,-36 283,-36 283,-30 289,-24 295,-24"/>
<text text-anchor="middle" x="355.5" y="-158.8" font-family="Helvetica,sans-Serif" font-weight="bold" font-size="9.00">common</text>
</g>
<g id="clust4" class="cluster">
<title>cluster_src/app/common/footer</title>
<path fill="#ffffff" stroke="black" stroke-width="2" d="M305.5,-92C305.5,-92 405.5,-92 405.5,-92 411.5,-92 417.5,-98 417.5,-104 417.5,-104 417.5,-132 417.5,-132 417.5,-138 411.5,-144 405.5,-144 405.5,-144 305.5,-144 305.5,-144 299.5,-144 293.5,-138 293.5,-132 293.5,-132 293.5,-104 293.5,-104 293.5,-98 299.5,-92 305.5,-92"/>
<text text-anchor="middle" x="355.5" y="-132.8" font-family="Helvetica,sans-Serif" font-weight="bold" font-size="9.00">footer</text>
</g>
<g id="clust5" class="cluster">
<title>cluster_src/app/common/navbar</title>
<path fill="#ffffff" stroke="black" stroke-width="2" d="M303,-32C303,-32 408,-32 408,-32 414,-32 420,-38 420,-44 420,-44 420,-72 420,-72 420,-78 414,-84 408,-84 408,-84 303,-84 303,-84 297,-84 291,-78 291,-72 291,-72 291,-44 291,-44 291,-38 297,-32 303,-32"/>
<text text-anchor="middle" x="355.5" y="-72.8" font-family="Helvetica,sans-Serif" font-weight="bold" font-size="9.00">navbar</text>
</g>
<g id="clust6" class="cluster">
<title>cluster_src/app/layouts</title>
<path fill="#ffffff" stroke="black" stroke-width="2" d="M121,-54C121,-54 263,-54 263,-54 269,-54 275,-60 275,-66 275,-66 275,-128 275,-128 275,-134 269,-140 263,-140 263,-140 121,-140 121,-140 115,-140 109,-134 109,-128 109,-128 109,-66 109,-66 109,-60 115,-54 121,-54"/>
<text text-anchor="middle" x="192" y="-128.8" font-family="Helvetica,sans-Serif" font-weight="bold" font-size="9.00">layouts</text>
</g>
<g id="clust7" class="cluster">
<title>cluster_src/app/layouts/base&#45;layout</title>
<path fill="#ffffff" stroke="black" stroke-width="2" d="M129,-62C129,-62 255,-62 255,-62 261,-62 267,-68 267,-74 267,-74 267,-102 267,-102 267,-108 261,-114 255,-114 255,-114 129,-114 129,-114 123,-114 117,-108 117,-102 117,-102 117,-74 117,-74 117,-68 123,-62 129,-62"/>
<text text-anchor="middle" x="192" y="-102.8" font-family="Helvetica,sans-Serif" font-weight="bold" font-size="9.00">base&#45;layout</text>
</g>
<!-- src/app/app.routes.ts -->
<g id="node1" class="node">
<title>src/app/app.routes.ts</title>
<g id="a_node1"><a xlink:href="src/app/app.routes.ts" xlink:title="app.routes.ts">
<path fill="#ddfeff" stroke="black" d="M95,-88C95,-88 30,-88 30,-88 27,-88 24,-85 24,-82 24,-82 24,-76 24,-76 24,-73 27,-70 30,-70 30,-70 95,-70 95,-70 98,-70 101,-73 101,-76 101,-76 101,-82 101,-82 101,-85 98,-88 95,-88"/>
<text text-anchor="start" x="32" y="-76.8" font-family="Helvetica,sans-Serif" font-size="9.00">app.routes.ts</text>
</a>
</g>
</g>
<!-- src/app/layouts/base&#45;layout/base&#45;layout.component.ts -->
<g id="node2" class="node">
<title>src/app/layouts/base&#45;layout/base&#45;layout.component.ts</title>
<g id="a_node2"><a xlink:href="src/app/layouts/base-layout/base-layout.component.ts" xlink:title="base&#45;layout.component.ts">
<path fill="#ddfeff" stroke="black" d="M253,-88C253,-88 131,-88 131,-88 128,-88 125,-85 125,-82 125,-82 125,-76 125,-76 125,-73 128,-70 131,-70 131,-70 253,-70 253,-70 256,-70 259,-73 259,-76 259,-76 259,-82 259,-82 259,-85 256,-88 253,-88"/>
<text text-anchor="start" x="133" y="-76.8" font-family="Helvetica,sans-Serif" font-size="9.00">base&#45;layout.component.ts</text>
</a>
</g>
</g>
<!-- src/app/app.routes.ts&#45;&gt;src/app/layouts/base&#45;layout/base&#45;layout.component.ts -->
<g id="edge1" class="edge">
<title>src/app/app.routes.ts&#45;&gt;src/app/layouts/base&#45;layout/base&#45;layout.component.ts</title>
<path fill="none" stroke="#000000" stroke-width="2" stroke-dasharray="5,2" stroke-opacity="0.200000" d="M101.06,-79C106.68,-79 112.63,-79 118.68,-79"/>
<polygon fill="#000000" fill-opacity="0.200000" stroke="#000000" stroke-width="2" stroke-opacity="0.200000" points="118.76,-81.1 124.76,-79 118.76,-76.9 118.76,-81.1"/>
</g>
<!-- src/app/common/footer/footer.component.ts -->
<g id="node3" class="node">
<title>src/app/common/footer/footer.component.ts</title>
<g id="a_node3"><a xlink:href="src/app/common/footer/footer.component.ts" xlink:title="footer.component.ts">
<path fill="#ddfeff" stroke="black" d="M403.5,-118C403.5,-118 307.5,-118 307.5,-118 304.5,-118 301.5,-115 301.5,-112 301.5,-112 301.5,-106 301.5,-106 301.5,-103 304.5,-100 307.5,-100 307.5,-100 403.5,-100 403.5,-100 406.5,-100 409.5,-103 409.5,-106 409.5,-106 409.5,-112 409.5,-112 409.5,-115 406.5,-118 403.5,-118"/>
<text text-anchor="start" x="309.5" y="-106.8" font-family="Helvetica,sans-Serif" font-size="9.00">footer.component.ts</text>
</a>
</g>
</g>
<!-- src/app/layouts/base&#45;layout/base&#45;layout.component.ts&#45;&gt;src/app/common/footer/footer.component.ts -->
<g id="edge2" class="edge">
<title>src/app/layouts/base&#45;layout/base&#45;layout.component.ts&#45;&gt;src/app/common/footer/footer.component.ts</title>
<path fill="none" stroke="#000000" stroke-width="2" stroke-opacity="0.200000" d="M241.46,-88C259.74,-91.4 280.66,-95.28 299.5,-98.78"/>
<polygon fill="#000000" fill-opacity="0.200000" stroke="#000000" stroke-width="2" stroke-opacity="0.200000" points="299.52,-100.92 305.8,-99.95 300.28,-96.79 299.52,-100.92"/>
</g>
<!-- src/app/common/navbar/navbar.component.ts -->
<g id="node4" class="node">
<title>src/app/common/navbar/navbar.component.ts</title>
<g id="a_node4"><a xlink:href="src/app/common/navbar/navbar.component.ts" xlink:title="navbar.component.ts">
<path fill="#ddfeff" stroke="black" d="M406,-58C406,-58 305,-58 305,-58 302,-58 299,-55 299,-52 299,-52 299,-46 299,-46 299,-43 302,-40 305,-40 305,-40 406,-40 406,-40 409,-40 412,-43 412,-46 412,-46 412,-52 412,-52 412,-55 409,-58 406,-58"/>
<text text-anchor="start" x="307" y="-46.8" font-family="Helvetica,sans-Serif" font-size="9.00">navbar.component.ts</text>
</a>
</g>
</g>
<!-- src/app/layouts/base&#45;layout/base&#45;layout.component.ts&#45;&gt;src/app/common/navbar/navbar.component.ts -->
<g id="edge3" class="edge">
<title>src/app/layouts/base&#45;layout/base&#45;layout.component.ts&#45;&gt;src/app/common/navbar/navbar.component.ts</title>
<path fill="none" stroke="#000000" stroke-width="2" stroke-opacity="0.200000" d="M241.46,-70C259.74,-66.6 280.66,-62.72 299.5,-59.22"/>
<polygon fill="#000000" fill-opacity="0.200000" stroke="#000000" stroke-width="2" stroke-opacity="0.200000" points="300.28,-61.21 305.8,-58.05 299.52,-57.08 300.28,-61.21"/>
</g>
</g>
</svg>
